400 0 1 0           
7 Unknown 11 ACIS 6.0 NT 24 Mon Dec 31 17:57:38 2001 
25.399999999999999 9.9999999999999995e-007 1e-010 
body $-1 $1 $-1 $-1 #
lump $-1 $-1 $2 $0 #
shell $-1 $-1 $-1 $3 $-1 $1 #
face $-1 $4 $5 $2 $-1 $6 forward single #
face $-1 $7 $8 $2 $-1 $9 forward single #
loop $-1 $-1 $10 $3 #
cone-surface $-1 1.3122001258600238 -0.82796491708493158 0.78749999999999987 -0.70710678118654757 -0.70710678118654746 0 -0.093750000000000014 0.093750000000000014 -0.13258252147247762 1 I I 0 -1 0.1875 forward I I I I #
face $-1 $11 $12 $2 $-1 $13 forward single #
loop $-1 $-1 $14 $4 #
torus-surface $-1 0 0 0.78749999999999987 0 0 -1 1.3076320915302031 -0.1875 -1 0 0 forward_v I I I I #
coedge $-1 $15 $16 $17 $18 forward $5 $-1 #
face $-1 $19 $20 $2 $-1 $21 forward single #
loop $-1 $-1 $22 $7 #
spline-surface $-1 forward { rbblnsur 11 blendsupsur plane 0.2613636363636363 3.1788776653547786e-017 0.59999999999999998 0 0 1 0.39370078740157477 0 0 forward_v I I I I null_curve nullbs 0 0 0 
	11 blendsupsur spline forward { rbblnsur 11 blendsupsur cone 0 0 0.59999999999999998 0 0 1 -1.1249999999999998 0 0 1 I I -0.02629907929419496 0.9996541193974432 1.1249999999999998 forward I I I I null_curve nullbs 0 0 0 
	11 blendsupsur plane 0.58394660940672649 -1.2910533905932735 0.59999999999999998 -0.70710678118654735 -0.70710678118654779 0 0 0 0.39370078740157477 forward_v I I I I null_curve nullbs 0 0 0 
	intcurve forward { offintcur nubs 3 open 3 
	-1.1949253941778528 3 0 3 2.8422064798022637 3 
	0.30043720035814625 -1.3610973721379673 -0.11363848309836505 
	0.29697800361434495 -1.3576381753941658 0.043099547460504956 
	0.29351255875883286 -1.3541727305386537 0.1998373024974027 
	0.29004062530013691 -1.3507007970799578 0.35657476982354874 
	0.28178240949701761 -1.3424425812768386 0.72938486109177625 
	0.27348751622450307 -1.3341476880043242 1.1021933317893773 
	0.2651523933813662 -1.3258125651611872 1.4750000000000001 
	1000 
	plane 0.58394660940672649 -1.2910533905932735 0.59999999999999998 -0.70710678118654735 -0.70710678118654779 0 0 0 0.39370078740157477 forward_v I I I I 
	cone 0 0 0.59999999999999998 0 0 1 -1.1249999999999998 0 0 1 I I -0.02629907929419496 0.9996541193974432 1.1249999999999998 forward I I I I 
	nullbs 
	nullbs 
	I I 
	0 
	0 
	0 
	0.24999999999999997 0.24999999999999997 } I I 0.24999999999999997 0.24999999999999997 
	no_radius 
	F 0 F 1 F 0 F 1 F -0.74625551380826871 F 2.8422064798022633 0 0 
	I I 
	1 0.050000000000000003 0.00017339505481176975 
	1 
	} F 0 F 1 F 0.61158842536682945 F 2.8422064798022633 null_curve nubs 3 open 4 
	0 3 0.047660206751709941 3 0.095315842969776771 3 0.15674909739859211 3 
	1 1.0950888865610757 
	0.89914724229550413 1.0955880547598404 
	0.79714788628296906 1.0960927437949688 
	0.69628928201637008 1.0965694631827705 
	0.59544034992023387 1.097046136853985 
	0.4934401774533792 1.097505385849989 
	0.39257844019263127 1.0979167157995191 
	0.26255678359532042 1.0984469644636654 
	0.13004705058732247 1.0989137095038968 
	1.4761883585994381e-016 1.0992659277938872 
	0 0 0 
	intcurve forward { offintcur nubs 3 open 4 
	0 3 0.047660206751709941 2 0.095315842969776771 2 0.15674909739859211 3 
	0.32467269881878696 -1.2969445229502889 0.78749999999999987 
	0.32025001438481232 -1.2925218385163142 0.78749999999999987 
	0.31510021126581161 -1.2887284870089057 0.7875000000000002 
	0.30403018903025608 -1.282904338778482 0.7875000000000002 
	0.29798765250287901 -1.2808090016436928 0.78749999999999987 
	0.28391110515910184 -1.2782008762477082 0.78749999999999987 
	0.2755449718627534 -1.2782963869338593 0.78750000000000009 
	0.26765355788313938 -1.2799465847261557 0.78750000000000009 
	1000 
	spline forward { ref 1 } F 0 F 1 F 0.61158842536682945 F 2.8422064798022633 
	plane 0.2613636363636363 3.1788776653547786e-017 0.59999999999999998 0 0 1 0.39370078740157477 0 0 forward_v I I I I 
	nubs 3 open 4 
	0 3 0.047660206751709941 3 0.095315842969776771 3 0.15674909739859211 3 
	1 1.0950888865610757 
	0.89914724229550413 1.0955880547598404 
	0.79714788628296906 1.0960927437949688 
	0.69628928201637008 1.0965694631827705 
	0.59544034992023387 1.097046136853985 
	0.4934401774533792 1.097505385849989 
	0.39257844019263127 1.0979167157995191 
	0.26255678359532042 1.0984469644636654 
	0.13004705058732247 1.0989137095038968 
	1.4761883585994381e-016 1.0992659277938872 
	
	nullbs 
	I I 
	0 
	0 
	0 
	0.1875 0.1875 } I I 0.1875 0.1875 
	no_radius 
	F 0 F 1 F 0 F 1 F 0 F 0.15674909739858667 0 0 
	I I 
	1 0.047625000000000001 0.0013034423862249846 
	1 
	} I I I I #
coedge $-1 $23 $24 $22 $25 forward $8 $-1 #
coedge $-1 $26 $10 $27 $28 forward $5 $-1 #
coedge $-1 $10 $26 $29 $30 forward $5 $-1 #
coedge $-1 $31 $32 $10 $18 reversed $33 $-1 #
edge $-1 $34 $35 $17 $36 forward #
face $-1 $37 $38 $2 $-1 $39 forward single #
loop $-1 $-1 $40 $11 #
spline-surface $-1 forward { rbblnsur 11 blendsupsur plane 0.2613636363636363 3.1788776653547786e-017 0.59999999999999998 0 0 1 0.39370078740157477 0 0 forward_v I I I I null_curve nullbs 0 0 0 
	11 blendsupsur spline forward { rbblnsur 11 blendsupsur cone 0 0 0.59999999999999998 0 0 1 -1.1249999999999998 0 0 1 I I -0.02629907929419496 0.9996541193974432 1.1249999999999998 forward I I I I null_curve nullbs 0 0 0 
	11 blendsupsur plane 0.54689288340306907 0.1602138977834785 0.59999999999999998 0.70710678118654735 0.70710678118654779 0 0 0 -0.39370078740157477 forward_v I I I I null_curve nullbs 0 0 0 
	intcurve forward { offintcur nubs 3 open 3 
	0 3 2.8422064798022628 3 4.037131873980135 3 
	1.3258125651611874 -0.26515239338136581 1.4749999999999999 
	1.3341476880043244 -0.27348751622450268 1.1021933317893771 
	1.3424425812768388 -0.28178240949701711 0.72938486109177625 
	1.3507007970799578 -0.29004062530013625 0.35657476982354874 
	1.3541727305386542 -0.29351255875883242 0.1998373024974002 
	1.357638175394166 -0.29697800361434423 0.043099547460499862 
	1.3610973721379673 -0.30043720035814558 -0.11363848309837266 
	1000 
	plane 0.54689288340306907 0.1602138977834785 0.59999999999999998 0.70710678118654735 0.70710678118654779 0 0 0 -0.39370078740157477 forward_v I I I I 
	cone 0 0 0.59999999999999998 0 0 1 -1.1249999999999998 0 0 1 I I -0.02629907929419496 0.9996541193974432 1.1249999999999998 forward I I I I 
	nullbs 
	nullbs 
	I I 
	0 
	0 
	0 
	0.24999999999999997 0.24999999999999997 } I I 0.24999999999999997 0.24999999999999997 
	no_radius 
	F 0 F 1 F 0 F 1 F 0 F 3.5884619936105504 0 0 
	I I 
	1 0.050000000000000003 0.00017339505481227149 
	1 
	} F 0 F 1 F 0 F 2.2306180544299856 null_curve nubs 3 open 4 
	0 3 0.061433254428815344 3 0.10908889064688207 3 0.15674909739859227 3 
	1.0248368903699678e-017 1.7429405520083765 
	0.13004705058732244 1.7432927702983669 
	0.26255678359531998 1.7437595153385976 
	0.39257844019263094 1.7442897640027439 
	0.49344017745337876 1.744701093952274 
	0.59544034992023465 1.7451603429482783 
	0.69628928201637008 1.7456370166194928 
	0.79714788628296918 1.7461137360072945 
	0.89914724229550358 1.7466184250424219 
	1 1.7471175932411867 
	0 0 0 
	intcurve forward { offintcur nubs 3 open 4 
	0 3 0.061433254428815344 2 0.10908889064688207 2 0.15674909739859227 3 
	1.279946584726156 -0.26765355788313877 0.78749999999999987 
	1.2782963869338595 -0.27554497186275279 0.78749999999999987 
	1.2782008762477084 -0.28391110515910123 0.78749999999999987 
	1.280809001643693 -0.2979876525028784 0.78749999999999987 
	1.2829043387784822 -0.30403018903025542 0.7875000000000002 
	1.2887284870089057 -0.315100211265811 0.7875000000000002 
	1.2925218385163146 -0.3202500143848116 0.78749999999999987 
	1.2969445229502894 -0.3246726988187863 0.78749999999999987 
	1000 
	spline forward { ref 5 } F 0 F 1 F 0 F 2.2306180544299856 
	plane 0.2613636363636363 3.1788776653547786e-017 0.59999999999999998 0 0 1 0.39370078740157477 0 0 forward_v I I I I 
	nubs 3 open 4 
	0 3 0.061433254428815344 3 0.10908889064688207 3 0.15674909739859227 3 
	1.0248368903699678e-017 1.7429405520083765 
	0.13004705058732244 1.7432927702983669 
	0.26255678359531998 1.7437595153385976 
	0.39257844019263094 1.7442897640027439 
	0.49344017745337876 1.744701093952274 
	0.59544034992023465 1.7451603429482783 
	0.69628928201637008 1.7456370166194928 
	0.79714788628296918 1.7461137360072945 
	0.89914724229550358 1.7466184250424219 
	1 1.7471175932411867 
	
	nullbs 
	I I 
	0 
	0 
	0 
	0.1875 0.1875 } I I 0.1875 0.1875 
	no_radius 
	F 0 F 1 F 0 F 1 F 1.5962997820598175e-016 F 0.15674909739859227 0 0 
	I I 
	1 0.047625000000000001 0.0013034423862256625 
	1 
	} I I I I #
coedge $-1 $41 $42 $14 $25 reversed $12 $43 #
coedge $-1 $44 $14 $45 $46 forward $8 $-1 #
coedge $-1 $14 $44 $47 $48 forward $8 $-1 #
edge $-1 $49 $50 $14 $51 forward #
coedge $-1 $16 $15 $52 $53 forward $5 $-1 #
coedge $-1 $54 $55 $15 $28 reversed $56 $-1 #
edge $57 $35 $58 $15 $59 forward #
coedge $-1 $60 $61 $16 $30 reversed $38 $-1 #
edge $62 $63 $34 $16 $64 forward #
coedge $-1 $65 $17 $61 $66 reversed $33 $-1 #
coedge $-1 $17 $67 $54 $68 reversed $33 $-1 #
loop $-1 $-1 $47 $69 #
vertex $-1 $18 $70 #
vertex $-1 $18 $71 #
straight-curve $-1 1.3122001258600238 -0.82796491708493158 0.59999999999999998 0.27838849653013681 0.27838849653013675 0 F -6.9715002624246623 F 5.2320777833687728 #
face $-1 $72 $56 $2 $-1 $73 forward single #
loop $-1 $-1 $60 $19 #
cone-surface $-1 0.047954997025157799 -1.0202268211566605 0.78749999999999987 -0.70710678118654779 0.70710678118654735 0 0.093750000000000083 0.093750000000000014 -0.13258252147247759 1 I I 0 -1 0.1875 forward I I I I #
coedge $-1 $74 $75 $76 $77 forward $20 $78 #
coedge $-1 $79 $22 $65 $80 forward $12 $81 #
coedge $-1 $22 $79 $82 $83 forward $12 $84 #
pcurve $-1 0 forward { exppc nubs 1 open 2 
	-1.544494214966774 1 0 1 
	1 0.15674909739858667 
	0 0.15674909739858667 
	0 
	spline forward { ref 0 } I I I I 
	} 0 0 #
coedge $-1 $24 $23 $85 $86 forward $8 $-1 #
coedge $-1 $87 $88 $23 $46 reversed $89 $-1 #
edge $-1 $50 $90 $45 $91 forward #
coedge $-1 $67 $65 $24 $48 reversed $33 $-1 #
edge $-1 $92 $49 $47 $93 forward #
vertex $-1 $48 $94 #
vertex $-1 $46 $95 #
ellipse-curve $-1 0.26765355788314299 -1.2799465847261551 0.78749999999999987 0.97882775515883025 0.20468567544096761 0 0 0 -0.18749999999999992 1 F 0 F 1.544494214966774 #
coedge $-1 $96 $97 $26 $53 reversed $98 $-1 #
edge $-1 $58 $63 $52 $99 forward #
coedge $-1 $76 $27 $32 $68 forward $56 $-1 #
coedge $-1 $27 $76 $100 $101 forward $56 $-1 #
loop $-1 $-1 $54 $37 #
convexity-sys-attrib $-1 $-1 $-1 $28 #
vertex $-1 $102 $103 #
intcurve-curve $-1 forward { surfintcur nubs 3 open 7 
	-0.0013659560584458649 3 0 2 0.21405324863678277 2 0.41825331149758715 2 0.62337616977968102 2 
	0.77733871664094623 2 0.91222043605298442 3 
	1.5562184335382292 -0.58394660940672605 0.59999999999999987 
	1.556039174212974 -0.58394660940672605 0.59999999999999987 
	1.5558599148416623 -0.58394660940675491 0.60000012853562257 
	1.5275897070749378 -0.58394660940561172 0.60004067019552809 
	1.4993233055701423 -0.58394660940672594 0.60323763144991527 
	1.445950709863413 -0.58394660940672594 0.61587731738654694 
	1.4204086111862386 -0.5839466094067256 0.6251117436430923 
	1.3731137027161953 -0.58394660940672571 0.65026889318448777 
	1.3510568757001356 -0.58394660940672605 0.66640411294198998 
	1.3195875079123316 -0.58394660940672605 0.70106483333399205 
	1.3084700646594507 -0.58394660940665377 0.71792812166097331 
	1.2945289384325391 -0.58394660940665744 0.7528256799994405 
	1.2910533905932742 -0.58394660940672594 0.76996454691360128 
	1.2910533905932742 -0.58394660940672594 0.78749999999999987 
	3.0295909427338326e-006 
	cone 1.3122001258600238 -0.82796491708493158 0.78749999999999987 -0.70710678118654757 -0.70710678118654746 0 -0.093750000000000014 0.093750000000000014 -0.13258252147247762 1 I I 0 -1 0.1875 forward I I I I 
	cone 0.64814656756155808 0.32412525656994484 0.78749999999999987 0.70710678118654779 -0.70710678118654735 0 -0.093750000000000014 -0.093750000000000083 -0.13258252147247759 1 I I 0 -1 0.1875 forward I I I I 
	nullbs 
	nullbs 
	F 0 I 
	0 
	1 0 
	0 
	} I I #
coedge $-1 $104 $29 $105 $106 forward $38 $-1 #
coedge $-1 $29 $104 $31 $66 forward $38 $-1 #
convexity-sys-attrib $-1 $-1 $-1 $30 #
vertex $-1 $107 $108 #
intcurve-curve $-1 forward { surfintcur nubs 3 open 7 
	0 3 0.13362015251836626 2 0.28614266693616264 2 0.48934698348943689 2 0.69163713565132579 2 
	0.9036883154151838 2 0.90504149550258528 3 
	0.58394660940672649 -1.2910533905932733 0.78749999999999987 
	0.58394660940672649 -1.2910533905932733 0.76996454691360017 
	0.58394660940665777 -1.2945289384325398 0.75282567999943828 
	0.58394660940665377 -1.30847006465945 0.71792812166097464 
	0.58394660940672682 -1.3195875079123285 0.7010648333339945 
	0.58394660940672682 -1.3510568757001344 0.66640411294199009 
	0.58394660940672682 -1.3731137027161937 0.65026889318448799 
	0.58394660940672694 -1.4204086111862384 0.62511174364309163 
	0.58394660940672649 -1.4459507098634143 0.6158773173865465 
	0.5839466094067266 -1.4993233055701434 0.60323763144991482 
	0.58394660940562315 -1.5275897070749456 0.60004067019552798 
	0.58394660940675491 -1.5558599148416619 0.60000012853562257 
	0.58394660940672605 -1.556039174212974 0.59999999999999987 
	0.58394660940672605 -1.5562184335382292 0.59999999999999987 
	3.0295909429989163e-006 
	cone 1.3122001258600238 -0.82796491708493158 0.78749999999999987 -0.70710678118654757 -0.70710678118654746 0 -0.093750000000000014 0.093750000000000014 -0.13258252147247762 1 I I 0 -1 0.1875 forward I I I I 
	cone 0.047954997025157799 -1.0202268211566605 0.78749999999999987 -0.70710678118654779 0.70710678118654735 0 0.093750000000000083 0.093750000000000014 -0.13258252147247759 1 I I 0 -1 0.1875 forward I I I I 
	nullbs 
	nullbs 
	I F 0.9036883154151838 
	0 
	1 0.9036883154151838 
	0 
	} I I #
coedge $-1 $47 $31 $41 $80 reversed $33 $-1 #
edge $-1 $109 $34 $31 $110 forward #
coedge $-1 $32 $47 $74 $111 reversed $33 $-1 #
edge $-1 $35 $112 $32 $113 forward #
face $-1 $114 $115 $2 $-1 $116 forward single #
point $-1 0.58394660940672605 -1.5562184335382292 0.59999999999999987 #
point $-1 1.5562184335382292 -0.58394660940672605 0.59999999999999987 #
face $-1 $117 $118 $2 $-1 $119 forward single #
cone-surface $-1 0.64814656756155808 0.32412525656994484 0.78749999999999987 0.70710678118654779 -0.70710678118654735 0 -0.093750000000000014 -0.093750000000000083 -0.13258252147247759 1 I I 0 -1 0.1875 forward I I I I #
coedge $-1 $85 $40 $67 $111 forward $20 $120 #
coedge $-1 $40 $85 $121 $122 forward $20 $123 #
coedge $-1 $55 $54 $40 $77 reversed $56 $-1 #
edge $-1 $124 $112 $40 $125 forward #
pcurve $-1 0 forward { exppc nubs 1 open 2 
	0 1 1.5707963267948966 1 
	1 0.15674909739859227 
	0 0.15674909739859227 
	0 
	spline forward { ref 4 } I I I I 
	} 0 0 #
coedge $-1 $42 $41 $104 $126 forward $12 $127 #
edge $-1 $49 $109 $65 $128 forward #
pcurve $-1 0 reversed { exppc nubs 1 open 2 
	0 1 0.15674909739858667 1 
	0 0 
	0 0.15674909739858667 
	0.0013034423862249846 
	spline forward { ref 0 } I I I I 
	} 0 0 #
coedge $-1 $129 $130 $42 $83 reversed $131 $132 #
edge $-1 $133 $50 $82 $134 forward #
pcurve $-1 0 forward { exppc nubs 1 open 2 
	0 1 0.15674909739858667 1 
	1 0 
	1 0.15674909739858667 
	0.0013034423862249846 
	spline forward { ref 0 } I I I I 
	} 0 0 #
coedge $-1 $75 $74 $44 $86 reversed $20 $135 #
edge $-1 $90 $92 $44 $136 forward #
coedge $-1 $137 $45 $130 $138 reversed $89 $-1 #
coedge $-1 $45 $137 $139 $140 reversed $89 $-1 #
loop $-1 $-1 $45 $141 #
vertex $-1 $140 $142 #
ellipse-curve $-1 -8.7419135797256413e-017 0 0.78256892263233824 0 0 -1 -0.79209885546810255 0.79209885546808223 0 1 I I #
vertex $-1 $48 $143 #
ellipse-curve $-1 0 0 0.59999999999999998 0 0 1 -0.92463551921816678 0.9246355192181428 0 1 I I #
point $-1 0.26765355788314299 -1.2799465847261551 0.59999999999999998 #
point $-1 0.22928826813885442 -1.0964798601714585 0.78256892263223188 #
coedge $-1 $144 $52 $145 $102 forward $98 $-1 #
coedge $-1 $52 $146 $147 $107 reversed $98 $-1 #
loop $-1 $148 $52 $149 #
straight-curve $-1 1.1796176043875459 -0.69538239561245396 0.78749999999999987 -0.27838849653013681 -0.27838849653013675 0 F -5.2320777833687728 F 6.9715002624246623 #
coedge $-1 $150 $145 $55 $101 reversed $118 $-1 #
edge $-1 $124 $58 $100 $151 forward #
edge $-1 $58 $152 $96 $153 forward #
point $-1 1.2910533905932742 -0.58394660940672605 0.78749999999999987 #
coedge $-1 $61 $60 $79 $126 reversed $38 $-1 #
coedge $-1 $147 $154 $60 $106 reversed $155 $-1 #
edge $-1 $63 $133 $105 $156 forward #
edge $-1 $63 $157 $147 $158 forward #
point $-1 0.58394660940672649 -1.2910533905932735 0.78749999999999987 #
vertex $-1 $80 $159 #
straight-curve $-1 0.047954997025157799 -1.0202268211566605 0.59999999999999998 0.27838849653013692 -0.27838849653013675 0 F -10.117894330526058 F 6.2808758060692416 #
edge $-1 $112 $92 $67 $160 forward #
vertex $-1 $111 $161 #
straight-curve $-1 0.64814656756155808 0.32412525656994484 0.59999999999999998 -0.27838849653013692 0.27838849653013675 0 F -7.6174261960197898 F 8.7813439405755105 #
face $-1 $162 $163 $2 $-1 $164 forward single #
loop $-1 $165 $166 $69 #
plane-surface $-1 0.2613636363636363 3.1788776653547786e-017 0.59999999999999998 0 0 1 0.39370078740157477 0 0 forward_v I I I I #
face $-1 $141 $167 $2 $-1 $168 forward single #
loop $-1 $-1 $100 $72 #
plane-surface $-1 0.54689288340306907 0.1602138977834785 0.59999999999999998 0.70710678118654735 0.70710678118654779 0 0 0 -0.39370078740157477 forward_v I I I I #
pcurve $-1 0 reversed { exppc nubs 1 open 2 
	1.6653345369377348e-016 1 0.15674909739859227 1 
	0 1.5962997820598175e-016 
	0 0.15674909739859227 
	0.0013034423862256625 
	spline forward { ref 4 } I I I I 
	} 0 0 #
coedge $-1 $139 $169 $75 $122 reversed $167 $170 #
edge $-1 $90 $124 $121 $171 forward #
pcurve $-1 0 forward { exppc nubs 1 open 2 
	1.6653345369377348e-016 1 0.15674909739859227 1 
	1 1.5962997820598175e-016 
	1 0.15674909739859227 
	0.0013034423862256625 
	spline forward { ref 4 } I I I I 
	} 0 0 #
vertex $-1 $122 $172 #
ellipse-curve $-1 1.2969445229502894 -0.3246726988187863 0.78749999999999987 0.70710678118654846 -0.70710678118654657 0 -0.13258252147247734 -0.13258252147247768 0 1 F 0 F 1.5707963267948966 #
edge $-1 $109 $133 $79 $173 forward #
pcurve $-1 0 forward { exppc nubs 1 open 2 
	0 1 1.5707963267948966 1 
	0 0 
	1 0 
	0 
	spline forward { ref 0 } I I I I 
	} 0 0 #
intcurve-curve $-1 reversed { bldcur nubs 3 open 5 
	0 3 0.055645929576498304 2 0.10580564074404603 2 0.13715546022376335 2 0.15674909739858667 3 
	0.3246726988187868 -1.2969445229502889 0.59999999999999998 
	0.31950896992784572 -1.2917807940593478 0.59999999999999998 
	0.31338867628299349 -1.2875010092399168 0.59999999999999998 
	0.30075095457018114 -1.2816441239235468 0.59999999999999998 
	0.2943165849589055 -1.2798228113462669 0.59999999999999998 
	0.28363634562332235 -1.2785678000497738 0.59999999999999998 
	0.27945311914427651 -1.2784936578911781 0.59999999999999998 
	0.27273487106450678 -1.2790467288246103 0.59999999999999998 
	0.27017046023107177 -1.279420267552996 0.59999999999999998 
	0.26765355788314149 -1.2799465847261551 0.59999999999999998 
	0.0013034423862249846 
	spline forward { ref 0 } I I I I 
	null_surface 
	nubs 1 open 2 
	0 1 0.15674909739858667 1 
	0 0 
	0 0.15674909739858667 
	
	nullbs 
	I I 
	0 
	0 
	0 
	surf1 } I I #
coedge $-1 $174 $82 $154 $175 forward $131 $176 #
coedge $-1 $82 $174 $87 $138 forward $131 $177 #
loop $-1 $-1 $82 $162 #
pcurve $-1 0 reversed { exppc nubs 3 open 4 
	0 3 0.047660206751709941 3 0.095315842969776771 3 0.15674909739859211 3 
	0.99999999999999978 1.0950888865610757 
	0.89914724229550402 1.0955880547598404 
	0.79714788628296895 1.0960927437949688 
	0.69628928201637008 1.0965694631827705 
	0.59544034992023387 1.097046136853985 
	0.4934401774533792 1.097505385849989 
	0.39257844019263127 1.0979167157995191 
	0.26255678359530887 1.0984469644635753 
	0.13004705058729935 1.0989137095037165 
	-3.4548130299769079e-014 1.0992659277936168 
	0 
	spline forward { ref 1 } F 0 F 1 F 0.61158842536682945 F 2.8422064798022633 
	} 0 0 #
vertex $-1 $175 $178 #
intcurve-curve $-1 forward { bldcur nubs 3 open 5 
	0 3 0.055645929576498304 2 0.10580564074404603 2 0.13715546022376335 2 0.15674909739858667 3 
	0.45725522029126436 -1.1643620014778113 0.78749999999999987 
	0.43661559830808772 -1.1437223794946347 0.78681198572954714 
	0.41214982498637909 -1.1266186414746107 0.78611912941072659 
	0.36162632662497224 -1.1032184886989729 0.78488700675218959 
	0.33590107403756564 -1.0959454642475475 0.78433700501348935 
	0.29319779173129024 -1.0909430940976328 0.78354186385279134 
	0.27647119062220504 -1.0906528302703493 0.78325823191248223 
	0.24960732844081407 -1.0928742441417665 0.78284749829295752 
	0.2393529296214757 -1.09437164356971 0.78270153880645232 
	0.22928826813885961 -1.0964798601714518 0.78256892263233846 
	0.0013034423862249846 
	spline forward { ref 0 } I I I I 
	null_surface 
	nubs 1 open 2 
	0 1 0.15674909739858667 1 
	1 0 
	1 0.15674909739858667 
	
	nullbs 
	I I 
	0 
	0 
	0 
	surf1 } I I #
pcurve $-1 0 forward { exppc nubs 1 open 2 
	-1.5444942149673013 1 0 1 
	0 1.5962997820598175e-016 
	1 1.5962997820598175e-016 
	0 
	spline forward { ref 4 } I I I I 
	} 0 0 #
ellipse-curve $-1 1.279946584726156 -0.26765355788313877 0.78749999999999987 -0.20468567544096131 -0.97882775515883158 0 -0.18346672455470173 0.038365289744288364 -0.0049310773676691962 1 F 7.6482183549655807e-018 F 1.5444942149673013 #
coedge $-1 $88 $87 $179 $180 reversed $89 $-1 #
edge $181 $182 $50 $87 $183 forward #
coedge $-1 $184 $121 $88 $140 forward $167 $185 #
edge $-1 $90 $186 $88 $187 forward #
face $-1 $69 $188 $2 $-1 $189 forward single #
point $-1 1.0964798601714543 -0.22928826813885039 0.78256892263233069 #
point $-1 1.279946584726156 -0.26765355788313877 0.59999999999999998 #
coedge $-1 $190 $96 $191 $192 reversed $98 $-1 #
coedge $-1 $100 $193 $96 $102 reversed $118 $-1 #
coedge $-1 $97 $190 $194 $195 reversed $98 $-1 #
coedge $-1 $196 $105 $97 $107 forward $155 $-1 #
loop $-1 $-1 $197 $149 #
face $-1 $198 $98 $2 $-1 $199 forward single #
coedge $-1 $193 $100 $169 $200 reversed $118 $-1 #
straight-curve $-1 0.51556404608908035 0.19154273509746711 0.78749999999999987 0.27838849653013692 -0.27838849653013675 0 F -8.7813439405755105 F 7.6174261960197898 #
vertex $-1 $192 $201 #
straight-curve $-1 1.2910533905932742 -0.58394660940672605 0.59999999999999998 0 0 0.39370078740157477 I I #
coedge $-1 $105 $196 $129 $175 reversed $155 $-1 #
loop $-1 $-1 $105 $202 #
straight-curve $-1 0.18053751849763552 -0.88764429968418279 0.78749999999999987 -0.27838849653013692 0.27838849653013675 0 F -6.2808758060692416 F 10.117894330526058 #
vertex $-1 $195 $203 #
straight-curve $-1 0.58394660940672649 -1.2910533905932735 0.59999999999999998 0 0 0.39370078740157477 I I #
point $-1 0.32467269881878696 -1.2969445229502889 0.59999999999999998 #
intcurve-curve $-1 reversed { bldcur nubs 3 open 5 
	1.5962997820598175e-016 3 0.019593637174824173 2 0.050943456654542599 2 0.10110316782209208 2 0.15674909739859227 3 
	1.2799465847261557 -0.26765355788313894 0.59999999999999998 
	1.2794202675529964 -0.27017046023106933 0.59999999999999998 
	1.2790467288246108 -0.27273487106450411 0.59999999999999998 
	1.2784936578911783 -0.27945311914427401 0.59999999999999998 
	1.2785678000497738 -0.28363634562332041 0.59999999999999998 
	1.2798228113462666 -0.29431658495890423 0.59999999999999998 
	1.2816441239235468 -0.30075095457017959 0.59999999999999998 
	1.2875010092399171 -0.31338867628299277 0.59999999999999998 
	1.2917807940593482 -0.31950896992784505 0.59999999999999998 
	1.2969445229502896 -0.3246726988187863 0.59999999999999998 
	0.0013034423862256625 
	spline forward { ref 4 } I I I I 
	null_surface 
	nubs 1 open 2 
	1.5962997820598175e-016 1 0.15674909739859227 1 
	0 1.5962997820598175e-016 
	0 0.15674909739859227 
	
	nullbs 
	I I 
	0 
	0 
	0 
	surf1 } I I #
point $-1 1.2969445229502894 -0.3246726988187863 0.59999999999999998 #
face $-1 $202 $131 $2 $-1 $204 forward single #
loop $-1 $-1 $205 $114 #
spline-surface $-1 forward { rbblnsur 11 blendsupsur cone 0.75145987320244889 -0.75145987320244878 1.4750000000000001 -0.70710678118654779 0.70710678118654735 -7.4277992384543867e-032 -0.24999999999999994 -0.24999999999999994 0.35355339059327379 1 I I 0 1 0.49999999999999994 forward I I I I null_curve nullbs 0 0 0 
	11 blendsupsur cone 0 0 0.59999999999999998 0 0 1 -1.1249999999999998 0 0 1 I I -0.02629907929419496 0.9996541193974432 1.1249999999999998 forward I I I I null_curve nullbs 0 0 0 
	intcurve forward { offintcur nubs 3 open 12 
	0 3 0.6265950393419597 2 1.3688741686089008 2 2.1390444088327469 2 2.6295733295413428 2 
	2.9393356081397943 2 3.2165867185754289 2 3.5582447518370759 2 4.1682464118072087 2 4.8349912323279964 2 
	5.4871417528049529 2 6.0730784920849263 3 
	1.3258125651611874 -0.26515239338136576 1.4749999999999999 
	1.3239749975309221 -0.26331482575110027 1.557189246486635 
	1.3189855875001766 -0.27829694300393804 1.6409883366092597 
	1.2999512965484907 -0.34028231463622116 1.8085199992878154 
	1.283829474176535 -0.39330116020207606 1.893044931672166 
	1.2340960844814357 -0.51966394409743288 2.0378033588133717 
	1.19862854840043 -0.59616422307410233 2.1001051967831961 
	1.1219483680171718 -0.72342745390025787 2.1728831245087861 
	1.0869375768509379 -0.77445513489545259 2.1945627455416461 
	1.0230191751974105 -0.85482044454259509 2.2166109844104489 
	0.99640478367827667 -0.88552516091927536 2.2219967666309981 
	0.94349338786292303 -0.94138061574598886 2.2258799137301506 
	0.91728499059089397 -0.96696150170913486 2.2250576995103848 
	0.8572703174983749 -1.0211438978627789 2.217346212734252 
	0.82281354601575996 -1.0493241487738327 2.2090419666851155 
	0.72629488322523172 -1.1211726954093342 2.1755848729574168 
	0.66249105537635011 -1.1604392460079667 2.141733446055226 
	0.53753016906012174 -1.2262932533171125 2.051612916249657 
	0.47529402097585982 -1.2524628875957815 1.9923156502914428 
	0.3718961145943695 -1.29055763301321 1.858840862048986 
	0.32892944714497985 -1.3034124148923933 1.7829486535112209 
	0.27633485661210322 -1.3196147410829546 1.630074185047881 
	0.26343406125633917 -1.3240942330361596 1.551856176743486 
	0.26515239338136676 -1.3258125651611872 1.4750000000000001 
	1000 
	cone 0 0 0.59999999999999998 0 0 1 -1.1249999999999998 0 0 1 I I -0.02629907929419496 0.9996541193974432 1.1249999999999998 forward I I I I 
	cone 0.75145987320244889 -0.75145987320244878 1.4750000000000001 -0.70710678118654779 0.70710678118654735 -7.4277992384543867e-032 -0.24999999999999994 -0.24999999999999994 0.35355339059327379 1 I I 0 1 0.49999999999999994 forward I I I I 
	nullbs 
	nullbs 
	I I 
	0 
	0 
	0 
	0.24999999999999997 0.24999999999999997 } I I 0.24999999999999997 0.24999999999999997 
	no_radius 
	F 0 F 1 F 0 F 1 F 3.1478918851699261e-016 F 6.0730784920849263 0 0 
	I I 
	1 0.050000000000000003 0.019345856829459242 
	1 
	} I I I I #
loop $-1 $206 $207 $69 #
coedge $-1 $166 $166 $208 $209 forward $115 $-1 #
loop $-1 $-1 $121 $117 #
spline-surface $-1 forward { ref 5 } F 0 F 1 F 0 F 2.2306180544299856 #
coedge $-1 $121 $184 $150 $200 forward $167 $210 #
pcurve $-1 0 reversed { exppc nubs 3 open 4 
	0 3 0.061433254428815344 3 0.10908889064688207 3 0.15674909739859227 3 
	-1.0137542627695756e-015 1.7429405520083963 
	0.13004705058732174 1.74329277029838 
	0.26255678359531964 1.7437595153386043 
	0.39257844019263094 1.7442897640027439 
	0.49344017745337876 1.744701093952274 
	0.59544034992023465 1.7451603429482783 
	0.69628928201637008 1.7456370166194928 
	0.79714788628296918 1.7461137360072945 
	0.89914724229550358 1.7466184250424222 
	1 1.7471175932411869 
	0 
	spline forward { ref 5 } F 0 F 1 F 0 F 2.2306180544299856 
	} 0 0 #
intcurve-curve $-1 forward { bldcur nubs 3 open 5 
	1.5962997820598175e-016 3 0.019593637174824173 2 0.050943456654542599 2 0.10110316782209208 2 0.15674909739859227 3 
	1.0964798601714534 -0.22928826813885092 0.78256892263233857 
	1.0943716435697111 -0.23935292962146731 0.78270153880645243 
	1.0928742441417678 -0.2496073284408058 0.78284749829295719 
	1.09065283027035 -0.27647119062219777 0.78325823191248189 
	1.0909430940976328 -0.29319779173128457 0.78354186385279101 
	1.095945464247547 -0.33590107403756253 0.78433700501348902 
	1.1032184886989713 -0.36162632662496808 0.78488700675218992 
	1.1266186414746102 -0.41214982498637831 0.78611912941072692 
	1.1437223794946352 -0.4366155983080876 0.78681198572954747 
	1.1643620014778127 -0.45725522029126486 0.7875000000000002 
	0.0013034423862256625 
	spline forward { ref 4 } I I I I 
	null_surface 
	nubs 1 open 2 
	1.5962997820598175e-016 1 0.15674909739859227 1 
	1 1.5962997820598175e-016 
	1 0.15674909739859227 
	
	nullbs 
	I I 
	0 
	0 
	0 
	surf1 } I I #
point $-1 1.164362001477812 -0.45725522029126398 0.78749999999999987 #
ellipse-curve $-1 0.32467269881878696 -1.2969445229502889 0.78749999999999987 0.70710678118654813 -0.70710678118654702 0 0 0 -0.18749999999999992 1 F 0 F 1.5707963267948966 #
coedge $-1 $130 $129 $211 $212 reversed $131 $213 #
edge $-1 $133 $214 $154 $215 forward #
pcurve $-1 0 forward { exppc nubs 1 open 2 
	1.0950888865610762 1 2.8422064798022637 1 
	0.99999999999999978 1.0950888865610757 
	1 2.8422064798022633 
	0.00017339505481176975 
	spline forward { ref 1 } I I I I 
	} 0 0 #
pcurve $-1 0 reversed { exppc nubs 1 open 2 
	1.0992659277933456 1 2.8422064798022637 1 
	0 1.0992659277936161 
	0 2.8422064798022633 
	0.00017339505481176975 
	spline forward { ref 1 } I I I I 
	} 0 0 #
point $-1 0.45725522029126442 -1.1643620014778113 0.78749999999999987 #
coedge $-1 $211 $216 $137 $180 forward $163 $217 #
edge $-1 $186 $182 $137 $218 forward #
convexity-sys-attrib $-1 $-1 $-1 $138 #
vertex $-1 $180 $219 #
intcurve-curve $-1 reversed { bldcur nubs 3 open 4 
	1.0992659277936159 3 1.9184893738665272 2 2.4869306698269802 2 2.8422064798022633 3 
	0.22928826814201672 -1.0964798601781016 0.78256892263266919 
	0.22722977947180387 -1.0940221825344958 0.89002547812277266 
	0.22517075107539533 -1.0915614947684793 0.99748189319863412 
	0.22168205916155367 -1.0873881777239149 1.1794997276746828 
	0.22025268599593409 -1.085677143783957 1.2540612221414937 
	0.21792950487242757 -1.0828942690390868 1.3752235349325235 
	0.21703586555802701 -1.0818233449459105 1.4218243966501232 
	0.21614211634519043 -1.0807518274927377 1.4684252301764511 
	0.00017339505481176975 
	spline forward { ref 1 } I I I I 
	null_surface 
	nubs 1 open 2 
	1.0992659277933456 1 2.8422064798022637 1 
	0 1.0992659277936159 
	0 2.8422064798022633 
	
	nullbs 
	I I 
	0 
	0 
	0 
	surf1 } I I #
coedge $-1 $169 $139 $216 $220 forward $167 $221 #
pcurve $-1 0 reversed { exppc nubs 1 open 2 
	0 1 1.7429405520084151 1 
	0 0 
	0 1.7429405520083963 
	0.00017339505481227149 
	spline forward { ref 5 } I I I I 
	} 0 0 #
vertex $-1 $140 $222 #
intcurve-curve $-1 reversed { bldcur nubs 3 open 6 
	0 3 0.49738613396539599 2 1.0658274299258486 2 1.4211032399011314 2 1.5987411448887729 2 
	1.7429405520083963 3 
	1.0807518274927377 -0.21614211634519015 1.4684252301764511 
	1.0822519519271796 -0.21739336524316136 1.4031840632395922 
	1.0837509133890226 -0.21864439874653699 1.3379428410487177 
	1.086960515040861 -0.22132473371585734 1.1981401058585259 
	1.0886708040084134 -0.22275397074205072 1.1235785762584287 
	1.0914476254494039 -0.22507604553786459 1.0024159779824913 
	1.0925150572115128 -0.22596904656677658 0.95581495155936047 
	1.0941153483253456 -0.22730839361984476 0.88591337183179664 
	1.0946486359405085 -0.22775481688856361 0.86261283857371607 
	1.0956145678789353 -0.2285635825846653 0.82039784436218088 
	1.0960472606584006 -0.22892593372386794 0.80148338567261002 
	1.0964798601719412 -0.22928826813908043 0.78256892263236211 
	0.00017339505481227149 
	spline forward { ref 5 } I I I I 
	null_surface 
	nubs 1 open 2 
	0 1 1.7429405520084151 1 
	0 0 
	0 1.7429405520083963 
	
	nullbs 
	I I 
	0 
	0 
	0 
	surf1 } I I #
loop $-1 $89 $223 $141 #
cone-surface $-1 0 0 0.59999999999999998 0 0 1 -1.1249999999999998 0 0 1 I I -0.02629907929419496 0.9996541193974432 1.1249999999999998 forward I I I I #
coedge $-1 $146 $144 $205 $224 forward $98 $-1 #
coedge $-1 $225 $226 $144 $192 forward $227 $-1 #
edge $-1 $228 $152 $144 $229 forward #
coedge $-1 $145 $150 $225 $230 reversed $118 $-1 #
coedge $-1 $231 $232 $146 $195 forward $233 $-1 #
edge $234 $157 $235 $146 $229 forward #
coedge $-1 $154 $147 $232 $236 reversed $155 $-1 #
coedge $-1 $197 $197 $237 $238 forward $148 $-1 #
face $-1 $239 $233 $2 $-1 $240 forward single #
plane-surface $-1 1.2910533905932742 -0.58394660940672605 0.59999999999999998 0.70710678118654746 -0.70710678118654757 0 0 0 -0.39370078740157477 forward_v I I I I #
edge $241 $242 $124 $150 $243 forward #
point $-1 1.2910533905932742 -0.58394660940672605 1.4750000000000001 #
face $-1 $244 $155 $2 $-1 $245 forward single #
point $-1 0.58394660940672649 -1.2910533905932735 1.4750000000000001 #
spline-surface $-1 forward { ref 1 } F 0 F 1 F 0.61158842536682945 F 2.8422064798022633 #
coedge $-1 $246 $247 $190 $224 reversed $163 $248 #
loop $-1 $249 $250 $69 #
coedge $-1 $207 $207 $251 $252 forward $165 $-1 #
coedge $-1 $208 $208 $166 $209 reversed $253 $-1 #
edge $254 $255 $255 $166 $256 forward #
pcurve $-1 0 forward { exppc nubs 1 open 2 
	0 1 1.7471175932411867 1 
	1 0 
	1 1.7471175932411869 
	0.00017339505481227149 
	spline forward { ref 5 } I I I I 
	} 0 0 #
coedge $-1 $247 $179 $174 $212 forward $163 $257 #
edge $-1 $182 $214 $211 $258 forward #
pcurve $-1 0 forward { exppc nubs 1 open 2 
	-0.9830169570295304 1 1.1102230246251565e-016 1 
	1 2.8422064798022633 
	0 2.8422064798022633 
	0 
	spline forward { ref 1 } I I I I 
	} 0 0 #
vertex $-1 $236 $259 #
intcurve-curve $-1 forward { bldcur nubs 3 open 4 
	1.0950888865610757 3 1.9184893738665272 2 2.4869306698269802 2 2.8422064798022633 3 
	0.45725522030030236 -1.1643620014868494 0.78750000000040177 
	0.45485443464403175 -1.161961215830579 0.89550445441119686 
	0.45245045735746092 -1.1595572385440083 1.0035087669946812 
	0.44838133338173297 -1.1554881145682805 1.1860744974982314 
	0.44671790238494818 -1.1538246835714951 1.2606359919650425 
	0.44401224018852581 -1.1511190213750728 1.3817983047560722 
	0.44297097903339483 -1.1500777602199423 1.4283991664736719 
	0.44192908867800273 -1.1490358698645502 1.4749999999999999 
	0.00017339505481176975 
	spline forward { ref 1 } I I I I 
	null_surface 
	nubs 1 open 2 
	1.0950888865610762 1 2.8422064798022637 1 
	0.99999999999999978 1.0950888865610757 
	1 2.8422064798022633 
	
	nullbs 
	I I 
	0 
	0 
	0 
	surf1 } I I #
coedge $-1 $179 $246 $184 $220 reversed $163 $260 #
pcurve $-1 0 forward { exppc nubs 1 open 2 
	4.4408920985006262e-016 1 6.0730784920849263 1 
	1 3.1478918851699261e-016 
	1 6.0730784920849263 
	0.019345856829459242 
	spline forward { ref 22 } I I I I 
	} 0 0 #
intcurve-curve $-1 forward { bldcur nubs 3 open 7 
	3.1478918851699261e-016 3 0.40505427051055454 2 1.0531411033274414 2 2.0900800358344602 2 3.7491823278456904 2 
	5.7275037204586567 2 6.0730784920849263 3 
	1.0807518274927377 -0.21614211634519015 1.4684252301764511 
	1.0795301774165211 -0.21512314200114432 1.5215554070677619 
	1.0772204504088958 -0.21965363019665421 1.5753964717364226 
	1.0681637919412073 -0.24498405293801898 1.7108888320860431 
	1.0597040190925247 -0.27347049962441933 1.7892430272218784 
	1.0259259642211491 -0.37022741697149664 1.973580837833222 
	0.99327233249088676 -0.45098706167149416 2.0664736748992456 
	0.86326789598892284 -0.6712048810154827 2.2298234169749533 
	0.73084928570049734 -0.81458681168775726 2.245292489597738 
	0.42853285064737995 -1.0175961446158597 2.0732205089913034 
	0.2655410462816884 -1.059896248469814 1.860802343513563 
	0.21841626306360606 -1.0778732922254957 1.5595776218197515 
	0.21527277153914057 -1.079709568524418 1.5137535974654457 
	0.21614211634519037 -1.0807518274927377 1.4684252301764513 
	0.019345856829459242 
	spline forward { ref 22 } I I I I 
	null_surface 
	nubs 1 open 2 
	3.1478918851699261e-016 1 6.0730784920849263 1 
	1 3.1478918851699261e-016 
	1 6.0730784920849263 
	
	nullbs 
	I I 
	0 
	0 
	0 
	surf1 } I I #
point $-1 0.21614211634519043 -1.0807518274927377 1.4684252301764513 #
edge $-1 $186 $242 $184 $261 forward #
pcurve $-1 0 forward { exppc nubs 1 open 2 
	0 1 0.98301695702953051 1 
	0 0 
	1 0 
	0 
	spline forward { ref 5 } I I I I 
	} 0 0 #
point $-1 1.0807518274927379 -0.21614211634519018 1.4684252301764511 #
coedge $-1 $223 $223 $262 $263 reversed $188 $-1 #
edge $-1 $228 $235 $205 $264 reversed #
coedge $-1 $226 $191 $193 $230 forward $227 $-1 #
coedge $-1 $191 $225 $246 $265 reversed $227 $-1 #
loop $-1 $-1 $226 $244 #
vertex $-1 $192 $266 #
ellipse-curve $-1 0.93750000000000033 -0.9375 1.4750000000000001 -0.70710678118654746 0.70710678118654757 0 -0.24999999999999994 -0.24999999999999994 0.35355339059327379 1 I I #
edge $267 $152 $242 $193 $268 forward #
coedge $-1 $232 $194 $247 $269 reversed $233 $-1 #
coedge $-1 $194 $231 $196 $236 forward $233 $-1 #
loop $-1 $-1 $231 $198 #
convexity-sys-attrib $-1 $-1 $-1 $195 #
vertex $-1 $195 $270 #
edge $-1 $214 $157 $196 $271 forward #
coedge $-1 $237 $237 $197 $238 reversed $272 $-1 #
edge $-1 $273 $273 $197 $274 forward #
face $-1 $275 $276 $2 $-1 $277 forward single #
cone-surface $-1 0.75145987320244889 -0.75145987320244878 1.4750000000000001 -0.70710678118654779 0.70710678118654735 -7.4277992384543867e-032 -0.24999999999999994 -0.24999999999999994 0.35355339059327379 1 I I 0 1 0.49999999999999994 forward I I I I #
convexity-sys-attrib $-1 $-1 $-1 $200 #
vertex $-1 $200 $278 #
intcurve-curve $-1 forward { bldcur nubs 3 open 6 
	0 3 0.49738613396539599 2 1.0658274299258486 2 1.4211032399011314 2 1.5987411448887729 2 
	1.7471175932411867 3 
	1.1490358698645506 -0.44192908867800262 1.4749999999999999 
	1.1504945163620997 -0.44338773517555158 1.409758833063141 
	1.1519519296464886 -0.4448451484599405 1.3445176108722665 
	1.1550723585947513 -0.44796557740820314 1.2047148756820747 
	1.1567350029128574 -0.4496282217263094 1.1301533460819775 
	1.1594342727460869 -0.452327491559539 1.00899074780604 
	1.1604718459393968 -0.45336506475284921 0.96238972138290912 
	1.1620273049488621 -0.45492052376231451 0.8924881416553454 
	1.16254564115345 -0.45543885996690187 0.86918760839726483 
	1.1634966565282503 -0.45638987534170206 0.82642471695681907 
	1.1639293808254596 -0.45682259963891148 0.80696236078125638 
	1.1643620014785292 -0.45725522029198118 0.78750000000003162 
	0.00017339505481227149 
	spline forward { ref 5 } I I I I 
	null_surface 
	nubs 1 open 2 
	0 1 1.7471175932411867 1 
	1 0 
	1 1.7471175932411867 
	
	nullbs 
	I I 
	0 
	0 
	0 
	surf1 } I I #
face $-1 $279 $227 $2 $-1 $240 forward single #
plane-surface $-1 0.58394660940672649 -1.2910533905932735 0.59999999999999998 -0.70710678118654735 -0.70710678118654779 0 0 0 0.39370078740157477 forward_v I I I I #
coedge $-1 $216 $205 $226 $265 forward $163 $280 #
coedge $-1 $205 $211 $231 $269 forward $163 $281 #
pcurve $-1 1 $282 0 0 #
loop $-1 $283 $284 $69 #
coedge $-1 $250 $250 $285 $286 forward $206 $-1 #
coedge $-1 $251 $251 $207 $252 reversed $287 $-1 #
edge $-1 $288 $288 $207 $289 forward #
loop $-1 $290 $208 $291 #
convexity-sys-attrib $-1 $-1 $-1 $209 #
vertex $-1 $209 $292 #
ellipse-curve $-1 -3.8821894941978924e-032 -1.875 0.59999999999999998 0 0 -1 -0.32000000000000001 3.9187403322316072e-017 0 1 I I #
pcurve $-1 0 forward { exppc nubs 1 open 2 
	0 1 0.9830169570295304 1 
	1 6.0730784920849263 
	0 6.0730784920849263 
	0 
	spline forward { ref 22 } I I I I 
	} 0 0 #
ellipse-curve $-1 0.26515239338136615 -1.3258125651611872 1.4750000000000001 0.022346594632041639 -0.022346594632041639 -0.99950050496070408 -0.049010277036175699 0.24506073766844941 -0.0065747698235487876 1 F 0 F 0.9830169570295304 #
point $-1 0.4419290886780029 -1.1490358698645502 1.4750000000000001 #
pcurve $-1 0 forward { exppc nubs 1 open 2 
	-0.98301695702953051 1 0 1 
	0 3.1478918851699261e-016 
	1 3.1478918851699261e-016 
	0 
	spline forward { ref 22 } I I I I 
	} 0 0 #
ellipse-curve $-1 1.3258125651611874 -0.26515239338136581 1.4749999999999999 -0.022346594632041628 0.022346594632041611 0.99950050496070408 -0.24506073766844957 0.049010277036175658 -0.0065747698235487876 1 F 0 F 0.98301695702953051 #
coedge $-1 $262 $262 $223 $263 forward $293 $-1 #
edge $-1 $294 $294 $223 $295 forward #
intcurve-curve $-1 forward { surfintcur nubs 3 open 4 
	0 3 0.175890697005223 2 0.31876107737224957 2 0.45954796577151658 3 
	0.87397082191175146 -1.0010291780882488 1.9668618577028139 
	0.89002714291478979 -0.98497285708521043 1.9710095461664328 
	0.90619892494499255 -0.96880107505500723 1.9736276061266782 
	0.93575387988391523 -0.93924612011608455 1.9754367145532672 
	0.94898136251599585 -0.92601863748400415 1.9751722924031634 
	0.97523934946741231 -0.89976065053258791 1.9725247439129185 
	0.98817689716509727 -0.88682310283490262 1.970181874617402 
	1.0010291780882485 -0.87397082191175135 1.9668618577028139 
	2.6624313178073505e-008 
	spline forward { ref 22 } I I I I 
	plane 1.2910533905932742 -0.58394660940672605 0.59999999999999998 0.70710678118654746 -0.70710678118654757 0 0 0 -0.39370078740157477 forward_v I I I I 
	nubs 3 open 4 
	0 3 0.175890697005223 3 0.31876107737224957 3 0.45954796577151658 3 
	0 3.3795756516974449 
	0.0085622154028408021 3.2926338474538475 
	0.013892653219656803 3.2049011041316593 
	0.015927807533612302 3.1165650043253228 
	0.017580898208054186 3.0448124193714059 
	0.01704424594147249 2.9731162719572728 
	0.014322189639248027 2.9014265942561677 
	0.011639829335780649 2.830782373753943 
	0.0068536246666355983 2.7608038388520439 
	0 2.6911324932881726 
	
	nullbs 
	I I 
	0 
	0 
	0 
	} I I #
edge $-1 $228 $242 $226 $296 forward #
point $-1 1.0010291780969647 -0.87397082190167097 1.9668618577003865 #
convexity-sys-attrib $-1 $-1 $-1 $230 #
straight-curve $-1 0.73293301020062041 -0.025826229014072631 1.4750000000000001 -0.27838849653013692 0.27838849653013675 -2.9243304088403093e-032 F -5.2504833457746054 F 2.1516525469605527 #
edge $-1 $214 $235 $231 $297 forward #
point $-1 0.87397082190171294 -1.001029178096928 1.9668618577003962 #
straight-curve $-1 0.39790648260917527 -1.1050132637957226 1.4750000000000001 0.27838849653013692 -0.27838849653013675 2.9243304088403093e-032 F -3.4882029369111063 F 3.9139329558240519 #
loop $-1 $-1 $237 $298 #
vertex $-1 $238 $299 #
ellipse-curve $-1 0.93750000000000033 -0.93749999999999978 1.4750000000000001 -0.70710678118654746 0.70710678118654757 0 -0.22097086912079608 -0.22097086912079605 0 1 I I #
face $-1 $291 $300 $2 $-1 $301 forward single #
loop $-1 $293 $302 $239 #
torus-surface $-1 0 0 2.3749999999999996 0 0 -1 0.95325973262564112 0.12499999999999999 -1 0 0 forward_v I I I I #
point $-1 1.1490358698645506 -0.44192908867800273 1.4749999999999999 #
face $-1 $303 $304 $2 $-1 $305 reversed single #
pcurve $-1 0 reversed { exppc nubs 1 open 2 
	2.2204460492503131e-016 1 2.6911324932370504 1 
	0 3.1478918851699261e-016 
	0 2.6911324932368794 
	0.019345856829459242 
	spline forward { ref 22 } I I I I 
	} 0 0 #
pcurve $-1 0 reversed { exppc nubs 1 open 2 
	3.3795756517482975 1 6.0730784920849263 1 
	0 3.3795756517484645 
	0 6.0730784920849263 
	0.019345856829459242 
	spline forward { ref 22 } I I I I 
	} 0 0 #
intcurve-curve $-1 forward { ref 40 } I I #
loop $-1 $33 $306 $69 #
coedge $-1 $284 $284 $307 $308 forward $249 $-1 #
coedge $-1 $285 $285 $250 $286 reversed $309 $-1 #
edge $310 $311 $311 $250 $312 forward #
loop $-1 $313 $251 $314 #
vertex $-1 $252 $315 #
ellipse-curve $-1 -1.875 1.8671994289273799e-016 0.59999999999999998 0 0 -1 7.105427357601002e-017 0.32000000000000001 0 1 I I #
loop $-1 $-1 $316 $291 #
face $-1 $317 $253 $2 $-1 $318 reversed single #
point $-1 -0.32000000000000001 -1.875 0.59999999999999998 #
loop $-1 $-1 $262 $239 #
vertex $-1 $263 $319 #
ellipse-curve $-1 0 0 2.3782873849117734 0 0 1 -1.0782164975503215 0 0 1 I I #
intcurve-curve $-1 reversed { bldcur nubs 3 open 5 
	3.1478918851699261e-016 3 0.40505427051055454 2 1.0531411033274414 2 2.0900800358344602 2 2.6911324932368794 3 
	1.1490358698645504 -0.44192908867800268 1.4749999999999999 
	1.1478479980027294 -0.44074121681618156 1.5104201179275405 
	1.1466860840839592 -0.44500505496269782 1.5463141610399809 
	1.1432931303098284 -0.46933887091033388 1.6366424012730612 
	1.1408663206814575 -0.49692829768748703 1.6888785313636181 
	1.1270317468788085 -0.58953698707638358 1.8117704051045138 
	1.1105964172685991 -0.66587885669744384 1.8736989631485299 
	1.057533524284072 -0.78719864472652534 1.9398615199696576 
	1.0311492208813586 -0.83134609813936244 1.956697673926719 
	0.99958221085866139 -0.8727012511832708 1.9658098425760668 
	0.019345856829459242 
	spline forward { ref 22 } I I I I 
	null_surface 
	nubs 1 open 2 
	3.1478918851699261e-016 1 2.6911324932370499 1 
	0 3.1478918851699261e-016 
	0 2.6911324932368794 
	
	nullbs 
	I I 
	0 
	0 
	0 
	surf1 } I I #
intcurve-curve $-1 reversed { bldcur nubs 3 open 4 
	3.3795756517484645 3 3.7491823278456904 2 5.7275037204586567 2 6.0730784920849263 3 
	0.87331424284054038 -1.0001757955594757 1.9662969791303921 
	0.84799790929029362 -1.0197189401745153 1.9607920945083106 
	0.82147127045384227 -1.037157139410835 1.9522442494801042 
	0.64782834805435763 -1.130983897192128 1.8781968525432353 
	0.48897163653703002 -1.139804270152456 1.7365847422247414 
	0.44384279632145573 -1.1470202646834209 1.5357682610955334 
	0.44091564782018222 -1.1480224290067296 1.5052189115259964 
	0.44192908867800279 -1.1490358698645502 1.4750000000000001 
	0.019345856829459242 
	spline forward { ref 22 } I I I I 
	null_surface 
	nubs 1 open 2 
	3.3795756517482975 1 6.0730784920849263 1 
	0 3.3795756517484645 
	0 6.0730784920849263 
	
	nullbs 
	I I 
	0 
	0 
	0 
	surf1 } I I #
face $-1 $149 $320 $2 $-1 $321 reversed single #
point $-1 0.71652913087920422 -1.1584708691207959 1.4750000000000001 #
loop $-1 $322 $323 $275 #
plane-surface $-1 1.1249999999999998 1.3776821480501742e-016 2.4999999999999996 0 0 1 0.39370078740157477 0 0 forward_v I I I I #
coedge $-1 $302 $302 $324 $325 forward $276 $-1 #
face $-1 $298 $326 $2 $-1 $327 reversed single #
loop $-1 $328 $329 $279 #
cone-surface $-1 0 0 1.4049999999999998 0 0 1 0.86999999999999988 0 0 1 I I 0 1 0.86999999999999988 reversed I I I I #
coedge $-1 $306 $306 $330 $331 reversed $283 $-1 #
coedge $-1 $307 $307 $284 $308 reversed $332 $-1 #
edge $-1 $333 $333 $284 $334 forward #
loop $-1 $335 $285 $336 #
convexity-sys-attrib $-1 $-1 $-1 $286 #
vertex $-1 $286 $337 #
ellipse-curve $-1 1.875 -1.8671994289273799e-016 0.59999999999999998 0 0 -1 -7.105427357601002e-017 -0.32000000000000001 0 1 I I #
loop $-1 $-1 $338 $314 #
face $-1 $339 $287 $2 $-1 $340 reversed single #
point $-1 -1.875 0.32000000000000023 0.59999999999999998 #
coedge $-1 $316 $316 $341 $342 reversed $290 $-1 #
face $-1 $314 $343 $2 $-1 $344 reversed single #
cone-surface $-1 -3.8821894941978924e-032 -1.875 0.50242517460634895 0 0 1 -0.238125 2.9160938800395361e-017 0 1 I I 0.64278760968653936 0.76604444311897812 0.238125 reversed I I I I #
point $-1 1.0782164975503215 0 2.3782873849117734 #
loop $-1 $272 $345 $298 #
cone-surface $-1 0.67233495705504498 -0.67233495705504442 1.4750000000000001 0.70710678118654746 -0.70710678118654757 0 -0.22097086912079608 -0.22097086912079605 0 1 I I 0 1 0.31249999999999994 reversed I I I I #
loop $-1 $-1 $324 $275 #
coedge $-1 $323 $323 $346 $347 forward $300 $-1 #
coedge $-1 $324 $324 $302 $325 reversed $322 $-1 #
edge $-1 $348 $348 $324 $349 forward #
loop $-1 $-1 $350 $303 #
plane-surface $-1 0 0 0.30999999999999994 0 0 -1 0.39370078740157477 0 0 reverse_v I I I I #
loop $-1 $351 $346 $279 #
coedge $-1 $329 $329 $345 $352 reversed $304 $-1 #
coedge $-1 $330 $330 $306 $331 forward $353 $-1 #
edge $354 $355 $355 $306 $356 forward #
loop $-1 $357 $307 $358 #
vertex $-1 $308 $359 #
ellipse-curve $-1 -2.2961369134169569e-016 1.875 0.59999999999999998 0 0 -1 0.32000000000000001 0 0 1 I I #
loop $-1 $-1 $360 $336 #
face $-1 $361 $309 $2 $-1 $362 reversed single #
point $-1 1.875 -0.32000000000000023 0.59999999999999998 #
coedge $-1 $338 $338 $363 $364 reversed $313 $-1 #
face $-1 $336 $365 $2 $-1 $366 reversed single #
cone-surface $-1 -1.875 1.8671994289273799e-016 0.50242517460634895 0 0 1 5.2874371547773081e-017 0.238125 0 1 I I 0.64278760968653936 0.76604444311897812 0.238125 reversed I I I I #
coedge $-1 $341 $341 $316 $342 forward $367 $-1 #
edge $-1 $368 $368 $341 $369 forward #
loop $-1 $367 $370 $317 #
cone-surface $-1 -3.8821894941978924e-032 -1.875 -7.5538334542716763 0 0 1 -0.15624999999999997 1.9134474278474642e-017 0 1 I I 0 1 0.15624999999999997 reversed I I I I #
coedge $-1 $345 $345 $329 $352 forward $320 $-1 #
coedge $-1 $346 $346 $323 $347 reversed $328 $-1 #
edge $-1 $371 $371 $323 $372 forward #
vertex $-1 $325 $373 #
ellipse-curve $-1 0 0 2.4999999999999996 0 0 -1 -0.95325973262564112 0 0 1 I I #
coedge $-1 $350 $350 $374 $375 forward $326 $-1 #
loop $-1 $-1 $374 $279 #
edge $-1 $376 $376 $345 $377 forward #
loop $-1 $378 $330 $379 #
convexity-sys-attrib $-1 $-1 $-1 $331 #
vertex $-1 $331 $380 #
ellipse-curve $-1 0 0 0.59999999999999998 0 0 -1 -2.5625 0 0 1 I I #
loop $-1 $-1 $381 $358 #
face $-1 $382 $332 $2 $-1 $383 reversed single #
point $-1 0.31999999999999978 1.875 0.59999999999999998 #
coedge $-1 $360 $360 $384 $385 reversed $335 $-1 #
face $-1 $358 $386 $2 $-1 $387 reversed single #
cone-surface $-1 1.875 -1.8671994289273799e-016 0.50242517460634895 0 0 1 -5.2874371547773081e-017 -0.238125 0 1 I I 0.64278760968653936 0.76604444311897812 0.238125 reversed I I I I #
coedge $-1 $363 $363 $338 $364 forward $388 $-1 #
edge $-1 $389 $389 $363 $390 forward #
loop $-1 $388 $391 $339 #
cone-surface $-1 -1.875 1.8671994289273799e-016 -7.5538334542716763 0 0 1 3.4694469519536136e-017 0.15624999999999997 0 1 I I 0 1 0.15624999999999997 reversed I I I I #
loop $-1 $-1 $341 $317 #
vertex $-1 $342 $392 #
ellipse-curve $-1 -3.8821894941978924e-032 -1.875 0.4048503492126968 0 0 1 -0.15624999999999997 1.9134474278474642e-017 0 1 I I #
coedge $-1 $370 $370 $393 $394 reversed $343 $-1 #
vertex $-1 $347 $395 #
ellipse-curve $-1 0 0 2.4999999999999996 0 0 -1 0.86999999999999988 0 0 1 I I #
point $-1 0.95325973262564112 0 2.4999999999999996 #
coedge $-1 $374 $374 $350 $375 reversed $351 $-1 #
edge $396 $397 $397 $350 $398 forward #
vertex $-1 $352 $399 #
intcurve-curve $-1 forward { surfintcur nubs 3 periodic 17 
	0 3 0.30203502046764713 2 0.60407004093529426 2 0.90591268880467268 2 1.207755336674051 2 
	1.5095979845434291 2 1.8114406324128072 2 2.1134756528804539 2 2.4155106733481011 2 2.7175456938157483 2 
	3.019580714283395 2 3.3214233621527729 2 3.6232660100221512 2 3.9251086578915295 2 4.2269513057609078 2 
	4.528986326228555 2 4.8310213466962022 3 
	0.79509792387435851 -0.35315618563276585 1.4750000000000001 
	0.79509792387435851 -0.35315618563276585 1.4353628582063456 
	0.79171362825968106 -0.36107764570001477 1.3933559223335235 
	0.77704261011696529 -0.39165329198926768 1.3164850588495574 
	0.76562777320816711 -0.41415679054813165 1.2815857769876182 
	0.73689976066166174 -0.46334592186496654 1.2264900361911624 
	0.71760119736261108 -0.49341210742165797 1.2024927101061613 
	0.67080419855258266 -0.55536358670629704 1.1704883709388738 
	0.64319273994197368 -0.58717305932261887 1.1625000000000003 
	0.58717305932261932 -0.64319273994197335 1.1625000000000003 
	0.5553635867062976 -0.67080419855258233 1.1704883709388738 
	0.49341210742165847 -0.71760119736261074 1.2024927101061613 
	0.46334592186496715 -0.73689976066166141 1.2264900361911624 
	0.41415679054813226 -0.76562777320816688 1.2815857769876182 
	0.3916532919892684 -0.77704261011696485 1.3164850588495578 
	0.36107764570001566 -0.79171362825968072 1.3933559223335235 
	0.35315618563276668 -0.79509792387435818 1.4353628582063456 
	0.35315618563276668 -0.79509792387435818 1.5146371417936546 
	0.36107764570001566 -0.79171362825968072 1.5566440776664772 
	0.39165329198926857 -0.77704261011696485 1.633514941150443 
	0.41415679054813226 -0.76562777320816688 1.668414223012382 
	0.46334592186496715 -0.73689976066166152 1.7235099638088376 
	0.49341210742165831 -0.71760119736261074 1.7475072898938386 
	0.55536358670629737 -0.67080419855258233 1.7795116290611261 
	0.58717305932261932 -0.64319273994197335 1.7875000000000001 
	0.64319273994197368 -0.58717305932261876 1.7875000000000001 
	0.67080419855258266 -0.55536358670629704 1.7795116290611261 
	0.71760119736261108 -0.49341210742165786 1.7475072898938386 
	0.73689976066166174 -0.46334592186496654 1.7235099638088376 
	0.76562777320816711 -0.41415679054813165 1.668414223012382 
	0.77704261011696529 -0.39165329198926774 1.6335149411504428 
	0.79171362825968106 -0.36107764570001483 1.5566440776664767 
	0.79509792387435851 -0.35315618563276585 1.5146371417936546 
	0.79509792387435851 -0.35315618563276585 1.4750000000000001 
	0.00014385591274315989 
	cone 0.67233495705504498 -0.67233495705504442 1.4750000000000001 0.70710678118654746 -0.70710678118654757 0 -0.22097086912079608 -0.22097086912079605 0 1 I I 0 -1 0.31249999999999994 reversed I I I I 
	cone 0 0 1.4049999999999998 0 0 1 0.86999999999999988 0 0 1 I I 0 -1 0.86999999999999988 reversed I I I I 
	nullbs 
	nullbs 
	I I 
	0 
	0 
	0 
	} I I #
loop $-1 $-1 $400 $379 #
face $-1 $401 $353 $2 $-1 $402 forward single #
point $-1 2.5625 0 0.59999999999999998 #
coedge $-1 $381 $381 $403 $404 reversed $357 $-1 #
face $-1 $379 $405 $2 $-1 $406 reversed single #
cone-surface $-1 -2.2961369134169569e-016 1.875 0.50242517460634895 0 0 1 0.238125 0 0 1 I I 0.64278760968653936 0.76604444311897812 0.238125 reversed I I I I #
coedge $-1 $384 $384 $360 $385 forward $407 $-1 #
edge $-1 $408 $408 $384 $409 forward #
loop $-1 $407 $410 $361 #
cone-surface $-1 1.875 -1.8671994289273799e-016 -7.5538334542716763 0 0 1 -3.4694469519536136e-017 -0.15624999999999997 0 1 I I 0 1 0.15624999999999997 reversed I I I I #
loop $-1 $-1 $363 $339 #
vertex $-1 $364 $411 #
ellipse-curve $-1 -1.875 1.8671994289273799e-016 0.4048503492126968 0 0 1 3.4694469519536136e-017 0.15624999999999997 0 1 I I #
coedge $-1 $391 $391 $412 $413 reversed $365 $-1 #
point $-1 -0.15624999999999997 -1.875 0.40485034921269802 #
coedge $-1 $393 $393 $370 $394 forward $414 $-1 #
edge $-1 $415 $415 $393 $416 forward #
point $-1 0.86999999999999988 0 2.4999999999999996 #
convexity-sys-attrib $-1 $-1 $-1 $375 #
vertex $-1 $375 $417 #
ellipse-curve $-1 0 0 0.30999999999999994 0 0 1 0.86999999999999988 0 0 1 I I #
point $-1 0.79509792387435851 -0.35315618563276585 1.4750000000000001 #
coedge $-1 $400 $400 $418 $419 forward $378 $-1 #
face $-1 $420 $421 $2 $-1 $422 forward single #
torus-surface $-1 0 0 0.28749999999999998 0 0 -1 2.5625 0.31249999999999994 -1 0 0 forward_v I I I I #
coedge $-1 $403 $403 $381 $404 forward $423 $-1 #
edge $-1 $424 $424 $403 $425 forward #
loop $-1 $423 $426 $382 #
cone-surface $-1 -2.2961369134169569e-016 1.875 -7.5538334542716763 0 0 1 0.15624999999999997 0 0 1 I I 0 1 0.15624999999999997 reversed I I I I #
loop $-1 $-1 $384 $361 #
vertex $-1 $385 $427 #
ellipse-curve $-1 1.875 -1.8671994289273799e-016 0.4048503492126968 0 0 1 -3.4694469519536136e-017 -0.15624999999999997 0 1 I I #
coedge $-1 $410 $410 $428 $429 reversed $386 $-1 #
point $-1 -1.875 0.15625000000000017 0.40485034921269802 #
coedge $-1 $412 $412 $391 $413 forward $430 $-1 #
edge $-1 $431 $431 $412 $432 forward #
loop $-1 $430 $393 $420 #
vertex $-1 $394 $433 #
ellipse-curve $-1 -3.8821894941978924e-032 -1.875 0 0 0 1 -0.15624999999999997 1.9134474278474642e-017 0 1 I I #
point $-1 0.86999999999999988 0 0.30999999999999994 #
coedge $-1 $418 $418 $400 $419 reversed $434 $-1 #
edge $-1 $435 $435 $418 $436 forward #
face $-1 $-1 $414 $2 $-1 $437 reversed single #
loop $-1 $434 $438 $401 #
cone-surface $-1 0 0 0 0 0 1 -2.875 0 0 1 I I 0 1 2.875 forward I I I I #
loop $-1 $-1 $403 $382 #
vertex $-1 $404 $439 #
ellipse-curve $-1 -2.2961369134169569e-016 1.875 0.4048503492126968 0 0 1 0.15624999999999997 0 0 1 I I #
coedge $-1 $426 $426 $440 $441 reversed $405 $-1 #
point $-1 1.875 -0.15625000000000017 0.40485034921269802 #
coedge $-1 $428 $428 $410 $429 forward $442 $-1 #
edge $-1 $443 $443 $428 $444 forward #
loop $-1 $442 $412 $420 #
vertex $-1 $413 $445 #
ellipse-curve $-1 -1.875 1.8671994289273799e-016 0 0 0 1 3.4694469519536136e-017 0.15624999999999997 0 1 I I #
point $-1 0.15624999999999997 -1.875 0 #
loop $-1 $-1 $418 $401 #
vertex $-1 $419 $446 #
ellipse-curve $-1 0 0 0.28749999999999998 0 0 1 -2.875 0 0 1 I I #
plane-surface $-1 0.2613636363636363 3.1788776653547786e-017 0 0 0 1 0.39370078740157477 0 0 forward_v I I I I #
coedge $-1 $438 $438 $447 $448 reversed $421 $-1 #
point $-1 0.15624999999999975 1.875 0.40485034921269802 #
coedge $-1 $440 $440 $426 $441 forward $449 $-1 #
edge $-1 $450 $450 $440 $451 forward #
loop $-1 $449 $428 $420 #
vertex $-1 $429 $452 #
ellipse-curve $-1 1.875 -1.8671994289273799e-016 0 0 0 1 -3.4694469519536136e-017 -0.15624999999999997 0 1 I I #
point $-1 -1.875 -0.15624999999999981 0 #
point $-1 2.875 0 0.28749999999999998 #
coedge $-1 $447 $447 $438 $448 forward $453 $-1 #
edge $-1 $454 $454 $447 $455 forward #
loop $-1 $453 $440 $420 #
vertex $-1 $441 $456 #
ellipse-curve $-1 -2.2961369134169569e-016 1.875 0 0 0 1 0.15624999999999997 0 0 1 I I #
point $-1 1.875 0.15624999999999981 0 #
loop $-1 $-1 $447 $420 #
vertex $-1 $448 $457 #
ellipse-curve $-1 0 0 0 0 0 -1 -2.875 0 0 1 I I #
point $-1 -0.15625000000000022 1.875 0 #
point $-1 2.875 3.5207432672393341e-016 0 #
End-of-ACIS-data 