700 0 1 0           
28 Autodesk Inventor 6.0.0.9000 16 ASM 6.0.0.192 NT 24 Thu Jan 11 21:22:15 2007 
25.399999999999999 9.9999999999999995e-007 1e-010 
body $-1 -1 $-1 $1 $-1 $-1 #
lump $-1 -1 $-1 $-1 $2 $0 #
shell $-1 -1 $-1 $-1 $-1 $3 $-1 $1 #
face $-1 -1 $-1 $4 $5 $2 $-1 $6 forward single #
face $-1 -1 $-1 $7 $8 $2 $-1 $9 reversed single #
loop $-1 -1 $-1 $-1 $10 $3 #
plane-surface $-1 -1 $-1 -14.424999999999999 -0.37499999999999994 0.72499999999999987 -0.70710678118654735 4.3296372853596777e-017 0.70710678118654779 0.27838849653013692 0 0.27838849653013675 forward_v I I I I #
face $-1 -1 $-1 $11 $12 $2 $-1 $13 forward single #
loop $-1 -1 $-1 $-1 $14 $4 #
plane-surface $-1 -1 $-1 0 -0.375 0.39999999999999997 -1.1247958800470383e-019 1 -6.1160775977558073e-017 0 2.4079045660455933e-017 0.39370078740157477 forward_v I I I I #
coedge $-1 -1 $-1 $15 $16 $17 $18 forward $5 $-1 #
face $-1 -1 $-1 $19 $20 $2 $-1 $21 forward single #
loop $-1 -1 $-1 $-1 $22 $7 #
plane-surface $-1 -1 $-1 -14.499999999999998 -0.37499999999999994 0.79999999999999993 -1 0 0 0 0 0.39370078740157477 forward_v I I I I #
coedge $-1 -1 $-1 $23 $24 $25 $26 reversed $8 $-1 #
coedge $-1 -1 $-1 $25 $10 $22 $27 forward $5 $-1 #
coedge $-1 -1 $-1 $10 $25 $28 $29 forward $5 $-1 #
coedge $-1 -1 $-1 $30 $31 $10 $18 reversed $32 $-1 #
edge $-1 -1 $-1 $33 12.392753447075439 $34 12.931568814339588 $17 $35 forward @7 unknown #
face $-1 -1 $-1 $36 $37 $2 $-1 $38 reversed single #
loop $-1 -1 $-1 $-1 $39 $11 #
plane-surface $-1 -1 $-1 -14.424999999999999 0.29999999999999999 0.39999999999999997 -0.70710678118654724 0.70710678118654791 0 0 0 0.39370078740157477 forward_v I I I I #
coedge $-1 -1 $-1 $40 $41 $15 $27 reversed $12 $-1 #
coedge $-1 -1 $-1 $42 $14 $41 $43 forward $8 $-1 #
coedge $-1 -1 $-1 $14 $44 $45 $46 forward $8 $-1 #
coedge $-1 -1 $-1 $16 $15 $14 $26 forward $5 $-1 #
edge $-1 -1 $-1 $47 -12.931568814339588 $48 -12.392753447075439 $14 $49 forward @7 unknown #
edge $-1 -1 $-1 $34 -0.30480000000000007 $47 0 $22 $50 forward @7 unknown #
coedge $-1 -1 $-1 $45 $51 $16 $29 reversed $52 $-1 #
edge $-1 -1 $-1 $48 0 $33 0.30480000000000007 $28 $53 forward @7 unknown #
coedge $-1 -1 $-1 $54 $17 $51 $55 reversed $32 $-1 #
coedge $-1 -1 $-1 $17 $56 $40 $57 reversed $32 $-1 #
loop $-1 -1 $-1 $-1 $17 $58 #
vertex $-1 -1 $-1 $18 $59 #
vertex $-1 -1 $-1 $57 $60 #
straight-curve $-1 -1 $-1 -10.899999999999997 -0.25499999999999967 4.25 -0.27838849653013692 -1.7057769494403827e-017 -0.27838849653013675 I I #
face $-1 -1 $-1 $61 $62 $2 $-1 $63 forward single #
loop $-1 -1 $-1 $64 $65 $19 #
plane-surface $-1 -1 $-1 0 0 0 0 0 1 0.39370078740157477 0 0 forward_v I I I I #
coedge $-1 -1 $-1 $66 $67 $68 $69 forward $20 $-1 #
coedge $-1 -1 $-1 $70 $22 $31 $57 forward $12 $-1 #
coedge $-1 -1 $-1 $22 $71 $23 $43 reversed $12 $-1 #
coedge $-1 -1 $-1 $72 $23 $73 $74 forward $8 $-1 #
edge $-1 -1 $-1 $47 0.38100000000000001 $75 1.5748 $23 $76 forward @7 unknown #
coedge $-1 -1 $-1 $24 $72 $77 $78 reversed $8 $-1 #
coedge $-1 -1 $-1 $79 $28 $24 $46 reversed $52 $-1 #
edge $-1 -1 $-1 $80 0.38100000000000023 $48 73.278999999999996 $24 $81 forward @7 unknown #
vertex $-1 -1 $-1 $43 $82 #
vertex $-1 -1 $-1 $26 $83 #
straight-curve $-1 -1 $-1 -10.899999999999997 -0.37499999999999978 4.25 0.27838849653013692 1.7057769494403855e-017 0.27838849653013675 I I #
straight-curve $-1 -1 $-1 -14.499999999999998 -0.37499999999999994 0.64999999999999991 0 -0.39370078740157477 2.4106424287842067e-017 F -1.9431010000000004 F 1.1811010000000011 #
coedge $-1 -1 $-1 $28 $79 $30 $55 forward $52 $-1 #
loop $-1 -1 $-1 $-1 $28 $84 #
straight-curve $-1 -1 $-1 -14.349999999999998 -0.37499999999999994 0.79999999999999993 0 0.39370078740157477 -2.4106424287842067e-017 F -1.1811010000000011 F 1.9431010000000004 #
coedge $-1 -1 $-1 $85 $30 $86 $87 reversed $32 $-1 #
edge $-1 -1 $-1 $88 0.38100000000000023 $33 73.278999999999996 $51 $89 forward @7 unknown #
coedge $-1 -1 $-1 $31 $85 $90 $91 forward $32 $-1 #
edge $-1 -1 $-1 $34 0.38100000000000001 $92 1.5748 $40 $93 forward @7 unknown #
face $-1 -1 $-1 $-1 $32 $2 $-1 $94 forward single #
point $-1 -1 $-1 -14.349999999999998 -0.25499999999999989 0.79999999999999993 #
point $-1 -1 $-1 -14.499999999999998 -0.25499999999999989 0.64999999999999991 #
face $-1 -1 $-1 $95 $96 $2 $-1 $97 forward single #
loop $-1 -1 $-1 $-1 $98 $36 #
plane-surface $-1 -1 $-1 14.424999999999999 0.29999999999999999 0 0.70710678118654735 0.70710678118654779 0 0 0 -0.39370078740157477 forward_v I I I I #
loop $-1 -1 $-1 $99 $100 $19 #
coedge $-1 -1 $-1 $65 $65 $101 $102 forward $37 $-1 #
coedge $-1 -1 $-1 $103 $39 $104 $105 forward $20 $-1 #
coedge $-1 -1 $-1 $39 $103 $106 $107 forward $20 $-1 #
coedge $-1 -1 $-1 $108 $109 $39 $69 reversed $110 $-1 #
edge $-1 -1 $-1 $111 -12.95401945464226 $112 -12.415204087378111 $68 $113 forward @7 unknown #
coedge $-1 -1 $-1 $114 $40 $115 $116 reversed $12 $-1 #
coedge $-1 -1 $-1 $41 $117 $118 $119 forward $12 $-1 #
coedge $-1 -1 $-1 $44 $42 $120 $121 forward $8 $-1 #
coedge $-1 -1 $-1 $118 $122 $42 $74 reversed $123 $-1 #
edge $-1 -1 $-1 $75 -55.244999999999983 $124 18.414999999999999 $42 $125 forward @7 unknown #
vertex $-1 -1 $-1 $74 $126 #
straight-curve $-1 -1 $-1 -14.499999999999998 -0.37499999999999994 0.79999999999999993 0 -2.4106424287842076e-017 -0.39370078740157477 F 0 F 2.032 #
coedge $-1 -1 $-1 $127 $128 $44 $78 forward $129 $-1 #
edge $-1 -1 $-1 $80 12.392753447075439 $130 12.931568814339588 $44 $131 forward @7 unknown #
coedge $-1 -1 $-1 $51 $45 $128 $132 reversed $52 $-1 #
vertex $-1 -1 $-1 $46 $133 #
straight-curve $-1 -1 $-1 14.499999999999998 -0.37499999999999994 0.79999999999999993 -0.39370078740157477 0 0 F 0 F 73.659999999999997 #
point $-1 -1 $-1 -14.499999999999998 -0.37499999999999994 0.64999999999999991 #
point $-1 -1 $-1 -14.349999999999998 -0.37499999999999994 0.79999999999999993 #
face $-1 -1 $-1 $58 $52 $2 $-1 $134 forward single #
coedge $-1 -1 $-1 $56 $54 $135 $136 reversed $32 $-1 #
coedge $-1 -1 $-1 $128 $127 $54 $87 forward $129 $-1 #
edge $-1 -1 $-1 $137 -12.931568814339588 $88 -12.392753447075439 $54 $138 forward @7 unknown #
vertex $-1 -1 $-1 $55 $139 #
straight-curve $-1 -1 $-1 14.499999999999998 -0.25499999999999989 0.79999999999999993 -0.39370078740157477 0 0 F 0 F 73.659999999999997 #
coedge $-1 -1 $-1 $140 $115 $56 $91 reversed $141 $-1 #
edge $-1 -1 $-1 $142 -18.414999999999999 $92 55.244999999999983 $56 $143 forward @7 unknown #
vertex $-1 -1 $-1 $91 $144 #
straight-curve $-1 -1 $-1 -14.499999999999998 -0.25499999999999989 0.79999999999999993 0 -2.4106424287842076e-017 -0.39370078740157477 F 0 F 2.032 #
plane-surface $-1 -1 $-1 0 -0.25499999999999995 0.39999999999999997 -1.1247958800470508e-019 1 -6.1160775977557975e-017 0 2.4079045660455893e-017 0.39370078740157477 forward_v I I I I #
face $-1 -1 $-1 $145 $129 $2 $-1 $146 forward single #
loop $-1 -1 $-1 $-1 $147 $61 #
plane-surface $-1 -1 $-1 14.499999999999998 -0.375 0 1 0 0 0 0 -0.39370078740157477 forward_v I I I I #
coedge $-1 -1 $-1 $148 $149 $150 $151 forward $62 $-1 #
loop $-1 -1 $-1 $152 $153 $19 #
coedge $-1 -1 $-1 $100 $100 $154 $155 forward $64 $-1 #
coedge $-1 -1 $-1 $101 $101 $65 $102 reversed $156 $-1 #
edge $-1 -1 $-1 $157 -3.1415926535897931 $157 3.1415926535897931 $65 $158 forward @7 unknown #
coedge $-1 -1 $-1 $67 $66 $159 $160 forward $20 $-1 #
coedge $-1 -1 $-1 $161 $162 $66 $105 reversed $163 $-1 #
edge $-1 -1 $-1 $112 0.71120000000000005 $164 1.016 $104 $165 forward @7 unknown #
coedge $-1 -1 $-1 $117 $114 $67 $107 reversed $12 $-1 #
edge $-1 -1 $-1 $166 -1.016 $111 -0.71120000000000005 $106 $167 forward @7 unknown #
coedge $-1 -1 $-1 $168 $68 $114 $169 reversed $110 $-1 #
coedge $-1 -1 $-1 $68 $150 $161 $170 reversed $110 $-1 #
loop $-1 -1 $-1 $171 $68 $172 #
vertex $-1 -1 $-1 $107 $173 #
vertex $-1 -1 $-1 $170 $174 #
straight-curve $-1 -1 $-1 -10.893749999999995 3.8312500000000003 0.12 0.27838849653013692 0.2783884965301367 0 I I #
coedge $-1 -1 $-1 $106 $70 $108 $169 forward $12 $-1 #
coedge $-1 -1 $-1 $90 $175 $70 $116 forward $141 $-1 #
edge $-1 -1 $-1 $176 0 $92 1.5707963267948974 $115 $177 forward @7 unknown #
coedge $-1 -1 $-1 $71 $106 $178 $179 reversed $12 $-1 #
coedge $-1 -1 $-1 $180 $73 $71 $119 reversed $123 $-1 #
edge $-1 -1 $-1 $181 4.8566186554031326e-016 $75 1.5707963267948974 $71 $182 forward @7 unknown #
coedge $-1 -1 $-1 $183 $184 $72 $121 reversed $96 $-1 #
edge $-1 -1 $-1 $124 0.45720000000000005 $130 1.651 $72 $185 forward @7 unknown #
coedge $-1 -1 $-1 $73 $180 $183 $186 forward $123 $-1 #
loop $-1 -1 $-1 $-1 $73 $187 #
vertex $-1 -1 $-1 $121 $188 #
straight-curve $-1 -1 $-1 7.2499999999999991 -0.375 0.17999999999999999 0.39370078740157477 4.428330236405662e-020 0 I I #
point $-1 -1 $-1 -14.499999999999993 -0.375 0.17999999999999999 #
coedge $-1 -1 $-1 $86 $77 $184 $189 forward $129 $-1 #
coedge $-1 -1 $-1 $77 $86 $79 $132 forward $129 $-1 #
loop $-1 -1 $-1 $-1 $86 $95 #
vertex $-1 -1 $-1 $78 $190 #
straight-curve $-1 -1 $-1 10.899999999999997 -0.37499999999999978 4.25 0.27838849653013692 -1.6995143447613938e-017 -0.27838849653013675 I I #
edge $-1 -1 $-1 $88 -0.30480000000000007 $80 0 $79 $191 forward @7 unknown #
point $-1 -1 $-1 14.349999999999998 -0.37499999999999994 0.79999999999999993 #
plane-surface $-1 -1 $-1 14.499999999999998 -0.37499999999999994 0.79999999999999993 0 6.1230317691118851e-017 1 0.39370078740157477 0 0 forward_v I I I I #
coedge $-1 -1 $-1 $184 $192 $85 $136 forward $96 $-1 #
edge $-1 -1 $-1 $142 0.45720000000000005 $137 1.651 $135 $193 forward @7 unknown #
vertex $-1 -1 $-1 $189 $194 #
straight-curve $-1 -1 $-1 10.899999999999997 -0.25499999999999967 4.25 -0.27838849653013692 1.699514344761391e-017 0.27838849653013675 I I #
point $-1 -1 $-1 14.349999999999998 -0.25499999999999989 0.79999999999999993 #
coedge $-1 -1 $-1 $175 $90 $192 $195 reversed $141 $-1 #
loop $-1 -1 $-1 $-1 $90 $196 #
vertex $-1 -1 $-1 $136 $197 #
straight-curve $-1 -1 $-1 7.2499999999999991 -0.25499999999999995 0.17999999999999999 -0.39370078740157477 -4.4283302364057114e-020 0 I I #
point $-1 -1 $-1 -14.499999999999993 -0.25500000000000006 0.17999999999999999 #
face $-1 -1 $-1 $198 $156 $2 $-1 $199 reversed single #
plane-surface $-1 -1 $-1 14.424999999999999 -0.37499999999999994 0.72499999999999987 0.70710678118654735 4.3296372853596777e-017 0.70710678118654779 0.27838849653013692 0 -0.27838849653013675 forward_v I I I I #
coedge $-1 -1 $-1 $200 $201 $148 $202 reversed $96 $-1 #
coedge $-1 -1 $-1 $203 $98 $147 $202 forward $62 $-1 #
coedge $-1 -1 $-1 $98 $203 $204 $205 forward $62 $-1 #
coedge $-1 -1 $-1 $109 $206 $98 $151 reversed $110 $-1 #
edge $-1 -1 $-1 $207 12.415204087378111 $208 12.95401945464226 $150 $209 forward @7 unknown #
loop $-1 -1 $-1 $210 $211 $19 #
coedge $-1 -1 $-1 $153 $153 $212 $213 forward $99 $-1 #
coedge $-1 -1 $-1 $154 $154 $100 $155 reversed $214 $-1 #
edge $-1 -1 $-1 $215 -3.1415926535897931 $215 3.1415926535897931 $100 $216 forward @7 unknown #
loop $-1 -1 $-1 $217 $101 $145 #
vertex $-1 -1 $-1 $102 $218 #
ellipse-curve $-1 -1 $-1 13.000000000000004 0.086500000000000021 0 0 0 1 0.12599999999999997 0 0 1 I I #
coedge $-1 -1 $-1 $219 $178 $103 $160 reversed $220 $-1 #
edge $-1 -1 $-1 $164 12.415204087378111 $166 12.95401945464226 $159 $221 forward @7 unknown #
coedge $-1 -1 $-1 $204 $104 $109 $170 forward $163 $-1 #
coedge $-1 -1 $-1 $104 $204 $219 $222 reversed $163 $-1 #
loop $-1 -1 $-1 $-1 $104 $223 #
vertex $-1 -1 $-1 $222 $224 #
straight-curve $-1 -1 $-1 -14.349999999999998 0.375 0.39999999999999997 0 0 -0.39370078740157477 F -1.4351010000000004 F 2.1971010000000009 #
vertex $-1 -1 $-1 $160 $225 #
straight-curve $-1 -1 $-1 -14.499999999999998 0.22500000000000003 0.39999999999999997 0 0 0.39370078740157477 F -2.1971010000000009 F 1.4351010000000004 #
coedge $-1 -1 $-1 $206 $108 $175 $226 forward $110 $-1 #
edge $-1 -1 $-1 $176 0.4572 $111 1.524 $114 $227 forward @7 unknown #
edge $-1 -1 $-1 $112 0.38100000000000023 $207 73.278999999999996 $161 $228 forward @7 unknown #
loop $-1 -1 $-1 $229 $230 $172 #
face $-1 -1 $-1 $84 $110 $2 $-1 $231 forward single #
point $-1 -1 $-1 -14.499999999999998 0.22499999999999998 0.12 #
point $-1 -1 $-1 -14.349999999999998 0.375 0.12 #
coedge $-1 -1 $-1 $115 $140 $168 $226 reversed $141 $-1 #
vertex $-1 -1 $-1 $169 $232 #
ellipse-curve $-1 -1 $-1 -14.499999999999993 -0.19500000000000003 0.17999999999999999 -1 0 0 0 4.3709567898628207e-017 -0.060000000000000012 1 F 0 F 1.570796326794897 #
coedge $-1 -1 $-1 $159 $233 $117 $179 forward $220 $-1 #
edge $-1 -1 $-1 $181 0.4572 $166 1.524 $178 $234 forward @7 unknown #
coedge $-1 -1 $-1 $122 $118 $233 $235 reversed $123 $-1 #
vertex $-1 -1 $-1 $179 $236 #
ellipse-curve $-1 -1 $-1 -14.499999999999993 -0.19500000000000003 0.17999999999999999 -1 0 0 0 1.311287036958846e-016 -0.17999999999999999 1 F 4.8566186554031326e-016 F 1.5707963267948972 #
coedge $-1 -1 $-1 $201 $120 $122 $186 reversed $96 $-1 #
coedge $-1 -1 $-1 $120 $135 $127 $189 reversed $96 $-1 #
straight-curve $-1 -1 $-1 14.499999999999998 -0.375 0 0 2.4106424287842076e-017 0.39370078740157477 F 0 F 2.032 #
edge $-1 -1 $-1 $237 4.8566186554031326e-016 $124 1.5707963267948974 $122 $238 forward @7 unknown #
face $-1 -1 $-1 $196 $123 $2 $-1 $239 forward single #
point $-1 -1 $-1 14.499999999999998 -0.375 0.17999999999999999 #
edge $-1 -1 $-1 $130 0 $137 0.30480000000000007 $184 $240 forward @7 unknown #
point $-1 -1 $-1 14.499999999999998 -0.37499999999999994 0.64999999999999991 #
straight-curve $-1 -1 $-1 14.349999999999998 -0.37499999999999994 0.79999999999999993 0 -0.39370078740157477 2.4106424287842067e-017 F -2.3241010000000002 F 1.1811010000000011 #
coedge $-1 -1 $-1 $135 $200 $140 $195 forward $96 $-1 #
straight-curve $-1 -1 $-1 14.499999999999998 -0.25499999999999995 -7.3476381229342631e-018 0 2.4106424287842076e-017 0.39370078740157477 F 0 F 2.032 #
point $-1 -1 $-1 14.499999999999998 -0.25499999999999989 0.64999999999999991 #
edge $-1 -1 $-1 $241 0 $142 1.5707963267948974 $192 $242 forward @7 unknown #
face $-1 -1 $-1 $223 $141 $2 $-1 $243 forward single #
point $-1 -1 $-1 14.499999999999998 -0.25500000000000006 0.17999999999999999 #
face $-1 -1 $-1 $244 $214 $2 $-1 $245 reversed single #
cone-surface $-1 -1 $-1 13.000000000000004 0.086500000000000021 -28.90072535275436 0 0 1 0.12599999999999997 0 0 1 I I 0 1 0.12599999999999997 reversed I I I I #
coedge $-1 -1 $-1 $192 $147 $206 $246 forward $96 $-1 #
coedge $-1 -1 $-1 $147 $183 $247 $248 reversed $96 $-1 #
edge $-1 -1 $-1 $208 -0.30480000000000002 $249 0 $147 $250 forward @7 unknown #
coedge $-1 -1 $-1 $149 $148 $251 $252 forward $62 $-1 #
coedge $-1 -1 $-1 $162 $161 $149 $205 reversed $163 $-1 #
edge $-1 -1 $-1 $253 0 $207 0.30480000000000002 $204 $254 forward @7 unknown #
coedge $-1 -1 $-1 $150 $168 $200 $246 reversed $110 $-1 #
vertex $-1 -1 $-1 $151 $255 #
vertex $-1 -1 $-1 $246 $256 #
straight-curve $-1 -1 $-1 10.893749999999995 3.8312500000000003 0.12000000000000002 0.27838849653013692 -0.27838849653013675 0 I I #
loop $-1 -1 $-1 $257 $258 $19 #
coedge $-1 -1 $-1 $211 $211 $259 $260 forward $152 $-1 #
coedge $-1 -1 $-1 $212 $212 $153 $213 reversed $261 $-1 #
edge $-1 -1 $-1 $262 -3.1415926535897931 $262 3.1415926535897931 $153 $263 forward @7 unknown #
loop $-1 -1 $-1 $264 $154 $198 #
vertex $-1 -1 $-1 $155 $265 #
ellipse-curve $-1 -1 $-1 12.000000000000005 0.086500000000000021 0 0 0 1 0.12599999999999997 0 0 1 I I #
loop $-1 -1 $-1 $-1 $266 $145 #
point $-1 -1 $-1 12.874000000000004 0.086500000000000007 0 #
coedge $-1 -1 $-1 $251 $159 $162 $222 forward $220 $-1 #
loop $-1 -1 $-1 $-1 $159 $19 #
straight-curve $-1 -1 $-1 -10.893749999999995 3.8312500000000003 4.3709567898628207e-017 -0.27838849653013692 -0.2783884965301367 0 I I #
edge $-1 -1 $-1 $164 0.38100000000000023 $253 73.278999999999996 $219 $267 forward @7 unknown #
face $-1 -1 $-1 $172 $163 $2 $-1 $268 forward single #
point $-1 -1 $-1 -14.349999999999998 0.375 0 #
point $-1 -1 $-1 -14.499999999999998 0.22499999999999998 0 #
edge $-1 -1 $-1 $176 -18.414999999999992 $241 55.24499999999999 $168 $269 forward @7 unknown #
straight-curve $-1 -1 $-1 -14.499999999999998 -0.375 0.12 0 0.39370078740157477 0 F 0 F 1.905 #
straight-curve $-1 -1 $-1 -14.499999999999998 0.375 0.12 0.39370078740157477 0 0 F 0 F 73.659999999999997 #
loop $-1 -1 $-1 $270 $271 $172 #
coedge $-1 -1 $-1 $230 $230 $266 $272 forward $171 $-1 #
plane-surface $-1 -1 $-1 0 0 0.12 0 0 1 0.39370078740157477 0 0 forward_v I I I I #
point $-1 -1 $-1 -14.499999999999993 -0.19499999999999998 0.12 #
coedge $-1 -1 $-1 $178 $247 $180 $235 forward $220 $-1 #
straight-curve $-1 -1 $-1 -14.499999999999998 -0.375 0 0 0.39370078740157477 0 F 0 F 1.905 #
edge $-1 -1 $-1 $237 -55.24499999999999 $181 18.414999999999992 $233 $273 forward @7 unknown #
point $-1 -1 $-1 -14.499999999999993 -0.19499999999999998 0 #
vertex $-1 -1 $-1 $235 $274 #
ellipse-curve $-1 -1 $-1 14.499999999999998 -0.19500000000000003 0.17999999999999999 -1 0 0 0 1.311287036958846e-016 -0.17999999999999999 1 F 4.8566186554031326e-016 F 1.5707963267948972 #
cone-surface $-1 -1 $-1 2.7974123455122052e-015 -0.19500000000000003 0.17999999999999999 -1 0 0 0 1.311287036958846e-016 -0.17999999999999999 1 I I 0 1 0.17999999999999999 forward I I I I #
straight-curve $-1 -1 $-1 14.499999999999998 -0.37499999999999994 0.64999999999999991 0 0.39370078740157477 -2.4106424287842067e-017 F -1.1811010000000011 F 2.3241010000000002 #
vertex $-1 -1 $-1 $226 $275 #
ellipse-curve $-1 -1 $-1 14.499999999999998 -0.19500000000000003 0.17999999999999999 -1 0 0 0 4.3709567898628207e-017 -0.060000000000000012 1 F 0 F 1.570796326794897 #
cone-surface $-1 -1 $-1 2.7974123455122052e-015 -0.19500000000000003 0.17999999999999999 -1 0 0 0 4.3709567898628207e-017 -0.060000000000000012 1 I I 0 -1 0.060000000000000012 forward I I I I #
face $-1 -1 $-1 $276 $261 $2 $-1 $277 reversed single #
cone-surface $-1 -1 $-1 12.000000000000005 0.086500000000000021 -28.90072535275436 0 0 1 0.12599999999999997 0 0 1 I I 0 1 0.12599999999999997 reversed I I I I #
edge $-1 -1 $-1 $208 0.38100000000000001 $241 1.4478 $200 $278 forward @7 unknown #
coedge $-1 -1 $-1 $233 $251 $201 $248 forward $220 $-1 #
edge $-1 -1 $-1 $249 0.38100000000000001 $237 1.4478 $247 $279 forward @7 unknown #
vertex $-1 -1 $-1 $248 $280 #
straight-curve $-1 -1 $-1 14.499999999999998 0.22499999999999998 0 0 0 -0.39370078740157477 F -2.0701010000000006 F 1.1811010000000006 #
coedge $-1 -1 $-1 $247 $219 $203 $252 reversed $220 $-1 #
edge $-1 -1 $-1 $249 -12.95401945464226 $253 -12.415204087378111 $251 $281 forward @7 unknown #
vertex $-1 -1 $-1 $252 $282 #
straight-curve $-1 -1 $-1 14.349999999999998 0.375 0 0 0 0.39370078740157477 F -1.1811010000000006 F 2.0701010000000006 #
point $-1 -1 $-1 14.349999999999998 0.375 0.12 #
point $-1 -1 $-1 14.499999999999998 0.22499999999999998 0.12 #
loop $-1 -1 $-1 $283 $284 $19 #
coedge $-1 -1 $-1 $258 $258 $285 $286 forward $210 $-1 #
coedge $-1 -1 $-1 $259 $259 $211 $260 reversed $287 $-1 #
edge $-1 -1 $-1 $288 -3.1415926535897931 $288 3.1415926535897931 $211 $289 forward @7 unknown #
loop $-1 -1 $-1 $290 $212 $244 #
vertex $-1 -1 $-1 $213 $291 #
ellipse-curve $-1 -1 $-1 11.000000000000004 0.086500000000000021 0 0 0 1 0.12599999999999997 0 0 1 I I #
loop $-1 -1 $-1 $-1 $292 $198 #
point $-1 -1 $-1 11.874000000000006 0.086500000000000007 0 #
coedge $-1 -1 $-1 $266 $266 $230 $272 reversed $217 $-1 #
straight-curve $-1 -1 $-1 -14.499999999999998 0.375 0 0.39370078740157477 0 0 F 0 F 73.659999999999997 #
plane-surface $-1 -1 $-1 -14.499999999999998 0.375 0 0 1 0 0 0 0.39370078740157477 forward_v I I I I #
straight-curve $-1 -1 $-1 -7.2499999999999964 -0.19499999999999998 0.12 0.39370078740157477 0 0 I I #
loop $-1 -1 $-1 $293 $294 $172 #
coedge $-1 -1 $-1 $271 $271 $292 $295 forward $229 $-1 #
edge $-1 -1 $-1 $296 0 $296 6.2831853071795862 $230 $297 forward @7 unknown #
straight-curve $-1 -1 $-1 -7.2499999999999964 -0.19499999999999998 0 -0.39370078740157477 0 0 I I #
point $-1 -1 $-1 14.499999999999998 -0.19499999999999998 0 #
point $-1 -1 $-1 14.499999999999998 -0.19499999999999998 0.12 #
face $-1 -1 $-1 $298 $287 $2 $-1 $299 reversed single #
cone-surface $-1 -1 $-1 11.000000000000004 0.086500000000000021 -28.90072535275436 0 0 1 0.12599999999999997 0 0 1 I I 0 1 0.12599999999999997 reversed I I I I #
straight-curve $-1 -1 $-1 14.499999999999998 0.375 0.12 0 -0.39370078740157477 0 F 0 F 1.905 #
straight-curve $-1 -1 $-1 14.499999999999998 0.375 0 0 -0.39370078740157477 0 F 0 F 1.905 #
point $-1 -1 $-1 14.499999999999998 0.22499999999999998 0 #
straight-curve $-1 -1 $-1 10.893749999999995 3.8312500000000003 0 -0.27838849653013692 0.27838849653013675 0 I I #
point $-1 -1 $-1 14.349999999999998 0.375 0 #
loop $-1 -1 $-1 $300 $301 $19 #
coedge $-1 -1 $-1 $284 $284 $302 $303 forward $257 $-1 #
coedge $-1 -1 $-1 $285 $285 $258 $286 reversed $304 $-1 #
edge $-1 -1 $-1 $305 -3.1415926535897931 $305 3.1415926535897931 $258 $306 forward @7 unknown #
loop $-1 -1 $-1 $307 $259 $276 #
vertex $-1 -1 $-1 $260 $308 #
ellipse-curve $-1 -1 $-1 10.000000000000004 0.086500000000000021 0 0 0 1 0.12599999999999997 0 0 1 I I #
loop $-1 -1 $-1 $-1 $309 $244 #
point $-1 -1 $-1 10.874000000000004 0.086500000000000007 0 #
coedge $-1 -1 $-1 $292 $292 $271 $295 reversed $264 $-1 #
loop $-1 -1 $-1 $310 $311 $172 #
coedge $-1 -1 $-1 $294 $294 $309 $312 forward $270 $-1 #
edge $-1 -1 $-1 $313 0 $313 6.2831853071795862 $271 $314 forward @7 unknown #
vertex $-1 -1 $-1 $272 $315 #
ellipse-curve $-1 -1 $-1 13.000000000000004 0.086500000000000021 0.12000000000000006 0 0 -1 0.12599999999999997 0 0 1 I I #
face $-1 -1 $-1 $316 $304 $2 $-1 $317 reversed single #
cone-surface $-1 -1 $-1 10.000000000000004 0.086500000000000021 -28.90072535275436 0 0 1 0.12599999999999997 0 0 1 I I 0 1 0.12599999999999997 reversed I I I I #
loop $-1 -1 $-1 $318 $319 $19 #
coedge $-1 -1 $-1 $301 $301 $320 $321 forward $283 $-1 #
coedge $-1 -1 $-1 $302 $302 $284 $303 reversed $322 $-1 #
edge $-1 -1 $-1 $323 -3.1415926535897931 $323 3.1415926535897931 $284 $324 forward @7 unknown #
loop $-1 -1 $-1 $325 $285 $298 #
vertex $-1 -1 $-1 $286 $326 #
ellipse-curve $-1 -1 $-1 9.0000000000000053 0.086500000000000021 0 0 0 1 0.12599999999999997 0 0 1 I I #
loop $-1 -1 $-1 $-1 $327 $276 #
point $-1 -1 $-1 9.8740000000000041 0.086500000000000007 0 #
coedge $-1 -1 $-1 $309 $309 $294 $312 reversed $290 $-1 #
loop $-1 -1 $-1 $328 $329 $172 #
coedge $-1 -1 $-1 $311 $311 $327 $330 forward $293 $-1 #
edge $-1 -1 $-1 $331 0 $331 6.2831853071795862 $294 $332 forward @7 unknown #
vertex $-1 -1 $-1 $295 $333 #
ellipse-curve $-1 -1 $-1 12.000000000000005 0.086500000000000021 0.12000000000000006 0 0 -1 0.12599999999999997 0 0 1 I I #
point $-1 -1 $-1 13.126000000000003 0.086500000000000021 0.12 #
face $-1 -1 $-1 $334 $322 $2 $-1 $335 reversed single #
cone-surface $-1 -1 $-1 9.0000000000000053 0.086500000000000021 -28.90072535275436 0 0 1 0.12599999999999997 0 0 1 I I 0 1 0.12599999999999997 reversed I I I I #
loop $-1 -1 $-1 $336 $337 $19 #
coedge $-1 -1 $-1 $319 $319 $338 $339 forward $300 $-1 #
coedge $-1 -1 $-1 $320 $320 $301 $321 reversed $340 $-1 #
edge $-1 -1 $-1 $341 -3.1415926535897931 $341 3.1415926535897931 $301 $342 forward @7 unknown #
loop $-1 -1 $-1 $343 $302 $316 #
vertex $-1 -1 $-1 $303 $344 #
ellipse-curve $-1 -1 $-1 8.0000000000000053 0.086500000000000021 0 0 0 1 0.12599999999999997 0 0 1 I I #
loop $-1 -1 $-1 $-1 $345 $298 #
point $-1 -1 $-1 8.8740000000000059 0.086500000000000007 0 #
coedge $-1 -1 $-1 $327 $327 $311 $330 reversed $307 $-1 #
loop $-1 -1 $-1 $346 $347 $172 #
coedge $-1 -1 $-1 $329 $329 $345 $348 forward $310 $-1 #
edge $-1 -1 $-1 $349 0 $349 6.2831853071795862 $311 $350 forward @7 unknown #
vertex $-1 -1 $-1 $312 $351 #
ellipse-curve $-1 -1 $-1 11.000000000000004 0.086500000000000021 0.12000000000000006 0 0 -1 0.12599999999999997 0 0 1 I I #
point $-1 -1 $-1 12.126000000000005 0.086500000000000021 0.12 #
face $-1 -1 $-1 $352 $340 $2 $-1 $353 reversed single #
cone-surface $-1 -1 $-1 8.0000000000000053 0.086500000000000021 -28.90072535275436 0 0 1 0.12599999999999997 0 0 1 I I 0 1 0.12599999999999997 reversed I I I I #
loop $-1 -1 $-1 $354 $355 $19 #
coedge $-1 -1 $-1 $337 $337 $356 $357 forward $318 $-1 #
coedge $-1 -1 $-1 $338 $338 $319 $339 reversed $358 $-1 #
edge $-1 -1 $-1 $359 -3.1415926535897931 $359 3.1415926535897931 $319 $360 forward @7 unknown #
loop $-1 -1 $-1 $361 $320 $334 #
vertex $-1 -1 $-1 $321 $362 #
ellipse-curve $-1 -1 $-1 7.0000000000000053 0.086500000000000021 0 0 0 1 0.12599999999999997 0 0 1 I I #
loop $-1 -1 $-1 $-1 $363 $316 #
point $-1 -1 $-1 7.8740000000000059 0.086500000000000007 0 #
coedge $-1 -1 $-1 $345 $345 $329 $348 reversed $325 $-1 #
loop $-1 -1 $-1 $364 $365 $172 #
coedge $-1 -1 $-1 $347 $347 $363 $366 forward $328 $-1 #
edge $-1 -1 $-1 $367 0 $367 6.2831853071795862 $329 $368 forward @7 unknown #
vertex $-1 -1 $-1 $330 $369 #
ellipse-curve $-1 -1 $-1 10.000000000000004 0.086500000000000021 0.12000000000000006 0 0 -1 0.12599999999999997 0 0 1 I I #
point $-1 -1 $-1 11.126000000000003 0.086500000000000021 0.12 #
face $-1 -1 $-1 $370 $358 $2 $-1 $371 reversed single #
cone-surface $-1 -1 $-1 7.0000000000000053 0.086500000000000021 -28.90072535275436 0 0 1 0.12599999999999997 0 0 1 I I 0 1 0.12599999999999997 reversed I I I I #
loop $-1 -1 $-1 $372 $373 $19 #
coedge $-1 -1 $-1 $355 $355 $374 $375 forward $336 $-1 #
coedge $-1 -1 $-1 $356 $356 $337 $357 reversed $376 $-1 #
edge $-1 -1 $-1 $377 -3.1415926535897931 $377 3.1415926535897931 $337 $378 forward @7 unknown #
loop $-1 -1 $-1 $379 $338 $352 #
vertex $-1 -1 $-1 $339 $380 #
ellipse-curve $-1 -1 $-1 6.0000000000000027 0.086500000000000021 0 0 0 1 0.12599999999999997 0 0 1 I I #
loop $-1 -1 $-1 $-1 $381 $334 #
point $-1 -1 $-1 6.8740000000000059 0.086500000000000007 0 #
coedge $-1 -1 $-1 $363 $363 $347 $366 reversed $343 $-1 #
loop $-1 -1 $-1 $382 $383 $172 #
coedge $-1 -1 $-1 $365 $365 $381 $384 forward $346 $-1 #
edge $-1 -1 $-1 $385 0 $385 6.2831853071795862 $347 $386 forward @7 unknown #
vertex $-1 -1 $-1 $348 $387 #
ellipse-curve $-1 -1 $-1 9.0000000000000053 0.086500000000000021 0.12000000000000006 0 0 -1 0.12599999999999997 0 0 1 I I #
point $-1 -1 $-1 10.126000000000003 0.086500000000000021 0.12 #
face $-1 -1 $-1 $388 $376 $2 $-1 $389 reversed single #
cone-surface $-1 -1 $-1 6.0000000000000027 0.086500000000000021 -28.90072535275436 0 0 1 0.12599999999999997 0 0 1 I I 0 1 0.12599999999999997 reversed I I I I #
loop $-1 -1 $-1 $390 $391 $19 #
coedge $-1 -1 $-1 $373 $373 $392 $393 forward $354 $-1 #
coedge $-1 -1 $-1 $374 $374 $355 $375 reversed $394 $-1 #
edge $-1 -1 $-1 $395 -3.1415926535897931 $395 3.1415926535897931 $355 $396 forward @7 unknown #
loop $-1 -1 $-1 $397 $356 $370 #
vertex $-1 -1 $-1 $357 $398 #
ellipse-curve $-1 -1 $-1 5.0000000000000036 0.086500000000000021 0 0 0 1 0.12599999999999997 0 0 1 I I #
loop $-1 -1 $-1 $-1 $399 $352 #
point $-1 -1 $-1 5.8740000000000032 0.086500000000000007 0 #
coedge $-1 -1 $-1 $381 $381 $365 $384 reversed $361 $-1 #
loop $-1 -1 $-1 $400 $401 $172 #
coedge $-1 -1 $-1 $383 $383 $399 $402 forward $364 $-1 #
edge $-1 -1 $-1 $403 0 $403 6.2831853071795862 $365 $404 forward @7 unknown #
vertex $-1 -1 $-1 $366 $405 #
ellipse-curve $-1 -1 $-1 8.0000000000000053 0.086500000000000021 0.12000000000000006 0 0 -1 0.12599999999999997 0 0 1 I I #
point $-1 -1 $-1 9.1260000000000048 0.086500000000000021 0.12 #
face $-1 -1 $-1 $406 $394 $2 $-1 $407 reversed single #
cone-surface $-1 -1 $-1 5.0000000000000036 0.086500000000000021 -28.90072535275436 0 0 1 0.12599999999999997 0 0 1 I I 0 1 0.12599999999999997 reversed I I I I #
loop $-1 -1 $-1 $408 $409 $19 #
coedge $-1 -1 $-1 $391 $391 $410 $411 forward $372 $-1 #
coedge $-1 -1 $-1 $392 $392 $373 $393 reversed $412 $-1 #
edge $-1 -1 $-1 $413 -3.1415926535897931 $413 3.1415926535897931 $373 $414 forward @7 unknown #
loop $-1 -1 $-1 $415 $374 $388 #
vertex $-1 -1 $-1 $375 $416 #
ellipse-curve $-1 -1 $-1 4.0000000000000036 0.086500000000000021 0 0 0 1 0.12599999999999997 0 0 1 I I #
loop $-1 -1 $-1 $-1 $417 $370 #
point $-1 -1 $-1 4.8740000000000041 0.086500000000000007 0 #
coedge $-1 -1 $-1 $399 $399 $383 $402 reversed $379 $-1 #
loop $-1 -1 $-1 $418 $419 $172 #
coedge $-1 -1 $-1 $401 $401 $417 $420 forward $382 $-1 #
edge $-1 -1 $-1 $421 0 $421 6.2831853071795862 $383 $422 forward @7 unknown #
vertex $-1 -1 $-1 $384 $423 #
ellipse-curve $-1 -1 $-1 7.0000000000000053 0.086500000000000021 0.12000000000000006 0 0 -1 0.12599999999999997 0 0 1 I I #
point $-1 -1 $-1 8.1260000000000048 0.086500000000000021 0.12 #
face $-1 -1 $-1 $424 $412 $2 $-1 $425 reversed single #
cone-surface $-1 -1 $-1 4.0000000000000036 0.086500000000000021 -28.90072535275436 0 0 1 0.12599999999999997 0 0 1 I I 0 1 0.12599999999999997 reversed I I I I #
loop $-1 -1 $-1 $426 $427 $19 #
coedge $-1 -1 $-1 $409 $409 $428 $429 forward $390 $-1 #
coedge $-1 -1 $-1 $410 $410 $391 $411 reversed $430 $-1 #
edge $-1 -1 $-1 $431 -3.1415926535897931 $431 3.1415926535897931 $391 $432 forward @7 unknown #
loop $-1 -1 $-1 $433 $392 $406 #
vertex $-1 -1 $-1 $393 $434 #
ellipse-curve $-1 -1 $-1 3.0000000000000044 0.086500000000000021 0 0 0 1 0.12599999999999997 0 0 1 I I #
loop $-1 -1 $-1 $-1 $435 $388 #
point $-1 -1 $-1 3.8740000000000046 0.086500000000000007 0 #
coedge $-1 -1 $-1 $417 $417 $401 $420 reversed $397 $-1 #
loop $-1 -1 $-1 $436 $437 $172 #
coedge $-1 -1 $-1 $419 $419 $435 $438 forward $400 $-1 #
edge $-1 -1 $-1 $439 0 $439 6.2831853071795862 $401 $440 forward @7 unknown #
vertex $-1 -1 $-1 $402 $441 #
ellipse-curve $-1 -1 $-1 6.0000000000000027 0.086500000000000021 0.12000000000000006 0 0 -1 0.12599999999999997 0 0 1 I I #
point $-1 -1 $-1 7.1260000000000048 0.086500000000000021 0.12 #
face $-1 -1 $-1 $442 $430 $2 $-1 $443 reversed single #
cone-surface $-1 -1 $-1 3.0000000000000044 0.086500000000000021 -28.90072535275436 0 0 1 0.12599999999999997 0 0 1 I I 0 1 0.12599999999999997 reversed I I I I #
loop $-1 -1 $-1 $444 $445 $19 #
coedge $-1 -1 $-1 $427 $427 $446 $447 forward $408 $-1 #
coedge $-1 -1 $-1 $428 $428 $409 $429 reversed $448 $-1 #
edge $-1 -1 $-1 $449 -3.1415926535897931 $449 3.1415926535897931 $409 $450 forward @7 unknown #
loop $-1 -1 $-1 $451 $410 $424 #
vertex $-1 -1 $-1 $411 $452 #
ellipse-curve $-1 -1 $-1 2.0000000000000049 0.086500000000000021 0 0 0 1 0.12599999999999997 0 0 1 I I #
loop $-1 -1 $-1 $-1 $453 $406 #
point $-1 -1 $-1 2.874000000000005 0.086500000000000007 0 #
coedge $-1 -1 $-1 $435 $435 $419 $438 reversed $415 $-1 #
loop $-1 -1 $-1 $454 $455 $172 #
coedge $-1 -1 $-1 $437 $437 $453 $456 forward $418 $-1 #
edge $-1 -1 $-1 $457 0 $457 6.2831853071795862 $419 $458 forward @7 unknown #
vertex $-1 -1 $-1 $420 $459 #
ellipse-curve $-1 -1 $-1 5.0000000000000036 0.086500000000000021 0.12000000000000006 0 0 -1 0.12599999999999997 0 0 1 I I #
point $-1 -1 $-1 6.126000000000003 0.086500000000000021 0.12 #
face $-1 -1 $-1 $460 $448 $2 $-1 $461 reversed single #
cone-surface $-1 -1 $-1 2.0000000000000049 0.086500000000000021 -28.90072535275436 0 0 1 0.12599999999999997 0 0 1 I I 0 1 0.12599999999999997 reversed I I I I #
loop $-1 -1 $-1 $462 $463 $19 #
coedge $-1 -1 $-1 $445 $445 $464 $465 forward $426 $-1 #
coedge $-1 -1 $-1 $446 $446 $427 $447 reversed $466 $-1 #
edge $-1 -1 $-1 $467 -3.1415926535897931 $467 3.1415926535897931 $427 $468 forward @7 unknown #
loop $-1 -1 $-1 $469 $428 $442 #
vertex $-1 -1 $-1 $429 $470 #
ellipse-curve $-1 -1 $-1 1.0000000000000051 0.086500000000000021 0 0 0 1 0.12599999999999997 0 0 1 I I #
loop $-1 -1 $-1 $-1 $471 $424 #
point $-1 -1 $-1 1.8740000000000052 0.086500000000000007 0 #
coedge $-1 -1 $-1 $453 $453 $437 $456 reversed $433 $-1 #
loop $-1 -1 $-1 $472 $473 $172 #
coedge $-1 -1 $-1 $455 $455 $471 $474 forward $436 $-1 #
edge $-1 -1 $-1 $475 0 $475 6.2831853071795862 $437 $476 forward @7 unknown #
vertex $-1 -1 $-1 $438 $477 #
ellipse-curve $-1 -1 $-1 4.0000000000000036 0.086500000000000021 0.12000000000000006 0 0 -1 0.12599999999999997 0 0 1 I I #
point $-1 -1 $-1 5.126000000000003 0.086500000000000021 0.12 #
face $-1 -1 $-1 $478 $466 $2 $-1 $479 reversed single #
cone-surface $-1 -1 $-1 1.0000000000000051 0.086500000000000021 -28.90072535275436 0 0 1 0.12599999999999997 0 0 1 I I 0 1 0.12599999999999997 reversed I I I I #
loop $-1 -1 $-1 $480 $481 $19 #
coedge $-1 -1 $-1 $463 $463 $482 $483 forward $444 $-1 #
coedge $-1 -1 $-1 $464 $464 $445 $465 reversed $484 $-1 #
edge $-1 -1 $-1 $485 -3.1415926535897931 $485 3.1415926535897931 $445 $486 forward @7 unknown #
loop $-1 -1 $-1 $487 $446 $460 #
vertex $-1 -1 $-1 $447 $488 #
ellipse-curve $-1 -1 $-1 5.5948246910244104e-015 0.086500000000000021 0 0 0 1 0.12599999999999997 0 0 1 I I #
loop $-1 -1 $-1 $-1 $489 $442 #
point $-1 -1 $-1 0.87400000000000566 0.086500000000000007 0 #
coedge $-1 -1 $-1 $471 $471 $455 $474 reversed $451 $-1 #
loop $-1 -1 $-1 $490 $491 $172 #
coedge $-1 -1 $-1 $473 $473 $489 $492 forward $454 $-1 #
edge $-1 -1 $-1 $493 0 $493 6.2831853071795862 $455 $494 forward @7 unknown #
vertex $-1 -1 $-1 $456 $495 #
ellipse-curve $-1 -1 $-1 3.0000000000000044 0.086500000000000021 0.12000000000000006 0 0 -1 0.12599999999999997 0 0 1 I I #
point $-1 -1 $-1 4.126000000000003 0.086500000000000021 0.12 #
face $-1 -1 $-1 $496 $484 $2 $-1 $497 reversed single #
cone-surface $-1 -1 $-1 5.5948246910244104e-015 0.086500000000000021 -28.90072535275436 0 0 1 0.12599999999999997 0 0 1 I I 0 1 0.12599999999999997 reversed I I I I #
loop $-1 -1 $-1 $498 $499 $19 #
coedge $-1 -1 $-1 $481 $481 $500 $501 forward $462 $-1 #
coedge $-1 -1 $-1 $482 $482 $463 $483 reversed $502 $-1 #
edge $-1 -1 $-1 $503 -3.1415926535897931 $503 3.1415926535897931 $463 $504 forward @7 unknown #
loop $-1 -1 $-1 $505 $464 $478 #
vertex $-1 -1 $-1 $465 $506 #
ellipse-curve $-1 -1 $-1 -0.999999999999994 0.086500000000000021 0 0 0 1 0.12599999999999997 0 0 1 I I #
loop $-1 -1 $-1 $-1 $507 $460 #
point $-1 -1 $-1 -0.12599999999999392 0.086500000000000007 0 #
coedge $-1 -1 $-1 $489 $489 $473 $492 reversed $469 $-1 #
loop $-1 -1 $-1 $508 $509 $172 #
coedge $-1 -1 $-1 $491 $491 $507 $510 forward $472 $-1 #
edge $-1 -1 $-1 $511 0 $511 6.2831853071795862 $473 $512 forward @7 unknown #
vertex $-1 -1 $-1 $474 $513 #
ellipse-curve $-1 -1 $-1 2.0000000000000049 0.086500000000000021 0.12000000000000006 0 0 -1 0.12599999999999997 0 0 1 I I #
point $-1 -1 $-1 3.1260000000000039 0.086500000000000021 0.12 #
face $-1 -1 $-1 $514 $502 $2 $-1 $515 reversed single #
cone-surface $-1 -1 $-1 -0.999999999999994 0.086500000000000021 -28.90072535275436 0 0 1 0.12599999999999997 0 0 1 I I 0 1 0.12599999999999997 reversed I I I I #
loop $-1 -1 $-1 $516 $517 $19 #
coedge $-1 -1 $-1 $499 $499 $518 $519 forward $480 $-1 #
coedge $-1 -1 $-1 $500 $500 $481 $501 reversed $520 $-1 #
edge $-1 -1 $-1 $521 -3.1415926535897931 $521 3.1415926535897931 $481 $522 forward @7 unknown #
loop $-1 -1 $-1 $523 $482 $496 #
vertex $-1 -1 $-1 $483 $524 #
ellipse-curve $-1 -1 $-1 -1.9999999999999949 0.086500000000000021 0 0 0 1 0.12599999999999997 0 0 1 I I #
loop $-1 -1 $-1 $-1 $525 $478 #
point $-1 -1 $-1 -1.1259999999999935 0.086500000000000007 0 #
coedge $-1 -1 $-1 $507 $507 $491 $510 reversed $487 $-1 #
loop $-1 -1 $-1 $526 $527 $172 #
coedge $-1 -1 $-1 $509 $509 $525 $528 forward $490 $-1 #
edge $-1 -1 $-1 $529 0 $529 6.2831853071795862 $491 $530 forward @7 unknown #
vertex $-1 -1 $-1 $492 $531 #
ellipse-curve $-1 -1 $-1 1.0000000000000051 0.086500000000000021 0.12000000000000006 0 0 -1 0.12599999999999997 0 0 1 I I #
point $-1 -1 $-1 2.1260000000000043 0.086500000000000021 0.12 #
face $-1 -1 $-1 $532 $520 $2 $-1 $533 reversed single #
cone-surface $-1 -1 $-1 -1.9999999999999949 0.086500000000000021 -28.90072535275436 0 0 1 0.12599999999999997 0 0 1 I I 0 1 0.12599999999999997 reversed I I I I #
loop $-1 -1 $-1 $534 $535 $19 #
coedge $-1 -1 $-1 $517 $517 $536 $537 forward $498 $-1 #
coedge $-1 -1 $-1 $518 $518 $499 $519 reversed $538 $-1 #
edge $-1 -1 $-1 $539 -3.1415926535897931 $539 3.1415926535897931 $499 $540 forward @7 unknown #
loop $-1 -1 $-1 $541 $500 $514 #
vertex $-1 -1 $-1 $501 $542 #
ellipse-curve $-1 -1 $-1 -2.9999999999999947 0.086500000000000021 0 0 0 1 0.12599999999999997 0 0 1 I I #
loop $-1 -1 $-1 $-1 $543 $496 #
point $-1 -1 $-1 -2.1259999999999946 0.086500000000000007 0 #
coedge $-1 -1 $-1 $525 $525 $509 $528 reversed $505 $-1 #
loop $-1 -1 $-1 $544 $545 $172 #
coedge $-1 -1 $-1 $527 $527 $543 $546 forward $508 $-1 #
edge $-1 -1 $-1 $547 0 $547 6.2831853071795862 $509 $548 forward @7 unknown #
vertex $-1 -1 $-1 $510 $549 #
ellipse-curve $-1 -1 $-1 5.5948246910244104e-015 0.086500000000000021 0.12000000000000006 0 0 -1 0.12599999999999997 0 0 1 I I #
point $-1 -1 $-1 1.1260000000000048 0.086500000000000021 0.12 #
face $-1 -1 $-1 $550 $538 $2 $-1 $551 reversed single #
cone-surface $-1 -1 $-1 -2.9999999999999947 0.086500000000000021 -28.90072535275436 0 0 1 0.12599999999999997 0 0 1 I I 0 1 0.12599999999999997 reversed I I I I #
loop $-1 -1 $-1 $552 $553 $19 #
coedge $-1 -1 $-1 $535 $535 $554 $555 forward $516 $-1 #
coedge $-1 -1 $-1 $536 $536 $517 $537 reversed $556 $-1 #
edge $-1 -1 $-1 $557 -3.1415926535897931 $557 3.1415926535897931 $517 $558 forward @7 unknown #
loop $-1 -1 $-1 $559 $518 $532 #
vertex $-1 -1 $-1 $519 $560 #
ellipse-curve $-1 -1 $-1 -3.9999999999999956 0.086500000000000021 0 0 0 1 0.12599999999999997 0 0 1 I I #
loop $-1 -1 $-1 $-1 $561 $514 #
point $-1 -1 $-1 -3.1259999999999941 0.086500000000000007 0 #
coedge $-1 -1 $-1 $543 $543 $527 $546 reversed $523 $-1 #
loop $-1 -1 $-1 $562 $563 $172 #
coedge $-1 -1 $-1 $545 $545 $561 $564 forward $526 $-1 #
edge $-1 -1 $-1 $565 0 $565 6.2831853071795862 $527 $566 forward @7 unknown #
vertex $-1 -1 $-1 $528 $567 #
ellipse-curve $-1 -1 $-1 -0.999999999999994 0.086500000000000021 0.12000000000000006 0 0 -1 0.12599999999999997 0 0 1 I I #
point $-1 -1 $-1 0.12600000000000511 0.086500000000000021 0.12 #
face $-1 -1 $-1 $568 $556 $2 $-1 $569 reversed single #
cone-surface $-1 -1 $-1 -3.9999999999999956 0.086500000000000021 -28.90072535275436 0 0 1 0.12599999999999997 0 0 1 I I 0 1 0.12599999999999997 reversed I I I I #
loop $-1 -1 $-1 $570 $571 $19 #
coedge $-1 -1 $-1 $553 $553 $572 $573 forward $534 $-1 #
coedge $-1 -1 $-1 $554 $554 $535 $555 reversed $574 $-1 #
edge $-1 -1 $-1 $575 -3.1415926535897931 $575 3.1415926535897931 $535 $576 forward @7 unknown #
loop $-1 -1 $-1 $577 $536 $550 #
vertex $-1 -1 $-1 $537 $578 #
ellipse-curve $-1 -1 $-1 -4.9999999999999947 0.086500000000000021 0 0 0 1 0.12599999999999997 0 0 1 I I #
loop $-1 -1 $-1 $-1 $579 $532 #
point $-1 -1 $-1 -4.125999999999995 0.086500000000000007 0 #
coedge $-1 -1 $-1 $561 $561 $545 $564 reversed $541 $-1 #
loop $-1 -1 $-1 $580 $581 $172 #
coedge $-1 -1 $-1 $563 $563 $579 $582 forward $544 $-1 #
edge $-1 -1 $-1 $583 0 $583 6.2831853071795862 $545 $584 forward @7 unknown #
vertex $-1 -1 $-1 $546 $585 #
ellipse-curve $-1 -1 $-1 -1.9999999999999949 0.086500000000000021 0.12000000000000006 0 0 -1 0.12599999999999997 0 0 1 I I #
point $-1 -1 $-1 -0.87399999999999445 0.086500000000000021 0.12 #
face $-1 -1 $-1 $586 $574 $2 $-1 $587 reversed single #
cone-surface $-1 -1 $-1 -4.9999999999999947 0.086500000000000021 -28.90072535275436 0 0 1 0.12599999999999997 0 0 1 I I 0 1 0.12599999999999997 reversed I I I I #
loop $-1 -1 $-1 $588 $589 $19 #
coedge $-1 -1 $-1 $571 $571 $590 $591 forward $552 $-1 #
coedge $-1 -1 $-1 $572 $572 $553 $573 reversed $592 $-1 #
edge $-1 -1 $-1 $593 -3.1415926535897931 $593 3.1415926535897931 $553 $594 forward @7 unknown #
loop $-1 -1 $-1 $595 $554 $568 #
vertex $-1 -1 $-1 $555 $596 #
ellipse-curve $-1 -1 $-1 -5.9999999999999947 0.086500000000000021 0 0 0 1 0.12599999999999997 0 0 1 I I #
loop $-1 -1 $-1 $-1 $597 $550 #
point $-1 -1 $-1 -5.125999999999995 0.086500000000000007 0 #
coedge $-1 -1 $-1 $579 $579 $563 $582 reversed $559 $-1 #
loop $-1 -1 $-1 $598 $599 $172 #
coedge $-1 -1 $-1 $581 $581 $597 $600 forward $562 $-1 #
edge $-1 -1 $-1 $601 0 $601 6.2831853071795862 $563 $602 forward @7 unknown #
vertex $-1 -1 $-1 $564 $603 #
ellipse-curve $-1 -1 $-1 -2.9999999999999947 0.086500000000000021 0.12000000000000006 0 0 -1 0.12599999999999997 0 0 1 I I #
point $-1 -1 $-1 -1.8739999999999954 0.086500000000000021 0.12 #
face $-1 -1 $-1 $604 $592 $2 $-1 $605 reversed single #
cone-surface $-1 -1 $-1 -5.9999999999999947 0.086500000000000021 -28.90072535275436 0 0 1 0.12599999999999997 0 0 1 I I 0 1 0.12599999999999997 reversed I I I I #
loop $-1 -1 $-1 $606 $607 $19 #
coedge $-1 -1 $-1 $589 $589 $608 $609 forward $570 $-1 #
coedge $-1 -1 $-1 $590 $590 $571 $591 reversed $610 $-1 #
edge $-1 -1 $-1 $611 -3.1415926535897931 $611 3.1415926535897931 $571 $612 forward @7 unknown #
loop $-1 -1 $-1 $613 $572 $586 #
vertex $-1 -1 $-1 $573 $614 #
ellipse-curve $-1 -1 $-1 -6.9999999999999947 0.086500000000000021 0 0 0 1 0.12599999999999997 0 0 1 I I #
loop $-1 -1 $-1 $-1 $615 $568 #
point $-1 -1 $-1 -6.1259999999999941 0.086500000000000007 0 #
coedge $-1 -1 $-1 $597 $597 $581 $600 reversed $577 $-1 #
loop $-1 -1 $-1 $616 $617 $172 #
coedge $-1 -1 $-1 $599 $599 $615 $618 forward $580 $-1 #
edge $-1 -1 $-1 $619 0 $619 6.2831853071795862 $581 $620 forward @7 unknown #
vertex $-1 -1 $-1 $582 $621 #
ellipse-curve $-1 -1 $-1 -3.9999999999999956 0.086500000000000021 0.12000000000000006 0 0 -1 0.12599999999999997 0 0 1 I I #
point $-1 -1 $-1 -2.8739999999999952 0.086500000000000021 0.12 #
face $-1 -1 $-1 $622 $610 $2 $-1 $623 reversed single #
cone-surface $-1 -1 $-1 -6.9999999999999947 0.086500000000000021 -28.90072535275436 0 0 1 0.12599999999999997 0 0 1 I I 0 1 0.12599999999999997 reversed I I I I #
loop $-1 -1 $-1 $624 $625 $19 #
coedge $-1 -1 $-1 $607 $607 $626 $627 forward $588 $-1 #
coedge $-1 -1 $-1 $608 $608 $589 $609 reversed $628 $-1 #
edge $-1 -1 $-1 $629 -3.1415926535897931 $629 3.1415926535897931 $589 $630 forward @7 unknown #
loop $-1 -1 $-1 $631 $590 $604 #
vertex $-1 -1 $-1 $591 $632 #
ellipse-curve $-1 -1 $-1 -7.9999999999999938 0.086500000000000021 0 0 0 1 0.12599999999999997 0 0 1 I I #
loop $-1 -1 $-1 $-1 $633 $586 #
point $-1 -1 $-1 -7.1259999999999941 0.086500000000000007 0 #
coedge $-1 -1 $-1 $615 $615 $599 $618 reversed $595 $-1 #
loop $-1 -1 $-1 $634 $635 $172 #
coedge $-1 -1 $-1 $617 $617 $633 $636 forward $598 $-1 #
edge $-1 -1 $-1 $637 0 $637 6.2831853071795862 $599 $638 forward @7 unknown #
vertex $-1 -1 $-1 $600 $639 #
ellipse-curve $-1 -1 $-1 -4.9999999999999947 0.086500000000000021 0.12000000000000006 0 0 -1 0.12599999999999997 0 0 1 I I #
point $-1 -1 $-1 -3.8739999999999961 0.086500000000000021 0.12 #
face $-1 -1 $-1 $640 $628 $2 $-1 $641 reversed single #
cone-surface $-1 -1 $-1 -7.9999999999999938 0.086500000000000021 -28.90072535275436 0 0 1 0.12599999999999997 0 0 1 I I 0 1 0.12599999999999997 reversed I I I I #
loop $-1 -1 $-1 $642 $643 $19 #
coedge $-1 -1 $-1 $625 $625 $644 $645 forward $606 $-1 #
coedge $-1 -1 $-1 $626 $626 $607 $627 reversed $646 $-1 #
edge $-1 -1 $-1 $647 -3.1415926535897931 $647 3.1415926535897931 $607 $648 forward @7 unknown #
loop $-1 -1 $-1 $649 $608 $622 #
vertex $-1 -1 $-1 $609 $650 #
ellipse-curve $-1 -1 $-1 -8.9999999999999947 0.086500000000000021 0 0 0 1 0.12599999999999997 0 0 1 I I #
loop $-1 -1 $-1 $-1 $651 $604 #
point $-1 -1 $-1 -8.1259999999999941 0.086500000000000007 0 #
coedge $-1 -1 $-1 $633 $633 $617 $636 reversed $613 $-1 #
loop $-1 -1 $-1 $652 $653 $172 #
coedge $-1 -1 $-1 $635 $635 $651 $654 forward $616 $-1 #
edge $-1 -1 $-1 $655 0 $655 6.2831853071795862 $617 $656 forward @7 unknown #
vertex $-1 -1 $-1 $618 $657 #
ellipse-curve $-1 -1 $-1 -5.9999999999999947 0.086500000000000021 0.12000000000000006 0 0 -1 0.12599999999999997 0 0 1 I I #
point $-1 -1 $-1 -4.8739999999999952 0.086500000000000021 0.12 #
face $-1 -1 $-1 $658 $646 $2 $-1 $659 reversed single #
cone-surface $-1 -1 $-1 -8.9999999999999947 0.086500000000000021 -28.90072535275436 0 0 1 0.12599999999999997 0 0 1 I I 0 1 0.12599999999999997 reversed I I I I #
loop $-1 -1 $-1 $660 $661 $19 #
coedge $-1 -1 $-1 $643 $643 $662 $663 forward $624 $-1 #
coedge $-1 -1 $-1 $644 $644 $625 $645 reversed $664 $-1 #
edge $-1 -1 $-1 $665 -3.1415926535897931 $665 3.1415926535897931 $625 $666 forward @7 unknown #
loop $-1 -1 $-1 $667 $626 $640 #
vertex $-1 -1 $-1 $627 $668 #
ellipse-curve $-1 -1 $-1 -9.9999999999999947 0.086500000000000021 0 0 0 1 0.12599999999999997 0 0 1 I I #
loop $-1 -1 $-1 $-1 $669 $622 #
point $-1 -1 $-1 -9.1259999999999941 0.086500000000000007 0 #
coedge $-1 -1 $-1 $651 $651 $635 $654 reversed $631 $-1 #
loop $-1 -1 $-1 $670 $671 $172 #
coedge $-1 -1 $-1 $653 $653 $669 $672 forward $634 $-1 #
edge $-1 -1 $-1 $673 0 $673 6.2831853071795862 $635 $674 forward @7 unknown #
vertex $-1 -1 $-1 $636 $675 #
ellipse-curve $-1 -1 $-1 -6.9999999999999947 0.086500000000000021 0.12000000000000006 0 0 -1 0.12599999999999997 0 0 1 I I #
point $-1 -1 $-1 -5.8739999999999952 0.086500000000000021 0.12 #
face $-1 -1 $-1 $676 $664 $2 $-1 $677 reversed single #
cone-surface $-1 -1 $-1 -9.9999999999999947 0.086500000000000021 -28.90072535275436 0 0 1 0.12599999999999997 0 0 1 I I 0 1 0.12599999999999997 reversed I I I I #
loop $-1 -1 $-1 $678 $679 $19 #
coedge $-1 -1 $-1 $661 $661 $680 $681 forward $642 $-1 #
coedge $-1 -1 $-1 $662 $662 $643 $663 reversed $682 $-1 #
edge $-1 -1 $-1 $683 -3.1415926535897931 $683 3.1415926535897931 $643 $684 forward @7 unknown #
loop $-1 -1 $-1 $685 $644 $658 #
vertex $-1 -1 $-1 $645 $686 #
ellipse-curve $-1 -1 $-1 -10.999999999999995 0.086500000000000021 0 0 0 1 0.12599999999999997 0 0 1 I I #
loop $-1 -1 $-1 $-1 $687 $640 #
point $-1 -1 $-1 -10.125999999999994 0.086500000000000007 0 #
coedge $-1 -1 $-1 $669 $669 $653 $672 reversed $649 $-1 #
loop $-1 -1 $-1 $688 $689 $172 #
coedge $-1 -1 $-1 $671 $671 $687 $690 forward $652 $-1 #
edge $-1 -1 $-1 $691 0 $691 6.2831853071795862 $653 $692 forward @7 unknown #
vertex $-1 -1 $-1 $654 $693 #
ellipse-curve $-1 -1 $-1 -7.9999999999999938 0.086500000000000021 0.12000000000000006 0 0 -1 0.12599999999999997 0 0 1 I I #
point $-1 -1 $-1 -6.8739999999999943 0.086500000000000021 0.12 #
face $-1 -1 $-1 $694 $682 $2 $-1 $695 reversed single #
cone-surface $-1 -1 $-1 -10.999999999999995 0.086500000000000021 -28.90072535275436 0 0 1 0.12599999999999997 0 0 1 I I 0 1 0.12599999999999997 reversed I I I I #
loop $-1 -1 $-1 $220 $696 $19 #
coedge $-1 -1 $-1 $679 $679 $697 $698 forward $660 $-1 #
coedge $-1 -1 $-1 $680 $680 $661 $681 reversed $699 $-1 #
edge $-1 -1 $-1 $700 -3.1415926535897931 $700 3.1415926535897931 $661 $701 forward @7 unknown #
loop $-1 -1 $-1 $702 $662 $676 #
vertex $-1 -1 $-1 $663 $703 #
ellipse-curve $-1 -1 $-1 -11.999999999999995 0.086500000000000021 0 0 0 1 0.12599999999999997 0 0 1 I I #
loop $-1 -1 $-1 $-1 $704 $658 #
point $-1 -1 $-1 -11.125999999999994 0.086500000000000007 0 #
coedge $-1 -1 $-1 $687 $687 $671 $690 reversed $667 $-1 #
loop $-1 -1 $-1 $705 $706 $172 #
coedge $-1 -1 $-1 $689 $689 $704 $707 forward $670 $-1 #
edge $-1 -1 $-1 $708 0 $708 6.2831853071795862 $671 $709 forward @7 unknown #
vertex $-1 -1 $-1 $672 $710 #
ellipse-curve $-1 -1 $-1 -8.9999999999999947 0.086500000000000021 0.12000000000000006 0 0 -1 0.12599999999999997 0 0 1 I I #
point $-1 -1 $-1 -7.8739999999999943 0.086500000000000021 0.12 #
face $-1 -1 $-1 $711 $699 $2 $-1 $712 reversed single #
cone-surface $-1 -1 $-1 -11.999999999999995 0.086500000000000021 -28.90072535275436 0 0 1 0.12599999999999997 0 0 1 I I 0 1 0.12599999999999997 reversed I I I I #
coedge $-1 -1 $-1 $696 $696 $713 $714 forward $678 $-1 #
coedge $-1 -1 $-1 $697 $697 $679 $698 reversed $715 $-1 #
edge $-1 -1 $-1 $716 -3.1415926535897931 $716 3.1415926535897931 $679 $717 forward @7 unknown #
loop $-1 -1 $-1 $718 $680 $694 #
vertex $-1 -1 $-1 $681 $719 #
ellipse-curve $-1 -1 $-1 -12.999999999999995 0.086500000000000021 0 0 0 1 0.12599999999999997 0 0 1 I I #
loop $-1 -1 $-1 $-1 $720 $676 #
point $-1 -1 $-1 -12.125999999999994 0.086500000000000007 0 #
coedge $-1 -1 $-1 $704 $704 $689 $707 reversed $685 $-1 #
loop $-1 -1 $-1 $721 $722 $172 #
coedge $-1 -1 $-1 $706 $706 $720 $723 forward $688 $-1 #
edge $-1 -1 $-1 $724 0 $724 6.2831853071795862 $689 $725 forward @7 unknown #
vertex $-1 -1 $-1 $690 $726 #
ellipse-curve $-1 -1 $-1 -9.9999999999999947 0.086500000000000021 0.12000000000000006 0 0 -1 0.12599999999999997 0 0 1 I I #
point $-1 -1 $-1 -8.8739999999999952 0.086500000000000021 0.12 #
face $-1 -1 $-1 $727 $715 $2 $-1 $728 reversed single #
cone-surface $-1 -1 $-1 -12.999999999999995 0.086500000000000021 -28.90072535275436 0 0 1 0.12599999999999997 0 0 1 I I 0 1 0.12599999999999997 reversed I I I I #
coedge $-1 -1 $-1 $713 $713 $696 $714 reversed $729 $-1 #
edge $-1 -1 $-1 $730 -3.1415926535897931 $730 3.1415926535897931 $696 $731 forward @7 unknown #
loop $-1 -1 $-1 $732 $697 $711 #
vertex $-1 -1 $-1 $698 $733 #
ellipse-curve $-1 -1 $-1 14.000000000000005 0.086500000000000021 0 0 0 1 0.12599999999999997 0 0 1 I I #
loop $-1 -1 $-1 $-1 $734 $694 #
point $-1 -1 $-1 -13.125999999999994 0.086500000000000007 0 #
coedge $-1 -1 $-1 $720 $720 $706 $723 reversed $702 $-1 #
loop $-1 -1 $-1 $735 $736 $172 #
coedge $-1 -1 $-1 $722 $722 $734 $737 forward $705 $-1 #
edge $-1 -1 $-1 $738 0 $738 6.2831853071795862 $706 $739 forward @7 unknown #
vertex $-1 -1 $-1 $707 $740 #
ellipse-curve $-1 -1 $-1 -10.999999999999995 0.086500000000000021 0.12000000000000006 0 0 -1 0.12599999999999997 0 0 1 I I #
point $-1 -1 $-1 -9.8739999999999952 0.086500000000000021 0.12 #
face $-1 -1 $-1 $187 $729 $2 $-1 $741 reversed single #
cone-surface $-1 -1 $-1 14.000000000000005 0.086500000000000021 -28.90072535275436 0 0 1 0.12599999999999997 0 0 1 I I 0 1 0.12599999999999997 reversed I I I I #
loop $-1 -1 $-1 $742 $713 $727 #
vertex $-1 -1 $-1 $714 $743 #
ellipse-curve $-1 -1 $-1 -13.999999999999995 0.086500000000000021 0 0 0 1 0.12599999999999997 0 0 1 I I #
loop $-1 -1 $-1 $-1 $744 $711 #
point $-1 -1 $-1 13.874000000000006 0.086500000000000007 0 #
coedge $-1 -1 $-1 $734 $734 $722 $737 reversed $718 $-1 #
loop $-1 -1 $-1 $-1 $745 $172 #
coedge $-1 -1 $-1 $736 $736 $744 $746 forward $721 $-1 #
edge $-1 -1 $-1 $747 0 $747 6.2831853071795862 $722 $748 forward @7 unknown #
vertex $-1 -1 $-1 $723 $749 #
ellipse-curve $-1 -1 $-1 -11.999999999999995 0.086500000000000021 0.12000000000000006 0 0 -1 0.12599999999999997 0 0 1 I I #
point $-1 -1 $-1 -10.873999999999995 0.086500000000000021 0.12 #
cone-surface $-1 -1 $-1 -13.999999999999995 0.086500000000000021 -28.90072535275436 0 0 1 0.12599999999999997 0 0 1 I I 0 1 0.12599999999999997 reversed I I I I #
loop $-1 -1 $-1 $-1 $750 $727 #
point $-1 -1 $-1 -14.125999999999994 0.086500000000000007 0 #
coedge $-1 -1 $-1 $744 $744 $736 $746 reversed $732 $-1 #
coedge $-1 -1 $-1 $745 $745 $750 $751 forward $735 $-1 #
edge $-1 -1 $-1 $752 0 $752 6.2831853071795862 $736 $753 forward @7 unknown #
vertex $-1 -1 $-1 $737 $754 #
ellipse-curve $-1 -1 $-1 -12.999999999999995 0.086500000000000021 0.12000000000000006 0 0 -1 0.12599999999999997 0 0 1 I I #
point $-1 -1 $-1 -11.873999999999995 0.086500000000000021 0.12 #
coedge $-1 -1 $-1 $750 $750 $745 $751 reversed $742 $-1 #
edge $-1 -1 $-1 $755 0 $755 6.2831853071795862 $745 $756 forward @7 unknown #
vertex $-1 -1 $-1 $746 $757 #
ellipse-curve $-1 -1 $-1 14.000000000000005 0.086500000000000021 0.12000000000000006 0 0 -1 0.12599999999999997 0 0 1 I I #
point $-1 -1 $-1 -12.873999999999995 0.086500000000000021 0.12 #
vertex $-1 -1 $-1 $751 $758 #
ellipse-curve $-1 -1 $-1 -13.999999999999995 0.086500000000000021 0.12000000000000006 0 0 -1 0.12599999999999997 0 0 1 I I #
point $-1 -1 $-1 14.126000000000005 0.086500000000000021 0.12 #
point $-1 -1 $-1 -13.873999999999995 0.086500000000000021 0.12 #
End-of-ACIS-data 