400 0 1 0           
7 Unknown 11 ACIS 6.0 NT 24 Wed Dec 26 20:04:58 2001 
25.399999999999999 9.9999999999999995e-007 1e-010 
body $-1 $1 $-1 $-1 #
lump $-1 $-1 $2 $0 #
shell $-1 $-1 $-1 $3 $-1 $1 #
face $-1 $4 $5 $2 $-1 $6 reversed single #
face $-1 $7 $8 $2 $-1 $9 forward single #
loop $-1 $10 $11 $3 #
cone-surface $-1 0 0 1.1650454926739986 0 0 -1 -0.12499999999999999 0 0 1 I I 0 1 0.12499999999999999 reversed I I I I #
face $-1 $12 $13 $2 $-1 $14 forward single #
loop $-1 $-1 $15 $4 #
plane-surface $-1 -0.2848144985765092 0.047053530515200934 0.6339999999999999 -0.77294439020170747 0.63447377381237025 0 0 0 0.39370078740157477 forward_v I I I I #
loop $-1 $-1 $16 $3 #
coedge $-1 $11 $11 $17 $18 reversed $5 $-1 #
face $-1 $19 $20 $2 $-1 $21 forward single #
loop $-1 $-1 $22 $7 #
plane-surface $-1 -0.10165769652434439 0.27018335639098434 0.6339999999999999 0.16299821105564136 0.98662636453353536 0 0 0 0.39370078740157477 forward_v I I I I #
coedge $-1 $23 $24 $25 $26 forward $8 $-1 #
coedge $-1 $16 $16 $27 $28 reversed $10 $-1 #
coedge $-1 $17 $17 $11 $18 forward $29 $-1 #
edge $-1 $30 $30 $17 $31 forward #
face $-1 $32 $33 $2 $-1 $34 forward single #
loop $-1 $-1 $35 $12 #
plane-surface $-1 0.18315680205216475 0.22312982587578337 0.6339999999999999 0.93594260125734829 0.35215259072116517 0 0 0 -0.39370078740157477 forward_v I I I I #
coedge $-1 $36 $37 $38 $39 forward $13 $-1 #
coedge $-1 $40 $15 $37 $41 reversed $8 $-1 #
coedge $-1 $15 $40 $42 $43 forward $8 $-1 #
coedge $-1 $44 $38 $15 $26 reversed $45 $-1 #
edge $-1 $46 $47 $15 $48 forward #
coedge $-1 $27 $27 $16 $28 forward $49 $-1 #
edge $-1 $50 $50 $27 $51 forward #
loop $-1 $45 $17 $52 #
vertex $-1 $18 $53 #
ellipse-curve $-1 0 0 0.75899999999999979 0 0 -1 -0.12499999999999999 0 0 1 I I #
face $-1 $54 $55 $2 $-1 $56 forward single #
loop $-1 $-1 $57 $19 #
plane-surface $-1 0.28481449857650915 -0.047053530515200864 0.6339999999999999 0.77294439020170747 -0.63447377381237013 0 0 0 -0.39370078740157477 forward_v I I I I #
coedge $-1 $58 $59 $60 $61 forward $20 $-1 #
coedge $-1 $62 $22 $59 $63 reversed $13 $-1 #
coedge $-1 $22 $62 $23 $41 forward $13 $-1 #
coedge $-1 $25 $60 $22 $39 reversed $45 $-1 #
edge $-1 $47 $64 $22 $65 forward #
coedge $-1 $24 $23 $66 $67 reversed $8 $-1 #
edge $-1 $68 $47 $37 $69 forward #
coedge $-1 $70 $71 $24 $43 reversed $72 $-1 #
edge $-1 $73 $46 $24 $74 forward #
coedge $-1 $75 $25 $71 $76 reversed $45 $-1 #
loop $-1 $-1 $25 $52 #
vertex $-1 $43 $77 #
vertex $-1 $41 $78 #
straight-curve $-1 -0.10165769652434442 0.27018335639098434 0.7589999999999999 0.24979282433557881 0.30430881504004226 0 F -0.73323484187082466 F 0 #
loop $-1 $79 $27 $80 #
vertex $-1 $28 $81 #
ellipse-curve $-1 0 0 0 0 0 1 -0.12499999999999999 0 0 1 I I #
face $-1 $82 $29 $2 $-1 $83 forward single #
point $-1 0.12499999999999999 0 0.75899999999999979 #
face $-1 $52 $72 $2 $-1 $84 forward single #
loop $-1 $-1 $85 $32 #
plane-surface $-1 0.10165769652434432 -0.27018335639098429 0.6339999999999999 -0.16299821105564144 -0.98662636453353536 0 0 0 -0.39370078740157477 forward_v I I I I #
coedge $-1 $86 $87 $88 $89 forward $33 $-1 #
coedge $-1 $90 $35 $87 $91 reversed $20 $-1 #
coedge $-1 $35 $90 $36 $63 forward $20 $-1 #
coedge $-1 $38 $88 $35 $61 reversed $45 $-1 #
edge $-1 $64 $92 $35 $93 forward #
coedge $-1 $37 $36 $94 $95 reversed $13 $-1 #
edge $-1 $96 $64 $59 $97 forward #
vertex $-1 $63 $98 #
straight-curve $-1 0.18315680205216478 0.22312982587578337 0.7589999999999999 0.38843557658800604 -0.064172524037654069 0 F -0.73323484187082466 F 0 #
coedge $-1 $94 $99 $40 $67 forward $100 $-1 #
edge $-1 $73 $68 $66 $101 forward #
vertex $-1 $67 $102 #
straight-curve $-1 -0.10165769652434439 0.27018335639098434 0.6339999999999999 0 0 0.39370078740157477 I I #
coedge $-1 $103 $42 $99 $104 reversed $72 $-1 #
coedge $-1 $42 $103 $44 $76 forward $72 $-1 #
loop $-1 $-1 $71 $54 #
vertex $-1 $67 $105 #
straight-curve $-1 -0.2848144985765092 0.047053530515200934 0.6339999999999999 0 0 0.39370078740157477 I I #
coedge $-1 $88 $44 $85 $106 reversed $45 $-1 #
edge $-1 $107 $46 $71 $108 forward #
point $-1 -0.2848144985765092 0.047053530515200934 0.75899999999999979 #
point $-1 -0.10165769652434439 0.27018335639098434 0.75899999999999979 #
loop $-1 $-1 $109 $80 #
face $-1 $-1 $49 $2 $-1 $110 reversed single #
point $-1 -0.12499999999999999 0 0 #
face $-1 $111 $112 $2 $-1 $113 forward single #
plane-surface $-1 -1.6391087961985577e-017 4.3709567898628207e-017 0.75899999999999979 0 0 1 0.39370078740157477 0 0 forward_v I I I I #
plane-surface $-1 -0.18315680205216481 -0.22312982587578326 0.6339999999999999 -0.93594260125734829 -0.35215259072116528 0 0 0 0.39370078740157477 forward_v I I I I #
coedge $-1 $114 $115 $75 $106 forward $55 $-1 #
coedge $-1 $116 $57 $115 $117 reversed $33 $-1 #
coedge $-1 $57 $116 $58 $91 forward $33 $-1 #
coedge $-1 $60 $75 $57 $89 reversed $45 $-1 #
edge $-1 $92 $118 $57 $119 forward #
coedge $-1 $59 $58 $120 $121 reversed $20 $-1 #
edge $-1 $122 $92 $87 $123 forward #
vertex $-1 $91 $124 #
straight-curve $-1 0.28481449857650915 -0.047053530515200843 0.7589999999999999 0.13864275225242723 -0.36848133907769615 0 F -0.73323484187082466 F 0 #
coedge $-1 $120 $66 $62 $95 forward $100 $-1 #
edge $-1 $68 $96 $94 $125 forward #
vertex $-1 $95 $126 #
straight-curve $-1 0.18315680205216475 0.22312982587578337 0.6339999999999999 0 0 0.39370078740157477 I I #
point $-1 0.18315680205216475 0.22312982587578337 0.75899999999999979 #
coedge $-1 $66 $127 $70 $104 forward $100 $-1 #
loop $-1 $128 $66 $111 #
straight-curve $-1 -0.23339864951032574 0.10969062245419227 0.6339999999999999 0.24979282433557881 0.30430881504004226 0 I I #
point $-1 -0.10165769652434439 0.27018335639098434 0.6339999999999999 #
coedge $-1 $71 $70 $114 $129 forward $72 $-1 #
edge $-1 $130 $73 $99 $131 forward #
point $-1 -0.2848144985765092 0.047053530515200934 0.6339999999999999 #
edge $-1 $118 $107 $85 $132 forward #
vertex $-1 $129 $133 #
straight-curve $-1 -0.2848144985765092 0.047053530515200934 0.7589999999999999 -0.13864275225242725 0.36848133907769615 0 F -0.73323484187082466 F 0 #
coedge $-1 $109 $109 $134 $135 forward $79 $-1 #
plane-surface $-1 0.028409090909090884 1.7881186867620631e-017 0 0 0 1 0.39370078740157477 0 0 forward_v I I I I #
face $-1 $136 $100 $2 $-1 $137 forward single #
loop $-1 $138 $139 $82 #
cone-surface $-1 0 0 0.375 0 0 1 -0.3075 0 0 1 I I 0 1 0.3075 forward I I I I #
coedge $-1 $140 $85 $103 $129 reversed $55 $-1 #
coedge $-1 $85 $140 $86 $117 forward $55 $-1 #
coedge $-1 $87 $86 $141 $142 reversed $33 $-1 #
edge $-1 $143 $118 $115 $144 forward #
vertex $-1 $117 $145 #
straight-curve $-1 0.10165769652434432 -0.27018335639098429 0.7589999999999999 -0.24979282433557878 -0.30430881504004226 0 F -0.73323484187082477 F 0 #
coedge $-1 $141 $94 $90 $121 forward $100 $-1 #
edge $-1 $96 $122 $120 $146 forward #
vertex $-1 $121 $147 #
straight-curve $-1 0.28481449857650915 -0.047053530515200864 0.6339999999999999 0 0 0.39370078740157477 I I #
point $-1 0.28481449857650915 -0.047053530515200864 0.75899999999999979 #
straight-curve $-1 -0.01684815316059235 0.25617217207069387 0.6339999999999999 0.38843557658800604 -0.064172524037654069 0 I I #
point $-1 0.18315680205216475 0.22312982587578337 0.6339999999999999 #
coedge $-1 $99 $141 $140 $148 forward $100 $-1 #
loop $-1 $-1 $149 $111 #
edge $-1 $130 $107 $103 $150 forward #
vertex $-1 $148 $151 #
straight-curve $-1 -0.20683788436510883 -0.16019082055659262 0.6339999999999999 -0.13864275225242725 0.36848133907769615 0 I I #
straight-curve $-1 -0.18315680205216484 -0.22312982587578326 0.7589999999999999 -0.38843557658800604 0.064172524037654111 0 F -0.73323484187082466 F 0 #
point $-1 -0.18315680205216481 -0.22312982587578326 0.75899999999999979 #
coedge $-1 $134 $134 $109 $135 reversed $152 $-1 #
edge $-1 $153 $153 $109 $154 forward #
face $-1 $155 $156 $2 $-1 $157 forward single #
plane-surface $-1 0.027954545454545437 3.9735970816934733e-018 0.6339999999999999 0 0 1 0.39370078740157477 0 0 forward_v I I I I #
loop $-1 $-1 $158 $82 #
coedge $-1 $139 $139 $149 $159 forward $112 $-1 #
coedge $-1 $115 $114 $127 $148 reversed $55 $-1 #
coedge $-1 $127 $120 $116 $142 forward $100 $-1 #
edge $-1 $122 $143 $141 $160 forward #
vertex $-1 $142 $161 #
straight-curve $-1 0.10165769652434432 -0.27018335639098429 0.6339999999999999 0 0 0.39370078740157477 I I #
point $-1 0.10165769652434432 -0.27018335639098429 0.75899999999999979 #
straight-curve $-1 0.21030456800139297 0.15097715299948197 0.6339999999999999 0.13864275225242723 -0.36848133907769615 0 I I #
point $-1 0.28481449857650915 -0.047053530515200864 0.6339999999999999 #
edge $-1 $143 $130 $127 $162 forward #
coedge $-1 $149 $149 $139 $159 reversed $128 $-1 #
straight-curve $-1 -0.18315680205216481 -0.22312982587578326 0.6339999999999999 0 0 0.39370078740157477 I I #
point $-1 -0.18315680205216481 -0.22312982587578326 0.6339999999999999 #
loop $-1 $-1 $134 $136 #
vertex $-1 $135 $163 #
ellipse-curve $-1 0 0 0 0 0 -1 -0.31249999999999994 0 0 1 I I #
face $-1 $80 $164 $2 $-1 $165 forward single #
loop $-1 $152 $166 $136 #
cone-surface $-1 0 0 0 0 0 1 -0.31249999999999994 0 0 1 I I 0 1 0.31249999999999994 forward I I I I #
coedge $-1 $158 $158 $167 $168 reversed $138 $-1 #
edge $-1 $169 $169 $139 $170 forward #
straight-curve $-1 0.2446519466166103 -0.095981351514101171 0.6339999999999999 -0.24979282433557878 -0.30430881504004226 0 I I #
point $-1 0.10165769652434432 -0.27018335639098429 0.6339999999999999 #
straight-curve $-1 0.044059990599841677 -0.2606677754536742 0.6339999999999999 -0.38843557658800604 0.064172524037654111 0 I I #
point $-1 0.31249999999999994 3.8268948556949283e-017 0 #
loop $-1 $171 $167 $155 #
plane-surface $-1 0.028409090909090884 1.7881186867620631e-017 0.375 0 0 1 0.39370078740157477 0 0 forward_v I I I I #
coedge $-1 $166 $166 $172 $173 forward $156 $-1 #
coedge $-1 $167 $167 $158 $168 forward $164 $-1 #
edge $-1 $174 $174 $167 $175 forward #
vertex $-1 $159 $176 #
ellipse-curve $-1 0 0 0.6339999999999999 0 0 -1 -0.3075 0 0 1 I I #
loop $-1 $-1 $172 $155 #
coedge $-1 $172 $172 $166 $173 reversed $171 $-1 #
edge $-1 $177 $177 $166 $178 forward #
vertex $-1 $168 $179 #
ellipse-curve $-1 0 0 0.375 0 0 -1 -0.3075 0 0 1 I I #
point $-1 0.3075 3.7656645380038097e-017 0.6339999999999999 #
vertex $-1 $173 $180 #
ellipse-curve $-1 0 0 0.375 0 0 -1 -0.31249999999999994 0 0 1 I I #
point $-1 0.3075 3.7656645380038097e-017 0.375 #
point $-1 0.31249999999999994 3.8268948556949283e-017 0.375 #
End-of-ACIS-data 