700 0 1 0           
29 Autodesk Inventor 6.2.0.12000 17 ASM 6.0.1.6021 NT 24 Thu Dec 29 15:29:37 2005 
25.399999999999999 9.9999999999999995e-007 1e-010 
body $-1 -1 $-1 $1 $-1 $-1 #
lump $-1 -1 $-1 $-1 $2 $0 #
shell $-1 -1 $-1 $-1 $-1 $3 $-1 $1 #
face $-1 -1 $-1 $4 $5 $2 $-1 $6 forward single #
face $-1 -1 $-1 $7 $8 $2 $-1 $9 forward single #
loop $-1 -1 $-1 $-1 $10 $3 #
plane-surface $-1 -1 $-1 1.0599999999999992 2.9600000000000004 0.18999999999999995 2.9426862201331872e-031 -1.3112870369588463e-015 -1 -0.39370078740157477 0 -1.1585378819421996e-031 forward_v I I I I #
face $-1 -1 $-1 $11 $12 $2 $-1 $13 forward single #
loop $-1 -1 $-1 $-1 $14 $4 #
plane-surface $-1 -1 $-1 2.0599999999999992 2.9600000000000009 0.22999999999999995 1 4.3709567898628211e-016 -2.7888216799624903e-031 -1.097961291323815e-031 0 -0.39370078740157477 forward_v I I I I #
coedge $-1 -1 $-1 $15 $16 $17 $18 forward $5 $-1 #
face $-1 -1 $-1 $19 $20 $2 $-1 $21 forward single #
loop $-1 -1 $-1 $-1 $22 $7 #
plane-surface $-1 -1 $-1 2.0599999999999992 2.9600000000000009 0.26999999999999996 -2.9426862201331872e-031 1.3112870369588463e-015 1 0.39370078740157477 0 1.1585378819421996e-031 forward_v I I I I #
coedge $-1 -1 $-1 $23 $24 $25 $26 forward $8 $-1 #
coedge $-1 -1 $-1 $27 $10 $24 $28 reversed $5 $-1 #
coedge $-1 -1 $-1 $10 $27 $29 $30 forward $5 $-1 #
coedge $-1 -1 $-1 $31 $25 $10 $18 reversed $32 $-1 #
edge $-1 -1 $-1 $33 -2.5400000000000009 $34 0 $10 $35 forward @7 unknown #
face $-1 -1 $-1 $36 $32 $2 $-1 $37 forward single #
loop $-1 -1 $-1 $-1 $38 $11 #
plane-surface $-1 -1 $-1 1.0599999999999992 2.9600000000000004 0.22999999999999995 -1 -4.3709567898628211e-016 2.7888216799624903e-031 1.097961291323815e-031 0 0.39370078740157477 forward_v I I I I #
coedge $-1 -1 $-1 $39 $40 $41 $42 forward $12 $-1 #
coedge $-1 -1 $-1 $43 $14 $40 $44 reversed $8 $-1 #
coedge $-1 -1 $-1 $14 $43 $15 $28 forward $8 $-1 #
coedge $-1 -1 $-1 $17 $41 $14 $26 reversed $32 $-1 #
edge $-1 -1 $-1 $34 -0.20320000000000005 $45 0 $14 $46 forward @7 unknown #
coedge $-1 -1 $-1 $16 $15 $47 $48 reversed $5 $-1 #
edge $-1 -1 $-1 $49 0 $34 1.0159999999999991 $24 $50 forward @7 unknown #
coedge $-1 -1 $-1 $51 $38 $16 $30 reversed $20 $-1 #
edge $-1 -1 $-1 $52 0 $33 1.016 $16 $53 forward @7 unknown #
coedge $-1 -1 $-1 $41 $17 $38 $54 reversed $32 $-1 #
loop $-1 -1 $-1 $-1 $17 $19 #
vertex $-1 -1 $-1 $30 $55 #
vertex $-1 -1 $-1 $28 $56 #
straight-curve $-1 -1 $-1 2.0599999999999992 3.3600000000000003 0.18999999999999942 0.39370078740157477 1.7037555299777772e-016 -1.0755746586646089e-031 F -2.54 F 0 #
face $-1 -1 $-1 $57 $58 $2 $-1 $59 forward single #
plane-surface $-1 -1 $-1 1.5599999999999992 3.3600000000000003 0.22999999999999943 -3.8852949243225935e-016 1 -2.8790733346401862e-015 0 1.1334934388347189e-015 0.39370078740157477 forward_v I I I I #
coedge $-1 -1 $-1 $29 $60 $31 $54 forward $20 $-1 #
coedge $-1 -1 $-1 $61 $22 $60 $62 reversed $12 $-1 #
coedge $-1 -1 $-1 $22 $61 $23 $44 forward $12 $-1 #
coedge $-1 -1 $-1 $25 $31 $22 $42 reversed $32 $-1 #
edge $-1 -1 $-1 $45 -2.5400000000000005 $63 4.4408920985006262e-016 $22 $64 forward @7 unknown #
coedge $-1 -1 $-1 $24 $23 $65 $66 reversed $8 $-1 #
edge $-1 -1 $-1 $67 0 $45 1.0159999999999982 $40 $68 forward @7 unknown #
vertex $-1 -1 $-1 $44 $69 #
straight-curve $-1 -1 $-1 2.0599999999999992 3.3600000000000003 0.26999999999999946 -1.1557487277092793e-031 5.156102261774647e-016 0.39370078740157477 F -0.20320000000000005 F 0 #
coedge $-1 -1 $-1 $65 $70 $27 $48 forward $71 $-1 #
edge $-1 -1 $-1 $52 -0.63499999999999979 $49 1.9050000000000007 $47 $72 forward @7 unknown #
vertex $-1 -1 $-1 $48 $73 #
straight-curve $-1 -1 $-1 2.0599999999999992 2.9600000000000009 0.18999999999999995 -1.7208491298672524e-016 0.39370078740157477 -5.1625473896017571e-016 I I #
coedge $-1 -1 $-1 $60 $29 $70 $74 reversed $20 $-1 #
vertex $-1 -1 $-1 $48 $75 #
straight-curve $-1 -1 $-1 1.0599999999999992 2.9600000000000004 0.18999999999999995 -1.7208491298672524e-016 0.39370078740157477 -5.1625473896017571e-016 I I #
edge $-1 -1 $-1 $63 -0.20320000000000005 $33 0 $38 $76 forward @7 unknown #
point $-1 -1 $-1 1.0599999999999989 3.3600000000000003 0.18999999999999942 #
point $-1 -1 $-1 2.0599999999999992 3.3600000000000003 0.18999999999999942 #
face $-1 -1 $-1 $77 $78 $2 $-1 $79 reversed single #
loop $-1 -1 $-1 $80 $81 $36 #
torus-surface $-1 -1 $-1 1.5599999999999996 1.75 0.15906041848555408 0 0 -1 0.06785388365055478 1.1429555014053794 -1 0 0 forward_v I I I I #
coedge $-1 -1 $-1 $38 $51 $39 $62 forward $20 $-1 #
coedge $-1 -1 $-1 $40 $39 $82 $83 reversed $12 $-1 #
edge $-1 -1 $-1 $84 0 $63 1.016 $60 $85 forward @7 unknown #
vertex $-1 -1 $-1 $62 $86 #
straight-curve $-1 -1 $-1 1.0599999999999992 3.3600000000000003 0.26999999999999946 -0.39370078740157477 -1.7037555299777772e-016 1.0755746586646089e-031 F -2.54 F 0 #
coedge $-1 -1 $-1 $82 $47 $43 $66 forward $71 $-1 #
edge $-1 -1 $-1 $49 -0.22225000000000006 $67 -0.019050000000000011 $65 $87 forward @7 unknown #
vertex $-1 -1 $-1 $66 $88 #
straight-curve $-1 -1 $-1 2.0599999999999992 2.9600000000000009 0.26999999999999996 -1.7208491298672524e-016 0.39370078740157477 -5.1625473896017571e-016 I I #
point $-1 -1 $-1 2.0599999999999992 3.3600000000000003 0.26999999999999946 #
coedge $-1 -1 $-1 $47 $82 $51 $74 forward $71 $-1 #
loop $-1 -1 $-1 $89 $47 $90 #
straight-curve $-1 -1 $-1 1.3099999999999989 2.9600000000000004 0.18999999999999995 0.39370078740157477 1.7037555299777772e-016 -1.0755746586646089e-031 I I #
point $-1 -1 $-1 2.0599999999999992 2.9600000000000009 0.18999999999999995 #
edge $-1 -1 $-1 $84 0.019050000000000011 $52 0.22225000000000006 $70 $91 forward @7 unknown #
point $-1 -1 $-1 1.0599999999999992 2.9600000000000004 0.18999999999999995 #
straight-curve $-1 -1 $-1 1.0599999999999989 3.3600000000000003 0.18999999999999942 1.1557487277092793e-031 -5.156102261774647e-016 -0.39370078740157477 F -0.20320000000000005 F 0 #
face $-1 -1 $-1 $92 $93 $2 $-1 $94 reversed single #
loop $-1 -1 $-1 $95 $96 $57 #
cone-surface $-1 -1 $-1 2.7299999999999995 0.39000000000000018 4.6231884035876387 0 0 -1 -0.074999999999999997 0 0 1 I I 0 1 0.074999999999999997 reversed I I I I #
loop $-1 -1 $-1 $-1 $97 $36 #
coedge $-1 -1 $-1 $81 $81 $-1 $98 forward $58 $-1 #
coedge $-1 -1 $-1 $70 $65 $61 $83 forward $71 $-1 #
edge $-1 -1 $-1 $67 -0.63500000000000068 $84 1.9049999999999998 $82 $99 forward @7 unknown #
vertex $-1 -1 $-1 $83 $100 #
straight-curve $-1 -1 $-1 1.0599999999999992 2.9600000000000004 0.26999999999999996 -1.7208491298672524e-016 0.39370078740157477 -5.1625473896017571e-016 I I #
point $-1 -1 $-1 1.0599999999999989 3.3600000000000003 0.26999999999999946 #
straight-curve $-1 -1 $-1 2.0599999999999992 2.9600000000000009 0.27749999999999997 -1.1557487277092793e-031 5.156102261774647e-016 0.39370078740157477 I I #
point $-1 -1 $-1 2.0599999999999992 2.9600000000000009 0.26999999999999996 #
loop $-1 -1 $-1 $-1 $101 $90 #
face $-1 -1 $-1 $102 $71 $2 $-1 $103 forward single #
straight-curve $-1 -1 $-1 1.0599999999999992 2.9600000000000004 0.27749999999999997 1.1557487277092793e-031 -5.156102261774647e-016 -0.39370078740157477 I I #
face $-1 -1 $-1 $104 $105 $2 $-1 $106 reversed single #
loop $-1 -1 $-1 $107 $108 $77 #
cone-surface $-1 -1 $-1 0.38999999999999913 3.109999999999999 4.6231884035876387 0 0 -1 -0.074999999999999997 0 0 1 I I 0 1 0.074999999999999997 reversed I I I I #
loop $-1 -1 $-1 $-1 $109 $57 #
coedge $-1 -1 $-1 $96 $96 $110 $111 reversed $78 $-1 #
coedge $-1 -1 $-1 $97 $97 $112 $113 reversed $80 $-1 #
edge $-1 -1 $-1 $114 1 $114 0 $81 $-1 forward @7 unknown #
straight-curve $-1 -1 $-1 1.8099999999999989 2.9600000000000009 0.26999999999999996 -0.39370078740157477 -1.7037555299777772e-016 1.0755746586646089e-031 I I #
point $-1 -1 $-1 1.0599999999999992 2.9600000000000004 0.26999999999999996 #
coedge $-1 -1 $-1 $115 $116 $117 $118 forward $89 $-1 #
face $-1 -1 $-1 $119 $120 $2 $-1 $121 forward single #
plane-surface $-1 -1 $-1 1.5599999999999989 2.9600000000000009 0.32499999999999996 -4.3275390461435545e-016 1 -1.3096499744907604e-015 0 5.156102261774647e-016 0.39370078740157477 forward_v I I I I #
face $-1 -1 $-1 $122 $123 $2 $-1 $124 reversed single #
loop $-1 -1 $-1 $125 $126 $92 #
cone-surface $-1 -1 $-1 0.38999999999999985 0.38999999999999951 4.6231884035876387 0 0 -1 -0.074999999999999997 0 0 1 I I 0 1 0.074999999999999997 reversed I I I I #
loop $-1 -1 $-1 $-1 $127 $77 #
coedge $-1 -1 $-1 $108 $108 $128 $129 reversed $93 $-1 #
coedge $-1 -1 $-1 $109 $109 $130 $131 reversed $95 $-1 #
coedge $-1 -1 $-1 $110 $110 $96 $111 forward $132 $-1 #
edge $-1 -1 $-1 $133 -3.1415926535897931 $133 3.1415926535897931 $110 $134 forward @7 unknown #
coedge $-1 -1 $-1 $112 $112 $97 $113 forward $135 $-1 #
edge $-1 -1 $-1 $136 -3.1415926535897931 $136 3.1415926535897931 $112 $137 forward @7 unknown #
vertex $-1 -1 $-1 $98 $138 #
coedge $-1 -1 $-1 $139 $101 $140 $141 forward $89 $-1 #
coedge $-1 -1 $-1 $101 $139 $142 $143 forward $89 $-1 #
coedge $-1 -1 $-1 $144 $145 $101 $118 reversed $146 $-1 #
edge $-1 -1 $-1 $147 0 $148 1.0668 $117 $149 forward @7 unknown #
face $-1 -1 $-1 $150 $151 $2 $-1 $152 forward single #
loop $-1 -1 $-1 $-1 $153 $102 #
plane-surface $-1 -1 $-1 0 0 0 -1 -3.0615158845559431e-016 0 0 0 0.39370078740157477 forward_v I I I I #
face $-1 -1 $-1 $154 $155 $2 $-1 $156 forward single #
loop $-1 -1 $-1 $157 $158 $104 #
cone-surface $-1 -1 $-1 2.7299999999999991 3.1099999999999999 4.6231884035876387 0 0 -1 -0.074999999999999997 0 0 1 I I 0 1 0.074999999999999997 reversed I I I I #
loop $-1 -1 $-1 $-1 $159 $92 #
coedge $-1 -1 $-1 $126 $126 $160 $161 reversed $105 $-1 #
coedge $-1 -1 $-1 $127 $127 $162 $163 reversed $107 $-1 #
coedge $-1 -1 $-1 $128 $128 $108 $129 forward $164 $-1 #
edge $-1 -1 $-1 $165 -3.1415926535897931 $165 3.1415926535897931 $128 $166 forward @7 unknown #
coedge $-1 -1 $-1 $130 $130 $109 $131 forward $167 $-1 #
edge $-1 -1 $-1 $168 0 $168 6.2831853071795862 $130 $169 forward @7 unknown #
loop $-1 -1 $-1 $164 $110 $170 #
vertex $-1 -1 $-1 $111 $171 #
ellipse-curve $-1 -1 $-1 2.7299999999999995 0.39000000000000018 0.64999999999999991 0 0 -1 -0.074999999999999997 0 0 1 I I #
loop $-1 -1 $-1 $132 $112 $170 #
vertex $-1 -1 $-1 $113 $172 #
ellipse-curve $-1 -1 $-1 1.5599999999999996 1.75 0.64999999999999991 0 0 -1 -1.1000000000000001 0 0 1 I I #
point $-1 -1 $-1 1.5599999999999996 1.75 1.2999999999999998 #
coedge $-1 -1 $-1 $116 $115 $173 $174 forward $89 $-1 #
coedge $-1 -1 $-1 $175 $176 $115 $141 reversed $177 $-1 #
edge $-1 -1 $-1 $148 0 $178 2.9209999999999998 $140 $179 forward @7 unknown #
coedge $-1 -1 $-1 $180 $181 $116 $143 reversed $182 $-1 #
edge $-1 -1 $-1 $183 -3.9817328145619416e-031 $147 2.9210000000000007 $142 $184 forward @7 unknown #
coedge $-1 -1 $-1 $185 $117 $181 $186 reversed $146 $-1 #
coedge $-1 -1 $-1 $117 $185 $175 $187 forward $146 $-1 #
loop $-1 -1 $-1 $-1 $117 $188 #
vertex $-1 -1 $-1 $186 $189 #
vertex $-1 -1 $-1 $187 $190 #
straight-curve $-1 -1 $-1 0.9849999999999991 2.96 0.115 0 0 0.39370078740157477 F 0 F 1.0668 #
face $-1 -1 $-1 $191 $192 $2 $-1 $193 forward single #
loop $-1 -1 $-1 $194 $195 $119 #
plane-surface $-1 -1 $-1 -1.0715305595945801e-015 3.5 0 -2.2415163024937545e-016 1 0 0 0 0.39370078740157477 forward_v I I I I #
coedge $-1 -1 $-1 $196 $197 $198 $199 forward $120 $-1 #
face $-1 -1 $-1 $200 $201 $2 $-1 $202 reversed single #
loop $-1 -1 $-1 $203 $204 $122 #
cone-surface $-1 -1 $-1 0.38999999999999896 0.39000000000000024 0 0 0 -1 0.16416557921704877 0 0 1 I I 0 1 0.16416557921704877 forward I I I I #
loop $-1 -1 $-1 $-1 $205 $104 #
coedge $-1 -1 $-1 $158 $158 $206 $207 reversed $123 $-1 #
coedge $-1 -1 $-1 $159 $159 $208 $209 reversed $125 $-1 #
coedge $-1 -1 $-1 $160 $160 $126 $161 forward $210 $-1 #
edge $-1 -1 $-1 $211 -3.1415926535897931 $211 3.1415926535897931 $160 $212 forward @7 unknown #
coedge $-1 -1 $-1 $162 $162 $127 $163 forward $213 $-1 #
edge $-1 -1 $-1 $214 0 $214 6.2831853071795862 $162 $215 forward @7 unknown #
loop $-1 -1 $-1 $210 $128 $170 #
vertex $-1 -1 $-1 $129 $216 #
ellipse-curve $-1 -1 $-1 0.38999999999999913 3.109999999999999 0.64999999999999991 0 0 -1 -0.074999999999999997 0 0 1 I I #
loop $-1 -1 $-1 $217 $130 $218 #
vertex $-1 -1 $-1 $131 $219 #
ellipse-curve $-1 -1 $-1 2.7299999999999995 0.39000000000000018 -0.12999999999999984 0 0 1 -0.074999999999999997 0 0 1 I I #
face $-1 -1 $-1 $-1 $135 $2 $-1 $220 forward single #
point $-1 -1 $-1 2.8049999999999997 0.39000000000000018 0.64999999999999991 #
point $-1 -1 $-1 2.6599999999999997 1.75 0.64999999999999991 #
coedge $-1 -1 $-1 $221 $222 $139 $174 reversed $223 $-1 #
edge $-1 -1 $-1 $178 -2.2204460492503131e-016 $183 1.0667999999999997 $173 $224 forward @7 unknown #
coedge $-1 -1 $-1 $225 $140 $145 $187 reversed $177 $-1 #
coedge $-1 -1 $-1 $140 $225 $221 $226 forward $177 $-1 #
loop $-1 -1 $-1 $-1 $140 $227 #
vertex $-1 -1 $-1 $226 $228 #
straight-curve $-1 -1 $-1 0.9849999999999991 2.9600000000000009 0.53499999999999992 0.39370078740157477 8.8248673326525756e-017 0 F 0 F 2.9210000000000003 #
coedge $-1 -1 $-1 $229 $142 $222 $230 reversed $182 $-1 #
coedge $-1 -1 $-1 $142 $229 $144 $186 forward $182 $-1 #
loop $-1 -1 $-1 $-1 $142 $231 #
vertex $-1 -1 $-1 $230 $232 #
straight-curve $-1 -1 $-1 2.1349999999999993 2.96 0.11500000000000005 -0.39370078740157477 -8.8248673326525756e-017 -1.4963905477106539e-017 F 0 F 2.9210000000000003 #
coedge $-1 -1 $-1 $145 $144 $195 $233 reversed $146 $-1 #
edge $-1 -1 $-1 $234 0 $147 1.371599999999999 $144 $235 forward @7 unknown #
edge $-1 -1 $-1 $236 0 $148 1.3715999999999982 $175 $237 forward @7 unknown #
face $-1 -1 $-1 $227 $146 $2 $-1 $238 reversed single #
point $-1 -1 $-1 0.9849999999999991 2.9600000000000004 0.115 #
point $-1 -1 $-1 0.9849999999999991 2.9600000000000009 0.53499999999999992 #
face $-1 -1 $-1 $239 $240 $2 $-1 $241 forward single #
loop $-1 -1 $-1 $-1 $242 $150 #
plane-surface $-1 -1 $-1 3.1199999999999988 3.5000000000000004 0 1 9.9907583768293028e-017 0 0 0 -0.39370078740157477 forward_v I I I I #
loop $-1 -1 $-1 $-1 $243 $119 #
coedge $-1 -1 $-1 $244 $245 $185 $233 forward $151 $-1 #
coedge $-1 -1 $-1 $246 $153 $247 $248 reversed $120 $-1 #
coedge $-1 -1 $-1 $153 $246 $249 $250 forward $120 $-1 #
coedge $-1 -1 $-1 $251 $252 $153 $199 reversed $253 $-1 #
edge $-1 -1 $-1 $254 -8.8900000000000006 $255 0 $153 $256 forward @7 unknown #
face $-1 -1 $-1 $257 $258 $2 $-1 $259 forward single #
loop $-1 -1 $-1 $260 $208 $154 #
plane-surface $-1 -1 $-1 0.38999999999999896 0.39000000000000024 -0.12999999999999998 0 0 1 0.39370078740157477 0 0 forward_v I I I I #
loop $-1 -1 $-1 $-1 $261 $122 #
coedge $-1 -1 $-1 $204 $204 $262 $263 forward $155 $-1 #
coedge $-1 -1 $-1 $205 $205 $264 $265 reversed $157 $-1 #
coedge $-1 -1 $-1 $206 $206 $158 $207 forward $266 $-1 #
edge $-1 -1 $-1 $267 -3.1415926535897931 $267 3.1415926535897931 $206 $268 forward @7 unknown #
coedge $-1 -1 $-1 $208 $208 $159 $209 forward $201 $-1 #
edge $-1 -1 $-1 $269 0 $269 6.2831853071795862 $208 $270 forward @7 unknown #
loop $-1 -1 $-1 $266 $160 $170 #
vertex $-1 -1 $-1 $161 $271 #
ellipse-curve $-1 -1 $-1 0.38999999999999985 0.38999999999999951 0.64999999999999991 0 0 -1 -0.074999999999999997 0 0 1 I I #
loop $-1 -1 $-1 $272 $162 $257 #
vertex $-1 -1 $-1 $163 $273 #
ellipse-curve $-1 -1 $-1 0.38999999999999913 3.109999999999999 -0.12999999999999984 0 0 1 -0.074999999999999997 0 0 1 I I #
point $-1 -1 $-1 0.46499999999999919 3.109999999999999 0.64999999999999991 #
loop $-1 -1 $-1 $-1 $274 $218 #
face $-1 -1 $-1 $275 $167 $2 $-1 $276 reversed single #
point $-1 -1 $-1 2.6549999999999998 0.39000000000000018 -0.12999999999999998 #
plane-surface $-1 -1 $-1 1.5599999999999994 1.75 0.64999999999999991 0 0 1 0.39370078740157477 0 0 forward_v I I I I #
coedge $-1 -1 $-1 $277 $173 $176 $226 reversed $223 $-1 #
coedge $-1 -1 $-1 $173 $277 $180 $230 forward $223 $-1 #
loop $-1 -1 $-1 $-1 $173 $278 #
straight-curve $-1 -1 $-1 2.1349999999999993 2.9600000000000009 0.53499999999999992 0 0 -0.39370078740157477 F 0 F 1.0667999999999997 #
coedge $-1 -1 $-1 $176 $175 $245 $279 reversed $177 $-1 #
edge $-1 -1 $-1 $280 0 $178 1.371599999999999 $221 $281 forward @7 unknown #
face $-1 -1 $-1 $278 $177 $2 $-1 $282 reversed single #
point $-1 -1 $-1 2.1349999999999989 2.9600000000000009 0.53499999999999992 #
coedge $-1 -1 $-1 $181 $180 $244 $283 reversed $182 $-1 #
edge $-1 -1 $-1 $284 0 $183 1.3715999999999999 $180 $285 forward @7 unknown #
face $-1 -1 $-1 $90 $182 $2 $-1 $286 reversed single #
point $-1 -1 $-1 2.1349999999999993 2.9600000000000009 0.11500000000000005 #
edge $-1 -1 $-1 $236 -0.9461499999999996 $234 0.12065000000000037 $195 $287 forward @7 unknown #
vertex $-1 -1 $-1 $233 $288 #
straight-curve $-1 -1 $-1 0.98499999999999888 3.5 0.115 1.2747030591609275e-016 -0.39370078740157477 0 I I #
vertex $-1 -1 $-1 $233 $289 #
straight-curve $-1 -1 $-1 0.98499999999999888 3.5 0.53499999999999992 1.2747030591609275e-016 -0.39370078740157477 0 I I #
plane-surface $-1 -1 $-1 0.98499999999999888 3.5 0.32500000000000029 -1 -3.2377457702687564e-016 0 0 0 0.39370078740157477 forward_v I I I I #
face $-1 -1 $-1 $170 $290 $2 $-1 $291 reversed single #
loop $-1 -1 $-1 $-1 $292 $191 #
plane-surface $-1 -1 $-1 3.1199999999999992 0 0 0 -1 0 0 0 -0.39370078740157477 forward_v I I I I #
coedge $-1 -1 $-1 $293 $294 $295 $296 forward $192 $-1 #
coedge $-1 -1 $-1 $297 $247 $252 $298 forward $194 $-1 #
coedge $-1 -1 $-1 $299 $195 $229 $283 forward $151 $-1 #
coedge $-1 -1 $-1 $195 $299 $225 $279 forward $151 $-1 #
coedge $-1 -1 $-1 $197 $196 $300 $301 forward $120 $-1 #
coedge $-1 -1 $-1 $243 $302 $196 $248 forward $194 $-1 #
edge $-1 -1 $-1 $303 0 $255 1.651 $247 $304 forward @7 unknown #
coedge $-1 -1 $-1 $305 $292 $197 $250 reversed $240 $-1 #
edge $-1 -1 $-1 $306 0 $254 1.651 $197 $307 forward @7 unknown #
coedge $-1 -1 $-1 $295 $198 $292 $308 reversed $253 $-1 #
coedge $-1 -1 $-1 $198 $295 $243 $298 reversed $253 $-1 #
loop $-1 -1 $-1 $-1 $198 $170 #
vertex $-1 -1 $-1 $250 $309 #
vertex $-1 -1 $-1 $248 $310 #
straight-curve $-1 -1 $-1 -1.0715305595945801e-015 3.5 0.64999999999999991 -1.2053212143921035e-016 0.39370078740157477 0 F -8.8900000000000006 F 0 #
face $-1 -1 $-1 $311 $213 $2 $-1 $312 reversed single #
loop $-1 -1 $-1 $313 $314 $200 #
cone-surface $-1 -1 $-1 0.38999999999999896 3.1099999999999999 0 0 0 -1 0.17499999999999996 0 0 1 I I 0 1 0.17499999999999996 forward I I I I #
loop $-1 -1 $-1 $-1 $262 $154 #
coedge $-1 -1 $-1 $261 $261 $315 $316 reversed $203 $-1 #
coedge $-1 -1 $-1 $262 $262 $204 $263 reversed $260 $-1 #
edge $-1 -1 $-1 $317 -3.1415926535897931 $317 3.1415926535897931 $204 $318 forward @7 unknown #
coedge $-1 -1 $-1 $264 $264 $205 $265 forward $319 $-1 #
edge $-1 -1 $-1 $320 0 $320 6.2831853071795862 $264 $321 forward @7 unknown #
loop $-1 -1 $-1 $253 $206 $170 #
vertex $-1 -1 $-1 $207 $322 #
ellipse-curve $-1 -1 $-1 2.7299999999999991 3.1099999999999999 0.64999999999999991 0 0 -1 -0.074999999999999997 0 0 1 I I #
vertex $-1 -1 $-1 $209 $323 #
ellipse-curve $-1 -1 $-1 0.38999999999999985 0.38999999999999951 -0.12999999999999984 0 0 1 -0.074999999999999997 0 0 1 I I #
point $-1 -1 $-1 0.46499999999999991 0.38999999999999951 0.64999999999999991 #
loop $-1 -1 $-1 $-1 $324 $257 #
point $-1 -1 $-1 0.31499999999999911 3.109999999999999 -0.12999999999999998 #
coedge $-1 -1 $-1 $274 $274 $325 $326 reversed $217 $-1 #
face $-1 -1 $-1 $327 $328 $2 $-1 $329 forward single #
plane-surface $-1 -1 $-1 2.7299999999999991 0.39000000000000024 -0.12999999999999998 0 0 1 0.39370078740157477 0 0 forward_v I I I I #
coedge $-1 -1 $-1 $222 $221 $299 $330 reversed $223 $-1 #
face $-1 -1 $-1 $231 $223 $2 $-1 $331 reversed single #
edge $-1 -1 $-1 $280 -3.4417 $236 -0.52069999999999994 $245 $332 forward @7 unknown #
vertex $-1 -1 $-1 $279 $333 #
straight-curve $-1 -1 $-1 2.1349999999999989 3.5000000000000004 0.53499999999999992 1.2747030591609275e-016 -0.39370078740157477 0 I I #
plane-surface $-1 -1 $-1 1.5599999999999989 3.5000000000000004 0.53499999999999992 0 0 1 0.39370078740157477 0 0 forward_v I I I I #
edge $-1 -1 $-1 $234 0.52069999999999994 $284 3.4417 $244 $334 forward @7 unknown #
vertex $-1 -1 $-1 $330 $335 #
straight-curve $-1 -1 $-1 2.1349999999999989 3.5000000000000004 0.11500000000000005 1.2747030591609275e-016 -0.39370078740157477 0 I I #
plane-surface $-1 -1 $-1 1.5599999999999989 3.5000000000000004 0.115 3.8008319911850613e-017 1.2306127702961607e-032 -1 -0.39370078740157477 0 -1.4963905477106539e-017 forward_v I I I I #
straight-curve $-1 -1 $-1 0.98499999999999888 3.5 0.16250000000000014 0 0 -0.39370078740157477 I I #
point $-1 -1 $-1 0.98499999999999888 3.5 0.115 #
point $-1 -1 $-1 0.98499999999999888 3.5 0.53499999999999992 #
loop $-1 -1 $-1 $336 $315 $239 #
plane-surface $-1 -1 $-1 1.5599999999999994 1.75 0 0 0 1 0.39370078740157477 0 0 forward_v I I I I #
coedge $-1 -1 $-1 $249 $337 $251 $308 forward $240 $-1 #
coedge $-1 -1 $-1 $338 $242 $337 $339 reversed $192 $-1 #
coedge $-1 -1 $-1 $242 $338 $297 $340 forward $192 $-1 #
coedge $-1 -1 $-1 $252 $251 $242 $296 reversed $253 $-1 #
edge $-1 -1 $-1 $341 -8.8900000000000023 $342 0 $242 $343 forward @7 unknown #
coedge $-1 -1 $-1 $302 $243 $294 $340 reversed $194 $-1 #
edge $-1 -1 $-1 $255 -7.9248000000000003 $341 0 $243 $344 forward @7 unknown #
coedge $-1 -1 $-1 $245 $244 $277 $330 forward $151 $-1 #
coedge $-1 -1 $-1 $345 $346 $246 $301 reversed $347 $-1 #
edge $-1 -1 $-1 $303 0 $306 8.8900000000000006 $246 $348 forward @7 unknown #
coedge $-1 -1 $-1 $247 $297 $345 $349 forward $194 $-1 #
vertex $-1 -1 $-1 $349 $350 #
straight-curve $-1 -1 $-1 -1.0715305595945801e-015 3.5 0 0 0 0.39370078740157477 I I #
coedge $-1 -1 $-1 $337 $249 $346 $351 forward $240 $-1 #
vertex $-1 -1 $-1 $351 $352 #
straight-curve $-1 -1 $-1 0 0 0 0 0 0.39370078740157477 I I #
edge $-1 -1 $-1 $342 -7.9247999999999985 $254 0 $292 $353 forward @7 unknown #
point $-1 -1 $-1 0 0 0.64999999999999991 #
point $-1 -1 $-1 -1.0715305595945801e-015 3.5 0.64999999999999991 #
face $-1 -1 $-1 $218 $354 $2 $-1 $355 forward single #
plane-surface $-1 -1 $-1 0.38999999999999896 3.1099999999999999 -0.12999999999999998 0 0 1 0.39370078740157477 0 0 forward_v I I I I #
loop $-1 -1 $-1 $-1 $356 $200 #
coedge $-1 -1 $-1 $314 $314 $324 $357 forward $258 $-1 #
coedge $-1 -1 $-1 $315 $315 $261 $316 forward $290 $-1 #
edge $-1 -1 $-1 $358 -3.1415926535897931 $358 3.1415926535897931 $315 $359 forward @7 unknown #
vertex $-1 -1 $-1 $263 $360 #
ellipse-curve $-1 -1 $-1 0.38999999999999896 0.39000000000000024 -0.12999999999999998 0 0 1 0.16416557921704877 0 0 1 I I #
loop $-1 -1 $-1 $361 $264 $327 #
vertex $-1 -1 $-1 $265 $362 #
ellipse-curve $-1 -1 $-1 2.7299999999999991 3.1099999999999999 -0.12999999999999984 0 0 1 -0.074999999999999997 0 0 1 I I #
point $-1 -1 $-1 2.8049999999999988 3.1099999999999999 0.64999999999999991 #
point $-1 -1 $-1 0.31499999999999984 0.38999999999999951 -0.12999999999999998 #
coedge $-1 -1 $-1 $324 $324 $314 $357 reversed $272 $-1 #
coedge $-1 -1 $-1 $325 $325 $274 $326 forward $354 $-1 #
edge $-1 -1 $-1 $363 -3.1415926535897931 $363 3.1415926535897931 $325 $364 forward @7 unknown #
face $-1 -1 $-1 $188 $319 $2 $-1 $365 reversed single #
loop $-1 -1 $-1 $366 $367 $275 #
cone-surface $-1 -1 $-1 2.7299999999999991 3.1099999999999999 0 0 0 -1 0.17499999999999996 0 0 1 I I 0 1 0.17499999999999996 forward I I I I #
edge $-1 -1 $-1 $284 -0.12064999999999998 $280 0.94614999999999982 $299 $368 forward @7 unknown #
plane-surface $-1 -1 $-1 2.1349999999999989 3.5000000000000004 0.32500000000000007 1 3.2377457702687564e-016 0 0 0 -0.39370078740157477 forward_v I I I I #
straight-curve $-1 -1 $-1 0.77999999999999892 3.5 0.53499999999999992 -0.39370078740157477 -8.8248673326525756e-017 0 I I #
point $-1 -1 $-1 2.1349999999999989 3.5000000000000004 0.53499999999999992 #
straight-curve $-1 -1 $-1 0.77999999999999892 3.5 0.11499999999999996 0.39370078740157477 8.8248673326525756e-017 1.4963905477106539e-017 I I #
point $-1 -1 $-1 2.1349999999999989 3.5000000000000004 0.11500000000000005 #
loop $-1 -1 $-1 $369 $370 $239 #
coedge $-1 -1 $-1 $292 $305 $293 $339 forward $240 $-1 #
coedge $-1 -1 $-1 $294 $293 $371 $372 forward $192 $-1 #
edge $-1 -1 $-1 $373 0 $342 1.651 $337 $374 forward @7 unknown #
edge $-1 -1 $-1 $375 0 $341 1.651 $294 $376 forward @7 unknown #
vertex $-1 -1 $-1 $340 $377 #
vertex $-1 -1 $-1 $339 $378 #
straight-curve $-1 -1 $-1 3.1199999999999992 0 0.64999999999999991 3.9333694396965755e-017 -0.39370078740157477 0 F -8.8900000000000023 F 0 #
straight-curve $-1 -1 $-1 3.1199999999999988 3.5000000000000004 0.64999999999999991 0.39370078740157477 8.8248673326525756e-017 0 F -7.9248000000000003 F 0 #
coedge $-1 -1 $-1 $371 $300 $302 $349 reversed $347 $-1 #
coedge $-1 -1 $-1 $300 $371 $305 $351 reversed $347 $-1 #
loop $-1 -1 $-1 $-1 $346 $239 #
straight-curve $-1 -1 $-1 -1.0715305595945801e-015 3.5 0 1.2053212143921035e-016 -0.39370078740157477 0 F 0 F 8.8900000000000006 #
edge $-1 -1 $-1 $375 0 $303 7.9248000000000003 $302 $379 forward @7 unknown #
point $-1 -1 $-1 -1.0715305595945801e-015 3.5 0 #
edge $-1 -1 $-1 $306 0 $373 7.9247999999999985 $305 $380 forward @7 unknown #
point $-1 -1 $-1 0 0 0 #
straight-curve $-1 -1 $-1 0 0 0.64999999999999991 -0.39370078740157477 0 0 F -7.9247999999999985 F 0 #
loop $-1 -1 $-1 $381 $325 $311 #
cone-surface $-1 -1 $-1 2.7299999999999991 0.39000000000000024 0 0 0 -1 0.16416557921704877 0 0 1 I I 0 1 0.16416557921704877 forward I I I I #
coedge $-1 -1 $-1 $356 $356 $370 $382 reversed $313 $-1 #
edge $-1 -1 $-1 $383 -3.1415926535897931 $383 3.1415926535897931 $314 $384 forward @7 unknown #
vertex $-1 -1 $-1 $316 $385 #
ellipse-curve $-1 -1 $-1 0.38999999999999896 0.39000000000000024 0 0 0 1 0.16416557921704877 0 0 1 I I #
point $-1 -1 $-1 0.22583442078295018 0.39000000000000024 -0.12999999999999998 #
loop $-1 -1 $-1 $-1 $386 $327 #
point $-1 -1 $-1 2.6549999999999989 3.1099999999999999 -0.12999999999999998 #
vertex $-1 -1 $-1 $326 $387 #
ellipse-curve $-1 -1 $-1 2.7299999999999991 0.39000000000000024 -0.12999999999999998 0 0 1 0.16416557921704877 0 0 1 I I #
plane-surface $-1 -1 $-1 2.7299999999999991 3.1099999999999999 -0.12999999999999998 0 0 1 0.39370078740157477 0 0 forward_v I I I I #
loop $-1 -1 $-1 $-1 $388 $275 #
coedge $-1 -1 $-1 $367 $367 $386 $389 forward $328 $-1 #
straight-curve $-1 -1 $-1 2.1349999999999989 3.5000000000000004 0.16250000000000003 0 0 0.39370078740157477 I I #
loop $-1 -1 $-1 $390 $391 $239 #
coedge $-1 -1 $-1 $370 $370 $356 $382 forward $336 $-1 #
coedge $-1 -1 $-1 $346 $345 $338 $372 reversed $347 $-1 #
edge $-1 -1 $-1 $373 0 $375 8.8900000000000023 $338 $392 forward @7 unknown #
vertex $-1 -1 $-1 $351 $393 #
straight-curve $-1 -1 $-1 3.1199999999999992 0 0 0 0 0.39370078740157477 I I #
vertex $-1 -1 $-1 $372 $394 #
straight-curve $-1 -1 $-1 3.1199999999999988 3.5000000000000004 0 0 0 0.39370078740157477 I I #
point $-1 -1 $-1 3.1199999999999988 3.5000000000000004 0.64999999999999991 #
point $-1 -1 $-1 3.1199999999999992 0 0.64999999999999991 #
straight-curve $-1 -1 $-1 3.1199999999999988 3.5000000000000004 0 -0.39370078740157477 -8.8248673326525756e-017 0 F 0 F 7.9248000000000003 #
straight-curve $-1 -1 $-1 0 0 0 0.39370078740157477 0 0 F 0 F 7.9247999999999985 #
loop $-1 -1 $-1 $-1 $395 $311 #
edge $-1 -1 $-1 $396 -3.1415926535897931 $396 3.1415926535897931 $370 $397 forward @7 unknown #
vertex $-1 -1 $-1 $357 $398 #
ellipse-curve $-1 -1 $-1 0.38999999999999896 3.1099999999999999 -0.12999999999999998 0 0 1 0.17499999999999996 0 0 1 I I #
point $-1 -1 $-1 0.22583442078295018 0.39000000000000024 0 #
coedge $-1 -1 $-1 $386 $386 $367 $389 reversed $361 $-1 #
point $-1 -1 $-1 2.5658344207829504 0.39000000000000024 -0.12999999999999998 #
coedge $-1 -1 $-1 $388 $388 $399 $400 reversed $366 $-1 #
edge $-1 -1 $-1 $401 -3.1415926535897931 $401 3.1415926535897931 $367 $402 forward @7 unknown #
loop $-1 -1 $-1 $347 $399 $239 #
coedge $-1 -1 $-1 $391 $391 $395 $403 forward $369 $-1 #
straight-curve $-1 -1 $-1 3.1199999999999992 0 0 -3.9333694396965755e-017 0.39370078740157477 0 F 0 F 8.8900000000000023 #
point $-1 -1 $-1 3.1199999999999992 0 0 #
point $-1 -1 $-1 3.1199999999999988 3.5000000000000004 0 #
coedge $-1 -1 $-1 $395 $395 $391 $403 reversed $381 $-1 #
vertex $-1 -1 $-1 $382 $404 #
ellipse-curve $-1 -1 $-1 0.38999999999999896 3.1099999999999999 0 0 0 1 0.17499999999999996 0 0 1 I I #
point $-1 -1 $-1 0.21499999999999903 3.1099999999999999 -0.12999999999999998 #
coedge $-1 -1 $-1 $399 $399 $388 $400 forward $390 $-1 #
edge $-1 -1 $-1 $405 -3.1415926535897931 $405 3.1415926535897931 $399 $406 forward @7 unknown #
vertex $-1 -1 $-1 $389 $407 #
ellipse-curve $-1 -1 $-1 2.7299999999999991 3.1099999999999999 -0.12999999999999998 0 0 1 0.17499999999999996 0 0 1 I I #
edge $-1 -1 $-1 $408 -3.1415926535897931 $408 3.1415926535897931 $391 $409 forward @7 unknown #
point $-1 -1 $-1 0.21499999999999903 3.1099999999999999 0 #
vertex $-1 -1 $-1 $400 $410 #
ellipse-curve $-1 -1 $-1 2.7299999999999991 3.1099999999999999 0 0 0 1 0.17499999999999996 0 0 1 I I #
point $-1 -1 $-1 2.5549999999999993 3.1099999999999999 -0.12999999999999998 #
vertex $-1 -1 $-1 $403 $411 #
ellipse-curve $-1 -1 $-1 2.7299999999999991 0.39000000000000024 0 0 0 1 0.16416557921704877 0 0 1 I I #
point $-1 -1 $-1 2.5549999999999993 3.1099999999999999 0 #
point $-1 -1 $-1 2.5658344207829504 0.39000000000000024 0 #
End-of-ACIS-data 