400 0 1 0           
7 Unknown 11 ACIS 6.0 NT 24 Fri Jan 11 21:46:55 2002 
25.399999999999999 9.9999999999999995e-007 1e-010 
body $-1 $1 $-1 $-1 #
lump $-1 $-1 $2 $0 #
shell $-1 $-1 $-1 $3 $-1 $1 #
face $-1 $4 $5 $2 $-1 $6 forward single #
face $-1 $7 $8 $2 $-1 $9 reversed single #
loop $-1 $10 $11 $3 #
cone-surface $-1 0.51937325412539914 0.22711088866055909 1.7421849999999999 0 0 1 -0.35156500000000002 0 0 1 I I -0.70710678118654458 -0.70710678118655046 0.35156500000000002 forward I I I I #
face $-1 $12 $13 $2 $-1 $14 forward single #
loop $-1 $15 $16 $4 #
cone-surface $-1 0.51937325412539914 0.22711088866055909 -1.5477264895682297 0 0 1 0.34375 0 0 1 I I 0 1 0.34375 reversed I I I I #
loop $-1 $-1 $17 $3 #
coedge $-1 $11 $11 $18 $19 forward $5 $-1 #
face $-1 $20 $21 $2 $-1 $22 forward single #
loop $-1 $23 $24 $7 #
plane-surface $-1 0.51937325412539925 0.060444221993892454 1.75 0 0 1 0.39370078740157477 0 0 forward_v I I I I #
loop $-1 $-1 $18 $4 #
coedge $-1 $16 $16 $25 $26 reversed $8 $-1 #
coedge $-1 $17 $17 $27 $28 forward $10 $-1 #
coedge $-1 $18 $18 $11 $19 reversed $15 $-1 #
edge $-1 $29 $29 $18 $30 forward #
face $-1 $31 $32 $2 $-1 $33 reversed single #
loop $-1 $34 $25 $12 #
cone-surface $-1 0.51937325412539914 0.22711088866055909 0.0078149999999999921 0 0 -1 0.35156499999999996 0 0 1 I I -0.70710678118654757 -0.70710678118654757 0.35156499999999996 forward I I I I #
loop $-1 $-1 $27 $7 #
coedge $-1 $35 $36 $37 $38 reversed $13 $-1 #
coedge $-1 $25 $25 $16 $26 forward $21 $-1 #
edge $-1 $39 $39 $16 $40 forward #
coedge $-1 $27 $27 $17 $28 reversed $23 $-1 #
edge $-1 $41 $41 $27 $42 forward #
vertex $-1 $19 $43 #
ellipse-curve $-1 0.51937325412539914 0.22711088866055909 1.7343699999999997 0 0 -1 -0.34375 0 0 1 I I #
face $-1 $44 $45 $2 $-1 $46 forward single #
loop $-1 $47 $48 $20 #
plane-surface $-1 0.51937325412539925 0.060444221993892454 0 0 0 1 0.39370078740157477 0 0 forward_v I I I I #
loop $-1 $-1 $49 $12 #
coedge $-1 $50 $24 $51 $52 reversed $13 $-1 #
coedge $-1 $24 $53 $54 $55 reversed $13 $-1 #
coedge $-1 $56 $57 $24 $38 forward $58 $-1 #
edge $-1 $59 $60 $24 $61 forward #
vertex $-1 $26 $62 #
ellipse-curve $-1 0.51937325412539914 0.22711088866055909 0.015629999999999984 0 0 1 0.34375 0 0 1 I I #
vertex $-1 $28 $63 #
ellipse-curve $-1 0.51937325412539914 0.22711088866055909 1.75 0 0 1 -0.35938000000000003 0 0 1 I I #
point $-1 0.86312325412539903 0.22711088866055909 1.7343699999999997 #
face $-1 $64 $65 $2 $-1 $66 forward single #
loop $-1 $67 $68 $31 #
cone-surface $-1 1.4568732541253988 -0.1557041113394409 0.87490000000000001 0 1 0 -0.13281499999999999 -3.6061442545997844e-017 3.1428030518750217e-063 1 I I -0.70710678118654002 -0.7071067811865529 0.13281499999999999 forward I I I I #
loop $-1 $-1 $69 $20 #
coedge $-1 $70 $71 $72 $73 reversed $32 $-1 #
coedge $-1 $49 $49 $69 $74 forward $34 $-1 #
coedge $-1 $75 $35 $76 $77 reversed $13 $-1 #
coedge $-1 $78 $79 $35 $52 forward $80 $-1 #
edge $-1 $81 $59 $51 $82 forward #
coedge $-1 $36 $83 $84 $85 reversed $13 $-1 #
coedge $-1 $86 $87 $36 $55 forward $88 $-1 #
edge $-1 $60 $89 $54 $90 forward #
coedge $-1 $72 $37 $87 $91 reversed $58 $-1 #
coedge $-1 $37 $72 $78 $92 reversed $58 $-1 #
loop $-1 $-1 $37 $93 #
vertex $-1 $38 $94 #
vertex $-1 $38 $95 #
ellipse-curve $-1 0.51937325412539925 0.22711088866055912 1.75 0 0 -1 0.44194173824159211 0.44194173824159227 0 1 I I #
point $-1 0.17562325412539914 0.22711088866055909 0.015629999999999984 #
point $-1 0.87875325412539917 0.22711088866055909 1.75 #
face $-1 $96 $97 $2 $-1 $98 reversed single #
loop $-1 $99 $100 $44 #
plane-surface $-1 1.1443732541253993 -0.14788911133944088 0 -4.1961185182683096e-016 1 0 0 0 0.39370078740157477 forward_v I I I I #
loop $-1 $-1 $101 $31 #
coedge $-1 $68 $68 $102 $103 forward $45 $-1 #
coedge $-1 $69 $69 $49 $74 reversed $47 $-1 #
coedge $-1 $104 $48 $105 $106 reversed $32 $-1 #
coedge $-1 $48 $107 $108 $109 reversed $32 $-1 #
coedge $-1 $57 $56 $48 $73 forward $58 $-1 #
edge $-1 $110 $111 $48 $112 forward #
edge $-1 $113 $113 $69 $114 forward #
coedge $-1 $115 $50 $116 $117 reversed $13 $-1 #
coedge $-1 $118 $119 $50 $77 forward $120 $-1 #
edge $121 $122 $81 $76 $123 forward #
coedge $-1 $108 $51 $57 $92 forward $80 $-1 #
coedge $-1 $51 $124 $118 $125 forward $80 $-1 #
loop $-1 $-1 $124 $126 #
vertex $-1 $77 $127 #
ellipse-curve $-1 -0.4806267458746008 0.22711088866055903 1.75 0 0 1 0.26516504294495535 -0.2651650429449553 0 1 I I #
coedge $-1 $53 $115 $128 $129 reversed $13 $-1 #
coedge $-1 $130 $131 $53 $85 forward $65 $-1 #
edge $-1 $89 $132 $84 $133 forward #
coedge $-1 $134 $54 $131 $135 forward $88 $-1 #
coedge $-1 $54 $105 $56 $91 forward $88 $-1 #
loop $-1 $-1 $134 $136 #
vertex $-1 $85 $137 #
ellipse-curve $-1 1.5193732541253993 0.22711088866055931 1.75 0 0 1 -0.26516504294495519 -0.26516504294495535 0 1 I I #
edge $-1 $110 $60 $87 $138 forward #
edge $-1 $59 $111 $78 $139 forward #
face $-1 $136 $58 $2 $-1 $140 forward single #
point $-1 -0.10562674587460079 0.22711088866055903 1.75 #
point $-1 1.1443732541253993 0.2271108886605592 1.75 #
face $-1 $141 $142 $2 $-1 $143 forward single #
loop $-1 $144 $145 $64 #
cone-surface $-1 1.4568732541253986 2.8212749634708691 0.87490000000000001 1.0490296295670768e-016 -1 -6.3992389214808301e-031 0.12499999999999999 1.311287036958846e-017 -2.9578766064403705e-063 1 I I 0 1 0.12499999999999999 reversed I I I I #
loop $-1 $-1 $146 $44 #
coedge $-1 $131 $147 $148 $149 reversed $65 $-1 #
coedge $-1 $101 $101 $146 $150 forward $67 $-1 #
coedge $-1 $102 $102 $68 $103 reversed $144 $-1 #
edge $-1 $151 $151 $102 $152 forward #
coedge $-1 $153 $70 $154 $155 reversed $32 $-1 #
coedge $-1 $87 $156 $70 $106 forward $88 $-1 #
edge $-1 $157 $110 $105 $158 forward #
coedge $-1 $71 $159 $160 $161 reversed $32 $-1 #
coedge $-1 $162 $78 $71 $109 forward $80 $-1 #
edge $-1 $111 $163 $108 $164 forward #
vertex $-1 $73 $165 #
vertex $-1 $73 $166 #
ellipse-curve $-1 0.51937325412539914 0.22711088866055912 0 0 0 1 -0.44194173824159211 0.44194173824159211 0 1 I I #
vertex $-1 $74 $167 #
ellipse-curve $-1 0.51937325412539914 0.22711088866055909 0 0 0 -1 0.35937999999999998 0 0 1 I I #
coedge $-1 $83 $75 $168 $169 reversed $13 $-1 #
coedge $-1 $170 $171 $75 $117 forward $172 $-1 #
edge $-1 $173 $122 $116 $174 forward #
coedge $-1 $175 $76 $79 $125 reversed $120 $-1 #
coedge $-1 $76 $160 $170 $176 forward $120 $-1 #
loop $-1 $177 $178 $141 #
convexity-sys-attrib $-1 $-1 $-1 $77 #
vertex $-1 $176 $179 #
straight-curve $-1 -0.10562674587460079 -0.14788911133944094 1.75 0.39370078740157477 -2.7533586077876041e-017 0 F -1.5874999999999999 F 0 #
coedge $-1 $79 $162 $180 $181 forward $80 $-1 #
edge $-1 $182 $81 $118 $183 forward #
face $-1 $184 $80 $2 $-1 $185 forward single #
point $-1 -0.4806267458746008 -0.14788911133944091 1.75 #
coedge $-1 $186 $187 $83 $129 forward $188 $-1 #
edge $-1 $132 $189 $128 $190 forward #
coedge $-1 $154 $84 $187 $191 reversed $65 $-1 #
coedge $-1 $84 $100 $86 $135 reversed $65 $-1 #
vertex $-1 $191 $192 #
straight-curve $-1 1.769373254125399 -0.14788911133944063 1.75 0.39370078740157477 1.6520151646725626e-016 0 F -1.5874999999999995 F 0 #
coedge $-1 $156 $86 $193 $194 forward $88 $-1 #
edge $-1 $89 $195 $131 $196 forward #
face $-1 $126 $88 $2 $-1 $197 forward single #
point $-1 1.5193732541253995 -0.14788911133944074 1.75 #
straight-curve $-1 1.1443732541253993 0.2271108886605592 0 0 0 0.39370078740157477 F -2.9527510000000001 F 7.3977510000000004 #
straight-curve $-1 -0.10562674587460079 0.22711088866055903 0 0 0 -0.39370078740157477 F -7.3977510000000004 F 2.9527510000000001 #
cone-surface $-1 0.51937325412539914 0.22711088866055912 0 0 0 1 -0.44194173824159211 0.44194173824159211 0 1 I I 0 1 0.62499999999999978 forward I I I I #
face $-1 $198 $120 $2 $-1 $199 forward single #
loop $-1 $200 $201 $96 #
cone-surface $-1 -0.41812674587460075 -0.15570411133944098 0.87490000000000001 0 1 0 0.13281500000000002 1.6389339579269585e-018 -3.1428030518750233e-063 1 I I -0.70710678118654546 -0.70710678118654846 0.13281500000000002 forward I I I I #
loop $-1 $-1 $102 $64 #
coedge $-1 $145 $145 $202 $203 reversed $97 $-1 #
coedge $-1 $146 $146 $101 $150 reversed $99 $-1 #
coedge $-1 $100 $154 $156 $204 reversed $65 $-1 #
coedge $-1 $193 $193 $100 $149 forward $205 $-1 #
edge $-1 $195 $206 $100 $207 forward #
edge $-1 $208 $208 $146 $209 forward #
vertex $-1 $103 $210 #
ellipse-curve $-1 1.4568732541253988 -0.16351911133944105 0.87490000000000001 4.1961185182683096e-016 -1 0 -0.12499999999999999 -1.311287036958846e-017 2.9578766064403705e-063 1 I I #
coedge $-1 $211 $104 $212 $213 reversed $32 $-1 #
coedge $-1 $147 $130 $104 $155 forward $65 $-1 #
edge $214 $215 $157 $154 $216 forward #
coedge $-1 $105 $134 $147 $204 forward $88 $-1 #
vertex $-1 $155 $217 #
ellipse-curve $-1 1.5193732541253993 0.22711088866055931 0 0 0 -1 -0.26516504294495519 -0.26516504294495535 0 1 I I #
coedge $-1 $107 $211 $218 $219 reversed $32 $-1 #
coedge $-1 $119 $178 $107 $161 forward $120 $-1 #
edge $-1 $163 $220 $160 $221 forward #
coedge $-1 $124 $108 $178 $222 forward $80 $-1 #
vertex $-1 $161 $223 #
ellipse-curve $-1 -0.4806267458746008 0.22711088866055903 0 0 0 -1 0.26516504294495535 -0.2651650429449553 0 1 I I #
point $-1 1.1443732541253993 0.2271108886605592 0 #
point $-1 -0.10562674587460079 0.22711088866055903 0 #
point $-1 0.15999325412539914 0.22711088866055909 0 #
coedge $-1 $224 $225 $115 $169 forward $226 $-1 #
edge $-1 $189 $173 $168 $227 forward #
coedge $-1 $218 $116 $119 $176 reversed $172 $-1 #
coedge $-1 $116 $228 $224 $229 forward $172 $-1 #
loop $-1 $-1 $116 $184 #
vertex $-1 $229 $230 #
straight-curve $-1 -0.73062674587460075 -0.14788911133944088 1.75 0 0.39370078740157477 0 F -0.63500000000000023 F 0 #
coedge $-1 $178 $118 $231 $232 reversed $120 $-1 #
edge $-1 $220 $122 $119 $233 forward #
loop $-1 $-1 $234 $141 #
coedge $-1 $160 $175 $162 $222 reversed $120 $-1 #
point $-1 -0.73062674587460075 -0.14788911133944088 1.75 #
coedge $-1 $231 $231 $124 $181 reversed $235 $-1 #
edge $-1 $236 $182 $124 $237 forward #
vertex $-1 $125 $238 #
straight-curve $-1 -0.4806267458746008 -0.14788911133944088 0 0 0 0.39370078740157477 F -2.9527510000000001 F 7.3977510000000004 #
face $-1 $239 $172 $2 $-1 $240 forward single #
cone-surface $-1 -0.4806267458746008 0.22711088866055903 0 0 0 1 0.26516504294495535 -0.2651650429449553 0 1 I I 0 -1 0.375 forward I I I I #
coedge $-1 $241 $128 $225 $242 reversed $188 $-1 #
coedge $-1 $128 $212 $130 $191 forward $188 $-1 #
loop $-1 $-1 $128 $239 #
vertex $-1 $242 $243 #
straight-curve $-1 1.769373254125399 -0.39788911133944072 1.75 0 -0.39370078740157477 0 F -0.63500000000000023 F 0 #
edge $-1 $215 $132 $187 $244 forward #
point $-1 1.769373254125399 -0.14788911133944063 1.75 #
coedge $-1 $148 $148 $134 $194 reversed $205 $-1 #
edge $-1 $195 $206 $134 $245 forward #
vertex $-1 $135 $246 #
straight-curve $-1 1.5193732541253995 -0.14788911133944072 0 0 0 -0.39370078740157477 F -7.3977510000000004 F 2.9527510000000001 #
cone-surface $-1 1.5193732541253993 0.22711088866055931 0 0 0 1 -0.26516504294495519 -0.26516504294495535 0 1 I I 0 -1 0.37499999999999994 forward I I I I #
face $-1 $247 $248 $2 $-1 $249 reversed single #
plane-surface $-1 -0.73062674587460075 -0.14788911133944088 0 6.9935308637805148e-017 1 0 0 0 0.39370078740157477 forward_v I I I I #
loop $-1 $-1 $250 $96 #
coedge $-1 $201 $201 $251 $252 forward $142 $-1 #
coedge $-1 $202 $202 $145 $203 forward $253 $-1 #
edge $-1 $254 $254 $202 $255 forward #
edge $-1 $206 $157 $147 $196 forward #
loop $-1 $-1 $193 $256 #
vertex $-1 $204 $257 #
ellipse-curve $-1 1.4568732541253988 -0.14788911133944077 0.87490000000000001 4.1961185182683096e-016 -1 0 0.25590551181102361 1.0738098570371659e-016 0 1 I I #
vertex $-1 $150 $258 #
ellipse-curve $-1 1.4568732541253988 -0.14788911133944077 0.87490000000000001 -4.1961185182683096e-016 1 0 -0.14063000000000001 -5.9010014722407237e-017 3.3277294973096744e-063 1 I I #
point $-1 1.5818732541253988 -0.16351911133944103 0.87490000000000001 #
coedge $-1 $159 $153 $259 $260 reversed $32 $-1 #
coedge $-1 $187 $261 $153 $213 forward $188 $-1 #
edge $-1 $262 $215 $212 $263 forward #
convexity-sys-attrib $-1 $-1 $-1 $155 #
vertex $-1 $213 $264 #
straight-curve $-1 1.769373254125399 -0.14788911133944063 0 -0.39370078740157477 -1.6520151646725626e-016 0 F 0 F 1.5874999999999995 #
point $-1 1.5193732541253995 -0.14788911133944074 0 #
coedge $-1 $265 $170 $159 $219 forward $172 $-1 #
edge $-1 $220 $266 $218 $267 forward #
vertex $-1 $161 $268 #
straight-curve $-1 -0.10562674587460079 -0.14788911133944094 0 -0.39370078740157477 2.7533586077876041e-017 0 F 0 F 1.5874999999999999 #
edge $-1 $163 $236 $178 $183 forward #
point $-1 -0.4806267458746008 -0.14788911133944091 0 #
coedge $-1 $269 $168 $171 $229 reversed $226 $-1 #
coedge $-1 $168 $269 $186 $242 forward $226 $-1 #
loop $-1 $-1 $269 $270 #
straight-curve $-1 -0.73062674587460075 -0.39788911133944094 1.75 -0.39370078740157477 -4.130037911681406e-017 0 F -6.3499999999999996 F 0 #
coedge $-1 $171 $271 $272 $273 reversed $172 $-1 #
edge $-1 $274 $173 $171 $275 forward #
point $-1 -0.73062674587460075 -0.39788911133944094 1.75 #
coedge $-1 $180 $180 $175 $232 forward $235 $-1 #
edge $-1 $236 $182 $175 $276 forward #
straight-curve $-1 -0.73062674587460075 -0.14788911133944088 0 0 0 0.39370078740157477 I I #
coedge $-1 $234 $234 $250 $277 reversed $177 $-1 #
loop $-1 $-1 $180 $247 #
vertex $-1 $222 $278 #
intcurve-curve $-1 forward { surfintcur nubs 3 open 13 
	0.84016441409066855 3 0.99723392964167334 2 1.2719658668932823 2 1.5466978041448911 2 1.8162355174431415 2 
	1.9510043740922667 2 2.0857732307413919 2 2.2205420873905171 2 2.3553109440396423 2 2.6248486573378926 2 
	2.8995805945895015 2 3.1743125318411103 2 3.3313820473921147 3 
	-0.4806267458746008 -0.14788911133944088 0.62674403900921116 
	-0.45975466891256245 -0.14788911133944088 0.62148724483461615 
	-0.4384512381207194 -0.14607956400256777 0.6189944881889764 
	-0.38257696329047913 -0.13663508778203817 0.6189944881889764 
	-0.34661034668815083 -0.12490876673324144 0.62675181429994264 
	-0.28310187852892704 -0.093610408011362459 0.65476277153434137 
	-0.25548248715678823 -0.074125255581694791 0.67493750439113565 
	-0.21304914078537884 -0.037095673129853693 0.71886882354426729 
	-0.1947754878457936 -0.016507934418232881 0.74578733627991567 
	-0.17581463127373689 0.0084248333544771903 0.79099809845915792 
	-0.17084661796400516 0.015688494284533436 0.80688802361741763 
	-0.16405136292727365 0.026005982100136937 0.83998882236251171 
	-0.16222123406357711 0.029012604850829744 0.85721379834000977 
	-0.16222123406357711 0.029012604850829744 0.89258620165999025 
	-0.16405136292727365 0.026005982100136937 0.90981117763748831 
	-0.17084661796400516 0.015688494284533436 0.9429119763825824 
	-0.17581463127373689 0.0084248333544772354 0.95880190154084211 
	-0.1947754878457936 -0.016507934418232825 1.0040126637200841 
	-0.21304914078537884 -0.037095673129853693 1.0309311764557325 
	-0.25548248715678823 -0.074125255581694804 1.0748624956088644 
	-0.2831018785289271 -0.093610408011362445 1.0950372284656587 
	-0.34661034668815088 -0.1249087667332414 1.1230481857000574 
	-0.38257696329047913 -0.13663508778203817 1.1308055118110236 
	-0.4384512381207194 -0.14607956400256777 1.1308055118110236 
	-0.45975466891256261 -0.14788911133944088 1.1283127551653838 
	-0.4806267458746008 -0.14788911133944088 1.1230559609907889 
	0.00014769071251331646 
	cone -0.41812674587460047 3.201274963470869 0.87490000000000001 6.9935308637805148e-017 1 0 0.25590551181102361 -1.7896830950619428e-017 0 1 I I 0 1 0.25590551181102361 forward I I I I 
	cone -0.4806267458746008 0.22711088866055903 0 0 0 1 0.26516504294495535 -0.2651650429449553 0 1 I I 0 -1 0.375 forward I I I I 
	nullbs 
	nullbs 
	I I 
	0 
	0 
	0 
	} I I #
point $-1 -0.4806267458746008 -0.14788911133944088 1.1230559609907889 #
face $-1 $-1 $188 $2 $-1 $279 forward single #
plane-surface $-1 -0.73062674587460075 -0.39788911133944094 0 -1 0 0 0 0 0.39370078740157477 forward_v I I I I #
coedge $-1 $280 $186 $281 $282 forward $188 $-1 #
edge $-1 $283 $189 $225 $284 forward #
point $-1 1.769373254125399 -0.39788911133944072 1.75 #
straight-curve $-1 1.769373254125399 -0.14788911133944063 0 0 0 0.39370078740157477 I I #
intcurve-curve $-1 forward { surfintcur nubs 3 open 13 
	-1.2456088166507244 3 -1.0885393010997197 2 -0.81380736384811048 2 -0.53907542659650165 2 -0.26953771329825083 2 
	-0.13476885664912519 2 0 3 0.13476885664912533 2 0.26953771329825066 2 0.53907542659650132 2 
	0.81380736384811025 2 1.0885393010997193 2 1.2456088166507242 3 
	1.5193732541253995 -0.14788911133944088 1.1230559609907886 
	1.498501177163361 -0.14788911133944088 1.1283127551653838 
	1.4771977463715178 -0.14607956400256736 1.1308055118110236 
	1.4213234715412775 -0.1366350877820377 1.1308055118110236 
	1.3853568549389492 -0.12490876673324114 1.1230481857000576 
	1.3218483867797253 -0.093610408011362084 1.0950372284656589 
	1.2942289954075865 -0.074125255581694291 1.0748624956088644 
	1.251795649036177 -0.037095673129853124 1.0309311764557325 
	1.2335219960965917 -0.016507934418232239 1.0040126637200844 
	1.214561139524535 0.0084248333544779622 0.95880190154084211 
	1.2095931262148034 0.015688494284533935 0.9429119763825824 
	1.2027978711780718 0.026005982100137496 0.90981117763748842 
	1.2009677423143752 0.029012604850830445 0.89258620165999025 
	1.2009677423143752 0.029012604850830445 0.87490000000000001 
	1.2009677423143752 0.029012604850830445 0.85721379834000977 
	1.2027978711780718 0.026005982100137583 0.83998882236251149 
	1.2095931262148034 0.01568849428453398 0.80688802361741763 
	1.214561139524535 0.0084248333544780958 0.79099809845915792 
	1.233521996096592 -0.016507934418232017 0.74578733627991556 
	1.2517956490361772 -0.037095673129853138 0.7188688235442674 
	1.2942289954075867 -0.074125255581694319 0.67493750439113565 
	1.3218483867797255 -0.09361040801136207 0.65476277153434104 
	1.3853568549389492 -0.12490876673324106 0.62675181429994253 
	1.4213234715412775 -0.1366350877820377 0.6189944881889764 
	1.4771977463715178 -0.14607956400256736 0.6189944881889764 
	1.4985011771633612 -0.14788911133944088 0.62148724483461626 
	1.5193732541253995 -0.14788911133944088 0.62674403900921116 
	0.00014769071251324121 
	cone 1.4568732541253975 3.201274963470869 0.87490000000000001 -4.1961185182683096e-016 1 0 0.25590551181102361 1.0738098570371659e-016 0 1 I I 0 1 0.25590551181102361 forward I I I I 
	cone 1.5193732541253993 0.22711088866055931 0 0 0 1 -0.26516504294495519 -0.26516504294495535 0 1 I I 0 -1 0.37499999999999994 forward I I I I 
	nullbs 
	nullbs 
	I I 
	0 
	0 
	0 
	} I I #
point $-1 1.5193732541253995 -0.14788911133944088 1.1230559609907886 #
face $-1 $256 $235 $2 $-1 $285 reversed single #
loop $-1 $286 $287 $198 #
cone-surface $-1 -0.41812674587460108 2.8212749634708691 0.87490000000000001 1.0490296295670768e-016 -1 -6.3992389214808301e-031 0.12499999999999999 1.311287036958846e-017 -2.9578766064403705e-063 1 I I 0 1 0.12499999999999999 reversed I I I I #
coedge $-1 $250 $250 $234 $277 forward $200 $-1 #
coedge $-1 $251 $251 $201 $252 reversed $286 $-1 #
edge $-1 $288 $288 $251 $289 forward #
loop $-1 $290 $202 $291 #
vertex $-1 $203 $292 #
ellipse-curve $-1 1.4568732541253988 -0.52788911133944094 0.87490000000000001 -1.0490296295670768e-016 1 6.3992389214808301e-031 0.12499999999999999 1.311287036958846e-017 -2.9578766064403705e-063 1 I I #
face $-1 $293 $205 $2 $-1 $294 reversed single #
point $-1 1.5193732541253995 -0.14788911133944088 0.62674403900921116 #
point $-1 1.5975032541253991 -0.14788911133944069 0.87490000000000001 #
coedge $-1 $295 $296 $211 $260 forward $297 $-1 #
edge $-1 $266 $262 $259 $298 forward #
coedge $-1 $212 $299 $295 $300 reversed $188 $-1 #
vertex $-1 $213 $301 #
straight-curve $-1 1.769373254125399 -0.39788911133944072 0 0 0.39370078740157477 0 F 0 F 0.63500000000000023 #
point $-1 1.769373254125399 -0.14788911133944063 0 #
coedge $-1 $302 $218 $296 $303 forward $172 $-1 #
vertex $-1 $219 $304 #
straight-curve $-1 -0.73062674587460075 -0.14788911133944088 0 0 -0.39370078740157477 0 F 0 F 0.63500000000000023 #
point $-1 -0.73062674587460075 -0.14788911133944088 0 #
coedge $-1 $225 $224 $305 $306 forward $226 $-1 #
face $-1 $307 $226 $2 $-1 $308 forward single #
coedge $-1 $228 $302 $309 $310 forward $172 $-1 #
coedge $-1 $311 $305 $228 $273 forward $312 $-1 #
edge $-1 $274 $313 $272 $314 forward #
vertex $-1 $229 $315 #
straight-curve $-1 -0.73062674587460075 -0.39788911133944094 0 0 0 0.39370078740157477 I I #
ellipse-curve $-1 -0.41812674587460075 -0.14788911133944091 0.87490000000000001 -6.9935308637805148e-017 -1 0 0.25590551181102361 -1.7896830950619428e-017 0 1 I I #
edge $-1 $316 $316 $234 $317 forward #
point $-1 -0.4806267458746008 -0.14788911133944088 0.62674403900921116 #
plane-surface $-1 1.769373254125399 -0.14788911133944063 0 1 0 0 0 0 -0.39370078740157477 forward_v I I I I #
coedge $-1 $299 $241 $318 $319 forward $188 $-1 #
coedge $-1 $305 $311 $241 $282 reversed $312 $-1 #
edge $-1 $283 $320 $241 $321 forward #
vertex $-1 $242 $322 #
straight-curve $-1 1.769373254125399 -0.39788911133944072 0 0 0 0.39370078740157477 I I #
cone-surface $-1 -0.41812674587460047 3.201274963470869 0.87490000000000001 6.9935308637805148e-017 1 0 0.25590551181102361 -1.7896830950619428e-017 0 1 I I 0 1 0.25590551181102361 forward I I I I #
loop $-1 $-1 $251 $198 #
coedge $-1 $287 $287 $323 $324 reversed $248 $-1 #
vertex $-1 $252 $325 #
ellipse-curve $-1 -0.41812674587460075 -0.16351911133944105 0.87490000000000001 -6.9935308637805148e-017 -1 0 0.12499999999999999 1.311287036958846e-017 -2.9578766064403705e-063 1 I I #
loop $-1 $-1 $326 $291 #
face $-1 $270 $327 $2 $-1 $328 reversed single #
point $-1 1.5818732541253988 -0.52788911133944072 0.87490000000000001 #
face $-1 $329 $312 $2 $-1 $330 forward single #
cone-surface $-1 1.4568732541253975 3.201274963470869 0.87490000000000001 -4.1961185182683096e-016 1 0 0.25590551181102361 1.0738098570371659e-016 0 1 I I 0 1 0.25590551181102361 forward I I I I #
coedge $-1 $331 $259 $261 $300 forward $297 $-1 #
coedge $-1 $259 $331 $265 $303 reversed $297 $-1 #
loop $-1 $-1 $331 $307 #
straight-curve $-1 -0.73062674587460075 -0.39788911133944094 0 0.39370078740157477 4.130037911681406e-017 0 F 0 F 6.3499999999999996 #
coedge $-1 $261 $280 $332 $333 reversed $188 $-1 #
edge $-1 $262 $334 $295 $284 forward #
point $-1 1.769373254125399 -0.39788911133944072 0 #
coedge $-1 $271 $265 $335 $336 forward $172 $-1 #
edge $-1 $266 $337 $265 $275 forward #
point $-1 -0.73062674587460075 -0.39788911133944094 0 #
coedge $-1 $272 $281 $269 $306 reversed $312 $-1 #
edge $-1 $274 $283 $269 $338 forward #
face $-1 $93 $297 $2 $-1 $308 forward single #
plane-surface $-1 1.769373254125399 -0.39788911133944072 0 1.0490296295670772e-016 -1 0 0 0 -0.39370078740157477 forward_v I I I I #
coedge $-1 $339 $326 $271 $310 reversed $290 $-1 #
edge $-1 $340 $313 $271 $341 forward #
coedge $-1 $281 $272 $326 $342 forward $312 $-1 #
loop $-1 $-1 $311 $293 #
vertex $-1 $273 $343 #
straight-curve $-1 -0.73062674587460075 -0.39788911133944094 1.0716999999999999 0 -0.39370078740157477 0 I I #
point $-1 -0.73062674587460075 -0.39788911133944094 1.0716999999999999 #
vertex $-1 $277 $344 #
ellipse-curve $-1 -0.41812674587460075 -0.14788911133944091 0.87490000000000001 6.9935308637805148e-017 1 0 0.14063000000000006 -9.835002453734542e-018 -3.3277294973096761e-063 1 I I #
coedge $-1 $326 $339 $280 $319 reversed $290 $-1 #
edge $-1 $320 $345 $280 $346 forward #
vertex $-1 $282 $347 #
straight-curve $-1 1.769373254125399 -0.39788911133944072 1.0716999999999999 0 -0.39370078740157477 0 I I #
point $-1 1.769373254125399 -0.39788911133944072 1.0716999999999999 #
coedge $-1 $323 $323 $287 $324 forward $327 $-1 #
edge $-1 $348 $348 $323 $349 forward #
point $-1 -0.54312674587460075 -0.16351911133944108 0.87490000000000001 #
coedge $-1 $309 $318 $311 $342 reversed $290 $-1 #
loop $-1 $253 $323 $291 #
plane-surface $-1 0.51937325412539914 -0.52788911133944083 0.87484960629921249 -1.0490296295670768e-016 1 6.3992389214808301e-031 0 -2.519385402157807e-031 0.39370078740157477 forward_v I I I I #
face $-1 $291 $350 $2 $-1 $351 forward single #
plane-surface $-1 -0.73062674587460075 -0.39788911133944094 1.0716999999999999 0 0 1 0.39370078740157477 0 0 forward_v I I I I #
coedge $-1 $296 $295 $352 $353 forward $297 $-1 #
coedge $-1 $354 $352 $299 $333 forward $350 $-1 #
edge $-1 $334 $345 $332 $355 forward #
vertex $-1 $300 $356 #
coedge $-1 $352 $354 $302 $336 reversed $350 $-1 #
edge $-1 $337 $340 $302 $357 forward #
vertex $-1 $336 $358 #
straight-curve $-1 0.51937325412539914 -0.39788911133944077 1.0716999999999999 0.39370078740157477 4.130037911681406e-017 0 I I #
coedge $-1 $318 $309 $354 $359 reversed $290 $-1 #
vertex $-1 $336 $360 #
straight-curve $-1 -0.73062674587460075 -0.52788911133944094 1.0716999999999999 -7.2319272863526191e-017 -7.5865060022585257e-033 0.39370078740157477 F -1 F 0 #
edge $-1 $313 $320 $311 $361 forward #
point $-1 -0.73062674587460075 -0.52788911133944094 1.0716999999999999 #
point $-1 -0.55875674587460078 -0.14788911133944091 0.87490000000000001 #
vertex $-1 $333 $362 #
straight-curve $-1 1.769373254125399 -0.52788911133944072 0.67799921259842555 0 0 -0.39370078740157477 F -0.99999999999999911 F 0 #
point $-1 1.769373254125399 -0.52788911133944061 1.0716999999999999 #
vertex $-1 $324 $363 #
ellipse-curve $-1 -0.41812674587460075 -0.52788911133944094 0.87490000000000001 -1.0490296295670768e-016 1 6.3992389214808301e-031 0.12499999999999999 1.311287036958846e-017 -2.9578766064403705e-063 1 I I #
loop $-1 $-1 $354 $329 #
plane-surface $-1 1.769373254125399 -0.39788911133944072 0.67799921259842555 1.398706172756103e-016 0 -1 -0.39370078740157477 0 -5.5067172155752081e-017 forward_v I I I I #
coedge $-1 $332 $335 $331 $353 reversed $350 $-1 #
edge $-1 $334 $337 $331 $364 forward #
coedge $-1 $335 $332 $339 $359 forward $350 $-1 #
straight-curve $-1 1.769373254125399 -0.39788911133944072 0.67799921259842555 0 -0.39370078740157477 0 I I #
point $-1 1.769373254125399 -0.39788911133944072 0.67799921259842555 #
straight-curve $-1 -0.73062674587460075 -0.39788911133944094 0.67799921259842511 0 -0.39370078740157477 0 I I #
point $-1 -0.73062674587460075 -0.39788911133944094 0.67799921259842511 #
edge $-1 $345 $340 $354 $365 forward #
point $-1 -0.73062674587460075 -0.52788911133944094 0.67799921259842511 #
straight-curve $-1 1.769373254125399 -0.52788911133944072 1.0716999999999999 0.39370078740157477 4.130037911681406e-017 0 F -6.3499999999999996 F 0 #
point $-1 1.769373254125399 -0.52788911133944061 0.67799921259842555 #
point $-1 -0.29312674587460069 -0.52788911133944083 0.87490000000000001 #
straight-curve $-1 1.769373254125399 -0.39788911133944072 0.67799921259842555 -0.39370078740157477 -4.130037911681406e-017 -5.5067172155752081e-017 I I #
straight-curve $-1 -0.73062674587460075 -0.52788911133944094 0.67799921259842511 -0.39370078740157477 -4.130037911681406e-017 -5.5067172155752081e-017 F -6.3499999999999996 F 0 #
End-of-ACIS-data 