400 0 1 0           
7 Unknown 11 ACIS 6.0 NT 24 Fri Dec 07 20:07:19 2001 
1 9.9999999999999995e-007 1e-010 
body $-1 $1 $-1 $-1 #
lump $-1 $-1 $2 $0 #
shell $-1 $-1 $-1 $3 $-1 $1 #
face $-1 $4 $5 $2 $-1 $6 forward single #
face $-1 $7 $8 $2 $-1 $9 reversed single #
loop $-1 $-1 $10 $3 #
cone-surface $-1 5.9999999999999982 -6.350012750000003 5.3000337488242708e-032 -1 0 0 0 0 11 1 I I 0 1 11 forward I I I I #
face $-1 $11 $12 $2 $-1 $13 forward single #
loop $-1 $14 $15 $4 #
cone-surface $-1 5.9999999999999982 -6.350012750000003 5.3000337488242708e-032 -1 0 0 0 0 17 1 I I 0 1 17 forward I I I I #
coedge $-1 $16 $17 $18 $19 forward $5 $-1 #
face $-1 $20 $21 $2 $-1 $22 forward single #
loop $-1 $23 $24 $7 #
plane-surface $-1 5.7599999999999971 -6.3500127500000039 -1.5454545454545452 1 -1.2795105512884055e-032 -3.4120281367690825e-033 -3.4120281367690825e-032 0 -10 forward_v I I I I #
loop $-1 $-1 $25 $4 #
coedge $-1 $15 $15 $26 $27 reversed $8 $-1 #
coedge $-1 $28 $10 $29 $30 reversed $5 $-1 #
coedge $-1 $10 $28 $24 $31 forward $5 $-1 #
coedge $-1 $32 $33 $10 $19 reversed $34 $-1 #
edge $-1 $35 $36 $18 $37 forward #
face $-1 $38 $39 $2 $-1 $40 forward single #
loop $-1 $41 $42 $11 #
plane-surface $-1 5.9999999999999982 -4.9919825911234526 -2.2802370909537064 1 1.6900281234014185e-032 8.8333895813737892e-033 8.8333895813737897e-032 0 -10 forward_v I I I I #
loop $-1 $-1 $26 $7 #
coedge $-1 $43 $43 $17 $31 reversed $12 $-1 #
coedge $-1 $25 $25 $44 $45 reversed $14 $-1 #
coedge $-1 $26 $26 $15 $27 forward $23 $-1 #
edge $-1 $46 $46 $15 $47 forward #
coedge $-1 $17 $16 $48 $49 forward $5 $-1 #
coedge $-1 $50 $50 $16 $30 forward $51 $-1 #
edge $-1 $52 $36 $29 $53 forward #
edge $-1 $54 $35 $24 $55 forward #
coedge $-1 $48 $18 $43 $56 forward $34 $-1 #
coedge $-1 $18 $48 $50 $57 reversed $34 $-1 #
loop $-1 $-1 $33 $58 #
vertex $-1 $56 $59 #
vertex $-1 $57 $60 #
straight-curve $-1 5.9999999999999982 4.4447596530880737 2.1149205104514217 10 0 0 I I #
face $-1 $61 $62 $2 $-1 $63 reversed single #
loop $-1 $64 $65 $20 #
cone-surface $-1 -6 -6.350012750000003 -5.193215873754393e-033 1 0 0 0 0 -11 1 I I 0 1 11 forward I I I I #
loop $-1 $-1 $44 $11 #
coedge $-1 $42 $42 $66 $67 reversed $21 $-1 #
coedge $-1 $24 $24 $32 $56 reversed $12 $-1 #
coedge $-1 $44 $44 $25 $45 forward $41 $-1 #
edge $-1 $68 $68 $44 $69 forward #
vertex $-1 $27 $70 #
ellipse-curve $-1 5.759999999999998 -6.350012750000003 5.3000337488242708e-032 1 1.6900281234014185e-032 8.8333895813737892e-033 -1.5016762288335443e-031 0 17 1 I I #
coedge $-1 $33 $32 $28 $49 reversed $34 $-1 #
edge $-1 $52 $54 $48 $71 forward #
coedge $-1 $29 $29 $33 $57 forward $51 $-1 #
loop $-1 $-1 $29 $72 #
vertex $-1 $57 $73 #
ellipse-curve $-1 5.9999999999999982 -6.350012750000003 5.3000337488242708e-032 1 1.6900281234014185e-032 8.8333895813737892e-033 0 0 11 1 I I #
vertex $-1 $49 $74 #
ellipse-curve $-1 5.7599999999999971 -6.350012750000003 5.3000337488242708e-032 1 -1.2795105512884055e-032 -3.4120281367690825e-033 0 0 11 1 I I #
edge $-1 $35 $54 $43 $75 forward #
edge $-1 $36 $52 $50 $76 forward #
face $-1 $77 $78 $2 $-1 $79 forward single #
point $-1 5.759999999999998 4.4447596530880737 2.1149205104514217 #
point $-1 5.9999999999999982 4.4447596530880737 2.1149205104514217 #
face $-1 $80 $81 $2 $-1 $82 reversed single #
loop $-1 $83 $84 $38 #
cone-surface $-1 -6 -6.350012750000003 -5.193215873754393e-033 1 0 0 0 0 -17 1 I I 0 1 17 forward I I I I #
loop $-1 $-1 $85 $20 #
coedge $-1 $65 $65 $86 $87 forward $39 $-1 #
coedge $-1 $66 $66 $42 $67 forward $88 $-1 #
edge $-1 $89 $89 $66 $90 forward #
vertex $-1 $45 $91 #
ellipse-curve $-1 5.9999999999999982 -6.350012750000003 5.3000337488242708e-032 -1 -1.6900281234014185e-032 -8.8333895813737892e-033 0 0 17 1 I I #
point $-1 5.7599999999999971 -6.3500127500000003 -17 #
straight-curve $-1 5.9999999999999982 -17.050416205918971 2.5497776139415511 -10 0 0 I I #
face $-1 $92 $51 $2 $-1 $22 forward single #
point $-1 5.9999999999999982 -17.050416205918971 2.5497776139415511 #
point $-1 5.759999999999998 -17.050416205918971 2.5497776139415511 #
ellipse-curve $-1 5.7599999999999971 -6.3014596674282686 2.3999999999999999 1 -1.2795105512884055e-032 -3.4120281367690825e-033 0 0 10.75 1 I I #
ellipse-curve $-1 5.9999999999999982 -6.3014596674282686 2.3999999999999999 -1 -1.6900281234014185e-032 -8.8333895813737892e-033 0 0 10.75 1 I I #
face $-1 $93 $94 $2 $-1 $95 forward single #
loop $-1 $34 $96 $58 #
cone-surface $-1 5.9999999999999982 -6.3014596674282686 2.3999999999999999 1 0 0 0 0 10.75 1 I I 0 1 10.75 forward I I I I #
face $-1 $97 $98 $2 $-1 $99 reversed single #
loop $-1 $100 $86 $61 #
plane-surface $-1 -5.759999999999998 -6.3500127500000039 1.5454545454545452 1 1.2795105512884055e-032 -3.4120281367690825e-033 -3.4120281367690825e-032 0 -10 forward_v I I I I #
loop $-1 $-1 $101 $38 #
coedge $-1 $84 $84 $102 $103 reversed $62 $-1 #
coedge $-1 $85 $85 $104 $105 reversed $64 $-1 #
coedge $-1 $86 $86 $65 $87 reversed $81 $-1 #
edge $-1 $106 $106 $86 $107 forward #
loop $-1 $-1 $66 $92 #
vertex $-1 $67 $108 #
ellipse-curve $-1 5.9999999999999982 -6.350012750000003 5.3000337488242708e-032 -1 -1.6900281234014185e-032 -8.8333895813737892e-033 1.6853033206120966e-031 0 -19.078784028338916 1 I I #
point $-1 5.9999999999999982 -6.3500127500000003 -17 #
face $-1 $-1 $109 $2 $-1 $110 forward single #
face $-1 $72 $111 $2 $-1 $99 reversed single #
loop $-1 $112 $113 $77 #
plane-surface $-1 12.999999999999998 -6.3014596674282686 1.4227272727272728 1 -6.3996287605814924e-033 0 0 0 -10 forward_v I I I I #
coedge $-1 $96 $96 $114 $115 forward $78 $-1 #
face $-1 $58 $116 $2 $-1 $117 reversed single #
loop $-1 $118 $119 $80 #
plane-surface $-1 -6 -5.4725667141305054 -4.2294736525359031 1 4.7488974010275405e-033 8.6553597895906539e-034 8.6553597895906539e-033 0 -10 forward_v I I I I #
loop $-1 $-1 $102 $61 #
coedge $-1 $101 $101 $120 $121 reversed $83 $-1 #
coedge $-1 $102 $102 $84 $103 forward $100 $-1 #
edge $-1 $122 $122 $84 $123 forward #
coedge $-1 $104 $104 $85 $105 forward $111 $-1 #
edge $-1 $124 $124 $104 $125 forward #
vertex $-1 $87 $126 #
ellipse-curve $-1 -5.759999999999998 -6.350012750000003 -5.193215873754393e-033 -1 -1.2795105512884055e-032 3.4120281367690825e-033 0 0 -11 1 I I #
point $-1 5.9999999999999982 -6.350012750000003 19.078784028338916 #
loop $-1 $88 $127 $92 #
sphere-surface $-1 1.1102230246251565e-015 -6.350012750000003 0 20.000000000000004 1 0 0 0 0 1 forward_v I I I I #
loop $-1 $128 $104 $93 #
loop $-1 $-1 $114 $77 #
coedge $-1 $113 $113 $129 $130 forward $94 $-1 #
coedge $-1 $114 $114 $96 $115 reversed $112 $-1 #
edge $-1 $131 $131 $96 $132 forward #
loop $-1 $133 $129 $97 #
cone-surface $-1 53.674114991342783 -6.350012750000003 4.6456877663793322e-032 -1 -4.7488974010275405e-033 -8.6553597895906539e-034 -5.4961534663900652e-033 0 6.3499999999999996 1 I I 0 1 6.3499999999999996 reversed I I I I #
loop $-1 $-1 $120 $80 #
coedge $-1 $119 $119 $127 $134 reversed $98 $-1 #
coedge $-1 $120 $120 $101 $121 forward $118 $-1 #
edge $-1 $135 $135 $120 $136 forward #
vertex $-1 $103 $137 #
ellipse-curve $-1 -5.7599999999999998 -6.350012750000003 -5.193215873754393e-033 -1 -4.7488974010275405e-033 -8.6553597895906539e-034 1.4714111642304114e-032 0 -17 1 I I #
vertex $-1 $105 $138 #
ellipse-curve $-1 -6 -6.350012750000003 -5.193215873754393e-033 -1 -4.7488974010275405e-033 -8.6553597895906539e-034 0 0 -11 1 I I #
point $-1 -5.759999999999998 -6.3500127500000012 11 #
coedge $-1 $127 $127 $119 $134 forward $109 $-1 #
loop $-1 $-1 $139 $93 #
coedge $-1 $129 $129 $113 $130 reversed $116 $-1 #
edge $-1 $140 $140 $113 $141 forward #
vertex $-1 $115 $142 #
ellipse-curve $-1 12.999999999999998 -6.3014596674282686 2.3999999999999999 -1 -1.6900281234014185e-032 -8.8333895813737892e-033 -9.4958937999768228e-032 0 10.75 1 I I #
loop $-1 $-1 $143 $97 #
edge $-1 $144 $144 $127 $145 forward #
vertex $-1 $121 $146 #
ellipse-curve $-1 -6 -6.350012750000003 -5.193215873754393e-033 1 4.7488974010275405e-033 8.6553597895906539e-034 0 0 -17 1 I I #
point $-1 -5.759999999999998 -6.3500127500000003 17 #
point $-1 -6 -6.3500127500000012 11 #
coedge $-1 $139 $139 $143 $147 forward $128 $-1 #
vertex $-1 $130 $148 #
ellipse-curve $-1 12.999999999999998 -6.350012750000003 1.1251967726467843e-032 -1 6.3996287605814924e-033 0 -5.4961534663900652e-033 0 6.3499999999999996 1 I I #
point $-1 12.999999999999998 -6.3014596674282677 -8.3499999999999996 #
coedge $-1 $143 $143 $139 $147 reversed $133 $-1 #
vertex $-1 $134 $149 #
ellipse-curve $-1 -6 -6.350012750000003 -5.193215873754393e-033 1 4.7488974010275405e-033 8.6553597895906539e-034 -1.6513374011316907e-032 0 19.078784028338916 1 I I #
point $-1 -6 -6.3500127500000003 17 #
edge $-1 $150 $150 $139 $151 forward #
point $-1 12.999999999999998 -6.350012750000003 -6.3499999999999996 #
point $-1 -6 -6.350012750000003 -19.078784028338916 #
vertex $-1 $147 $152 #
ellipse-curve $-1 -5.9999999999999964 -6.350012750000003 -5.1932158737543923e-033 1 4.7488974010275405e-033 8.6553597895906539e-034 -5.4961534663900652e-033 0 6.3499999999999996 1 I I #
point $-1 -6 -6.350012750000003 6.3499999999999996 #
End-of-ACIS-data 