400 0 1 0           
7 Unknown 11 ACIS 6.0 NT 24 Fri Dec 07 17:26:18 2001 
25.399999999999999 9.9999999999999995e-007 1e-010 
body $-1 $1 $-1 $-1 #
lump $-1 $-1 $2 $0 #
shell $-1 $-1 $-1 $3 $-1 $1 #
face $-1 $4 $5 $2 $-1 $6 forward single #
face $-1 $7 $8 $2 $-1 $9 forward single #
loop $-1 $10 $11 $3 #
torus-surface $-1 0 0 -0.31249999999999989 -2.1382117680737565e-049 1.0593990362235218e-032 -1 0.28124999999999961 -0.062499999999999993 -1 0 2.1382117680737565e-049 forward_v I I I I #
face $-1 $12 $13 $2 $-1 $14 forward single #
loop $-1 $15 $16 $4 #
plane-surface $-1 0 0 -0.37499999999999989 2.1382117680737565e-049 -1.0593990362235218e-032 1 0.39370078740157477 0 -8.4181565672195131e-050 forward_v I I I I #
loop $-1 $-1 $17 $3 #
coedge $-1 $11 $11 $18 $19 forward $5 $-1 #
face $-1 $20 $21 $2 $-1 $22 forward single #
loop $-1 $23 $24 $7 #
cone-surface $-1 0 0 -0.49999999999999994 0 0 1 -0.21874999999999964 0 0 1 I I 0 1 0.21874999999999964 forward I I I I #
loop $-1 $25 $26 $4 #
coedge $-1 $27 $28 $29 $30 reversed $8 $-1 #
coedge $-1 $17 $17 $31 $32 forward $10 $-1 #
coedge $-1 $18 $18 $11 $19 reversed $23 $-1 #
edge $-1 $33 $33 $18 $34 forward #
face $-1 $35 $36 $2 $-1 $37 forward single #
loop $-1 $-1 $29 $12 #
cone-surface $-1 -0.59375000000000033 -0.59375 -0.49999999999999994 0 0 1 -0.044194173824159223 -0.044194173824159223 0 1 I I 0 1 0.0625 forward I I I I #
loop $-1 $-1 $18 $7 #
coedge $-1 $24 $24 $38 $39 forward $13 $-1 #
loop $-1 $40 $41 $4 #
coedge $-1 $26 $26 $42 $43 forward $15 $-1 #
coedge $-1 $44 $16 $45 $46 reversed $8 $-1 #
coedge $-1 $16 $47 $48 $49 reversed $8 $-1 #
coedge $-1 $50 $51 $16 $30 forward $21 $-1 #
edge $-1 $52 $53 $16 $54 forward #
coedge $-1 $31 $31 $17 $32 reversed $55 $-1 #
edge $-1 $56 $56 $31 $57 forward #
vertex $-1 $19 $58 #
ellipse-curve $-1 0 0 -0.31249999999999989 -2.1382117680737565e-049 1.0593990362235218e-032 -1 -0.21874999999999964 -6.6212439763970136e-034 0 1 I I #
face $-1 $59 $60 $2 $-1 $61 forward single #
loop $-1 $-1 $62 $20 #
plane-surface $-1 0.65625000000000033 -0.65625 -0.49999999999999994 0 -1 0 0 0 -0.39370078740157477 forward_v I I I I #
coedge $-1 $38 $38 $24 $39 reversed $63 $-1 #
edge $-1 $64 $64 $24 $65 forward #
loop $-1 $66 $67 $4 #
coedge $-1 $41 $41 $68 $69 forward $25 $-1 #
coedge $-1 $42 $42 $26 $43 reversed $70 $-1 #
edge $-1 $71 $71 $26 $72 forward #
coedge $-1 $73 $27 $74 $75 reversed $8 $-1 #
coedge $-1 $62 $76 $27 $46 forward $36 $-1 #
edge $77 $78 $52 $45 $79 forward #
coedge $-1 $28 $80 $81 $82 reversed $8 $-1 #
coedge $-1 $83 $84 $28 $49 forward $85 $-1 #
edge $-1 $53 $86 $48 $87 forward #
coedge $-1 $88 $29 $84 $89 forward $21 $-1 #
coedge $-1 $29 $88 $62 $90 forward $21 $-1 #
vertex $-1 $90 $91 #
vertex $-1 $49 $92 #
ellipse-curve $-1 -0.59375000000000033 -0.59375 -0.37499999999999989 -2.1382117680737565e-049 1.0593990362235218e-032 -1 -0.044194173824159223 -0.044194173824159223 0 1 I I #
loop $-1 $-1 $31 $4 #
vertex $-1 $32 $93 #
ellipse-curve $-1 -1.3363823550460983e-050 6.6212439763970136e-034 -0.37499999999999989 2.1382117680737565e-049 -1.0593990362235218e-032 1 -0.28124999999999961 -8.5130279696533051e-034 6.0137205977074317e-050 1 I I #
point $-1 0.21874999999999964 6.6212439763970136e-034 -0.31249999999999989 #
face $-1 $94 $95 $2 $-1 $96 forward single #
loop $-1 $-1 $74 $35 #
cone-surface $-1 0.59375000000000033 -0.59375 -0.49999999999999994 0 0 1 0.044194173824159223 -0.044194173824159223 0 1 I I 0 1 0.0625 forward I I I I #
coedge $-1 $97 $45 $51 $90 reversed $36 $-1 #
loop $-1 $-1 $38 $98 #
vertex $-1 $39 $99 #
ellipse-curve $-1 0 0 0.49999999999999994 0 0 -1 -0.21874999999999964 0 0 1 I I #
loop $-1 $55 $100 $4 #
coedge $-1 $67 $67 $101 $102 forward $40 $-1 #
coedge $-1 $68 $68 $41 $69 reversed $103 $-1 #
edge $-1 $104 $104 $41 $105 forward #
loop $-1 $-1 $42 $106 #
vertex $-1 $43 $107 #
ellipse-curve $-1 -0.34375000000000067 0.34374999999999994 -0.37499999999999983 -2.1382117680737565e-049 1.0593990362235218e-032 -1 0.062499999999999993 1.415762178961956e-082 -1.3363823550460976e-050 1 I I #
coedge $-1 $108 $44 $109 $110 reversed $8 $-1 #
coedge $-1 $111 $112 $44 $75 forward $60 $-1 #
edge $-1 $113 $78 $44 $114 forward #
coedge $-1 $45 $97 $111 $115 reversed $36 $-1 #
convexity-sys-attrib $-1 $-1 $-1 $46 #
vertex $-1 $46 $116 #
straight-curve $-1 -0.65625000000000033 -0.65625 -0.375 -0.39370078740157477 0 0 F -3.333750000000002 F 0 #
coedge $-1 $47 $108 $117 $118 reversed $8 $-1 #
coedge $-1 $119 $120 $47 $82 forward $95 $-1 #
edge $-1 $86 $121 $47 $122 forward #
coedge $-1 $123 $48 $120 $124 reversed $85 $-1 #
coedge $-1 $48 $123 $50 $89 reversed $85 $-1 #
loop $-1 $-1 $84 $125 #
vertex $-1 $82 $126 #
straight-curve $-1 -0.65625000000000033 0.65625 -0.375 0 0.39370078740157477 0 F -3.3337500000000002 F 0 #
coedge $-1 $51 $50 $127 $128 forward $21 $-1 #
edge $-1 $53 $129 $84 $130 forward #
edge $-1 $131 $52 $62 $132 forward #
point $-1 -0.59375000000000033 -0.65625 -0.375 #
point $-1 -0.65625000000000033 -0.59375 -0.375 #
point $-1 0.28124999999999961 1.5134271946050318e-033 -0.37499999999999989 #
face $-1 $133 $134 $2 $-1 $135 forward single #
loop $-1 $-1 $81 $59 #
cone-surface $-1 -0.59375000000000033 0.59375 -0.49999999999999994 0 0 1 -0.044194173824159223 0.044194173824159223 0 1 I I 0 1 0.0625 forward I I I I #
coedge $-1 $76 $62 $136 $137 forward $36 $-1 #
face $-1 $138 $139 $2 $-1 $140 forward single #
point $-1 0.21874999999999964 2.6788263989864459e-017 0.49999999999999994 #
coedge $-1 $100 $100 $141 $142 forward $66 $-1 #
coedge $-1 $101 $101 $67 $102 reversed $143 $-1 #
edge $-1 $144 $144 $67 $145 forward #
loop $-1 $-1 $68 $146 #
vertex $-1 $69 $147 #
ellipse-curve $-1 0.34375000000000067 0.34374999999999994 -0.37499999999999983 -2.1382117680737565e-049 1.0593990362235218e-032 -1 0.062499999999999993 1.415762178961956e-082 -1.3363823550460976e-050 1 I I #
face $-1 $148 $149 $2 $-1 $150 reversed single #
point $-1 -0.28125000000000017 0.34374999999999994 -0.37499999999999989 #
coedge $-1 $80 $73 $151 $152 reversed $8 $-1 #
coedge $-1 $153 $154 $73 $110 forward $155 $-1 #
edge $156 $157 $113 $109 $158 forward #
coedge $-1 $159 $74 $76 $115 forward $60 $-1 #
coedge $-1 $74 $159 $153 $160 forward $60 $-1 #
vertex $-1 $75 $161 #
ellipse-curve $-1 0.59375000000000033 -0.59375 -0.37499999999999989 -2.1382117680737565e-049 1.0593990362235218e-032 -1 0.044194173824159223 -0.044194173824159223 0 1 I I #
edge $-1 $78 $162 $76 $163 forward #
point $-1 0.59375000000000033 -0.65625 -0.375 #
coedge $-1 $164 $165 $80 $118 forward $134 $-1 #
edge $-1 $121 $166 $117 $167 forward #
coedge $-1 $168 $81 $165 $169 forward $95 $-1 #
coedge $-1 $81 $168 $83 $124 forward $95 $-1 #
vertex $-1 $118 $170 #
ellipse-curve $-1 -0.59375000000000033 0.59375 -0.37499999999999989 -2.1382117680737565e-049 1.0593990362235218e-032 -1 -0.044194173824159223 0.044194173824159223 0 1 I I #
coedge $-1 $84 $83 $171 $172 forward $85 $-1 #
edge $-1 $173 $86 $83 $174 forward #
face $-1 $175 $85 $2 $-1 $176 forward single #
point $-1 -0.65625000000000033 0.59375 -0.375 #
coedge $-1 $171 $136 $88 $128 reversed $177 $-1 #
edge $-1 $129 $131 $127 $178 forward #
vertex $-1 $128 $179 #
straight-curve $-1 -0.65625000000000033 -0.59375 -0.49999999999999994 0 0 -0.39370078740157477 F -0.80962600000000018 F 0.49212599999999984 #
vertex $-1 $137 $180 #
straight-curve $-1 -0.59375000000000033 -0.65625 -0.49999999999999994 0 0 0.39370078740157477 F -0.49212599999999984 F 0.80962600000000018 #
face $-1 $181 $182 $2 $-1 $183 forward single #
loop $-1 $-1 $165 $94 #
plane-surface $-1 -0.65625000000000033 0.65625 -0.49999999999999994 0 1 0 0 0 0.39370078740157477 forward_v I I I I #
coedge $-1 $127 $184 $97 $137 reversed $177 $-1 #
edge $-1 $131 $162 $97 $185 forward #
face $-1 $125 $155 $2 $-1 $186 forward single #
loop $-1 $63 $187 $98 #
plane-surface $-1 0.019886363636363584 0 0.5 5.5896541648743729e-032 0 1 0.39370078740157477 0 -2.2006512460135324e-032 forward_v I I I I #
coedge $-1 $141 $141 $100 $142 reversed $188 $-1 #
edge $-1 $189 $189 $100 $190 forward #
loop $-1 $-1 $101 $191 #
vertex $-1 $102 $192 #
ellipse-curve $-1 0.34375000000000067 -0.34374999999999994 -0.37499999999999983 -2.1382117680737565e-049 1.0593990362235218e-032 -1 0.062499999999999993 1.415762178961956e-082 -1.3363823550460976e-050 1 I I #
face $-1 $106 $193 $2 $-1 $194 reversed single #
point $-1 0.40625000000000117 0.34374999999999994 -0.37499999999999989 #
face $-1 $195 $196 $2 $-1 $197 reversed single #
loop $-1 $70 $198 $106 #
cone-surface $-1 -0.34375000000000067 0.34374999999999994 -2.4833909741791254 2.1382117680737565e-049 -1.0593990362235218e-032 1 0.062499999999999993 1.415762178961956e-082 -1.3363823550460976e-050 1 I I 0 1 0.062499999999999993 reversed I I I I #
coedge $-1 $199 $200 $108 $152 forward $182 $-1 #
edge $-1 $166 $157 $108 $201 forward #
coedge $-1 $202 $109 $112 $160 reversed $155 $-1 #
coedge $-1 $109 $202 $199 $203 reversed $155 $-1 #
loop $-1 $-1 $153 $138 #
convexity-sys-attrib $-1 $-1 $-1 $110 #
vertex $-1 $110 $204 #
straight-curve $-1 0.65625000000000033 -0.65625 -0.375 0 -0.39370078740157477 0 F -3.3337500000000002 F 0 #
coedge $-1 $112 $111 $184 $205 forward $60 $-1 #
edge $-1 $206 $113 $153 $207 forward #
point $-1 0.65625000000000033 -0.59375 -0.375 #
vertex $-1 $115 $208 #
straight-curve $-1 0.59375000000000033 -0.65625 -0.49999999999999994 0 0 -0.39370078740157477 F -0.80962600000000018 F 0.49212599999999984 #
coedge $-1 $209 $117 $200 $210 reversed $134 $-1 #
coedge $-1 $117 $209 $119 $169 reversed $134 $-1 #
vertex $-1 $210 $211 #
straight-curve $-1 0.65625000000000033 0.65625 -0.375 0.39370078740157477 0 0 F -3.333750000000002 F 0 #
coedge $-1 $120 $119 $212 $213 forward $95 $-1 #
edge $-1 $121 $214 $165 $215 forward #
point $-1 -0.59375000000000033 0.65625 -0.375 #
coedge $-1 $212 $127 $123 $172 reversed $177 $-1 #
edge $216 $173 $129 $123 $217 forward #
vertex $-1 $172 $218 #
straight-curve $-1 -0.65625000000000033 0.59375 -0.49999999999999994 0 0 0.39370078740157477 F -0.49212599999999984 F 0.80962600000000018 #
face $-1 $-1 $177 $2 $-1 $219 reversed single #
plane-surface $-1 -0.65625000000000033 -0.65625 -0.49999999999999994 -1 0 0 0 0 0.39370078740157477 forward_v I I I I #
loop $-1 $220 $127 $175 #
ellipse-curve $-1 -0.59375000000000033 -0.59375 -0.49999999999999989 1.0691058840368783e-049 -5.2969951811176089e-033 1 -0.044194173824159223 -0.044194173824159223 0 1 I I #
point $-1 -0.65625000000000033 -0.59375 -0.49999999999999994 #
point $-1 -0.59375000000000033 -0.65625 -0.49999999999999994 #
face $-1 $191 $221 $2 $-1 $222 reversed single #
loop $-1 $-1 $151 $133 #
cone-surface $-1 0.59375000000000033 0.59375 -0.49999999999999994 0 0 1 0.044194173824159223 0.044194173824159223 0 1 I I 0 1 0.0625 forward I I I I #
coedge $-1 $136 $223 $159 $205 reversed $177 $-1 #
straight-curve $-1 -0.65625000000000033 -0.65625 -0.49999999999999994 0.39370078740157477 0 0 F 0 F 3.333750000000002 #
plane-surface $-1 0.65625000000000033 0.65625 -0.49999999999999994 1 0 0 0 0 -0.39370078740157477 forward_v I I I I #
coedge $-1 $224 $225 $226 $227 forward $139 $-1 #
loop $-1 $-1 $141 $181 #
vertex $-1 $142 $228 #
ellipse-curve $-1 -0.34375000000000067 -0.34374999999999994 -0.37499999999999983 -2.1382117680737565e-049 1.0593990362235218e-032 -1 0.062499999999999993 1.415762178961956e-082 -1.3363823550460976e-050 1 I I #
face $-1 $146 $229 $2 $-1 $230 reversed single #
point $-1 0.40625000000000117 -0.34374999999999994 -0.37499999999999989 #
loop $-1 $103 $231 $146 #
cone-surface $-1 0.34375000000000067 0.34374999999999994 -2.4833909741791254 2.1382117680737565e-049 -1.0593990362235218e-032 1 0.062499999999999993 1.415762178961956e-082 -1.3363823550460976e-050 1 I I 0 1 0.062499999999999993 reversed I I I I #
face $-1 $232 $233 $2 $-1 $234 reversed single #
loop $-1 $-1 $226 $148 #
plane-surface $-1 -0.0625000000000005 -0.062499999999999972 -0.49999999999999994 -1 0 0 0 0 0.39370078740157477 forward_v I I I I #
coedge $-1 $198 $198 $235 $236 reversed $149 $-1 #
coedge $-1 $237 $151 $154 $203 forward $182 $-1 #
coedge $-1 $151 $237 $164 $210 forward $182 $-1 #
ellipse-curve $-1 0.59375000000000033 0.59375 -0.37499999999999989 -2.1382117680737565e-049 1.0593990362235218e-032 -1 0.044194173824159223 0.044194173824159223 0 1 I I #
coedge $-1 $154 $153 $223 $238 forward $155 $-1 #
edge $-1 $157 $239 $154 $240 forward #
point $-1 0.65625000000000033 0.59375 -0.375 #
edge $-1 $162 $206 $184 $241 forward #
vertex $-1 $238 $242 #
straight-curve $-1 0.65625000000000033 -0.59375 -0.49999999999999994 0 0 0.39370078740157477 F -0.49212599999999984 F 0.80962600000000018 #
point $-1 0.59375000000000033 -0.65625 -0.49999999999999994 #
coedge $-1 $165 $164 $243 $244 forward $134 $-1 #
edge $-1 $245 $166 $164 $246 forward #
point $-1 0.59375000000000033 0.65625 -0.375 #
coedge $-1 $243 $171 $168 $213 reversed $177 $-1 #
edge $-1 $214 $173 $212 $247 forward #
vertex $-1 $169 $248 #
straight-curve $-1 -0.59375000000000033 0.65625 -0.49999999999999994 0 0 -0.39370078740157477 F -0.80962600000000018 F 0.49212599999999984 #
convexity-sys-attrib $-1 $-1 $-1 $172 #
straight-curve $-1 -0.65625000000000033 0.65625 -0.49999999999999994 0 -0.39370078740157477 0 F 0 F 3.3337500000000002 #
point $-1 -0.65625000000000033 0.59375 -0.49999999999999994 #
plane-surface $-1 0 0 -0.49999999999999989 1.0691058840368783e-049 -5.2969951811176089e-033 1 0.39370078740157477 0 -4.2090782836097566e-050 forward_v I I I I #
loop $-1 $249 $250 $175 #
loop $-1 $188 $251 $181 #
cone-surface $-1 -0.34375000000000067 -0.34374999999999994 -2.4833909741791254 2.1382117680737565e-049 -1.0593990362235218e-032 1 0.062499999999999993 1.415762178961956e-082 -1.3363823550460976e-050 1 I I 0 1 0.062499999999999993 reversed I I I I #
coedge $-1 $184 $252 $202 $238 reversed $177 $-1 #
coedge $-1 $253 $187 $254 $255 forward $139 $-1 #
coedge $-1 $187 $253 $256 $257 forward $139 $-1 #
coedge $-1 $258 $259 $187 $227 reversed $196 $-1 #
edge $-1 $260 $261 $187 $262 forward #
point $-1 -0.28125000000000017 -0.34374999999999994 -0.37499999999999989 #
loop $-1 $143 $263 $191 #
cone-surface $-1 0.34375000000000067 -0.34374999999999994 -2.4833909741791254 2.1382117680737565e-049 -1.0593990362235218e-032 1 0.062499999999999993 1.415762178961956e-082 -1.3363823550460976e-050 1 I I 0 1 0.062499999999999993 reversed I I I I #
coedge $-1 $231 $231 $264 $265 reversed $193 $-1 #
face $-1 $266 $267 $2 $-1 $268 reversed single #
loop $-1 $-1 $254 $195 #
plane-surface $-1 -0.0625000000000005 0.062499999999999799 -0.49999999999999994 0 1 0 0 0 0.39370078740157477 forward_v I I I I #
coedge $-1 $235 $235 $198 $236 forward $269 $-1 #
edge $-1 $270 $270 $235 $271 forward #
coedge $-1 $200 $199 $252 $272 forward $182 $-1 #
edge $-1 $206 $239 $202 $273 forward #
vertex $-1 $272 $274 #
straight-curve $-1 0.65625000000000033 0.59375 -0.49999999999999994 0 0 -0.39370078740157477 F -0.80962600000000018 F 0.49212599999999984 #
ellipse-curve $-1 0.59375000000000033 -0.59375 -0.49999999999999989 1.0691058840368783e-049 -5.2969951811176089e-033 1 0.044194173824159223 -0.044194173824159223 0 1 I I #
point $-1 0.65625000000000033 -0.59375 -0.49999999999999994 #
coedge $-1 $252 $212 $209 $244 reversed $177 $-1 #
edge $275 $245 $214 $209 $276 forward #
vertex $-1 $244 $277 #
straight-curve $-1 0.59375000000000033 0.65625 -0.49999999999999994 0 0 0.39370078740157477 F -0.49212599999999984 F 0.80962600000000018 #
ellipse-curve $-1 -0.59375000000000033 0.59375 -0.49999999999999989 1.0691058840368783e-049 -5.2969951811176089e-033 1 -0.044194173824159223 0.044194173824159223 0 1 I I #
point $-1 -0.59375000000000033 0.65625 -0.49999999999999994 #
loop $-1 $278 $279 $175 #
coedge $-1 $250 $250 $251 $280 forward $220 $-1 #
coedge $-1 $251 $251 $250 $280 reversed $221 $-1 #
coedge $-1 $223 $243 $237 $272 reversed $177 $-1 #
coedge $-1 $225 $224 $281 $282 forward $139 $-1 #
coedge $-1 $283 $284 $224 $255 reversed $233 $-1 #
edge $-1 $261 $285 $224 $286 forward #
coedge $-1 $287 $288 $225 $257 reversed $289 $-1 #
edge $-1 $290 $260 $225 $291 forward #
coedge $-1 $292 $226 $288 $293 reversed $196 $-1 #
coedge $-1 $226 $292 $283 $294 forward $196 $-1 #
vertex $-1 $227 $295 #
vertex $-1 $227 $296 #
straight-curve $-1 -0.0625000000000005 -0.031249999999999986 0.49999999999999994 0 0.39370078740157477 0 I I #
coedge $-1 $263 $263 $279 $297 reversed $229 $-1 #
coedge $-1 $264 $264 $231 $265 forward $278 $-1 #
edge $-1 $298 $298 $264 $299 forward #
face $-1 $98 $289 $2 $-1 $300 reversed single #
loop $-1 $-1 $281 $232 #
plane-surface $-1 0.0625000000000005 0.062499999999999799 -0.49999999999999994 1 0 0 0 0 -0.39370078740157477 forward_v I I I I #
loop $-1 $301 $235 $175 #
vertex $-1 $236 $302 #
ellipse-curve $-1 -0.34375000000000067 0.34374999999999994 -0.49999999999999978 1.0691058840368783e-049 -5.2969951811176089e-033 1 0.062499999999999993 1.415762178961956e-082 -1.3363823550460976e-050 1 I I #
edge $-1 $239 $245 $252 $303 forward #
straight-curve $-1 0.65625000000000033 -0.65625 -0.49999999999999994 0 0.39370078740157477 0 F 0 F 3.3337500000000002 #
point $-1 0.65625000000000033 0.59375 -0.49999999999999994 #
convexity-sys-attrib $-1 $-1 $-1 $244 #
straight-curve $-1 0.65625000000000033 0.65625 -0.49999999999999994 -0.39370078740157477 0 0 F 0 F 3.333750000000002 #
point $-1 0.59375000000000033 0.65625 -0.49999999999999994 #
loop $-1 $269 $264 $175 #
coedge $-1 $279 $279 $263 $297 forward $249 $-1 #
edge $-1 $304 $304 $250 $305 forward #
coedge $-1 $306 $307 $253 $282 reversed $267 $-1 #
edge $-1 $285 $290 $253 $308 forward #
coedge $-1 $309 $254 $259 $294 reversed $233 $-1 #
coedge $-1 $254 $309 $306 $310 forward $233 $-1 #
vertex $-1 $255 $311 #
straight-curve $-1 -0.021306818181818458 0.062499999999999799 0.49999999999999994 0.39370078740157477 0 -2.2006512460135324e-032 I I #
coedge $-1 $312 $256 $307 $313 reversed $289 $-1 #
coedge $-1 $256 $312 $258 $293 forward $289 $-1 #
loop $-1 $-1 $256 $266 #
vertex $-1 $282 $314 #
straight-curve $-1 0.041193181818182038 -0.062499999999999972 0.49999999999999994 -0.39370078740157477 0 2.2006512460135324e-032 I I #
coedge $-1 $259 $258 $315 $316 reversed $196 $-1 #
edge $-1 $317 $260 $258 $318 forward #
edge $-1 $319 $261 $283 $320 forward #
point $-1 -0.0625000000000005 -0.062499999999999972 0.49999999999999994 #
point $-1 -0.0625000000000005 0.062499999999999799 0.49999999999999994 #
edge $-1 $321 $321 $279 $322 forward #
vertex $-1 $265 $323 #
ellipse-curve $-1 0.34375000000000067 0.34374999999999994 -0.49999999999999978 1.0691058840368783e-049 -5.2969951811176089e-033 1 0.062499999999999993 1.415762178961956e-082 -1.3363823550460976e-050 1 I I #
plane-surface $-1 0.0625000000000005 -0.062499999999999972 -0.49999999999999994 0 -1 0 0 0 -0.39370078740157477 forward_v I I I I #
loop $-1 $-1 $315 $175 #
point $-1 -0.40625000000000061 0.34374999999999994 -0.49999999999999978 #
ellipse-curve $-1 0.59375000000000033 0.59375 -0.49999999999999989 1.0691058840368783e-049 -5.2969951811176089e-033 1 0.044194173824159223 0.044194173824159223 0 1 I I #
vertex $-1 $280 $324 #
ellipse-curve $-1 -0.34375000000000067 -0.34374999999999994 -0.49999999999999978 1.0691058840368783e-049 -5.2969951811176089e-033 1 0.062499999999999993 1.415762178961956e-082 -1.3363823550460976e-050 1 I I #
coedge $-1 $325 $281 $284 $310 reversed $267 $-1 #
coedge $-1 $281 $325 $287 $313 forward $267 $-1 #
straight-curve $-1 0.0625000000000005 0.031249999999999899 0.49999999999999994 0 -0.39370078740157477 0 I I #
coedge $-1 $284 $283 $326 $327 reversed $233 $-1 #
edge $-1 $328 $285 $306 $329 forward #
point $-1 0.0625000000000005 0.062499999999999799 0.49999999999999994 #
coedge $-1 $288 $287 $330 $331 reversed $289 $-1 #
edge $-1 $332 $290 $287 $333 forward #
point $-1 0.0625000000000005 -0.062499999999999972 0.49999999999999994 #
coedge $-1 $330 $326 $292 $316 forward $301 $-1 #
edge $-1 $319 $317 $315 $334 forward #
vertex $-1 $316 $335 #
straight-curve $-1 -0.0625000000000005 -0.062499999999999972 -0.49999999999999994 0 0 0.39370078740157477 I I #
vertex $-1 $316 $336 #
straight-curve $-1 -0.0625000000000005 0.062499999999999799 -0.49999999999999994 0 0 0.39370078740157477 I I #
vertex $-1 $297 $337 #
ellipse-curve $-1 0.34375000000000067 -0.34374999999999994 -0.49999999999999978 1.0691058840368783e-049 -5.2969951811176089e-033 1 0.062499999999999993 1.415762178961956e-082 -1.3363823550460976e-050 1 I I #
point $-1 0.28125000000000067 0.34374999999999994 -0.49999999999999978 #
point $-1 -0.40625000000000061 -0.34374999999999994 -0.49999999999999978 #
coedge $-1 $307 $306 $338 $339 reversed $267 $-1 #
coedge $-1 $315 $338 $309 $327 forward $301 $-1 #
edge $-1 $328 $319 $326 $340 forward #
vertex $-1 $327 $341 #
straight-curve $-1 0.0625000000000005 0.062499999999999799 -0.49999999999999994 0 0 0.39370078740157477 I I #
coedge $-1 $338 $315 $312 $331 forward $301 $-1 #
edge $-1 $317 $332 $330 $342 forward #
vertex $-1 $339 $343 #
straight-curve $-1 0.0625000000000005 -0.062499999999999972 -0.49999999999999994 0 0 0.39370078740157477 I I #
straight-curve $-1 -0.0625000000000005 -0.031249999999999986 -0.49999999999999989 0 -0.39370078740157477 -2.0854311736683496e-033 I I #
point $-1 -0.0625000000000005 -0.062499999999999972 -0.49999999999999994 #
point $-1 -0.0625000000000005 0.062499999999999799 -0.49999999999999994 #
point $-1 0.28125000000000067 -0.34374999999999994 -0.49999999999999978 #
coedge $-1 $326 $330 $325 $339 forward $301 $-1 #
edge $-1 $332 $328 $338 $344 forward #
straight-curve $-1 -0.03125000000000025 0.062499999999999799 -0.49999999999999989 -0.39370078740157477 0 4.2090782836097566e-050 I I #
point $-1 0.0625000000000005 0.062499999999999799 -0.49999999999999994 #
straight-curve $-1 0.03125000000000025 -0.062499999999999972 -0.49999999999999989 0.39370078740157477 0 -4.2090782836097566e-050 I I #
point $-1 0.0625000000000005 -0.062499999999999972 -0.49999999999999994 #
straight-curve $-1 0.0625000000000005 0.031249999999999899 -0.49999999999999989 0 0.39370078740157477 2.0854311736683496e-033 I I #
End-of-ACIS-data 