700 0 1 0           
29 Autodesk Inventor 6.2.0.12000 17 ASM 6.0.1.6021 NT 24 Thu Jan 03 17:21:24 2008 
25.399999999999999 9.9999999999999995e-007 1e-010 
body $-1 -1 $-1 $1 $-1 $-1 #
lump $-1 -1 $-1 $-1 $2 $0 #
shell $-1 -1 $-1 $-1 $-1 $3 $-1 $1 #
face $-1 -1 $-1 $4 $5 $2 $-1 $6 reversed single #
face $-1 -1 $-1 $7 $8 $2 $-1 $9 reversed single #
loop $-1 -1 $-1 $10 $11 $3 #
cone-surface $-1 -1 $-1 -0.19624999999999995 -1.3112870369588462e-016 -1.2199999999999998 1 -2.8578407559575397e-046 1.5453879983973502e-030 7.726939991986751e-032 0 -0.049999999999999996 1 I I 0 1 0.049999999999999996 forward I I I I #
face $-1 -1 $-1 $12 $13 $2 $-1 $14 forward single #
loop $-1 -1 $-1 $15 $16 $4 #
plane-surface $-1 -1 $-1 -0.21624999999999997 -2.1854783949314103e-017 -1.1600000000000001 1 -2.8578407559575397e-046 1.5453879983973502e-030 -6.0842047180998038e-031 0 0.39370078740157477 reverse_v I I I I #
loop $-1 -1 $-1 $-1 $17 $3 #
coedge $-1 -1 $-1 $11 $11 $18 $19 reversed $5 $-1 #
face $-1 -1 $-1 $20 $21 $2 $-1 $22 forward single #
loop $-1 -1 $-1 $-1 $23 $7 #
plane-surface $-1 -1 $-1 -0.19999999999999998 -0.12499999999999994 -0.95000000000000007 0 -1 3.1221119927591599e-016 0 1.229177949905181e-016 0.39370078740157477 reverse_v I I I I #
loop $-1 -1 $-1 $-1 $24 $4 #
coedge $-1 -1 $-1 $16 $16 $17 $25 forward $8 $-1 #
coedge $-1 -1 $-1 $17 $17 $16 $25 reversed $10 $-1 #
coedge $-1 -1 $-1 $18 $18 $11 $19 forward $26 $-1 #
edge $-1 -1 $-1 $27 -3.1415926535897931 $27 3.1415926535897931 $18 $28 forward @7 unknown #
face $-1 -1 $-1 $29 $30 $2 $-1 $31 forward single #
loop $-1 -1 $-1 $-1 $32 $12 #
plane-surface $-1 -1 $-1 -0.19999999999999998 -0.12500000000000008 -1.3699999999999999 0 -6.993530863780514e-016 -1 0.39370078740157477 0 0 reverse_v I I I I #
coedge $-1 -1 $-1 $33 $34 $35 $36 reversed $13 $-1 #
coedge $-1 -1 $-1 $37 $38 $39 $40 forward $15 $-1 #
edge $-1 -1 $-1 $41 -4.4164728055875933e-076 $41 6.2831853071795862 $16 $42 forward @7 unknown #
loop $-1 -1 $-1 $43 $18 $29 #
vertex $-1 -1 $-1 $19 $44 #
ellipse-curve $-1 -1 $-1 -0.18375 -1.3112870369588462e-016 -1.2199999999999998 -1 9.1249018549721697e-032 -1.4871934712610483e-030 7.726939991986751e-032 0 -0.049999999999999996 1 I I #
face $-1 -1 $-1 $45 $26 $2 $-1 $46 forward single #
loop $-1 -1 $-1 $-1 $47 $20 #
plane-surface $-1 -1 $-1 -0.19999999999999998 0.1249999999999999 -1.3699999999999999 0 1 -1.0407039975863862e-016 0 -4.0972598330172686e-017 -0.39370078740157477 reverse_v I I I I #
coedge $-1 -1 $-1 $48 $49 $50 $51 reversed $21 $-1 #
coedge $-1 -1 $-1 $52 $23 $53 $54 reversed $13 $-1 #
coedge $-1 -1 $-1 $23 $52 $48 $55 forward $13 $-1 #
coedge $-1 -1 $-1 $50 $56 $23 $36 forward $43 $-1 #
edge $-1 -1 $-1 $57 -1.0667999999999997 $58 0 $23 $59 forward @7 unknown #
coedge $-1 -1 $-1 $60 $24 $61 $62 forward $15 $-1 #
coedge $-1 -1 $-1 $24 $60 $63 $64 reversed $15 $-1 #
coedge $-1 -1 $-1 $65 $66 $24 $40 reversed $30 $-1 #
edge $-1 -1 $-1 $67 0 $68 1.0667999999999997 $39 $69 forward @7 unknown #
vertex $-1 -1 $-1 $25 $70 #
ellipse-curve $-1 -1 $-1 -0.21624999999999997 -1.3112870369588462e-016 -1.2199999999999998 1 -2.8578407559575397e-046 1.5453879983973502e-030 7.726939991986751e-032 0 -0.049999999999999996 1 I I #
loop $-1 -1 $-1 $-1 $35 $29 #
point $-1 -1 $-1 -0.18375 -1.2500567192677274e-016 -1.1699999999999999 #
face $-1 -1 $-1 $71 $72 $2 $-1 $73 reversed single #
plane-surface $-1 -1 $-1 -0.18375 -1.6391087961985577e-017 -1.1600000000000001 1 -9.1249018549721697e-032 1.4871934712610483e-030 -5.8550924065395596e-031 0 0.39370078740157477 reverse_v I I I I #
coedge $-1 -1 $-1 $66 $65 $74 $75 reversed $30 $-1 #
coedge $-1 -1 $-1 $61 $32 $34 $55 reversed $21 $-1 #
coedge $-1 -1 $-1 $32 $61 $66 $76 forward $21 $-1 #
coedge $-1 -1 $-1 $74 $35 $32 $51 forward $43 $-1 #
edge $-1 -1 $-1 $58 -0.63500000000000001 $77 0 $32 $78 forward @7 unknown #
coedge $-1 -1 $-1 $34 $33 $60 $79 reversed $13 $-1 #
coedge $-1 -1 $-1 $80 $63 $33 $54 forward $81 $-1 #
edge $-1 -1 $-1 $82 -0.29527499999999995 $57 -0.212725 $53 $83 forward @7 unknown #
edge $-1 -1 $-1 $84 -0.041274999999999951 $58 0.041275000000000006 $48 $85 forward @7 unknown #
coedge $-1 -1 $-1 $35 $74 $80 $86 reversed $43 $-1 #
vertex $-1 -1 $-1 $54 $87 #
vertex $-1 -1 $-1 $55 $88 #
straight-curve $-1 -1 $-1 -0.18375 -0.12500000000000008 -1.3699999999999999 0 -1.229177949905181e-016 -0.39370078740157477 F -1.0667999999999993 F 0 #
coedge $-1 -1 $-1 $38 $37 $52 $79 forward $15 $-1 #
coedge $-1 -1 $-1 $49 $48 $37 $62 reversed $21 $-1 #
edge $-1 -1 $-1 $68 0 $84 0.63500000000000001 $61 $89 forward @7 unknown #
coedge $-1 -1 $-1 $53 $90 $38 $64 forward $81 $-1 #
edge $-1 -1 $-1 $67 -0.31749999999999989 $82 0.31749999999999989 $63 $91 forward @7 unknown #
coedge $-1 -1 $-1 $47 $39 $90 $92 reversed $30 $-1 #
coedge $-1 -1 $-1 $39 $47 $49 $76 reversed $30 $-1 #
vertex $-1 -1 $-1 $64 $93 #
vertex $-1 -1 $-1 $76 $94 #
straight-curve $-1 -1 $-1 -0.21624999999999997 0.12499999999999994 -0.95000000000000007 0 -4.0972598330172686e-017 -0.39370078740157477 F 0 F 1.0667999999999997 #
point $-1 -1 $-1 -0.21624999999999997 -1.3112870369588462e-016 -1.2699999999999998 #
face $-1 -1 $-1 $95 $96 $2 $-1 $97 reversed single #
loop $-1 -1 $-1 $98 $99 $45 #
cone-surface $-1 -1 $-1 -0.003750000000000002 -4.3709567898628207e-017 -1.2500000000000002 -1 0 0 0 0 0.049999999999999996 1 I I 0 1 0.049999999999999996 forward I I I I #
coedge $-1 -1 $-1 $56 $50 $47 $75 forward $43 $-1 #
edge $-1 -1 $-1 $77 -1.0667999999999997 $100 0 $47 $101 forward @7 unknown #
edge $-1 -1 $-1 $68 -0.041274999999999951 $77 0.041275000000000006 $66 $102 forward @7 unknown #
vertex $-1 -1 $-1 $76 $103 #
straight-curve $-1 -1 $-1 -0.18375 0.1249999999999999 -1.3699999999999999 0 0.39370078740157477 -2.7533586077876039e-016 F -0.63500000000000001 F 0 #
edge $-1 -1 $-1 $84 0 $82 1.0667999999999997 $52 $104 forward @7 unknown #
coedge $-1 -1 $-1 $90 $53 $56 $86 forward $81 $-1 #
loop $-1 -1 $-1 $105 $63 $106 #
vertex $-1 -1 $-1 $64 $107 #
straight-curve $-1 -1 $-1 -0.099999999999999992 -0.12499999999999994 -0.95000000000000007 0.39370078740157477 0 0 I I #
vertex $-1 -1 $-1 $55 $108 #
straight-curve $-1 -1 $-1 -0.19999999999999998 -0.12500000000000008 -1.3699999999999999 0.39370078740157477 0 0 I I #
edge $-1 -1 $-1 $57 -0.31749999999999989 $100 0.31749999999999989 $80 $109 forward @7 unknown #
point $-1 -1 $-1 -0.18375 -0.12499999999999994 -0.95000000000000007 #
point $-1 -1 $-1 -0.18375 -0.12500000000000008 -1.3699999999999999 #
straight-curve $-1 -1 $-1 -0.21624999999999997 0.1249999999999999 -1.3699999999999999 0 -0.39370078740157477 2.7533586077876039e-016 F 0 F 0.63500000000000001 #
coedge $-1 -1 $-1 $63 $80 $65 $92 forward $81 $-1 #
straight-curve $-1 -1 $-1 -0.21624999999999997 -1.0927391974657052e-017 -0.95000000000000007 -1.1251341558887951e-046 -0.39370078740157477 0 I I #
edge $-1 -1 $-1 $100 0.212725 $67 0.29527499999999995 $90 $110 forward @7 unknown #
point $-1 -1 $-1 -0.21624999999999997 0.12499999999999994 -0.95000000000000007 #
point $-1 -1 $-1 -0.21624999999999997 0.1249999999999999 -1.3699999999999999 #
face $-1 -1 $-1 $111 $112 $2 $-1 $113 forward single #
loop $-1 -1 $-1 $114 $115 $71 #
plane-surface $-1 -1 $-1 -0.016249999999999997 -1.1200576774023479e-016 -1.1893939393939394 1 0 0 0 0 0.39370078740157477 reverse_v I I I I #
loop $-1 -1 $-1 $-1 $116 $45 #
coedge $-1 -1 $-1 $99 $99 $115 $117 reversed $72 $-1 #
vertex $-1 -1 $-1 $92 $118 #
straight-curve $-1 -1 $-1 -0.18375 0.12499999999999994 -0.95000000000000007 0 4.0972598330172686e-017 0.39370078740157477 F -1.0667999999999997 F 0 #
straight-curve $-1 -1 $-1 -0.19999999999999998 0.1249999999999999 -1.3699999999999999 0.39370078740157477 0 0 I I #
point $-1 -1 $-1 -0.18375 0.1249999999999999 -1.3699999999999999 #
straight-curve $-1 -1 $-1 -0.21624999999999997 -0.12500000000000008 -1.3699999999999999 0 1.229177949905181e-016 0.39370078740157477 F 0 F 1.0667999999999993 #
loop $-1 -1 $-1 $119 $120 $106 #
face $-1 -1 $-1 $121 $81 $2 $-1 $122 reversed single #
point $-1 -1 $-1 -0.21624999999999997 -0.12499999999999994 -0.95000000000000007 #
point $-1 -1 $-1 -0.21624999999999997 -0.12500000000000008 -1.3699999999999999 #
straight-curve $-1 -1 $-1 -0.18375 -8.1955439809927795e-018 -0.95000000000000007 3.5924810452646333e-032 0.39370078740157477 0 I I #
straight-curve $-1 -1 $-1 -0.099999999999999992 0.12499999999999994 -0.95000000000000007 -0.39370078740157477 0 0 I I #
face $-1 -1 $-1 $123 $124 $2 $-1 $125 forward single #
loop $-1 -1 $-1 $-1 $126 $95 #
plane-surface $-1 -1 $-1 0 -0.080000000000000002 -0.95000000000000007 0 -0.97560975609756106 0.21951219512195119 0 0.086422124063760306 0.3840983291722681 reverse_v I I I I #
loop $-1 -1 $-1 $-1 $127 $71 #
coedge $-1 -1 $-1 $115 $115 $99 $117 forward $96 $-1 #
coedge $-1 -1 $-1 $116 $116 $128 $129 reversed $98 $-1 #
edge $-1 -1 $-1 $130 -3.1415926535897931 $130 3.1415926535897931 $115 $131 forward @7 unknown #
point $-1 -1 $-1 -0.18375 0.12499999999999994 -0.95000000000000007 #
loop $-1 -1 $-1 $-1 $132 $106 #
coedge $-1 -1 $-1 $133 $134 $135 $136 forward $105 $-1 #
face $-1 -1 $-1 $137 $138 $2 $-1 $139 forward single #
plane-surface $-1 -1 $-1 0 0 -0.95000000000000007 0 0 1 0.39370078740157477 0 0 forward_v I I I I #
face $-1 -1 $-1 $140 $141 $2 $-1 $142 forward single #
loop $-1 -1 $-1 $-1 $143 $111 #
plane-surface $-1 -1 $-1 0 -0.12499999999999999 -1.1499999999999999 0 -1 1.0490296295670774e-015 0 4.1300379116814066e-016 0.39370078740157477 reverse_v I I I I #
coedge $-1 -1 $-1 $144 $145 $146 $147 reversed $112 $-1 #
coedge $-1 -1 $-1 $148 $135 $149 $150 forward $114 $-1 #
coedge $-1 -1 $-1 $128 $128 $116 $129 forward $151 $-1 #
edge $-1 -1 $-1 $152 0 $152 6.2831853071795862 $128 $153 forward @7 unknown #
vertex $-1 -1 $-1 $117 $154 #
ellipse-curve $-1 -1 $-1 -0.016249999999999997 -4.3709567898628207e-017 -1.2500000000000002 1 0 0 0 0 0.049999999999999996 1 I I #
coedge $-1 -1 $-1 $132 $132 $155 $156 reversed $119 $-1 #
coedge $-1 -1 $-1 $157 $120 $144 $158 forward $105 $-1 #
coedge $-1 -1 $-1 $120 $157 $159 $160 forward $105 $-1 #
coedge $-1 -1 $-1 $127 $161 $120 $136 reversed $114 $-1 #
edge $-1 -1 $-1 $162 -0.20320000000000016 $163 0.20319999999999988 $120 $164 forward @7 unknown #
face $-1 -1 $-1 $165 $166 $2 $-1 $167 reversed single #
loop $-1 -1 $-1 $168 $169 $121 #
cone-surface $-1 -1 $-1 0 0 0.5 0 0 1 -0.24999999999999997 0 0 1 I I 0 1 0.24999999999999997 forward I I I I #
face $-1 -1 $-1 $170 $171 $2 $-1 $172 forward single #
loop $-1 -1 $-1 $-1 $173 $123 #
plane-surface $-1 -1 $-1 0 -0.12500000000000025 -1.3999999999999999 0 -6.993530863780516e-016 -1 0.39370078740157477 0 0 reverse_v I I I I #
coedge $-1 -1 $-1 $174 $175 $176 $177 reversed $124 $-1 #
coedge $-1 -1 $-1 $178 $126 $133 $158 reversed $112 $-1 #
coedge $-1 -1 $-1 $126 $178 $174 $179 reversed $112 $-1 #
coedge $-1 -1 $-1 $176 $180 $126 $147 forward $181 $-1 #
edge $-1 -1 $-1 $182 0 $183 0.52070000000000005 $126 $184 forward @7 unknown #
coedge $-1 -1 $-1 $185 $127 $186 $187 forward $114 $-1 #
coedge $-1 -1 $-1 $159 $188 $127 $150 reversed $189 $-1 #
edge $-1 -1 $-1 $162 -0.52070000000000005 $190 0 $149 $191 forward @7 unknown #
loop $-1 -1 $-1 $181 $128 $192 #
vertex $-1 -1 $-1 $129 $193 #
ellipse-curve $-1 -1 $-1 0.016249999999999997 -4.3709567898628207e-017 -1.2500000000000002 -1 0 0 0 0 0.049999999999999996 1 I I #
point $-1 -1 $-1 -0.016249999999999997 -3.7586536129516318e-017 -1.3 #
coedge $-1 -1 $-1 $155 $155 $132 $156 forward $194 $-1 #
edge $-1 -1 $-1 $195 -3.1415926535897931 $195 3.1415926535897931 $155 $196 forward @7 unknown #
coedge $-1 -1 $-1 $134 $133 $180 $197 forward $105 $-1 #
edge $-1 -1 $-1 $163 -0.041274999999999999 $182 0.041274999999999999 $133 $198 forward @7 unknown #
coedge $-1 -1 $-1 $199 $149 $134 $160 reversed $189 $-1 #
edge $-1 -1 $-1 $200 -0.041274999999999999 $162 0.041274999999999999 $134 $201 forward @7 unknown #
coedge $-1 -1 $-1 $135 $202 $178 $203 forward $114 $-1 #
vertex $-1 -1 $-1 $136 $204 #
vertex $-1 -1 $-1 $136 $205 #
straight-curve $-1 -1 $-1 -0.016249999999999997 -5.6002883870117394e-017 -0.95000000000000007 0 -0.39370078740157477 0 I I #
face $-1 -1 $-1 $206 $207 $2 $-1 $208 reversed single #
loop $-1 -1 $-1 $209 $210 $137 #
plane-surface $-1 -1 $-1 0 0 0.90000000000000013 0 0 -1 -0.39370078740157477 0 0 forward_v I I I I #
loop $-1 -1 $-1 $-1 $211 $121 #
coedge $-1 -1 $-1 $169 $169 $212 $213 forward $138 $-1 #
face $-1 -1 $-1 $192 $189 $2 $-1 $214 forward single #
loop $-1 -1 $-1 $-1 $215 $140 #
plane-surface $-1 -1 $-1 0 0.12499999999999964 -1.4000000000000004 0 1 -1.3987061727561022e-015 0 -5.5067172155752048e-016 -0.39370078740157477 reverse_v I I I I #
coedge $-1 -1 $-1 $216 $217 $218 $219 reversed $141 $-1 #
coedge $-1 -1 $-1 $220 $143 $145 $179 forward $124 $-1 #
coedge $-1 -1 $-1 $143 $220 $216 $221 reversed $124 $-1 #
coedge $-1 -1 $-1 $218 $146 $143 $177 forward $181 $-1 #
edge $-1 -1 $-1 $183 0 $222 0.63499999999999979 $143 $223 forward @7 unknown #
coedge $-1 -1 $-1 $145 $144 $161 $203 reversed $112 $-1 #
edge $-1 -1 $-1 $183 -0.041274999999999999 $224 0.041274999999999999 $145 $225 forward @7 unknown #
coedge $-1 -1 $-1 $146 $226 $157 $197 reversed $181 $-1 #
loop $-1 -1 $-1 $-1 $146 $192 #
vertex $-1 -1 $-1 $158 $227 #
vertex $-1 -1 $-1 $179 $228 #
straight-curve $-1 -1 $-1 0.016249999999999997 -0.080000000000000002 -0.95000000000000007 0 -0.086422124063760306 -0.3840983291722681 F 0 F 0.52070000000000005 #
coedge $-1 -1 $-1 $202 $148 $229 $230 forward $114 $-1 #
coedge $-1 -1 $-1 $231 $232 $148 $187 reversed $171 $-1 #
edge $-1 -1 $-1 $190 -0.63500000000000023 $233 0 $186 $234 forward @7 unknown #
coedge $-1 -1 $-1 $149 $199 $231 $235 forward $189 $-1 #
loop $-1 -1 $-1 $-1 $199 $170 #
vertex $-1 -1 $-1 $235 $236 #
straight-curve $-1 -1 $-1 -0.016249999999999997 0.12499999999999999 -1.1499999999999999 0 0.086422124063760306 -0.3840983291722681 F -0.52070000000000005 F 0 #
face $-1 -1 $-1 $237 $151 $2 $-1 $238 forward single #
point $-1 -1 $-1 0.016249999999999997 -4.3709567898628207e-017 -1.2 #
loop $-1 -1 $-1 $239 $155 $240 #
vertex $-1 -1 $-1 $156 $241 #
ellipse-curve $-1 -1 $-1 0 0 -0.95000000000000007 0 0 1 0.24999999999999997 0 0 1 I I #
edge $-1 -1 $-1 $182 -0.20319999999999988 $200 0.20320000000000016 $157 $242 forward @7 unknown #
straight-curve $-1 -1 $-1 0 -0.080000000000000016 -0.95000000000000007 0.39370078740157477 0 0 I I #
coedge $-1 -1 $-1 $188 $159 $226 $243 reversed $189 $-1 #
vertex $-1 -1 $-1 $160 $244 #
straight-curve $-1 -1 $-1 0 0.080000000000000016 -0.95000000000000007 -0.39370078740157477 0 0 I I #
coedge $-1 -1 $-1 $161 $185 $220 $245 forward $114 $-1 #
edge $-1 -1 $-1 $224 -0.52070000000000005 $163 0 $178 $246 forward @7 unknown #
point $-1 -1 $-1 -0.016249999999999997 0.080000000000000002 -0.95000000000000007 #
point $-1 -1 $-1 -0.016249999999999997 -0.080000000000000002 -0.95000000000000007 #
face $-1 -1 $-1 $-1 $247 $2 $-1 $248 reversed single #
loop $-1 -1 $-1 $249 $250 $165 #
cone-surface $-1 -1 $-1 0 0 0.55000000000000004 0 0 -1 -0.39999999999999997 0 0 1 I I 0 1 0.39999999999999997 forward I I I I #
loop $-1 -1 $-1 $251 $252 $137 #
coedge $-1 -1 $-1 $253 $254 $255 $256 forward $166 $-1 #
coedge $-1 -1 $-1 $211 $211 $257 $258 reversed $168 $-1 #
coedge $-1 -1 $-1 $212 $212 $169 $213 reversed $251 $-1 #
edge $-1 -1 $-1 $259 -3.1415926535897931 $259 3.1415926535897931 $169 $260 forward @7 unknown #
plane-surface $-1 -1 $-1 0 0.12499999999999999 -1.1499999999999999 0 0.97560975609756106 0.21951219512195119 0 0.086422124063760306 -0.3840983291722681 reverse_v I I I I #
coedge $-1 -1 $-1 $232 $231 $261 $262 reversed $171 $-1 #
coedge $-1 -1 $-1 $229 $173 $175 $221 forward $141 $-1 #
coedge $-1 -1 $-1 $173 $229 $232 $263 reversed $141 $-1 #
coedge $-1 -1 $-1 $261 $176 $173 $219 forward $181 $-1 #
edge $-1 -1 $-1 $222 0 $264 0.63499999999999979 $173 $265 forward @7 unknown #
coedge $-1 -1 $-1 $175 $174 $202 $245 reversed $124 $-1 #
edge $-1 -1 $-1 $222 -0.041274999999999999 $266 0.041274999999999999 $175 $267 forward @7 unknown #
vertex $-1 -1 $-1 $221 $268 #
straight-curve $-1 -1 $-1 0.016249999999999997 -0.12499999999999999 -1.1499999999999999 0 -4.1300379116814066e-016 -0.39370078740157477 F 0 F 0.63499999999999979 #
vertex $-1 -1 $-1 $179 $269 #
straight-curve $-1 -1 $-1 0 -0.12499999999999999 -1.1499999999999999 -0.39370078740157477 0 0 I I #
coedge $-1 -1 $-1 $180 $261 $199 $243 forward $181 $-1 #
point $-1 -1 $-1 0.016249999999999997 -0.080000000000000002 -0.95000000000000007 #
point $-1 -1 $-1 0.016249999999999997 -0.12499999999999999 -1.1499999999999999 #
coedge $-1 -1 $-1 $217 $216 $185 $230 reversed $141 $-1 #
edge $-1 -1 $-1 $233 -0.63499999999999979 $266 0 $229 $270 forward @7 unknown #
coedge $-1 -1 $-1 $215 $186 $188 $235 reversed $171 $-1 #
coedge $-1 -1 $-1 $186 $215 $217 $263 forward $171 $-1 #
vertex $-1 -1 $-1 $263 $271 #
straight-curve $-1 -1 $-1 -0.016249999999999997 0.12499999999999964 -1.4000000000000004 0 -5.5067172155752048e-016 -0.39370078740157477 F -0.63500000000000023 F 0 #
edge $-1 -1 $-1 $272 -0.041274999999999999 $190 0.041274999999999999 $231 $273 forward @7 unknown #
point $-1 -1 $-1 -0.016249999999999997 0.12499999999999999 -1.1499999999999999 #
face $-1 -1 $-1 $274 $275 $2 $-1 $276 reversed single #
plane-surface $-1 -1 $-1 0.016249999999999997 -1.1200576774023479e-016 -1.1893939393939394 1 0 0 0 0 0.39370078740157477 reverse_v I I I I #
loop $-1 -1 $-1 $-1 $277 $240 #
face $-1 -1 $-1 $106 $194 $2 $-1 $278 forward single #
point $-1 -1 $-1 -0.24999999999999997 3.0615158845559425e-017 -0.95000000000000007 #
straight-curve $-1 -1 $-1 0.016249999999999997 -5.6002883870117394e-017 -0.95000000000000007 0 0.39370078740157477 0 I I #
edge $-1 -1 $-1 $272 0 $200 0.52070000000000005 $199 $279 forward @7 unknown #
point $-1 -1 $-1 0.016249999999999997 0.080000000000000002 -0.95000000000000007 #
edge $-1 -1 $-1 $266 -0.63499999999999979 $224 0 $220 $280 forward @7 unknown #
straight-curve $-1 -1 $-1 -0.016249999999999997 -0.080000000000000002 -0.95000000000000007 0 0.086422124063760306 0.3840983291722681 F -0.52070000000000005 F 0 #
loop $-1 -1 $-1 $281 $257 $206 #
plane-surface $-1 -1 $-1 0 0 0.5 0 0 -1 -0.39370078740157477 0 0 forward_v I I I I #
loop $-1 -1 $-1 $-1 $282 $165 #
coedge $-1 -1 $-1 $250 $250 $283 $284 reversed $207 $-1 #
loop $-1 -1 $-1 $-1 $212 $137 #
coedge $-1 -1 $-1 $285 $286 $287 $288 forward $209 $-1 #
coedge $-1 -1 $-1 $289 $210 $290 $291 forward $166 $-1 #
coedge $-1 -1 $-1 $210 $289 $292 $293 forward $166 $-1 #
coedge $-1 -1 $-1 $294 $295 $210 $256 reversed $296 $-1 #
edge $-1 -1 $-1 $297 -0.31749999999999989 $298 0.31749999999999989 $210 $299 forward @7 unknown #
coedge $-1 -1 $-1 $257 $257 $211 $258 forward $247 $-1 #
edge $-1 -1 $-1 $300 -3.1415926535897931 $300 3.1415926535897931 $257 $301 forward @7 unknown #
vertex $-1 -1 $-1 $213 $302 #
ellipse-curve $-1 -1 $-1 0 0 0.90000000000000013 0 0 -1 -0.24999999999999997 0 0 1 I I #
coedge $-1 -1 $-1 $226 $218 $215 $262 forward $181 $-1 #
edge $-1 -1 $-1 $264 0 $272 0.63500000000000023 $215 $303 forward @7 unknown #
edge $-1 -1 $-1 $264 -0.041274999999999999 $233 0.041274999999999999 $217 $304 forward @7 unknown #
vertex $-1 -1 $-1 $263 $305 #
straight-curve $-1 -1 $-1 0.016249999999999997 -0.12500000000000025 -1.3999999999999999 0 0.39370078740157477 -2.7533586077876044e-016 F 0 F 0.63499999999999979 #
vertex $-1 -1 $-1 $221 $306 #
straight-curve $-1 -1 $-1 0 -0.12500000000000025 -1.3999999999999999 -0.39370078740157477 0 0 I I #
point $-1 -1 $-1 0.016249999999999997 -0.12500000000000025 -1.3999999999999999 #
point $-1 -1 $-1 -0.016249999999999997 -0.12499999999999999 -1.1499999999999999 #
straight-curve $-1 -1 $-1 -0.016249999999999997 -0.12500000000000025 -1.3999999999999999 0 -0.39370078740157477 2.7533586077876044e-016 F -0.63499999999999979 F 0 #
point $-1 -1 $-1 -0.016249999999999997 0.12499999999999964 -1.4000000000000004 #
vertex $-1 -1 $-1 $235 $307 #
straight-curve $-1 -1 $-1 0 0.12499999999999999 -1.1499999999999999 -0.39370078740157477 0 0 I I #
face $-1 -1 $-1 $308 $309 $2 $-1 $310 reversed single #
loop $-1 -1 $-1 $311 $312 $237 #
cone-surface $-1 -1 $-1 -0.19624999999999995 -1.3112870369588462e-016 1.1699999999999997 -1 2.8578407559575397e-046 1.5453879983973502e-030 7.726939991986751e-032 0 0.049999999999999996 1 I I 0 1 0.049999999999999996 reversed I I I I #
coedge $-1 -1 $-1 $277 $277 $313 $314 reversed $239 $-1 #
cone-surface $-1 -1 $-1 0 0 -0.55000000000000004 0 0 -1 0.24999999999999997 0 0 1 I I 0 1 0.24999999999999997 forward I I I I #
straight-curve $-1 -1 $-1 0.016249999999999997 0.12499999999999999 -1.1499999999999999 0 -0.086422124063760306 0.3840983291722681 F 0 F 0.52070000000000005 #
straight-curve $-1 -1 $-1 -0.016249999999999997 -0.12499999999999999 -1.1499999999999999 0 4.1300379116814066e-016 0.39370078740157477 F -0.63499999999999979 F 0 #
loop $-1 -1 $-1 $-1 $283 $206 #
coedge $-1 -1 $-1 $282 $282 $315 $316 reversed $249 $-1 #
coedge $-1 -1 $-1 $283 $283 $250 $284 forward $281 $-1 #
edge $-1 -1 $-1 $317 -3.1415926535897931 $317 3.1415926535897931 $250 $318 forward @7 unknown #
coedge $-1 -1 $-1 $319 $252 $320 $321 forward $209 $-1 #
coedge $-1 -1 $-1 $252 $319 $322 $323 forward $209 $-1 #
coedge $-1 -1 $-1 $324 $325 $252 $288 reversed $326 $-1 #
edge $-1 -1 $-1 $327 -0.20319999999999988 $328 0.20320000000000016 $252 $329 forward @7 unknown #
coedge $-1 -1 $-1 $254 $253 $330 $331 forward $166 $-1 #
coedge $-1 -1 $-1 $332 $333 $253 $291 reversed $334 $-1 #
edge $-1 -1 $-1 $298 -0.29527499999999995 $335 -0.212725 $253 $336 forward @7 unknown #
coedge $-1 -1 $-1 $337 $338 $254 $293 reversed $339 $-1 #
edge $-1 -1 $-1 $340 0.212725 $297 0.29527499999999995 $254 $341 forward @7 unknown #
coedge $-1 -1 $-1 $342 $255 $338 $343 reversed $296 $-1 #
coedge $-1 -1 $-1 $255 $342 $332 $344 reversed $296 $-1 #
loop $-1 -1 $-1 $-1 $295 $274 #
vertex $-1 -1 $-1 $256 $345 #
vertex $-1 -1 $-1 $256 $346 #
straight-curve $-1 -1 $-1 -0.21624999999999997 -1.0927391974657052e-017 0.90000000000000013 1.1251341558887951e-046 0.39370078740157477 0 I I #
vertex $-1 -1 $-1 $258 $347 #
ellipse-curve $-1 -1 $-1 0 0 0.5 0 0 -1 -0.24999999999999997 0 0 1 I I #
point $-1 -1 $-1 0.24999999999999997 3.0615158845559425e-017 0.90000000000000013 #
straight-curve $-1 -1 $-1 0.016249999999999997 0.12499999999999964 -1.4000000000000004 0 5.5067172155752048e-016 0.39370078740157477 F 0 F 0.63500000000000023 #
straight-curve $-1 -1 $-1 0 0.12499999999999964 -1.4000000000000004 -0.39370078740157477 0 0 I I #
point $-1 -1 $-1 0.016249999999999997 0.12499999999999964 -1.4000000000000004 #
point $-1 -1 $-1 -0.016249999999999997 -0.12500000000000025 -1.3999999999999999 #
point $-1 -1 $-1 0.016249999999999997 0.12499999999999999 -1.1499999999999999 #
face $-1 -1 $-1 $348 $339 $2 $-1 $349 forward single #
loop $-1 -1 $-1 $296 $350 $274 #
plane-surface $-1 -1 $-1 -0.21624999999999997 -2.1854783949314103e-017 1.1100000000000003 1 -2.8578407559575397e-046 -1.5453879983973502e-030 -6.0842047180998038e-031 0 -0.39370078740157477 forward_v I I I I #
loop $-1 -1 $-1 $-1 $351 $237 #
coedge $-1 -1 $-1 $312 $312 $352 $353 reversed $275 $-1 #
coedge $-1 -1 $-1 $313 $313 $277 $314 forward $354 $-1 #
edge $-1 -1 $-1 $355 -3.1415926535897931 $355 3.1415926535897931 $313 $356 forward @7 unknown #
coedge $-1 -1 $-1 $315 $315 $282 $316 forward $357 $-1 #
edge $-1 -1 $-1 $358 -3.1415926535897931 $358 3.1415926535897931 $315 $359 forward @7 unknown #
vertex $-1 -1 $-1 $284 $360 #
ellipse-curve $-1 -1 $-1 0 0 0.5 0 0 1 -0.39999999999999997 0 0 1 I I #
coedge $-1 -1 $-1 $286 $285 $361 $362 forward $209 $-1 #
coedge $-1 -1 $-1 $363 $364 $285 $321 reversed $365 $-1 #
edge $-1 -1 $-1 $328 -0.041274999999999999 $366 0.041274999999999999 $285 $367 forward @7 unknown #
coedge $-1 -1 $-1 $368 $369 $286 $323 reversed $370 $-1 #
edge $-1 -1 $-1 $371 -0.041274999999999999 $327 0.041274999999999999 $286 $372 forward @7 unknown #
coedge $-1 -1 $-1 $373 $287 $369 $374 reversed $326 $-1 #
coedge $-1 -1 $-1 $287 $375 $363 $376 reversed $326 $-1 #
loop $-1 -1 $-1 $-1 $325 $377 #
vertex $-1 -1 $-1 $288 $378 #
vertex $-1 -1 $-1 $288 $379 #
straight-curve $-1 -1 $-1 -0.016249999999999997 -5.6002883870117394e-017 0.90000000000000013 0 0.39370078740157477 0 I I #
coedge $-1 -1 $-1 $380 $381 $289 $331 reversed $382 $-1 #
edge $-1 -1 $-1 $335 -0.31749999999999989 $340 0.31749999999999989 $289 $383 forward @7 unknown #
coedge $-1 -1 $-1 $384 $290 $295 $344 forward $334 $-1 #
coedge $-1 -1 $-1 $290 $384 $380 $385 forward $334 $-1 #
loop $-1 -1 $-1 $-1 $333 $386 #
vertex $-1 -1 $-1 $291 $387 #
straight-curve $-1 -1 $-1 -0.099999999999999992 0.12499999999999994 0.90000000000000013 0.39370078740157477 0 0 I I #
coedge $-1 -1 $-1 $388 $292 $381 $389 forward $339 $-1 #
coedge $-1 -1 $-1 $292 $388 $294 $343 forward $339 $-1 #
loop $-1 -1 $-1 $-1 $337 $308 #
vertex $-1 -1 $-1 $293 $390 #
straight-curve $-1 -1 $-1 -0.099999999999999992 -0.12499999999999994 0.90000000000000013 -0.39370078740157477 0 0 I I #
coedge $-1 -1 $-1 $295 $294 $391 $392 reversed $296 $-1 #
edge $-1 -1 $-1 $393 0 $297 1.0667999999999993 $338 $394 forward @7 unknown #
edge $-1 -1 $-1 $298 0 $395 1.0667999999999997 $332 $396 forward @7 unknown #
point $-1 -1 $-1 -0.21624999999999997 -0.12499999999999994 0.90000000000000013 #
point $-1 -1 $-1 -0.21624999999999997 0.12499999999999994 0.90000000000000013 #
point $-1 -1 $-1 0.24999999999999997 3.0615158845559425e-017 0.5 #
face $-1 -1 $-1 $386 $397 $2 $-1 $398 forward single #
plane-surface $-1 -1 $-1 -0.19999999999999998 -0.12499999999999994 0.90000000000000013 0 -1 -3.1221119927591599e-016 0 1.229177949905181e-016 -0.39370078740157477 forward_v I I I I #
coedge $-1 -1 $-1 $350 $350 $351 $399 forward $309 $-1 #
coedge $-1 -1 $-1 $351 $351 $350 $399 reversed $311 $-1 #
coedge $-1 -1 $-1 $352 $352 $312 $353 forward $400 $-1 #
edge $-1 -1 $-1 $401 -3.1415926535897931 $401 3.1415926535897931 $352 $402 forward @7 unknown #
loop $-1 -1 $-1 $403 $313 $404 #
vertex $-1 -1 $-1 $314 $405 #
ellipse-curve $-1 -1 $-1 0 0 -0.55000000000000004 0 0 1 0.24999999999999997 0 0 1 I I #
loop $-1 -1 $-1 $406 $315 $407 #
vertex $-1 -1 $-1 $316 $408 #
ellipse-curve $-1 -1 $-1 0 0 0.55000000000000004 0 0 -1 -0.39999999999999997 0 0 1 I I #
point $-1 -1 $-1 0.39999999999999997 4.8984254152895092e-017 0.5 #
coedge $-1 -1 $-1 $409 $410 $319 $362 reversed $411 $-1 #
edge $-1 -1 $-1 $366 -0.20320000000000016 $371 0.20319999999999988 $319 $412 forward @7 unknown #
coedge $-1 -1 $-1 $413 $320 $325 $376 forward $365 $-1 #
coedge $-1 -1 $-1 $320 $413 $409 $414 forward $365 $-1 #
loop $-1 -1 $-1 $-1 $364 $415 #
vertex $-1 -1 $-1 $321 $416 #
straight-curve $-1 -1 $-1 0 0.080000000000000016 0.90000000000000013 0.39370078740157477 0 0 I I #
coedge $-1 -1 $-1 $417 $322 $410 $418 forward $370 $-1 #
coedge $-1 -1 $-1 $322 $417 $324 $374 forward $370 $-1 #
loop $-1 -1 $-1 $-1 $368 $419 #
vertex $-1 -1 $-1 $323 $420 #
straight-curve $-1 -1 $-1 0 -0.080000000000000016 0.90000000000000013 -0.39370078740157477 0 0 I I #
coedge $-1 -1 $-1 $421 $324 $422 $423 reversed $326 $-1 #
edge $-1 -1 $-1 $424 -0.52070000000000005 $327 0 $369 $425 forward @7 unknown #
coedge $-1 -1 $-1 $325 $421 $426 $427 reversed $326 $-1 #
edge $-1 -1 $-1 $328 -0.52070000000000005 $428 0 $363 $429 forward @7 unknown #
face $-1 -1 $-1 $419 $430 $2 $-1 $431 reversed single #
point $-1 -1 $-1 -0.016249999999999997 -0.080000000000000002 0.90000000000000013 #
point $-1 -1 $-1 -0.016249999999999997 0.080000000000000002 0.90000000000000013 #
coedge $-1 -1 $-1 $432 $330 $333 $385 reversed $382 $-1 #
coedge $-1 -1 $-1 $330 $432 $337 $389 reversed $382 $-1 #
loop $-1 -1 $-1 $-1 $381 $433 #
straight-curve $-1 -1 $-1 -0.18375 -8.1955439809927795e-018 0.90000000000000013 -3.5924810452646333e-032 -0.39370078740157477 0 I I #
coedge $-1 -1 $-1 $333 $332 $434 $435 forward $334 $-1 #
edge $-1 -1 $-1 $436 -1.0667999999999997 $335 0 $333 $437 forward @7 unknown #
face $-1 -1 $-1 $433 $334 $2 $-1 $438 forward single #
point $-1 -1 $-1 -0.18375 0.12499999999999994 0.90000000000000013 #
coedge $-1 -1 $-1 $338 $337 $439 $440 reversed $339 $-1 #
edge $-1 -1 $-1 $340 -1.0667999999999993 $441 0 $337 $442 forward @7 unknown #
point $-1 -1 $-1 -0.18375 -0.12499999999999994 0.90000000000000013 #
coedge $-1 -1 $-1 $439 $434 $342 $392 forward $397 $-1 #
edge $-1 -1 $-1 $395 0 $393 0.63500000000000001 $391 $443 forward @7 unknown #
vertex $-1 -1 $-1 $440 $444 #
straight-curve $-1 -1 $-1 -0.21624999999999997 -0.12500000000000008 1.3199999999999998 0 1.229177949905181e-016 -0.39370078740157477 F 0 F 1.0667999999999993 #
vertex $-1 -1 $-1 $435 $445 #
straight-curve $-1 -1 $-1 -0.21624999999999997 0.12499999999999994 0.90000000000000013 0 -4.0972598330172686e-017 0.39370078740157477 F 0 F 1.0667999999999997 #
loop $-1 -1 $-1 $-1 $446 $348 #
plane-surface $-1 -1 $-1 -0.19999999999999998 -0.12500000000000008 1.3199999999999998 0 -6.993530863780514e-016 1 0.39370078740157477 0 0 forward_v I I I I #
edge $-1 -1 $-1 $447 4.4164728055875933e-076 $447 6.2831853071795862 $350 $448 forward @7 unknown #
loop $-1 -1 $-1 $382 $352 $433 #
vertex $-1 -1 $-1 $353 $449 #
ellipse-curve $-1 -1 $-1 -0.18375 -1.3112870369588462e-016 1.1699999999999997 -1 9.1249018549721697e-032 1.4871934712610483e-030 7.726939991986751e-032 0 0.049999999999999996 1 I I #
loop $-1 -1 $-1 $-1 $450 $404 #
face $-1 -1 $-1 $240 $354 $2 $-1 $451 forward single #
point $-1 -1 $-1 -0.24999999999999997 3.0615158845559425e-017 -0.55000000000000004 #
loop $-1 -1 $-1 $-1 $452 $407 #
face $-1 -1 $-1 $453 $357 $2 $-1 $454 reversed single #
point $-1 -1 $-1 0.39999999999999997 4.8984254152895092e-017 0.55000000000000004 #
coedge $-1 -1 $-1 $455 $361 $364 $414 reversed $411 $-1 #
coedge $-1 -1 $-1 $361 $456 $368 $418 reversed $411 $-1 #
loop $-1 -1 $-1 $-1 $410 $457 #
straight-curve $-1 -1 $-1 0.016249999999999997 -5.6002883870117394e-017 0.90000000000000013 0 -0.39370078740157477 0 I I #
coedge $-1 -1 $-1 $364 $363 $458 $459 reversed $365 $-1 #
edge $-1 -1 $-1 $460 0 $366 0.52070000000000005 $364 $461 forward @7 unknown #
face $-1 -1 $-1 $457 $365 $2 $-1 $462 forward single #
point $-1 -1 $-1 0.016249999999999997 0.080000000000000002 0.90000000000000013 #
coedge $-1 -1 $-1 $369 $368 $463 $464 forward $370 $-1 #
edge $-1 -1 $-1 $371 0 $465 0.52070000000000005 $368 $466 forward @7 unknown #
face $-1 -1 $-1 $467 $370 $2 $-1 $468 forward single #
point $-1 -1 $-1 0.016249999999999997 -0.080000000000000002 0.90000000000000013 #
coedge $-1 -1 $-1 $375 $373 $469 $470 reversed $326 $-1 #
coedge $-1 -1 $-1 $463 $471 $373 $423 forward $472 $-1 #
edge $-1 -1 $-1 $473 -0.63499999999999979 $424 0 $422 $474 forward @7 unknown #
vertex $-1 -1 $-1 $464 $475 #
straight-curve $-1 -1 $-1 -0.016249999999999997 -0.080000000000000002 0.90000000000000013 0 0.086422124063760306 -0.3840983291722681 F -0.52070000000000005 F 0 #
coedge $-1 -1 $-1 $476 $458 $375 $427 forward $477 $-1 #
edge $-1 -1 $-1 $428 -0.63500000000000023 $478 0 $426 $479 forward @7 unknown #
vertex $-1 -1 $-1 $459 $480 #
straight-curve $-1 -1 $-1 -0.016249999999999997 0.12499999999999999 1.1000000000000001 0 0.086422124063760306 0.3840983291722681 F -0.52070000000000005 F 0 #
loop $-1 -1 $-1 $326 $481 $377 #
plane-surface $-1 -1 $-1 -0.016249999999999997 -1.1200576774023479e-016 1.1393939393939396 1 0 0 0 0 -0.39370078740157477 forward_v I I I I #
coedge $-1 -1 $-1 $381 $380 $446 $482 reversed $382 $-1 #
face $-1 -1 $-1 $483 $400 $2 $-1 $484 forward single #
coedge $-1 -1 $-1 $391 $446 $384 $435 reversed $397 $-1 #
edge $-1 -1 $-1 $395 -0.041274999999999951 $436 0.041275000000000006 $384 $485 forward @7 unknown #
vertex $-1 -1 $-1 $435 $486 #
straight-curve $-1 -1 $-1 -0.18375 0.12499999999999994 0.90000000000000013 0 4.0972598330172686e-017 -0.39370078740157477 F -1.0667999999999997 F 0 #
plane-surface $-1 -1 $-1 -0.19999999999999998 0.1249999999999999 1.3200000000000001 0 1 1.0407039975863862e-016 0 -4.0972598330172686e-017 0.39370078740157477 forward_v I I I I #
coedge $-1 -1 $-1 $446 $391 $388 $440 forward $397 $-1 #
edge $-1 -1 $-1 $393 -0.041274999999999951 $441 0.041275000000000006 $439 $487 forward @7 unknown #
vertex $-1 -1 $-1 $440 $488 #
straight-curve $-1 -1 $-1 -0.18375 -0.12500000000000008 1.3199999999999998 0 -1.229177949905181e-016 0.39370078740157477 F -1.0667999999999993 F 0 #
straight-curve $-1 -1 $-1 -0.21624999999999997 0.1249999999999999 1.3200000000000001 0 -0.39370078740157477 -2.7533586077876039e-016 F 0 F 0.63500000000000001 #
point $-1 -1 $-1 -0.21624999999999997 -0.12500000000000008 1.3199999999999998 #
point $-1 -1 $-1 -0.21624999999999997 0.1249999999999999 1.3200000000000001 #
coedge $-1 -1 $-1 $434 $439 $432 $482 forward $397 $-1 #
vertex $-1 -1 $-1 $399 $489 #
ellipse-curve $-1 -1 $-1 -0.21624999999999997 -1.3112870369588462e-016 1.1699999999999997 1 -2.8578407559575397e-046 -1.5453879983973502e-030 7.726939991986751e-032 0 0.049999999999999996 1 I I #
point $-1 -1 $-1 -0.18375 -1.372517354649965e-016 1.1199999999999997 #
coedge $-1 -1 $-1 $450 $450 $490 $491 reversed $403 $-1 #
plane-surface $-1 -1 $-1 0 0 -0.55000000000000004 0 0 -1 -0.39370078740157477 0 0 forward_v I I I I #
coedge $-1 -1 $-1 $452 $452 $492 $493 reversed $406 $-1 #
face $-1 -1 $-1 $404 $494 $2 $-1 $495 forward single #
plane-surface $-1 -1 $-1 0 0 0.55000000000000004 0 0 -1 -0.39370078740157477 0 0 forward_v I I I I #
coedge $-1 -1 $-1 $496 $409 $497 $498 reversed $411 $-1 #
coedge $-1 -1 $-1 $410 $496 $499 $500 reversed $411 $-1 #
face $-1 -1 $-1 $501 $502 $2 $-1 $503 forward single #
coedge $-1 -1 $-1 $426 $497 $413 $459 forward $477 $-1 #
edge $-1 -1 $-1 $460 -0.041274999999999999 $428 0.041274999999999999 $458 $504 forward @7 unknown #
vertex $-1 -1 $-1 $459 $505 #
straight-curve $-1 -1 $-1 0.016249999999999997 0.12499999999999999 1.1000000000000001 0 -0.086422124063760306 -0.3840983291722681 F 0 F 0.52070000000000005 #
plane-surface $-1 -1 $-1 0 0.12499999999999999 1.1000000000000001 0 0.97560975609756106 -0.21951219512195119 0 0.086422124063760306 0.3840983291722681 forward_v I I I I #
coedge $-1 -1 $-1 $499 $422 $417 $464 reversed $472 $-1 #
edge $-1 -1 $-1 $465 -0.041274999999999999 $424 0.041274999999999999 $417 $506 forward @7 unknown #
vertex $-1 -1 $-1 $464 $507 #
straight-curve $-1 -1 $-1 0.016249999999999997 -0.080000000000000002 0.90000000000000013 0 -0.086422124063760306 0.3840983291722681 F 0 F 0.52070000000000005 #
face $-1 -1 $-1 $508 $472 $2 $-1 $509 forward single #
plane-surface $-1 -1 $-1 0 -0.080000000000000002 0.90000000000000013 0 -0.97560975609756106 -0.21951219512195119 0 0.086422124063760306 -0.3840983291722681 forward_v I I I I #
coedge $-1 -1 $-1 $510 $511 $421 $470 forward $512 $-1 #
edge $-1 -1 $-1 $478 -0.63499999999999979 $473 0 $469 $513 forward @7 unknown #
coedge $-1 -1 $-1 $422 $499 $510 $514 forward $472 $-1 #
loop $-1 -1 $-1 $-1 $499 $467 #
vertex $-1 -1 $-1 $514 $515 #
straight-curve $-1 -1 $-1 -0.016249999999999997 -0.12499999999999999 1.1000000000000001 0 4.1300379116814066e-016 -0.39370078740157477 F -0.63499999999999979 F 0 #
point $-1 -1 $-1 -0.016249999999999997 -0.12499999999999999 1.1000000000000001 #
coedge $-1 -1 $-1 $497 $426 $511 $516 reversed $477 $-1 #
loop $-1 -1 $-1 $-1 $497 $517 #
vertex $-1 -1 $-1 $516 $518 #
straight-curve $-1 -1 $-1 -0.016249999999999997 0.12499999999999964 1.3500000000000001 0 -5.5067172155752048e-016 0.39370078740157477 F -0.63500000000000023 F 0 #
point $-1 -1 $-1 -0.016249999999999997 0.12499999999999999 1.1000000000000001 #
coedge $-1 -1 $-1 $481 $481 $519 $520 forward $430 $-1 #
edge $-1 -1 $-1 $441 -0.63500000000000001 $436 0 $446 $521 forward @7 unknown #
face $-1 -1 $-1 $377 $522 $2 $-1 $523 reversed single #
plane-surface $-1 -1 $-1 -0.18375 -1.6391087961985577e-017 1.1100000000000003 1 -9.1249018549721697e-032 -1.4871934712610483e-030 -5.8550924065395596e-031 0 -0.39370078740157477 forward_v I I I I #
straight-curve $-1 -1 $-1 -0.19999999999999998 0.1249999999999999 1.3200000000000001 0.39370078740157477 0 0 I I #
point $-1 -1 $-1 -0.18375 0.1249999999999999 1.3200000000000001 #
straight-curve $-1 -1 $-1 -0.19999999999999998 -0.12500000000000008 1.3199999999999998 0.39370078740157477 0 0 I I #
point $-1 -1 $-1 -0.18375 -0.12500000000000008 1.3199999999999998 #
point $-1 -1 $-1 -0.21624999999999997 -1.3112870369588462e-016 1.2199999999999998 #
coedge $-1 -1 $-1 $490 $490 $450 $491 forward $494 $-1 #
edge $-1 -1 $-1 $524 -3.1415926535897931 $524 3.1415926535897931 $450 $525 forward @7 unknown #
coedge $-1 -1 $-1 $492 $492 $452 $493 forward $526 $-1 #
edge $-1 -1 $-1 $527 -3.1415926535897931 $527 3.1415926535897931 $452 $528 forward @7 unknown #
loop $-1 -1 $-1 $529 $490 $453 #
cone-surface $-1 -1 $-1 0 0 -0.52000000000000002 0 0 1 -0.46999999999999997 0 0 1 I I 0.70710678118654746 0.70710678118654746 0.46999999999999997 forward I I I I #
coedge $-1 -1 $-1 $456 $455 $530 $531 reversed $411 $-1 #
coedge $-1 -1 $-1 $458 $476 $455 $498 forward $477 $-1 #
edge $-1 -1 $-1 $532 0 $460 0.63500000000000023 $497 $533 forward @7 unknown #
coedge $-1 -1 $-1 $471 $463 $456 $500 forward $472 $-1 #
edge $-1 -1 $-1 $465 0 $534 0.63499999999999979 $499 $535 forward @7 unknown #
face $-1 -1 $-1 $536 $526 $2 $-1 $537 forward single #
loop $-1 -1 $-1 $411 $538 $457 #
plane-surface $-1 -1 $-1 0.016249999999999997 -1.1200576774023479e-016 1.1393939393939394 1 0 0 0 0 -0.39370078740157477 forward_v I I I I #
straight-curve $-1 -1 $-1 0 0.12499999999999999 1.1000000000000001 -0.39370078740157477 0 0 I I #
point $-1 -1 $-1 0.016249999999999997 0.12499999999999999 1.1000000000000001 #
straight-curve $-1 -1 $-1 0 -0.12499999999999999 1.1000000000000001 -0.39370078740157477 0 0 I I #
point $-1 -1 $-1 0.016249999999999997 -0.12499999999999999 1.1000000000000001 #
face $-1 -1 $-1 $517 $512 $2 $-1 $539 forward single #
plane-surface $-1 -1 $-1 0 -0.12499999999999999 1.1000000000000001 0 -1 -1.0490296295670774e-015 0 4.1300379116814066e-016 -0.39370078740157477 forward_v I I I I #
coedge $-1 -1 $-1 $530 $469 $471 $514 reversed $512 $-1 #
coedge $-1 -1 $-1 $469 $530 $476 $516 forward $512 $-1 #
loop $-1 -1 $-1 $-1 $530 $508 #
straight-curve $-1 -1 $-1 -0.016249999999999997 -0.12500000000000025 1.3500000000000001 0 -0.39370078740157477 -2.7533586077876044e-016 F -0.63499999999999979 F 0 #
edge $-1 -1 $-1 $534 -0.041274999999999999 $473 0.041274999999999999 $471 $540 forward @7 unknown #
point $-1 -1 $-1 -0.016249999999999997 -0.12500000000000025 1.3500000000000001 #
edge $-1 -1 $-1 $532 -0.041274999999999999 $478 0.041274999999999999 $511 $541 forward @7 unknown #
face $-1 -1 $-1 $415 $477 $2 $-1 $542 forward single #
point $-1 -1 $-1 -0.016249999999999997 0.12499999999999964 1.3500000000000001 #
coedge $-1 -1 $-1 $519 $519 $481 $520 reversed $522 $-1 #
edge $-1 -1 $-1 $543 -3.1415926535897931 $543 3.1415926535897931 $481 $544 forward @7 unknown #
straight-curve $-1 -1 $-1 -0.18375 0.1249999999999999 1.3200000000000001 0 0.39370078740157477 2.7533586077876039e-016 F -0.63500000000000001 F 0 #
loop $-1 -1 $-1 $545 $519 $483 #
cone-surface $-1 -1 $-1 -0.003750000000000002 -4.3709567898628207e-017 1.2000000000000002 1 0 0 0 0 -0.049999999999999996 1 I I 0 1 0.049999999999999996 reversed I I I I #
vertex $-1 -1 $-1 $491 $546 #
ellipse-curve $-1 -1 $-1 0 0 -0.55000000000000004 0 0 1 -0.43999999999999995 0 0 1 I I #
loop $-1 -1 $-1 $547 $492 $501 #
vertex $-1 -1 $-1 $493 $548 #
ellipse-curve $-1 -1 $-1 0 0 0.55000000000000004 0 0 -1 -0.46999999999999997 0 0 1 I I #
loop $-1 -1 $-1 $-1 $549 $453 #
coedge $-1 -1 $-1 $511 $510 $496 $531 forward $512 $-1 #
edge $-1 -1 $-1 $534 0 $532 0.63499999999999979 $530 $550 forward @7 unknown #
vertex $-1 -1 $-1 $516 $551 #
straight-curve $-1 -1 $-1 0.016249999999999997 0.12499999999999964 1.3500000000000001 0 5.5067172155752048e-016 -0.39370078740157477 F 0 F 0.63500000000000023 #
vertex $-1 -1 $-1 $514 $552 #
straight-curve $-1 -1 $-1 0.016249999999999997 -0.12499999999999999 1.1000000000000001 0 -4.1300379116814066e-016 0.39370078740157477 F 0 F 0.63499999999999979 #
face $-1 -1 $-1 $407 $553 $2 $-1 $554 forward single #
cone-surface $-1 -1 $-1 0 0 0.48999999999999999 0 0 -1 -0.48499999999999993 0 0 1 I I 0.24253562503633316 0.97014250014533188 0.48499999999999993 forward I I I I #
coedge $-1 -1 $-1 $538 $538 $555 $556 forward $502 $-1 #
plane-surface $-1 -1 $-1 0 -0.12500000000000025 1.3500000000000001 0 -6.993530863780516e-016 1 0.39370078740157477 0 0 forward_v I I I I #
straight-curve $-1 -1 $-1 0 -0.12500000000000025 1.3500000000000001 -0.39370078740157477 0 0 I I #
straight-curve $-1 -1 $-1 0 0.12499999999999964 1.3500000000000001 -0.39370078740157477 0 0 I I #
plane-surface $-1 -1 $-1 0 0.12499999999999964 1.3500000000000001 0 1 1.3987061727561022e-015 0 -5.5067172155752048e-016 0.39370078740157477 forward_v I I I I #
vertex $-1 -1 $-1 $520 $557 #
ellipse-curve $-1 -1 $-1 -0.016249999999999997 -4.3709567898628207e-017 1.2000000000000002 1 0 0 0 0 -0.049999999999999996 1 I I #
loop $-1 -1 $-1 $-1 $555 $483 #
point $-1 -1 $-1 0.43999999999999995 5.3882679568184589e-017 -0.55000000000000004 #
loop $-1 -1 $-1 $-1 $558 $501 #
point $-1 -1 $-1 0.46999999999999997 -5.755649862965172e-017 0.55000000000000004 #
coedge $-1 -1 $-1 $549 $549 $559 $560 forward $529 $-1 #
straight-curve $-1 -1 $-1 0.016249999999999997 -0.12500000000000025 1.3500000000000001 0 0.39370078740157477 2.7533586077876044e-016 F 0 F 0.63499999999999979 #
point $-1 -1 $-1 0.016249999999999997 0.12499999999999964 1.3500000000000001 #
point $-1 -1 $-1 0.016249999999999997 -0.12500000000000025 1.3500000000000001 #
loop $-1 -1 $-1 $561 $559 $536 #
cone-surface $-1 -1 $-1 0 0 0 0 0 1 -0.49999999999999994 0 0 1 I I 0 1 0.49999999999999994 forward I I I I #
coedge $-1 -1 $-1 $555 $555 $538 $556 reversed $545 $-1 #
edge $-1 -1 $-1 $562 0 $562 6.2831853071795862 $538 $563 forward @7 unknown #
point $-1 -1 $-1 -0.016249999999999997 -4.9832599667740095e-017 1.2500000000000002 #
coedge $-1 -1 $-1 $558 $558 $564 $565 forward $547 $-1 #
coedge $-1 -1 $-1 $559 $559 $549 $560 reversed $553 $-1 #
edge $-1 -1 $-1 $566 -3.1415926535897931 $566 3.1415926535897931 $559 $567 forward @7 unknown #
loop $-1 -1 $-1 $-1 $564 $536 #
vertex $-1 -1 $-1 $556 $568 #
ellipse-curve $-1 -1 $-1 0.016249999999999997 -4.3709567898628207e-017 1.2000000000000002 -1 0 0 0 0 -0.049999999999999996 1 I I #
coedge $-1 -1 $-1 $564 $564 $558 $565 reversed $561 $-1 #
edge $-1 -1 $-1 $569 -3.1415926535897931 $569 3.1415926535897931 $564 $570 forward @7 unknown #
vertex $-1 -1 $-1 $560 $571 #
ellipse-curve $-1 -1 $-1 0 0 -0.48999999999999999 0 0 -1 -0.49999999999999994 0 0 1 I I #
point $-1 -1 $-1 0.016249999999999997 -4.3709567898628207e-017 1.1499999999999999 #
vertex $-1 -1 $-1 $565 $572 #
ellipse-curve $-1 -1 $-1 0 0 0.43000000000000005 0 0 1 -0.49999999999999994 0 0 1 I I #
point $-1 -1 $-1 0.49999999999999994 -6.1230317691118851e-017 -0.48999999999999999 #
point $-1 -1 $-1 0.49999999999999994 6.1230317691118851e-017 0.43000000000000005 #
End-of-ACIS-data 