700 0 1 0           
29 Autodesk Inventor 6.2.0.12000 17 ASM 6.0.1.6021 NT 24 Sat Dec 20 16:34:14 2008 
25.399999999999999 9.9999999999999995e-007 1e-010 
body $-1 -1 $-1 $1 $-1 $-1 #
lump $-1 -1 $-1 $-1 $2 $0 #
shell $-1 -1 $-1 $-1 $-1 $3 $-1 $1 #
face $-1 -1 $-1 $4 $5 $2 $-1 $6 forward single #
face $-1 -1 $-1 $7 $8 $2 $-1 $9 reversed single #
loop $-1 -1 $-1 $10 $11 $3 #
cone-surface $-1 -1 $-1 -0.22097086912079605 -0.22097086912079614 0.12249999999999994 0 0 1 -1.1435297153639115e-017 -0.051500000000000011 0 1 I I -0.7071067811865418 -0.70710678118655335 0.051500000000000011 forward I I I I #
face $-1 -1 $-1 $12 $13 $2 $-1 $14 reversed single #
loop $-1 -1 $-1 $15 $16 $4 #
plane-surface $-1 -1 $-1 0 0 0.12499999999999999 0 0 -1 -0.39370078740157477 0 0 forward_v I I I I #
loop $-1 -1 $-1 $-1 $17 $3 #
coedge $-1 -1 $-1 $11 $11 $18 $19 forward $5 $-1 #
face $-1 -1 $-1 $20 $21 $2 $-1 $22 forward single #
loop $-1 -1 $-1 $23 $24 $7 #
cone-surface $-1 -1 $-1 -0.22097086912079605 -0.22097086912079614 -1.1374381172952599 0 0 1 1.0880185641326533e-017 0.048999999999999995 0 1 I I 0 1 0.048999999999999995 reversed I I I I #
loop $-1 -1 $-1 $25 $26 $4 #
coedge $-1 -1 $-1 $16 $16 $27 $28 reversed $8 $-1 #
coedge $-1 -1 $-1 $17 $17 $29 $30 forward $10 $-1 #
coedge $-1 -1 $-1 $18 $18 $11 $19 reversed $23 $-1 #
edge $-1 -1 $-1 $31 -3.1415926535897931 $31 3.1415926535897931 $18 $32 forward @7 unknown #
face $-1 -1 $-1 $33 $34 $2 $-1 $35 reversed single #
loop $-1 -1 $-1 $36 $37 $12 #
cone-surface $-1 -1 $-1 0.22097086912079605 0.22097086912079614 0.12249999999999994 0 0 1 1.1435297153639115e-017 0.051500000000000011 0 1 I I -0.7071067811865418 -0.70710678118655335 0.051500000000000011 forward I I I I #
loop $-1 -1 $-1 $-1 $18 $7 #
coedge $-1 -1 $-1 $24 $24 $38 $39 reversed $13 $-1 #
loop $-1 -1 $-1 $40 $41 $4 #
coedge $-1 -1 $-1 $26 $26 $42 $43 reversed $15 $-1 #
coedge $-1 -1 $-1 $27 $27 $16 $28 forward $36 $-1 #
edge $-1 -1 $-1 $44 -3.1415926535897931 $44 3.1415926535897931 $16 $45 forward @7 unknown #
coedge $-1 -1 $-1 $29 $29 $17 $30 reversed $46 $-1 #
edge $-1 -1 $-1 $47 -3.1415926535897931 $47 3.1415926535897931 $29 $48 forward @7 unknown #
vertex $-1 -1 $-1 $19 $49 #
ellipse-curve $-1 -1 $-1 -0.22097086912079605 -0.22097086912079614 0.11999999999999988 0 0 -1 -1.0880185641326533e-017 -0.048999999999999995 0 1 I I #
face $-1 -1 $-1 $50 $51 $2 $-1 $52 forward single #
loop $-1 -1 $-1 $53 $54 $20 #
cone-surface $-1 -1 $-1 0.22097086912079605 0.22097086912079614 -1.1374381172952599 0 0 1 -1.0880185641326533e-017 -0.048999999999999995 0 1 I I 0 1 0.048999999999999995 reversed I I I I #
loop $-1 -1 $-1 $-1 $27 $12 #
coedge $-1 -1 $-1 $37 $37 $55 $56 forward $21 $-1 #
coedge $-1 -1 $-1 $38 $38 $24 $39 forward $57 $-1 #
edge $-1 -1 $-1 $58 -3.1415926535897931 $58 3.1415926535897931 $24 $59 forward @7 unknown #
loop $-1 -1 $-1 $60 $61 $4 #
coedge $-1 -1 $-1 $41 $41 $62 $63 forward $25 $-1 #
coedge $-1 -1 $-1 $42 $42 $26 $43 forward $64 $-1 #
edge $-1 -1 $-1 $65 -3.1415926535897931 $65 3.1415926535897931 $26 $66 forward @7 unknown #
vertex $-1 -1 $-1 $28 $67 #
ellipse-curve $-1 -1 $-1 0.22097086912079605 0.22097086912079614 0.12499999999999999 0 0 1 1.1990408665951695e-017 0.05400000000000002 0 1 I I #
loop $-1 -1 $-1 $-1 $29 $4 #
vertex $-1 -1 $-1 $30 $68 #
ellipse-curve $-1 -1 $-1 -0.22097086912079605 -0.22097086912079614 0.12499999999999999 0 0 1 -1.1990408665951695e-017 -0.05400000000000002 0 1 I I #
point $-1 -1 $-1 -0.22097086912079605 -0.17197086912079612 0.11999999999999988 #
face $-1 -1 $-1 $69 $70 $2 $-1 $71 reversed single #
loop $-1 -1 $-1 $72 $73 $33 #
cone-surface $-1 -1 $-1 0.22097086912079614 -0.22097086912079605 0.12249999999999994 0 0 1 0.051500000000000011 -6.3067227221852442e-018 0 1 I I -0.7071067811865418 -0.70710678118655335 0.051500000000000011 forward I I I I #
loop $-1 -1 $-1 $-1 $55 $20 #
coedge $-1 -1 $-1 $54 $54 $74 $75 reversed $34 $-1 #
coedge $-1 -1 $-1 $55 $55 $37 $56 reversed $53 $-1 #
edge $-1 -1 $-1 $76 -3.1415926535897931 $76 3.1415926535897931 $55 $77 forward @7 unknown #
loop $-1 -1 $-1 $78 $38 $79 #
vertex $-1 -1 $-1 $39 $80 #
ellipse-curve $-1 -1 $-1 -0.22097086912079605 -0.22097086912079614 -0.11999999999999988 0 0 1 1.0880185641326533e-017 0.048999999999999995 0 1 I I #
loop $-1 -1 $-1 $46 $81 $4 #
coedge $-1 -1 $-1 $82 $83 $84 $85 reversed $40 $-1 #
coedge $-1 -1 $-1 $62 $62 $41 $63 reversed $86 $-1 #
edge $-1 -1 $-1 $87 0 $87 6.2831853071795862 $41 $88 forward @7 unknown #
loop $-1 -1 $-1 $-1 $42 $69 #
vertex $-1 -1 $-1 $43 $89 #
ellipse-curve $-1 -1 $-1 -0.22097086912079617 0.220970869120796 0.12499999999999999 0 0 1 -0.05400000000000002 0 0 1 I I #
point $-1 -1 $-1 0.22097086912079605 0.16697086912079612 0.12499999999999999 #
point $-1 -1 $-1 -0.22097086912079605 -0.16697086912079612 0.12499999999999999 #
face $-1 -1 $-1 $90 $91 $2 $-1 $92 forward single #
loop $-1 -1 $-1 $93 $94 $50 #
cone-surface $-1 -1 $-1 0.22097086912079614 -0.22097086912079605 -1.1374381172952599 0 0 1 -0.048999999999999995 6.0005711337296487e-018 0 1 I I 0 1 0.048999999999999995 reversed I I I I #
loop $-1 -1 $-1 $-1 $95 $33 #
coedge $-1 -1 $-1 $73 $73 $96 $97 forward $51 $-1 #
coedge $-1 -1 $-1 $74 $74 $54 $75 forward $98 $-1 #
edge $-1 -1 $-1 $99 -3.1415926535897931 $99 3.1415926535897931 $54 $100 forward @7 unknown #
vertex $-1 -1 $-1 $56 $101 #
ellipse-curve $-1 -1 $-1 0.22097086912079605 0.22097086912079614 0.11999999999999988 0 0 -1 1.0880185641326533e-017 0.048999999999999995 0 1 I I #
loop $-1 -1 $-1 $-1 $102 $79 #
face $-1 -1 $-1 $103 $57 $2 $-1 $104 forward single #
point $-1 -1 $-1 -0.22097086912079605 -0.26997086912079615 -0.11999999999999988 #
coedge $-1 -1 $-1 $81 $81 $95 $105 reversed $60 $-1 #
coedge $-1 -1 $-1 $106 $61 $107 $108 forward $40 $-1 #
coedge $-1 -1 $-1 $61 $109 $110 $111 forward $40 $-1 #
coedge $-1 -1 $-1 $112 $113 $61 $85 forward $114 $-1 #
edge $-1 -1 $-1 $115 1.6660351729272493 $116 3.0463538074574408 $61 $117 forward @7 unknown #
loop $-1 -1 $-1 $118 $62 $119 #
vertex $-1 -1 $-1 $63 $120 #
ellipse-curve $-1 -1 $-1 0 0 0.12499999999999999 0 0 -1 0.10849999999999999 0 0 1 I I #
point $-1 -1 $-1 -0.16697086912079614 0.220970869120796 0.12499999999999999 #
face $-1 -1 $-1 $121 $122 $2 $-1 $123 reversed single #
loop $-1 -1 $-1 $64 $124 $69 #
cone-surface $-1 -1 $-1 -0.22097086912079617 0.220970869120796 0.12249999999999994 0 0 1 -0.051500000000000011 0 0 1 I I -0.7071067811865418 -0.70710678118655335 0.051500000000000011 forward I I I I #
loop $-1 -1 $-1 $-1 $96 $50 #
coedge $-1 -1 $-1 $94 $94 $125 $126 reversed $70 $-1 #
coedge $-1 -1 $-1 $95 $95 $81 $105 forward $72 $-1 #
coedge $-1 -1 $-1 $96 $96 $73 $97 reversed $93 $-1 #
edge $-1 -1 $-1 $127 -3.1415926535897931 $127 3.1415926535897931 $96 $128 forward @7 unknown #
loop $-1 -1 $-1 $129 $74 $130 #
vertex $-1 -1 $-1 $75 $131 #
ellipse-curve $-1 -1 $-1 0.22097086912079605 0.22097086912079614 -0.11999999999999988 0 0 1 -1.0880185641326533e-017 -0.048999999999999995 0 1 I I #
point $-1 -1 $-1 0.22097086912079605 0.17197086912079612 0.11999999999999988 #
coedge $-1 -1 $-1 $102 $102 $132 $133 forward $78 $-1 #
face $-1 -1 $-1 $134 $135 $2 $-1 $136 forward single #
cone-surface $-1 -1 $-1 -0.22097086912079605 -0.22097086912079614 -0.12249999999999994 0 0 -1 1.1435297153639112e-017 0.051499999999999997 0 1 I I -0.70710678118654013 -0.7071067811865549 0.051499999999999997 forward I I I I #
edge $-1 -1 $-1 $137 -3.1415926535897931 $137 3.1415926535897931 $81 $138 forward @7 unknown #
coedge $-1 -1 $-1 $139 $82 $140 $141 reversed $40 $-1 #
coedge $-1 -1 $-1 $142 $142 $82 $108 reversed $143 $-1 #
edge $-1 -1 $-1 $115 -1.2355217449908154 $144 4.3771143985806082 $82 $145 forward @7 unknown #
coedge $-1 -1 $-1 $83 $146 $147 $148 reversed $40 $-1 #
coedge $-1 -1 $-1 $149 $149 $83 $111 reversed $150 $-1 #
edge $-1 -1 $-1 $151 -1.2355217449908154 $116 4.3771143985806082 $83 $152 forward @7 unknown #
coedge $-1 -1 $-1 $147 $84 $149 $153 forward $114 $-1 #
coedge $-1 -1 $-1 $84 $140 $142 $154 forward $114 $-1 #
loop $-1 -1 $-1 $155 $156 $121 #
vertex $-1 -1 $-1 $108 $157 #
vertex $-1 -1 $-1 $85 $158 #
ellipse-curve $-1 -1 $-1 0 0 0.12499999999999999 0 0 -1 0.4325 0 0 1 I I #
loop $-1 -1 $-1 $-1 $159 $119 #
face $-1 -1 $-1 $-1 $86 $2 $-1 $160 reversed single #
point $-1 -1 $-1 0.10849999999999999 0 0.12499999999999999 #
face $-1 -1 $-1 $161 $114 $2 $-1 $162 forward single #
loop $-1 -1 $-1 $163 $164 $90 #
cone-surface $-1 -1 $-1 -0.22097086912079617 0.220970869120796 -1.1374381172952599 0 0 1 0.048999999999999995 0 0 1 I I 0 1 0.048999999999999995 reversed I I I I #
coedge $-1 -1 $-1 $124 $124 $165 $166 forward $91 $-1 #
coedge $-1 -1 $-1 $125 $125 $94 $126 forward $167 $-1 #
edge $-1 -1 $-1 $168 -3.1415926535897931 $168 3.1415926535897931 $94 $169 forward @7 unknown #
vertex $-1 -1 $-1 $97 $170 #
ellipse-curve $-1 -1 $-1 0.22097086912079614 -0.22097086912079605 0.11999999999999988 0 0 -1 0.048999999999999995 -6.0005711337296487e-018 0 1 I I #
loop $-1 -1 $-1 $-1 $171 $130 #
face $-1 -1 $-1 $172 $98 $2 $-1 $173 forward single #
point $-1 -1 $-1 0.22097086912079605 0.26997086912079615 -0.11999999999999988 #
coedge $-1 -1 $-1 $132 $132 $102 $133 reversed $174 $-1 #
edge $-1 -1 $-1 $175 -3.1415926535897931 $175 3.1415926535897931 $132 $176 forward @7 unknown #
face $-1 -1 $-1 $177 $178 $2 $-1 $179 reversed single #
loop $-1 -1 $-1 $180 $181 $103 #
cone-surface $-1 -1 $-1 0 0.31249999999999994 -0.12249999999999994 0 0 -1 0.064999999999999988 0 0 1 I I -0.7071067811865398 -0.70710678118655523 0.064999999999999988 forward I I I I #
vertex $-1 -1 $-1 $105 $182 #
ellipse-curve $-1 -1 $-1 0.22097086912079614 -0.22097086912079605 0.12499999999999999 0 0 1 0.05400000000000002 -6.6128743106408397e-018 0 1 I I #
coedge $-1 -1 $-1 $183 $106 $184 $185 forward $40 $-1 #
coedge $-1 -1 $-1 $113 $186 $106 $141 forward $114 $-1 #
edge $-1 -1 $-1 $187 0.095238846132352895 $144 1.475557480662544 $106 $188 forward @7 unknown #
coedge $-1 -1 $-1 $107 $107 $113 $154 reversed $143 $-1 #
loop $-1 -1 $-1 $-1 $142 $161 #
vertex $-1 -1 $-1 $141 $189 #
ellipse-curve $-1 -1 $-1 -3.8268948556949283e-017 -0.31249999999999994 0.12499999999999999 0 0 -1 -0.12499999999999999 1.5307579422779716e-017 0 1 I I #
coedge $-1 -1 $-1 $109 $183 $190 $191 forward $40 $-1 #
coedge $-1 -1 $-1 $156 $112 $109 $148 forward $114 $-1 #
edge $-1 -1 $-1 $151 -3.0463538074574403 $192 -1.6660351729272493 $109 $193 forward @7 unknown #
coedge $-1 -1 $-1 $110 $110 $112 $153 reversed $150 $-1 #
loop $-1 -1 $-1 $194 $149 $195 #
vertex $-1 -1 $-1 $111 $196 #
ellipse-curve $-1 -1 $-1 -0.31249999999999994 6.9388939039072271e-017 0.12499999999999999 0 0 -1 2.775557561562891e-017 0.12499999999999999 0 1 I I #
edge $-1 -1 $-1 $116 1.943811635425942 $151 2.1502768874063669 $149 $197 forward @7 unknown #
edge $-1 -1 $-1 $144 1.4200833851876196 $115 1.6265486371680447 $142 $198 forward @7 unknown #
loop $-1 -1 $-1 $-1 $199 $121 #
coedge $-1 -1 $-1 $200 $147 $201 $202 forward $114 $-1 #
point $-1 -1 $-1 -0.041128559420431705 -0.43054000000000003 0.12499999999999999 #
point $-1 -1 $-1 -0.43054000000000003 -0.04112855942043156 0.12499999999999999 #
coedge $-1 -1 $-1 $159 $159 $203 $204 reversed $118 $-1 #
cone-surface $-1 -1 $-1 0 0 0.062499999999999993 0 0 1 0.10849999999999999 0 0 1 I I 0 1 0.10849999999999999 reversed I I I I #
face $-1 -1 $-1 $205 $206 $2 $-1 $207 reversed single #
cone-surface $-1 -1 $-1 0 0 0.1225 0 0 -1 0.43500000000000005 0 0 1 I I 0.70710678118654602 0.70710678118654913 0.43500000000000005 forward I I I I #
loop $-1 -1 $-1 $-1 $165 $90 #
coedge $-1 -1 $-1 $164 $164 $208 $209 reversed $122 $-1 #
coedge $-1 -1 $-1 $165 $165 $124 $166 reversed $163 $-1 #
edge $-1 -1 $-1 $210 -3.1415926535897931 $210 3.1415926535897931 $165 $211 forward @7 unknown #
loop $-1 -1 $-1 $212 $125 $177 #
vertex $-1 -1 $-1 $126 $213 #
ellipse-curve $-1 -1 $-1 0.22097086912079614 -0.22097086912079605 -0.11999999999999988 0 0 1 -0.048999999999999995 6.0005711337296487e-018 0 1 I I #
point $-1 -1 $-1 0.17197086912079612 -0.22097086912079605 0.11999999999999988 #
coedge $-1 -1 $-1 $171 $171 $214 $215 forward $129 $-1 #
face $-1 -1 $-1 $216 $217 $2 $-1 $218 forward single #
cone-surface $-1 -1 $-1 0.22097086912079605 0.22097086912079614 -0.12249999999999994 0 0 -1 -1.1435297153639112e-017 -0.051499999999999997 0 1 I I -0.70710678118654013 -0.7071067811865549 0.051499999999999997 forward I I I I #
loop $-1 -1 $-1 $219 $132 $220 #
vertex $-1 -1 $-1 $133 $221 #
ellipse-curve $-1 -1 $-1 -0.22097086912079605 -0.22097086912079614 -0.12499999999999999 0 0 -1 1.1990408665951691e-017 0.053999999999999999 0 1 I I #
face $-1 -1 $-1 $222 $167 $2 $-1 $223 forward single #
loop $-1 -1 $-1 $224 $225 $134 #
cone-surface $-1 -1 $-1 0 0.31249999999999994 -1.1374381172952599 0 0 1 0.062499999999999993 0 0 1 I I 0 1 0.062499999999999993 reversed I I I I #
loop $-1 -1 $-1 $-1 $226 $103 #
coedge $-1 -1 $-1 $181 $181 $227 $228 forward $135 $-1 #
point $-1 -1 $-1 0.16697086912079612 -0.22097086912079605 0.12499999999999999 #
coedge $-1 -1 $-1 $146 $139 $200 $229 reversed $40 $-1 #
coedge $-1 -1 $-1 $230 $230 $139 $185 reversed $231 $-1 #
edge $-1 -1 $-1 $187 -1.2355217449908154 $232 4.3771143985806082 $139 $233 forward @7 unknown #
coedge $-1 -1 $-1 $140 $200 $230 $234 forward $114 $-1 #
vertex $-1 -1 $-1 $185 $235 #
ellipse-curve $-1 -1 $-1 0 0 0.12499999999999999 0 0 -1 0.4325 0 0 1 I I #
point $-1 -1 $-1 0.041128559420431601 -0.43054000000000003 0.12499999999999999 #
coedge $-1 -1 $-1 $201 $201 $146 $191 reversed $236 $-1 #
edge $-1 -1 $-1 $237 -1.2355217449908154 $192 4.3771143985806082 $146 $238 forward @7 unknown #
vertex $-1 -1 $-1 $202 $239 #
ellipse-curve $-1 -1 $-1 0 0 0.12499999999999999 0 0 -1 0.4325 0 0 1 I I #
loop $-1 -1 $-1 $-1 $240 $195 #
face $-1 -1 $-1 $241 $150 $2 $-1 $242 reversed single #
point $-1 -1 $-1 -0.43054000000000003 0.041128559420431747 0.12499999999999999 #
intcurve-curve $-1 -1 $-1 forward { surfintcur full nubs 3 open 3 
	1.943811635425942 3 2.047044261416048 2 2.1502768874063669 3 
	-0.43054000000000003 -0.04112855942043156 0.12499999999999999 
	-0.43364661105132501 -0.027472924824520403 0.12320604914881889 
	-0.43517481702985883 -0.013547588712612387 0.12232518297014129 
	-0.43517481702985883 0.013547588712640229 0.12232518297014129 
	-0.43364661105133157 0.027472924824491651 0.12320604914881508 
	-0.43054000000000003 0.041128559420431747 0.12499999999999999 
	0.00011227273672754073 
	cone 0 0 0.1225 0 0 -1 0.43500000000000005 0 0 1 I I 0.70710678118654602 0.70710678118654913 0.43500000000000005 forward I I I I 
	cone -0.31249999999999994 6.9388939039072271e-017 0.089050987274343449 0 0 1 2.0816681711721685e-017 0.09375 0 1 I I -0.65605902899050728 -0.75470958022277201 0.09375 reversed I I I I 
	nullbs 
	nullbs 
	I I 
	0 
	0 
	0 
	} I I #
intcurve-curve $-1 -1 $-1 forward { surfintcur full nubs 3 open 3 
	1.4200833851876196 3 1.5233160111777257 2 1.6265486371680447 3 
	0.041128559420431601 -0.43054000000000003 0.12499999999999999 
	0.027472924824520399 -0.43364661105132501 0.12320604914881889 
	0.013547588712612387 -0.43517481702985883 0.12232518297014129 
	-0.013547588712640243 -0.43517481702985883 0.12232518297014126 
	-0.02747292482449161 -0.43364661105133157 0.12320604914881508 
	-0.041128559420431705 -0.43054000000000003 0.12499999999999999 
	0.00011227273672753546 
	cone 0 0 0.1225 0 0 -1 0.43500000000000005 0 0 1 I I 0.70710678118654602 0.70710678118654913 0.43500000000000005 forward I I I I 
	cone -3.8268948556949283e-017 -0.31249999999999994 0.089050987274343449 0 0 1 -0.09375 1.1480684567084787e-017 0 1 I I -0.65605902899050728 -0.75470958022277201 0.09375 reversed I I I I 
	nullbs 
	nullbs 
	I I 
	0 
	0 
	0 
	} I I #
coedge $-1 -1 $-1 $199 $199 $243 $244 forward $155 $-1 #
coedge $-1 -1 $-1 $186 $156 $183 $229 forward $114 $-1 #
coedge $-1 -1 $-1 $190 $190 $156 $202 reversed $236 $-1 #
edge $-1 -1 $-1 $192 2.4675398856642645 $237 2.6740051376446896 $201 $245 forward @7 unknown #
coedge $-1 -1 $-1 $203 $203 $159 $204 forward $246 $-1 #
edge $-1 -1 $-1 $247 0 $247 6.2831853071795862 $203 $248 forward @7 unknown #
face $-1 -1 $-1 $249 $250 $2 $-1 $251 reversed single #
loop $-1 -1 $-1 $143 $252 $161 #
cone-surface $-1 -1 $-1 -3.8268948556949283e-017 -0.31249999999999994 0.089050987274343449 0 0 1 -0.09375 1.1480684567084787e-017 0 1 I I 0.65605902899050728 0.75470958022277201 0.09375 reversed I I I I #
coedge $-1 -1 $-1 $208 $208 $164 $209 forward $253 $-1 #
edge $-1 -1 $-1 $254 -3.1415926535897931 $254 3.1415926535897931 $164 $255 forward @7 unknown #
vertex $-1 -1 $-1 $166 $256 #
ellipse-curve $-1 -1 $-1 -0.22097086912079617 0.220970869120796 0.11999999999999988 0 0 -1 -0.048999999999999995 0 0 1 I I #
loop $-1 -1 $-1 $-1 $257 $177 #
point $-1 -1 $-1 0.26997086912079615 -0.22097086912079605 -0.11999999999999988 #
coedge $-1 -1 $-1 $214 $214 $171 $215 reversed $258 $-1 #
edge $-1 -1 $-1 $259 -3.1415926535897931 $259 3.1415926535897931 $214 $260 forward @7 unknown #
face $-1 -1 $-1 $79 $261 $2 $-1 $262 reversed single #
loop $-1 -1 $-1 $263 $264 $172 #
cone-surface $-1 -1 $-1 0.31249999999999994 -6.9388939039072271e-017 -0.12249999999999994 0 0 -1 -1.4432899320127032e-017 -0.064999999999999988 0 1 I I -0.7071067811865398 -0.70710678118655523 0.064999999999999988 forward I I I I #
loop $-1 -1 $-1 $265 $266 $220 #
face $-1 -1 $-1 $267 $268 $2 $-1 $269 forward single #
point $-1 -1 $-1 -0.22097086912079605 -0.27497086912079616 -0.12499999999999999 #
face $-1 -1 $-1 $270 $271 $2 $-1 $272 forward single #
cone-surface $-1 -1 $-1 0.22097086912079614 -0.22097086912079605 -0.12249999999999994 0 0 -1 -0.051499999999999997 6.3067227221852427e-018 0 1 I I -0.70710678118654013 -0.7071067811865549 0.051499999999999997 forward I I I I #
loop $-1 -1 $-1 $-1 $227 $134 #
coedge $-1 -1 $-1 $225 $225 $273 $274 forward $178 $-1 #
coedge $-1 -1 $-1 $226 $226 $275 $276 forward $180 $-1 #
coedge $-1 -1 $-1 $227 $227 $181 $228 reversed $224 $-1 #
edge $-1 -1 $-1 $277 -3.1415926535897931 $277 3.1415926535897931 $227 $278 forward @7 unknown #
edge $-1 -1 $-1 $237 -1.475557480662544 $232 -0.095238846132352464 $183 $279 forward @7 unknown #
coedge $-1 -1 $-1 $184 $184 $186 $234 reversed $231 $-1 #
loop $-1 -1 $-1 $-1 $230 $205 #
vertex $-1 -1 $-1 $234 $280 #
ellipse-curve $-1 -1 $-1 0.31249999999999994 -6.9388939039072271e-017 0.12499999999999999 0 0 -1 -2.775557561562891e-017 -0.12499999999999999 0 1 I I #
edge $-1 -1 $-1 $232 -0.10323262599010587 $187 0.10323262599031899 $230 $281 forward @7 unknown #
point $-1 -1 $-1 0.43054000000000003 -0.041128559420431747 0.12499999999999999 #
loop $-1 -1 $-1 $282 $201 $241 #
vertex $-1 -1 $-1 $191 $283 #
ellipse-curve $-1 -1 $-1 0 0.31249999999999994 0.12499999999999999 0 0 -1 0.12499999999999999 0 0 1 I I #
point $-1 -1 $-1 -0.041128559420431657 0.43054000000000003 0.12499999999999999 #
coedge $-1 -1 $-1 $240 $240 $284 $285 reversed $194 $-1 #
face $-1 -1 $-1 $286 $236 $2 $-1 $287 reversed single #
cone-surface $-1 -1 $-1 -0.31249999999999994 6.9388939039072271e-017 0.089050987274343449 0 0 1 2.0816681711721685e-017 0.09375 0 1 I I 0.65605902899050728 0.75470958022277201 0.09375 reversed I I I I #
coedge $-1 -1 $-1 $243 $243 $199 $244 reversed $288 $-1 #
edge $-1 -1 $-1 $289 -3.1415926535897931 $289 3.1415926535897931 $243 $290 forward @7 unknown #
intcurve-curve $-1 -1 $-1 forward { surfintcur full nubs 3 open 3 
	2.4675398856642645 3 2.5707725116543707 2 2.6740051376446896 3 
	-0.041128559420431657 0.43054000000000003 0.12499999999999999 
	-0.027472924824520458 0.43364661105132501 0.12320604914881889 
	-0.01354758871261243 0.43517481702985883 0.12232518297014129 
	0.013547588712640201 0.43517481702985883 0.12232518297014129 
	0.027472924824491533 0.43364661105133157 0.12320604914881508 
	0.041128559420431657 0.43054000000000003 0.12499999999999999 
	0.00011227273672750345 
	cone 0 0 0.1225 0 0 -1 0.43500000000000005 0 0 1 I I 0.70710678118654602 0.70710678118654913 0.43500000000000005 forward I I I I 
	cone 0 0.31249999999999994 0.089050987274343449 0 0 1 0.09375 0 0 1 I I -0.65605902899050728 -0.75470958022277201 0.09375 reversed I I I I 
	nullbs 
	nullbs 
	I I 
	0 
	0 
	0 
	} I I #
loop $-1 -1 $-1 $291 $203 $286 #
vertex $-1 -1 $-1 $204 $292 #
ellipse-curve $-1 -1 $-1 0 0 0 0 0 1 0.10849999999999999 0 0 1 I I #
face $-1 -1 $-1 $293 $294 $2 $-1 $295 forward single #
loop $-1 -1 $-1 $231 $296 $205 #
cone-surface $-1 -1 $-1 0.31249999999999994 -6.9388939039072271e-017 0.089050987274343449 0 0 1 -2.0816681711721685e-017 -0.09375 0 1 I I 0.65605902899050728 0.75470958022277201 0.09375 reversed I I I I #
coedge $-1 -1 $-1 $252 $252 $297 $298 reversed $206 $-1 #
loop $-1 -1 $-1 $299 $208 $300 #
vertex $-1 -1 $-1 $209 $301 #
ellipse-curve $-1 -1 $-1 -0.22097086912079617 0.220970869120796 -0.11999999999999988 0 0 1 0.048999999999999995 0 0 1 I I #
point $-1 -1 $-1 -0.17197086912079618 0.220970869120796 0.11999999999999988 #
coedge $-1 -1 $-1 $257 $257 $266 $302 forward $212 $-1 #
loop $-1 -1 $-1 $174 $214 $220 #
vertex $-1 -1 $-1 $215 $303 #
ellipse-curve $-1 -1 $-1 0.22097086912079605 0.22097086912079614 -0.12499999999999999 0 0 -1 -1.1990408665951691e-017 -0.053999999999999999 0 1 I I #
loop $-1 -1 $-1 $304 $305 $216 #
cone-surface $-1 -1 $-1 0.31249999999999994 -6.9388939039072271e-017 -1.1374381172952599 0 0 1 -1.3877787807814455e-017 -0.062499999999999993 0 1 I I 0 1 0.062499999999999993 reversed I I I I #
loop $-1 -1 $-1 $-1 $306 $172 #
coedge $-1 -1 $-1 $264 $264 $307 $308 forward $217 $-1 #
loop $-1 -1 $-1 $309 $310 $220 #
coedge $-1 -1 $-1 $266 $266 $257 $302 reversed $219 $-1 #
face $-1 -1 $-1 $300 $311 $2 $-1 $312 reversed single #
loop $-1 -1 $-1 $258 $313 $220 #
plane-surface $-1 -1 $-1 0 0 -0.12499999999999999 0 0 -1 -0.39370078740157477 0 0 forward_v I I I I #
face $-1 -1 $-1 $314 $315 $2 $-1 $316 reversed single #
loop $-1 -1 $-1 $317 $318 $222 #
cone-surface $-1 -1 $-1 0 0 -0.12249999999999994 0 0 -1 0.057499999999999989 0 0 1 I I -0.7071067811865398 -0.70710678118655523 0.057499999999999989 forward I I I I #
coedge $-1 -1 $-1 $273 $273 $225 $274 reversed $282 $-1 #
edge $-1 -1 $-1 $319 0 $319 6.2831853071795862 $225 $320 forward @7 unknown #
coedge $-1 -1 $-1 $275 $275 $226 $276 reversed $321 $-1 #
edge $-1 -1 $-1 $322 -3.1415926535897931 $322 3.1415926535897931 $275 $323 forward @7 unknown #
vertex $-1 -1 $-1 $228 $324 #
ellipse-curve $-1 -1 $-1 0 0.31249999999999994 -0.11999999999999988 0 0 1 0.062499999999999993 0 0 1 I I #
ellipse-curve $-1 -1 $-1 0 0 0.12499999999999999 0 0 -1 0.4325 0 0 1 I I #
point $-1 -1 $-1 0.43054000000000003 0.04112855942043156 0.12499999999999999 #
intcurve-curve $-1 -1 $-1 forward { surfintcur full nubs 3 open 3 
	-0.10323262599010587 3 0 3 0.10323262599031899 3 
	0.43054000000000003 0.04112855942043156 0.12499999999999999 
	0.43364661105132501 0.027472924824520382 0.12320604914881889 
	0.43517481702985883 0.013547588712612331 0.12232518297014129 
	0.43517481702985883 7.2791053016210483e-033 0.12232518297014129 
	0.43517481702985883 -0.013547588712640285 0.12232518297014129 
	0.43364661105133157 -0.02747292482449162 0.12320604914881508 
	0.43054000000000003 -0.041128559420431747 0.12499999999999999 
	0.00011227273672749815 
	cone 0 0 0.1225 0 0 -1 0.43500000000000005 0 0 1 I I 0.70710678118654602 0.70710678118654913 0.43500000000000005 forward I I I I 
	cone 0.31249999999999994 -6.9388939039072271e-017 0.089050987274343449 0 0 1 -2.0816681711721685e-017 -0.09375 0 1 I I -0.65605902899050728 -0.75470958022277201 0.09375 reversed I I I I 
	nullbs 
	nullbs 
	I I 
	0 
	0 
	0 
	} I I #
loop $-1 -1 $-1 $-1 $273 $241 #
point $-1 -1 $-1 0.041128559420431657 0.43054000000000003 0.12499999999999999 #
coedge $-1 -1 $-1 $284 $284 $240 $285 forward $325 $-1 #
edge $-1 -1 $-1 $326 0 $326 6.2831853071795862 $284 $327 forward @7 unknown #
face $-1 -1 $-1 $119 $246 $2 $-1 $328 reversed single #
cone-surface $-1 -1 $-1 0 0.31249999999999994 0.089050987274343449 0 0 1 0.09375 0 0 1 I I 0.65605902899050728 0.75470958022277201 0.09375 reversed I I I I #
loop $-1 -1 $-1 $-1 $243 $249 #
vertex $-1 -1 $-1 $244 $329 #
ellipse-curve $-1 -1 $-1 0 0 0.12 0 0 1 0.4375 0 0 1 I I #
loop $-1 -1 $-1 $-1 $330 $286 #
point $-1 -1 $-1 0.10849999999999999 0 0 #
face $-1 -1 $-1 $220 $331 $2 $-1 $332 forward single #
loop $-1 -1 $-1 $288 $333 $249 #
cone-surface $-1 -1 $-1 0 0 0 0 0 1 -0.4375 0 0 1 I I 0 1 0.4375 forward I I I I #
coedge $-1 -1 $-1 $296 $296 $305 $334 reversed $250 $-1 #
coedge $-1 -1 $-1 $297 $297 $252 $298 forward $311 $-1 #
edge $-1 -1 $-1 $335 0 $335 6.2831853071795862 $297 $336 forward @7 unknown #
loop $-1 -1 $-1 $-1 $337 $300 #
face $-1 -1 $-1 $338 $253 $2 $-1 $339 forward single #
point $-1 -1 $-1 -0.26997086912079615 0.220970869120796 -0.11999999999999988 #
edge $-1 -1 $-1 $340 -3.1415926535897931 $340 3.1415926535897931 $266 $341 forward @7 unknown #
point $-1 -1 $-1 0.22097086912079605 0.27497086912079616 -0.12499999999999999 #
loop $-1 -1 $-1 $-1 $307 $216 #
coedge $-1 -1 $-1 $305 $305 $296 $334 forward $261 $-1 #
coedge $-1 -1 $-1 $306 $306 $342 $343 forward $263 $-1 #
coedge $-1 -1 $-1 $307 $307 $264 $308 reversed $304 $-1 #
edge $-1 -1 $-1 $344 -3.1415926535897931 $344 3.1415926535897931 $307 $345 forward @7 unknown #
loop $-1 -1 $-1 $321 $346 $220 #
coedge $-1 -1 $-1 $310 $310 $347 $348 reversed $265 $-1 #
loop $-1 -1 $-1 $349 $297 $267 #
cone-surface $-1 -1 $-1 -3.8268948556949283e-017 -0.31249999999999994 -1.1374381172952599 0 0 1 -0.062499999999999993 7.6537897113898563e-018 0 1 I I 0 1 0.062499999999999993 reversed I I I I #
coedge $-1 -1 $-1 $313 $313 $337 $350 reversed $268 $-1 #
face $-1 -1 $-1 $195 $351 $2 $-1 $352 forward single #
loop $-1 -1 $-1 $353 $354 $270 #
cone-surface $-1 -1 $-1 0 0 -1.1374381172952599 0 0 1 0.054999999999999993 0 0 1 I I 0 1 0.054999999999999993 reversed I I I I #
loop $-1 -1 $-1 $-1 $355 $222 #
coedge $-1 -1 $-1 $318 $318 $356 $357 forward $271 $-1 #
vertex $-1 -1 $-1 $274 $358 #
ellipse-curve $-1 -1 $-1 0 0.31249999999999994 0.053101974548686953 0 0 1 0.062499999999999993 0 0 1 I I #
loop $-1 -1 $-1 $359 $275 $220 #
vertex $-1 -1 $-1 $276 $360 #
ellipse-curve $-1 -1 $-1 0 0.31249999999999994 -0.12499999999999999 0 0 -1 0.067499999999999991 0 0 1 I I #
point $-1 -1 $-1 -0.062499999999999993 0.31249999999999994 -0.11999999999999988 #
loop $-1 -1 $-1 $361 $284 $362 #
vertex $-1 -1 $-1 $285 $363 #
ellipse-curve $-1 -1 $-1 -0.31249999999999994 6.9388939039072271e-017 0.053101974548686953 0 0 1 1.3877787807814455e-017 0.062499999999999993 0 1 I I #
plane-surface $-1 -1 $-1 0 0 0 0 0 -1 0.39370078740157477 0 0 reverse_v I I I I #
point $-1 -1 $-1 -0.4375 -5.3576527979729005e-017 0.12 #
coedge $-1 -1 $-1 $330 $330 $354 $364 reversed $291 $-1 #
loop $-1 -1 $-1 $365 $366 $293 #
cone-surface $-1 -1 $-1 -3.8268948556949283e-017 -0.31249999999999994 -0.12249999999999994 0 0 -1 -0.064999999999999988 7.9599412998454511e-018 0 1 I I -0.7071067811865398 -0.70710678118655523 0.064999999999999988 forward I I I I #
coedge $-1 -1 $-1 $333 $333 $367 $368 reversed $294 $-1 #
edge $-1 -1 $-1 $369 0 $369 6.2831853071795862 $305 $370 forward @7 unknown #
vertex $-1 -1 $-1 $298 $371 #
ellipse-curve $-1 -1 $-1 -3.8268948556949283e-017 -0.31249999999999994 0.053101974548686953 0 0 1 -0.062499999999999993 7.6537897113898563e-018 0 1 I I #
coedge $-1 -1 $-1 $337 $337 $313 $350 forward $299 $-1 #
face $-1 -1 $-1 $362 $372 $2 $-1 $373 forward single #
cone-surface $-1 -1 $-1 -0.22097086912079617 0.220970869120796 -0.12249999999999994 0 0 -1 0.051499999999999997 0 0 1 I I -0.70710678118654013 -0.7071067811865549 0.051499999999999997 forward I I I I #
vertex $-1 -1 $-1 $302 $374 #
ellipse-curve $-1 -1 $-1 0.22097086912079614 -0.22097086912079605 -0.12499999999999999 0 0 -1 -0.053999999999999999 6.6128743106408374e-018 0 1 I I #
coedge $-1 -1 $-1 $342 $342 $306 $343 reversed $359 $-1 #
edge $-1 -1 $-1 $375 -3.1415926535897931 $375 3.1415926535897931 $342 $376 forward @7 unknown #
vertex $-1 -1 $-1 $308 $377 #
ellipse-curve $-1 -1 $-1 0.31249999999999994 -6.9388939039072271e-017 -0.11999999999999988 0 0 1 -1.3877787807814455e-017 -0.062499999999999993 0 1 I I #
coedge $-1 -1 $-1 $346 $346 $355 $378 reversed $309 $-1 #
coedge $-1 -1 $-1 $347 $347 $310 $348 forward $351 $-1 #
edge $-1 -1 $-1 $379 -3.1415926535897931 $379 3.1415926535897931 $310 $380 forward @7 unknown #
loop $-1 -1 $-1 $-1 $381 $267 #
edge $-1 -1 $-1 $382 -3.1415926535897931 $382 3.1415926535897931 $313 $383 forward @7 unknown #
loop $-1 -1 $-1 $384 $347 $314 #
cone-surface $-1 -1 $-1 0 0 -0.1225 0 0 1 -0.43500000000000005 0 0 1 I I 0.70710678118654602 0.70710678118654913 0.43500000000000005 forward I I I I #
loop $-1 -1 $-1 $-1 $356 $270 #
coedge $-1 -1 $-1 $354 $354 $330 $364 forward $315 $-1 #
coedge $-1 -1 $-1 $355 $355 $346 $378 forward $317 $-1 #
coedge $-1 -1 $-1 $356 $356 $318 $357 reversed $353 $-1 #
edge $-1 -1 $-1 $385 -3.1415926535897931 $385 3.1415926535897931 $356 $386 forward @7 unknown #
point $-1 -1 $-1 0.062499999999999993 0.31249999999999994 0.053101974548686898 #
loop $-1 -1 $-1 $387 $342 $220 #
point $-1 -1 $-1 -0.067499999999999991 0.31249999999999994 -0.12499999999999999 #
loop $-1 -1 $-1 $-1 $388 $362 #
face $-1 -1 $-1 $130 $325 $2 $-1 $389 reversed single #
point $-1 -1 $-1 -0.31249999999999994 0.062500000000000056 0.053101974548686898 #
edge $-1 -1 $-1 $390 -3.1415926535897931 $390 3.1415926535897931 $354 $391 forward @7 unknown #
loop $-1 -1 $-1 $-1 $392 $293 #
coedge $-1 -1 $-1 $366 $366 $381 $393 forward $331 $-1 #
coedge $-1 -1 $-1 $367 $367 $333 $368 forward $384 $-1 #
edge $-1 -1 $-1 $394 -3.1415926535897931 $394 3.1415926535897931 $333 $395 forward @7 unknown #
vertex $-1 -1 $-1 $334 $396 #
ellipse-curve $-1 -1 $-1 0.31249999999999994 -6.9388939039072271e-017 0.053101974548686953 0 0 1 -1.3877787807814455e-017 -0.062499999999999993 0 1 I I #
point $-1 -1 $-1 -0.062500000000000042 -0.31249999999999994 0.053101974548686898 #
loop $-1 -1 $-1 $397 $398 $338 #
cone-surface $-1 -1 $-1 -0.31249999999999994 6.9388939039072271e-017 -0.12249999999999994 0 0 -1 1.4432899320127032e-017 0.064999999999999988 0 1 I I -0.7071067811865398 -0.70710678118655523 0.064999999999999988 forward I I I I #
point $-1 -1 $-1 0.27497086912079616 -0.22097086912079605 -0.12499999999999999 #
vertex $-1 -1 $-1 $343 $399 #
ellipse-curve $-1 -1 $-1 0.31249999999999994 -6.9388939039072271e-017 -0.12499999999999999 0 0 -1 -1.4988010832439611e-017 -0.067499999999999991 0 1 I I #
point $-1 -1 $-1 0.31249999999999994 0.062499999999999931 -0.11999999999999988 #
edge $-1 -1 $-1 $400 -3.1415926535897931 $400 3.1415926535897931 $346 $401 forward @7 unknown #
vertex $-1 -1 $-1 $348 $402 #
ellipse-curve $-1 -1 $-1 0 0 -0.12499999999999999 0 0 1 -0.4325 0 0 1 I I #
coedge $-1 -1 $-1 $381 $381 $366 $393 reversed $349 $-1 #
vertex $-1 -1 $-1 $350 $403 #
ellipse-curve $-1 -1 $-1 -0.22097086912079617 0.220970869120796 -0.12499999999999999 0 0 -1 0.053999999999999999 0 0 1 I I #
loop $-1 -1 $-1 $-1 $367 $314 #
vertex $-1 -1 $-1 $357 $404 #
ellipse-curve $-1 -1 $-1 0 0 -0.11999999999999988 0 0 1 0.054999999999999993 0 0 1 I I #
loop $-1 -1 $-1 $405 $406 $220 #
coedge $-1 -1 $-1 $388 $388 $398 $407 reversed $361 $-1 #
cone-surface $-1 -1 $-1 -0.31249999999999994 6.9388939039072271e-017 -1.1374381172952599 0 0 1 1.3877787807814455e-017 0.062499999999999993 0 1 I I 0 1 0.062499999999999993 reversed I I I I #
vertex $-1 -1 $-1 $364 $408 #
ellipse-curve $-1 -1 $-1 0 0 4.3709567898628207e-017 0 0 1 0.054999999999999993 0 0 1 I I #
coedge $-1 -1 $-1 $392 $392 $409 $410 forward $365 $-1 #
edge $-1 -1 $-1 $411 -3.1415926535897931 $411 3.1415926535897931 $381 $412 forward @7 unknown #
vertex $-1 -1 $-1 $368 $413 #
ellipse-curve $-1 -1 $-1 0 0 -0.12 0 0 -1 -0.4375 0 0 1 I I #
point $-1 -1 $-1 0.31249999999999994 -0.062500000000000056 0.053101974548686898 #
loop $-1 -1 $-1 $-1 $414 $338 #
coedge $-1 -1 $-1 $398 $398 $388 $407 forward $372 $-1 #
point $-1 -1 $-1 0.31249999999999994 0.067499999999999921 -0.12499999999999999 #
vertex $-1 -1 $-1 $378 $415 #
ellipse-curve $-1 -1 $-1 0 0 -0.12499999999999999 0 0 -1 0.059999999999999984 0 0 1 I I #
point $-1 -1 $-1 0.4325 5.2964224802817819e-017 -0.12499999999999999 #
point $-1 -1 $-1 -0.27497086912079616 0.220970869120796 -0.12499999999999999 #
point $-1 -1 $-1 -0.054999999999999993 -6.7353349460230736e-018 -0.11999999999999988 #
loop $-1 -1 $-1 $-1 $409 $220 #
coedge $-1 -1 $-1 $406 $406 $414 $416 reversed $387 $-1 #
edge $-1 -1 $-1 $417 -3.1415926535897931 $417 3.1415926535897931 $388 $418 forward @7 unknown #
point $-1 -1 $-1 -0.054999999999999993 -6.7353349460230736e-018 4.3709567898628207e-017 #
coedge $-1 -1 $-1 $409 $409 $392 $410 reversed $405 $-1 #
edge $-1 -1 $-1 $419 -3.1415926535897931 $419 3.1415926535897931 $409 $420 forward @7 unknown #
vertex $-1 -1 $-1 $393 $421 #
ellipse-curve $-1 -1 $-1 -3.8268948556949283e-017 -0.31249999999999994 -0.11999999999999988 0 0 1 -0.062499999999999993 7.6537897113898563e-018 0 1 I I #
point $-1 -1 $-1 0.4375 -5.3576527979729005e-017 -0.12 #
coedge $-1 -1 $-1 $414 $414 $406 $416 forward $397 $-1 #
point $-1 -1 $-1 -0.059999999999999984 7.3476381229342631e-018 -0.12499999999999999 #
edge $-1 -1 $-1 $422 -3.1415926535897931 $422 3.1415926535897931 $406 $423 forward @7 unknown #
vertex $-1 -1 $-1 $407 $424 #
ellipse-curve $-1 -1 $-1 -0.31249999999999994 6.9388939039072271e-017 -0.11999999999999988 0 0 1 1.3877787807814455e-017 0.062499999999999993 0 1 I I #
vertex $-1 -1 $-1 $410 $425 #
ellipse-curve $-1 -1 $-1 -3.8268948556949283e-017 -0.31249999999999994 -0.12499999999999999 0 0 -1 -0.067499999999999991 8.2660928883010458e-018 0 1 I I #
point $-1 -1 $-1 0.062499999999999951 -0.31249999999999994 -0.11999999999999988 #
vertex $-1 -1 $-1 $416 $426 #
ellipse-curve $-1 -1 $-1 -0.31249999999999994 6.9388939039072271e-017 -0.12499999999999999 0 0 -1 1.4988010832439611e-017 0.067499999999999991 0 1 I I #
point $-1 -1 $-1 -0.31249999999999994 -0.062499999999999931 -0.11999999999999988 #
point $-1 -1 $-1 0.067499999999999949 -0.31249999999999994 -0.12499999999999999 #
point $-1 -1 $-1 -0.31249999999999994 -0.067499999999999921 -0.12499999999999999 #
End-of-ACIS-data 