700 0 1 0           
29 Autodesk Inventor 6.2.0.12000 17 ASM 6.0.1.6021 NT 24 Mon Jan 21 07:52:44 2008 
25.399999999999999 9.9999999999999995e-007 1e-010 
body $-1 -1 $-1 $1 $-1 $-1 #
lump $-1 -1 $-1 $-1 $2 $0 #
shell $-1 -1 $-1 $-1 $-1 $3 $-1 $1 #
face $-1 -1 $-1 $4 $5 $2 $-1 $6 reversed single #
face $-1 -1 $-1 $7 $8 $2 $-1 $9 forward single #
loop $-1 -1 $-1 $10 $11 $3 #
cone-surface $-1 -1 $-1 0 0 0 0 0 1 -0.31749999999999995 0 0 1 I I 0 1 0.31749999999999995 forward I I I I #
face $-1 -1 $-1 $12 $13 $2 $-1 $14 forward single #
loop $-1 -1 $-1 $15 $16 $4 #
plane-surface $-1 -1 $-1 0 0 -0.046999999999999993 0 0 -1 -0.39370078740157477 0 0 forward_v I I I I #
loop $-1 -1 $-1 $-1 $17 $3 #
coedge $-1 -1 $-1 $11 $11 $16 $18 reversed $5 $-1 #
face $-1 -1 $-1 $-1 $19 $2 $-1 $20 reversed single #
loop $-1 -1 $-1 $21 $22 $7 #
cone-surface $-1 -1 $-1 0 0 0 0 0 1 -0.49999999999999994 0 0 1 I I 0 1 0.49999999999999994 forward I I I I #
loop $-1 -1 $-1 $-1 $23 $4 #
coedge $-1 -1 $-1 $16 $16 $11 $18 forward $8 $-1 #
coedge $-1 -1 $-1 $17 $17 $24 $25 reversed $10 $-1 #
edge $-1 -1 $-1 $26 -3.1415926535897931 $26 3.1415926535897931 $16 $27 forward @7 unknown #
loop $-1 -1 $-1 $28 $24 $12 #
plane-surface $-1 -1 $-1 0 0 0.046999999999999993 0 0 -1 -0.39370078740157477 0 0 forward_v I I I I #
loop $-1 -1 $-1 $-1 $29 $7 #
coedge $-1 -1 $-1 $22 $22 $23 $30 forward $13 $-1 #
coedge $-1 -1 $-1 $23 $23 $22 $30 reversed $15 $-1 #
coedge $-1 -1 $-1 $24 $24 $17 $25 forward $19 $-1 #
edge $-1 -1 $-1 $31 -3.1415926535897931 $31 3.1415926535897931 $24 $32 forward @7 unknown #
vertex $-1 -1 $-1 $18 $33 #
ellipse-curve $-1 -1 $-1 0 0 -0.046999999999999993 0 0 1 -0.31749999999999995 0 0 1 I I #
loop $-1 -1 $-1 $-1 $34 $12 #
coedge $-1 -1 $-1 $29 $29 $34 $35 forward $21 $-1 #
edge $-1 -1 $-1 $36 -3.1415926535897931 $36 3.1415926535897931 $22 $37 forward @7 unknown #
vertex $-1 -1 $-1 $25 $38 #
ellipse-curve $-1 -1 $-1 0 0 0.046999999999999993 0 0 -1 -0.31749999999999995 0 0 1 I I #
point $-1 -1 $-1 0.31749999999999995 3.8881251733860476e-017 -0.046999999999999993 #
coedge $-1 -1 $-1 $34 $34 $29 $35 reversed $28 $-1 #
edge $-1 -1 $-1 $39 -3.1415926535897931 $39 3.1415926535897931 $29 $40 forward @7 unknown #
vertex $-1 -1 $-1 $30 $41 #
ellipse-curve $-1 -1 $-1 0 0 -0.046999999999999993 0 0 1 -0.49999999999999994 0 0 1 I I #
point $-1 -1 $-1 0.31749999999999995 3.8881251733860476e-017 0.046999999999999993 #
vertex $-1 -1 $-1 $35 $42 #
ellipse-curve $-1 -1 $-1 0 0 0.046999999999999993 0 0 -1 -0.49999999999999994 0 0 1 I I #
point $-1 -1 $-1 0.49999999999999994 6.1230317691118851e-017 -0.046999999999999993 #
point $-1 -1 $-1 0.49999999999999994 6.1230317691118851e-017 0.046999999999999993 #
End-of-ACIS-data 