400 0 1 0           
8 Inventor 11 ACIS 6.0 NT 24 Fri Jan 16 18:59:42 2004 
25.399999999999999 9.9999999999999995e-007 1e-010 
body $-1 $1 $-1 $-1 #
lump $-1 $-1 $2 $0 #
shell $-1 $-1 $-1 $3 $-1 $1 #
face $-1 $4 $5 $2 $-1 $6 reversed single #
face $-1 $7 $8 $2 $-1 $9 reversed single #
loop $-1 $-1 $10 $3 #
plane-surface $-1 0.28867513459481314 0.5 -0.79999999999999993 0 1 0 0 0 -0.39370078740157477 reverse_v I I I I #
face $-1 $11 $12 $2 $-1 $13 reversed single #
loop $-1 $-1 $14 $4 #
plane-surface $-1 -0.28867513459481303 0.5 -0.79999999999999993 -0.86602540378443882 0.49999999999999994 0 0 0 -0.39370078740157477 reverse_v I I I I #
coedge $-1 $15 $16 $17 $18 forward $5 $-1 #
face $-1 $19 $20 $2 $-1 $21 reversed single #
loop $-1 $-1 $22 $7 #
plane-surface $-1 -0.57735026918962595 -9.2090143090926122e-017 -0.79999999999999993 -0.8660254037844386 -0.50000000000000022 0 0 0 -0.39370078740157477 reverse_v I I I I #
coedge $-1 $23 $24 $25 $26 forward $8 $-1 #
coedge $-1 $27 $10 $24 $28 reversed $5 $-1 #
coedge $-1 $10 $27 $29 $30 forward $5 $-1 #
coedge $-1 $31 $25 $10 $18 reversed $32 $-1 #
edge $-1 $33 $34 $10 $35 forward #
face $-1 $36 $37 $2 $-1 $38 reversed single #
loop $-1 $-1 $39 $11 #
plane-surface $-1 -0.28867513459481292 -0.5 -0.79999999999999993 -3.0282876950922257e-016 -1 0 0 0 0.39370078740157477 reverse_v I I I I #
coedge $-1 $40 $41 $42 $43 forward $12 $-1 #
coedge $-1 $44 $14 $41 $45 reversed $8 $-1 #
coedge $-1 $14 $44 $15 $28 forward $8 $-1 #
coedge $-1 $17 $42 $14 $26 reversed $32 $-1 #
edge $-1 $34 $46 $14 $47 forward #
coedge $-1 $16 $15 $48 $49 reversed $5 $-1 #
edge $-1 $50 $34 $24 $51 forward #
coedge $-1 $52 $53 $16 $30 reversed $54 $-1 #
edge $-1 $55 $33 $16 $56 forward #
coedge $-1 $57 $17 $53 $58 reversed $32 $-1 #
loop $-1 $-1 $17 $59 #
vertex $-1 $30 $60 #
vertex $-1 $28 $61 #
straight-curve $-1 -0.28867513459481303 0.5 -0.049999999999999996 -0.39370078740157477 0 0 F -1.4664696837416507 F 0 #
face $-1 $59 $54 $2 $-1 $62 reversed single #
loop $-1 $-1 $63 $19 #
plane-surface $-1 0.28867513459481298 -0.50000000000000022 -0.79999999999999993 0.86602540378443882 -0.49999999999999994 0 0 0 0.39370078740157477 reverse_v I I I I #
coedge $-1 $64 $65 $66 $67 forward $20 $-1 #
coedge $-1 $68 $22 $65 $69 reversed $12 $-1 #
coedge $-1 $22 $68 $23 $45 forward $12 $-1 #
coedge $-1 $25 $66 $22 $43 reversed $32 $-1 #
edge $-1 $46 $70 $22 $71 forward #
coedge $-1 $24 $23 $72 $73 reversed $8 $-1 #
edge $-1 $74 $46 $41 $75 forward #
vertex $-1 $45 $76 #
straight-curve $-1 -0.57735026918962595 -9.2090143090926122e-017 -0.049999999999999996 -0.19685039370078736 -0.34095488337970031 0 F -1.46646968374165 F 0 #
coedge $-1 $72 $77 $27 $49 forward $78 $-1 #
edge $-1 $55 $50 $48 $79 forward #
vertex $-1 $49 $80 #
straight-curve $-1 -0.28867513459481303 0.5 -0.79999999999999993 0 0 0.39370078740157477 I I #
coedge $-1 $81 $29 $77 $82 reversed $54 $-1 #
coedge $-1 $29 $81 $31 $58 forward $54 $-1 #
loop $-1 $-1 $53 $36 #
vertex $-1 $49 $83 #
straight-curve $-1 0.28867513459481314 0.5 -0.79999999999999993 0 0 0.39370078740157477 I I #
coedge $-1 $66 $31 $63 $84 reversed $32 $-1 #
edge $-1 $85 $33 $53 $86 forward #
face $-1 $87 $88 $2 $-1 $89 forward single #
point $-1 0.28867513459481314 0.5 -0.049999999999999996 #
point $-1 -0.28867513459481303 0.5 -0.049999999999999996 #
plane-surface $-1 0.57735026918962584 -1.0633653780651518e-016 -0.79999999999999993 0.86602540378443893 0.49999999999999972 0 0 0 0.39370078740157477 reverse_v I I I I #
coedge $-1 $90 $91 $57 $84 forward $37 $-1 #
coedge $-1 $92 $39 $91 $93 reversed $20 $-1 #
coedge $-1 $39 $92 $40 $69 forward $20 $-1 #
coedge $-1 $42 $57 $39 $67 reversed $32 $-1 #
edge $-1 $70 $94 $39 $95 forward #
coedge $-1 $41 $40 $96 $97 reversed $12 $-1 #
edge $-1 $98 $70 $65 $99 forward #
vertex $-1 $69 $100 #
straight-curve $-1 -0.28867513459481292 -0.5 -0.049999999999999996 0.19685039370078744 -0.34095488337970015 0 F -1.4664696837416495 F 0 #
coedge $-1 $96 $48 $44 $73 forward $78 $-1 #
edge $-1 $50 $74 $72 $101 forward #
vertex $-1 $73 $102 #
straight-curve $-1 -0.57735026918962595 -9.2090143090926122e-017 -0.79999999999999993 0 0 0.39370078740157477 I I #
point $-1 -0.57735026918962595 -9.2090143090926122e-017 -0.049999999999999996 #
coedge $-1 $48 $103 $52 $82 forward $78 $-1 #
loop $-1 $104 $48 $105 #
straight-curve $-1 0.18070120366104292 0.5 -0.79999999999999993 -0.39370078740157477 0 0 I I #
point $-1 -0.28867513459481303 0.5 -0.79999999999999993 #
coedge $-1 $53 $52 $90 $106 forward $54 $-1 #
edge $-1 $107 $55 $77 $108 forward #
point $-1 0.28867513459481314 0.5 -0.79999999999999993 #
edge $-1 $94 $85 $63 $109 forward #
vertex $-1 $106 $110 #
straight-curve $-1 0.28867513459481314 0.5 -0.049999999999999996 -0.19685039370078727 0.34095488337970031 0 F -1.46646968374165 F 0 #
face $-1 $105 $111 $2 $-1 $112 forward single #
loop $-1 $32 $113 $59 #
plane-surface $-1 4.4702967169051582e-017 -3.2782175923971155e-017 -0.049999999999999996 1.4643555072649869e-032 -7.321777536324937e-032 -1 0.39370078740157477 0 5.7651791624605778e-033 reverse_v I I I I #
coedge $-1 $114 $63 $81 $106 reversed $37 $-1 #
coedge $-1 $63 $114 $64 $93 forward $37 $-1 #
coedge $-1 $65 $64 $115 $116 reversed $20 $-1 #
edge $-1 $117 $94 $91 $118 forward #
vertex $-1 $93 $119 #
straight-curve $-1 0.28867513459481298 -0.50000000000000022 -0.049999999999999996 0.39370078740157477 -1.1922392500363093e-016 0 F -1.46646968374165 F 0 #
coedge $-1 $115 $72 $68 $97 forward $78 $-1 #
edge $-1 $74 $98 $96 $120 forward #
vertex $-1 $97 $121 #
straight-curve $-1 -0.28867513459481292 -0.5 -0.79999999999999993 0 0 0.39370078740157477 I I #
point $-1 -0.28867513459481292 -0.5 -0.049999999999999996 #
straight-curve $-1 -0.35175300915260727 0.39074591643244438 -0.79999999999999993 -0.19685039370078736 -0.34095488337970031 0 I I #
point $-1 -0.57735026918962595 -9.2090143090926122e-017 -0.79999999999999993 #
coedge $-1 $77 $115 $114 $122 forward $78 $-1 #
loop $-1 $-1 $123 $105 #
face $-1 $124 $78 $2 $-1 $125 forward single #
edge $-1 $107 $85 $81 $126 forward #
vertex $-1 $122 $127 #
straight-curve $-1 0.51427239463183172 0.10925408356755559 -0.79999999999999993 -0.19685039370078727 0.34095488337970031 0 I I #
straight-curve $-1 0.57735026918962584 -1.0633653780651518e-016 -0.049999999999999996 0.19685039370078736 0.34095488337970031 0 F -1.46646968374165 F 0 #
point $-1 0.57735026918962584 -1.0633653780651518e-016 -0.049999999999999996 #
loop $-1 $128 $129 $87 #
cone-surface $-1 0 0 0 0 0 1 -0.79999999999999993 0 0 1 I I 0.061048539534856873 0.99813479842186692 0.79999999999999993 reversed I I I I #
coedge $-1 $113 $113 $130 $131 forward $88 $-1 #
coedge $-1 $91 $90 $103 $122 reversed $37 $-1 #
coedge $-1 $103 $96 $92 $116 forward $78 $-1 #
edge $-1 $98 $117 $115 $132 forward #
vertex $-1 $116 $133 #
straight-curve $-1 0.28867513459481298 -0.50000000000000022 -0.79999999999999993 0 0 0.39370078740157477 I I #
point $-1 0.28867513459481298 -0.50000000000000022 -0.049999999999999996 #
straight-curve $-1 -0.49609057645001359 -0.14074591643244447 -0.79999999999999993 0.19685039370078747 -0.3409548833797002 0 I I #
point $-1 -0.28867513459481292 -0.5 -0.79999999999999993 #
edge $-1 $117 $107 $103 $134 forward #
coedge $-1 $123 $123 $129 $135 forward $104 $-1 #
face $-1 $136 $137 $2 $-1 $138 reversed single #
plane-surface $-1 0.072727272727272668 9.5903386441216073e-019 -0.79999999999999993 0 0 -1 0.39370078740157477 0 0 reverse_v I I I I #
straight-curve $-1 0.57735026918962584 -1.0633653780651518e-016 -0.79999999999999993 0 0 0.39370078740157477 I I #
point $-1 0.57735026918962584 -1.0633653780651518e-016 -0.79999999999999993 #
loop $-1 $-1 $139 $87 #
coedge $-1 $129 $129 $123 $135 reversed $111 $-1 #
coedge $-1 $130 $130 $113 $131 reversed $137 $-1 #
edge $-1 $140 $140 $113 $141 forward #
straight-curve $-1 -0.10797393093377018 -0.50000000000000011 -0.79999999999999993 0.39370078740157477 -1.1922392500363093e-016 0 I I #
point $-1 0.28867513459481298 -0.50000000000000022 -0.79999999999999993 #
straight-curve $-1 0.36993482733442534 -0.35925408356755584 -0.79999999999999993 0.19685039370078736 0.34095488337970031 0 I I #
edge $-1 $142 $142 $129 $143 forward #
face $-1 $144 $145 $2 $-1 $146 reversed single #
loop $-1 $147 $130 $124 #
cone-surface $-1 -4.6127198478847076e-032 2.3063599239423551e-031 -2.3500000000000001 1.4643555072649869e-032 -7.321777536324937e-032 1 0.1875 2.0103159859287167e-064 -2.7456665761218504e-033 1 I I 0 1 0.1875 reversed I I I I #
coedge $-1 $139 $139 $148 $149 forward $128 $-1 #
vertex $-1 $131 $150 #
ellipse-curve $-1 -1.0982666304487397e-032 5.4913331522437039e-032 -0.049999999999999906 -1.4643555072649869e-032 7.321777536324937e-032 1 0.1875 2.0103159859287167e-064 2.7456665761218504e-033 1 I I #
vertex $-1 $135 $151 #
ellipse-curve $-1 0 0 -0.79999999999999993 0 0 -1 -0.75106990387961248 0 0 1 I I #
face $-1 $152 $153 $2 $-1 $154 reversed single #
loop $-1 $-1 $155 $136 #
plane-surface $-1 0.28867513459481314 0.5 0.79999999999999993 0 1 0 0 0 0.39370078740157477 forward_v I I I I #
loop $-1 $-1 $156 $124 #
coedge $-1 $148 $148 $139 $149 reversed $157 $-1 #
edge $-1 $158 $158 $148 $159 forward #
point $-1 0.1875 5.4913331522437028e-032 -0.049999999999999996 #
point $-1 0.75106990387961248 -9.1976497645573564e-017 -0.79999999999999993 #
face $-1 $160 $161 $2 $-1 $162 reversed single #
loop $-1 $-1 $163 $144 #
plane-surface $-1 -0.28867513459481303 0.5 0.79999999999999993 -0.86602540378443882 0.49999999999999994 0 0 0 0.39370078740157477 forward_v I I I I #
coedge $-1 $164 $165 $166 $167 reversed $145 $-1 #
coedge $-1 $156 $156 $168 $169 reversed $147 $-1 #
loop $-1 $-1 $148 $170 #
vertex $-1 $149 $171 #
ellipse-curve $-1 0 0 0 0 0 -1 -0.79999999999999993 0 0 1 I I #
face $-1 $172 $173 $2 $-1 $174 reversed single #
loop $-1 $-1 $175 $152 #
plane-surface $-1 -0.57735026918962595 -9.2090143090926122e-017 0.79999999999999993 -0.8660254037844386 -0.50000000000000022 0 0 0 0.39370078740157477 forward_v I I I I #
coedge $-1 $176 $177 $178 $179 reversed $153 $-1 #
coedge $-1 $180 $155 $181 $182 reversed $145 $-1 #
coedge $-1 $155 $180 $176 $183 forward $145 $-1 #
coedge $-1 $178 $184 $155 $167 forward $185 $-1 #
edge $-1 $186 $187 $155 $188 forward #
coedge $-1 $168 $168 $156 $169 forward $189 $-1 #
edge $-1 $190 $190 $168 $191 forward #
face $-1 $192 $193 $2 $-1 $194 forward single #
point $-1 0.79999999999999993 9.7968508305790183e-017 0 #
face $-1 $195 $196 $2 $-1 $197 reversed single #
loop $-1 $-1 $198 $160 #
plane-surface $-1 -0.28867513459481292 -0.5 0.79999999999999993 -3.0282876950922257e-016 -1 0 0 0 -0.39370078740157477 forward_v I I I I #
coedge $-1 $199 $200 $201 $202 reversed $161 $-1 #
coedge $-1 $203 $163 $165 $183 reversed $153 $-1 #
coedge $-1 $163 $203 $199 $204 forward $153 $-1 #
coedge $-1 $201 $166 $163 $179 forward $185 $-1 #
edge $-1 $187 $205 $163 $206 forward #
coedge $-1 $165 $164 $207 $208 reversed $145 $-1 #
coedge $-1 $209 $210 $164 $182 forward $211 $-1 #
edge $-1 $212 $186 $164 $213 forward #
edge $-1 $214 $187 $176 $215 forward #
coedge $-1 $166 $216 $209 $217 forward $185 $-1 #
loop $-1 $-1 $166 $218 #
vertex $-1 $182 $219 #
vertex $-1 $183 $220 #
straight-curve $-1 -0.28867513459481303 0.5 0.049999999999999996 -0.39370078740157477 0 0 F -1.4664696837416507 F 0 #
loop $-1 $185 $168 $218 #
vertex $-1 $169 $221 #
ellipse-curve $-1 -1.0982666304487397e-032 5.4913331522437039e-032 0.049999999999999906 -1.4643555072649869e-032 7.321777536324937e-032 -1 0.1875 2.0103159859287167e-064 -2.7456665761218504e-033 1 I I #
face $-1 $-1 $222 $2 $-1 $223 forward single #
loop $-1 $157 $224 $170 #
cone-surface $-1 0 0 0 0 0 1 -0.79999999999999993 0 0 1 I I -0.061048539534856873 0.99813479842186692 0.79999999999999993 forward I I I I #
face $-1 $218 $211 $2 $-1 $225 reversed single #
loop $-1 $-1 $226 $172 #
plane-surface $-1 0.28867513459481298 -0.50000000000000022 0.79999999999999993 0.86602540378443882 -0.49999999999999994 0 0 0 -0.39370078740157477 forward_v I I I I #
coedge $-1 $227 $228 $229 $230 reversed $173 $-1 #
coedge $-1 $231 $175 $177 $204 reversed $161 $-1 #
coedge $-1 $175 $231 $227 $232 forward $161 $-1 #
coedge $-1 $229 $178 $175 $202 forward $185 $-1 #
edge $-1 $205 $233 $175 $234 forward #
coedge $-1 $177 $176 $235 $236 reversed $153 $-1 #
edge $-1 $237 $205 $199 $238 forward #
vertex $-1 $204 $239 #
straight-curve $-1 -0.57735026918962595 -9.2090143090926122e-017 0.049999999999999996 -0.19685039370078736 -0.34095488337970031 0 F -1.46646968374165 F 0 #
coedge $-1 $240 $235 $180 $208 forward $222 $-1 #
edge $-1 $214 $212 $207 $241 forward #
coedge $-1 $242 $181 $184 $217 reversed $211 $-1 #
coedge $-1 $181 $242 $240 $243 reversed $211 $-1 #
loop $-1 $-1 $209 $195 #
vertex $-1 $208 $244 #
straight-curve $-1 0.28867513459481314 0.5 0.79999999999999993 0 0 -0.39370078740157477 I I #
vertex $-1 $208 $245 #
straight-curve $-1 -0.28867513459481303 0.5 0.79999999999999993 0 0 -0.39370078740157477 I I #
coedge $-1 $184 $229 $226 $246 forward $185 $-1 #
edge $-1 $247 $186 $209 $248 forward #
face $-1 $170 $189 $2 $-1 $249 forward single #
point $-1 0.28867513459481314 0.5 0.049999999999999996 #
point $-1 -0.28867513459481303 0.5 0.049999999999999996 #
point $-1 0.1875 5.4913331522437028e-032 0.049999999999999996 #
loop $-1 $250 $207 $192 #
plane-surface $-1 0.072727272727272668 9.5903386441216073e-019 0.79999999999999993 0 0 1 0.39370078740157477 0 0 forward_v I I I I #
coedge $-1 $224 $224 $251 $252 forward $193 $-1 #
plane-surface $-1 0.57735026918962584 -1.0633653780651518e-016 0.79999999999999993 0.86602540378443893 0.49999999999999972 0 0 0 -0.39370078740157477 forward_v I I I I #
coedge $-1 $253 $254 $216 $246 reversed $196 $-1 #
coedge $-1 $255 $198 $200 $232 reversed $173 $-1 #
coedge $-1 $198 $255 $253 $256 forward $173 $-1 #
coedge $-1 $216 $201 $198 $230 forward $185 $-1 #
edge $-1 $233 $257 $198 $258 forward #
coedge $-1 $200 $199 $259 $260 reversed $161 $-1 #
edge $-1 $261 $233 $227 $262 forward #
vertex $-1 $232 $263 #
straight-curve $-1 -0.28867513459481292 -0.5 0.049999999999999996 0.19685039370078744 -0.34095488337970015 0 F -1.4664696837416495 F 0 #
coedge $-1 $207 $259 $203 $236 forward $222 $-1 #
edge $-1 $237 $214 $235 $264 forward #
vertex $-1 $236 $265 #
straight-curve $-1 -0.57735026918962595 -9.2090143090926122e-017 0.79999999999999993 0 0 -0.39370078740157477 I I #
point $-1 -0.57735026918962595 -9.2090143090926122e-017 0.049999999999999996 #
coedge $-1 $266 $207 $210 $243 forward $222 $-1 #
straight-curve $-1 0.18070120366104292 0.5 0.79999999999999993 0.39370078740157477 0 0 I I #
coedge $-1 $210 $209 $254 $267 reversed $211 $-1 #
edge $-1 $212 $268 $240 $269 forward #
point $-1 0.28867513459481314 0.5 0.79999999999999993 #
point $-1 -0.28867513459481303 0.5 0.79999999999999993 #
edge $-1 $257 $247 $226 $270 forward #
vertex $-1 $267 $271 #
straight-curve $-1 0.28867513459481314 0.5 0.049999999999999996 -0.19685039370078727 0.34095488337970031 0 F -1.46646968374165 F 0 #
plane-surface $-1 4.4702967169051582e-017 -3.2782175923971155e-017 0.049999999999999996 1.4643555072649869e-032 -7.321777536324937e-032 1 0.39370078740157477 0 -5.7651791624605778e-033 forward_v I I I I #
loop $-1 $-1 $251 $192 #
coedge $-1 $251 $251 $224 $252 reversed $250 $-1 #
edge $-1 $272 $272 $224 $273 forward #
coedge $-1 $274 $226 $228 $256 reversed $196 $-1 #
coedge $-1 $226 $274 $242 $267 forward $196 $-1 #
coedge $-1 $228 $227 $275 $276 reversed $173 $-1 #
edge $-1 $277 $257 $253 $278 forward #
vertex $-1 $256 $279 #
straight-curve $-1 0.28867513459481298 -0.50000000000000022 0.049999999999999996 0.39370078740157477 -1.1922392500363093e-016 0 F -1.46646968374165 F 0 #
coedge $-1 $235 $275 $231 $260 forward $222 $-1 #
edge $-1 $261 $237 $259 $280 forward #
vertex $-1 $260 $281 #
straight-curve $-1 -0.28867513459481292 -0.5 0.79999999999999993 0 0 -0.39370078740157477 I I #
point $-1 -0.28867513459481292 -0.5 0.049999999999999996 #
straight-curve $-1 -0.35175300915260727 0.39074591643244438 0.79999999999999993 0.19685039370078736 0.34095488337970031 0 I I #
point $-1 -0.57735026918962595 -9.2090143090926122e-017 0.79999999999999993 #
coedge $-1 $275 $240 $274 $282 forward $222 $-1 #
edge $-1 $268 $247 $242 $283 forward #
vertex $-1 $282 $284 #
straight-curve $-1 0.51427239463183172 0.10925408356755559 0.79999999999999993 0.19685039370078727 -0.34095488337970031 0 I I #
straight-curve $-1 0.57735026918962584 -1.0633653780651518e-016 0.049999999999999996 0.19685039370078736 0.34095488337970031 0 F -1.46646968374165 F 0 #
point $-1 0.57735026918962584 -1.0633653780651518e-016 0.049999999999999996 #
vertex $-1 $252 $285 #
ellipse-curve $-1 0 0 0.79999999999999993 0 0 -1 -0.75106990387961248 0 0 1 I I #
coedge $-1 $254 $253 $266 $282 reversed $196 $-1 #
coedge $-1 $259 $266 $255 $276 forward $222 $-1 #
edge $-1 $277 $261 $275 $286 forward #
vertex $-1 $276 $287 #
straight-curve $-1 0.28867513459481298 -0.50000000000000022 0.79999999999999993 0 0 -0.39370078740157477 I I #
point $-1 0.28867513459481298 -0.50000000000000022 0.049999999999999996 #
straight-curve $-1 -0.49609057645001359 -0.14074591643244447 0.79999999999999993 -0.19685039370078747 0.3409548833797002 0 I I #
point $-1 -0.28867513459481292 -0.5 0.79999999999999993 #
edge $-1 $268 $277 $266 $288 forward #
straight-curve $-1 0.57735026918962584 -1.0633653780651518e-016 0.79999999999999993 0 0 -0.39370078740157477 I I #
point $-1 0.57735026918962584 -1.0633653780651518e-016 0.79999999999999993 #
point $-1 0.75106990387961248 -9.1976497645573564e-017 0.79999999999999993 #
straight-curve $-1 -0.10797393093377018 -0.50000000000000011 0.79999999999999993 -0.39370078740157477 1.1922392500363093e-016 0 I I #
point $-1 0.28867513459481298 -0.50000000000000022 0.79999999999999993 #
straight-curve $-1 0.36993482733442534 -0.35925408356755584 0.79999999999999993 -0.19685039370078736 -0.34095488337970031 0 I I #
End-of-ACIS-data 