700 0 2 0           
29 Autodesk Inventor 6.2.0.12000 17 ASM 6.0.1.6021 NT 24 Thu Dec 29 14:49:29 2005 
25.399999999999999 9.9999999999999995e-007 1e-010 
body $-1 -1 $-1 $2 $-1 $-1 #
body $-1 -1 $-1 $3 $-1 $-1 #
lump $-1 -1 $-1 $-1 $4 $0 #
lump $-1 -1 $-1 $-1 $5 $1 #
shell $-1 -1 $-1 $-1 $-1 $6 $-1 $2 #
shell $-1 -1 $-1 $-1 $-1 $7 $-1 $3 #
face $-1 -1 $-1 $8 $9 $4 $-1 $10 reversed single #
face $-1 -1 $-1 $11 $12 $5 $-1 $13 reversed single #
face $-1 -1 $-1 $14 $15 $4 $-1 $16 reversed single #
loop $-1 -1 $-1 $17 $18 $6 #
cone-surface $-1 -1 $-1 -0.2198255338595749 -0.065505581220619377 0.23622047244094491 1.7415263131375002e-016 -1 0 0.13616141732283463 2.3712869110181276e-017 0 1 I I 0 1 0.13616141732283463 reversed I I I I #
face $-1 -1 $-1 $19 $20 $5 $-1 $21 reversed single #
loop $-1 -1 $-1 $-1 $22 $7 #
plane-surface $-1 -1 $-1 -0.34344211383345441 -0.30330085681117047 0.13865515710982615 0.46137097825921164 8.0348969875640727e-017 -0.88720731535540109 -6.8564028076279582e-017 0.39370078740157477 4.8527368677473655e-033 forward_v I I I I #
face $-1 -1 $-1 $23 $24 $4 $-1 $25 forward single #
loop $-1 -1 $-1 $26 $27 $8 #
cone-surface $-1 -1 $-1 -0.21982553385957496 1.6295504020463318 0.84645669291338588 8.7076315656875009e-017 -1 0 0.12795275590551181 1.1141654562395424e-017 0 1 I I 0 1 0.12795275590551181 reversed I I I I #
loop $-1 -1 $-1 $-1 $28 $6 #
coedge $-1 -1 $-1 $18 $18 $29 $30 reversed $9 $-1 #
face $-1 -1 $-1 $31 $32 $5 $-1 $33 forward single #
loop $-1 -1 $-1 $-1 $34 $11 #
plane-surface $-1 -1 $-1 -0.096208953885695253 -0.30330085681117047 0.33378578777206364 -0.46137097825921164 -8.0348969875640727e-017 0.88720731535540109 6.8564028076279582e-017 -0.39370078740157477 -4.8527368677473655e-033 forward_v I I I I #
coedge $-1 -1 $-1 $35 $36 $37 $38 reversed $12 $-1 #
face $-1 -1 $-1 $39 $40 $4 $-1 $41 forward single #
loop $-1 -1 $-1 $42 $43 $14 #
plane-surface $-1 -1 $-1 0.031158718108929062 0.24945504870064045 0.47244094488188981 8.7076315656875009e-017 -1 0 0 0 -0.39370078740157477 forward_v I I I I #
loop $-1 -1 $-1 $-1 $44 $8 #
coedge $-1 -1 $-1 $27 $27 $45 $46 reversed $15 $-1 #
coedge $-1 -1 $-1 $28 $28 $47 $48 reversed $17 $-1 #
coedge $-1 -1 $-1 $29 $29 $18 $30 forward $49 $-1 #
edge $-1 -1 $-1 $50 0 $50 2.2377811083240768 $29 $51 forward @7 unknown #
face $-1 -1 $-1 $52 $53 $5 $-1 $54 forward single #
loop $-1 -1 $-1 $-1 $37 $19 #
plane-surface $-1 -1 $-1 -0.21982553385957487 -0.22456069933085543 0.23622047244094491 1.7415263131374975e-016 -1 7.7933370096355193e-031 0.18164211742488645 3.1633452706944811e-017 -0.34929421864385868 forward_v I I I I #
coedge $-1 -1 $-1 $55 $56 $57 $58 reversed $20 $-1 #
coedge $-1 -1 $-1 $59 $22 $60 $61 reversed $12 $-1 #
coedge $-1 -1 $-1 $22 $59 $62 $63 reversed $12 $-1 #
coedge $-1 -1 $-1 $64 $65 $22 $38 forward $32 $-1 #
edge $-1 -1 $-1 $66 0 $67 0.78581168227508558 $22 $68 forward @7 unknown #
face $-1 -1 $-1 $69 $49 $4 $-1 $70 reversed single #
loop $-1 -1 $-1 $-1 $71 $23 #
plane-surface $-1 -1 $-1 -0.2198255338595749 0.29866764712583727 1.1614173228346456 -6.0658277987005629e-031 -1.8249767210336825e-029 1 0.39370078740157477 0 2.3881211805907726e-031 forward_v I I I I #
loop $-1 -1 $-1 $-1 $72 $14 #
coedge $-1 -1 $-1 $43 $43 $44 $73 forward $24 $-1 #
coedge $-1 -1 $-1 $44 $44 $43 $73 reversed $26 $-1 #
coedge $-1 -1 $-1 $45 $45 $27 $46 forward $74 $-1 #
edge $-1 -1 $-1 $75 -3.1415926535897931 $75 3.1415926535897931 $45 $76 forward @7 unknown #
coedge $-1 -1 $-1 $47 $47 $28 $48 forward $77 $-1 #
edge $-1 -1 $-1 $78 0 $78 6.2831853071795862 $47 $79 forward @7 unknown #
loop $-1 -1 $-1 $80 $29 $39 #
vertex $-1 -1 $-1 $30 $81 #
intcurve-curve $-1 -1 $-1 forward { surfintcur full nubs 3 periodic 21 
	0 3 0.071083927519744905 2 0.14216785503948981 2 0.28433571007897962 2 0.42189049357999936 2 
	0.5594452770810191 2 0.697000060582039 2 0.83455484408305891 2 0.97672269912254861 2 1.0478066266422936 2 
	1.1188905541620384 2 1.1899744816817832 2 1.2610584092015282 2 1.403226264241018 2 1.5407810477420378 2 
	1.6783358312430579 2 1.8158906147440779 2 1.9534453982450977 2 2.0956132532845873 2 2.166697180804332 2 
	2.2377811083240768 3 
	-0.083664116536740274 -0.027938244615449581 0.23622047244094491 
	-0.083664116536740274 -0.027938244615449581 0.24554907185298488 
	-0.084627166614269833 -0.02927783757602714 0.25478424754676104 
	-0.088313586903045416 -0.034007858729291005 0.27265973877659105 
	-0.091036013101508648 -0.037372899669841142 0.28130695700433572 
	-0.10151268687688828 -0.04893677302495468 0.30593706603499921 
	-0.11169735066298291 -0.058483370966267594 0.32065361229424855 
	-0.13500796487487821 -0.074632110086114076 0.34396422650614383 
	-0.14973465127474564 -0.082571466675155053 0.35435638375119161 
	-0.18309881459819441 -0.09367976222972553 0.36858351563007224 
	-0.20177372500117335 -0.096782986216319186 0.37238188976377956 
	-0.23787734271797645 -0.096782986216319158 0.37238188976377956 
	-0.25655225312095548 -0.093679762229725475 0.36858351563007219 
	-0.28991641644440419 -0.082571466675154942 0.35435638375119155 
	-0.30464310284427165 -0.074632110086113923 0.34396422650614372 
	-0.32795371705616694 -0.058483370966267378 0.32065361229424844 
	-0.33813838084226155 -0.0489367730249545 0.30593706603499915 
	-0.34861505461764114 -0.037372899669840934 0.28130695700433572 
	-0.35133748081610439 -0.034007858729290803 0.27265973877659105 
	-0.35502390110487997 -0.029277837576026925 0.25478424754676104 
	-0.35598695118240953 -0.027938244615449342 0.24554907185298488 
	-0.35598695118240953 -0.027938244615449342 0.2268918730289049 
	-0.35502390110487997 -0.029277837576026915 0.2176566973351288 
	-0.35133748081610439 -0.034007858729290803 0.19978120610529876 
	-0.34861505461764114 -0.037372899669840934 0.19113398787755409 
	-0.33813838084226155 -0.0489367730249545 0.16650387884689066 
	-0.32795371705616688 -0.05848337096626742 0.15178733258764132 
	-0.30464310284427165 -0.074632110086113951 0.12847671837574606 
	-0.28991641644440425 -0.082571466675154942 0.11808456113069825 
	-0.25655225312095548 -0.093679762229725475 0.10385742925181761 
	-0.23787734271797645 -0.096782986216319172 0.10005905511811027 
	-0.20177372500117327 -0.096782986216319172 0.10005905511811027 
	-0.18309881459819427 -0.093679762229725516 0.10385742925181761 
	-0.14973465127474556 -0.082571466675155025 0.11808456113069828 
	-0.13500796487487812 -0.07463211008611402 0.12847671837574606 
	-0.11169735066298285 -0.058483370966267531 0.15178733258764135 
	-0.10151268687688822 -0.048936773024954631 0.16650387884689069 
	-0.091036013101508662 -0.037372899669841128 0.19113398787755403 
	-0.088313586903045416 -0.034007858729291005 0.19978120610529876 
	-0.084627166614269833 -0.029277837576027133 0.21765669733512874 
	-0.083664116536740274 -0.027938244615449581 0.2268918730289049 
	-0.083664116536740274 -0.027938244615449581 0.23622047244094491 
	9.5657190222673099e-005 
	cone -0.2198255338595749 -0.065505581220619377 0.23622047244094491 1.7415263131375002e-016 -1 0 0.13616141732283463 2.3712869110181276e-017 0 1 I I 0 1 0.13616141732283463 reversed I I I I 
	cone -0.21982553385957482 0.072289694369931767 0 0 0 1 -0.16907268058625094 0 0 1 I I 0 -1 0.16907268058625094 forward I I I I 
	nullbs 
	nullbs 
	I I 
	0 
	0 
	0 
	} I I #
face $-1 -1 $-1 $82 $83 $5 $-1 $54 forward single #
loop $-1 -1 $-1 $-1 $84 $31 #
plane-surface $-1 -1 $-1 -0.21322036595321531 -0.30330085681117047 0.22351886449025912 1.7415263131375017e-016 -1 -1.2325951644078309e-032 0.18164211742488645 3.1633452706945163e-017 -0.34929421864385868 forward_v I I I I #
coedge $-1 -1 $-1 $85 $34 $86 $87 reversed $20 $-1 #
coedge $-1 -1 $-1 $34 $85 $88 $89 reversed $20 $-1 #
coedge $-1 -1 $-1 $65 $64 $34 $58 forward $32 $-1 #
edge $-1 -1 $-1 $90 0 $91 0.78581168227508558 $34 $92 forward @7 unknown #
coedge $-1 -1 $-1 $36 $35 $93 $94 reversed $12 $-1 #
coedge $-1 -1 $-1 $95 $96 $35 $61 forward $97 $-1 #
edge $-1 -1 $-1 $98 -1.03 $66 -0.82999999999999985 $60 $99 forward @7 unknown #
coedge $-1 -1 $-1 $96 $100 $36 $63 forward $97 $-1 #
edge $-1 -1 $-1 $67 0.82999999999999985 $101 1.03 $62 $102 forward @7 unknown #
coedge $-1 -1 $-1 $57 $37 $100 $103 reversed $32 $-1 #
coedge $-1 -1 $-1 $37 $57 $95 $104 reversed $32 $-1 #
vertex $-1 -1 $-1 $61 $105 #
vertex $-1 -1 $-1 $63 $106 #
straight-curve $-1 -1 $-1 -0.34344211383345441 -0.22456069933085557 0.13865515710982615 0.34929421864385868 6.083050727950835e-017 0.18164211742488645 F 0 F 0.78581168227508558 #
face $-1 -1 $-1 $107 $108 $4 $-1 $109 forward single #
cone-surface $-1 -1 $-1 -0.21982553385957482 0.072289694369931767 0 0 0 1 -0.16907268058625094 0 0 1 I I 0 1 0.16907268058625094 forward I I I I #
coedge $-1 -1 $-1 $110 $111 $112 $113 reversed $40 $-1 #
coedge $-1 -1 $-1 $114 $115 $111 $116 forward $42 $-1 #
edge $-1 -1 $-1 $117 0 $117 6.2831853071795862 $43 $118 forward @7 unknown #
loop $-1 -1 $-1 $119 $45 $120 #
vertex $-1 -1 $-1 $46 $121 #
ellipse-curve $-1 -1 $-1 -0.21982553385957482 0.34788024555103403 0.84645669291338588 8.7076315656875009e-017 -1 0 0.12795275590551181 1.1141654562395424e-017 0 1 I I #
loop $-1 -1 $-1 $122 $47 $107 #
vertex $-1 -1 $-1 $48 $123 #
ellipse-curve $-1 -1 $-1 -0.21982553385957487 -0.20330085681117055 0.23622047244094491 -1.7415263131375002e-016 1 0 0.13616141732283463 2.3712869110181276e-017 0 1 I I #
loop $-1 -1 $-1 $124 $125 $39 #
point $-1 -1 $-1 -0.083664116536740274 -0.027938244615449581 0.23622047244094491 #
face $-1 -1 $-1 $126 $127 $5 $-1 $128 forward single #
loop $-1 -1 $-1 $-1 $93 $52 #
coedge $-1 -1 $-1 $129 $129 $85 $130 forward $53 $-1 #
coedge $-1 -1 $-1 $56 $55 $84 $130 reversed $20 $-1 #
coedge $-1 -1 $-1 $100 $131 $55 $87 forward $97 $-1 #
edge $-1 -1 $-1 $132 -1.03 $90 -0.82999999999999985 $86 $133 forward @7 unknown #
coedge $-1 -1 $-1 $131 $95 $56 $89 forward $97 $-1 #
edge $-1 -1 $-1 $91 0.82999999999999985 $134 1.03 $88 $135 forward @7 unknown #
vertex $-1 -1 $-1 $87 $136 #
vertex $-1 -1 $-1 $89 $137 #
straight-curve $-1 -1 $-1 -0.096208953885695253 -0.22456069933085548 0.33378578777206364 -0.34929421864385868 -6.083050727950835e-017 -0.18164211742488645 F 0 F 0.78581168227508558 #
coedge $-1 -1 $-1 $138 $138 $59 $94 forward $83 $-1 #
edge $-1 -1 $-1 $101 -0.58935876170631418 $98 0.19645292056877139 $93 $139 forward @7 unknown #
coedge $-1 -1 $-1 $88 $60 $65 $104 forward $97 $-1 #
coedge $-1 -1 $-1 $60 $62 $138 $140 forward $97 $-1 #
loop $-1 -1 $-1 $141 $62 $126 #
vertex $-1 -1 $-1 $61 $142 #
straight-curve $-1 -1 $-1 -0.34344211383345452 0.10221095421245154 0.13865515710982615 -6.8564028076279582e-017 0.39370078740157477 4.8527368677473655e-033 I I #
coedge $-1 -1 $-1 $62 $86 $64 $103 forward $97 $-1 #
vertex $-1 -1 $-1 $140 $143 #
straight-curve $-1 -1 $-1 -0.068962636271962335 0.10221095421245159 0.28139165497548485 6.8564028076279582e-017 -0.39370078740157477 -4.8527368677473655e-033 I I #
edge $-1 -1 $-1 $90 1.3821799406194926 $67 1.7594127129703008 $100 $144 forward @7 unknown #
edge $-1 -1 $-1 $66 -1.7594127129703008 $91 -1.3821799406194926 $95 $144 forward @7 unknown #
point $-1 -1 $-1 -0.34344211383345441 -0.22456069933085548 0.13865515710982615 #
point $-1 -1 $-1 -0.068962636271962294 -0.2245606993308554 0.2813916549754848 #
face $-1 -1 $-1 $145 $77 $4 $-1 $146 forward single #
loop $-1 -1 $-1 $-1 $147 $69 #
plane-surface $-1 -1 $-1 0.031158718108929048 0.3478802455510342 0 1 5.9476233462061956e-017 0 0 0 -0.39370078740157477 forward_v I I I I #
coedge $-1 -1 $-1 $148 $71 $149 $150 reversed $40 $-1 #
coedge $-1 -1 $-1 $71 $148 $72 $116 reversed $40 $-1 #
coedge $-1 -1 $-1 $151 $152 $71 $113 forward $108 $-1 #
edge $-1 -1 $-1 $153 -1.3999999999999999 $154 -1.1499999999999999 $112 $155 forward @7 unknown #
coedge $-1 -1 $-1 $156 $72 $157 $158 reversed $42 $-1 #
coedge $-1 -1 $-1 $72 $156 $151 $159 forward $42 $-1 #
edge $-1 -1 $-1 $154 -1.2750000000000001 $160 0 $72 $161 forward @7 unknown #
vertex $-1 -1 $-1 $73 $162 #
ellipse-curve $-1 -1 $-1 -0.21982553385957482 0.24945504870064036 0.84645669291338588 -8.7076315656875009e-017 1 0 0.12795275590551181 1.1141654562395424e-017 0 1 I I #
loop $-1 -1 $-1 $-1 $163 $120 #
face $-1 -1 $-1 $164 $74 $4 $-1 $165 forward single #
point $-1 -1 $-1 -0.34777828976508662 0.34788024555103403 0.84645669291338588 #
loop $-1 -1 $-1 $-1 $166 $107 #
point $-1 -1 $-1 -0.083664116536740232 -0.20330085681117052 0.23622047244094491 #
loop $-1 -1 $-1 $-1 $167 $39 #
coedge $-1 -1 $-1 $125 $125 $168 $169 reversed $80 $-1 #
face $-1 -1 $-1 $170 $97 $5 $-1 $171 forward single #
loop $-1 -1 $-1 $172 $173 $82 #
cone-surface $-1 -1 $-1 -0.2198255338595749 0.096305442401427938 0.23622047244094491 -1.7415263131375017e-016 1 1.2325951644078309e-032 -0.069932215208581283 -1.217887929217389e-017 0.13447827417788558 1 I I -0.70710678118654779 0.70710678118654713 0.15157480314960628 forward I I I I #
coedge $-1 -1 $-1 $84 $84 $131 $174 reversed $53 $-1 #
edge $-1 -1 $-1 $134 -0.58935876170631418 $132 0.19645292056877139 $84 $175 forward @7 unknown #
coedge $-1 -1 $-1 $86 $88 $129 $174 forward $97 $-1 #
vertex $-1 -1 $-1 $130 $176 #
straight-curve $-1 -1 $-1 -0.096208953885695309 0.10221095421245159 0.33378578777206364 -6.8564028076279582e-017 0.39370078740157477 4.8527368677473655e-033 I I #
vertex $-1 -1 $-1 $174 $177 #
straight-curve $-1 -1 $-1 -0.37068843144718749 0.10221095421245154 0.19104928990640496 6.8564028076279582e-017 -0.39370078740157477 -4.8527368677473655e-033 I I #
point $-1 -1 $-1 -0.096208953885695253 -0.2245606993308554 0.33378578777206364 #
point $-1 -1 $-1 -0.37068843144718738 -0.22456069933085548 0.19104928990640496 #
coedge $-1 -1 $-1 $93 $93 $96 $140 reversed $83 $-1 #
straight-curve $-1 -1 $-1 -0.27482224444308134 -0.30330085681117047 0.17433928157624082 -0.34929421864385868 -6.083050727950835e-017 -0.18164211742488645 I I #
edge $-1 -1 $-1 $101 1.7594127129703008 $98 4.5237725942092855 $96 $178 forward @7 unknown #
loop $-1 -1 $-1 $-1 $179 $126 #
point $-1 -1 $-1 -0.34344211383345441 -0.30330085681117047 0.13865515710982615 #
point $-1 -1 $-1 -0.068962636271962294 -0.30330085681117047 0.2813916549754848 #
ellipse-curve $-1 -1 $-1 -0.21982553385957487 -0.22456069933085543 0.23622047244094491 -1.7415263131374975e-016 1 -7.7933370096355193e-031 -0.072656846969954586 -1.2653381082778068e-017 0.13971768745754345 1 I I #
face $-1 -1 $-1 $120 $180 $4 $-1 $181 forward single #
plane-surface $-1 -1 $-1 0.031158718108929083 -0.20330085681117052 0 1.7415263131375002e-016 -1 0 0 0 -0.39370078740157477 forward_v I I I I #
coedge $-1 -1 $-1 $182 $151 $183 $184 forward $108 $-1 #
coedge $-1 -1 $-1 $111 $110 $185 $186 reversed $40 $-1 #
coedge $-1 -1 $-1 $163 $187 $110 $150 forward $119 $-1 #
edge $-1 -1 $-1 $188 -1.2750000000000001 $153 -8.3266726846886741e-017 $149 $189 forward @7 unknown #
coedge $-1 -1 $-1 $147 $112 $115 $159 reversed $108 $-1 #
coedge $-1 -1 $-1 $112 $190 $163 $191 forward $108 $-1 #
vertex $-1 -1 $-1 $191 $192 #
vertex $-1 -1 $-1 $159 $193 #
straight-curve $-1 -1 $-1 0.031158718108929083 -0.20330085681117047 1.1614173228346456 2.3415839945693682e-017 -0.39370078740157477 0 F -1.3999999999999999 F 0 #
coedge $-1 -1 $-1 $115 $114 $194 $195 reversed $42 $-1 #
coedge $-1 -1 $-1 $185 $196 $114 $158 forward $180 $-1 #
edge $-1 -1 $-1 $197 0 $160 1.75 $157 $198 forward @7 unknown #
edge $-1 -1 $-1 $199 0 $154 1.75 $115 $200 forward @7 unknown #
vertex $-1 -1 $-1 $158 $201 #
straight-curve $-1 -1 $-1 -0.47080978582807881 0.24945504870064039 1.1614173228346456 -0.39370078740157477 -3.4282014038139766e-017 0 F -1.2750000000000001 F 0 #
point $-1 -1 $-1 -0.09187277795406304 0.24945504870064047 0.84645669291338588 #
coedge $-1 -1 $-1 $202 $149 $152 $191 reversed $119 $-1 #
face $-1 -1 $-1 $203 $204 $4 $-1 $205 forward single #
plane-surface $-1 -1 $-1 -0.47080978582807881 0.34788024555103414 0 -8.7076315656875009e-017 1 0 0 0 0.39370078740157477 forward_v I I I I #
coedge $-1 -1 $-1 $206 $207 $208 $209 forward $122 $-1 #
coedge $-1 -1 $-1 $167 $167 $210 $211 reversed $124 $-1 #
coedge $-1 -1 $-1 $168 $168 $125 $169 forward $212 $-1 #
edge $-1 -1 $-1 $213 -3.1415926535897931 $213 3.1415926535897931 $168 $214 forward @7 unknown #
face $-1 -1 $-1 $-1 $215 $5 $-1 $216 reversed single #
cone-surface $-1 -1 $-1 -0.2198255338595749 0.10221095421245156 0.23622047244094491 1.7415263131375017e-016 -1 -1.2325951644078309e-032 -0.072656846969954586 -1.2653381082778068e-017 0.13971768745754345 1 I I 0 1 0.15748031496062992 forward I I I I #
loop $-1 -1 $-1 $-1 $217 $82 #
coedge $-1 -1 $-1 $173 $173 $179 $218 forward $127 $-1 #
edge $-1 -1 $-1 $134 -1.3821799406194926 $132 1.3821799406194926 $131 $178 forward @7 unknown #
straight-curve $-1 -1 $-1 -0.16482882327606829 -0.30330085681117047 0.29810166330564897 0.34929421864385868 6.083050727950835e-017 0.18164211742488645 I I #
point $-1 -1 $-1 -0.096208953885695253 -0.30330085681117047 0.33378578777206364 #
point $-1 -1 $-1 -0.37068843144718738 -0.30330085681117047 0.19104928990640496 #
ellipse-curve $-1 -1 $-1 -0.21982553385957482 -0.30330085681117047 0.23622047244094491 -1.7415263131375017e-016 1 1.2325951644078309e-032 -0.072656846969954586 -1.2653381082778068e-017 0.13971768745754345 1 I I #
coedge $-1 -1 $-1 $179 $179 $173 $218 reversed $141 $-1 #
loop $-1 -1 $-1 $-1 $196 $145 #
plane-surface $-1 -1 $-1 -0.47080978582807881 -0.2033008568111706 0 -1 0 0 0 0 0.39370078740157477 forward_v I I I I #
coedge $-1 -1 $-1 $190 $147 $207 $219 reversed $108 $-1 #
coedge $-1 -1 $-1 $194 $208 $147 $184 reversed $204 $-1 #
edge $-1 -1 $-1 $199 0.25000000000000011 $220 1.3999999999999999 $147 $221 forward @7 unknown #
coedge $-1 -1 $-1 $222 $157 $148 $186 forward $180 $-1 #
edge $-1 -1 $-1 $160 -0.25000000000000011 $188 0 $185 $223 forward @7 unknown #
coedge $-1 -1 $-1 $149 $202 $222 $224 forward $119 $-1 #
vertex $-1 -1 $-1 $224 $225 #
straight-curve $-1 -1 $-1 0.031158718108929083 0.3478802455510342 1.1614173228346456 0.39370078740157477 3.4282014038139766e-017 0 F -1.2750000000000001 F 0 #
coedge $-1 -1 $-1 $152 $182 $226 $227 reversed $108 $-1 #
edge $-1 -1 $-1 $228 0 $153 2.9500000000000002 $152 $229 forward @7 unknown #
point $-1 -1 $-1 0.031158718108929048 0.3478802455510342 1.1614173228346456 #
point $-1 -1 $-1 0.031158718108929062 0.24945504870064045 1.1614173228346456 #
coedge $-1 -1 $-1 $230 $183 $156 $195 forward $204 $-1 #
edge $-1 -1 $-1 $199 -0.31875000000000014 $197 0.95624999999999993 $194 $231 forward @7 unknown #
coedge $-1 -1 $-1 $157 $232 $230 $233 forward $180 $-1 #
vertex $-1 -1 $-1 $158 $234 #
straight-curve $-1 -1 $-1 -0.47080978582807881 0.24945504870064039 0.47244094488188981 0 0 0.39370078740157477 I I #
vertex $-1 -1 $-1 $184 $235 #
straight-curve $-1 -1 $-1 0.031158718108929062 0.24945504870064045 0.47244094488188981 0 0 0.39370078740157477 I I #
point $-1 -1 $-1 -0.47080978582807881 0.24945504870064039 1.1614173228346456 #
coedge $-1 -1 $-1 $187 $163 $236 $237 reversed $119 $-1 #
face $-1 -1 $-1 $-1 $238 $4 $-1 $239 reversed single #
loop $-1 -1 $-1 $212 $194 $164 #
plane-surface $-1 -1 $-1 -0.21982553385957496 0.072289694369931781 0.47244094488188981 0 0 1 0.39370078740157477 0 0 forward_v I I I I #
coedge $-1 -1 $-1 $240 $166 $232 $241 reversed $122 $-1 #
coedge $-1 -1 $-1 $166 $240 $182 $219 forward $122 $-1 #
coedge $-1 -1 $-1 $183 $230 $166 $209 reversed $204 $-1 #
edge $-1 -1 $-1 $220 0 $242 1.2750000000000001 $166 $243 forward @7 unknown #
coedge $-1 -1 $-1 $210 $210 $167 $211 forward $238 $-1 #
edge $-1 -1 $-1 $244 -3.1415926535897931 $244 3.1415926535897931 $210 $245 forward @7 unknown #
loop $-1 -1 $-1 $-1 $168 $164 #
vertex $-1 -1 $-1 $169 $246 #
ellipse-curve $-1 -1 $-1 -0.21982553385957482 0.072289694369931767 0.47244094488188981 0 0 -1 -0.16907268058625094 0 0 1 I I #
loop $-1 -1 $-1 $-1 $247 $170 #
plane-surface $-1 -1 $-1 -0.21322036595321542 0.10221095421245156 0.22351886449025912 1.7415263131375017e-016 -1 -1.2325951644078309e-032 0.18164211742488645 3.1633452706945163e-017 -0.34929421864385868 forward_v I I I I #
coedge $-1 -1 $-1 $217 $217 $247 $248 forward $172 $-1 #
edge $-1 -1 $-1 $249 -3.1415926535897931 $249 3.1415926535897931 $179 $250 forward @7 unknown #
edge $-1 -1 $-1 $251 0 $220 1.2000000000000002 $207 $252 forward @7 unknown #
vertex $-1 -1 $-1 $219 $253 #
straight-curve $-1 -1 $-1 0.031158718108929048 0.3478802455510342 0.47244094488188981 2.3415839945693682e-017 -0.39370078740157477 0 F 0 F 1.3999999999999999 #
coedge $-1 -1 $-1 $254 $185 $187 $224 reversed $180 $-1 #
straight-curve $-1 -1 $-1 -0.47080978582807881 0.34788024555103414 1.1614173228346456 0 0.39370078740157477 0 F -1.4000000000000001 F 0 #
edge $-1 -1 $-1 $255 0 $188 2.9500000000000002 $187 $256 forward @7 unknown #
point $-1 -1 $-1 -0.47080978582807881 0.34788024555103414 1.1614173228346456 #
coedge $-1 -1 $-1 $257 $236 $190 $227 forward $258 $-1 #
edge $-1 -1 $-1 $228 0 $251 1.3999999999999999 $226 $259 forward @7 unknown #
vertex $-1 -1 $-1 $237 $260 #
straight-curve $-1 -1 $-1 0.031158718108929048 0.3478802455510342 0 0 0 0.39370078740157477 I I #
coedge $-1 -1 $-1 $208 $194 $196 $233 reversed $204 $-1 #
straight-curve $-1 -1 $-1 -0.094333407875322947 0.24945504870064045 0.47244094488188981 -0.39370078740157477 -3.4282014038139766e-017 0 I I #
coedge $-1 -1 $-1 $196 $254 $206 $241 forward $180 $-1 #
edge $-1 -1 $-1 $242 0 $197 1.1499999999999999 $196 $261 forward @7 unknown #
point $-1 -1 $-1 -0.47080978582807881 0.24945504870064039 0.47244094488188981 #
point $-1 -1 $-1 0.031158718108929062 0.24945504870064045 0.47244094488188981 #
coedge $-1 -1 $-1 $226 $262 $202 $237 forward $258 $-1 #
edge $-1 -1 $-1 $255 0 $228 1.2750000000000001 $236 $263 forward @7 unknown #
loop $-1 -1 $-1 $258 $210 $203 #
plane-surface $-1 -1 $-1 -0.2198255338595749 0.072289694369931781 0 0 0 1 0.39370078740157477 0 0 forward_v I I I I #
coedge $-1 -1 $-1 $207 $206 $257 $264 reversed $122 $-1 #
edge $-1 -1 $-1 $265 0 $242 1.2000000000000002 $232 $266 forward @7 unknown #
vertex $-1 -1 $-1 $241 $267 #
straight-curve $-1 -1 $-1 0.031158718108929083 -0.20330085681117052 0.47244094488188981 -0.39370078740157477 -6.8564028076279532e-017 0 F 0 F 1.2750000000000001 #
vertex $-1 -1 $-1 $211 $268 #
ellipse-curve $-1 -1 $-1 -0.21982553385957482 0.072289694369931767 0 0 0 1 -0.16907268058625094 0 0 1 I I #
point $-1 -1 $-1 -0.050752853273323878 0.072289694369931781 0.47244094488188981 #
coedge $-1 -1 $-1 $247 $247 $217 $248 reversed $215 $-1 #
edge $-1 -1 $-1 $269 -3.1415926535897931 $269 3.1415926535897931 $247 $270 forward @7 unknown #
vertex $-1 -1 $-1 $218 $271 #
ellipse-curve $-1 -1 $-1 -0.2198255338595749 0.090399930590404326 0.23622047244094491 -1.7415263131375017e-016 1 1.2325951644078309e-032 -0.072656846969954586 -1.2653381082778068e-017 0.13971768745754345 1 I I #
vertex $-1 -1 $-1 $227 $272 #
straight-curve $-1 -1 $-1 0.031158718108929083 -0.20330085681117052 0 0 0 0.39370078740157477 I I #
point $-1 -1 $-1 0.031158718108929083 -0.20330085681117052 0.47244094488188981 #
coedge $-1 -1 $-1 $232 $222 $262 $273 reversed $180 $-1 #
vertex $-1 -1 $-1 $237 $274 #
straight-curve $-1 -1 $-1 -0.47080978582807881 0.34788024555103414 0 0 0 0.39370078740157477 I I #
coedge $-1 -1 $-1 $262 $226 $240 $264 forward $258 $-1 #
loop $-1 -1 $-1 $-1 $236 $203 #
straight-curve $-1 -1 $-1 0.031158718108929048 0.3478802455510342 0 2.3415839945693682e-017 -0.39370078740157477 0 F 0 F 1.3999999999999999 #
point $-1 -1 $-1 0.031158718108929048 0.3478802455510342 0 #
straight-curve $-1 -1 $-1 -0.47080978582807881 -0.2033008568111706 0.47244094488188981 0 0.39370078740157477 0 F 0 F 1.4000000000000001 #
coedge $-1 -1 $-1 $236 $257 $254 $273 forward $258 $-1 #
straight-curve $-1 -1 $-1 -0.47080978582807881 0.34788024555103414 0 0.39370078740157477 3.4282014038139766e-017 0 F 0 F 1.2750000000000001 #
edge $-1 -1 $-1 $251 0 $265 1.2750000000000001 $257 $275 forward @7 unknown #
vertex $-1 -1 $-1 $264 $276 #
straight-curve $-1 -1 $-1 -0.47080978582807881 -0.2033008568111706 0 0 0 0.39370078740157477 I I #
point $-1 -1 $-1 -0.47080978582807881 -0.2033008568111706 0.47244094488188981 #
point $-1 -1 $-1 -0.050752853273323878 0.072289694369931781 0 #
vertex $-1 -1 $-1 $248 $277 #
ellipse-curve $-1 -1 $-1 -0.2198255338595749 0.10221095421245156 0.23622047244094491 1.7415263131375017e-016 -1 -1.2325951644078309e-032 -0.06720758344720798 -1.1704377501569712e-017 0.1292388608982277 1 I I #
point $-1 -1 $-1 -0.14716868688962034 0.090399930590404326 0.096502784983401424 #
point $-1 -1 $-1 0.031158718108929083 -0.20330085681117052 0 #
edge $-1 -1 $-1 $265 0 $255 1.4000000000000001 $262 $278 forward @7 unknown #
point $-1 -1 $-1 -0.47080978582807881 0.34788024555103414 0 #
straight-curve $-1 -1 $-1 0.031158718108929083 -0.20330085681117052 0 -0.39370078740157477 -6.8564028076279532e-017 0 F 0 F 1.2750000000000001 #
point $-1 -1 $-1 -0.47080978582807881 -0.2033008568111706 0 #
point $-1 -1 $-1 -0.15261795041236689 0.10221095421245159 0.10698161154271719 #
straight-curve $-1 -1 $-1 -0.47080978582807881 -0.2033008568111706 0 0 0.39370078740157477 0 F 0 F 1.4000000000000001 #
End-of-ACIS-data 