400 0 1 0           
7 Unknown 11 ACIS 6.0 NT 24 Thu Dec 27 20:31:01 2001 
25.399999999999999 9.9999999999999995e-007 1e-010 
body $-1 $1 $-1 $-1 #
lump $-1 $-1 $2 $0 #
shell $-1 $-1 $-1 $3 $-1 $1 #
face $-1 $4 $5 $2 $-1 $6 reversed single #
face $-1 $7 $8 $2 $-1 $9 reversed single #
loop $-1 $10 $11 $3 #
cone-surface $-1 0.18749706429524446 -0.32475444162937211 1.8666598511780339 0 0 -1 0.034999999999999983 -0.06062177826491072 0 1 I I 0 1 0.069999999999999993 reversed I I I I #
face $-1 $12 $13 $2 $-1 $14 reversed single #
loop $-1 $15 $16 $4 #
cone-surface $-1 0.18749706429524468 0.324754441629372 1.8666598511780339 0 0 -1 0.035000000000000024 0.060621778264910685 0 1 I I 0 1 0.069999999999999993 reversed I I I I #
loop $-1 $-1 $17 $3 #
coedge $-1 $11 $11 $18 $19 reversed $5 $-1 #
face $-1 $20 $21 $2 $-1 $22 reversed single #
loop $-1 $23 $24 $7 #
cone-surface $-1 -0.37499412859048914 0 1.8666598511780339 0 0 -1 -0.069999999999999993 0 0 1 I I 0 1 0.069999999999999993 reversed I I I I #
loop $-1 $-1 $25 $4 #
coedge $-1 $16 $16 $26 $27 reversed $8 $-1 #
coedge $-1 $17 $17 $28 $29 reversed $10 $-1 #
coedge $-1 $18 $18 $11 $19 forward $30 $-1 #
edge $-1 $31 $31 $18 $32 forward #
face $-1 $33 $34 $2 $-1 $35 forward single #
loop $-1 $36 $37 $12 #
cone-surface $-1 0 0 1.8666598511780339 0 0 -1 -0.12499999999999999 0 0 1 I I 0 1 0.12499999999999999 reversed I I I I #
loop $-1 $-1 $38 $7 #
coedge $-1 $24 $24 $39 $40 reversed $13 $-1 #
coedge $-1 $25 $25 $41 $42 reversed $15 $-1 #
coedge $-1 $26 $26 $16 $27 forward $43 $-1 #
edge $-1 $44 $44 $26 $45 forward #
coedge $-1 $28 $28 $17 $29 forward $46 $-1 #
edge $-1 $47 $47 $28 $48 forward #
loop $-1 $43 $18 $49 #
vertex $-1 $19 $50 #
ellipse-curve $-1 0.18749706429524446 -0.32475444162937211 0.24000000000000013 0 0 -1 0.034999999999999983 -0.06062177826491072 0 1 I I #
face $-1 $51 $52 $2 $-1 $53 forward single #
loop $-1 $54 $55 $20 #
cone-surface $-1 0 0 0.23999999999999999 0 0 1 -0.27000000000000002 0 0 1 I I 0 1 0.27000000000000002 forward I I I I #
loop $-1 $-1 $56 $12 #
coedge $-1 $37 $37 $57 $58 reversed $21 $-1 #
coedge $-1 $38 $38 $59 $60 reversed $23 $-1 #
coedge $-1 $39 $39 $24 $40 forward $61 $-1 #
edge $-1 $62 $62 $39 $63 forward #
coedge $-1 $41 $41 $25 $42 forward $64 $-1 #
edge $-1 $65 $65 $41 $66 forward #
loop $-1 $61 $26 $49 #
vertex $-1 $27 $67 #
ellipse-curve $-1 0.18749706429524468 0.324754441629372 0.24000000000000013 0 0 -1 0.035000000000000024 0.060621778264910685 0 1 I I #
loop $-1 $64 $28 $68 #
vertex $-1 $29 $69 #
ellipse-curve $-1 0.18749706429524446 -0.32475444162937211 0 0 0 1 0.034999999999999983 -0.06062177826491072 0 1 I I #
face $-1 $68 $30 $2 $-1 $70 forward single #
point $-1 0.15249706429524451 -0.2641326633644614 0.24000000000000013 #
face $-1 $49 $71 $2 $-1 $72 forward single #
loop $-1 $73 $57 $33 #
plane-surface $-1 0.024545454545454537 1.9867985408467366e-018 1.0629999999999999 -1.0482997672893221e-032 2.6207494182233043e-033 1 0.39370078740157477 0 4.1271644381469374e-033 forward_v I I I I #
loop $-1 $-1 $74 $20 #
coedge $-1 $55 $55 $75 $76 forward $34 $-1 #
coedge $-1 $56 $56 $77 $78 reversed $36 $-1 #
coedge $-1 $57 $57 $37 $58 forward $52 $-1 #
edge $-1 $79 $79 $57 $80 forward #
coedge $-1 $59 $59 $38 $60 forward $81 $-1 #
edge $-1 $82 $82 $59 $83 forward #
loop $-1 $84 $39 $49 #
vertex $-1 $40 $85 #
ellipse-curve $-1 -0.37499412859048914 0 0.24000000000000013 0 0 -1 -0.069999999999999993 0 0 1 I I #
loop $-1 $81 $41 $68 #
vertex $-1 $42 $86 #
ellipse-curve $-1 0.18749706429524468 0.324754441629372 0 0 0 1 0.035000000000000024 0.060621778264910685 0 1 I I #
point $-1 0.15249706429524468 0.26413266336446134 0.24000000000000013 #
face $-1 $-1 $46 $2 $-1 $87 reversed single #
point $-1 0.22249706429524446 -0.38537621989428278 0 #
plane-surface $-1 0.049318181818181789 -1.5894388326773893e-017 0.23999999999999999 0 0 1 0.39370078740157477 0 0 forward_v I I I I #
loop $-1 $88 $89 $51 #
cone-surface $-1 0 0 0 0 0 1 -0.54249999999999998 0 0 1 I I 0 1 0.54249999999999998 forward I I I I #
loop $-1 $-1 $75 $33 #
coedge $-1 $74 $74 $90 $91 reversed $54 $-1 #
coedge $-1 $75 $75 $55 $76 reversed $73 $-1 #
edge $-1 $92 $92 $55 $93 forward #
coedge $-1 $77 $77 $56 $78 forward $94 $-1 #
edge $-1 $95 $95 $77 $96 forward #
vertex $-1 $58 $97 #
ellipse-curve $-1 0 0 1.0629999999999999 1.0482997672893221e-032 -2.6207494182233043e-033 -1 -0.12499999999999999 0 0 1 I I #
loop $-1 $94 $59 $68 #
vertex $-1 $60 $98 #
ellipse-curve $-1 -0.37499412859048914 0 0 0 0 1 -0.069999999999999993 0 0 1 I I #
loop $-1 $99 $90 $49 #
point $-1 -0.30499412859048913 0 0.24000000000000013 #
point $-1 0.22249706429524468 0.38537621989428267 0 #
plane-surface $-1 0.049318181818181789 -1.5894388326773893e-017 0 0 0 1 0.39370078740157477 0 0 forward_v I I I I #
loop $-1 $-1 $100 $51 #
coedge $-1 $89 $89 $101 $102 forward $71 $-1 #
coedge $-1 $90 $90 $74 $91 forward $84 $-1 #
edge $-1 $103 $103 $90 $104 forward #
vertex $-1 $76 $105 #
ellipse-curve $-1 0 0 1.0629999999999999 0 0 -1 -0.27000000000000002 0 0 1 I I #
loop $-1 $106 $77 $68 #
vertex $-1 $78 $107 #
ellipse-curve $-1 0 0 0 0 0 1 -0.12499999999999999 0 0 1 I I #
point $-1 0.12499999999999999 0 1.0629999999999999 #
point $-1 -0.44499412859048909 0 0 #
loop $-1 $-1 $101 $49 #
coedge $-1 $100 $100 $108 $109 reversed $88 $-1 #
coedge $-1 $101 $101 $89 $102 reversed $99 $-1 #
edge $-1 $110 $110 $89 $111 forward #
vertex $-1 $91 $112 #
ellipse-curve $-1 0 0 0.23999999999999999 0 0 -1 -0.27000000000000002 0 0 1 I I #
point $-1 0.27000000000000002 3.3064371553204189e-017 1.0629999999999999 #
loop $-1 $-1 $108 $68 #
point $-1 -0.12499999999999999 0 0 #
coedge $-1 $108 $108 $100 $109 forward $106 $-1 #
edge $-1 $113 $113 $108 $114 forward #
vertex $-1 $102 $115 #
ellipse-curve $-1 0 0 0.23999999999999999 0 0 -1 -0.54249999999999998 0 0 1 I I #
point $-1 0.27000000000000002 3.3064371553204189e-017 0.23999999999999999 #
vertex $-1 $109 $116 #
ellipse-curve $-1 0 0 0 0 0 -1 -0.54249999999999998 0 0 1 I I #
point $-1 0.54249999999999998 6.6434894694863963e-017 0.23999999999999999 #
point $-1 0.54249999999999998 6.6434894694863963e-017 0 #
End-of-ACIS-data 