400 0 1 0           
8 Inventor 11 ACIS 6.0 NT 24 Mon Feb 09 21:49:48 2004 
25.399999999999999 9.9999999999999995e-007 1e-010 
body $-1 $1 $-1 $-1 #
lump $-1 $-1 $2 $0 #
shell $-1 $-1 $-1 $3 $-1 $1 #
face $-1 $4 $5 $2 $-1 $6 forward single #
face $-1 $7 $8 $2 $-1 $9 forward single #
loop $-1 $-1 $10 $3 #
cone-surface $-1 -1.0189473738052194e-033 6.6893817897329896e-033 -0.96399999999999975 0 0 1 0.11249999999999999 -1.4240688443017788e-065 0 1 I I 0.70710678118654813 0.7071067811865468 0.11249999999999999 forward I I I I #
face $-1 $11 $12 $2 $-1 $13 reversed single #
loop $-1 $14 $15 $4 #
cone-surface $-1 -1.0189473738052194e-033 4.4571228305692011e-033 -0.66399999999999981 0 7.7643789883957881e-033 -1 0.12499999999999999 -1.5822987158908653e-065 0 1 I I 0 1 0.12499999999999999 forward I I I I #
coedge $-1 $16 $17 $18 $19 forward $5 $-1 #
face $-1 $20 $21 $2 $-1 $22 reversed single #
loop $-1 $-1 $23 $7 #
plane-surface $-1 -0.081240384046359554 -0.095000000000000001 -0.9764999999999997 0 1 0 0 0 0.39370078740157477 forward_v I I I I #
loop $-1 $-1 $24 $4 #
coedge $-1 $25 $26 $27 $28 reversed $8 $-1 #
coedge $-1 $27 $10 $25 $29 forward $5 $-1 #
coedge $-1 $10 $30 $31 $32 forward $5 $-1 #
coedge $-1 $33 $34 $10 $19 reversed $12 $-1 #
edge $-1 $35 $36 $18 $37 forward #
face $-1 $38 $39 $2 $-1 $40 reversed single #
loop $-1 $-1 $41 $11 #
plane-surface $-1 -1.7217842207748666e-018 -0.1043051050226248 -0.7264999999999997 -3.2950623099188712e-031 1.3310166171184768e-028 1 0.39370078740157477 0 1.2972686259523113e-031 forward_v I I I I #
coedge $-1 $42 $33 $43 $44 reversed $12 $-1 #
coedge $-1 $24 $24 $45 $46 reversed $14 $-1 #
coedge $-1 $47 $15 $16 $29 reversed $8 $-1 #
coedge $-1 $15 $48 $42 $49 forward $8 $-1 #
coedge $-1 $43 $16 $15 $28 forward $5 $-1 #
edge $-1 $50 $51 $15 $52 forward #
edge $-1 $36 $50 $25 $53 forward #
coedge $-1 $17 $43 $54 $55 forward $5 $-1 #
coedge $-1 $54 $56 $17 $32 reversed $39 $-1 #
edge $-1 $57 $35 $31 $58 forward #
coedge $-1 $23 $18 $56 $59 reversed $12 $-1 #
coedge $-1 $18 $60 $47 $61 reversed $12 $-1 #
vertex $-1 $19 $62 #
vertex $-1 $61 $63 #
intcurve-curve $-1 forward { exactcur nurbs 2 open 2 
	0 2 0.26483202582812065 2 
	-0.03122498999199225 -0.095000000000000001 -0.9764999999999997 1 
	-0.053454054016155411 -0.095000000000000001 -0.96955897698314109 1.0953752558045387 
	-0.081240384046359596 -0.095000000000000001 -0.95149999999999968 1.140558759170534 
	0 
	null_surface 
	null_surface 
	nullbs 
	nullbs 
	I I 
	0 
	0 
	0 
	F 1 F 0 } I I #
face $-1 $64 $65 $2 $-1 $66 forward single #
loop $-1 $-1 $54 $20 #
plane-surface $-1 -0.011363636363636366 3.9819885892024488e-019 -0.9764999999999997 0 0 1 0.39370078740157477 0 0 forward_v I I I I #
coedge $-1 $67 $67 $60 $68 forward $21 $-1 #
coedge $-1 $60 $23 $26 $49 reversed $12 $-1 #
coedge $-1 $30 $27 $23 $44 forward $5 $-1 #
edge $-1 $51 $69 $23 $70 forward #
coedge $-1 $45 $45 $24 $46 forward $65 $-1 #
edge $-1 $71 $71 $45 $72 forward #
coedge $-1 $48 $25 $34 $61 forward $8 $-1 #
coedge $-1 $26 $47 $67 $73 forward $8 $-1 #
edge $74 $75 $51 $26 $76 forward #
vertex $-1 $28 $77 #
vertex $-1 $28 $78 #
ellipse-curve $-1 -1.0189473738052194e-033 6.6893817897329896e-033 -0.95149999999999968 0 0 -1 0.12499999999999999 -1.5822987158908653e-065 0 1 I I #
ellipse-curve $-1 -1.0189473738052194e-033 6.6893817897329896e-033 -0.95149999999999968 0 0 -1 0.12499999999999999 -1.5822987158908653e-065 0 1 I I #
coedge $-1 $56 $31 $30 $55 reversed $39 $-1 #
edge $-1 $69 $57 $54 $79 forward #
coedge $-1 $31 $54 $33 $59 forward $39 $-1 #
vertex $-1 $32 $80 #
ellipse-curve $-1 -1.0189473738052194e-033 6.6893817897329896e-033 -0.9764999999999997 0 0 1 0.099999999999999992 -1.2658389727126923e-065 0 1 I I #
edge $-1 $69 $35 $56 $81 forward #
coedge $-1 $34 $42 $41 $68 reversed $12 $-1 #
edge $-1 $36 $82 $47 $83 forward #
point $-1 -0.03122498999199199 -0.095000000000000001 -0.9764999999999997 #
point $-1 -0.081240384046359596 -0.095000000000000001 -0.95149999999999968 #
face $-1 $84 $85 $2 $-1 $86 forward single #
loop $-1 $87 $45 $38 #
cone-surface $-1 -5.0947368690260988e-034 4.2872982682683314e-033 -0.63274999999999992 1.6303157980883538e-032 -5.4343859936278442e-033 1 0.15624999999999997 1.4824888060641339e-065 -1.0189473738052211e-033 1 I I 0.70710678118654813 0.70710678118654691 0.15624999999999997 forward I I I I #
coedge $-1 $41 $41 $48 $73 reversed $21 $-1 #
edge $-1 $82 $75 $60 $88 forward #
vertex $-1 $59 $89 #
intcurve-curve $-1 forward { exactcur nurbs 2 open 2 
	0.7416449741339135 2 1.0064769999620358 2 
	0.081240384046359596 -0.095000000000000001 -0.95149999999999968 1.1405587591705346 
	0.053454054016155536 -0.095000000000000001 -0.96955897698314109 1.0953752558045393 
	0.03122498999199225 -0.095000000000000001 -0.9764999999999997 1 
	0 
	null_surface 
	null_surface 
	nullbs 
	nullbs 
	I I 
	0 
	0 
	0 
	F 1 F 0 } I I #
vertex $-1 $46 $90 #
ellipse-curve $-1 -1.0189473738052194e-033 4.4571228305692011e-033 -0.66399999999999981 1.6303157980883538e-032 -5.4343859936278448e-033 1 0.12499999999999999 1.8504734452254234e-065 -2.0378947476104422e-033 1 I I #
edge $-1 $82 $75 $48 $91 forward #
convexity-sys-attrib $-1 $-1 $-1 $49 #
vertex $-1 $49 $92 #
straight-curve $-1 0.081240384046359596 -0.095000000000000001 -0.66399999999999992 0 3.0568421214156642e-033 -0.39370078740157477 I I #
point $-1 -0.12499999999999999 1.5307579422779722e-017 -0.95149999999999968 #
point $-1 0.081240384046359596 -0.095000000000000001 -0.95149999999999968 #
ellipse-curve $-1 -1.0189473738052194e-033 6.6893817897329896e-033 -0.9764999999999997 0 0 1 0.099999999999999992 -1.2658389727126923e-065 0 1 I I #
point $-1 -0.099999999999999992 -1.2246063538223765e-017 -0.9764999999999997 #
straight-curve $-1 -0.046302010204997961 -0.095000000000000001 -0.9764999999999997 -0.39370078740157477 0 0 I I #
vertex $-1 $61 $93 #
straight-curve $-1 -0.081240384046359596 -0.095000000000000001 -0.66399999999999992 0 -3.0568421214156642e-033 0.39370078740157477 I I #
face $-1 $94 $95 $2 $-1 $96 forward single #
loop $-1 $97 $98 $64 #
cone-surface $-1 -2.2084834423372661e-049 -4.4169668846745321e-049 -0.25149999999999995 0 1.1764210588478464e-032 -1 0.1875 1.1145041669028442e-065 0 1 I I 0 1 0.1875 forward I I I I #
loop $-1 $-1 $99 $38 #
straight-curve $-1 -0.081240384046359554 -0.095000000000000001 -0.7264999999999997 0.39370078740157477 0 0 F 0 F 0.41270115095550658 #
point $-1 0.03122498999199199 -0.095000000000000001 -0.9764999999999997 #
point $-1 -0.12499999999999999 -1.530757942277971e-017 -0.66399999999999981 #
ellipse-curve $-1 -1.0189473738052194e-033 4.9423965173439382e-033 -0.7264999999999997 -3.2950623099188712e-031 1.3310166171184768e-028 1 0.12499999999999999 -1.5822987158908653e-065 0 1 I I #
point $-1 0.081240384046359554 -0.095000000000000001 -0.7264999999999997 #
point $-1 -0.081240384046359554 -0.095000000000000001 -0.7264999999999997 #
face $-1 $100 $101 $2 $-1 $102 reversed single #
loop $-1 $103 $104 $84 #
cone-surface $-1 0 0 -0.2505 0 0 -1 0.27500000000000002 0 0 1 I I 0 1 0.27500000000000002 forward I I I I #
loop $-1 $-1 $105 $64 #
coedge $-1 $98 $98 $106 $107 reversed $85 $-1 #
coedge $-1 $99 $99 $105 $108 forward $87 $-1 #
face $-1 $109 $110 $2 $-1 $111 forward single #
loop $-1 $112 $106 $94 #
plane-surface $-1 -0.024999999999999994 -6.8724768196777399e-018 -0.25149999999999995 -5.0526316056457236e-033 -1.0105263211291447e-032 1 0.39370078740157477 0 1.9892250415928043e-033 forward_v I I I I #
loop $-1 $-1 $113 $84 #
coedge $-1 $104 $104 $114 $115 forward $95 $-1 #
coedge $-1 $105 $105 $99 $108 reversed $97 $-1 #
coedge $-1 $106 $106 $98 $107 forward $101 $-1 #
edge $116 $117 $117 $106 $118 forward #
edge $-1 $119 $119 $105 $120 forward #
face $-1 $121 $122 $2 $-1 $123 forward single #
loop $-1 $-1 $124 $100 #
plane-surface $-1 0.14999999999999991 0.24999999999999994 0.2505 1 0 0 0 0 -0.39370078740157477 forward_v I I I I #
loop $-1 $-1 $114 $94 #
coedge $-1 $113 $113 $125 $126 reversed $103 $-1 #
coedge $-1 $114 $114 $104 $115 reversed $112 $-1 #
edge $127 $128 $128 $104 $129 forward #
convexity-sys-attrib $-1 $-1 $-1 $107 #
vertex $-1 $107 $130 #
ellipse-curve $-1 -2.2084834423372661e-049 -4.4169668846745321e-049 -0.25149999999999995 -5.0526316056457236e-033 -1.0105263211291447e-032 1 0.1875 1.1145041669028442e-065 0 1 I I #
vertex $-1 $108 $131 #
ellipse-curve $-1 -2.2084834423372661e-049 4.1174737059674617e-033 -0.60149999999999992 -1.6303157980883538e-032 5.4343859936278448e-033 -1 0.1875 1.1145041669028442e-065 0 1 I I #
face $-1 $132 $133 $2 $-1 $134 forward single #
loop $-1 $-1 $135 $109 #
plane-surface $-1 0.14999999999999991 0.22499999999999995 0.2505 0 -1 0 0 0 -0.39370078740157477 forward_v I I I I #
coedge $-1 $136 $137 $138 $139 forward $110 $-1 #
coedge $-1 $125 $125 $113 $126 forward $140 $-1 #
edge $-1 $141 $141 $125 $142 forward #
convexity-sys-attrib $-1 $-1 $-1 $115 #
vertex $-1 $115 $143 #
ellipse-curve $-1 0 0 -0.2515 0 0 1 0.27500000000000002 0 0 1 I I #
point $-1 -0.1875 2.2961369134169574e-017 -0.25149999999999995 #
point $-1 -0.1875 2.296136913416958e-017 -0.60149999999999992 #
face $-1 $144 $145 $2 $-1 $146 forward single #
loop $-1 $-1 $147 $121 #
plane-surface $-1 0.12499999999999993 0.22499999999999995 0.2505 -1 0 0 0 0 0.39370078740157477 forward_v I I I I #
coedge $-1 $148 $149 $150 $151 forward $122 $-1 #
coedge $-1 $152 $124 $149 $153 reversed $110 $-1 #
coedge $-1 $124 $152 $154 $155 forward $110 $-1 #
coedge $-1 $156 $150 $124 $139 reversed $157 $-1 #
edge $-1 $158 $159 $124 $160 forward #
loop $-1 $161 $125 $162 #
vertex $-1 $126 $163 #
ellipse-curve $-1 0 0 -0.2505 0 0 1 0.27500000000000002 0 0 1 I I #
point $-1 -0.27500000000000002 3.3676674730115376e-017 -0.25149999999999995 #
face $-1 $164 $157 $2 $-1 $165 forward single #
loop $-1 $-1 $166 $132 #
plane-surface $-1 0.12499999999999993 0.24999999999999994 0.2505 0 1 0 0 0 0.39370078740157477 forward_v I I I I #
coedge $-1 $167 $168 $169 $170 forward $133 $-1 #
coedge $-1 $171 $135 $168 $172 reversed $122 $-1 #
coedge $-1 $135 $171 $136 $153 forward $122 $-1 #
coedge $-1 $138 $169 $135 $151 reversed $157 $-1 #
edge $-1 $159 $173 $135 $174 forward #
coedge $-1 $137 $136 $175 $176 reversed $110 $-1 #
edge $-1 $177 $159 $149 $178 forward #
coedge $-1 $179 $166 $137 $155 reversed $145 $-1 #
edge $-1 $180 $158 $137 $181 forward #
coedge $-1 $169 $138 $166 $182 reversed $157 $-1 #
loop $-1 $-1 $138 $144 #
vertex $-1 $155 $183 #
vertex $-1 $153 $184 #
straight-curve $-1 0.14999999999999991 0.24999999999999994 0.50049999999999994 0 -0.39370078740157477 0 F 0 F 0.063500000000000001 #
loop $-1 $-1 $185 $162 #
face $-1 $186 $140 $2 $-1 $187 reversed single #
point $-1 -0.27500000000000002 3.3676674730115376e-017 -0.2505 #
face $-1 $188 $189 $2 $-1 $190 forward single #
plane-surface $-1 0.13749999999999993 0.23749999999999991 0.50049999999999994 -1.8249803709944252e-029 5.5661901315329983e-029 1 0.39370078740157477 0 7.1849620905292317e-030 forward_v I I I I #
coedge $-1 $154 $191 $156 $182 forward $145 $-1 #
coedge $-1 $192 $147 $191 $193 reversed $133 $-1 #
coedge $-1 $147 $192 $148 $172 forward $133 $-1 #
coedge $-1 $150 $156 $147 $170 reversed $157 $-1 #
edge $-1 $173 $194 $147 $195 forward #
coedge $-1 $149 $148 $196 $197 reversed $122 $-1 #
edge $-1 $198 $173 $168 $199 forward #
vertex $-1 $172 $200 #
straight-curve $-1 0.14999999999999991 0.22499999999999995 0.50049999999999994 -0.39370078740157477 0 0 F 0 F 0.063500000000000001 #
coedge $-1 $196 $201 $152 $176 forward $202 $-1 #
edge $-1 $180 $177 $175 $203 forward #
vertex $-1 $176 $204 #
straight-curve $-1 0.14999999999999991 0.22499999999999995 0.2505 0 0 0.39370078740157477 I I #
coedge $-1 $191 $154 $201 $205 reversed $145 $-1 #
vertex $-1 $176 $206 #
straight-curve $-1 0.14999999999999991 0.24999999999999994 0.2505 0 0 0.39370078740157477 I I #
edge $-1 $194 $158 $166 $207 forward #
point $-1 0.14999999999999991 0.24999999999999994 0.50049999999999994 #
point $-1 0.14999999999999991 0.22499999999999995 0.50049999999999994 #
coedge $-1 $185 $185 $208 $209 reversed $161 $-1 #
face $-1 $210 $211 $2 $-1 $212 forward single #
plane-surface $-1 0.056818181818181768 1.0931587728411525e-017 -0.2505 0 0 1 0.39370078740157477 0 0 forward_v I I I I #
face $-1 $213 $214 $2 $-1 $215 forward single #
loop $-1 $-1 $216 $164 #
plane-surface $-1 0.049999999999999933 0.24999999999999994 0.2505 1 0 0 0 0 -0.39370078740157477 forward_v I I I I #
coedge $-1 $166 $179 $167 $193 forward $145 $-1 #
coedge $-1 $168 $167 $217 $218 reversed $133 $-1 #
edge $-1 $219 $194 $191 $220 forward #
vertex $-1 $193 $221 #
straight-curve $-1 0.12499999999999993 0.22499999999999995 0.50049999999999994 0 0.39370078740157477 0 F 0 F 0.063500000000000001 #
coedge $-1 $217 $175 $171 $197 forward $202 $-1 #
edge $-1 $177 $198 $196 $222 forward #
vertex $-1 $197 $223 #
straight-curve $-1 0.12499999999999993 0.22499999999999995 0.2505 0 0 0.39370078740157477 I I #
point $-1 0.12499999999999993 0.22499999999999995 0.50049999999999994 #
coedge $-1 $175 $217 $179 $205 forward $202 $-1 #
loop $-1 $224 $175 $210 #
straight-curve $-1 0.14999999999999991 0.12499999999999997 0.2505 0 -0.39370078740157477 0 I I #
point $-1 0.14999999999999991 0.22499999999999995 0.2505 #
edge $-1 $219 $180 $201 $225 forward #
point $-1 0.14999999999999991 0.24999999999999994 0.2505 #
straight-curve $-1 0.12499999999999993 0.24999999999999994 0.50049999999999994 0.39370078740157477 0 0 F 0 F 0.063500000000000001 #
coedge $-1 $208 $208 $185 $209 forward $211 $-1 #
edge $226 $227 $227 $208 $228 forward #
face $-1 $-1 $202 $2 $-1 $229 forward single #
loop $-1 $230 $208 $186 #
cone-surface $-1 0 0 0 0 0 1 -0.62499999999999989 0 0 1 I I 0 1 0.62499999999999989 forward I I I I #
face $-1 $231 $232 $2 $-1 $233 forward single #
loop $-1 $-1 $234 $188 #
plane-surface $-1 0.049999999999999933 0.22499999999999995 0.2505 0 -1 0 0 0 -0.39370078740157477 forward_v I I I I #
coedge $-1 $235 $236 $237 $238 forward $189 $-1 #
coedge $-1 $201 $196 $192 $218 forward $202 $-1 #
edge $-1 $198 $219 $217 $239 forward #
vertex $-1 $218 $240 #
straight-curve $-1 0.12499999999999993 0.24999999999999994 0.2505 0 0 0.39370078740157477 I I #
point $-1 0.12499999999999993 0.24999999999999994 0.50049999999999994 #
straight-curve $-1 0.10340909090909085 0.22499999999999995 0.2505 -0.39370078740157477 0 0 I I #
point $-1 0.12499999999999993 0.22499999999999995 0.2505 #
loop $-1 $241 $242 $210 #
straight-curve $-1 0.090909090909090856 0.24999999999999994 0.2505 0.39370078740157477 0 0 I I #
convexity-sys-attrib $-1 $-1 $-1 $209 #
vertex $-1 $209 $243 #
ellipse-curve $-1 0 0 -0.2505 0 0 1 -0.62499999999999989 0 0 1 I I #
plane-surface $-1 0.056818181818181768 1.0931587728411525e-017 0.2505 0 0 1 0.39370078740157477 0 0 forward_v I I I I #
loop $-1 $-1 $244 $186 #
face $-1 $245 $246 $2 $-1 $247 forward single #
loop $-1 $-1 $248 $213 #
plane-surface $-1 0.024999999999999932 0.22499999999999995 0.2505 -1 0 0 0 0 0.39370078740157477 forward_v I I I I #
coedge $-1 $249 $250 $251 $252 forward $214 $-1 #
coedge $-1 $253 $216 $250 $254 reversed $189 $-1 #
coedge $-1 $216 $253 $255 $256 forward $189 $-1 #
coedge $-1 $257 $251 $216 $238 reversed $258 $-1 #
edge $-1 $259 $260 $216 $261 forward #
straight-curve $-1 0.12499999999999993 0.11249999999999998 0.2505 0 0.39370078740157477 0 I I #
point $-1 0.12499999999999993 0.24999999999999994 0.2505 #
loop $-1 $262 $263 $210 #
coedge $-1 $264 $265 $253 $266 forward $224 $-1 #
point $-1 0.62499999999999989 7.6537897113898566e-017 -0.2505 #
coedge $-1 $244 $244 $267 $268 forward $230 $-1 #
face $-1 $269 $258 $2 $-1 $270 forward single #
loop $-1 $-1 $271 $231 #
plane-surface $-1 0.024999999999999932 0.24999999999999994 0.2505 0 1 0 0 0 0.39370078740157477 forward_v I I I I #
coedge $-1 $272 $273 $274 $275 forward $232 $-1 #
coedge $-1 $276 $234 $273 $277 reversed $214 $-1 #
coedge $-1 $234 $276 $235 $254 forward $214 $-1 #
coedge $-1 $237 $274 $234 $252 reversed $258 $-1 #
edge $-1 $260 $278 $234 $279 forward #
coedge $-1 $236 $235 $242 $266 reversed $189 $-1 #
edge $-1 $280 $260 $250 $281 forward #
coedge $-1 $282 $271 $236 $256 reversed $246 $-1 #
edge $-1 $283 $259 $236 $284 forward #
coedge $-1 $274 $237 $271 $285 reversed $258 $-1 #
loop $-1 $-1 $237 $245 #
vertex $-1 $256 $286 #
vertex $-1 $254 $287 #
straight-curve $-1 0.049999999999999933 0.24999999999999994 0.50049999999999994 0 -0.39370078740157477 0 F 0 F 0.063500000000000001 #
loop $-1 $288 $289 $210 #
coedge $-1 $290 $291 $292 $293 forward $241 $-1 #
coedge $-1 $294 $242 $276 $295 forward $224 $-1 #
coedge $-1 $242 $294 $282 $296 forward $224 $-1 #
edge $-1 $283 $280 $242 $297 forward #
coedge $-1 $267 $267 $244 $268 reversed $288 $-1 #
edge $-1 $298 $298 $244 $299 forward #
face $-1 $300 $301 $2 $-1 $302 forward single #
plane-surface $-1 0.037499999999999929 0.23749999999999991 0.50049999999999994 -1.8249803709944252e-029 5.5661901315329983e-029 1 0.39370078740157477 0 7.1849620905292317e-030 forward_v I I I I #
coedge $-1 $255 $303 $257 $285 forward $246 $-1 #
coedge $-1 $304 $248 $303 $305 reversed $232 $-1 #
coedge $-1 $248 $304 $249 $277 forward $232 $-1 #
coedge $-1 $251 $257 $248 $275 reversed $258 $-1 #
edge $-1 $278 $306 $248 $307 forward #
coedge $-1 $250 $249 $264 $295 reversed $214 $-1 #
edge $-1 $308 $278 $273 $309 forward #
vertex $-1 $277 $310 #
straight-curve $-1 0.049999999999999933 0.22499999999999995 0.50049999999999994 -0.39370078740157477 0 0 F 0 F 0.063500000000000001 #
vertex $-1 $266 $311 #
straight-curve $-1 0.049999999999999933 0.22499999999999995 0.2505 0 0 0.39370078740157477 I I #
coedge $-1 $303 $255 $265 $296 reversed $246 $-1 #
vertex $-1 $266 $312 #
straight-curve $-1 0.049999999999999933 0.24999999999999994 0.2505 0 0 0.39370078740157477 I I #
edge $-1 $306 $259 $271 $313 forward #
point $-1 0.049999999999999933 0.24999999999999994 0.50049999999999994 #
point $-1 0.049999999999999933 0.22499999999999995 0.50049999999999994 #
loop $-1 $-1 $267 $210 #
coedge $-1 $314 $315 $316 $317 forward $262 $-1 #
coedge $-1 $318 $263 $319 $320 forward $241 $-1 #
coedge $-1 $263 $318 $321 $322 forward $241 $-1 #
coedge $-1 $323 $324 $263 $293 reversed $301 $-1 #
edge $-1 $325 $326 $263 $327 forward #
coedge $-1 $265 $264 $304 $328 forward $224 $-1 #
edge $-1 $280 $308 $264 $329 forward #
edge $-1 $330 $283 $265 $331 forward #
straight-curve $-1 0.049999999999999933 0.12499999999999997 0.2505 0 -0.39370078740157477 0 I I #
vertex $-1 $268 $332 #
ellipse-curve $-1 0 0 0.2505 0 0 -1 -0.62499999999999989 0 0 1 I I #
face $-1 $333 $334 $2 $-1 $335 forward single #
loop $-1 $-1 $336 $269 #
plane-surface $-1 -0.050000000000000065 0.24999999999999994 0.2505 1 0 0 0 0 -0.39370078740157477 forward_v I I I I #
coedge $-1 $271 $282 $272 $305 forward $246 $-1 #
coedge $-1 $273 $272 $294 $328 reversed $232 $-1 #
edge $-1 $330 $306 $303 $337 forward #
vertex $-1 $305 $338 #
straight-curve $-1 0.024999999999999932 0.22499999999999995 0.50049999999999994 0 0.39370078740157477 0 F 0 F 0.063500000000000001 #
vertex $-1 $295 $339 #
straight-curve $-1 0.024999999999999932 0.22499999999999995 0.2505 0 0 0.39370078740157477 I I #
point $-1 0.024999999999999932 0.22499999999999995 0.50049999999999994 #
point $-1 0.049999999999999933 0.22499999999999995 0.2505 #
point $-1 0.049999999999999933 0.24999999999999994 0.2505 #
straight-curve $-1 0.024999999999999932 0.24999999999999994 0.50049999999999994 0.39370078740157477 0 0 F 0 F 0.063500000000000001 #
coedge $-1 $340 $289 $341 $342 forward $262 $-1 #
coedge $-1 $289 $340 $343 $344 forward $262 $-1 #
coedge $-1 $345 $346 $289 $317 reversed $347 $-1 #
edge $-1 $348 $349 $289 $350 forward #
coedge $-1 $291 $290 $351 $352 forward $241 $-1 #
coedge $-1 $353 $354 $290 $320 reversed $334 $-1 #
edge $-1 $326 $355 $290 $356 forward #
coedge $-1 $357 $358 $291 $322 reversed $359 $-1 #
edge $-1 $360 $325 $291 $361 forward #
coedge $-1 $336 $292 $358 $362 forward $301 $-1 #
coedge $-1 $292 $336 $353 $363 reversed $301 $-1 #
vertex $-1 $293 $364 #
vertex $-1 $293 $365 #
straight-curve $-1 -0.050000000000000065 0.12499999999999997 0.2505 0 -0.39370078740157477 0 I I #
edge $-1 $308 $330 $294 $366 forward #
straight-curve $-1 0.053409090909090857 0.22499999999999995 0.2505 -0.39370078740157477 0 0 I I #
vertex $-1 $328 $367 #
straight-curve $-1 0.040909090909090853 0.24999999999999994 0.2505 0.39370078740157477 0 0 I I #
point $-1 0.62499999999999989 7.6537897113898566e-017 0.2505 #
face $-1 $368 $369 $2 $-1 $370 forward single #
loop $-1 $-1 $371 $300 #
plane-surface $-1 -0.050000000000000065 0.22499999999999995 0.2505 0 -1 0 0 0 -0.39370078740157477 forward_v I I I I #
coedge $-1 $324 $323 $372 $373 forward $301 $-1 #
straight-curve $-1 0.024999999999999932 0.24999999999999994 0.2505 0 0 0.39370078740157477 I I #
point $-1 0.024999999999999932 0.24999999999999994 0.50049999999999994 #
point $-1 0.024999999999999932 0.22499999999999995 0.2505 #
coedge $-1 $315 $314 $374 $375 forward $262 $-1 #
coedge $-1 $376 $377 $314 $342 reversed $378 $-1 #
edge $-1 $349 $379 $314 $380 forward #
coedge $-1 $381 $382 $315 $344 reversed $383 $-1 #
edge $-1 $384 $348 $315 $385 forward #
coedge $-1 $386 $316 $382 $387 forward $347 $-1 #
coedge $-1 $316 $386 $376 $388 reversed $347 $-1 #
loop $-1 $-1 $386 $389 #
vertex $-1 $317 $390 #
vertex $-1 $317 $391 #
straight-curve $-1 -0.15000000000000005 0.12499999999999997 0.2505 0 -0.39370078740157477 0 I I #
coedge $-1 $392 $393 $318 $352 reversed $369 $-1 #
edge $-1 $355 $360 $318 $394 forward #
coedge $-1 $371 $319 $324 $363 forward $334 $-1 #
coedge $-1 $319 $371 $392 $395 reversed $334 $-1 #
vertex $-1 $320 $396 #
straight-curve $-1 0.0034090909090908538 0.22499999999999995 0.2505 -0.39370078740157477 0 0 I I #
coedge $-1 $397 $321 $393 $398 forward $359 $-1 #
coedge $-1 $321 $397 $323 $362 reversed $359 $-1 #
loop $-1 $-1 $397 $368 #
vertex $-1 $352 $399 #
straight-curve $-1 -0.009090909090909146 0.24999999999999994 0.2505 0.39370078740157477 0 0 I I #
edge $-1 $325 $400 $323 $401 forward #
edge $-1 $326 $402 $353 $403 forward #
point $-1 -0.050000000000000065 0.24999999999999994 0.2505 #
point $-1 -0.050000000000000065 0.22499999999999995 0.2505 #
straight-curve $-1 0.024999999999999932 0.11249999999999998 0.2505 0 0.39370078740157477 0 I I #
point $-1 0.024999999999999932 0.24999999999999994 0.2505 #
face $-1 $404 $359 $2 $-1 $405 forward single #
loop $-1 $-1 $406 $333 #
plane-surface $-1 -0.075000000000000067 0.22499999999999995 0.2505 -1 0 0 0 0 0.39370078740157477 forward_v I I I I #
coedge $-1 $354 $353 $407 $408 forward $334 $-1 #
coedge $-1 $409 $407 $336 $373 reversed $410 $-1 #
edge $-1 $400 $402 $336 $411 forward #
coedge $-1 $412 $413 $340 $375 reversed $414 $-1 #
edge $-1 $379 $384 $340 $415 forward #
coedge $-1 $416 $341 $346 $388 forward $378 $-1 #
coedge $-1 $341 $416 $412 $417 reversed $378 $-1 #
loop $-1 $-1 $416 $418 #
vertex $-1 $342 $419 #
straight-curve $-1 -0.046590909090909141 0.22499999999999995 0.2505 -0.39370078740157477 0 0 I I #
coedge $-1 $420 $343 $413 $421 forward $383 $-1 #
coedge $-1 $343 $420 $345 $387 reversed $383 $-1 #
loop $-1 $-1 $420 $422 #
vertex $-1 $375 $423 #
straight-curve $-1 -0.059090909090909138 0.24999999999999994 0.2505 0.39370078740157477 0 0 I I #
coedge $-1 $346 $345 $424 $425 forward $347 $-1 #
edge $-1 $348 $426 $345 $427 forward #
edge $-1 $349 $428 $376 $429 forward #
face $-1 $418 $347 $2 $-1 $430 forward single #
point $-1 -0.15000000000000005 0.24999999999999994 0.2505 #
point $-1 -0.15000000000000005 0.22499999999999995 0.2505 #
coedge $-1 $406 $351 $354 $395 forward $369 $-1 #
coedge $-1 $351 $406 $357 $398 reversed $369 $-1 #
straight-curve $-1 -0.075000000000000067 0.11249999999999998 0.2505 0 0.39370078740157477 0 I I #
edge $-1 $355 $431 $392 $432 forward #
point $-1 -0.075000000000000067 0.22499999999999995 0.2505 #
coedge $-1 $358 $357 $409 $433 forward $359 $-1 #
edge $-1 $360 $434 $357 $435 forward #
point $-1 -0.075000000000000067 0.24999999999999994 0.2505 #
vertex $-1 $362 $436 #
straight-curve $-1 -0.050000000000000065 0.24999999999999994 0.2505 0 0 0.39370078740157477 I I #
vertex $-1 $363 $437 #
straight-curve $-1 -0.050000000000000065 0.22499999999999995 0.2505 0 0 0.39370078740157477 I I #
face $-1 $389 $410 $2 $-1 $438 forward single #
plane-surface $-1 -0.075000000000000067 0.24999999999999994 0.2505 0 1 0 0 0 0.39370078740157477 forward_v I I I I #
coedge $-1 $393 $392 $439 $440 forward $369 $-1 #
coedge $-1 $372 $439 $371 $408 reversed $410 $-1 #
edge $-1 $402 $431 $371 $441 forward #
coedge $-1 $439 $372 $397 $433 reversed $410 $-1 #
loop $-1 $-1 $372 $404 #
straight-curve $-1 -0.050000000000000065 0.24999999999999994 0.50049999999999994 0 -0.39370078740157477 0 F 0 F 0.063500000000000001 #
coedge $-1 $442 $374 $377 $417 forward $414 $-1 #
coedge $-1 $374 $442 $381 $421 reversed $414 $-1 #
loop $-1 $-1 $442 $443 #
straight-curve $-1 -0.17500000000000004 0.11249999999999998 0.2505 0 0.39370078740157477 0 I I #
coedge $-1 $377 $376 $444 $445 forward $378 $-1 #
edge $-1 $379 $446 $412 $447 forward #
face $-1 $443 $378 $2 $-1 $448 forward single #
point $-1 -0.17500000000000004 0.22499999999999995 0.2505 #
coedge $-1 $382 $381 $449 $450 forward $383 $-1 #
edge $-1 $384 $451 $381 $452 forward #
face $-1 $453 $383 $2 $-1 $454 forward single #
point $-1 -0.17500000000000004 0.24999999999999994 0.2505 #
coedge $-1 $449 $444 $386 $425 reversed $455 $-1 #
edge $-1 $426 $428 $386 $456 forward #
vertex $-1 $387 $457 #
straight-curve $-1 -0.15000000000000005 0.24999999999999994 0.2505 0 0 0.39370078740157477 I I #
vertex $-1 $388 $458 #
straight-curve $-1 -0.15000000000000005 0.22499999999999995 0.2505 0 0 0.39370078740157477 I I #
plane-surface $-1 -0.15000000000000005 0.24999999999999994 0.2505 1 0 0 0 0 -0.39370078740157477 forward_v I I I I #
vertex $-1 $395 $459 #
straight-curve $-1 -0.075000000000000067 0.22499999999999995 0.2505 0 0 0.39370078740157477 I I #
edge $-1 $434 $400 $397 $460 forward #
vertex $-1 $398 $461 #
straight-curve $-1 -0.075000000000000067 0.24999999999999994 0.2505 0 0 0.39370078740157477 I I #
point $-1 -0.050000000000000065 0.24999999999999994 0.50049999999999994 #
point $-1 -0.050000000000000065 0.22499999999999995 0.50049999999999994 #
plane-surface $-1 -0.062500000000000056 0.23749999999999991 0.50049999999999994 -1.8249803709944252e-029 5.5661901315329983e-029 1 0.39370078740157477 0 7.1849620905292317e-030 forward_v I I I I #
coedge $-1 $407 $409 $406 $440 reversed $410 $-1 #
edge $-1 $431 $434 $406 $462 forward #
straight-curve $-1 -0.050000000000000065 0.22499999999999995 0.50049999999999994 -0.39370078740157477 0 0 F 0 F 0.063500000000000001 #
coedge $-1 $413 $412 $463 $464 forward $414 $-1 #
face $-1 $422 $414 $2 $-1 $465 forward single #
coedge $-1 $424 $463 $416 $445 reversed $455 $-1 #
edge $-1 $428 $446 $416 $466 forward #
vertex $-1 $417 $467 #
straight-curve $-1 -0.17500000000000004 0.22499999999999995 0.2505 0 0 0.39370078740157477 I I #
plane-surface $-1 -0.15000000000000005 0.22499999999999995 0.2505 0 -1 0 0 0 -0.39370078740157477 forward_v I I I I #
coedge $-1 $463 $424 $420 $450 reversed $455 $-1 #
edge $-1 $451 $426 $420 $468 forward #
vertex $-1 $421 $469 #
straight-curve $-1 -0.17500000000000004 0.24999999999999994 0.2505 0 0 0.39370078740157477 I I #
face $-1 $162 $455 $2 $-1 $470 forward single #
plane-surface $-1 -0.17500000000000004 0.24999999999999994 0.2505 0 1 0 0 0 0.39370078740157477 forward_v I I I I #
loop $-1 $-1 $424 $453 #
straight-curve $-1 -0.15000000000000005 0.24999999999999994 0.50049999999999994 0 -0.39370078740157477 0 F 0 F 0.063500000000000001 #
point $-1 -0.15000000000000005 0.24999999999999994 0.50049999999999994 #
point $-1 -0.15000000000000005 0.22499999999999995 0.50049999999999994 #
point $-1 -0.075000000000000067 0.22499999999999995 0.50049999999999994 #
straight-curve $-1 -0.075000000000000067 0.24999999999999994 0.50049999999999994 0.39370078740157477 0 0 F 0 F 0.063500000000000001 #
point $-1 -0.075000000000000067 0.24999999999999994 0.50049999999999994 #
straight-curve $-1 -0.075000000000000067 0.22499999999999995 0.50049999999999994 0 0.39370078740157477 0 F 0 F 0.063500000000000001 #
coedge $-1 $444 $449 $442 $464 reversed $455 $-1 #
edge $-1 $446 $451 $442 $471 forward #
plane-surface $-1 -0.17500000000000004 0.22499999999999995 0.2505 -1 0 0 0 0 0.39370078740157477 forward_v I I I I #
straight-curve $-1 -0.15000000000000005 0.22499999999999995 0.50049999999999994 -0.39370078740157477 0 0 F 0 F 0.063500000000000001 #
point $-1 -0.17500000000000004 0.22499999999999995 0.50049999999999994 #
straight-curve $-1 -0.17500000000000004 0.24999999999999994 0.50049999999999994 0.39370078740157477 0 0 F 0 F 0.063500000000000001 #
point $-1 -0.17500000000000004 0.24999999999999994 0.50049999999999994 #
plane-surface $-1 -0.16250000000000006 0.23749999999999991 0.50049999999999994 -1.8249803709944252e-029 5.5661901315329983e-029 1 0.39370078740157477 0 7.1849620905292317e-030 forward_v I I I I #
straight-curve $-1 -0.17500000000000004 0.22499999999999995 0.50049999999999994 0 0.39370078740157477 0 F 0 F 0.063500000000000001 #
End-of-ACIS-data 