400 0 1 0           
7 Unknown 11 ACIS 6.0 NT 24 Thu Dec 06 21:00:56 2001 
25.399999999999999 9.9999999999999995e-007 1e-010 
body $-1 $1 $-1 $-1 #
lump $-1 $-1 $2 $0 #
shell $-1 $-1 $-1 $3 $-1 $1 #
face $-1 $4 $5 $2 $-1 $6 reversed single #
face $-1 $7 $8 $2 $-1 $6 reversed single #
loop $-1 $9 $10 $3 #
cone-surface $-1 0 0 0 0 0 1 -0.375 0 0 1 I I 0 1 0.375 forward I I I I #
face $-1 $11 $12 $2 $-1 $13 reversed single #
loop $-1 $14 $15 $4 #
loop $-1 $-1 $16 $3 #
coedge $-1 $10 $10 $17 $18 reversed $5 $-1 #
face $-1 $19 $20 $2 $-1 $21 forward single #
loop $-1 $22 $23 $7 #
plane-surface $-1 0.039772727272727258 -3.9735970816934733e-018 -0.13999999999999999 0 0 1 0.39370078740157477 0 0 forward_v I I I I #
loop $-1 $-1 $24 $4 #
coedge $-1 $15 $15 $23 $25 reversed $8 $-1 #
coedge $-1 $16 $16 $26 $27 forward $9 $-1 #
coedge $-1 $17 $17 $10 $18 forward $28 $-1 #
edge $-1 $29 $29 $17 $30 forward #
face $-1 $31 $28 $2 $-1 $32 forward single #
loop $-1 $33 $34 $11 #
cone-surface $-1 0 0 0 0 0 1 -0.4375 0 0 1 I I 0 1 0.4375 forward I I I I #
loop $-1 $-1 $35 $7 #
coedge $-1 $23 $23 $15 $25 forward $12 $-1 #
coedge $-1 $24 $24 $36 $37 forward $14 $-1 #
edge $-1 $38 $38 $23 $39 forward #
coedge $-1 $26 $26 $16 $27 reversed $40 $-1 #
edge $-1 $41 $41 $26 $42 forward #
loop $-1 $43 $17 $19 #
vertex $-1 $18 $44 #
ellipse-curve $-1 0 0 0.13999999999999999 0 0 -1 -0.375 0 0 1 I I #
face $-1 $45 $46 $2 $-1 $47 reversed single #
plane-surface $-1 0.039772727272727258 -3.9735970816934733e-018 0.13999999999999999 0 0 1 0.39370078740157477 0 0 forward_v I I I I #
loop $-1 $-1 $48 $11 #
coedge $-1 $34 $34 $35 $49 forward $20 $-1 #
coedge $-1 $35 $35 $34 $49 reversed $22 $-1 #
coedge $-1 $36 $36 $24 $37 reversed $50 $-1 #
edge $-1 $51 $51 $36 $52 forward #
vertex $-1 $25 $53 #
ellipse-curve $-1 0 0 -0.13999999999999999 0 0 1 -0.375 0 0 1 I I #
loop $-1 $-1 $26 $45 #
vertex $-1 $27 $54 #
ellipse-curve $-1 0 0 0.13299999999999998 0 0 -1 -0.375 0 0 1 I I #
loop $-1 $-1 $55 $19 #
point $-1 0.375 4.5922738268339147e-017 0.13999999999999999 #
face $-1 $56 $57 $2 $-1 $58 forward single #
loop $-1 $50 $59 $31 #
plane-surface $-1 0.034090909090909081 -3.9735970816934733e-018 -0.13299999999999998 0 0 1 0.39370078740157477 0 0 forward_v I I I I #
coedge $-1 $48 $48 $55 $60 forward $33 $-1 #
edge $-1 $61 $61 $34 $62 forward #
loop $-1 $-1 $36 $31 #
vertex $-1 $37 $63 #
ellipse-curve $-1 0 0 -0.13299999999999998 0 0 1 -0.375 0 0 1 I I #
point $-1 0.375 4.5922738268339147e-017 -0.13999999999999999 #
point $-1 0.375 4.5922738268339147e-017 0.13299999999999998 #
coedge $-1 $55 $55 $48 $60 reversed $43 $-1 #
face $-1 $64 $65 $2 $-1 $66 forward single #
loop $-1 $40 $67 $45 #
plane-surface $-1 0.034090909090909081 -3.9735970816934733e-018 0.13299999999999998 0 0 1 0.39370078740157477 0 0 forward_v I I I I #
coedge $-1 $59 $59 $68 $69 reversed $46 $-1 #
edge $-1 $70 $70 $48 $71 forward #
vertex $-1 $49 $72 #
ellipse-curve $-1 0 0 -0.13999999999999999 0 0 1 -0.4375 0 0 1 I I #
point $-1 0.375 4.5922738268339147e-017 -0.13299999999999998 #
face $-1 $73 $74 $2 $-1 $75 reversed single #
loop $-1 $76 $77 $56 #
cone-surface $-1 0 0 0 0 0 1 -0.22649999999999998 0 0 1 I I 0 1 0.22649999999999998 forward I I I I #
coedge $-1 $67 $67 $78 $79 reversed $57 $-1 #
coedge $-1 $68 $68 $59 $69 forward $80 $-1 #
edge $-1 $81 $81 $68 $82 forward #
vertex $-1 $60 $83 #
ellipse-curve $-1 0 0 0.13999999999999999 0 0 -1 -0.4375 0 0 1 I I #
point $-1 0.4375 5.3576527979729005e-017 -0.13999999999999999 #
face $-1 $84 $85 $2 $-1 $86 reversed single #
loop $-1 $87 $88 $64 #
cone-surface $-1 0 0 0 0 0 1 -0.1875 0 0 1 I I 0 1 0.1875 forward I I I I #
loop $-1 $-1 $78 $56 #
coedge $-1 $77 $77 $89 $90 forward $65 $-1 #
coedge $-1 $78 $78 $67 $79 forward $76 $-1 #
edge $-1 $91 $91 $78 $92 forward #
loop $-1 $93 $68 $84 #
vertex $-1 $69 $94 #
ellipse-curve $-1 0 0 -0.13299999999999998 0 0 -1 -0.22649999999999998 0 0 1 I I #
point $-1 0.4375 5.3576527979729005e-017 0.13999999999999999 #
face $-1 $95 $80 $2 $-1 $66 forward single #
loop $-1 $96 $97 $73 #
plane-surface $-1 0.02059090909090908 -5.9603956225402095e-018 -0.13999999999999999 0 0 1 0.39370078740157477 0 0 forward_v I I I I #
loop $-1 $-1 $98 $64 #
coedge $-1 $88 $88 $97 $99 reversed $74 $-1 #
coedge $-1 $89 $89 $77 $90 reversed $100 $-1 #
edge $-1 $101 $101 $77 $102 forward #
vertex $-1 $79 $103 #
ellipse-curve $-1 0 0 0.13299999999999998 0 0 1 -0.22649999999999998 0 0 1 I I #
loop $-1 $-1 $104 $84 #
point $-1 0.22649999999999998 2.7737333914076842e-017 -0.13299999999999998 #
face $-1 $-1 $105 $2 $-1 $106 forward single #
loop $-1 $-1 $107 $73 #
coedge $-1 $97 $97 $88 $99 forward $85 $-1 #
coedge $-1 $98 $98 $108 $109 reversed $87 $-1 #
edge $-1 $110 $110 $97 $111 forward #
loop $-1 $-1 $89 $95 #
vertex $-1 $90 $112 #
ellipse-curve $-1 0 0 0.13999999999999999 0 0 -1 -0.22649999999999998 0 0 1 I I #
point $-1 0.22649999999999998 2.7737333914076842e-017 0.13299999999999998 #
coedge $-1 $104 $104 $107 $113 forward $93 $-1 #
loop $-1 $100 $108 $95 #
plane-surface $-1 0.02059090909090908 -5.9603956225402095e-018 0.13999999999999999 0 0 1 0.39370078740157477 0 0 forward_v I I I I #
coedge $-1 $107 $107 $104 $113 reversed $96 $-1 #
coedge $-1 $108 $108 $98 $109 forward $105 $-1 #
edge $-1 $114 $114 $108 $115 forward #
vertex $-1 $99 $116 #
ellipse-curve $-1 0 0 -0.13999999999999999 0 0 1 -0.1875 0 0 1 I I #
point $-1 0.22649999999999998 2.7737333914076842e-017 0.13999999999999999 #
edge $-1 $117 $117 $104 $118 forward #
vertex $-1 $109 $119 #
ellipse-curve $-1 0 0 0.13999999999999999 0 0 -1 -0.1875 0 0 1 I I #
point $-1 0.1875 2.2961369134169574e-017 -0.13999999999999999 #
vertex $-1 $113 $120 #
ellipse-curve $-1 0 0 -0.13999999999999999 0 0 1 -0.22649999999999998 0 0 1 I I #
point $-1 0.1875 2.2961369134169574e-017 0.13999999999999999 #
point $-1 0.22649999999999998 2.7737333914076842e-017 -0.13999999999999999 #
End-of-ACIS-data 