400 0 1 0           
7 Unknown 11 ACIS 6.0 NT 24 Sun Dec 30 21:33:49 2001 
25.399999999999999 9.9999999999999995e-007 1e-010 
body $-1 $1 $-1 $-1 #
lump $-1 $-1 $2 $0 #
shell $-1 $-1 $-1 $3 $-1 $1 #
face $-1 $4 $5 $2 $-1 $6 forward single #
face $-1 $7 $8 $2 $-1 $9 forward single #
loop $-1 $10 $11 $3 #
cone-surface $-1 0 0 -1.2343749999999998 0 0 1 -0.29687499999999994 0 0 1 I I 0.70710678118654646 0.70710678118654846 0.29687499999999994 forward I I I I #
face $-1 $12 $13 $2 $-1 $14 reversed single #
loop $-1 $15 $16 $4 #
cone-surface $-1 0 0 0 0 0 1 -0.31249999999999994 0 0 1 I I 0 1 0.31249999999999994 forward I I I I #
loop $-1 $-1 $17 $3 #
coedge $-1 $11 $11 $18 $19 forward $5 $-1 #
face $-1 $20 $21 $2 $-1 $22 forward single #
loop $-1 $23 $24 $7 #
plane-surface $-1 0.028409090909090884 1.7881186867620631e-017 -1.2499999999999998 0 0 1 0.39370078740157477 0 0 forward_v I I I I #
loop $-1 $-1 $25 $4 #
coedge $-1 $16 $16 $26 $27 reversed $8 $-1 #
coedge $-1 $17 $17 $25 $28 forward $10 $-1 #
coedge $-1 $18 $18 $11 $19 reversed $23 $-1 #
edge $-1 $29 $29 $18 $30 forward #
face $-1 $31 $32 $2 $-1 $33 forward single #
loop $-1 $34 $35 $12 #
cone-surface $-1 0 0 1.2343749999999998 0 0 -1 -0.29687499999999994 0 0 1 I I 0.70710678118654646 0.70710678118654846 0.29687499999999994 forward I I I I #
loop $-1 $-1 $18 $7 #
coedge $-1 $36 $37 $38 $39 forward $13 $-1 #
coedge $-1 $25 $25 $17 $28 reversed $15 $-1 #
coedge $-1 $26 $26 $16 $27 forward $34 $-1 #
edge $-1 $40 $40 $16 $41 forward #
edge $-1 $42 $42 $25 $43 forward #
vertex $-1 $19 $44 #
ellipse-curve $-1 0 0 -1.2499999999999998 0 0 1 -0.28124999999999994 0 0 1 I I #
face $-1 $45 $46 $2 $-1 $47 reversed single #
loop $-1 $48 $49 $20 #
plane-surface $-1 0.028409090909090884 1.7881186867620631e-017 1.2499999999999998 0 0 1 0.39370078740157477 0 0 forward_v I I I I #
loop $-1 $-1 $26 $12 #
coedge $-1 $35 $35 $50 $51 forward $21 $-1 #
coedge $-1 $52 $24 $53 $54 forward $13 $-1 #
coedge $-1 $24 $55 $56 $57 forward $13 $-1 #
coedge $-1 $58 $59 $24 $39 reversed $46 $-1 #
edge $60 $61 $62 $24 $63 forward #
vertex $-1 $27 $64 #
ellipse-curve $-1 0 0 1.2187499999999998 0 0 1 -0.31249999999999994 0 0 1 I I #
vertex $-1 $28 $65 #
ellipse-curve $-1 0 0 -1.2187499999999998 0 0 -1 -0.31249999999999994 0 0 1 I I #
point $-1 0.28124999999999994 0 -1.2499999999999998 #
face $-1 $66 $67 $2 $-1 $68 reversed single #
loop $-1 $-1 $38 $31 #
plane-surface $-1 -0.13736760153912372 -0.1673473694068375 1.2499999999999998 -0.16299821105564141 -0.98662636453353536 0 0 0 -0.39370078740157477 forward_v I I I I #
loop $-1 $-1 $50 $20 #
coedge $-1 $69 $70 $71 $72 forward $32 $-1 #
coedge $-1 $50 $50 $35 $51 reversed $48 $-1 #
edge $-1 $73 $73 $50 $74 forward #
coedge $-1 $75 $36 $76 $77 forward $13 $-1 #
coedge $-1 $78 $79 $36 $54 reversed $67 $-1 #
edge $-1 $62 $80 $36 $81 forward #
coedge $-1 $37 $75 $82 $83 forward $13 $-1 #
coedge $-1 $84 $85 $37 $57 reversed $86 $-1 #
edge $87 $88 $61 $37 $89 forward #
coedge $-1 $71 $38 $85 $90 reversed $46 $-1 #
coedge $-1 $38 $71 $78 $91 forward $46 $-1 #
convexity-sys-attrib $-1 $-1 $-1 $39 #
vertex $-1 $39 $92 #
vertex $-1 $39 $93 #
straight-curve $-1 -0.070137729885677957 -0.17845425769092771 -1.25 0.38843557658800604 -0.064172524037654097 0 I I #
point $-1 0.31249999999999994 0 1.2187499999999998 #
point $-1 0.31249999999999994 0 -1.2187499999999998 #
face $-1 $94 $95 $2 $-1 $96 reversed single #
loop $-1 $-1 $53 $45 #
plane-surface $-1 0.076243272393258135 -0.20263751729323823 1.2499999999999998 0.7729443902017068 -0.63447377381237091 0 0 0 -0.39370078740157477 forward_v I I I I #
coedge $-1 $97 $49 $98 $99 forward $32 $-1 #
coedge $-1 $49 $100 $101 $102 forward $32 $-1 #
coedge $-1 $59 $58 $49 $72 reversed $46 $-1 #
edge $103 $104 $105 $49 $106 forward #
vertex $-1 $51 $107 #
ellipse-curve $-1 0 0 1.2499999999999998 0 0 -1 -0.28124999999999994 0 0 1 I I #
coedge $-1 $55 $52 $108 $109 forward $13 $-1 #
coedge $-1 $110 $111 $52 $77 reversed $95 $-1 #
edge $112 $80 $113 $52 $114 forward #
coedge $-1 $101 $53 $59 $91 reversed $67 $-1 #
coedge $-1 $53 $101 $110 $115 forward $67 $-1 #
vertex $-1 $54 $116 #
straight-curve $-1 0.11630331155155769 -0.15383458198416555 -1.2499999999999998 0.24979282433557909 0.30430881504004204 0 I I #
coedge $-1 $117 $118 $55 $83 reversed $119 $-1 #
edge $120 $121 $88 $55 $122 forward #
coedge $-1 $98 $56 $118 $123 reversed $86 $-1 #
coedge $-1 $56 $98 $58 $90 forward $86 $-1 #
loop $-1 $-1 $56 $124 #
convexity-sys-attrib $-1 $-1 $-1 $57 #
vertex $-1 $83 $125 #
straight-curve $-1 -0.19278852959611817 -0.020050973081782147 -1.2499999999999996 0.13864275225242711 -0.3684813390776962 0 I I #
edge $126 $105 $61 $58 $127 forward #
edge $-1 $104 $62 $78 $128 forward #
point $-1 -0.13736760153912372 -0.1673473694068375 -1.2499999999999998 #
point $-1 0.076243272393258135 -0.20263751729323823 -1.2499999999999998 #
face $-1 $129 $130 $2 $-1 $131 reversed single #
loop $-1 $-1 $76 $66 #
plane-surface $-1 0.2136108739323819 -0.035290147886400773 1.2499999999999998 0.93594260125734852 0.35215259072116467 0 0 0 -0.39370078740157477 forward_v I I I I #
coedge $-1 $132 $69 $133 $134 forward $32 $-1 #
coedge $-1 $85 $84 $69 $99 reversed $86 $-1 #
edge $135 $105 $136 $69 $137 forward #
coedge $-1 $70 $132 $138 $139 forward $32 $-1 #
coedge $-1 $79 $78 $70 $102 reversed $67 $-1 #
edge $-1 $140 $104 $70 $141 forward #
convexity-sys-attrib $-1 $-1 $-1 $72 #
vertex $-1 $72 $142 #
vertex $-1 $72 $143 #
straight-curve $-1 -0.070137729885677957 -0.17845425769092771 1.2499999999999998 -0.38843557658800604 0.064172524037654097 0 I I #
point $-1 0.28124999999999994 0 1.2499999999999998 #
coedge $-1 $144 $145 $75 $109 reversed $130 $-1 #
edge $146 $113 $121 $75 $147 forward #
coedge $-1 $138 $76 $79 $115 reversed $95 $-1 #
coedge $-1 $76 $138 $144 $148 forward $95 $-1 #
convexity-sys-attrib $-1 $-1 $-1 $77 #
vertex $-1 $77 $149 #
straight-curve $-1 0.19631158207201663 0.010687489792035505 -1.2499999999999996 -0.13864275225242703 0.36848133907769626 0 I I #
edge $-1 $140 $80 $110 $150 forward #
point $-1 0.2136108739323819 -0.035290147886400773 -1.2499999999999998 #
coedge $-1 $133 $82 $145 $151 reversed $119 $-1 #
coedge $-1 $82 $133 $84 $123 forward $119 $-1 #
loop $-1 $-1 $82 $129 #
convexity-sys-attrib $-1 $-1 $-1 $83 #
vertex $-1 $109 $152 #
straight-curve $-1 -0.10486703400452048 0.16776676789889217 -1.2499999999999998 -0.24979282433557903 -0.30430881504004209 0 I I #
edge $-1 $136 $88 $84 $153 forward #
face $-1 $-1 $86 $2 $-1 $154 reversed single #
point $-1 -0.21361087393238196 0.035290147886400745 -1.2499999999999998 #
convexity-sys-attrib $-1 $-1 $-1 $90 #
straight-curve $-1 -0.13736760153912372 -0.1673473694068375 1.2499999999999998 0 0 -0.39370078740157477 I I #
straight-curve $-1 0.076243272393258135 -0.20263751729323823 1.2499999999999998 0 0 -0.39370078740157477 I I #
face $-1 $124 $119 $2 $-1 $155 reversed single #
loop $-1 $-1 $108 $94 #
plane-surface $-1 0.13736760153912372 0.16734736940683745 1.2499999999999998 0.16299821105564141 0.98662636453353536 0 0 0 0.39370078740157477 forward_v I I I I #
coedge $-1 $100 $97 $156 $157 forward $32 $-1 #
coedge $-1 $118 $117 $97 $134 reversed $119 $-1 #
edge $-1 $136 $158 $97 $159 forward #
convexity-sys-attrib $-1 $-1 $-1 $99 #
vertex $-1 $134 $160 #
straight-curve $-1 -0.19278852959611817 -0.020050973081782147 1.2499999999999998 -0.13864275225242711 0.3684813390776962 0 I I #
coedge $-1 $111 $110 $100 $139 reversed $95 $-1 #
edge $161 $162 $140 $100 $163 forward #
vertex $-1 $102 $164 #
straight-curve $-1 0.11630331155155769 -0.15383458198416555 1.2499999999999998 -0.24979282433557909 -0.30430881504004204 0 I I #
point $-1 0.076243272393258135 -0.20263751729323823 1.2499999999999998 #
point $-1 -0.13736760153912372 -0.1673473694068375 1.2499999999999998 #
coedge $-1 $156 $108 $111 $148 reversed $130 $-1 #
coedge $-1 $108 $156 $117 $151 forward $130 $-1 #
convexity-sys-attrib $-1 $-1 $-1 $109 #
straight-curve $-1 0.097792036226378512 0.17388555506594761 -1.25 -0.38843557658800604 0.064172524037654097 0 I I #
edge $165 $162 $113 $144 $166 forward #
point $-1 0.13736760153912372 0.16734736940683745 -1.2499999999999998 #
straight-curve $-1 0.2136108739323819 -0.035290147886400773 1.2499999999999998 0 0 -0.39370078740157477 I I #
edge $167 $158 $121 $117 $168 forward #
point $-1 -0.076243272393258191 0.2026375172932382 -1.2499999999999998 #
straight-curve $-1 -0.21361087393238196 0.035290147886400745 1.2499999999999998 0 0 -0.39370078740157477 I I #
plane-surface $-1 -0.21361087393238196 0.035290147886400745 1.2499999999999998 -0.93594260125734841 -0.35215259072116489 0 0 0 0.39370078740157477 forward_v I I I I #
plane-surface $-1 -0.076243272393258191 0.2026375172932382 1.2499999999999998 -0.77294439020170691 0.6344737738123708 0 0 0 0.39370078740157477 forward_v I I I I #
coedge $-1 $145 $144 $132 $157 reversed $130 $-1 #
edge $169 $158 $162 $132 $170 forward #
vertex $-1 $157 $171 #
straight-curve $-1 -0.10486703400452048 0.16776676789889217 1.2499999999999998 0.24979282433557903 0.30430881504004209 0 I I #
point $-1 -0.21361087393238196 0.035290147886400745 1.2499999999999998 #
convexity-sys-attrib $-1 $-1 $-1 $139 #
vertex $-1 $139 $172 #
straight-curve $-1 0.19631158207201663 0.010687489792035505 1.2499999999999998 0.13864275225242703 -0.36848133907769626 0 I I #
point $-1 0.2136108739323819 -0.035290147886400773 1.2499999999999998 #
convexity-sys-attrib $-1 $-1 $-1 $148 #
straight-curve $-1 0.13736760153912372 0.16734736940683745 1.2499999999999998 0 0 -0.39370078740157477 I I #
convexity-sys-attrib $-1 $-1 $-1 $151 #
straight-curve $-1 -0.076243272393258191 0.2026375172932382 1.2499999999999998 0 0 -0.39370078740157477 I I #
convexity-sys-attrib $-1 $-1 $-1 $157 #
straight-curve $-1 0.097792036226378512 0.17388555506594761 1.2499999999999998 0.38843557658800604 -0.064172524037654097 0 I I #
point $-1 -0.076243272393258191 0.2026375172932382 1.2499999999999998 #
point $-1 0.13736760153912372 0.16734736940683745 1.2499999999999998 #
End-of-ACIS-data 