700 0 1 0           
29 Autodesk Inventor 6.2.0.12000 17 ASM 6.0.1.6021 NT 24 Sun Jan 29 21:31:17 2006 
25.399999999999999 9.9999999999999995e-007 1e-010 
body $-1 -1 $-1 $1 $-1 $-1 #
lump $-1 -1 $-1 $-1 $2 $0 #
shell $-1 -1 $-1 $-1 $-1 $3 $-1 $1 #
face $-1 -1 $-1 $4 $5 $2 $-1 $6 forward single #
face $-1 -1 $-1 $7 $8 $2 $-1 $9 forward single #
loop $-1 -1 $-1 $10 $11 $3 #
torus-surface $-1 -1 $-1 0 0 0.14499999999999999 0 0 -1 0.64499999999999991 -0.02 -1 0 0 forward_v I I I I #
face $-1 -1 $-1 $12 $13 $2 $-1 $14 reversed single #
loop $-1 -1 $-1 $15 $16 $4 #
cone-surface $-1 -1 $-1 0 0 0.12499999999999999 0 0 1 -0.62499999999999989 0 0 1 I I 0 1 0.62499999999999989 forward I I I I #
loop $-1 -1 $-1 $-1 $17 $3 #
coedge $-1 -1 $-1 $11 $11 $18 $19 forward $5 $-1 #
face $-1 -1 $-1 $20 $21 $2 $-1 $22 forward single #
loop $-1 -1 $-1 $23 $24 $7 #
plane-surface $-1 -1 $-1 0 0 0.12499999999999999 0 0 -1 -0.39370078740157477 0 0 forward_v I I I I #
loop $-1 -1 $-1 $-1 $18 $4 #
coedge $-1 -1 $-1 $16 $16 $25 $26 forward $8 $-1 #
coedge $-1 -1 $-1 $17 $17 $27 $28 forward $10 $-1 #
coedge $-1 -1 $-1 $18 $18 $11 $19 reversed $15 $-1 #
edge $-1 -1 $-1 $29 -3.1415926535897931 $29 3.1415926535897931 $18 $30 forward @7 unknown #
face $-1 -1 $-1 $31 $32 $2 $-1 $33 forward single #
loop $-1 -1 $-1 $34 $35 $12 #
torus-surface $-1 -1 $-1 0 0 -0.14499999999999999 0 0 1 0.60582662348034844 -0.02 1 0 0 forward_v I I I I #
loop $-1 -1 $-1 $36 $37 $7 #
coedge $-1 -1 $-1 $24 $24 $38 $39 reversed $13 $-1 #
coedge $-1 -1 $-1 $25 $25 $16 $26 reversed $40 $-1 #
edge $-1 -1 $-1 $41 -3.1415926535897931 $41 3.1415926535897931 $16 $42 forward @7 unknown #
coedge $-1 -1 $-1 $27 $27 $17 $28 reversed $43 $-1 #
edge $-1 -1 $-1 $44 -3.1415926535897931 $44 3.1415926535897931 $27 $45 forward @7 unknown #
vertex $-1 -1 $-1 $19 $46 #
ellipse-curve $-1 -1 $-1 0 0 0.14499999999999999 0 0 -1 -0.62499999999999989 0 0 1 I I #
face $-1 -1 $-1 $47 $48 $2 $-1 $49 forward single #
loop $-1 -1 $-1 $50 $51 $20 #
cone-surface $-1 -1 $-1 0 0 -0.12499999999999999 0 0 -1 0.58750000000000002 0 0 1 I I -0.087155742747658166 0.99619469809174555 0.58750000000000002 forward I I I I #
loop $-1 -1 $-1 $-1 $52 $12 #
coedge $-1 -1 $-1 $35 $35 $53 $54 forward $21 $-1 #
loop $-1 -1 $-1 $55 $56 $7 #
coedge $-1 -1 $-1 $37 $37 $57 $58 forward $23 $-1 #
coedge $-1 -1 $-1 $38 $38 $24 $39 forward $59 $-1 #
edge $-1 -1 $-1 $60 -3.1415926535897931 $60 3.1415926535897931 $38 $61 forward @7 unknown #
loop $-1 -1 $-1 $-1 $25 $62 #
vertex $-1 -1 $-1 $26 $63 #
ellipse-curve $-1 -1 $-1 0 0 0.62499999999999989 0 0 -1 -0.62499999999999989 0 0 1 I I #
loop $-1 -1 $-1 $-1 $27 $7 #
vertex $-1 -1 $-1 $28 $64 #
ellipse-curve $-1 -1 $-1 0 0 0.12499999999999999 0 0 1 -0.64499999999999991 0 0 1 I I #
point $-1 -1 $-1 0.62499999999999989 -7.6537897113898566e-017 0.14499999999999999 #
face $-1 -1 $-1 $65 $66 $2 $-1 $67 reversed single #
loop $-1 -1 $-1 $68 $69 $31 #
plane-surface $-1 -1 $-1 0 0 -0.12499999999999999 0 0 -1 -0.39370078740157477 0 0 forward_v I I I I #
loop $-1 -1 $-1 $-1 $53 $20 #
coedge $-1 -1 $-1 $51 $51 $70 $71 forward $32 $-1 #
coedge $-1 -1 $-1 $52 $52 $72 $73 forward $34 $-1 #
coedge $-1 -1 $-1 $53 $53 $35 $54 reversed $50 $-1 #
edge $-1 -1 $-1 $74 -3.1415926535897931 $74 3.1415926535897931 $53 $75 forward @7 unknown #
loop $-1 -1 $-1 $76 $77 $7 #
coedge $-1 -1 $-1 $56 $56 $78 $79 forward $36 $-1 #
coedge $-1 -1 $-1 $57 $57 $37 $58 reversed $80 $-1 #
edge $-1 -1 $-1 $81 0 $81 6.2831853071795862 $37 $82 forward @7 unknown #
loop $-1 -1 $-1 $-1 $38 $83 #
vertex $-1 -1 $-1 $39 $84 #
ellipse-curve $-1 -1 $-1 0 0 0.12499999999999999 0 0 -1 -1.5 0 0 1 I I #
face $-1 -1 $-1 $85 $86 $2 $-1 $87 reversed single #
point $-1 -1 $-1 0.62499999999999989 7.6537897113898566e-017 0.62499999999999989 #
point $-1 -1 $-1 0.64499999999999991 7.8987109821543324e-017 0.12499999999999999 #
face $-1 -1 $-1 $88 $89 $2 $-1 $90 reversed single #
loop $-1 -1 $-1 $91 $92 $47 #
cone-surface $-1 -1 $-1 1.5187834828931323e-030 2.7602813284881319e-030 4.589389937671454 -3.4836936433236413e-031 -5.4901033918321418e-031 -1 -0.1875 3.5860946788715989e-062 6.5319255812318269e-032 1 I I 0 1 0.1875 reversed I I I I #
loop $-1 -1 $-1 $93 $94 $31 #
coedge $-1 -1 $-1 $69 $69 $95 $96 reversed $48 $-1 #
coedge $-1 -1 $-1 $70 $70 $51 $71 reversed $97 $-1 #
edge $-1 -1 $-1 $98 -3.1415926535897931 $98 3.1415926535897931 $51 $99 forward @7 unknown #
coedge $-1 -1 $-1 $72 $72 $52 $73 reversed $100 $-1 #
edge $-1 -1 $-1 $101 -3.1415926535897931 $101 3.1415926535897931 $72 $102 forward @7 unknown #
vertex $-1 -1 $-1 $54 $103 #
ellipse-curve $-1 -1 $-1 0 3.5875010264512268e-017 -0.14325688514504684 0 0 1 0.58590272951851352 -3.5875010264512268e-017 0 1 I I #
loop $-1 -1 $-1 $43 $104 $7 #
coedge $-1 -1 $-1 $77 $77 $105 $106 forward $55 $-1 #
coedge $-1 -1 $-1 $78 $78 $56 $79 reversed $107 $-1 #
edge $-1 -1 $-1 $108 -2.2204460492503131e-016 $108 6.2831853071795862 $56 $109 forward @7 unknown #
loop $-1 -1 $-1 $-1 $57 $110 #
vertex $-1 -1 $-1 $58 $111 #
ellipse-curve $-1 -1 $-1 -1.3776821480501742e-016 1.1249999999999998 0.12500000000000031 0 0 -1 0.12499999999999999 0 0 1 I I #
face $-1 -1 $-1 $-1 $112 $2 $-1 $113 forward single #
point $-1 -1 $-1 1.5 1.8369095307335659e-016 0.12499999999999999 #
face $-1 -1 $-1 $114 $115 $2 $-1 $116 reversed single #
loop $-1 -1 $-1 $40 $117 $62 #
plane-surface $-1 -1 $-1 0 0 0.62499999999999989 0 0 -1 -0.39370078740157477 0 0 forward_v I I I I #
face $-1 -1 $-1 $118 $119 $2 $-1 $120 reversed single #
loop $-1 -1 $-1 $-1 $121 $65 #
plane-surface $-1 -1 $-1 0.093750000000000042 -0.30068444572407932 -1.1249999999999998 1 -7.2458998910449527e-016 0 0 0 -0.39370078740157477 forward_v I I I I #
loop $-1 -1 $-1 $-1 $122 $47 #
coedge $-1 -1 $-1 $92 $92 $123 $124 reversed $66 $-1 #
loop $-1 -1 $-1 $125 $126 $31 #
coedge $-1 -1 $-1 $94 $94 $127 $128 forward $68 $-1 #
coedge $-1 -1 $-1 $95 $95 $69 $96 forward $112 $-1 #
edge $-1 -1 $-1 $129 -3.1415926535897931 $129 3.1415926535897931 $95 $130 forward @7 unknown #
loop $-1 -1 $-1 $-1 $70 $131 #
vertex $-1 -1 $-1 $71 $132 #
ellipse-curve $-1 -1 $-1 0 0 -1.1249999999999998 0 0 1 0.50001133647407603 0 0 1 I I #
loop $-1 -1 $-1 $-1 $72 $31 #
vertex $-1 -1 $-1 $73 $133 #
ellipse-curve $-1 -1 $-1 0 0 -0.12499999999999999 0 0 -1 0.60582662348034844 0 0 1 I I #
point $-1 -1 $-1 -0.58590272951851352 0 -0.14325688514504684 #
coedge $-1 -1 $-1 $104 $104 $134 $135 forward $76 $-1 #
coedge $-1 -1 $-1 $105 $105 $77 $106 reversed $136 $-1 #
edge $-1 -1 $-1 $137 -2.2204460492503131e-016 $137 6.2831853071795862 $77 $138 forward @7 unknown #
loop $-1 -1 $-1 $-1 $78 $139 #
vertex $-1 -1 $-1 $79 $140 #
ellipse-curve $-1 -1 $-1 1.1249999999999998 -1.1203196573564278e-016 0.12500000000000031 0 0 -1 -2.775557561562891e-017 -0.12499999999999999 0 1 I I #
face $-1 -1 $-1 $83 $141 $2 $-1 $142 reversed single #
point $-1 -1 $-1 0.12499999999999986 1.1249999999999998 0.12499999999999999 #
loop $-1 -1 $-1 $59 $95 $83 #
cone-surface $-1 -1 $-1 0 0 0 0 0 1 -1.5 0 0 1 I I 0 1 1.5 forward I I I I #
face $-1 -1 $-1 $143 $144 $2 $-1 $116 reversed single #
loop $-1 -1 $-1 $-1 $145 $85 #
cone-surface $-1 -1 $-1 0 0 0.32999999999999996 0 0 1 0.31889763779527558 0 0 1 I I 0 1 0.31889763779527558 reversed I I I I #
coedge $-1 -1 $-1 $146 $147 $148 $149 forward $86 $-1 #
face $-1 -1 $-1 $150 $151 $2 $-1 $152 reversed single #
loop $-1 -1 $-1 $-1 $153 $88 #
plane-surface $-1 -1 $-1 0.093749999999999958 -0.40625 -1.1249999999999998 0 -1 0 0 0 -0.39370078740157477 forward_v I I I I #
coedge $-1 -1 $-1 $154 $155 $156 $157 reversed $89 $-1 #
coedge $-1 -1 $-1 $122 $122 $158 $159 reversed $91 $-1 #
coedge $-1 -1 $-1 $123 $123 $92 $124 forward $160 $-1 #
edge $-1 -1 $-1 $161 -3.1415926535897931 $161 3.1415926535897931 $123 $162 forward @7 unknown #
loop $-1 -1 $-1 $163 $164 $31 #
coedge $-1 -1 $-1 $126 $126 $165 $166 forward $93 $-1 #
coedge $-1 -1 $-1 $127 $127 $94 $128 reversed $141 $-1 #
edge $-1 -1 $-1 $167 -3.1415926535897931 $167 3.1415926535897931 $94 $168 forward @7 unknown #
vertex $-1 -1 $-1 $96 $169 #
ellipse-curve $-1 -1 $-1 0 0 -0.12499999999999999 0 0 1 -1.5 0 0 1 I I #
face $-1 -1 $-1 $170 $171 $2 $-1 $172 reversed single #
point $-1 -1 $-1 -0.50001133647407603 -6.1231705962937202e-017 -1.1249999999999998 #
point $-1 -1 $-1 -0.60582662348034844 7.4189913242879171e-017 -0.12499999999999999 #
coedge $-1 -1 $-1 $134 $134 $104 $135 reversed $173 $-1 #
edge $-1 -1 $-1 $174 -1.2246063538223773e-016 $174 6.2831853071795862 $104 $175 forward @7 unknown #
loop $-1 -1 $-1 $-1 $105 $176 #
vertex $-1 -1 $-1 $106 $177 #
ellipse-curve $-1 -1 $-1 -1.1249999999999998 1.1203196573564278e-016 0.12500000000000031 0 0 -1 2.775557561562891e-017 0.12499999999999999 0 1 I I #
face $-1 -1 $-1 $110 $178 $2 $-1 $179 reversed single #
point $-1 -1 $-1 1.1249999999999998 -0.12500000000000011 0.12499999999999999 #
loop $-1 -1 $-1 $80 $127 $110 #
cone-surface $-1 -1 $-1 -1.3776821480501742e-016 1.1249999999999998 -4.1249999999999991 0 0 1 0.12499999999999999 0 0 1 I I 0 1 0.12499999999999999 reversed I I I I #
face $-1 -1 $-1 $180 $181 $2 $-1 $116 reversed single #
loop $-1 -1 $-1 $-1 $182 $114 #
coedge $-1 -1 $-1 $183 $184 $185 $186 forward $115 $-1 #
coedge $-1 -1 $-1 $187 $117 $188 $189 forward $86 $-1 #
coedge $-1 -1 $-1 $117 $190 $191 $192 forward $86 $-1 #
coedge $-1 -1 $-1 $193 $194 $117 $149 reversed $195 $-1 #
edge $-1 -1 $-1 $196 0.29700745501908687 $197 0.49122602010219674 $117 $198 forward @7 unknown #
face $-1 -1 $-1 $199 $200 $2 $-1 $201 reversed single #
loop $-1 -1 $-1 $-1 $202 $118 #
plane-surface $-1 -1 $-1 -0.093750000000000028 -0.40625 -1.1249999999999998 -1 7.2458998910449527e-016 0 0 0 0.39370078740157477 forward_v I I I I #
coedge $-1 -1 $-1 $203 $204 $205 $206 reversed $119 $-1 #
coedge $-1 -1 $-1 $207 $121 $208 $209 reversed $89 $-1 #
coedge $-1 -1 $-1 $121 $207 $203 $210 forward $89 $-1 #
coedge $-1 -1 $-1 $205 $211 $121 $157 forward $212 $-1 #
edge $-1 -1 $-1 $213 -0.26813650786083854 $214 0 $121 $215 forward @7 unknown #
coedge $-1 -1 $-1 $158 $158 $122 $159 forward $216 $-1 #
edge $-1 -1 $-1 $217 2.350910462845983e-045 $217 6.2831853071795862 $158 $218 forward @7 unknown #
loop $-1 -1 $-1 $219 $123 $220 #
vertex $-1 -1 $-1 $124 $221 #
ellipse-curve $-1 -1 $-1 -6.7826444615187676e-032 2.598741640345091e-031 0.035000000000000253 0 0 -1 -0.1875 3.5860946788715989e-062 6.5319255812318269e-032 1 I I #
loop $-1 -1 $-1 $100 $222 $31 #
coedge $-1 -1 $-1 $164 $164 $223 $224 forward $125 $-1 #
coedge $-1 -1 $-1 $165 $165 $126 $166 reversed $178 $-1 #
edge $-1 -1 $-1 $225 -3.1415926535897931 $225 3.1415926535897931 $126 $226 forward @7 unknown #
vertex $-1 -1 $-1 $128 $227 #
ellipse-curve $-1 -1 $-1 -1.3776821480501742e-016 1.1249999999999998 -0.12500000000000031 0 0 1 0.12499999999999999 0 0 1 I I #
point $-1 -1 $-1 1.5 1.8369095307335659e-016 -0.12499999999999999 #
face $-1 -1 $-1 $228 $229 $2 $-1 $230 reversed single #
loop $-1 -1 $-1 $97 $231 $131 #
plane-surface $-1 -1 $-1 0 0 -1.1249999999999998 0 0 1 0.39370078740157477 0 0 forward_v I I I I #
loop $-1 -1 $-1 $-1 $134 $232 #
vertex $-1 -1 $-1 $135 $233 #
ellipse-curve $-1 -1 $-1 -1.9410947470989462e-032 -1.1249999999999998 0.12500000000000031 0 0 -1 -0.12499999999999999 1.5307579422779713e-017 0 1 I I #
face $-1 -1 $-1 $139 $234 $2 $-1 $235 reversed single #
point $-1 -1 $-1 -1.1249999999999998 0.12500000000000011 0.12499999999999999 #
loop $-1 -1 $-1 $107 $165 $139 #
cone-surface $-1 -1 $-1 1.1249999999999998 -1.1203196573564278e-016 -4.1249999999999991 0 0 1 -2.775557561562891e-017 -0.12499999999999999 0 1 I I 0 1 0.12499999999999999 reversed I I I I #
face $-1 -1 $-1 $236 $237 $2 $-1 $116 reversed single #
loop $-1 -1 $-1 $-1 $238 $143 #
coedge $-1 -1 $-1 $239 $240 $241 $242 forward $144 $-1 #
coedge $-1 -1 $-1 $243 $145 $244 $245 reversed $115 $-1 #
coedge $-1 -1 $-1 $145 $243 $246 $247 reversed $115 $-1 #
coedge $-1 -1 $-1 $248 $249 $145 $186 reversed $250 $-1 #
edge $-1 -1 $-1 $251 -0.74929999999999986 $252 0.74930000000000008 $145 $253 forward @7 unknown #
coedge $-1 -1 $-1 $254 $146 $255 $256 forward $86 $-1 #
coedge $-1 -1 $-1 $257 $258 $146 $189 reversed $259 $-1 #
edge $-1 -1 $-1 $197 -0.40275451087616709 $260 -5.5511151231257827e-017 $146 $261 forward @7 unknown #
coedge $-1 -1 $-1 $147 $262 $263 $264 forward $86 $-1 #
coedge $-1 -1 $-1 $265 $266 $147 $192 reversed $267 $-1 #
edge $-1 -1 $-1 $268 -0.78048541469224075 $196 -0.23235092380234101 $147 $269 forward @7 unknown #
coedge $-1 -1 $-1 $270 $148 $266 $271 reversed $195 $-1 #
coedge $-1 -1 $-1 $148 $270 $257 $272 reversed $195 $-1 #
loop $-1 -1 $-1 $-1 $270 $273 #
vertex $-1 -1 $-1 $271 $274 #
vertex $-1 -1 $-1 $189 $275 #
straight-curve $-1 -1 $-1 0.19339607090637664 0.073431253785584405 0.62499999999999989 0.39370078740157477 4.3709567898628207e-017 0 I I #
face $-1 -1 $-1 $131 $216 $2 $-1 $276 reversed single #
loop $-1 -1 $-1 $-1 $277 $150 #
cone-surface $-1 -1 $-1 7.3658869963170739e-050 4.0117777390655494e-050 -1.1249999999999998 0 0 1 0.093749999999999944 0.30068444572407932 0 1 I I 0 1 0.31496062992125984 forward I I I I #
coedge $-1 -1 $-1 $278 $279 $280 $281 reversed $151 $-1 #
coedge $-1 -1 $-1 $282 $153 $155 $210 reversed $119 $-1 #
coedge $-1 -1 $-1 $153 $282 $278 $283 forward $119 $-1 #
coedge $-1 -1 $-1 $280 $156 $153 $206 forward $212 $-1 #
edge $-1 -1 $-1 $214 -0.47625000000000001 $284 0 $153 $285 forward @7 unknown #
coedge $-1 -1 $-1 $155 $154 $231 $286 reversed $89 $-1 #
coedge $-1 -1 $-1 $277 $287 $154 $209 forward $200 $-1 #
edge $-1 -1 $-1 $288 0 $213 2.8575000000000004 $154 $289 forward @7 unknown #
edge $-1 -1 $-1 $290 0 $214 2.8575000000000004 $203 $291 forward @7 unknown #
coedge $-1 -1 $-1 $156 $280 $277 $292 forward $212 $-1 #
loop $-1 -1 $-1 $-1 $156 $199 #
vertex $-1 -1 $-1 $209 $293 #
vertex $-1 -1 $-1 $210 $294 #
straight-curve $-1 -1 $-1 0.093749999999999958 -0.40625 0 -2.8527164925373827e-016 -0.39370078740157477 0 F -0.26813650786083854 F 0 #
loop $-1 -1 $-1 $212 $158 $199 #
vertex $-1 -1 $-1 $159 $295 #
ellipse-curve $-1 -1 $-1 -8.0019372366820505e-032 2.4065880216309669e-031 0 3.4836936433236413e-031 5.4901033918321418e-031 1 -0.1875 3.5860946788715989e-062 6.5319255812318269e-032 1 I I #
loop $-1 -1 $-1 $-1 $244 $220 #
face $-1 -1 $-1 $232 $160 $2 $-1 $296 reversed single #
point $-1 -1 $-1 0.1875 -2.2961369134169312e-017 0.035000000000000253 #
coedge $-1 -1 $-1 $222 $222 $297 $298 forward $163 $-1 #
coedge $-1 -1 $-1 $223 $223 $164 $224 reversed $234 $-1 #
edge $-1 -1 $-1 $299 -3.1415926535897931 $299 3.1415926535897931 $164 $300 forward @7 unknown #
vertex $-1 -1 $-1 $166 $301 #
ellipse-curve $-1 -1 $-1 1.1249999999999998 -1.1203196573564278e-016 -0.12500000000000031 0 0 1 -2.775557561562891e-017 -0.12499999999999999 0 1 I I #
point $-1 -1 $-1 -0.12500000000000011 1.1249999999999998 -0.12500000000000031 #
face $-1 -1 $-1 $273 $259 $2 $-1 $302 reversed single #
loop $-1 -1 $-1 $-1 $303 $170 #
plane-surface $-1 -1 $-1 0.30762226627310357 -0.084049061175045431 0.62499999999999989 -7.7715611723760958e-016 -1 0 0 0 -0.39370078740157477 forward_v I I I I #
coedge $-1 -1 $-1 $304 $305 $207 $286 forward $171 $-1 #
face $-1 -1 $-1 $176 $306 $2 $-1 $307 reversed single #
point $-1 -1 $-1 -0.12499999999999999 -1.1249999999999998 0.12499999999999999 #
loop $-1 -1 $-1 $136 $223 $176 #
cone-surface $-1 -1 $-1 -1.1249999999999998 1.1203196573564278e-016 -4.1249999999999991 0 0 1 2.775557561562891e-017 0.12499999999999999 0 1 I I 0 1 0.12499999999999999 reversed I I I I #
face $-1 -1 $-1 $308 $309 $2 $-1 $116 reversed single #
loop $-1 -1 $-1 $-1 $310 $180 #
coedge $-1 -1 $-1 $311 $312 $313 $314 forward $181 $-1 #
coedge $-1 -1 $-1 $315 $182 $316 $317 reversed $144 $-1 #
coedge $-1 -1 $-1 $182 $315 $318 $319 reversed $144 $-1 #
coedge $-1 -1 $-1 $320 $321 $182 $242 reversed $322 $-1 #
edge $-1 -1 $-1 $323 -0.74930000000000008 $324 0.74929999999999986 $182 $325 forward @7 unknown #
coedge $-1 -1 $-1 $184 $183 $326 $327 forward $115 $-1 #
coedge $-1 -1 $-1 $328 $329 $183 $245 forward $219 $-1 #
edge $-1 -1 $-1 $330 2.3267460261955368 $252 2.8748805170854368 $244 $331 forward @7 unknown #
coedge $-1 -1 $-1 $332 $333 $184 $247 forward $86 $-1 #
edge $-1 -1 $-1 $251 -2.8748805170854368 $334 -2.3267460261955368 $246 $269 forward @7 unknown #
coedge $-1 -1 $-1 $335 $185 $333 $336 reversed $250 $-1 #
coedge $-1 -1 $-1 $185 $335 $328 $337 reversed $250 $-1 #
loop $-1 -1 $-1 $-1 $249 $338 #
vertex $-1 -1 $-1 $247 $339 #
vertex $-1 -1 $-1 $337 $340 #
straight-curve $-1 -1 $-1 -0.30762226627310363 0.084049061175045348 0.33000000000000002 0 0 -0.39370078740157477 I I #
coedge $-1 -1 $-1 $341 $187 $342 $343 forward $86 $-1 #
coedge $-1 -1 $-1 $344 $345 $187 $256 reversed $229 $-1 #
edge $-1 -1 $-1 $260 -0.58626614768980834 $346 -0.39068027816684164 $187 $347 forward @7 unknown #
coedge $-1 -1 $-1 $348 $188 $194 $272 forward $259 $-1 #
coedge $-1 -1 $-1 $188 $348 $344 $349 reversed $259 $-1 #
loop $-1 -1 $-1 $-1 $348 $228 #
vertex $-1 -1 $-1 $256 $350 #
ellipse-curve $-1 -1 $-1 0 0 0.62499999999999989 0 0 -1 0.38462457710891729 -0.084049061175045528 0 1 I I #
coedge $-1 -1 $-1 $190 $351 $352 $353 forward $86 $-1 #
coedge $-1 -1 $-1 $354 $355 $190 $264 reversed $356 $-1 #
edge $-1 -1 $-1 $357 -0.58626614768980834 $268 -0.3906802781668417 $190 $358 forward @7 unknown #
coedge $-1 -1 $-1 $359 $191 $355 $360 forward $267 $-1 #
coedge $-1 -1 $-1 $191 $359 $193 $271 forward $267 $-1 #
loop $-1 -1 $-1 $-1 $266 $361 #
vertex $-1 -1 $-1 $192 $362 #
ellipse-curve $-1 -1 $-1 0 0 0.62499999999999989 0 0 -1 0.31889763779527558 0 0 1 I I #
coedge $-1 -1 $-1 $194 $193 $363 $364 reversed $195 $-1 #
edge $-1 -1 $-1 $365 -0.74930000000000008 $196 0.74929999999999986 $266 $366 forward @7 unknown #
edge $-1 -1 $-1 $197 0 $367 1.4985999999999999 $194 $368 forward @7 unknown #
face $-1 -1 $-1 $369 $195 $2 $-1 $370 reversed single #
point $-1 -1 $-1 0.31032813981152896 0.073431253785584433 0.62499999999999989 #
point $-1 -1 $-1 0.38679214181275329 0.073431253785584433 0.62499999999999989 #
plane-surface $-1 -1 $-1 -1.9122935955649839e-017 -0.06741689705626519 1.7483827159451283e-016 3.4836936433236413e-031 5.4901033918321418e-031 1 0.39370078740157477 0 -1.3715329304423783e-031 forward_v I I I I #
coedge $-1 -1 $-1 $371 $208 $211 $292 reversed $200 $-1 #
coedge $-1 -1 $-1 $372 $202 $204 $283 reversed $151 $-1 #
coedge $-1 -1 $-1 $202 $372 $371 $373 forward $151 $-1 #
coedge $-1 -1 $-1 $211 $205 $202 $281 forward $212 $-1 #
edge $-1 -1 $-1 $284 -0.26813650786083854 $374 0 $202 $375 forward @7 unknown #
coedge $-1 -1 $-1 $204 $203 $305 $376 reversed $119 $-1 #
edge $-1 -1 $-1 $377 0 $284 2.8575000000000004 $278 $378 forward @7 unknown #
vertex $-1 -1 $-1 $283 $379 #
straight-curve $-1 -1 $-1 -0.093750000000000028 -0.40625 0 -0.39370078740157477 0 0 F -0.47625000000000001 F 0 #
edge $-1 -1 $-1 $290 -0.65000575393041915 $288 -0.38186924606958067 $231 $380 forward @7 unknown #
coedge $-1 -1 $-1 $208 $371 $304 $381 reversed $200 $-1 #
vertex $-1 -1 $-1 $286 $382 #
straight-curve $-1 -1 $-1 0.093750000000000042 -0.30068444572407932 -1.1249999999999998 0 0 0.39370078740157477 I I #
vertex $-1 -1 $-1 $286 $383 #
straight-curve $-1 -1 $-1 0.093749999999999958 -0.40625 -1.1249999999999998 0 0 0.39370078740157477 I I #
edge $-1 -1 $-1 $374 -3.1415926535897931 $213 2.537119288757816 $277 $384 forward @7 unknown #
point $-1 -1 $-1 0.093750000000000042 -0.30068444572407932 1.7483827159451283e-016 #
point $-1 -1 $-1 0.093749999999999958 -0.40625 1.7483827159451283e-016 #
point $-1 -1 $-1 -0.1875 2.4065880216309634e-031 1.748382715945129e-016 #
plane-surface $-1 -1 $-1 0 0 0.034999999999999989 0 0 -1 0.39370078740157477 0 0 reverse_v I I I I #
coedge $-1 -1 $-1 $297 $297 $222 $298 reversed $306 $-1 #
edge $-1 -1 $-1 $385 -3.1415926535897931 $385 3.1415926535897931 $222 $386 forward @7 unknown #
vertex $-1 -1 $-1 $224 $387 #
ellipse-curve $-1 -1 $-1 -1.1249999999999998 1.1203196573564278e-016 -0.12500000000000031 0 0 1 2.775557561562891e-017 0.12499999999999999 0 1 I I #
point $-1 -1 $-1 1.1249999999999998 0.12499999999999988 -0.12500000000000031 #
cone-surface $-1 -1 $-1 0 0 0.62499999999999989 0 0 -1 0.38462457710891729 -0.084049061175045528 0 1 I I 0 1 0.39370078740157477 forward I I I I #
coedge $-1 -1 $-1 $345 $344 $388 $389 reversed $229 $-1 #
coedge $-1 -1 $-1 $390 $231 $287 $381 forward $171 $-1 #
coedge $-1 -1 $-1 $231 $390 $282 $376 forward $171 $-1 #
loop $-1 -1 $-1 $173 $297 $232 #
cone-surface $-1 -1 $-1 -1.9410947470989462e-032 -1.1249999999999998 -4.1249999999999991 0 0 1 -0.12499999999999999 1.5307579422779713e-017 0 1 I I 0 1 0.12499999999999999 reversed I I I I #
face $-1 -1 $-1 $391 $392 $2 $-1 $393 reversed single #
loop $-1 -1 $-1 $-1 $394 $236 #
coedge $-1 -1 $-1 $395 $396 $397 $398 forward $237 $-1 #
coedge $-1 -1 $-1 $399 $238 $400 $401 reversed $181 $-1 #
coedge $-1 -1 $-1 $238 $399 $402 $403 reversed $181 $-1 #
coedge $-1 -1 $-1 $404 $405 $238 $314 reversed $406 $-1 #
edge $-1 -1 $-1 $407 -0.74929999999999986 $408 0.74930000000000008 $238 $409 forward @7 unknown #
coedge $-1 -1 $-1 $240 $239 $410 $411 forward $144 $-1 #
coedge $-1 -1 $-1 $351 $412 $239 $317 forward $86 $-1 #
edge $-1 -1 $-1 $413 -1.8276829658888392 $324 -1.2795484749989383 $316 $269 forward @7 unknown #
coedge $-1 -1 $-1 $414 $415 $240 $319 forward $219 $-1 #
edge $-1 -1 $-1 $323 1.2795484749989383 $416 1.8276829658888392 $318 $331 forward @7 unknown #
coedge $-1 -1 $-1 $417 $241 $415 $418 reversed $322 $-1 #
coedge $-1 -1 $-1 $241 $417 $351 $419 reversed $322 $-1 #
loop $-1 -1 $-1 $-1 $320 $420 #
vertex $-1 -1 $-1 $319 $421 #
vertex $-1 -1 $-1 $242 $422 #
straight-curve $-1 -1 $-1 0.091570738695706269 0.30546767947874526 0.33000000000000002 0 0 0.39370078740157477 I I #
coedge $-1 -1 $-1 $423 $424 $243 $327 reversed $425 $-1 #
edge $-1 -1 $-1 $330 -0.74930000000000008 $334 0.74929999999999986 $243 $426 forward @7 unknown #
coedge $-1 -1 $-1 $427 $244 $249 $337 forward $219 $-1 #
coedge $-1 -1 $-1 $244 $428 $423 $429 forward $219 $-1 #
vertex $-1 -1 $-1 $245 $430 #
ellipse-curve $-1 -1 $-1 0 0 0.034999999999999989 0 0 1 0.31889763779527558 0 0 1 I I #
coedge $-1 -1 $-1 $431 $246 $424 $432 forward $86 $-1 #
coedge $-1 -1 $-1 $246 $433 $248 $336 forward $86 $-1 #
vertex $-1 -1 $-1 $327 $434 #
coedge $-1 -1 $-1 $249 $248 $435 $436 forward $250 $-1 #
edge $-1 -1 $-1 $437 -0.58626614768980823 $251 -0.3906802781668417 $333 $438 forward @7 unknown #
edge $-1 -1 $-1 $252 -0.050529240550150623 $439 0.1450566289728159 $328 $440 forward @7 unknown #
face $-1 -1 $-1 $441 $250 $2 $-1 $442 reversed single #
point $-1 -1 $-1 -0.30762226627310363 0.084049061175045348 0.62499999999999989 #
point $-1 -1 $-1 -0.30762226627310363 0.084049061175045348 0.034999999999999989 #
coedge $-1 -1 $-1 $443 $254 $444 $445 forward $86 $-1 #
coedge $-1 -1 $-1 $394 $446 $254 $343 reversed $309 $-1 #
edge $-1 -1 $-1 $346 0.26671213650435671 $447 0.81484662739425651 $254 $269 forward @7 unknown #
coedge $-1 -1 $-1 $303 $255 $258 $349 forward $229 $-1 #
coedge $-1 -1 $-1 $255 $303 $394 $448 reversed $229 $-1 #
vertex $-1 -1 $-1 $343 $449 #
straight-curve $-1 -1 $-1 0.15381113313655176 -0.084049061175045306 0.62499999999999989 -0.39370078740157477 3.0596697529039742e-016 0 I I #
coedge $-1 -1 $-1 $258 $257 $450 $451 reversed $259 $-1 #
edge $-1 -1 $-1 $260 0 $452 1.4985999999999999 $258 $453 forward @7 unknown #
point $-1 -1 $-1 0.38462457710891723 -0.084049061175045486 0.62499999999999989 #
coedge $-1 -1 $-1 $262 $316 $321 $419 forward $86 $-1 #
coedge $-1 -1 $-1 $454 $455 $262 $353 reversed $456 $-1 #
edge $-1 -1 $-1 $457 -0.40275451087616715 $357 -1.1102230246251563e-016 $262 $458 forward @7 unknown #
coedge $-1 -1 $-1 $459 $263 $455 $460 forward $356 $-1 #
coedge $-1 -1 $-1 $263 $459 $265 $360 reversed $356 $-1 #
loop $-1 -1 $-1 $-1 $459 $461 #
vertex $-1 -1 $-1 $264 $462 #
straight-curve $-1 -1 $-1 0.14969418871009751 0.091179818093601595 0.62499999999999989 -0.19685039370078777 -0.34095488337969998 0 I I #
coedge $-1 -1 $-1 $266 $265 $463 $464 reversed $267 $-1 #
edge $-1 -1 $-1 $268 -0.74929999999999986 $465 0.74930000000000008 $265 $466 forward @7 unknown #
face $-1 -1 $-1 $220 $267 $2 $-1 $116 reversed single #
point $-1 -1 $-1 0.22659975527837359 0.22438416677472586 0.62499999999999989 #
coedge $-1 -1 $-1 $463 $450 $270 $364 forward $219 $-1 #
edge $-1 -1 $-1 $367 -0.050016501385204304 $365 0.14420206369790556 $363 $467 forward @7 unknown #
vertex $-1 -1 $-1 $464 $468 #
straight-curve $-1 -1 $-1 0.31032813981152901 0.073431253785584419 0.33000000000000002 0 0 0.39370078740157477 I I #
vertex $-1 -1 $-1 $451 $469 #
straight-curve $-1 -1 $-1 0.38679214181275329 0.073431253785584433 0.62499999999999989 0 0 -0.39370078740157477 I I #
face $-1 -1 $-1 $470 $471 $2 $-1 $472 reversed single #
plane-surface $-1 -1 $-1 0.38679214181275329 0.073431253785584433 0.62499999999999989 -1.1102230246251565e-016 1 0 0 0 0.39370078740157477 forward_v I I I I #
coedge $-1 -1 $-1 $287 $277 $279 $373 reversed $200 $-1 #
coedge $-1 -1 $-1 $279 $278 $390 $473 reversed $151 $-1 #
edge $-1 -1 $-1 $474 0 $374 2.8575000000000004 $371 $475 forward @7 unknown #
vertex $-1 -1 $-1 $373 $476 #
straight-curve $-1 -1 $-1 -0.093749999999999944 -0.30068444572407932 0 2.8527164925373827e-016 0.39370078740157477 0 F -0.26813650786083854 F 0 #
edge $-1 -1 $-1 $377 -0.35718750000000005 $290 0.11906249999999996 $305 $477 forward @7 unknown #
vertex $-1 -1 $-1 $376 $478 #
straight-curve $-1 -1 $-1 -0.093750000000000028 -0.40625 -1.1249999999999998 0 0 0.39370078740157477 I I #
point $-1 -1 $-1 -0.093750000000000028 -0.40625 1.7483827159451283e-016 #
straight-curve $-1 -1 $-1 0.093750000000000153 -0.15034222286203971 -1.1249999999999998 2.8527164925373827e-016 0.39370078740157477 0 I I #
edge $-1 -1 $-1 $288 -2.537119288757816 $474 3.1415926535897931 $304 $479 forward @7 unknown #
point $-1 -1 $-1 0.093750000000000042 -0.30068444572407932 -1.1249999999999998 #
point $-1 -1 $-1 0.093749999999999958 -0.40625 -1.1249999999999998 #
ellipse-curve $-1 -1 $-1 7.3658869963170739e-050 4.0117777390655494e-050 0 0 0 -1 0.093749999999999944 0.30068444572407932 0 1 F -3.1415926535897931 F 2.5371192887578169 #
vertex $-1 -1 $-1 $298 $480 #
ellipse-curve $-1 -1 $-1 -1.9410947470989462e-032 -1.1249999999999998 -0.12500000000000031 0 0 1 -0.12499999999999999 1.5307579422779713e-017 0 1 I I #
point $-1 -1 $-1 -1.1249999999999998 -0.12499999999999988 -0.12500000000000031 #
coedge $-1 -1 $-1 $450 $481 $303 $389 forward $219 $-1 #
edge $-1 -1 $-1 $482 -0.050529240550150734 $452 0.1450566289728159 $388 $483 forward @7 unknown #
coedge $-1 -1 $-1 $305 $304 $372 $473 forward $171 $-1 #
face $-1 -1 $-1 $484 $485 $2 $-1 $486 reversed single #
loop $-1 -1 $-1 $-1 $487 $308 #
plane-surface $-1 -1 $-1 -0.081022510994730207 0.30843322794977129 0.62499999999999989 0.86602540378443882 0.49999999999999961 0 0 0 -0.39370078740157477 forward_v I I I I #
coedge $-1 -1 $-1 $488 $342 $345 $448 forward $309 $-1 #
coedge $-1 -1 $-1 $489 $310 $490 $491 reversed $237 $-1 #
coedge $-1 -1 $-1 $310 $489 $492 $493 reversed $237 $-1 #
coedge $-1 -1 $-1 $494 $495 $310 $398 reversed $471 $-1 #
edge $-1 -1 $-1 $496 -0.74929999999999986 $497 0.74930000000000008 $310 $498 forward @7 unknown #
coedge $-1 -1 $-1 $312 $311 $499 $500 forward $181 $-1 #
coedge $-1 -1 $-1 $501 $502 $311 $401 forward $219 $-1 #
edge $-1 -1 $-1 $503 -2.909241729787452 $408 -2.361107238897552 $400 $331 forward @7 unknown #
coedge $-1 -1 $-1 $504 $505 $312 $403 forward $86 $-1 #
edge $-1 -1 $-1 $407 2.361107238897552 $506 2.909241729787452 $402 $269 forward @7 unknown #
coedge $-1 -1 $-1 $507 $313 $505 $508 reversed $406 $-1 #
coedge $-1 -1 $-1 $313 $507 $501 $509 reversed $406 $-1 #
loop $-1 -1 $-1 $-1 $405 $510 #
vertex $-1 -1 $-1 $403 $511 #
vertex $-1 -1 $-1 $509 $512 #
straight-curve $-1 -1 $-1 -0.22659975527837345 -0.224384166774726 0.33000000000000002 0 0 -0.39370078740157477 I I #
coedge $-1 -1 $-1 $513 $487 $315 $411 reversed $392 $-1 #
edge $-1 -1 $-1 $413 -0.74929999999999986 $416 0.74930000000000008 $315 $514 forward @7 unknown #
coedge $-1 -1 $-1 $316 $431 $513 $515 forward $86 $-1 #
vertex $-1 -1 $-1 $317 $516 #
coedge $-1 -1 $-1 $428 $318 $487 $517 forward $219 $-1 #
coedge $-1 -1 $-1 $318 $518 $320 $418 forward $219 $-1 #
vertex $-1 -1 $-1 $517 $519 #
coedge $-1 -1 $-1 $321 $320 $454 $520 reversed $322 $-1 #
edge $-1 -1 $-1 $521 -0.050016501385204512 $323 0.14420206369790545 $415 $522 forward @7 unknown #
edge $-1 -1 $-1 $324 0.29700745501908693 $457 0.49122602010219685 $351 $523 forward @7 unknown #
face $-1 -1 $-1 $62 $322 $2 $-1 $524 reversed single #
point $-1 -1 $-1 0.091570738695706241 0.30546767947874526 0.034999999999999989 #
point $-1 -1 $-1 0.091570738695706241 0.30546767947874526 0.62499999999999989 #
coedge $-1 -1 $-1 $525 $326 $329 $429 reversed $425 $-1 #
coedge $-1 -1 $-1 $326 $525 $332 $432 reversed $425 $-1 #
loop $-1 -1 $-1 $-1 $423 $484 #
straight-curve $-1 -1 $-1 -0.2187574011158229 0.2320364256931608 0.33000000000000002 0 0 0.39370078740157477 I I #
coedge $-1 -1 $-1 $502 $328 $526 $527 forward $219 $-1 #
coedge $-1 -1 $-1 $329 $414 $528 $529 forward $219 $-1 #
edge $-1 -1 $-1 $530 -0.050016501385204443 $330 0.1442020636979055 $329 $531 forward @7 unknown #
point $-1 -1 $-1 -0.2187574011158229 0.2320364256931608 0.034999999999999989 #
coedge $-1 -1 $-1 $412 $332 $532 $533 forward $86 $-1 #
edge $-1 -1 $-1 $334 0.29700745501908687 $534 0.49122602010219685 $332 $535 forward @7 unknown #
coedge $-1 -1 $-1 $333 $504 $536 $537 forward $86 $-1 #
point $-1 -1 $-1 -0.2187574011158229 0.2320364256931608 0.62499999999999989 #
coedge $-1 -1 $-1 $536 $526 $335 $436 reversed $538 $-1 #
edge $-1 -1 $-1 $437 0 $439 1.4985999999999999 $435 $539 forward @7 unknown #
vertex $-1 -1 $-1 $336 $540 #
straight-curve $-1 -1 $-1 -0.15381113313655179 0.084049061175045264 0.62499999999999989 0.39370078740157477 -2.1854783949314103e-016 0 I I #
vertex $-1 -1 $-1 $527 $541 #
straight-curve $-1 -1 $-1 -0.3275156680645015 0.084049061175045375 0.034999999999999989 -0.39370078740157477 2.1854783949314103e-016 0 I I #
face $-1 -1 $-1 $542 $538 $2 $-1 $543 reversed single #
plane-surface $-1 -1 $-1 -0.30762226627310363 0.084049061175045348 0.62499999999999989 5.5511151231257827e-016 1 0 0 0 -0.39370078740157477 forward_v I I I I #
coedge $-1 -1 $-1 $544 $341 $545 $546 forward $86 $-1 #
coedge $-1 -1 $-1 $547 $548 $341 $445 reversed $549 $-1 #
edge $-1 -1 $-1 $447 0.29700745501908687 $550 0.49122602010219685 $341 $551 forward @7 unknown #
coedge $-1 -1 $-1 $342 $488 $547 $552 forward $309 $-1 #
vertex $-1 -1 $-1 $552 $553 #
edge $-1 -1 $-1 $346 -0.74929999999999986 $482 0.74930000000000008 $394 $554 forward @7 unknown #
point $-1 -1 $-1 0.30762226627310357 -0.084049061175045431 0.62499999999999989 #
coedge $-1 -1 $-1 $363 $388 $348 $451 forward $219 $-1 #
edge $-1 -1 $-1 $452 5.5511151231257827e-017 $367 0.40275451087616704 $450 $555 forward @7 unknown #
vertex $-1 -1 $-1 $451 $556 #
straight-curve $-1 -1 $-1 0.38462457710891723 -0.084049061175045486 0.62499999999999989 0 0 -0.39370078740157477 I I #
coedge $-1 -1 $-1 $557 $352 $417 $520 forward $456 $-1 #
coedge $-1 -1 $-1 $352 $557 $354 $460 reversed $456 $-1 #
loop $-1 -1 $-1 $-1 $557 $558 #
vertex $-1 -1 $-1 $353 $559 #
ellipse-curve $-1 -1 $-1 0 0 0.62499999999999989 0 0 -1 0.26510091069628056 0.29107012410864624 0 1 I I #
coedge $-1 -1 $-1 $355 $354 $560 $561 reversed $356 $-1 #
edge $-1 -1 $-1 $357 0 $562 1.4985999999999999 $455 $563 forward @7 unknown #
face $-1 -1 $-1 $558 $356 $2 $-1 $564 reversed single #
point $-1 -1 $-1 0.2651009106962805 0.29107012410864619 0.62499999999999989 #
coedge $-1 -1 $-1 $560 $363 $359 $464 forward $219 $-1 #
edge $-1 -1 $-1 $365 0.23235092380234101 $465 0.78048541469224075 $463 $331 forward @7 unknown #
vertex $-1 -1 $-1 $561 $565 #
straight-curve $-1 -1 $-1 0.22659975527837359 0.22438416677472586 0.33000000000000002 0 0 -0.39370078740157477 I I #
straight-curve $-1 -1 $-1 0.36710060583432641 0.073431253785584433 0.034999999999999948 -0.39370078740157477 -4.3709567898628207e-017 0 I I #
point $-1 -1 $-1 0.31032813981152896 0.073431253785584433 0.034999999999999989 #
point $-1 -1 $-1 0.38679214181275329 0.073431253785584433 0.034999999999999989 #
face $-1 -1 $-1 $566 $567 $2 $-1 $568 reversed single #
loop $-1 -1 $-1 $-1 $495 $369 #
plane-surface $-1 -1 $-1 0.081022510994730179 -0.30843322794977129 0.62499999999999989 -0.86602540378443893 -0.4999999999999995 0 0 0 -0.39370078740157477 forward_v I I I I #
edge $-1 -1 $-1 $474 0.24780099213916162 $377 0.51593750000000016 $390 $569 forward @7 unknown #
vertex $-1 -1 $-1 $473 $570 #
straight-curve $-1 -1 $-1 -0.093749999999999944 -0.30068444572407932 -1.1249999999999998 0 0 0.39370078740157477 I I #
point $-1 -1 $-1 -0.093749999999999944 -0.30068444572407932 1.7483827159451283e-016 #
straight-curve $-1 -1 $-1 0.046874999999999979 -0.40625 -1.1249999999999998 0.39370078740157477 0 0 I I #
point $-1 -1 $-1 -0.093750000000000028 -0.40625 -1.1249999999999998 #
ellipse-curve $-1 -1 $-1 7.3658869963170739e-050 4.0117777390655494e-050 -1.1249999999999998 0 0 1 0.093749999999999944 0.30068444572407932 0 1 I I #
point $-1 -1 $-1 0.12499999999999999 -1.1249999999999998 -0.12500000000000031 #
coedge $-1 -1 $-1 $388 $571 $488 $572 forward $219 $-1 #
vertex $-1 -1 $-1 $389 $573 #
straight-curve $-1 -1 $-1 0.3275156680645015 -0.084049061175045459 0.034999999999999989 0.39370078740157477 -3.0596697529039742e-016 0 I I #
face $-1 -1 $-1 $361 $425 $2 $-1 $574 reversed single #
loop $-1 -1 $-1 $-1 $528 $391 #
cone-surface $-1 -1 $-1 0 0 0.62499999999999989 0 0 -1 -0.11952366641263702 0.37511918528369176 0 1 I I 0 1 0.39370078740157477 forward I I I I #
coedge $-1 -1 $-1 $410 $575 $414 $517 reversed $392 $-1 #
coedge $-1 -1 $-1 $446 $394 $481 $572 reversed $309 $-1 #
coedge $-1 -1 $-1 $396 $395 $576 $577 forward $237 $-1 #
coedge $-1 -1 $-1 $578 $579 $395 $491 forward $219 $-1 #
edge $-1 -1 $-1 $580 -1.8620441785908544 $497 -1.3139096877009542 $490 $331 forward @7 unknown #
coedge $-1 -1 $-1 $581 $544 $396 $493 forward $86 $-1 #
edge $-1 -1 $-1 $496 1.3139096877009542 $582 1.8620441785908544 $492 $269 forward @7 unknown #
coedge $-1 -1 $-1 $583 $397 $544 $584 reversed $471 $-1 #
coedge $-1 -1 $-1 $397 $583 $578 $585 reversed $471 $-1 #
vertex $-1 -1 $-1 $493 $586 #
vertex $-1 -1 $-1 $585 $587 #
straight-curve $-1 -1 $-1 0.081022510994730207 -0.30843322794977135 0.33000000000000002 0 0 -0.39370078740157477 I I #
coedge $-1 -1 $-1 $588 $589 $399 $500 reversed $590 $-1 #
edge $-1 -1 $-1 $503 -0.74930000000000008 $506 0.74929999999999986 $399 $591 forward @7 unknown #
coedge $-1 -1 $-1 $592 $400 $405 $509 forward $219 $-1 #
coedge $-1 -1 $-1 $400 $427 $588 $593 forward $219 $-1 #
vertex $-1 -1 $-1 $401 $594 #
coedge $-1 -1 $-1 $433 $402 $589 $595 forward $86 $-1 #
coedge $-1 -1 $-1 $402 $596 $404 $508 forward $86 $-1 #
vertex $-1 -1 $-1 $500 $597 #
coedge $-1 -1 $-1 $405 $404 $598 $599 forward $406 $-1 #
edge $-1 -1 $-1 $600 -0.58626614768980845 $407 -0.3906802781668417 $505 $601 forward @7 unknown #
edge $-1 -1 $-1 $408 -0.050529240550150789 $602 0.14505662897281585 $501 $603 forward @7 unknown #
face $-1 -1 $-1 $604 $406 $2 $-1 $605 reversed single #
point $-1 -1 $-1 -0.22659975527837345 -0.22438416677472595 0.62499999999999989 #
point $-1 -1 $-1 -0.22659975527837345 -0.22438416677472595 0.034999999999999989 #
coedge $-1 -1 $-1 $575 $410 $412 $515 reversed $392 $-1 #
straight-curve $-1 -1 $-1 -0.081022510994730221 0.30843322794977135 0.33000000000000002 0 0 -0.39370078740157477 I I #
edge $-1 -1 $-1 $606 -0.58626614768980823 $413 -0.39068027816684164 $412 $607 forward @7 unknown #
point $-1 -1 $-1 -0.081022510994730207 0.30843322794977129 0.62499999999999989 #
edge $-1 -1 $-1 $416 -0.050529240550150706 $608 0.1450566289728159 $414 $609 forward @7 unknown #
coedge $-1 -1 $-1 $415 $560 $557 $610 forward $219 $-1 #
point $-1 -1 $-1 -0.081022510994730207 0.30843322794977129 0.034999999999999989 #
edge $-1 -1 $-1 $457 0 $521 1.4985999999999999 $417 $611 forward @7 unknown #
vertex $-1 -1 $-1 $610 $612 #
straight-curve $-1 -1 $-1 0.119956971707105 0.3546340772899767 0.034999999999999948 -0.19685039370078755 -0.3409548833797002 0 I I #
straight-curve $-1 -1 $-1 0.033104704243130056 0.20420153728981097 0.62499999999999989 0.19685039370078755 0.3409548833797002 0 I I #
plane-surface $-1 -1 $-1 0.12980273969631845 0.37168744768682971 0.62499999999999989 -0.8660254037844386 0.50000000000000033 0 0 0 0.39370078740157477 forward_v I I I I #
coedge $-1 -1 $-1 $424 $423 $613 $614 reversed $425 $-1 #
coedge $-1 -1 $-1 $435 $615 $427 $527 reversed $538 $-1 #
edge $-1 -1 $-1 $439 5.5511151231257827e-017 $616 0.40275451087616704 $427 $617 forward @7 unknown #
coedge $-1 -1 $-1 $618 $613 $428 $529 reversed $485 $-1 #
edge $-1 -1 $-1 $608 5.5511151231257827e-017 $530 0.40275451087616704 $428 $619 forward @7 unknown #
vertex $-1 -1 $-1 $529 $620 #
straight-curve $-1 -1 $-1 -0.24714363412722165 0.28120282350439224 0.034999999999999948 0.19685039370078755 -0.34095488337970015 0 I I #
coedge $-1 -1 $-1 $613 $618 $431 $533 reversed $485 $-1 #
edge $-1 -1 $-1 $534 -0.40275451087616704 $606 -5.5511151231257827e-017 $431 $621 forward @7 unknown #
vertex $-1 -1 $-1 $533 $622 #
straight-curve $-1 -1 $-1 -0.16029136666324673 0.13077028350422648 0.62499999999999989 -0.19685039370078755 0.34095488337970015 0 I I #
coedge $-1 -1 $-1 $615 $435 $433 $537 reversed $538 $-1 #
edge $-1 -1 $-1 $623 -0.40275451087616709 $437 -2.7755575615628914e-017 $433 $624 forward @7 unknown #
loop $-1 -1 $-1 $-1 $526 $441 #
straight-curve $-1 -1 $-1 -0.38462457710891723 0.084049061175045403 0.62499999999999989 0 0 -0.39370078740157477 I I #
point $-1 -1 $-1 -0.38462457710891723 0.084049061175045403 0.62499999999999989 #
point $-1 -1 $-1 -0.38462457710891723 0.084049061175045403 0.034999999999999989 #
face $-1 -1 $-1 $461 $590 $2 $-1 $625 reversed single #
cone-surface $-1 -1 $-1 0 0 0.62499999999999989 0 0 -1 -0.38462457710891729 0.084049061175045417 0 1 I I 0 1 0.39370078740157477 forward I I I I #
coedge $-1 -1 $-1 $492 $443 $494 $584 forward $86 $-1 #
coedge $-1 -1 $-1 $626 $627 $443 $546 reversed $567 $-1 #
edge $-1 -1 $-1 $550 -0.40275451087616698 $628 -5.5511151231257827e-017 $443 $629 forward @7 unknown #
coedge $-1 -1 $-1 $630 $444 $446 $552 reversed $549 $-1 #
coedge $-1 -1 $-1 $444 $630 $626 $631 reversed $549 $-1 #
loop $-1 -1 $-1 $-1 $630 $566 #
vertex $-1 -1 $-1 $546 $632 #
straight-curve $-1 -1 $-1 0.16029136666324673 -0.13077028350422651 0.62499999999999989 0.19685039370078755 -0.3409548833797002 0 I I #
edge $-1 -1 $-1 $633 -0.74930000000000008 $447 0.74929999999999986 $446 $634 forward @7 unknown #
point $-1 -1 $-1 0.21875740111582287 -0.23203642569316082 0.62499999999999989 #
straight-curve $-1 -1 $-1 0.30762226627310357 -0.084049061175045431 0.33000000000000002 0 0 -0.39370078740157477 I I #
ellipse-curve $-1 -1 $-1 0 0 0.034999999999999989 0 0 1 0.38462457710891729 -0.084049061175045528 0 1 I I #
point $-1 -1 $-1 0.38462457710891723 -0.084049061175045486 0.034999999999999989 #
coedge $-1 -1 $-1 $455 $454 $518 $610 reversed $456 $-1 #
face $-1 -1 $-1 $420 $456 $2 $-1 $635 reversed single #
point $-1 -1 $-1 0.12980273969631845 0.37168744768682971 0.62499999999999989 #
coedge $-1 -1 $-1 $518 $463 $459 $561 forward $219 $-1 #
edge $-1 -1 $-1 $465 -0.050529240550150636 $562 0.14505662897281602 $560 $636 forward @7 unknown #
vertex $-1 -1 $-1 $610 $637 #
straight-curve $-1 -1 $-1 0.2651009106962805 0.29107012410864619 0.62499999999999989 0 0 -0.39370078740157477 I I #
plane-surface $-1 -1 $-1 0.22659975527837359 0.22438416677472586 0.62499999999999989 0.86602540378443804 -0.500000000000001 0 0 0 -0.39370078740157477 forward_v I I I I #
point $-1 -1 $-1 0.22659975527837359 0.22438416677472586 0.034999999999999989 #
face $-1 -1 $-1 $510 $549 $2 $-1 $638 reversed single #
loop $-1 -1 $-1 $-1 $639 $470 #
cone-surface $-1 -1 $-1 0 0 0.62499999999999989 0 0 -1 0.11952366641263697 -0.37511918528369176 0 1 I I 0 1 0.39370078740157477 forward I I I I #
straight-curve $-1 -1 $-1 -0.093749999999999875 -0.20312499999999997 -1.1249999999999998 -2.8527164925373827e-016 -0.39370078740157477 0 I I #
point $-1 -1 $-1 -0.093749999999999944 -0.30068444572407932 -1.1249999999999998 #
coedge $-1 -1 $-1 $481 $640 $630 $641 forward $219 $-1 #
edge $-1 -1 $-1 $633 -0.81484662739425651 $482 -0.26671213650435671 $481 $331 forward @7 unknown #
point $-1 -1 $-1 0.30762226627310357 -0.084049061175045431 0.034999999999999989 #
plane-surface $-1 -1 $-1 -0.25698940211643512 0.29825619390124525 0.62499999999999989 -0.86602540378443849 -0.50000000000000044 0 0 0 0.39370078740157477 forward_v I I I I #
coedge $-1 -1 $-1 $487 $513 $618 $642 forward $392 $-1 #
coedge $-1 -1 $-1 $643 $644 $489 $577 reversed $645 $-1 #
edge $-1 -1 $-1 $580 -0.74930000000000008 $582 0.74929999999999986 $489 $646 forward @7 unknown #
coedge $-1 -1 $-1 $640 $490 $495 $585 forward $219 $-1 #
coedge $-1 -1 $-1 $490 $592 $643 $647 forward $219 $-1 #
vertex $-1 -1 $-1 $491 $648 #
coedge $-1 -1 $-1 $596 $492 $644 $649 forward $86 $-1 #
vertex $-1 -1 $-1 $577 $650 #
coedge $-1 -1 $-1 $495 $494 $627 $651 forward $471 $-1 #
edge $-1 -1 $-1 $628 -0.58626614768980834 $496 -0.3906802781668417 $544 $652 forward @7 unknown #
edge $-1 -1 $-1 $497 -0.050529240550150692 $653 0.1450566289728159 $578 $654 forward @7 unknown #
point $-1 -1 $-1 0.081022510994730179 -0.30843322794977129 0.62499999999999989 #
point $-1 -1 $-1 0.081022510994730179 -0.30843322794977129 0.034999999999999989 #
coedge $-1 -1 $-1 $655 $499 $502 $593 reversed $590 $-1 #
coedge $-1 -1 $-1 $499 $655 $504 $595 reversed $590 $-1 #
loop $-1 -1 $-1 $-1 $588 $542 #
straight-curve $-1 -1 $-1 -0.31032813981152896 -0.073431253785584502 0.33000000000000002 0 0 0.39370078740157477 I I #
coedge $-1 -1 $-1 $579 $501 $656 $657 forward $219 $-1 #
edge $-1 -1 $-1 $616 -0.050016501385204526 $503 0.14420206369790534 $502 $658 forward @7 unknown #
point $-1 -1 $-1 -0.31032813981152896 -0.073431253785584516 0.034999999999999989 #
edge $-1 -1 $-1 $506 0.29700745501908693 $623 0.49122602010219679 $504 $659 forward @7 unknown #
coedge $-1 -1 $-1 $505 $581 $660 $661 forward $86 $-1 #
point $-1 -1 $-1 -0.31032813981152896 -0.073431253785584516 0.62499999999999989 #
coedge $-1 -1 $-1 $660 $656 $507 $599 reversed $662 $-1 #
edge $-1 -1 $-1 $600 0 $602 1.4985999999999999 $598 $663 forward @7 unknown #
vertex $-1 -1 $-1 $508 $664 #
straight-curve $-1 -1 $-1 -0.14969418871009746 -0.09117981809360165 0.62499999999999989 0.19685039370078763 0.34095488337970009 0 I I #
vertex $-1 -1 $-1 $657 $665 #
straight-curve $-1 -1 $-1 -0.23654645617407247 -0.24161235809376741 0.034999999999999989 -0.19685039370078763 -0.34095488337970009 0 I I #
face $-1 -1 $-1 $666 $662 $2 $-1 $667 reversed single #
plane-surface $-1 -1 $-1 -0.22659975527837345 -0.22438416677472595 0.62499999999999989 -0.86602540378443837 0.50000000000000067 0 0 0 -0.39370078740157477 forward_v I I I I #
vertex $-1 -1 $-1 $515 $668 #
straight-curve $-1 -1 $-1 -0.0041169444264543536 0.17522887926864694 0.62499999999999989 0.19685039370078722 -0.34095488337970031 0 I I #
vertex $-1 -1 $-1 $529 $669 #
straight-curve $-1 -1 $-1 -0.090969211890429155 0.32566141926881276 0.034999999999999989 -0.19685039370078722 0.34095488337970031 0 I I #
edge $-1 -1 $-1 $562 5.5511151231257827e-017 $521 0.40275451087616704 $518 $670 forward @7 unknown #
straight-curve $-1 -1 $-1 0.12980273969631845 0.37168744768682971 0.62499999999999989 0 0 -0.39370078740157477 I I #
point $-1 -1 $-1 0.12980273969631845 0.37168744768682971 0.034999999999999989 #
coedge $-1 -1 $-1 $528 $532 $525 $614 forward $485 $-1 #
edge $-1 -1 $-1 $534 0 $530 1.4985999999999999 $525 $671 forward @7 unknown #
coedge $-1 -1 $-1 $526 $536 $655 $672 forward $538 $-1 #
vertex $-1 -1 $-1 $527 $673 #
ellipse-curve $-1 -1 $-1 0 0 0.034999999999999989 0 0 1 -0.38462457710891729 0.084049061175045417 0 1 I I #
coedge $-1 -1 $-1 $532 $528 $575 $642 reversed $485 $-1 #
ellipse-curve $-1 -1 $-1 0 0 0.034999999999999989 0 0 1 -0.11952366641263702 0.37511918528369176 0 1 I I #
point $-1 -1 $-1 -0.25698940211643512 0.29825619390124525 0.034999999999999989 #
ellipse-curve $-1 -1 $-1 0 0 0.62499999999999989 0 0 -1 -0.11952366641263702 0.37511918528369176 0 1 I I #
point $-1 -1 $-1 -0.25698940211643512 0.29825619390124525 0.62499999999999989 #
vertex $-1 -1 $-1 $537 $674 #
ellipse-curve $-1 -1 $-1 0 0 0.62499999999999989 0 0 -1 -0.38462457710891729 0.084049061175045417 0 1 I I #
plane-surface $-1 -1 $-1 -0.38679214181275329 -0.073431253785584544 0.62499999999999989 3.3306690738754696e-016 -1 0 0 0 0.39370078740157477 forward_v I I I I #
coedge $-1 -1 $-1 $639 $545 $548 $631 forward $567 $-1 #
coedge $-1 -1 $-1 $545 $639 $583 $651 reversed $567 $-1 #
vertex $-1 -1 $-1 $584 $675 #
ellipse-curve $-1 -1 $-1 0 0 0.62499999999999989 0 0 -1 0.11952366641263697 -0.37511918528369176 0 1 I I #
coedge $-1 -1 $-1 $548 $547 $571 $641 reversed $549 $-1 #
edge $-1 -1 $-1 $550 0 $676 1.4985999999999999 $548 $677 forward @7 unknown #
point $-1 -1 $-1 0.25698940211643506 -0.2982561939012453 0.62499999999999989 #
vertex $-1 -1 $-1 $572 $678 #
straight-curve $-1 -1 $-1 0.2187574011158229 -0.23203642569316088 0.33000000000000002 0 0 0.39370078740157477 I I #
cone-surface $-1 -1 $-1 0 0 0.62499999999999989 0 0 -1 0.26510091069628056 0.29107012410864624 0 1 I I 0 1 0.39370078740157477 forward I I I I #
straight-curve $-1 -1 $-1 0.23654645617407255 0.24161235809376727 0.034999999999999989 0.19685039370078777 0.34095488337969998 0 I I #
point $-1 -1 $-1 0.2651009106962805 0.29107012410864619 0.034999999999999989 #
plane-surface $-1 -1 $-1 0.25698940211643506 -0.2982561939012453 0.62499999999999989 0.8660254037844386 0.50000000000000033 0 0 0 0.39370078740157477 forward_v I I I I #
coedge $-1 -1 $-1 $627 $626 $640 $679 reversed $567 $-1 #
coedge $-1 -1 $-1 $571 $578 $639 $679 forward $219 $-1 #
edge $-1 -1 $-1 $676 -0.050016501385204443 $633 0.1442020636979055 $571 $680 forward @7 unknown #
edge $-1 -1 $-1 $606 0 $608 1.4985999999999999 $618 $681 forward @7 unknown #
coedge $-1 -1 $-1 $682 $576 $579 $647 reversed $645 $-1 #
coedge $-1 -1 $-1 $576 $682 $581 $649 reversed $645 $-1 #
loop $-1 -1 $-1 $-1 $643 $666 #
straight-curve $-1 -1 $-1 -0.091570738695706089 -0.30546767947874537 0.33000000000000002 0 0 0.39370078740157477 I I #
edge $-1 -1 $-1 $683 -0.050016501385204457 $580 0.14420206369790553 $579 $684 forward @7 unknown #
point $-1 -1 $-1 -0.091570738695706089 -0.30546767947874531 0.034999999999999989 #
edge $-1 -1 $-1 $582 0.29700745501908687 $685 0.49122602010219685 $581 $686 forward @7 unknown #
point $-1 -1 $-1 -0.091570738695706089 -0.30546767947874531 0.62499999999999989 #
edge $-1 -1 $-1 $628 0 $653 1.4985999999999999 $627 $687 forward @7 unknown #
straight-curve $-1 -1 $-1 0.0041169444264543423 -0.17522887926864691 0.62499999999999989 -0.19685039370078719 0.34095488337970031 0 I I #
vertex $-1 -1 $-1 $679 $688 #
straight-curve $-1 -1 $-1 0.090969211890429114 -0.32566141926881276 0.034999999999999989 0.19685039370078719 -0.34095488337970031 0 I I #
coedge $-1 -1 $-1 $589 $588 $615 $672 reversed $590 $-1 #
coedge $-1 -1 $-1 $598 $689 $592 $657 reversed $662 $-1 #
edge $-1 -1 $-1 $602 5.5511151231257827e-017 $683 0.40275451087616704 $592 $690 forward @7 unknown #
straight-curve $-1 -1 $-1 -0.3671006058343263 -0.073431253785584544 0.034999999999999948 0.39370078740157477 1.3112870369588462e-016 0 I I #
straight-curve $-1 -1 $-1 -0.19339607090637662 -0.073431253785584474 0.62499999999999989 -0.39370078740157477 -1.3112870369588462e-016 0 I I #
coedge $-1 -1 $-1 $689 $598 $596 $661 reversed $662 $-1 #
edge $-1 -1 $-1 $685 -0.40275451087616704 $600 -5.5511151231257827e-017 $596 $691 forward @7 unknown #
loop $-1 -1 $-1 $-1 $656 $604 #
straight-curve $-1 -1 $-1 -0.26510091069628033 -0.29107012410864624 0.62499999999999989 0 0 -0.39370078740157477 I I #
point $-1 -1 $-1 -0.26510091069628033 -0.29107012410864624 0.62499999999999989 #
point $-1 -1 $-1 -0.26510091069628033 -0.29107012410864624 0.034999999999999989 #
face $-1 -1 $-1 $338 $645 $2 $-1 $692 reversed single #
cone-surface $-1 -1 $-1 0 0 0.62499999999999989 0 0 -1 -0.26510091069628039 -0.29107012410864636 0 1 I I 0 1 0.39370078740157477 forward I I I I #
point $-1 -1 $-1 -0.11952366641263699 0.3751191852836917 0.62499999999999989 #
point $-1 -1 $-1 -0.11952366641263699 0.3751191852836917 0.034999999999999989 #
ellipse-curve $-1 -1 $-1 0 0 0.034999999999999989 0 0 1 0.26510091069628056 0.29107012410864624 0 1 I I #
straight-curve $-1 -1 $-1 -0.25698940211643512 0.29825619390124525 0.62499999999999989 0 0 -0.39370078740157477 I I #
edge $-1 -1 $-1 $623 0 $616 1.4985999999999999 $655 $693 forward @7 unknown #
point $-1 -1 $-1 -0.38679214181275329 -0.073431253785584544 0.034999999999999989 #
point $-1 -1 $-1 -0.38679214181275329 -0.073431253785584544 0.62499999999999989 #
point $-1 -1 $-1 0.11952366641263695 -0.3751191852836917 0.62499999999999989 #
vertex $-1 -1 $-1 $679 $694 #
straight-curve $-1 -1 $-1 0.25698940211643506 -0.2982561939012453 0.62499999999999989 0 0 -0.39370078740157477 I I #
point $-1 -1 $-1 0.21875740111582287 -0.23203642569316082 0.034999999999999989 #
edge $-1 -1 $-1 $653 5.5511151231257827e-017 $676 0.40275451087616704 $640 $695 forward @7 unknown #
straight-curve $-1 -1 $-1 0.2471436341272216 -0.2812028235043923 0.034999999999999948 -0.19685039370078755 0.3409548833797002 0 I I #
straight-curve $-1 -1 $-1 -0.11952366641263699 0.3751191852836917 0.62499999999999989 0 0 -0.39370078740157477 I I #
coedge $-1 -1 $-1 $644 $643 $689 $696 reversed $645 $-1 #
vertex $-1 -1 $-1 $657 $697 #
straight-curve $-1 -1 $-1 -0.11995697170710484 -0.35463407728997681 0.034999999999999948 0.19685039370078733 0.34095488337970031 0 I I #
vertex $-1 -1 $-1 $661 $698 #
straight-curve $-1 -1 $-1 -0.033104704243129952 -0.20420153728981102 0.62499999999999989 -0.19685039370078733 -0.34095488337970031 0 I I #
straight-curve $-1 -1 $-1 0.11952366641263695 -0.3751191852836917 0.62499999999999989 0 0 -0.39370078740157477 I I #
point $-1 -1 $-1 0.11952366641263695 -0.3751191852836917 0.034999999999999989 #
coedge $-1 -1 $-1 $656 $660 $682 $696 forward $662 $-1 #
ellipse-curve $-1 -1 $-1 0 0 0.034999999999999989 0 0 1 -0.26510091069628039 -0.29107012410864636 0 1 I I #
ellipse-curve $-1 -1 $-1 0 0 0.62499999999999989 0 0 -1 -0.26510091069628039 -0.29107012410864636 0 1 I I #
plane-surface $-1 -1 $-1 -0.12980273969631825 -0.37168744768682982 0.62499999999999989 0.86602540378443882 -0.49999999999999989 0 0 0 0.39370078740157477 forward_v I I I I #
straight-curve $-1 -1 $-1 -0.38679214181275329 -0.073431253785584544 0.62499999999999989 0 0 -0.39370078740157477 I I #
point $-1 -1 $-1 0.25698940211643506 -0.2982561939012453 0.034999999999999989 #
ellipse-curve $-1 -1 $-1 0 0 0.034999999999999989 0 0 1 0.11952366641263697 -0.37511918528369176 0 1 I I #
edge $-1 -1 $-1 $685 0 $683 1.4985999999999999 $682 $699 forward @7 unknown #
point $-1 -1 $-1 -0.12980273969631825 -0.37168744768682982 0.034999999999999989 #
point $-1 -1 $-1 -0.12980273969631825 -0.37168744768682982 0.62499999999999989 #
straight-curve $-1 -1 $-1 -0.12980273969631825 -0.37168744768682982 0.62499999999999989 0 0 -0.39370078740157477 I I #
End-of-ACIS-data 