400 0 1 0           
7 Unknown 11 ACIS 6.0 NT 24 Sun Jan 27 14:08:22 2002 
25.399999999999999 9.9999999999999995e-007 1e-010 
body $-1 $1 $-1 $-1 #
lump $-1 $-1 $2 $0 #
shell $-1 $-1 $-1 $3 $-1 $1 #
face $-1 $4 $5 $2 $-1 $6 forward single #
face $-1 $7 $8 $2 $-1 $9 forward single #
loop $-1 $-1 $10 $3 #
cone-surface $-1 0.2142499020681482 -0.038664526370592076 0.062499999999999993 0 1 0 0.044194173824159216 0 -0.044194173824159223 1 I I 0 1 0.062499999999999993 forward I I I I #
face $-1 $11 $12 $2 $-1 $13 forward single #
loop $-1 $-1 $14 $4 #
plane-surface $-1 0.27674990206814815 -0.13366452637059206 0 1 0 0 0 0 -0.39370078740157477 forward_v I I I I #
coedge $-1 $15 $16 $17 $18 forward $5 $-1 #
face $-1 $19 $20 $2 $-1 $21 forward single #
loop $-1 $22 $23 $7 #
plane-surface $-1 -0.66325009793185163 -0.13366452637059206 0 0 1 0 0 0 0.39370078740157477 forward_v I I I I #
coedge $-1 $24 $25 $16 $26 reversed $8 $-1 #
coedge $-1 $27 $10 $28 $29 forward $5 $-1 #
coedge $-1 $10 $27 $14 $26 forward $5 $-1 #
coedge $-1 $30 $31 $10 $18 reversed $32 $-1 #
edge $-1 $33 $34 $17 $35 forward #
face $-1 $36 $32 $2 $-1 $37 forward single #
loop $-1 $-1 $38 $11 #
cone-surface $-1 0.2142499020681482 -0.038664526370592076 0.6875 0 -1 0 0.044194173824159223 0 0.044194173824159223 1 I I 0 1 0.0625 forward I I I I #
loop $-1 $-1 $39 $7 #
coedge $-1 $23 $23 $40 $41 forward $12 $-1 #
coedge $-1 $42 $14 $43 $44 forward $8 $-1 #
coedge $-1 $14 $42 $30 $45 reversed $8 $-1 #
edge $-1 $46 $33 $14 $47 forward #
coedge $-1 $16 $15 $39 $48 forward $5 $-1 #
coedge $-1 $49 $50 $15 $29 reversed $51 $-1 #
edge $-1 $34 $52 $28 $53 forward #
coedge $-1 $54 $17 $25 $45 forward $32 $-1 #
coedge $-1 $17 $55 $49 $56 forward $32 $-1 #
loop $-1 $57 $17 $19 #
vertex $-1 $45 $58 #
vertex $-1 $29 $59 #
ellipse-curve $-1 0.2142499020681482 -0.31866452637059206 0.062499999999999993 0 1 0 0.044194173824159216 0 -0.044194173824159223 1 I I #
face $-1 $60 $61 $2 $-1 $62 forward single #
plane-surface $-1 0.27674990206814815 -0.31866452637059206 0 0 -1 0 0 0 -0.39370078740157477 forward_v I I I I #
coedge $-1 $63 $64 $54 $65 forward $20 $-1 #
coedge $-1 $66 $43 $27 $48 reversed $22 $-1 #
coedge $-1 $40 $40 $23 $41 reversed $67 $-1 #
edge $-1 $68 $68 $23 $69 forward #
coedge $-1 $25 $24 $63 $70 reversed $8 $-1 #
coedge $-1 $39 $71 $24 $44 reversed $22 $-1 #
edge $-1 $46 $72 $24 $73 forward #
edge $-1 $33 $74 $30 $75 forward #
vertex $-1 $44 $76 #
straight-curve $-1 0.27674990206814815 -0.038664526370592076 0.062499999999999993 0 -0.39370078740157477 0 F -1.3684259999999999 F 1.2033260000000001 #
edge $-1 $52 $46 $39 $77 forward #
coedge $-1 $78 $28 $31 $56 reversed $51 $-1 #
coedge $-1 $28 $79 $66 $80 reversed $51 $-1 #
loop $-1 $-1 $28 $81 #
vertex $-1 $80 $82 #
straight-curve $-1 0.2142499020681482 -0.038664526370592076 0 0 0.39370078740157477 0 F -1.2033260000000001 F 1.3684259999999999 #
coedge $-1 $83 $30 $38 $65 reversed $32 $-1 #
coedge $-1 $31 $83 $84 $85 reversed $32 $-1 #
edge $86 $87 $34 $31 $88 forward #
loop $-1 $-1 $89 $19 #
point $-1 0.27674990206814815 -0.31866452637059206 0.062499999999999993 #
point $-1 0.21424990206814812 -0.31866452637059206 0 #
face $-1 $90 $91 $2 $-1 $92 forward single #
loop $-1 $-1 $93 $36 #
plane-surface $-1 -0.51680039378983988 0.056335473629407919 0.75 0 0 1 0.39370078740157477 0 0 forward_v I I I I #
coedge $-1 $94 $38 $42 $70 forward $20 $-1 #
coedge $-1 $38 $94 $93 $95 forward $20 $-1 #
edge $-1 $96 $74 $54 $97 forward #
coedge $-1 $98 $39 $50 $80 forward $22 $-1 #
loop $-1 $-1 $40 $99 #
vertex $-1 $41 $100 #
ellipse-curve $-1 -0.10325009793185165 -0.13366452637059217 0.37499999999999994 0 -1 0 0.1875 0 0 1 I I #
edge $-1 $74 $72 $42 $101 forward #
coedge $-1 $43 $102 $94 $103 reversed $22 $-1 #
vertex $-1 $103 $104 #
straight-curve $-1 0.27674990206814815 -0.13366452637059206 0 0 0 0.39370078740157477 I I #
vertex $-1 $65 $105 #
straight-curve $-1 0.27674990206814815 -0.31866452637059206 0 0 0 0.39370078740157477 I I #
point $-1 0.27674990206814815 -0.13366452637059206 0.062499999999999993 #
ellipse-curve $-1 0.2142499020681482 -0.13366452637059206 0.062499999999999993 0 -1 0 0.044194173824159216 0 -0.044194173824159223 1 I I #
coedge $-1 $106 $49 $107 $108 reversed $51 $-1 #
coedge $-1 $50 $109 $110 $111 reversed $51 $-1 #
edge $-1 $52 $112 $66 $113 forward #
face $-1 $-1 $51 $2 $-1 $114 reversed single #
point $-1 0.2142499020681482 -0.13366452637059206 0 #
coedge $-1 $55 $54 $115 $116 forward $32 $-1 #
coedge $-1 $117 $107 $55 $85 forward $118 $-1 #
edge $-1 $87 $119 $84 $120 forward #
convexity-sys-attrib $-1 $-1 $-1 $56 #
vertex $-1 $108 $121 #
straight-curve $-1 -1.4132500979318516 -0.31866452637059206 0 0.39370078740157477 0 0 F 0 F 4.2926000000000002 #
coedge $-1 $89 $89 $122 $123 forward $57 $-1 #
face $-1 $124 $125 $2 $-1 $126 forward single #
loop $-1 $-1 $127 $60 #
cone-surface $-1 0.21424990206814837 0.24383547362940794 0.062499999999999993 0 1 0 0.044194173824159216 0 -0.044194173824159223 1 I I 0 1 0.062499999999999993 forward I I I I #
coedge $-1 $128 $115 $64 $95 reversed $61 $-1 #
coedge $-1 $64 $63 $71 $103 forward $20 $-1 #
edge $-1 $129 $96 $93 $130 forward #
vertex $-1 $116 $131 #
ellipse-curve $-1 0.2142499020681482 -0.31866452637059206 0.6875 0 1 0 0.044194173824159223 0 0.044194173824159223 1 I I #
coedge $-1 $132 $66 $133 $134 forward $22 $-1 #
face $-1 $135 $136 $2 $-1 $137 reversed single #
point $-1 -0.29075009793185164 -0.13366452637059217 0.37499999999999994 #
straight-curve $-1 0.27674990206814815 -0.038664526370592076 0.6875 0 0.39370078740157477 0 F -1.2033260000000001 F 1.3684259999999999 #
coedge $-1 $71 $138 $128 $139 forward $22 $-1 #
edge $-1 $72 $129 $71 $140 forward #
point $-1 0.27674990206814815 -0.13366452637059206 0.6875 #
point $-1 0.27674990206814815 -0.31866452637059206 0.6875 #
coedge $-1 $141 $78 $142 $143 reversed $51 $-1 #
coedge $-1 $84 $144 $78 $108 forward $118 $-1 #
edge $-1 $145 $87 $107 $146 forward #
coedge $-1 $79 $141 $147 $148 reversed $51 $-1 #
coedge $-1 $149 $133 $79 $111 forward $150 $-1 #
edge $-1 $112 $151 $110 $152 forward #
vertex $-1 $80 $153 #
straight-curve $-1 0.27674990206814826 -0.13366452637059206 0 -0.39370078740157477 0 0 F 0 F 2.3875999999999999 #
plane-surface $-1 -0.51680039378984 0.056335473629407933 0 0 0 1 0.39370078740157477 0 0 forward_v I I I I #
coedge $-1 $93 $154 $83 $116 reversed $61 $-1 #
edge $-1 $96 $119 $83 $155 forward #
coedge $-1 $144 $84 $154 $156 forward $118 $-1 #
loop $-1 $-1 $117 $157 #
vertex $-1 $85 $158 #
straight-curve $-1 -1.4132500979318516 -0.31866452637059206 0 0 0 0.39370078740157477 I I #
point $-1 -1.4132500979318516 -0.31866452637059206 0 #
coedge $-1 $122 $122 $89 $123 reversed $136 $-1 #
edge $-1 $159 $159 $89 $160 forward #
face $-1 $161 $162 $2 $-1 $163 forward single #
loop $-1 $-1 $164 $90 #
plane-surface $-1 0.27674990206814837 0.43133547362940788 0 1 0 0 0 0 -0.39370078740157477 forward_v I I I I #
coedge $-1 $165 $166 $167 $168 forward $91 $-1 #
coedge $-1 $169 $93 $102 $139 reversed $61 $-1 #
vertex $-1 $95 $170 #
straight-curve $-1 0.2142499020681482 -0.038664526370592076 0.75 0 -0.39370078740157477 0 F -1.3684259999999999 F 1.2033260000000001 #
point $-1 0.21424990206814812 -0.31866452637059206 0.75 #
coedge $-1 $138 $98 $171 $172 forward $22 $-1 #
coedge $-1 $110 $173 $98 $134 reversed $150 $-1 #
edge $-1 $112 $174 $98 $175 forward #
face $-1 $176 $177 $2 $-1 $137 reversed single #
loop $-1 $67 $122 $99 #
cone-surface $-1 -0.10325009793185165 -1.5639339317392003 0.37499999999999994 0 1 0 0.1875 0 0 1 I I 0 1 0.1875 reversed I I I I #
coedge $-1 $102 $132 $178 $179 forward $22 $-1 #
edge $180 $181 $129 $102 $182 forward #
ellipse-curve $-1 0.2142499020681482 -0.13366452637059206 0.6875 0 -1 0 0.044194173824159223 0 0.044194173824159223 1 I I #
coedge $-1 $109 $106 $166 $183 reversed $51 $-1 #
coedge $-1 $184 $167 $106 $143 forward $185 $-1 #
edge $-1 $186 $145 $142 $187 forward #
coedge $-1 $107 $117 $184 $188 reversed $118 $-1 #
vertex $-1 $108 $189 #
straight-curve $-1 -1.4132500979318516 0.43133547362940788 0 0 -0.39370078740157477 0 F 0 F 1.905 #
coedge $-1 $190 $191 $109 $148 forward $192 $-1 #
edge $193 $151 $194 $147 $195 forward #
coedge $-1 $173 $110 $191 $196 forward $150 $-1 #
loop $-1 $-1 $173 $197 #
vertex $-1 $111 $198 #
straight-curve $-1 -0.66325009793185163 -0.13366452637059206 0 0 0.39370078740157477 0 F 0 F 0.96520000000000006 #
point $-1 -0.66325009793185163 -0.13366452637059206 0 #
coedge $-1 $115 $199 $117 $156 reversed $61 $-1 #
straight-curve $-1 -1.4132500979318516 -0.31866452637059206 0.75 -0.39370078740157477 0 0 F -4.2926000000000002 F 0 #
edge $-1 $119 $200 $117 $201 forward #
face $-1 $81 $202 $2 $-1 $203 forward single #
point $-1 -1.4132500979318516 -0.31866452637059206 0.75 #
vertex $-1 $123 $204 #
ellipse-curve $-1 -0.10325009793185165 -0.31866452637059212 0.37499999999999994 0 1 0 0.1875 0 0 1 I I #
face $-1 $205 $206 $2 $-1 $207 forward single #
loop $-1 $185 $208 $124 #
plane-surface $-1 -1.4132500979318516 0.43133547362940788 0 0 1 0 0 0 0.39370078740157477 forward_v I I I I #
coedge $-1 $209 $210 $165 $211 reversed $125 $-1 #
coedge $-1 $212 $127 $164 $211 forward $91 $-1 #
coedge $-1 $127 $212 $141 $183 forward $91 $-1 #
coedge $-1 $142 $213 $127 $168 reversed $185 $-1 #
edge $-1 $186 $214 $167 $215 forward #
coedge $-1 $216 $128 $217 $218 reversed $61 $-1 #
point $-1 0.2142499020681482 -0.13366452637059206 0.75 #
coedge $-1 $219 $219 $132 $172 reversed $220 $-1 #
edge $-1 $174 $221 $132 $222 forward #
coedge $-1 $133 $149 $223 $224 forward $150 $-1 #
vertex $-1 $172 $225 #
straight-curve $-1 -0.66325009793185163 -0.13366452637059206 0 0 0 0.39370078740157477 I I #
face $-1 $157 $192 $2 $-1 $226 forward single #
loop $-1 $227 $228 $135 #
coedge $-1 $229 $217 $138 $179 reversed $230 $-1 #
edge $-1 $221 $181 $138 $175 forward #
convexity-sys-attrib $-1 $-1 $-1 $139 #
vertex $-1 $179 $231 #
straight-curve $-1 0.27674990206814826 -0.13366452637059206 0.75 0.39370078740157477 0 0 F -2.3875999999999999 F 0 #
edge $-1 $194 $186 $141 $232 forward #
coedge $-1 $233 $142 $144 $188 forward $185 $-1 #
loop $-1 $-1 $167 $124 #
vertex $-1 $143 $234 #
straight-curve $-1 0.27674990206814826 0.43133547362940788 0 -0.39370078740157477 0 0 F 0 F 4.2926000000000002 #
edge $-1 $145 $200 $184 $235 forward #
point $-1 -1.4132500979318516 0.43133547362940788 0 #
coedge $-1 $236 $147 $212 $237 reversed $192 $-1 #
coedge $-1 $147 $238 $149 $196 reversed $192 $-1 #
loop $-1 $239 $190 $176 #
convexity-sys-attrib $-1 $-1 $-1 $148 #
vertex $-1 $183 $240 #
straight-curve $-1 -0.66325009793185152 0.24633547362940791 0 0.39370078740157477 0 0 F 0 F 2.3875999999999999 #
edge $-1 $151 $241 $149 $242 forward #
face $-1 $99 $150 $2 $-1 $243 forward single #
point $-1 -0.66325009793185163 0.24633547362940791 0 #
coedge $-1 $154 $244 $233 $245 reversed $61 $-1 #
vertex $-1 $188 $246 #
straight-curve $-1 -1.4132500979318516 0.43133547362940788 0.75 0 0.39370078740157477 0 F -1.905 F 0 #
loop $-1 $118 $247 $157 #
plane-surface $-1 -1.4132500979318516 -0.31866452637059206 0 -1 0 0 0 0 0.39370078740157477 forward_v I I I I #
point $-1 -0.29075009793185164 -0.31866452637059212 0.37499999999999994 #
face $-1 $248 $220 $2 $-1 $249 reversed single #
loop $-1 $-1 $250 $161 #
cone-surface $-1 0.21424990206814837 0.24383547362940788 0.6875 0 -1 0 0.044194173824159223 0 0.044194173824159223 1 I I 0 1 0.0625 forward I I I I #
coedge $-1 $208 $208 $251 $252 forward $162 $-1 #
coedge $-1 $253 $164 $213 $254 forward $125 $-1 #
coedge $-1 $164 $253 $236 $255 reversed $125 $-1 #
edge $-1 $214 $256 $164 $257 forward #
coedge $-1 $166 $165 $190 $237 forward $91 $-1 #
coedge $-1 $167 $258 $209 $254 reversed $185 $-1 #
vertex $-1 $254 $259 #
ellipse-curve $-1 0.21424990206814837 0.43133547362940788 0.062499999999999993 0 -1 0 0.044194173824159216 0 -0.044194173824159223 1 I I #
coedge $-1 $244 $169 $260 $261 reversed $61 $-1 #
coedge $-1 $178 $262 $169 $218 forward $230 $-1 #
edge $-1 $263 $181 $217 $264 forward #
coedge $-1 $171 $171 $265 $266 forward $220 $-1 #
loop $-1 $-1 $171 $205 #
vertex $-1 $179 $267 #
intcurve-curve $-1 forward { exactcur nurbs 2 open 2 
	0 2 0.12160869867158935 2 
	-0.66325009793185163 -0.13366452637059206 0.35107825257219 1 
	-0.66145457579483602 -0.13366452637059206 0.37499999999999994 1.0078947368420943 
	-0.66325009793185163 -0.13366452637059206 0.39892174742780984 1 
	0 
	null_surface 
	null_surface 
	nullbs 
	nullbs 
	I I 
	0 
	0 
	0 
	F 1 F 0 } I I #
coedge $-1 $268 $265 $173 $224 reversed $269 $-1 #
edge $-1 $241 $174 $173 $270 forward #
point $-1 -0.66325009793185163 -0.13366452637059206 0.35107825257219 #
plane-surface $-1 0.27674990206814837 0.24633547362940791 0 0 -1 0 0 0 -0.39370078740157477 forward_v I I I I #
loop $-1 $-1 $251 $135 #
coedge $-1 $228 $228 $271 $272 reversed $177 $-1 #
coedge $-1 $262 $178 $273 $274 forward $230 $-1 #
loop $-1 $-1 $229 $275 #
point $-1 -0.66325009793185163 -0.13366452637059206 0.75 #
straight-curve $-1 0.21424990206814837 0.24383547362940794 0 0 0.39370078740157477 0 F -1.6033760000000001 F 0.96837599999999979 #
coedge $-1 $258 $184 $199 $245 forward $185 $-1 #
point $-1 0.21424990206814837 0.43133547362940788 0 #
straight-curve $-1 -1.4132500979318516 0.43133547362940788 0 0 0 0.39370078740157477 I I #
coedge $-1 $276 $190 $210 $255 forward $192 $-1 #
edge $-1 $256 $194 $190 $277 forward #
coedge $-1 $191 $278 $279 $280 forward $192 $-1 #
loop $-1 $-1 $271 $176 #
point $-1 0.21424990206814837 0.24633547362940791 0 #
vertex $-1 $224 $281 #
straight-curve $-1 -0.66325009793185163 0.24633547362940791 0 0 0 0.39370078740157477 I I #
plane-surface $-1 -0.66325009793185163 0.24633547362940791 0 1 0 0 0 0 -0.39370078740157477 forward_v I I I I #
coedge $-1 $199 $216 $282 $283 reversed $61 $-1 #
edge $284 $200 $285 $233 $286 forward #
point $-1 -1.4132500979318516 0.43133547362940788 0.75 #
coedge $-1 $247 $247 $287 $288 forward $202 $-1 #
face $-1 $289 $290 $2 $-1 $249 reversed single #
cone-surface $-1 -0.60571769365996286 0.056335473629407919 0.37499999999999994 -1 0 0 0 0 0.095749999999999988 1 I I 0.85716730070211233 0.51503807491005416 0.095749999999999988 reversed I I I I #
coedge $-1 $282 $291 $258 $292 forward $206 $-1 #
coedge $-1 $251 $251 $208 $252 reversed $227 $-1 #
edge $-1 $293 $293 $208 $294 forward #
coedge $-1 $210 $209 $291 $295 reversed $125 $-1 #
edge $-1 $214 $296 $209 $297 forward #
edge $-1 $256 $298 $236 $299 forward #
vertex $-1 $255 $300 #
straight-curve $-1 0.27674990206814837 0.24383547362940794 0.062499999999999993 0 -0.39370078740157477 0 F -0.96837599999999979 F 1.6033760000000001 #
coedge $-1 $213 $233 $250 $292 reversed $185 $-1 #
point $-1 0.27674990206814837 0.43133547362940788 0.062499999999999993 #
coedge $-1 $278 $276 $216 $261 forward $192 $-1 #
edge $-1 $301 $263 $260 $302 forward #
coedge $-1 $217 $229 $278 $303 forward $230 $-1 #
vertex $-1 $303 $304 #
straight-curve $-1 -0.66325009793185163 -0.13366452637059206 0.75 0 -0.39370078740157477 0 F -0.96520000000000006 F 0 #
coedge $-1 $223 $273 $219 $266 reversed $269 $-1 #
edge $-1 $174 $221 $265 $305 forward #
point $-1 -0.66325009793185163 -0.13366452637059206 0.39892174742780984 #
coedge $-1 $273 $223 $306 $307 reversed $269 $-1 #
loop $-1 $-1 $273 $289 #
ellipse-curve $-1 -0.66325009793185163 0.056335473629407919 0.37499999999999994 -1 0 0 0 0 0.19149999999999981 1 I I #
coedge $-1 $271 $271 $228 $272 forward $239 $-1 #
edge $-1 $308 $308 $271 $309 forward #
coedge $-1 $265 $268 $229 $274 reversed $269 $-1 #
edge $-1 $221 $310 $229 $270 forward #
face $-1 $197 $230 $2 $-1 $243 forward single #
coedge $-1 $260 $236 $311 $312 reversed $192 $-1 #
ellipse-curve $-1 0.21424990206814837 0.24633547362940791 0.062499999999999993 0 1 0 0.044194173824159216 0 -0.044194173824159223 1 I I #
coedge $-1 $238 $260 $262 $303 reversed $192 $-1 #
coedge $-1 $306 $306 $238 $280 reversed $290 $-1 #
edge $-1 $310 $241 $238 $313 forward #
point $-1 -0.66325009793185175 0.24633547362940791 0.35107825257218855 #
coedge $-1 $311 $250 $244 $283 forward $206 $-1 #
edge $-1 $285 $301 $244 $314 forward #
convexity-sys-attrib $-1 $-1 $-1 $245 #
vertex $-1 $292 $315 #
straight-curve $-1 0.27674990206814826 0.43133547362940788 0.75 0.39370078740157477 0 0 F -4.2926000000000002 F 0 #
coedge $-1 $287 $287 $247 $288 reversed $316 $-1 #
edge $-1 $317 $317 $247 $318 forward #
face $-1 $275 $316 $2 $-1 $319 reversed single #
loop $-1 $-1 $279 $248 #
coedge $-1 $250 $311 $253 $295 forward $206 $-1 #
edge $-1 $296 $285 $258 $320 forward #
vertex $-1 $252 $321 #
ellipse-curve $-1 -0.10325009793185165 0.43133547362940788 0.37499999999999994 0 -1 0 0.1875 0 0 1 I I #
edge $-1 $298 $296 $253 $322 forward #
vertex $-1 $292 $323 #
straight-curve $-1 0.27674990206814837 0.43133547362940788 0 0 0 0.39370078740157477 I I #
vertex $-1 $295 $324 #
straight-curve $-1 0.27674990206814837 0.24633547362940791 0 0 0 0.39370078740157477 I I #
point $-1 0.27674990206814837 0.24633547362940791 0.062499999999999993 #
vertex $-1 $261 $325 #
straight-curve $-1 -0.66325009793185152 0.24633547362940791 0.75 -0.39370078740157477 0 0 F -2.3875999999999999 F 0 #
edge $-1 $310 $263 $262 $242 forward #
point $-1 -0.66325009793185163 0.24633547362940791 0.75 #
ellipse-curve $-1 -0.66325009793185175 0.056335473629407919 0.37499999999999994 -1 0 0 0 0 0.19149999999999998 1 I I #
coedge $-1 $279 $279 $268 $307 forward $290 $-1 #
edge $-1 $310 $241 $268 $305 forward #
vertex $-1 $272 $326 #
ellipse-curve $-1 -0.10325009793185165 0.24633547362940791 0.37499999999999994 0 1 0 0.1875 0 0 1 I I #
vertex $-1 $303 $327 #
coedge $-1 $291 $282 $276 $312 forward $206 $-1 #
edge $-1 $301 $298 $276 $328 forward #
intcurve-curve $-1 forward { exactcur nurbs 2 open 2 
	0 2 0.12160869867158935 2 
	-0.66325009793185163 0.24633547362940791 0.39892174742780984 1 
	-0.66145457579483602 0.24633547362940791 0.37499999999999994 1.0078947368420943 
	-0.66325009793185163 0.24633547362940791 0.35107825257219 1 
	0 
	null_surface 
	null_surface 
	nullbs 
	nullbs 
	I I 
	0 
	0 
	0 
	F 1 F 0 } I I #
straight-curve $-1 0.21424990206814837 0.24383547362940788 0.75 0 -0.39370078740157477 0 F -0.9683759999999999 F 1.6033759999999999 #
point $-1 0.21424990206814837 0.43133547362940788 0.75 #
loop $-1 $269 $287 $289 #
vertex $-1 $288 $329 #
ellipse-curve $-1 -1.4132500979318516 0.056335473629407919 0.37499999999999994 1 0 0 0 0 0.19149999999999998 1 I I #
cone-surface $-1 -1.0382500979318516 0.056335473629407919 0.37499999999999994 -1 0 0 0 0 0.19149999999999998 1 I I 0 1 0.19149999999999998 reversed I I I I #
ellipse-curve $-1 0.21424990206814837 0.43133547362940788 0.6875 0 -1 0 0.044194173824159223 0 0.044194173824159223 1 I I #
point $-1 0.08424990206814828 0.43133547362940788 0.37499999999999994 #
straight-curve $-1 0.27674990206814837 0.24383547362940788 0.6875 0 0.39370078740157477 0 F -1.6033759999999999 F 0.9683759999999999 #
point $-1 0.27674990206814837 0.43133547362940788 0.6875 #
point $-1 0.27674990206814837 0.24633547362940791 0.6875 #
point $-1 0.21424990206814837 0.24633547362940791 0.75 #
point $-1 -0.29075009793185164 0.24633547362940791 0.37499999999999994 #
point $-1 -0.66325009793185175 0.24633547362940791 0.39892174742781122 #
ellipse-curve $-1 0.21424990206814837 0.24633547362940791 0.6875 0 1 0 0.044194173824159223 0 0.044194173824159223 1 I I #
point $-1 -1.4132500979318516 0.056335473629407919 0.56649999999999989 #
End-of-ACIS-data 