400 0 1 0           
8 Inventor 11 ACIS 6.0 NT 24 Fri Jan 16 19:01:44 2004 
25.399999999999999 9.9999999999999995e-007 1e-010 
body $-1 $1 $-1 $-1 #
lump $-1 $-1 $2 $0 #
shell $-1 $-1 $-1 $3 $-1 $1 #
face $-1 $4 $5 $2 $-1 $6 reversed single #
face $-1 $7 $8 $2 $-1 $9 reversed single #
loop $-1 $-1 $10 $3 #
plane-surface $-1 -0.29810600044279545 0.093750000000000042 1.2598425196850394 2.0208965859223337e-016 1 0 0 0 0.39370078740157477 forward_v I I I I #
face $-1 $11 $12 $2 $-1 $13 reversed single #
loop $-1 $-1 $14 $4 #
plane-surface $-1 -0.40625 0.093750000000000069 1.2598425196850394 -1 0 0 0 0 0.39370078740157477 forward_v I I I I #
coedge $-1 $15 $16 $17 $18 reversed $5 $-1 #
face $-1 $19 $20 $2 $-1 $21 forward single #
loop $-1 $-1 $22 $7 #
plane-surface $-1 -0.40625 -0.093749999999999944 1.2598425196850394 0 -1 0 0 0 -0.39370078740157477 forward_v I I I I #
coedge $-1 $23 $24 $25 $26 reversed $8 $-1 #
coedge $-1 $27 $10 $28 $29 reversed $5 $-1 #
coedge $-1 $10 $27 $23 $30 forward $5 $-1 #
coedge $-1 $25 $31 $10 $18 forward $20 $-1 #
edge $-1 $32 $33 $10 $34 forward #
face $-1 $35 $36 $2 $-1 $37 reversed single #
loop $-1 $-1 $17 $11 #
plane-surface $-1 -0.35467474031596113 5.4636959873285258e-017 0.50984251968503924 -2.2158603937693464e-031 -1.2958415594006775e-031 1 0.39370078740157477 0 8.7238598179895522e-032 forward_v I I I I #
coedge $-1 $38 $39 $40 $41 reversed $12 $-1 #
coedge $-1 $42 $14 $16 $30 reversed $8 $-1 #
coedge $-1 $14 $42 $38 $43 forward $8 $-1 #
coedge $-1 $40 $17 $14 $26 forward $20 $-1 #
edge $-1 $33 $44 $14 $45 forward #
coedge $-1 $16 $15 $46 $47 reversed $5 $-1 #
coedge $-1 $48 $49 $15 $29 forward $50 $-1 #
edge $-1 $51 $32 $28 $52 forward #
edge $-1 $53 $33 $23 $54 forward #
coedge $-1 $17 $40 $48 $55 reversed $20 $-1 #
vertex $-1 $29 $56 #
vertex $-1 $30 $57 #
straight-curve $-1 -0.29810600044279545 0.093750000000000042 0.50984251968503935 -0.39370078740157477 7.9562857713477701e-017 0 F 0 F 0.27468575887529956 #
face $-1 $58 $59 $2 $-1 $60 reversed single #
loop $-1 $50 $61 $19 #
cone-surface $-1 0 0 0.75984251968503935 0 0 1 0.31249999999999994 0 0 1 I I 0 1 0.31249999999999994 reversed I I I I #
coedge $-1 $62 $22 $24 $43 reversed $12 $-1 #
coedge $-1 $22 $62 $63 $64 reversed $12 $-1 #
coedge $-1 $31 $25 $22 $41 forward $20 $-1 #
edge $-1 $44 $65 $22 $66 forward #
coedge $-1 $24 $23 $67 $68 reversed $8 $-1 #
edge $-1 $69 $44 $38 $70 forward #
vertex $-1 $43 $71 #
straight-curve $-1 -0.40625 0.093750000000000069 0.50984251968503935 0 -0.39370078740157477 0 F 0 F 0.47625000000000006 #
coedge $-1 $72 $67 $27 $47 forward $73 $-1 #
edge $-1 $53 $51 $46 $74 forward #
coedge $-1 $63 $28 $31 $55 forward $50 $-1 #
coedge $-1 $28 $63 $72 $75 reversed $50 $-1 #
loop $-1 $-1 $28 $19 #
vertex $-1 $75 $76 #
straight-curve $-1 -0.29810600044279545 0.093750000000000042 0.75984251968503946 0 0 -0.39370078740157477 I I #
vertex $-1 $47 $77 #
straight-curve $-1 -0.40625 0.093750000000000069 1.2598425196850394 0 0 -0.39370078740157477 I I #
edge $-1 $32 $65 $48 $78 forward #
point $-1 -0.29810600044279545 0.093750000000000042 0.50984251968503924 #
point $-1 -0.40625 0.093750000000000069 0.50984251968503924 #
face $-1 $79 $80 $2 $-1 $81 forward single #
loop $-1 $-1 $82 $35 #
plane-surface $-1 0 0 0.25984251968503941 0 0 -1 0.39370078740157477 0 0 reverse_v I I I I #
coedge $-1 $61 $61 $82 $83 reversed $36 $-1 #
coedge $-1 $39 $38 $84 $85 reversed $12 $-1 #
coedge $-1 $49 $48 $39 $64 forward $50 $-1 #
edge $-1 $65 $86 $63 $87 forward #
vertex $-1 $64 $88 #
straight-curve $-1 -0.40625 -0.093749999999999944 0.50984251968503935 0.39370078740157477 0 0 F 0 F 0.27468575887529956 #
coedge $-1 $46 $84 $42 $68 forward $73 $-1 #
edge $-1 $69 $53 $67 $89 forward #
vertex $-1 $68 $90 #
straight-curve $-1 -0.40625 -0.093749999999999944 1.2598425196850394 0 0 -0.39370078740157477 I I #
point $-1 -0.40625 -0.093749999999999944 0.50984251968503924 #
coedge $-1 $84 $46 $49 $75 forward $73 $-1 #
loop $-1 $91 $46 $92 #
straight-curve $-1 -0.14905300022139775 0.093750000000000014 1.2598425196850394 0.39370078740157477 -7.9562857713477701e-017 0 I I #
edge $-1 $51 $86 $72 $93 forward #
point $-1 -0.29810600044279545 0.093750000000000042 1.2598425196850394 #
point $-1 -0.40625 0.093750000000000069 1.2598425196850394 #
ellipse-curve $-1 0 0 0.50984251968503924 -2.2158603937693464e-031 -1.2958415594006775e-031 1 0.31249999999999994 0 0 1 I I #
face $-1 $94 $95 $2 $-1 $96 forward single #
loop $-1 $-1 $97 $58 #
plane-surface $-1 0.28867513459481281 -0.5 0 -1.5141438475461133e-016 -1 0 0 0 -0.39370078740157477 forward_v I I I I #
coedge $-1 $82 $82 $61 $83 forward $59 $-1 #
edge $-1 $98 $98 $82 $99 forward #
coedge $-1 $67 $72 $62 $85 forward $73 $-1 #
edge $-1 $86 $69 $84 $100 forward #
vertex $-1 $64 $101 #
straight-curve $-1 -0.2981060004427955 -0.093749999999999944 0.75984251968503946 0 0 0.39370078740157477 I I #
point $-1 -0.29810600044279545 -0.093749999999999944 0.50984251968503924 #
straight-curve $-1 -0.40625 0.046875000000000021 1.2598425196850394 0 0.39370078740157477 0 I I #
point $-1 -0.40625 -0.093749999999999944 1.2598425196850394 #
loop $-1 $-1 $102 $92 #
face $-1 $103 $73 $2 $-1 $104 forward single #
ellipse-curve $-1 0 0 1.2598425196850394 0 0 -1 0.31249999999999994 0 0 1 I I #
face $-1 $105 $106 $2 $-1 $107 forward single #
loop $-1 $-1 $108 $79 #
plane-surface $-1 -0.28867513459481303 -0.49999999999999994 0 -0.86602540378443882 -0.49999999999999983 0 0 0 0.39370078740157477 forward_v I I I I #
coedge $-1 $109 $110 $102 $111 forward $80 $-1 #
vertex $-1 $83 $112 #
ellipse-curve $-1 0 0 0.25984251968503941 0 0 1 0.31249999999999994 0 0 1 I I #
straight-curve $-1 -0.20312500000000006 -0.093749999999999944 1.2598425196850394 -0.39370078740157477 0 0 I I #
point $-1 -0.29810600044279545 -0.093749999999999944 1.2598425196850394 #
coedge $-1 $113 $114 $97 $111 reversed $91 $-1 #
face $-1 $-1 $115 $2 $-1 $116 reversed single #
plane-surface $-1 -4.8676564250745045e-017 -3.2782175923971155e-017 1.2598425196850394 0 0 1 0.39370078740157477 0 0 forward_v I I I I #
face $-1 $117 $118 $2 $-1 $119 forward single #
loop $-1 $-1 $120 $94 #
plane-surface $-1 -0.57735026918962573 8.4687287803592155e-017 0 -0.86602540378443871 0.50000000000000011 0 0 0 0.39370078740157477 forward_v I I I I #
coedge $-1 $121 $122 $114 $123 forward $95 $-1 #
coedge $-1 $124 $97 $122 $125 reversed $80 $-1 #
coedge $-1 $97 $124 $126 $127 forward $80 $-1 #
edge $-1 $128 $129 $97 $130 forward #
point $-1 0.31249999999999994 0 0.25984251968503941 #
coedge $-1 $131 $102 $132 $133 reversed $91 $-1 #
coedge $-1 $102 $134 $108 $123 reversed $91 $-1 #
loop $-1 $-1 $135 $103 #
plane-surface $-1 -4.3709567898628207e-017 -3.2782175923971155e-017 0 0 0 1 0.39370078740157477 0 0 forward_v I I I I #
face $-1 $136 $137 $2 $-1 $138 forward single #
loop $-1 $-1 $139 $105 #
plane-surface $-1 -0.28867513459481287 0.49999999999999994 0 0 1 0 0 0 0.39370078740157477 forward_v I I I I #
coedge $-1 $140 $141 $134 $142 forward $106 $-1 #
coedge $-1 $143 $108 $141 $144 reversed $95 $-1 #
coedge $-1 $108 $143 $109 $125 forward $95 $-1 #
edge $-1 $129 $145 $108 $146 forward #
coedge $-1 $110 $109 $147 $148 reversed $80 $-1 #
edge $-1 $149 $129 $122 $150 forward #
coedge $-1 $151 $132 $110 $127 reversed $152 $-1 #
edge $-1 $153 $128 $110 $154 forward #
vertex $-1 $127 $155 #
vertex $-1 $125 $156 #
straight-curve $-1 0.28867513459481281 -0.5 1.2598425196850394 -0.39370078740157477 5.9611962501815478e-017 0 F 0 F 1.4664696837416495 #
coedge $-1 $157 $113 $158 $159 reversed $91 $-1 #
coedge $-1 $126 $160 $113 $133 forward $152 $-1 #
edge $-1 $161 $128 $132 $162 forward #
coedge $-1 $114 $157 $120 $142 reversed $91 $-1 #
coedge $-1 $147 $163 $151 $164 forward $115 $-1 #
face $-1 $92 $152 $2 $-1 $165 forward single #
loop $-1 $-1 $158 $117 #
plane-surface $-1 0.2886751345948127 0.49999999999999994 0 0.8660254037844386 0.50000000000000011 0 0 0 -0.39370078740157477 forward_v I I I I #
coedge $-1 $166 $167 $157 $168 forward $118 $-1 #
coedge $-1 $169 $120 $167 $170 reversed $106 $-1 #
coedge $-1 $120 $169 $121 $144 forward $106 $-1 #
edge $-1 $145 $171 $120 $172 forward #
coedge $-1 $122 $121 $173 $174 reversed $95 $-1 #
edge $-1 $175 $145 $141 $176 forward #
vertex $-1 $144 $177 #
straight-curve $-1 -0.28867513459481303 -0.49999999999999994 1.2598425196850394 -0.19685039370078733 0.34095488337970031 0 F 0 F 1.4664696837416495 #
coedge $-1 $173 $135 $124 $148 forward $115 $-1 #
edge $-1 $153 $149 $147 $178 forward #
vertex $-1 $148 $179 #
straight-curve $-1 -0.28867513459481303 -0.49999999999999994 0 0 0 0.39370078740157477 I I #
coedge $-1 $160 $126 $135 $164 reversed $152 $-1 #
loop $-1 $-1 $132 $136 #
vertex $-1 $164 $180 #
straight-curve $-1 0.28867513459481281 -0.5 0 0 0 0.39370078740157477 I I #
point $-1 0.28867513459481281 -0.5 1.2598425196850394 #
point $-1 -0.28867513459481303 -0.49999999999999994 1.2598425196850394 #
coedge $-1 $134 $131 $139 $168 reversed $91 $-1 #
coedge $-1 $181 $182 $131 $159 forward $137 $-1 #
edge $-1 $183 $161 $158 $184 forward #
coedge $-1 $132 $151 $181 $185 forward $152 $-1 #
vertex $-1 $185 $186 #
straight-curve $-1 0.57735026918962573 -1.5913014563094331e-016 1.2598425196850394 -0.19685039370078755 -0.3409548833797002 0 F 0 F 1.4664696837416495 #
coedge $-1 $135 $187 $188 $189 forward $115 $-1 #
edge $-1 $190 $153 $135 $191 forward #
plane-surface $-1 0.57735026918962573 -1.5913014563094331e-016 0 0.8660254037844386 -0.50000000000000033 0 0 0 -0.39370078740157477 forward_v I I I I #
coedge $-1 $192 $139 $182 $193 reversed $118 $-1 #
coedge $-1 $139 $192 $140 $170 forward $118 $-1 #
edge $-1 $171 $183 $139 $194 forward #
coedge $-1 $141 $140 $195 $196 reversed $106 $-1 #
edge $-1 $197 $171 $167 $198 forward #
vertex $-1 $170 $199 #
straight-curve $-1 -0.57735026918962573 8.4687287803592155e-017 1.2598425196850394 0.19685039370078747 0.34095488337970026 0 F 0 F 1.4664696837416495 #
coedge $-1 $195 $147 $143 $174 forward $115 $-1 #
edge $-1 $149 $175 $173 $200 forward #
vertex $-1 $174 $201 #
straight-curve $-1 -0.57735026918962573 8.4687287803592155e-017 0 0 0 0.39370078740157477 I I #
point $-1 -0.57735026918962573 8.4687287803592155e-017 1.2598425196850394 #
straight-curve $-1 0.28867513459481281 -0.5 0 -0.39370078740157477 5.9611962501815478e-017 0 F 0 F 1.4664696837416495 #
point $-1 -0.28867513459481303 -0.49999999999999994 0 #
point $-1 0.28867513459481281 -0.5 0 #
coedge $-1 $188 $158 $160 $185 reversed $137 $-1 #
coedge $-1 $158 $188 $166 $193 forward $137 $-1 #
vertex $-1 $193 $202 #
straight-curve $-1 0.2886751345948127 0.49999999999999994 1.2598425196850394 0.19685039370078744 -0.3409548833797002 0 F 0 F 1.4664696837416502 #
edge $-1 $190 $161 $160 $203 forward #
point $-1 0.57735026918962573 -1.5913014563094331e-016 1.2598425196850394 #
coedge $-1 $163 $195 $192 $204 forward $115 $-1 #
coedge $-1 $182 $181 $163 $189 reversed $137 $-1 #
edge $-1 $205 $190 $163 $206 forward #
vertex $-1 $164 $207 #
straight-curve $-1 0.57735026918962573 -1.5913014563094331e-016 0 -0.19685039370078755 -0.3409548833797002 0 F 0 F 1.4664696837416495 #
coedge $-1 $167 $166 $187 $204 reversed $118 $-1 #
edge $-1 $205 $183 $182 $208 forward #
straight-curve $-1 -0.28867513459481287 0.49999999999999994 1.2598425196850394 0.39370078740157477 0 0 F 0 F 1.4664696837416491 #
coedge $-1 $187 $173 $169 $196 forward $115 $-1 #
edge $-1 $175 $197 $195 $209 forward #
vertex $-1 $196 $210 #
straight-curve $-1 -0.28867513459481287 0.49999999999999994 0 0 0 0.39370078740157477 I I #
point $-1 -0.28867513459481287 0.49999999999999994 1.2598425196850394 #
straight-curve $-1 -0.28867513459481303 -0.49999999999999994 0 -0.19685039370078733 0.34095488337970031 0 F 0 F 1.4664696837416495 #
point $-1 -0.57735026918962573 8.4687287803592155e-017 0 #
point $-1 0.2886751345948127 0.49999999999999994 1.2598425196850394 #
straight-curve $-1 0.57735026918962573 -1.5913014563094331e-016 0 0 0 0.39370078740157477 I I #
edge $-1 $197 $205 $187 $211 forward #
vertex $-1 $204 $212 #
straight-curve $-1 0.2886751345948127 0.49999999999999994 0 0.19685039370078744 -0.3409548833797002 0 F 0 F 1.4664696837416502 #
point $-1 0.57735026918962573 -1.5913014563094331e-016 0 #
straight-curve $-1 0.2886751345948127 0.49999999999999994 0 0 0 0.39370078740157477 I I #
straight-curve $-1 -0.57735026918962573 8.4687287803592155e-017 0 0.19685039370078747 0.34095488337970026 0 F 0 F 1.4664696837416495 #
point $-1 -0.28867513459481287 0.49999999999999994 0 #
straight-curve $-1 -0.28867513459481287 0.49999999999999994 0 0.39370078740157477 0 0 F 0 F 1.4664696837416491 #
point $-1 0.2886751345948127 0.49999999999999994 0 #
End-of-ACIS-data 