400 0 1 0           
7 Unknown 11 ACIS 6.0 NT 24 Wed Dec 26 20:57:07 2001 
25.399999999999999 9.9999999999999995e-007 1e-010 
body $-1 $1 $-1 $-1 #
lump $-1 $-1 $2 $0 #
shell $-1 $-1 $-1 $3 $-1 $1 #
face $-1 $4 $5 $2 $-1 $6 reversed single #
face $-1 $7 $8 $2 $-1 $9 forward single #
loop $-1 $10 $11 $3 #
cone-surface $-1 0.29000000000000004 0.00064509256780898808 0.307 1 0 0 0 0.09799999999999999 0 1 I I 0 1 0.09799999999999999 reversed I I I I #
face $-1 $12 $13 $2 $-1 $14 reversed single #
loop $-1 $15 $16 $4 #
cone-surface $-1 0 0 0.59850000000000014 0 0 1 -0.20299999999999996 0 0 1 I I -0.70710678118654924 -0.7071067811865458 0.20299999999999996 forward I I I I #
loop $-1 $-1 $17 $3 #
coedge $-1 $18 $18 $19 $20 reversed $5 $-1 #
face $-1 $21 $22 $2 $-1 $23 forward single #
loop $-1 $24 $25 $7 #
cone-surface $-1 0 0 1.6461458015619397 0 0 -1 -0.1875 0 0 1 I I 0 1 0.1875 reversed I I I I #
loop $-1 $-1 $26 $4 #
coedge $-1 $16 $16 $27 $28 forward $8 $-1 #
coedge $-1 $17 $17 $25 $29 reversed $10 $-1 #
coedge $-1 $11 $11 $30 $31 reversed $5 $-1 #
coedge $-1 $30 $30 $11 $20 forward $32 $-1 #
edge $-1 $33 $34 $19 $35 forward #
face $-1 $36 $37 $2 $-1 $38 forward single #
loop $-1 $39 $40 $12 #
plane-surface $-1 0.049090909090909074 3.9735970816934733e-018 0.61399999999999999 0 0 1 0.39370078740157477 0 0 forward_v I I I I #
loop $-1 $41 $42 $7 #
coedge $-1 $25 $25 $17 $29 forward $13 $-1 #
coedge $-1 $26 $26 $43 $44 forward $15 $-1 #
coedge $-1 $27 $27 $16 $28 reversed $41 $-1 #
edge $-1 $45 $45 $27 $46 forward #
edge $-1 $47 $47 $25 $48 forward #
coedge $-1 $19 $19 $18 $31 forward $32 $-1 #
edge $-1 $34 $33 $30 $49 forward #
loop $-1 $50 $19 $51 #
vertex $-1 $20 $52 #
vertex $-1 $20 $53 #
intcurve-curve $-1 forward { surfintcur nubs 3 open 9 
	0.37761108761531909 3 0.46995379286411659 2 0.56393319868256242 2 0.65792315774302168 2 0.75191311680348094 2 
	0.84590040518472476 2 0.93988769356596857 2 1.0338697699955102 2 1.1262151457458702 3 
	0.54000000000000004 7.6832392510681149e-019 0.20900212320882169 
	0.54000000000000004 -0.012145453095680435 0.20908207332387768 
	0.53955026546672302 -0.025035783161691409 0.21155737956461756 
	0.53791169729433008 -0.048962616724847551 0.22147941772280591 
	0.53673173026923926 -0.059964382361304421 0.22901691539843122 
	0.53450517086060956 -0.077336388425626096 0.24638818232021981 
	0.53331240540609481 -0.084874269948521805 0.25739009976182986 
	0.53162274562845346 -0.094884246097382774 0.28152749350740502 
	0.53115159982708282 -0.097354907432190996 0.29466535970335178 
	0.53115159982708282 -0.09735490743219101 0.31933428981381146 
	0.53162271828250895 -0.094884385205969438 0.33247180784804825 
	0.53331229779043521 -0.084874930384960912 0.35660867088422837 
	0.53450501292771424 -0.077337431032105997 0.36761040551264829 
	0.5367315735581224 -0.059965794619765818 0.38498204192498853 
	0.53791159139768852 -0.048963846194754711 0.39251992179669348 
	0.53955023902940713 -0.025036480526201728 0.4024424792561363 
	0.54000000000000004 -0.012145802719666426 0.40491792437464541 
	0.54000000000000004 7.6832392510681149e-019 0.40499787679117816 
	6.6628395951207178e-005 
	cone 0.29000000000000004 0.00064509256780898808 0.307 1 0 0 0 0.09799999999999999 0 1 I I 0 1 0.09799999999999999 reversed I I I I 
	cone 0 0 0 0 0 1 -0.54000000000000004 0 0 1 I I 0 1 0.54000000000000004 forward I I I I 
	nullbs 
	nullbs 
	I I 
	0 
	0 
	0 
	} I I #
face $-1 $54 $55 $2 $-1 $56 forward single #
loop $-1 $-1 $57 $21 #
cone-surface $-1 0.10213148229018612 0.32822739499500858 0.61399999999999999 0 0 1 0.013260160543284816 -0.028297184354036223 0 1 I I 0 1 0.031249999999999997 forward I I I I #
loop $-1 $-1 $43 $12 #
coedge $-1 $58 $59 $60 $61 forward $22 $-1 #
loop $-1 $-1 $27 $7 #
coedge $-1 $42 $42 $62 $63 reversed $24 $-1 #
coedge $-1 $43 $43 $26 $44 reversed $39 $-1 #
edge $-1 $64 $64 $43 $65 forward #
vertex $-1 $28 $66 #
ellipse-curve $-1 0 0 0.58300000000000018 0 0 -1 -0.1875 0 0 1 I I #
vertex $-1 $29 $67 #
intcurve-curve $-1 forward { surfintcur nubs 3 periodic 17 
	0 3 0.096007622288988431 2 0.19201524457797686 2 0.28769653950640756 2 0.38337783443483825 2 
	0.47915792163750848 2 0.57493800884017876 2 0.67103357533728825 2 0.76712914183439773 2 0.86320007253455322 2 
	0.95927100323470882 2 1.0550756489490298 2 1.1508802946633507 2 1.2465374393295563 2 1.3421945839957616 2 
	1.4382264250039221 2 1.5342582660120825 3 
	0.16024441331562705 -0.09735490743219101 0.30700000000000005 
	0.16024441331562705 -0.09735490743219101 0.29440057450275747 
	0.16187816796049917 -0.094786894843623917 0.28118213088259875 
	0.16736499537551613 -0.08472338173293574 0.25713964870563083 
	0.1711027651606431 -0.0772345069946586 0.24628667044990429 
	0.17784557676028354 -0.060097410830415643 0.22914957428566132 
	0.18133713966941406 -0.049234700664944481 0.221639377127784 
	0.18621148377456337 -0.025149500644454866 0.21155855641231486 
	0.18754209118271253 -0.011911433500059888 0.20900000000000002 
	0.1874556447682697 0.013214583424330862 0.20900000000000002 
	0.18603144241668507 0.026455704416813403 0.21156309519994043 
	0.18097971835375379 0.050536554089708419 0.22164642914565283 
	0.17740389204117543 0.061392288291223202 0.22915426661085089 
	0.17051827799879837 0.078518985435385574 0.24628096375501327 
	0.16671018486104089 0.08600645283134066 0.25712773154901886 
	0.16111925643777561 0.096072808529769196 0.28116685307292827 
	0.15945342803555021 0.09864509256780897 0.2943890332680959 
	0.15945342803555021 0.098645092567808942 0.31960773368768447 
	0.161118396552001 0.096074097002559644 0.33282686904266573 
	0.16670705610445563 0.086012345630303008 0.35686139474387002 
	0.17051382529342332 0.078528201251872987 0.36770658839431603 
	0.17739961717727543 0.061404772718631317 0.38483646712979358 
	0.18097683445427826 0.050547485179614708 0.3923476435272823 
	0.18603070959774867 0.026462011695117894 0.40243561296998037 
	0.1874556336798964 0.013217806307047492 0.40499999999999986 
	0.18754208027866726 -0.011908264193066264 0.40499999999999986 
	0.18621216116687417 -0.025143292542121276 0.40244271323100972 
	0.18133989697461955 -0.049223935159010766 0.39236645656645891 
	0.17784968733334119 -0.060085113203409493 0.38485954914324078 
	0.17110706602078843 -0.077225431128755226 0.36772558727206456 
	0.16736801815930424 -0.08471758036565348 0.35687105746921799 
	0.16187899872404643 -0.094785628166989835 0.33282404677103156 
	0.16024441331562705 -0.097354907432190996 0.31960260380684519 
	0.16024441331562705 -0.09735490743219101 0.30700000000000005 
	7.7828884913994635e-005 
	cone 0.29000000000000004 0.00064509256780898808 0.307 1 0 0 0 0.09799999999999999 0 1 I I 0 1 0.09799999999999999 reversed I I I I 
	cone 0 0 1.6461458015619397 0 0 -1 -0.1875 0 0 1 I I 0 -1 0.1875 reversed I I I I 
	nullbs 
	nullbs 
	I I 
	0 
	0 
	0 
	} I I #
intcurve-curve $-1 forward { surfintcur nubs 3 open 11 
	1.1262151457458702 3 1.1278518464250515 2 1.2218445410041858 2 1.3158372355833199 2 1.4098317346457845 2 
	1.5038262337082491 3 1.597818025664641 2 1.6918098176210328 2 1.7858052191874765 2 1.8798006207539197 2 
	1.8814373213235682 3 
	0.54000000000000004 7.6832392510681149e-019 0.40499787679117816 
	0.54000000000000004 0.00021526842463904096 0.40499929384290789 
	0.53999987127263394 0.0004303026056951637 0.40499999999999997 
	0.53998487909509296 0.01298008305472381 0.40499999999999997 
	0.53950368200254162 0.026118151715392852 0.40252916672005645 
	0.53779252518034248 0.050255155070237006 0.39251923797683541 
	0.53658585291169114 0.06125636354708465 0.38498165813328761 
	0.53431688202746896 0.078626917440513061 0.36761110423985921 
	0.53310551136744255 0.086164364166646121 0.35660996685537005 
	0.53139092032916635 0.096174186077641013 0.33247325025390351 
	0.53091350115841696 0.09864509256780897 0.31933523609743625 
	0.53091350115841696 0.09864509256780897 0.30699999999999994 
	0.53091350115841696 0.09864509256780897 0.29466511916582777 
	0.53139089225356029 0.09617432708744364 0.28152745787594408 
	0.5331054006317778 0.086165033538215169 0.2573912791193842 
	0.53431671935351255 0.078627974113824314 0.24639032698683883 
	0.5365856906068287 0.061257794787970686 0.22901939860425793 
	0.53779241484312301 0.050256401082841212 0.22148143143686141 
	0.53950365380094867 0.02611885985961181 0.21147097429278694 
	0.53998487867070855 0.012980438302148699 0.20899999999999999 
	0.53999987127261662 0.00043030262006956321 0.20899999999999999 
	0.54000000000000004 0.00021526843887428805 0.2090007061569982 
	0.54000000000000004 7.6832392510681149e-019 0.20900212320882169 
	6.6628395951207178e-005 
	cone 0.29000000000000004 0.00064509256780898808 0.307 1 0 0 0 0.09799999999999999 0 1 I I 0 1 0.09799999999999999 reversed I I I I 
	cone 0 0 0 0 0 1 -0.54000000000000004 0 0 1 I I 0 1 0.54000000000000004 forward I I I I 
	nullbs 
	nullbs 
	I I 
	0 
	0 
	0 
	} I I #
loop $-1 $68 $69 $51 #
face $-1 $70 $32 $2 $-1 $71 forward single #
point $-1 0.54000000000000004 7.6832392510681149e-019 0.20900212320882169 #
point $-1 0.54000000000000004 7.6832392510681149e-019 0.40499787679117816 #
face $-1 $72 $73 $2 $-1 $74 forward single #
loop $-1 $-1 $75 $36 #
plane-surface $-1 0.20664905347714832 0.49889494755609498 0.61399999999999999 0.92387953251128707 -0.38268343236508917 0 0 0 -0.39370078740157477 forward_v I I I I #
coedge $-1 $76 $77 $78 $79 forward $37 $-1 #
coedge $-1 $80 $40 $81 $82 reversed $22 $-1 #
coedge $-1 $40 $83 $84 $85 reversed $22 $-1 #
coedge $-1 $86 $87 $40 $61 reversed $88 $-1 #
edge $89 $90 $91 $40 $92 forward #
coedge $-1 $62 $62 $42 $63 forward $93 $-1 #
edge $-1 $94 $94 $42 $95 forward #
vertex $-1 $44 $96 #
ellipse-curve $-1 0 0 0.61399999999999999 0 0 1 -0.21849999999999997 0 0 1 I I #
point $-1 0.1875 0 0.58300000000000018 #
point $-1 0.16024441331562705 -0.09735490743219101 0.30700000000000005 #
loop $-1 $-1 $97 $51 #
coedge $-1 $98 $99 $100 $101 reversed $50 $-1 #
face $-1 $102 $103 $2 $-1 $104 forward single #
cone-surface $-1 0 0 0 0 0 1 -0.54000000000000004 0 0 1 I I 0 1 0.54000000000000004 forward I I I I #
face $-1 $105 $106 $2 $-1 $107 forward single #
loop $-1 $-1 $108 $54 #
cone-surface $-1 -0.10213148229018625 0.32822739499500853 0.61399999999999999 0 0 1 -0.013260160543284816 -0.028297184354036223 0 1 I I 0 1 0.031249999999999997 forward I I I I #
coedge $-1 $109 $110 $77 $111 reversed $55 $-1 #
coedge $-1 $112 $57 $113 $114 forward $37 $-1 #
coedge $-1 $57 $112 $75 $111 forward $37 $-1 #
coedge $-1 $115 $116 $57 $79 reversed $117 $-1 #
edge $-1 $118 $119 $78 $120 forward #
coedge $-1 $121 $58 $122 $123 forward $22 $-1 #
coedge $-1 $124 $125 $58 $82 forward $126 $-1 #
edge $-1 $127 $91 $81 $128 reversed #
coedge $-1 $59 $129 $130 $131 forward $22 $-1 #
coedge $-1 $132 $133 $59 $85 forward $103 $-1 #
edge $-1 $90 $134 $84 $135 reversed #
coedge $-1 $136 $60 $133 $137 reversed $88 $-1 #
coedge $-1 $60 $136 $124 $138 reversed $88 $-1 #
loop $-1 $-1 $87 $139 #
convexity-sys-attrib $-1 $-1 $-1 $61 #
vertex $-1 $61 $140 #
vertex $-1 $82 $141 #
straight-curve $-1 0.0633888849015741 -0.15303430563308706 0.61399999999999999 0.15066276864767325 -0.3637320994138924 0 I I #
loop $-1 $142 $62 $143 #
vertex $-1 $63 $144 #
ellipse-curve $-1 0 0 0.030999999999999923 0 0 1 0.1875 0 0 1 I I #
point $-1 0.21849999999999997 0 0.61399999999999999 #
coedge $-1 $97 $97 $145 $146 reversed $68 $-1 #
coedge $-1 $147 $69 $148 $149 forward $50 $-1 #
coedge $-1 $69 $150 $151 $152 reversed $50 $-1 #
coedge $-1 $153 $154 $69 $101 forward $155 $-1 #
edge $-1 $156 $157 $69 $158 forward #
face $-1 $159 $160 $2 $-1 $161 forward single #
loop $-1 $-1 $162 $70 #
cone-surface $-1 0.10213148229018632 -0.32822739499500853 0.61399999999999999 0 0 1 0.013260160543284816 0.028297184354036223 0 1 I I 0 1 0.031249999999999997 forward I I I I #
face $-1 $163 $155 $2 $-1 $164 forward single #
loop $-1 $-1 $113 $72 #
cone-surface $-1 0 0 0.61399999999999999 0 0 1 -0.11958857261409049 -0.28871235390977712 0 1 I I 0 -1 0.3125 forward I I I I #
coedge $-1 $165 $166 $167 $168 forward $73 $-1 #
coedge $-1 $169 $75 $170 $171 reversed $55 $-1 #
coedge $-1 $75 $169 $115 $172 forward $55 $-1 #
edge $-1 $173 $118 $75 $174 forward #
coedge $-1 $77 $76 $175 $176 forward $37 $-1 #
coedge $-1 $177 $178 $76 $114 reversed $106 $-1 #
edge $-1 $119 $179 $113 $180 forward #
coedge $-1 $181 $78 $110 $172 reversed $117 $-1 #
coedge $-1 $78 $167 $177 $182 reversed $117 $-1 #
loop $-1 $-1 $78 $183 #
vertex $-1 $111 $184 #
vertex $-1 $182 $185 #
ellipse-curve $-1 0.10213148229018612 0.32822739499500858 1.0569999999999999 1.6464353542582394e-031 3.4782695185386597e-030 -1 0.013260160543284816 -0.028297184354036223 0 1 I I #
coedge $-1 $170 $80 $186 $187 reversed $22 $-1 #
coedge $-1 $188 $147 $80 $123 reversed $50 $-1 #
edge $-1 $127 $189 $122 $190 forward #
coedge $-1 $191 $81 $87 $138 forward $126 $-1 #
coedge $-1 $81 $191 $188 $192 forward $126 $-1 #
loop $-1 $-1 $191 $193 #
vertex $-1 $123 $194 #
ellipse-curve $-1 0.16545132695195872 -0.48109502274481708 0.61399999999999999 0 0 -1 0.028490142489162894 -0.0128403380386653 0 1 I I #
coedge $-1 $83 $195 $196 $197 reversed $22 $-1 #
coedge $-1 $198 $199 $83 $131 reversed $200 $-1 #
edge $201 $202 $134 $83 $203 forward #
coedge $-1 $162 $84 $199 $204 forward $103 $-1 #
coedge $-1 $84 $162 $86 $137 forward $103 $-1 #
vertex $-1 $85 $205 #
ellipse-curve $-1 0.10213148229018632 -0.32822739499500853 0.61399999999999999 0 0 -1 0.013260160543284816 0.028297184354036223 0 1 I I #
coedge $-1 $87 $86 $206 $207 forward $88 $-1 #
edge $-1 $208 $90 $86 $209 forward #
edge $-1 $91 $210 $87 $211 forward #
face $-1 $212 $88 $2 $-1 $213 forward single #
point $-1 0.131002717681164 -0.31626853773359942 0.61399999999999999 #
point $-1 0.19432256234293643 -0.46913616548340797 0.61399999999999999 #
loop $-1 $-1 $214 $143 #
face $-1 $-1 $93 $2 $-1 $215 forward single #
point $-1 -0.1875 0 0.030999999999999923 #
coedge $-1 $145 $145 $97 $146 forward $216 $-1 #
edge $-1 $217 $217 $97 $218 forward #
coedge $-1 $122 $98 $219 $220 reversed $50 $-1 #
coedge $-1 $221 $181 $98 $149 reversed $117 $-1 #
edge $-1 $156 $222 $98 $223 forward #
coedge $-1 $99 $224 $225 $226 reversed $50 $-1 #
coedge $-1 $227 $228 $99 $152 forward $22 $-1 #
edge $-1 $157 $229 $99 $230 forward #
coedge $-1 $231 $100 $228 $232 forward $155 $-1 #
coedge $-1 $100 $231 $221 $233 forward $155 $-1 #
loop $-1 $-1 $154 $105 #
vertex $-1 $149 $234 #
vertex $-1 $152 $235 #
straight-curve $-1 -0.17561418487284064 0.51064631406820871 0 0 0 -0.39370078740157477 F -2.9308434999999999 F 0.0085735000000000099 #
face $-1 $236 $237 $2 $-1 $238 forward single #
loop $-1 $-1 $239 $102 #
plane-surface $-1 1.9669305554382694e-016 -0.42288709642073569 1.0569999999999997 3.2928707085164858e-031 1.8441831675473424e-030 1 0.39370078740157477 0 -1.296405790754522e-031 forward_v I I I I #
coedge $-1 $133 $132 $240 $241 forward $103 $-1 #
face $-1 $193 $242 $2 $-1 $243 forward single #
cone-surface $-1 -0.16545132695195869 0.48109502274481708 0 0 0 1 -0.028490142489162894 0.0128403380386653 0 1 I I 0 1 0.031249999999999997 forward I I I I #
coedge $-1 $244 $108 $245 $246 forward $73 $-1 #
coedge $-1 $108 $244 $247 $248 forward $73 $-1 #
coedge $-1 $116 $249 $108 $168 reversed $117 $-1 #
edge $-1 $250 $251 $167 $252 forward #
coedge $-1 $110 $109 $253 $254 reversed $55 $-1 #
coedge $-1 $175 $121 $109 $171 forward $22 $-1 #
edge $255 $256 $173 $170 $257 forward #
edge $258 $259 $118 $110 $260 forward #
vertex $-1 $176 $261 #
straight-curve $-1 0.13100271768116384 0.31626853773359959 0.61399999999999999 0 0 0.39370078740157477 F -0.24606349999999999 F 1.3712834999999999 #
coedge $-1 $262 $170 $112 $176 reversed $22 $-1 #
edge $-1 $179 $173 $112 $263 reversed #
coedge $-1 $247 $113 $116 $182 forward $106 $-1 #
coedge $-1 $113 $247 $262 $264 reversed $106 $-1 #
vertex $-1 $264 $265 #
straight-curve $-1 0.092846802081987367 0.2983885409045533 0.61399999999999999 0 0 -0.39370078740157477 F -1.3712834999999999 F 0.24606349999999999 #
coedge $-1 $148 $115 $266 $267 reversed $117 $-1 #
edge $-1 $119 $250 $177 $268 forward #
face $-1 $269 $117 $2 $-1 $270 forward single #
point $-1 0.13100271768116384 0.31626853773359959 1.0569999999999999 #
point $-1 0.092846802081987367 0.29838854090455325 1.0569999999999999 #
coedge $-1 $219 $253 $121 $187 forward $271 $-1 #
edge $-1 $256 $189 $186 $272 reversed #
coedge $-1 $224 $122 $125 $192 reversed $50 $-1 #
vertex $-1 $123 $273 #
ellipse-curve $-1 0 0 0.61399999999999999 0 0 1 -0.54000000000000004 0 0 1 I I #
coedge $-1 $125 $124 $239 $274 forward $126 $-1 #
edge $-1 $275 $127 $188 $276 forward #
face $-1 $139 $126 $2 $-1 $277 forward single #
point $-1 0.1756141848728407 -0.51064631406820871 0.61399999999999999 #
coedge $-1 $129 $227 $278 $279 forward $22 $-1 #
coedge $-1 $280 $281 $129 $197 forward $282 $-1 #
edge $-1 $202 $283 $196 $284 reversed #
coedge $-1 $285 $130 $281 $286 reversed $200 $-1 #
coedge $-1 $130 $285 $132 $204 reversed $200 $-1 #
loop $-1 $-1 $199 $287 #
convexity-sys-attrib $-1 $-1 $-1 $131 #
vertex $-1 $131 $288 #
ellipse-curve $-1 0 0 0.61399999999999999 0 0 1 0.11958857261409044 0.28871235390977712 0 1 I I #
edge $-1 $134 $289 $199 $290 forward #
point $-1 0.092846802081987562 -0.29838854090455319 0.61399999999999999 #
coedge $-1 $240 $239 $136 $207 reversed $160 $-1 #
edge $291 $208 $210 $136 $292 forward #
vertex $-1 $207 $293 #
straight-curve $-1 0.131002717681164 -0.31626853773359942 0.61399999999999999 0 0 -0.39370078740157477 F -1.3712834999999994 F 0.24606349999999999 #
vertex $-1 $274 $294 #
straight-curve $-1 0.19432256234293646 -0.46913616548340797 0 0 0 0.39370078740157477 F -0.0085735000000000099 F 2.9308434999999995 #
face $-1 $51 $271 $2 $-1 $295 forward single #
plane-surface $-1 0.11958857261409067 -0.28871235390977701 0.61399999999999999 0.92387953251128674 0.38268343236509006 0 0 0 -0.39370078740157477 forward_v I I I I #
coedge $-1 $214 $214 $296 $297 forward $142 $-1 #
cone-surface $-1 0 0 0.015499999999999962 0 0 -1 0.20299999999999996 0 0 1 I I -0.70710678118654824 -0.70710678118654668 0.20299999999999996 forward I I I I #
loop $-1 $298 $145 $269 #
vertex $-1 $146 $299 #
ellipse-curve $-1 0 0 0.031 0 0 -1 -0.54000000000000004 0 0 1 I I #
coedge $-1 $266 $186 $147 $220 forward $271 $-1 #
edge $-1 $189 $222 $147 $300 forward #
coedge $-1 $249 $148 $154 $233 reversed $117 $-1 #
vertex $-1 $220 $301 #
ellipse-curve $-1 0 0 1.0569999999999999 0 0 -1 0.54000000000000004 0 0 1 I I #
coedge $-1 $150 $188 $302 $303 forward $50 $-1 #
coedge $-1 $304 $305 $150 $226 forward $237 $-1 #
edge $-1 $229 $306 $150 $307 forward #
coedge $-1 $195 $151 $305 $308 reversed $22 $-1 #
coedge $-1 $151 $309 $153 $232 reversed $22 $-1 #
vertex $-1 $152 $310 #
ellipse-curve $-1 0 0 0.61399999999999999 0 0 1 -0.54000000000000004 0 0 1 I I #
coedge $-1 $154 $153 $311 $312 forward $155 $-1 #
edge $-1 $157 $313 $153 $314 reversed #
edge $-1 $315 $156 $221 $316 forward #
point $-1 -0.17561418487284067 0.51064631406820882 1.0569999999999999 #
point $-1 -0.17561418487284064 0.51064631406820871 0.61399999999999999 #
face $-1 $317 $318 $2 $-1 $319 forward single #
loop $-1 $-1 $304 $159 #
cone-surface $-1 -0.16545132695195847 -0.48109502274481714 0 0 0 1 -0.028490142489162835 -0.012840338038665428 0 1 I I 0 1 0.031249999999999997 forward I I I I #
coedge $-1 $206 $302 $191 $274 reversed $160 $-1 #
coedge $-1 $320 $206 $162 $241 reversed $160 $-1 #
edge $-1 $289 $208 $240 $321 forward #
loop $-1 $-1 $245 $163 #
plane-surface $-1 -0.11958857261409064 0.28871235390977706 0.61399999999999999 -0.92387953251128674 -0.38268343236509 0 0 0 0.39370078740157477 forward_v I I I I #
coedge $-1 $166 $165 $322 $323 forward $73 $-1 #
coedge $-1 $324 $325 $165 $246 reversed $242 $-1 #
edge $-1 $251 $326 $245 $327 forward #
coedge $-1 $178 $177 $166 $248 reversed $106 $-1 #
edge $-1 $328 $250 $247 $329 forward #
coedge $-1 $167 $221 $324 $330 reversed $117 $-1 #
vertex $-1 $248 $331 #
vertex $-1 $330 $332 #
ellipse-curve $-1 -0.10213148229018625 0.32822739499500853 1.0569999999999999 1.6464353542582394e-031 3.4782695185386597e-030 -1 -0.013260160543284816 -0.028297184354036223 0 1 I I #
coedge $-1 $186 $266 $169 $254 forward $271 $-1 #
edge $-1 $259 $256 $169 $333 forward #
convexity-sys-attrib $-1 $-1 $-1 $171 #
vertex $-1 $171 $334 #
straight-curve $-1 0.10691912533310297 0.25812560245624599 0.61399999999999999 -0.15066276864767289 -0.36373209941389251 0 I I #
convexity-sys-attrib $-1 $-1 $-1 $172 #
vertex $-1 $172 $335 #
straight-curve $-1 0.11958857261409052 0.28871235390977712 1.0569999999999999 -0.15066276864767289 -0.36373209941389251 0 F -0.57785000000000031 F 0 #
point $-1 0.13100271768116384 0.31626853773359959 0.61399999999999999 #
coedge $-1 $322 $175 $178 $264 forward $22 $-1 #
ellipse-curve $-1 0.10213148229018612 0.32822739499500858 0.61399999999999999 0 0 -1 0.013260160543284816 -0.028297184354036223 0 1 I I #
edge $-1 $179 $328 $262 $336 forward #
point $-1 0.092846802081987367 0.29838854090455325 0.61399999999999999 #
coedge $-1 $253 $219 $181 $267 forward $271 $-1 #
edge $-1 $222 $259 $181 $337 forward #
ellipse-curve $-1 0 0 1.0569999999999999 0 0 1 -0.11958857261409049 -0.28871235390977712 0 1 F -3.1415926535897931 F -2.3561944901923444 #
face $-1 $338 $216 $2 $-1 $339 forward single #
plane-surface $-1 -1.1473761573389905e-016 0.4228870964207358 1.0569999999999999 -1.6464353542582394e-031 -3.4782695185386597e-030 1 0.39370078740157477 0 6.4820289537725955e-032 forward_v I I I I #
loop $-1 $-1 $266 $212 #
ellipse-curve $-1 0.16545132695195838 0.48109502274481725 0.61399999999999999 0 0 -1 0.028490142489162845 0.012840338038665406 0 1 I I #
point $-1 0.17561418487284033 0.51064631406820893 0.61399999999999999 #
edge $-1 $210 $275 $239 $340 forward #
vertex $-1 $303 $341 #
straight-curve $-1 0.1756141848728407 -0.51064631406820871 0 0 0 -0.39370078740157477 F -2.9308434999999995 F 0.0085735000000000099 #
cone-surface $-1 0.16545132695195872 -0.48109502274481708 0 0 0 1 0.028490142489162894 -0.0128403380386653 0 1 I I 0 1 0.031249999999999997 forward I I I I #
coedge $-1 $342 $343 $195 $279 reversed $318 $-1 #
edge $-1 $344 $283 $195 $345 forward #
coedge $-1 $346 $196 $343 $347 forward $282 $-1 #
coedge $-1 $196 $346 $198 $286 forward $282 $-1 #
loop $-1 $-1 $346 $317 #
vertex $-1 $197 $348 #
ellipse-curve $-1 -0.10213148229018605 -0.32822739499500858 0.61399999999999999 0 0 -1 -0.013260160543284841 0.028297184354036213 0 1 I I #
coedge $-1 $199 $198 $320 $349 forward $200 $-1 #
edge $-1 $350 $202 $198 $351 forward #
face $-1 $183 $200 $2 $-1 $352 forward single #
point $-1 -0.092846802081987312 -0.29838854090455325 0.61399999999999999 #
vertex $-1 $241 $353 #
straight-curve $-1 0.092846802081987562 -0.29838854090455319 0.61399999999999999 0 0 0.39370078740157477 F -0.24606349999999999 F 1.3712834999999994 #
convexity-sys-attrib $-1 $-1 $-1 $207 #
straight-curve $-1 0.20664905347714868 -0.49889494755609481 1.0569999999999999 0.15066276864767325 -0.3637320994138924 0 F -0.57785000000000031 F 0 #
point $-1 0.131002717681164 -0.31626853773359948 1.0569999999999999 #
point $-1 0.19432256234293646 -0.46913616548340797 1.0569999999999999 #
cone-surface $-1 0.16545132695195838 0.48109502274481725 0 0 0 1 0.028490142489162845 0.012840338038665406 0 1 I I 0 1 0.031249999999999997 forward I I I I #
coedge $-1 $296 $296 $214 $297 reversed $354 $-1 #
edge $-1 $355 $355 $296 $356 forward #
loop $-1 $-1 $357 $269 #
point $-1 0.54000000000000004 0 0.031 #
straight-curve $-1 0.17561418487284033 0.51064631406820893 0 0 0 0.39370078740157477 F -0.0085735000000000099 F 2.9308434999999999 #
point $-1 0.17561418487284033 0.51064631406820893 1.0569999999999999 #
coedge $-1 $239 $358 $224 $303 reversed $160 $-1 #
edge $-1 $275 $306 $224 $359 forward #
coedge $-1 $360 $225 $358 $361 forward $237 $-1 #
coedge $-1 $225 $360 $227 $308 forward $237 $-1 #
vertex $-1 $361 $362 #
straight-curve $-1 -0.17561418487284042 -0.51064631406820882 0 0 0 0.39370078740157477 F -0.0085735000000000099 F 2.9308434999999995 #
edge $-1 $344 $229 $305 $363 reversed #
coedge $-1 $228 $322 $325 $364 forward $22 $-1 #
point $-1 -0.17561418487284042 -0.51064631406820882 0.61399999999999999 #
coedge $-1 $325 $324 $231 $312 reversed $242 $-1 #
edge $-1 $313 $315 $311 $365 forward #
vertex $-1 $232 $366 #
ellipse-curve $-1 -0.16545132695195869 0.48109502274481708 0.61399999999999999 0 0 -1 -0.028490142489162894 0.0128403380386653 0 1 I I #
vertex $-1 $233 $367 #
ellipse-curve $-1 -0.16545132695195869 0.48109502274481708 1.0569999999999999 1.6464353542582394e-031 3.4782695185386597e-030 -1 -0.028490142489162894 0.0128403380386653 0 1 I I #
face $-1 $287 $282 $2 $-1 $368 forward single #
loop $-1 $-1 $342 $236 #
plane-surface $-1 -0.20664905347714832 -0.49889494755609493 0.61399999999999999 -0.92387953251128685 0.38268343236508967 0 0 0 0.39370078740157477 forward_v I I I I #
coedge $-1 $369 $240 $285 $349 reversed $160 $-1 #
ellipse-curve $-1 0.10213148229018632 -0.32822739499500853 1.0569999999999997 -3.2928707085164858e-031 -1.8441831675473424e-030 -1 0.013260160543284816 0.028297184354036223 0 1 I I #
coedge $-1 $309 $262 $244 $323 reversed $22 $-1 #
edge $-1 $326 $328 $244 $370 reversed #
coedge $-1 $311 $245 $249 $330 forward $242 $-1 #
coedge $-1 $245 $311 $309 $364 reversed $242 $-1 #
vertex $-1 $364 $371 #
straight-curve $-1 -0.13100271768116398 0.31626853773359942 0.61399999999999999 0 0 -0.39370078740157477 F -1.3712834999999999 F 0.24606349999999999 #
vertex $-1 $323 $372 #
straight-curve $-1 -0.092846802081987506 0.29838854090455325 0.61399999999999999 0 0 0.39370078740157477 F -0.24606349999999999 F 1.3712834999999999 #
edge $-1 $251 $315 $324 $373 forward #
point $-1 -0.09284680208198752 0.29838854090455325 1.0569999999999999 #
point $-1 -0.131002717681164 0.31626853773359948 1.0569999999999999 #
straight-curve $-1 0.19432256234293616 0.4691361654834082 0 0 0 -0.39370078740157477 F -2.9308434999999999 F 0.0085735000000000099 #
point $-1 0.19432256234293616 0.4691361654834082 0.61399999999999999 #
point $-1 0.19432256234293616 0.4691361654834082 1.0569999999999999 #
ellipse-curve $-1 0 0 0.61399999999999999 0 0 1 -0.11958857261409049 -0.28871235390977712 0 1 I I #
ellipse-curve $-1 0.16545132695195838 0.48109502274481725 1.0569999999999999 1.6464353542582394e-031 3.4782695185386597e-030 -1 0.028490142489162845 0.012840338038665406 0 1 I I #
face $-1 $143 $354 $2 $-1 $374 reversed single #
cone-surface $-1 0 0 0.0155 0 0 -1 -0.52449999999999997 0 0 1 I I -0.70710678118654768 0.70710678118654746 0.52449999999999997 forward I I I I #
ellipse-curve $-1 0.16545132695195872 -0.48109502274481708 1.0569999999999997 -3.2928707085164858e-031 -1.8441831675473424e-030 -1 0.028490142489162894 -0.0128403380386653 0 1 I I #
point $-1 0.1756141848728407 -0.51064631406820871 1.0569999999999999 #
coedge $-1 $375 $278 $360 $376 reversed $318 $-1 #
coedge $-1 $278 $375 $280 $347 reversed $318 $-1 #
vertex $-1 $279 $377 #
straight-curve $-1 -0.099729928144045396 -0.24076934509984893 0.61399999999999999 0.15066276864767308 0.36373209941389245 0 I I #
coedge $-1 $281 $280 $369 $378 forward $282 $-1 #
edge $-1 $283 $379 $343 $380 forward #
point $-1 -0.13100271768116376 -0.31626853773359953 0.61399999999999999 #
edge $381 $350 $289 $285 $382 forward #
vertex $-1 $349 $383 #
straight-curve $-1 -0.092846802081987326 -0.2983885409045533 0.61399999999999999 0 0 -0.39370078740157477 F -1.3712834999999994 F 0.24606349999999999 #
cone-surface $-1 0 0 0.61399999999999999 0 0 1 0.11958857261409044 0.28871235390977712 0 1 I I 0 -1 0.31249999999999994 forward I I I I #
point $-1 0.092846802081987562 -0.29838854090455319 1.0569999999999999 #
loop $-1 $384 $296 $338 #
vertex $-1 $297 $385 #
ellipse-curve $-1 0 0 0 0 0 -1 0.21849999999999997 0 0 1 I I #
coedge $-1 $357 $357 $386 $387 forward $298 $-1 #
coedge $-1 $302 $388 $304 $361 reversed $160 $-1 #
ellipse-curve $-1 0 0 1.0569999999999999 0 0 -1 0.54000000000000004 0 0 1 I I #
coedge $-1 $305 $304 $342 $376 forward $237 $-1 #
edge $-1 $306 $389 $358 $390 forward #
point $-1 -0.17561418487284045 -0.51064631406820893 1.0569999999999999 #
ellipse-curve $-1 -0.16545132695195847 -0.48109502274481714 0.61399999999999999 0 0 -1 -0.028490142489162835 -0.012840338038665428 0 1 I I #
edge $-1 $326 $313 $309 $391 forward #
straight-curve $-1 -0.19432256234293643 0.46913616548340797 0 0 0 0.39370078740157477 F -0.0085735000000000099 F 2.9308434999999999 #
point $-1 -0.19432256234293638 0.46913616548340786 0.61399999999999999 #
point $-1 -0.19432256234293641 0.46913616548340797 1.0569999999999999 #
cone-surface $-1 -0.10213148229018605 -0.32822739499500858 0.61399999999999999 0 0 1 -0.013260160543284841 0.028297184354036213 0 1 I I 0 1 0.031249999999999997 forward I I I I #
coedge $-1 $388 $320 $346 $378 reversed $160 $-1 #
ellipse-curve $-1 -0.10213148229018625 0.32822739499500853 0.61399999999999999 0 0 -1 -0.013260160543284816 -0.028297184354036223 0 1 I I #
point $-1 -0.13100271768116398 0.31626853773359942 0.61399999999999999 #
point $-1 -0.09284680208198752 0.29838854090455325 0.61399999999999999 #
straight-curve $-1 -0.20664905347714863 0.49889494755609481 1.0569999999999999 -0.15066276864767322 0.3637320994138924 0 F -0.5778500000000002 F 0 #
plane-surface $-1 0.049090909090909074 3.9735970816934733e-018 0 0 0 1 0.39370078740157477 0 0 forward_v I I I I #
coedge $-1 $343 $342 $388 $392 forward $318 $-1 #
edge $-1 $389 $344 $342 $393 forward #
point $-1 -0.19432256234293616 -0.46913616548340814 0.61399999999999999 #
edge $-1 $379 $350 $369 $394 forward #
vertex $-1 $347 $395 #
straight-curve $-1 -0.13100271768116376 -0.31626853773359953 0.61399999999999999 0 0 0.39370078740157477 F -0.24606349999999999 F 1.3712834999999994 #
convexity-sys-attrib $-1 $-1 $-1 $349 #
ellipse-curve $-1 0 0 1.0569999999999999 0 0 1 0.11958857261409044 0.28871235390977712 0 1 F -3.1415926535897931 F -2.3561944901923448 #
point $-1 -0.092846802081987312 -0.29838854090455325 1.0569999999999999 #
loop $-1 $-1 $386 $338 #
point $-1 -0.21849999999999997 0 0 #
coedge $-1 $386 $386 $357 $387 reversed $384 $-1 #
edge $-1 $396 $396 $386 $397 forward #
coedge $-1 $358 $369 $375 $392 reversed $160 $-1 #
vertex $-1 $392 $398 #
ellipse-curve $-1 -0.16545132695195847 -0.48109502274481714 1.0569999999999997 -3.2928707085164858e-031 -1.8441831675473424e-030 -1 -0.028490142489162835 -0.012840338038665428 0 1 I I #
straight-curve $-1 -0.056199687712516606 0.13567804827669 0.61399999999999999 -0.15066276864767322 0.3637320994138924 0 I I #
edge $-1 $389 $379 $375 $399 forward #
straight-curve $-1 -0.19432256234293616 -0.46913616548340814 0 0 0 -0.39370078740157477 F -2.9308434999999995 F 0.0085735000000000099 #
ellipse-curve $-1 -0.10213148229018605 -0.32822739499500858 1.0569999999999997 -3.2928707085164858e-031 -1.8441831675473424e-030 -1 -0.013260160543284841 0.028297184354036213 0 1 I I #
point $-1 -0.13100271768116376 -0.31626853773359953 1.0569999999999999 #
vertex $-1 $387 $400 #
ellipse-curve $-1 0 0 0 0 0 1 -0.50900000000000001 0 0 1 I I #
point $-1 -0.19432256234293616 -0.46913616548340814 1.0569999999999999 #
straight-curve $-1 -0.11958857261409044 -0.28871235390977718 1.0569999999999999 0.15066276864767306 0.3637320994138924 0 F -0.57784999999999997 F 0 #
point $-1 0.50900000000000001 0 0 #
End-of-ACIS-data 