400 0 2 0           
8 Inventor 11 ACIS 6.0 NT 24 Tue Jan 20 10:12:36 2004 
25.399999999999999 9.9999999999999995e-007 1e-010 
body $-1 $2 $-1 $-1 #
body $-1 $3 $-1 $-1 #
lump $-1 $-1 $4 $0 #
lump $-1 $-1 $5 $1 #
shell $-1 $-1 $-1 $6 $-1 $2 #
shell $-1 $-1 $-1 $7 $-1 $3 #
face $-1 $8 $9 $4 $-1 $10 reversed single #
face $-1 $11 $12 $5 $-1 $13 forward single #
face $-1 $14 $15 $4 $-1 $16 reversed single #
loop $-1 $17 $18 $6 #
plane-surface $-1 -0.68602362204724388 1.4018478178951343e-018 0.15748031496062992 0 0 -1 -0.39370078740157477 4.8212848575684139e-017 0 reverse_v I I I I #
face $-1 $19 $20 $5 $-1 $21 forward single #
loop $-1 $22 $23 $7 #
cone-surface $-1 -1.0189473738052227e-034 -3.3964912460174096e-035 1.6089763779527559 4.0757894952208845e-033 1.3585964984069616e-033 -1 -0.16249999999999998 3.8069304188100426e-067 -2.8021052779643578e-034 1 I I 0.70710678118654691 0.70710678118654813 0.16249999999999998 forward I I I I #
face $-1 $24 $25 $4 $-1 $26 reversed single #
loop $-1 $27 $28 $8 #
cone-surface $-1 -0.68602362204724388 1.4018478178951343e-018 0.23228346456692914 0 0 1 -0.18700787401574803 2.2901103073449969e-017 0 1 I I 0 1 0.18700787401574803 reversed I I I I #
loop $-1 $-1 $29 $6 #
coedge $-1 $18 $18 $30 $31 forward $9 $-1 #
face $-1 $32 $33 $5 $-1 $34 forward single #
loop $-1 $35 $36 $11 #
cone-surface $-1 0 0 0.76397637795275586 0 0 1 -0.1875 0 0 1 I I 0 1 0.1875 forward I I I I #
loop $-1 $-1 $37 $7 #
coedge $-1 $23 $23 $38 $39 forward $12 $-1 #
face $-1 $40 $41 $4 $-1 $42 reversed single #
loop $-1 $43 $44 $14 #
cone-surface $-1 -0.68602362204724388 1.4018478178951343e-018 -2.1177714764938353 0 0 1 -0.11318897637795276 1.3861193965509192e-017 0 1 I I 0 1 0.11318897637795276 reversed I I I I #
loop $-1 $-1 $30 $8 #
coedge $-1 $28 $28 $45 $46 reversed $15 $-1 #
coedge $-1 $29 $29 $47 $48 reversed $17 $-1 #
coedge $-1 $30 $30 $18 $31 reversed $27 $-1 #
edge $-1 $49 $49 $18 $50 forward #
face $-1 $51 $52 $5 $-1 $53 forward single #
loop $-1 $-1 $38 $19 #
plane-surface $-1 0.017045454545454541 1.0059865316867916e-019 1.6339763779527556 -4.0757894952208845e-033 -1.3585964984069616e-033 1 0.39370078740157477 0 1.6046415335515293e-033 forward_v I I I I #
loop $-1 $-1 $54 $11 #
coedge $-1 $36 $36 $55 $56 reversed $20 $-1 #
coedge $-1 $37 $37 $54 $57 forward $22 $-1 #
coedge $-1 $38 $38 $23 $39 reversed $33 $-1 #
edge $-1 $58 $58 $38 $59 forward #
face $-1 $60 $61 $4 $-1 $62 reversed single #
loop $-1 $63 $64 $24 #
plane-surface $-1 0.68602362204724388 8.2609040825234469e-017 0.15748031496062992 0 0 -1 0.39370078740157477 0 0 reverse_v I I I I #
loop $-1 $-1 $47 $14 #
coedge $-1 $44 $44 $65 $66 reversed $25 $-1 #
coedge $-1 $45 $45 $28 $46 forward $67 $-1 #
edge $-1 $68 $68 $45 $69 forward #
coedge $-1 $47 $47 $29 $48 forward $43 $-1 #
edge $-1 $70 $70 $47 $71 forward #
vertex $-1 $31 $72 #
ellipse-curve $-1 -0.68602362204724388 1.4018478178951343e-018 0.15748031496062992 0 0 1 -0.18700787401574803 2.2901103073449969e-017 0 1 I I #
face $-1 $73 $74 $5 $-1 $75 forward single #
loop $-1 $76 $77 $32 #
cone-surface $-1 0 0 0.68897637795275579 0 0 1 -0.29999999999999999 0 0 1 I I 0 1 0.29999999999999999 forward I I I I #
coedge $-1 $54 $54 $37 $57 reversed $35 $-1 #
coedge $-1 $55 $55 $36 $56 forward $74 $-1 #
edge $-1 $78 $78 $55 $79 forward #
edge $-1 $80 $80 $54 $81 forward #
vertex $-1 $39 $82 #
ellipse-curve $-1 -2.0378947476104454e-034 -6.7929824920348191e-035 1.6339763779527556 4.0757894952208845e-033 1.3585964984069616e-033 -1 -0.13749999999999998 7.6138608376200852e-067 -5.6042105559287164e-034 1 I I #
face $-1 $83 $84 $4 $-1 $85 reversed single #
loop $-1 $86 $87 $40 #
cone-surface $-1 0.68602362204724388 8.2609040825234469e-017 0.23228346456692914 0 0 1 0.18700787401574803 0 0 1 I I 0 1 0.18700787401574803 reversed I I I I #
loop $-1 $-1 $88 $24 #
coedge $-1 $64 $64 $89 $90 forward $41 $-1 #
coedge $-1 $65 $65 $44 $66 forward $91 $-1 #
edge $-1 $92 $92 $65 $93 forward #
loop $-1 $94 $45 $95 #
vertex $-1 $46 $96 #
ellipse-curve $-1 -0.68602362204724388 1.4018478178951343e-018 0.30708661417322836 0 0 -1 -0.18700787401574803 2.2901103073449969e-017 0 1 I I #
vertex $-1 $48 $97 #
ellipse-curve $-1 -0.68602362204724388 1.4018478178951343e-018 0.15748031496062995 0 0 1 -0.11318897637795276 1.3861193965509192e-017 0 1 I I #
point $-1 -0.87303149606299202 2.4302950891345105e-017 0.15748031496062992 #
face $-1 $-1 $98 $5 $-1 $99 reversed single #
loop $-1 $100 $55 $51 #
plane-surface $-1 0.027272727272727261 5.3266340512714015e-018 0.76397637795275586 0 0 1 0.39370078740157477 0 0 forward_v I I I I #
loop $-1 $-1 $101 $32 #
coedge $-1 $77 $77 $102 $103 forward $52 $-1 #
vertex $-1 $56 $104 #
ellipse-curve $-1 0 0 0.76397637795275586 0 0 -1 -0.1875 0 0 1 I I #
vertex $-1 $57 $105 #
ellipse-curve $-1 0 0 1.5839763779527558 -4.0757894952208845e-033 -1.3585964984069616e-033 1 -0.1875 0 0 1 I I #
point $-1 0.13749999999999998 -1.6838337365057685e-017 1.6339763779527556 #
face $-1 $106 $107 $4 $-1 $108 forward single #
loop $-1 $109 $110 $60 #
cone-surface $-1 0.68602362204724388 8.2609040825234469e-017 -2.1177714764938353 0 0 1 0.11318897637795276 0 0 1 I I 0 1 0.11318897637795276 reversed I I I I #
loop $-1 $-1 $89 $40 #
coedge $-1 $87 $87 $111 $112 reversed $61 $-1 #
coedge $-1 $88 $88 $113 $114 reversed $63 $-1 #
coedge $-1 $89 $89 $64 $90 reversed $86 $-1 #
edge $-1 $115 $115 $64 $116 forward #
loop $-1 $117 $65 $118 #
vertex $-1 $66 $119 #
ellipse-curve $-1 -0.68602362204724388 1.4018478178951343e-018 0 0 0 1 -0.11318897637795276 1.3861193965509192e-017 0 1 I I #
loop $-1 $-1 $120 $95 #
face $-1 $121 $67 $4 $-1 $122 forward single #
point $-1 -0.87303149606299202 2.4302950891345105e-017 0.30708661417322836 #
point $-1 -0.5728346456692911 1.4018478178951322e-018 0.15748031496062995 #
loop $-1 $-1 $123 $73 #
plane-surface $-1 0.027272727272727261 5.3266340512714015e-018 0.68897637795275579 0 0 1 0.39370078740157477 0 0 forward_v I I I I #
loop $-1 $-1 $102 $51 #
coedge $-1 $101 $101 $123 $124 reversed $76 $-1 #
coedge $-1 $102 $102 $77 $103 reversed $100 $-1 #
edge $-1 $125 $125 $77 $126 forward #
point $-1 0.1875 2.2961369134169574e-017 0.76397637795275586 #
point $-1 0.1875 2.2961369134169574e-017 1.5839763779527558 #
face $-1 $95 $127 $4 $-1 $128 forward single #
loop $-1 $129 $130 $83 #
cone-surface $-1 0 0 0 0 0 1 0.49212598425196846 0 0 1 I I 0 1 0.49212598425196846 forward I I I I #
loop $-1 $-1 $113 $60 #
coedge $-1 $110 $110 $131 $132 reversed $84 $-1 #
coedge $-1 $111 $111 $87 $112 forward $133 $-1 #
edge $-1 $134 $134 $111 $135 forward #
coedge $-1 $113 $113 $88 $114 forward $109 $-1 #
edge $-1 $136 $136 $113 $137 forward #
vertex $-1 $90 $138 #
ellipse-curve $-1 0.68602362204724388 8.2609040825234469e-017 0.15748031496062992 0 0 1 0.18700787401574803 0 0 1 I I #
loop $-1 $139 $131 $118 #
face $-1 $140 $91 $4 $-1 $141 reversed single #
point $-1 -0.5728346456692911 1.4018478178951322e-018 0 #
coedge $-1 $142 $143 $144 $145 forward $94 $-1 #
face $-1 $146 $147 $4 $-1 $148 forward single #
plane-surface $-1 -1.0927391974657052e-016 5.8089418183176586e-017 0.30708661417322836 0 0 1 0.39370078740157477 0 0 forward_v I I I I #
coedge $-1 $123 $123 $101 $124 forward $98 $-1 #
edge $-1 $149 $149 $123 $150 forward #
vertex $-1 $103 $151 #
ellipse-curve $-1 0 0 0.76397637795275586 0 0 -1 -0.29999999999999999 0 0 1 I I #
loop $-1 $-1 $152 $106 #
plane-surface $-1 -0.044738725841088026 -6.4420584523890396e-018 0.68897637795275579 0 0 1 0.39370078740157477 0 0 forward_v I I I I #
loop $-1 $-1 $153 $83 #
coedge $-1 $130 $130 $152 $154 forward $107 $-1 #
coedge $-1 $131 $131 $110 $132 forward $117 $-1 #
edge $-1 $155 $155 $131 $156 forward #
loop $-1 $157 $111 $158 #
vertex $-1 $112 $159 #
ellipse-curve $-1 0.68602362204724388 8.2609040825234469e-017 0.30708661417322836 0 0 -1 0.18700787401574803 0 0 1 I I #
vertex $-1 $114 $160 #
ellipse-curve $-1 0.68602362204724388 8.2609040825234469e-017 0.15748031496062995 0 0 1 0.11318897637795276 0 0 1 I I #
point $-1 0.87303149606299202 8.2609040825234469e-017 0.15748031496062992 #
loop $-1 $-1 $161 $118 #
face $-1 $162 $163 $4 $-1 $164 forward single #
plane-surface $-1 -1.0927391974657052e-016 5.6320162379304063e-017 0 0 0 1 0.39370078740157477 0 0 forward_v I I I I #
coedge $-1 $165 $120 $166 $167 reversed $94 $-1 #
coedge $-1 $120 $165 $168 $169 reversed $94 $-1 #
coedge $-1 $170 $171 $120 $145 reversed $129 $-1 #
edge $-1 $172 $173 $120 $174 forward #
face $-1 $118 $175 $4 $-1 $148 forward single #
loop $-1 $-1 $176 $121 #
plane-surface $-1 1.0531496062992125 -0.36712598425196835 0 1.4526282565188966e-016 -1 0 0 0 -0.39370078740157477 forward_v I I I I #
vertex $-1 $124 $177 #
ellipse-curve $-1 0 0 0.68897637795275579 0 0 -1 -0.29999999999999999 0 0 1 I I #
point $-1 0.29999999999999999 3.6738190614671314e-017 0.76397637795275586 #
coedge $-1 $152 $152 $130 $154 reversed $127 $-1 #
coedge $-1 $178 $179 $180 $181 reversed $129 $-1 #
edge $-1 $182 $182 $130 $183 forward #
vertex $-1 $132 $184 #
ellipse-curve $-1 0.68602362204724388 8.2609040825234469e-017 0 0 0 1 0.11318897637795276 0 0 1 I I #
loop $-1 $-1 $185 $158 #
face $-1 $-1 $133 $4 $-1 $122 forward single #
point $-1 0.87303149606299202 8.2609040825234469e-017 0.30708661417322836 #
point $-1 0.5728346456692911 6.8747846859725275e-017 0.15748031496062995 #
coedge $-1 $186 $187 $188 $189 forward $139 $-1 #
face $-1 $190 $191 $4 $-1 $164 forward single #
loop $-1 $-1 $192 $140 #
plane-surface $-1 -1.0531496062992127 0.36712598425196857 0 -2.0751832235984234e-017 1 0 0 0 0.39370078740157477 forward_v I I I I #
coedge $-1 $143 $142 $193 $194 reversed $94 $-1 #
coedge $-1 $192 $195 $142 $167 forward $163 $-1 #
edge $-1 $196 $173 $166 $197 forward #
coedge $-1 $198 $176 $143 $169 forward $147 $-1 #
edge $-1 $172 $199 $168 $200 forward #
coedge $-1 $179 $144 $176 $201 reversed $129 $-1 #
coedge $-1 $144 $202 $192 $203 reversed $129 $-1 #
vertex $-1 $169 $204 #
vertex $-1 $203 $205 #
ellipse-curve $-1 0 0 0.30708661417322836 0 0 -1 0.49212598425196846 0 0 1 I I #
loop $-1 $-1 $180 $146 #
coedge $-1 $168 $206 $170 $201 forward $147 $-1 #
point $-1 0.29999999999999999 3.6738190614671314e-017 0.68897637795275579 #
coedge $-1 $207 $153 $185 $208 reversed $129 $-1 #
coedge $-1 $153 $170 $209 $210 forward $129 $-1 #
coedge $-1 $211 $212 $153 $181 forward $175 $-1 #
edge $-1 $213 $214 $180 $215 forward #
vertex $-1 $154 $216 #
ellipse-curve $-1 0 0 0.68897637795275579 0 0 -1 0.49212598425196846 0 0 1 I I #
point $-1 0.5728346456692911 6.8747846859725275e-017 0 #
coedge $-1 $217 $218 $178 $208 forward $157 $-1 #
coedge $-1 $219 $161 $220 $221 reversed $139 $-1 #
coedge $-1 $161 $222 $202 $223 reversed $139 $-1 #
coedge $-1 $224 $225 $161 $189 reversed $191 $-1 #
edge $-1 $226 $227 $161 $228 forward #
face $-1 $229 $230 $4 $-1 $231 forward single #
loop $-1 $-1 $224 $162 #
coedge $-1 $232 $166 $171 $203 forward $163 $-1 #
coedge $-1 $233 $234 $165 $194 forward $235 $-1 #
edge $-1 $199 $196 $165 $236 forward #
coedge $-1 $166 $232 $233 $237 reversed $163 $-1 #
vertex $-1 $167 $238 #
straight-curve $-1 -1.0531496062992127 0.36712598425196857 0.30708661417322836 0.39370078740157477 8.1700126913323744e-018 0 F 0 F 5.3500000000000005 #
coedge $-1 $206 $168 $234 $239 reversed $147 $-1 #
vertex $-1 $194 $240 #
straight-curve $-1 1.0531496062992125 -0.36712598425196835 0.30708661417322836 -0.39370078740157477 -5.7190088839326635e-017 0 F 0 F 5.3499999999999996 #
edge $-1 $241 $172 $176 $242 forward #
coedge $-1 $171 $207 $187 $223 forward $129 $-1 #
edge $-1 $173 $243 $192 $244 forward #
point $-1 -0.32772930302765424 -0.36712598425196857 0.30708661417322836 #
point $-1 -0.32772930302765424 0.36712598425196863 0.30708661417322836 #
coedge $-1 $176 $198 $245 $246 reversed $147 $-1 #
coedge $-1 $202 $178 $224 $247 reversed $129 $-1 #
edge $-1 $248 $213 $185 $174 forward #
coedge $-1 $245 $219 $179 $210 reversed $139 $-1 #
edge $-1 $241 $214 $179 $249 forward #
coedge $-1 $250 $180 $219 $251 reversed $175 $-1 #
coedge $-1 $180 $250 $217 $252 forward $175 $-1 #
vertex $-1 $181 $253 #
vertex $-1 $210 $254 #
straight-curve $-1 0.32772930302765441 -0.36712598425196846 0 0 0 -0.39370078740157477 I I #
point $-1 -0.49212598425196846 6.0266060719605177e-017 0.68897637795275579 #
coedge $-1 $255 $185 $212 $252 reversed $157 $-1 #
coedge $-1 $185 $255 $256 $257 reversed $157 $-1 #
coedge $-1 $209 $186 $211 $251 forward $139 $-1 #
coedge $-1 $258 $259 $186 $221 forward $230 $-1 #
edge $-1 $260 $227 $186 $261 forward #
coedge $-1 $187 $262 $232 $263 forward $139 $-1 #
edge $-1 $226 $243 $202 $249 forward #
coedge $-1 $256 $188 $207 $247 forward $191 $-1 #
coedge $-1 $188 $256 $258 $264 reversed $191 $-1 #
vertex $-1 $189 $265 #
vertex $-1 $221 $266 #
straight-curve $-1 -1.0531496062992127 0.36712598425196857 0 0.39370078740157477 8.1700126913323744e-018 0 F 0 F 5.3500000000000005 #
face $-1 $158 $235 $4 $-1 $267 forward single #
loop $-1 $-1 $268 $190 #
cone-surface $-1 0.68602362204724388 1.3112870369588462e-016 0 0 0 1 0.25959727301435259 0.25959727301435254 0 1 I I 0 1 0.36712598425196846 forward I I I I #
coedge $-1 $195 $192 $222 $263 reversed $163 $-1 #
coedge $-1 $269 $193 $195 $237 forward $235 $-1 #
coedge $-1 $193 $269 $198 $239 forward $235 $-1 #
loop $-1 $-1 $193 $229 #
ellipse-curve $-1 -0.6860236220472441 9.1228404214590136e-017 0.30708661417322836 0 0 -1 -0.25959727301435259 0.25959727301435243 0 1 I I #
edge $-1 $196 $270 $195 $271 forward #
point $-1 -0.6860236220472441 0.36712598425196857 0.30708661417322836 #
edge $-1 $272 $199 $198 $273 forward #
point $-1 -0.68602362204724432 -0.36712598425196863 0.30708661417322836 #
vertex $-1 $246 $274 #
straight-curve $-1 -0.32772930302765424 -0.36712598425196857 0 0 0 0.39370078740157477 I I #
vertex $-1 $223 $275 #
straight-curve $-1 -0.32772930302765424 0.36712598425196863 0 0 0 -0.39370078740157477 I I #
coedge $-1 $262 $209 $206 $246 forward $139 $-1 #
edge $-1 $241 $272 $245 $276 forward #
edge $-1 $226 $248 $224 $277 forward #
vertex $-1 $257 $278 #
ellipse-curve $-1 0 0 0 0 0 1 0.49212598425196846 0 0 1 I I #
coedge $-1 $212 $211 $259 $279 reversed $175 $-1 #
edge $-1 $260 $214 $219 $276 forward #
edge $-1 $280 $213 $212 $200 forward #
point $-1 0.32772930302765441 -0.36712598425196846 0.30708661417322836 #
point $-1 0.32772930302765441 -0.36712598425196846 0 #
coedge $-1 $218 $217 $268 $281 reversed $157 $-1 #
coedge $-1 $225 $224 $218 $257 forward $191 $-1 #
edge $-1 $248 $282 $256 $197 forward #
coedge $-1 $268 $220 $225 $264 forward $230 $-1 #
coedge $-1 $220 $268 $250 $279 forward $230 $-1 #
vertex $-1 $251 $283 #
ellipse-curve $-1 0.68602362204724388 8.2609040825234469e-017 0 0 0 1 0.25959727301435259 -0.25959727301435254 0 1 I I #
coedge $-1 $222 $245 $269 $284 reversed $139 $-1 #
edge $-1 $270 $243 $222 $228 forward #
edge $-1 $227 $282 $225 $285 forward #
point $-1 0.32772930302765424 0.36712598425196863 0 #
point $-1 0.68602362204724388 0.36712598425196863 0 #
cone-surface $-1 -0.68602362204724421 -1.3112870369588462e-016 0 0 0 1 -0.25959727301435243 -0.25959727301435265 0 1 I I 0 1 0.36712598425196846 forward I I I I #
coedge $-1 $259 $258 $255 $281 forward $230 $-1 #
coedge $-1 $234 $233 $262 $284 forward $235 $-1 #
vertex $-1 $263 $286 #
straight-curve $-1 -0.6860236220472441 0.36712598425196857 0 0 0 -0.39370078740157477 F -3.6707510000000001 F 2.8907510000000003 #
vertex $-1 $284 $287 #
straight-curve $-1 -0.6860236220472441 -0.36712598425196863 0 0 0 0.39370078740157477 F -2.8907510000000003 F 3.6707510000000001 #
point $-1 -0.32772930302765424 -0.36712598425196857 0 #
point $-1 -0.32772930302765424 0.36712598425196863 0 #
straight-curve $-1 1.0531496062992125 -0.36712598425196835 0 -0.39370078740157477 -5.7190088839326635e-017 0 F 0 F 5.3499999999999996 #
straight-curve $-1 0.32772930302765424 0.36712598425196863 0 0 0 0.39370078740157477 I I #
point $-1 0.32772930302765424 0.36712598425196863 0.30708661417322836 #
edge $-1 $280 $260 $250 $288 forward #
vertex $-1 $252 $289 #
edge $-1 $282 $280 $255 $290 forward #
vertex $-1 $264 $291 #
point $-1 0.68602362204724399 -0.36712598425196841 0 #
edge $-1 $270 $272 $262 $292 forward #
straight-curve $-1 0.68602362204724388 0.36712598425196863 0 0 0 0.39370078740157477 F -2.8907510000000003 F 3.6707510000000001 #
point $-1 -0.6860236220472441 0.36712598425196857 0 #
point $-1 -0.68602362204724432 -0.36712598425196863 0 #
straight-curve $-1 0.68602362204724399 -0.36712598425196841 0 0 0 -0.39370078740157477 F -3.6707510000000001 F 2.8907510000000003 #
point $-1 0.68602362204724399 -0.36712598425196841 0.30708661417322836 #
ellipse-curve $-1 0.68602362204724388 8.2609040825234469e-017 0.30708661417322836 0 0 -1 0.25959727301435259 -0.25959727301435254 0 1 I I #
point $-1 0.68602362204724388 0.36712598425196863 0.30708661417322836 #
ellipse-curve $-1 -0.6860236220472441 9.1228404214590136e-017 0 0 0 1 -0.25959727301435259 0.25959727301435243 0 1 I I #
End-of-ACIS-data 