400 0 1 0           
7 Unknown 11 ACIS 6.0 NT 24 Thu Dec 27 20:31:38 2001 
25.399999999999999 9.9999999999999995e-007 1e-010 
body $-1 $1 $-1 $-1 #
lump $-1 $-1 $2 $0 #
shell $-1 $-1 $-1 $3 $-1 $1 #
face $-1 $4 $5 $2 $-1 $6 forward single #
face $-1 $7 $8 $2 $-1 $9 reversed single #
loop $-1 $10 $11 $3 #
cone-surface $-1 0.39999999999999997 -1.6847509293485255e-016 0 0 0 -1 -1.6375789613221058e-017 -0.073749999999999996 0 1 I I 0 1 0.073749999999999996 forward I I I I #
face $-1 $12 $13 $2 $-1 $14 forward single #
loop $-1 $-1 $15 $4 #
plane-surface $-1 0.39999999999999997 0.0067045454545452791 -0.032000000000000001 0 0 1 -8.7419135797256413e-017 -0.39370078740157477 0 forward_v I I I I #
loop $-1 $-1 $16 $3 #
coedge $-1 $11 $11 $15 $17 forward $5 $-1 #
face $-1 $18 $19 $2 $-1 $20 reversed single #
loop $-1 $21 $22 $7 #
cone-surface $-1 -8.5614296893129715e-017 -0.40000000000000008 0 0 0 -1 -0.073749999999999996 9.0314718594400319e-018 0 1 I I 0 1 0.073749999999999996 forward I I I I #
coedge $-1 $15 $15 $11 $17 reversed $8 $-1 #
coedge $-1 $16 $16 $23 $24 reversed $10 $-1 #
edge $-1 $25 $25 $11 $26 forward #
face $-1 $27 $28 $2 $-1 $29 forward single #
loop $-1 $-1 $30 $12 #
plane-surface $-1 0.0067045454545453607 -0.40000000000000008 -0.032000000000000001 0 0 1 -0.39370078740157477 4.8212848575684139e-017 0 forward_v I I I I #
loop $-1 $-1 $31 $7 #
coedge $-1 $22 $22 $30 $32 forward $13 $-1 #
coedge $-1 $23 $23 $16 $24 forward $33 $-1 #
edge $-1 $34 $34 $23 $35 forward #
vertex $-1 $17 $36 #
ellipse-curve $-1 0.39999999999999997 -1.6847509293485255e-016 -0.032000000000000001 0 0 1 -1.6375789613221058e-017 -0.073749999999999996 0 1 I I #
face $-1 $37 $38 $2 $-1 $39 reversed single #
loop $-1 $40 $41 $18 #
cone-surface $-1 -0.39999999999999997 1.071290993109627e-016 0 0 0 -1 1.6375789613221058e-017 0.073749999999999996 0 1 I I 0 1 0.073749999999999996 forward I I I I #
coedge $-1 $30 $30 $22 $32 reversed $19 $-1 #
coedge $-1 $31 $31 $42 $43 reversed $21 $-1 #
edge $-1 $44 $44 $22 $45 forward #
loop $-1 $46 $23 $47 #
vertex $-1 $24 $48 #
ellipse-curve $-1 0.39999999999999997 -1.6847509293485255e-016 0 0 0 1 -1.6375789613221058e-017 -0.073749999999999996 0 1 I I #
point $-1 0.39999999999999997 0.073749999999999816 -0.032000000000000001 #
face $-1 $49 $50 $2 $-1 $51 forward single #
loop $-1 $-1 $52 $27 #
plane-surface $-1 -0.39999999999999997 -0.0067045454545453399 -0.032000000000000001 0 0 1 8.7419135797256413e-017 0.39370078740157477 0 forward_v I I I I #
loop $-1 $-1 $53 $18 #
coedge $-1 $41 $41 $52 $54 forward $28 $-1 #
coedge $-1 $42 $42 $31 $43 forward $46 $-1 #
edge $-1 $55 $55 $42 $56 forward #
vertex $-1 $32 $57 #
ellipse-curve $-1 -8.5614296893129715e-017 -0.40000000000000008 -0.032000000000000001 0 0 1 -0.073749999999999996 9.0314718594400319e-018 0 1 I I #
loop $-1 $58 $42 $47 #
face $-1 $-1 $33 $2 $-1 $59 reversed single #
point $-1 0.39999999999999997 0.073749999999999816 0 #
face $-1 $60 $61 $2 $-1 $62 reversed single #
loop $-1 $63 $64 $37 #
cone-surface $-1 6.1338465565555578e-017 0.39999999999999997 0 0 0 -1 0.073749999999999996 0 0 1 I I 0 1 0.073749999999999996 forward I I I I #
coedge $-1 $52 $52 $41 $54 reversed $38 $-1 #
coedge $-1 $53 $53 $65 $66 reversed $40 $-1 #
edge $-1 $67 $67 $41 $68 forward #
vertex $-1 $43 $69 #
ellipse-curve $-1 -8.5614296893129715e-017 -0.40000000000000008 0 0 0 1 -0.073749999999999996 9.0314718594400319e-018 0 1 I I #
point $-1 0.073749999999999899 -0.40000000000000008 -0.032000000000000001 #
loop $-1 $70 $65 $47 #
plane-surface $-1 -1.0927391974657052e-017 -8.1955439809927884e-017 0 0 0 1 0.39370078740157477 0 0 forward_v I I I I #
face $-1 $71 $72 $2 $-1 $73 forward single #
loop $-1 $-1 $74 $49 #
plane-surface $-1 -0.006704545454545385 0.39999999999999997 -0.032000000000000001 0 0 1 0.39370078740157477 0 0 forward_v I I I I #
loop $-1 $-1 $75 $37 #
coedge $-1 $64 $64 $74 $76 forward $50 $-1 #
coedge $-1 $65 $65 $53 $66 forward $58 $-1 #
edge $-1 $77 $77 $65 $78 forward #
vertex $-1 $54 $79 #
ellipse-curve $-1 -0.39999999999999997 1.071290993109627e-016 -0.032000000000000001 0 0 1 1.6375789613221058e-017 0.073749999999999996 0 1 I I #
point $-1 0.073749999999999899 -0.40000000000000008 0 #
loop $-1 $80 $81 $47 #
face $-1 $82 $83 $2 $-1 $84 forward single #
loop $-1 $85 $86 $60 #
cone-surface $-1 0.39999999999999997 -7.0506584629062364e-017 0.40400000000000003 0 0 1 1.6375789613221058e-017 0.073749999999999996 0 1 I I 0 1 0.073749999999999996 forward I I I I #
coedge $-1 $74 $74 $64 $76 reversed $61 $-1 #
coedge $-1 $75 $75 $81 $87 reversed $63 $-1 #
edge $-1 $88 $88 $64 $89 forward #
vertex $-1 $66 $90 #
ellipse-curve $-1 -0.39999999999999997 1.071290993109627e-016 0 0 0 1 1.6375789613221058e-017 0.073749999999999996 0 1 I I #
point $-1 -0.39999999999999997 -0.073749999999999885 -0.032000000000000001 #
loop $-1 $-1 $91 $47 #
coedge $-1 $81 $81 $75 $87 forward $70 $-1 #
face $-1 $92 $93 $2 $-1 $94 forward single #
loop $-1 $-1 $95 $71 #
plane-surface $-1 0.39999999999999997 -0.006704545454545522 0.43600000000000011 -1.5599087645341816e-047 -7.0252045306881112e-032 1 -8.7419135797256413e-017 -0.39370078740157477 -2.7658285553890198e-032 forward_v I I I I #
loop $-1 $-1 $96 $60 #
coedge $-1 $86 $86 $95 $97 forward $72 $-1 #
edge $-1 $98 $98 $81 $99 forward #
vertex $-1 $76 $100 #
ellipse-curve $-1 6.1338465565555578e-017 0.39999999999999997 -0.032000000000000001 0 0 1 0.073749999999999996 0 0 1 I I #
point $-1 -0.39999999999999997 -0.073749999999999885 0 #
coedge $-1 $101 $102 $103 $104 reversed $80 $-1 #
face $-1 $105 $106 $2 $-1 $107 forward single #
loop $-1 $108 $109 $82 #
cone-surface $-1 1.2354211412660479e-017 -0.40000000000000008 0.40400000000000003 0 0 1 0.073749999999999996 -9.0314718594400319e-018 0 1 I I 0 1 0.073749999999999996 forward I I I I #
coedge $-1 $95 $95 $86 $97 reversed $83 $-1 #
coedge $-1 $96 $96 $110 $111 reversed $85 $-1 #
edge $-1 $112 $112 $86 $113 forward #
vertex $-1 $87 $114 #
ellipse-curve $-1 6.1338465565555578e-017 0.39999999999999997 0 0 0 1 0.073749999999999996 0 0 1 I I #
point $-1 -0.073749999999999927 0.39999999999999997 -0.032000000000000001 #
coedge $-1 $115 $91 $116 $117 reversed $80 $-1 #
coedge $-1 $91 $118 $119 $120 reversed $80 $-1 #
coedge $-1 $121 $122 $91 $104 forward $123 $-1 #
edge $-1 $124 $125 $91 $126 forward #
face $-1 $127 $128 $2 $-1 $129 forward single #
loop $-1 $-1 $130 $92 #
plane-surface $-1 -0.0067045454545454396 -0.40000000000000008 0.43600000000000011 -7.0252045306881112e-032 8.6031101051824125e-048 1 -0.39370078740157477 4.8212848575684139e-017 -2.7658285553890198e-032 forward_v I I I I #
loop $-1 $-1 $131 $82 #
coedge $-1 $109 $109 $130 $132 forward $93 $-1 #
coedge $-1 $110 $110 $96 $111 forward $133 $-1 #
edge $-1 $134 $134 $110 $135 forward #
vertex $-1 $97 $136 #
ellipse-curve $-1 0.39999999999999997 -7.0506584629062364e-017 0.43600000000000005 0 0 -1 1.6375789613221058e-017 0.073749999999999996 0 1 I I #
point $-1 -0.073749999999999927 0.39999999999999997 0 #
coedge $-1 $137 $101 $138 $139 reversed $80 $-1 #
coedge $-1 $140 $141 $101 $117 forward $142 $-1 #
edge $143 $144 $124 $116 $145 forward #
coedge $-1 $102 $146 $147 $148 reversed $80 $-1 #
coedge $-1 $149 $150 $102 $120 forward $151 $-1 #
edge $-1 $125 $152 $119 $153 forward #
coedge $-1 $154 $103 $150 $155 forward $123 $-1 #
coedge $-1 $103 $154 $140 $156 forward $123 $-1 #
loop $-1 $-1 $154 $157 #
vertex $-1 $104 $158 #
vertex $-1 $120 $159 #
ellipse-curve $-1 -0.48109502274481697 0.16545132695195866 0 0 0 1 -0.01284033803866542 0.028490142489162838 0 1 I I #
face $-1 $160 $161 $2 $-1 $162 forward single #
loop $-1 $163 $164 $105 #
cone-surface $-1 -0.39999999999999997 9.1605910051725087e-018 0.40400000000000003 0 0 1 -1.6375789613221058e-017 -0.073749999999999996 0 1 I I 0 1 0.073749999999999996 forward I I I I #
coedge $-1 $130 $130 $109 $132 reversed $106 $-1 #
coedge $-1 $131 $131 $165 $166 reversed $108 $-1 #
edge $-1 $167 $167 $109 $168 forward #
loop $-1 $169 $110 $170 #
vertex $-1 $111 $171 #
ellipse-curve $-1 0.39999999999999997 -7.0506584629062364e-017 0.40400000000000003 0 0 -1 1.6375789613221058e-017 0.073749999999999996 0 1 I I #
point $-1 0.39999999999999997 -0.073750000000000066 0.43600000000000011 #
coedge $-1 $172 $115 $173 $174 reversed $80 $-1 #
coedge $-1 $175 $176 $115 $139 forward $177 $-1 #
edge $178 $179 $144 $138 $180 forward #
coedge $-1 $181 $116 $122 $156 reversed $142 $-1 #
coedge $-1 $116 $181 $175 $182 reversed $142 $-1 #
loop $-1 $-1 $140 $183 #
convexity-sys-attrib $-1 $-1 $-1 $117 #
vertex $-1 $139 $184 #
straight-curve $-1 -0.34850664021682259 0.14435617695488878 0 -0.36373209941389245 0.15066276864767303 0 F 0 F 0.41345899243317719 #
coedge $-1 $118 $185 $186 $187 reversed $80 $-1 #
coedge $-1 $188 $189 $118 $148 forward $190 $-1 #
edge $-1 $152 $191 $118 $192 forward #
coedge $-1 $193 $119 $189 $194 reversed $151 $-1 #
coedge $-1 $119 $193 $121 $155 reversed $151 $-1 #
loop $-1 $-1 $150 $195 #
vertex $-1 $194 $196 #
ellipse-curve $-1 1.2354211412660484e-017 -3.0672996811944928e-017 0 0 0 1 -0.49889494755609476 0.2066490534771486 0 1 F 0 F 0.78539816339744861 #
coedge $-1 $122 $121 $197 $198 forward $123 $-1 #
edge $-1 $125 $199 $150 $200 forward #
edge $-1 $201 $124 $140 $202 forward #
face $-1 $170 $123 $2 $-1 $203 forward single #
point $-1 -0.46913616548340797 0.19432256234293635 0 #
point $-1 -0.51064631406820871 0.17561418487284064 0 #
face $-1 $204 $205 $2 $-1 $206 forward single #
loop $-1 $-1 $207 $127 #
plane-surface $-1 -0.39999999999999997 0.0067045454545454604 0.43600000000000011 1.5599087645341816e-047 7.0252045306881112e-032 1 8.7419135797256413e-017 0.39370078740157477 -2.7658285553890198e-032 forward_v I I I I #
loop $-1 $-1 $208 $105 #
coedge $-1 $164 $164 $207 $209 forward $128 $-1 #
coedge $-1 $165 $165 $131 $166 forward $169 $-1 #
edge $-1 $210 $210 $165 $211 forward #
vertex $-1 $132 $212 #
ellipse-curve $-1 1.2354211412660479e-017 -0.40000000000000008 0.43600000000000005 0 0 -1 0.073749999999999996 -9.0314718594400319e-018 0 1 I I #
loop $-1 $213 $165 $170 #
face $-1 $195 $133 $2 $-1 $214 forward single #
point $-1 0.39999999999999997 -0.073750000000000066 0.40400000000000003 #
coedge $-1 $215 $137 $216 $217 reversed $80 $-1 #
coedge $-1 $218 $219 $137 $174 forward $220 $-1 #
edge $-1 $221 $179 $173 $222 forward #
coedge $-1 $223 $138 $141 $182 forward $177 $-1 #
coedge $-1 $138 $223 $218 $224 reversed $177 $-1 #
loop $-1 $-1 $223 $225 #
convexity-sys-attrib $-1 $-1 $-1 $139 #
vertex $-1 $174 $226 #
ellipse-curve $-1 -0.28871235390977729 0.28871235390977723 0 0 0 -1 0.059794286307045336 0.14435617695488842 0 1 F 0.78539816339744617 F 3.1415926535897931 #
coedge $-1 $141 $140 $227 $228 forward $142 $-1 #
edge $229 $144 $230 $175 $231 forward #
face $-1 $225 $142 $2 $-1 $232 forward single #
point $-1 -0.34850664021682259 0.14435617695488878 0 #
coedge $-1 $146 $233 $234 $235 reversed $80 $-1 #
coedge $-1 $236 $237 $146 $187 forward $238 $-1 #
edge $-1 $191 $239 $186 $240 forward #
coedge $-1 $241 $147 $237 $242 forward $190 $-1 #
coedge $-1 $147 $241 $149 $194 forward $190 $-1 #
loop $-1 $-1 $241 $243 #
vertex $-1 $187 $244 #
ellipse-curve $-1 -0.48109502274481708 -0.16545132695195858 0 0 0 1 -0.01284033803866542 -0.028490142489162838 0 1 I I #
coedge $-1 $150 $149 $245 $246 forward $151 $-1 #
edge $-1 $247 $152 $149 $248 forward #
face $-1 $243 $151 $2 $-1 $249 forward single #
point $-1 -0.51064631406820871 -0.17561418487284056 0 #
coedge $-1 $245 $227 $154 $198 reversed $250 $-1 #
edge $-1 $199 $201 $197 $251 forward #
vertex $-1 $155 $252 #
straight-curve $-1 -0.51064631406820871 0.17561418487284064 0 0 0 0.39370078740157477 F -0.24606350000000002 F 1.2722235000000002 #
vertex $-1 $228 $253 #
straight-curve $-1 -0.46913616548340797 0.19432256234293635 0 0 0 -0.39370078740157477 F -1.2722235000000002 F 0.24606350000000002 #
cone-surface $-1 -0.48109502274481697 0.16545132695195866 0 0 0 1 -0.01284033803866542 0.028490142489162838 0 1 I I 0 1 0.031249999999999997 forward I I I I #
face $-1 $157 $254 $2 $-1 $255 forward single #
loop $-1 $256 $257 $160 #
cone-surface $-1 -3.6630042740234605e-017 0.39999999999999997 0.40400000000000003 0 0 1 -0.073749999999999996 0 0 1 I I 0 1 0.073749999999999996 forward I I I I #
coedge $-1 $207 $207 $164 $209 reversed $161 $-1 #
coedge $-1 $208 $208 $258 $259 reversed $163 $-1 #
edge $-1 $260 $260 $164 $261 forward #
vertex $-1 $166 $262 #
ellipse-curve $-1 1.2354211412660479e-017 -0.40000000000000008 0.40400000000000003 0 0 -1 0.073749999999999996 -9.0314718594400319e-018 0 1 I I #
point $-1 -0.073749999999999982 -0.40000000000000008 0.43600000000000011 #
loop $-1 $263 $258 $170 #
plane-surface $-1 5.4636959873285258e-018 -6.8296199841606568e-017 0.40400000000000003 0 0 1 0.39370078740157477 0 0 forward_v I I I I #
coedge $-1 $264 $172 $265 $266 reversed $80 $-1 #
coedge $-1 $267 $268 $172 $217 forward $269 $-1 #
edge $-1 $270 $221 $172 $271 forward #
coedge $-1 $272 $173 $176 $224 forward $220 $-1 #
coedge $-1 $173 $272 $267 $273 reversed $220 $-1 #
loop $-1 $-1 $219 $274 #
vertex $-1 $174 $275 #
straight-curve $-1 -0.20664905347714876 0.49889494755609476 0 0.15066276864767336 -0.36373209941389234 0 F 0 F 0.41345899243317713 #
coedge $-1 $176 $175 $276 $277 forward $177 $-1 #
edge $278 $179 $279 $218 $280 forward #
face $-1 $274 $177 $2 $-1 $281 forward single #
point $-1 -0.14435617695488889 0.34850664021682259 0 #
coedge $-1 $197 $276 $181 $228 reversed $250 $-1 #
edge $-1 $201 $230 $181 $282 forward #
convexity-sys-attrib $-1 $-1 $-1 $182 #
vertex $-1 $182 $283 #
straight-curve $-1 -0.34850664021682259 0.14435617695488878 0 0 0 0.39370078740157477 I I #
plane-surface $-1 -0.49889494755609481 0.20664905347714854 0 0.3826834323650895 0.92387953251128685 0 0 0 0.39370078740157477 forward_v I I I I #
coedge $-1 $185 $284 $285 $286 reversed $80 $-1 #
coedge $-1 $287 $288 $185 $235 forward $289 $-1 #
edge $-1 $239 $290 $234 $291 forward #
coedge $-1 $292 $186 $288 $293 forward $238 $-1 #
coedge $-1 $186 $292 $188 $242 reversed $238 $-1 #
loop $-1 $-1 $237 $294 #
vertex $-1 $187 $295 #
straight-curve $-1 -0.49889494755609481 -0.20664905347714851 0 0.3637320994138924 0.15066276864767314 0 F 0 F 0.41345899243317868 #
coedge $-1 $189 $188 $296 $297 forward $190 $-1 #
edge $-1 $191 $298 $237 $299 forward #
face $-1 $300 $190 $2 $-1 $301 forward single #
point $-1 -0.46913616548340803 -0.19432256234293632 0 #
coedge $-1 $296 $197 $193 $246 reversed $250 $-1 #
edge $302 $247 $199 $193 $303 forward #
vertex $-1 $246 $304 #
straight-curve $-1 -0.51064631406820871 -0.17561418487284053 0 0 0 -0.39370078740157477 F -1.2722235000000002 F 0.24606350000000002 #
cone-surface $-1 1.2354211412660484e-017 -3.0672996811944928e-017 0 0 0 1 -0.49889494755609476 0.2066490534771486 0 1 I I 0 1 0.53999999999999992 forward I I I I #
loop $-1 $-1 $197 $170 #
ellipse-curve $-1 -0.48109502274481697 0.16545132695195866 0.40400000000000003 0 0 -1 -0.01284033803866542 0.028490142489162838 0 1 I I #
point $-1 -0.51064631406820871 0.17561418487284064 0.40400000000000003 #
point $-1 -0.46913616548340797 0.19432256234293635 0.40400000000000003 #
loop $-1 $-1 $305 $204 #
plane-surface $-1 0.0067045454545454153 0.39999999999999997 0.43600000000000011 7.0252045306881112e-032 0 1 0.39370078740157477 0 -2.7658285553890198e-032 forward_v I I I I #
loop $-1 $-1 $306 $160 #
coedge $-1 $257 $257 $305 $307 forward $205 $-1 #
coedge $-1 $258 $258 $208 $259 forward $213 $-1 #
edge $-1 $308 $308 $258 $309 forward #
vertex $-1 $209 $310 #
ellipse-curve $-1 -0.39999999999999997 9.1605910051725087e-018 0.43600000000000005 0 0 -1 -1.6375789613221058e-017 -0.073749999999999996 0 1 I I #
point $-1 -0.073749999999999982 -0.40000000000000008 0.40400000000000003 #
loop $-1 $250 $311 $170 #
coedge $-1 $312 $215 $313 $314 reversed $80 $-1 #
coedge $-1 $315 $316 $215 $266 forward $317 $-1 #
edge $318 $319 $270 $265 $320 forward #
coedge $-1 $321 $216 $219 $273 forward $269 $-1 #
coedge $-1 $216 $321 $315 $322 forward $269 $-1 #
loop $-1 $-1 $321 $323 #
vertex $-1 $322 $324 #
ellipse-curve $-1 -0.1654513269519588 0.48109502274481697 0 0 0 1 -0.028490142489162845 0.012840338038665406 0 1 I I #
coedge $-1 $219 $218 $325 $326 forward $220 $-1 #
edge $-1 $221 $327 $219 $328 forward #
face $-1 $47 $220 $2 $-1 $329 forward single #
point $-1 -0.19432256234293652 0.46913616548340786 0 #
coedge $-1 $227 $325 $223 $277 reversed $250 $-1 #
edge $-1 $230 $279 $223 $330 forward #
convexity-sys-attrib $-1 $-1 $-1 $224 #
vertex $-1 $224 $331 #
straight-curve $-1 -0.14435617695488889 0.34850664021682259 0 0 0 0.39370078740157477 I I #
cone-surface $-1 -0.28871235390977729 0.28871235390977723 0 0 0 1 0.059794286307045336 0.14435617695488842 0 1 I I 0 -1 0.15624999999999989 forward I I I I #
straight-curve $-1 -0.34850664021682259 0.14435617695488878 0.40400000000000003 0.36373209941389245 -0.15066276864767303 0 F -0.41345899243317719 F 0 #
point $-1 -0.34850664021682259 0.14435617695488878 0.40400000000000003 #
coedge $-1 $233 $332 $333 $334 reversed $80 $-1 #
coedge $-1 $335 $336 $233 $286 forward $337 $-1 #
edge $338 $290 $339 $285 $340 forward #
coedge $-1 $341 $234 $336 $342 forward $289 $-1 #
coedge $-1 $234 $341 $236 $293 reversed $289 $-1 #
loop $-1 $-1 $341 $343 #
vertex $-1 $235 $344 #
ellipse-curve $-1 -0.28871235390977684 -0.28871235390977706 0 0 0 -1 -0.1443561769548887 0.059794286307045051 0 1 F 0.78539816339745017 F 3.1415926535897931 #
coedge $-1 $237 $236 $345 $346 forward $238 $-1 #
edge $347 $239 $348 $236 $349 forward #
face $-1 $183 $238 $2 $-1 $350 forward single #
point $-1 -0.34850664021682209 -0.14435617695488848 0 #
coedge $-1 $345 $245 $241 $297 reversed $250 $-1 #
edge $-1 $298 $247 $296 $351 forward #
vertex $-1 $297 $352 #
straight-curve $-1 -0.46913616548340803 -0.19432256234293629 0 0 0 0.39370078740157477 F -0.24606350000000002 F 1.2722235000000002 #
face $-1 $353 $354 $2 $-1 $355 forward single #
cone-surface $-1 -0.48109502274481708 -0.16545132695195858 0 0 0 1 -0.01284033803866542 -0.028490142489162838 0 1 I I 0 1 0.031249999999999997 forward I I I I #
convexity-sys-attrib $-1 $-1 $-1 $246 #
ellipse-curve $-1 1.2354211412660484e-017 -3.0672996811944928e-017 0.40400000000000003 0 0 -1 -0.49889494755609476 0.2066490534771486 0 1 F -0.78539816339744861 F 0 #
point $-1 -0.51064631406820871 -0.17561418487284056 0.40400000000000003 #
coedge $-1 $305 $305 $257 $307 reversed $254 $-1 #
coedge $-1 $306 $306 $311 $356 reversed $256 $-1 #
edge $-1 $357 $357 $257 $358 forward #
vertex $-1 $259 $359 #
ellipse-curve $-1 -0.39999999999999997 9.1605910051725087e-018 0.40400000000000003 0 0 -1 -1.6375789613221058e-017 -0.073749999999999996 0 1 I I #
point $-1 -0.39999999999999997 0.073749999999999996 0.43600000000000011 #
coedge $-1 $311 $311 $306 $356 forward $263 $-1 #
coedge $-1 $360 $264 $361 $362 reversed $80 $-1 #
coedge $-1 $363 $364 $264 $314 forward $365 $-1 #
edge $-1 $366 $319 $264 $367 forward #
coedge $-1 $368 $265 $268 $322 reversed $317 $-1 #
coedge $-1 $265 $368 $363 $369 reversed $317 $-1 #
loop $-1 $-1 $315 $370 #
convexity-sys-attrib $-1 $-1 $-1 $266 #
vertex $-1 $266 $371 #
ellipse-curve $-1 1.2354211412660484e-017 -3.0672996811944928e-017 0 0 0 1 0.20664905347714807 0.49889494755609493 0 1 F 0 F 0.78539816339744806 #
coedge $-1 $268 $267 $372 $373 forward $269 $-1 #
edge $-1 $374 $270 $315 $375 forward #
face $-1 $370 $269 $2 $-1 $376 forward single #
point $-1 -0.17561418487284075 0.5106463140682086 0 #
coedge $-1 $276 $372 $272 $326 reversed $250 $-1 #
edge $377 $279 $327 $272 $378 forward #
vertex $-1 $373 $379 #
straight-curve $-1 -0.19432256234293654 0.46913616548340786 0 0 0 0.39370078740157477 F -0.24606350000000002 F 1.2722235000000002 #
plane-surface $-1 -0.14435617695488889 0.34850664021682259 0 -0.92387953251128663 -0.38268343236509034 0 0 0 0.39370078740157477 forward_v I I I I #
ellipse-curve $-1 -0.28871235390977729 0.28871235390977723 0.40400000000000003 0 0 1 0.059794286307045336 0.14435617695488842 0 1 F -3.1415926535897931 F -0.78539816339744617 #
point $-1 -0.14435617695488889 0.34850664021682259 0.40400000000000003 #
coedge $-1 $284 $380 $381 $382 reversed $80 $-1 #
coedge $-1 $383 $384 $284 $334 forward $354 $-1 #
edge $-1 $339 $385 $284 $386 forward #
coedge $-1 $387 $285 $384 $388 reversed $337 $-1 #
coedge $-1 $285 $387 $287 $342 reversed $337 $-1 #
loop $-1 $-1 $335 $389 #
convexity-sys-attrib $-1 $-1 $-1 $286 #
vertex $-1 $334 $390 #
straight-curve $-1 -0.14435617695488814 -0.34850664021682215 0 -0.15066276864767297 -0.36373209941389245 0 F 0 F 0.41345899243317896 #
coedge $-1 $288 $287 $391 $392 forward $289 $-1 #
edge $393 $290 $394 $287 $395 forward #
face $-1 $294 $289 $2 $-1 $396 forward single #
point $-1 -0.14435617695488814 -0.34850664021682215 0 #
coedge $-1 $391 $296 $292 $346 reversed $250 $-1 #
edge $397 $348 $298 $292 $398 forward #
convexity-sys-attrib $-1 $-1 $-1 $293 #
vertex $-1 $293 $399 #
straight-curve $-1 -0.34850664021682209 -0.14435617695488848 0 0 0 0.39370078740157477 I I #
plane-surface $-1 -0.34850664021682209 -0.14435617695488848 0 0.38268343236508978 -0.92387953251128674 0 0 0 -0.39370078740157477 forward_v I I I I #
ellipse-curve $-1 -0.48109502274481708 -0.16545132695195858 0.40400000000000003 0 0 -1 -0.01284033803866542 -0.028490142489162838 0 1 I I #
point $-1 -0.46913616548340803 -0.19432256234293632 0.40400000000000003 #
face $-1 $400 $401 $2 $-1 $402 forward single #
loop $-1 $-1 $403 $300 #
cone-surface $-1 -0.1654513269519583 -0.48109502274481725 0 0 0 1 -0.028490142489162835 -0.012840338038665428 0 1 I I 0 1 0.031249999999999997 forward I I I I #
edge $-1 $404 $404 $311 $405 forward #
vertex $-1 $307 $406 #
ellipse-curve $-1 -3.6630042740234605e-017 0.39999999999999997 0.43600000000000005 0 0 -1 -0.073749999999999996 0 0 1 I I #
point $-1 -0.39999999999999997 0.073749999999999996 0.40400000000000003 #
coedge $-1 $407 $312 $408 $409 reversed $80 $-1 #
coedge $-1 $410 $411 $312 $362 forward $412 $-1 #
edge $413 $414 $366 $361 $415 forward #
coedge $-1 $416 $313 $316 $369 forward $365 $-1 #
coedge $-1 $313 $416 $410 $417 forward $365 $-1 #
loop $-1 $-1 $416 $418 #
vertex $-1 $314 $419 #
ellipse-curve $-1 0.16545132695195813 0.48109502274481714 0 0 0 1 0.028490142489162838 0.01284033803866542 0 1 I I #
coedge $-1 $316 $315 $420 $421 forward $317 $-1 #
edge $-1 $319 $422 $316 $423 forward #
face $-1 $418 $317 $2 $-1 $424 forward single #
point $-1 0.17561418487284006 0.51064631406820882 0 #
coedge $-1 $325 $420 $321 $373 reversed $250 $-1 #
edge $-1 $327 $374 $372 $425 forward #
vertex $-1 $421 $426 #
straight-curve $-1 -0.17561418487284075 0.51064631406820871 0 0 0 -0.39370078740157477 F -1.2722235000000002 F 0.24606350000000002 #
cone-surface $-1 -0.1654513269519588 0.48109502274481697 0 0 0 1 -0.028490142489162845 0.012840338038665406 0 1 I I 0 1 0.031249999999999997 forward I I I I #
convexity-sys-attrib $-1 $-1 $-1 $326 #
straight-curve $-1 -0.20664905347714876 0.49889494755609476 0.40400000000000003 -0.15066276864767336 0.36373209941389234 0 F -0.41345899243317713 F 0 #
point $-1 -0.19432256234293652 0.46913616548340786 0.40400000000000003 #
coedge $-1 $332 $427 $428 $429 reversed $80 $-1 #
coedge $-1 $430 $431 $332 $382 forward $401 $-1 #
edge $-1 $385 $432 $381 $433 forward #
coedge $-1 $403 $333 $431 $434 forward $354 $-1 #
coedge $-1 $333 $403 $335 $388 forward $354 $-1 #
vertex $-1 $382 $435 #
ellipse-curve $-1 -0.1654513269519583 -0.48109502274481725 0 0 0 1 -0.028490142489162835 -0.012840338038665428 0 1 I I #
coedge $-1 $336 $335 $436 $437 forward $337 $-1 #
edge $-1 $438 $339 $335 $439 forward #
face $-1 $343 $337 $2 $-1 $440 forward single #
point $-1 -0.19432256234293599 -0.4691361654834082 0 #
coedge $-1 $436 $345 $341 $392 reversed $250 $-1 #
edge $441 $394 $348 $341 $442 forward #
convexity-sys-attrib $-1 $-1 $-1 $342 #
vertex $-1 $342 $443 #
straight-curve $-1 -0.14435617695488814 -0.34850664021682215 0 0 0 0.39370078740157477 I I #
cone-surface $-1 -0.28871235390977684 -0.28871235390977706 0 0 0 1 -0.1443561769548887 0.059794286307045051 0 1 I I 0 -1 0.15625000000000006 forward I I I I #
convexity-sys-attrib $-1 $-1 $-1 $346 #
straight-curve $-1 -0.49889494755609481 -0.20664905347714851 0.40400000000000003 -0.3637320994138924 -0.15066276864767314 0 F -0.41345899243317868 F 0 #
point $-1 -0.34850664021682209 -0.14435617695488848 0.40400000000000003 #
face $-1 $444 $445 $2 $-1 $446 forward single #
loop $-1 $-1 $431 $353 #
cone-surface $-1 1.2354211412660484e-017 -3.0672996811944928e-017 0 0 0 1 -0.20664905347714815 -0.49889494755609498 0 1 I I 0 1 0.54000000000000004 forward I I I I #
coedge $-1 $384 $383 $447 $448 forward $354 $-1 #
vertex $-1 $356 $449 #
ellipse-curve $-1 -3.6630042740234605e-017 0.39999999999999997 0.40400000000000003 0 0 -1 -0.073749999999999996 0 0 1 I I #
point $-1 0.073749999999999954 0.39999999999999997 0.43600000000000011 #
coedge $-1 $450 $360 $451 $452 reversed $80 $-1 #
coedge $-1 $453 $454 $360 $409 forward $455 $-1 #
edge $456 $457 $414 $408 $458 forward #
coedge $-1 $459 $361 $364 $417 reversed $412 $-1 #
coedge $-1 $361 $459 $453 $460 reversed $412 $-1 #
loop $-1 $-1 $410 $461 #
convexity-sys-attrib $-1 $-1 $-1 $362 #
vertex $-1 $409 $462 #
straight-curve $-1 0.14435617695488809 0.34850664021682209 0 0.15066276864767283 0.36373209941389251 0 F 0 F 0.41345899243317902 #
coedge $-1 $364 $363 $463 $464 forward $365 $-1 #
edge $-1 $465 $366 $410 $466 forward #
face $-1 $461 $365 $2 $-1 $467 forward single #
point $-1 0.19432256234293585 0.46913616548340814 0 #
coedge $-1 $372 $463 $368 $421 reversed $250 $-1 #
edge $-1 $374 $422 $368 $468 forward #
vertex $-1 $369 $469 #
straight-curve $-1 0.17561418487284006 0.51064631406820882 0 0 0 0.39370078740157477 F -0.24606350000000002 F 1.2722235000000002 #
cone-surface $-1 1.2354211412660484e-017 -3.0672996811944928e-017 0 0 0 1 0.20664905347714807 0.49889494755609493 0 1 I I 0 1 0.53999999999999981 forward I I I I #
ellipse-curve $-1 -0.1654513269519588 0.48109502274481697 0.40400000000000003 0 0 -1 -0.028490142489162845 0.012840338038665406 0 1 I I #
point $-1 -0.17561418487284075 0.5106463140682086 0.40400000000000003 #
coedge $-1 $380 $470 $471 $472 reversed $80 $-1 #
coedge $-1 $473 $474 $380 $429 forward $445 $-1 #
edge $-1 $432 $475 $380 $476 forward #
coedge $-1 $477 $381 $474 $478 reversed $401 $-1 #
coedge $-1 $381 $477 $383 $434 reversed $401 $-1 #
vertex $-1 $478 $479 #
ellipse-curve $-1 1.2354211412660484e-017 -3.0672996811944928e-017 0 0 0 1 -0.20664905347714815 -0.49889494755609498 0 1 F 0 F 0.78539816339744828 #
edge $-1 $385 $480 $431 $481 forward #
point $-1 -0.17561418487284028 -0.51064631406820904 0 #
coedge $-1 $447 $391 $387 $437 reversed $250 $-1 #
edge $-1 $438 $394 $387 $482 forward #
vertex $-1 $437 $483 #
straight-curve $-1 -0.19432256234293599 -0.4691361654834082 0 0 0 -0.39370078740157477 F -1.2722235000000002 F 0.24606350000000002 #
plane-surface $-1 -0.20664905347714815 -0.49889494755609498 0 -0.92387953251128696 0.38268343236508939 0 0 0 0.39370078740157477 forward_v I I I I #
convexity-sys-attrib $-1 $-1 $-1 $392 #
ellipse-curve $-1 -0.28871235390977684 -0.28871235390977706 0.40400000000000003 0 0 1 -0.1443561769548887 0.059794286307045051 0 1 F -3.1415926535897931 F -0.78539816339745017 #
point $-1 -0.14435617695488814 -0.34850664021682215 0.40400000000000003 #
face $-1 $484 $485 $2 $-1 $486 forward single #
loop $-1 $-1 $487 $400 #
cone-surface $-1 0.16545132695195891 -0.48109502274481697 0 0 0 1 0.028490142489162838 -0.01284033803866542 0 1 I I 0 1 0.031249999999999997 forward I I I I #
coedge $-1 $488 $436 $403 $448 reversed $250 $-1 #
edge $-1 $480 $438 $447 $489 forward #
point $-1 0.073749999999999954 0.39999999999999997 0.40400000000000003 #
coedge $-1 $490 $407 $491 $492 reversed $80 $-1 #
coedge $-1 $493 $494 $407 $452 forward $495 $-1 #
edge $-1 $496 $457 $451 $497 forward #
coedge $-1 $498 $408 $411 $460 forward $455 $-1 #
coedge $-1 $408 $498 $493 $499 reversed $455 $-1 #
loop $-1 $-1 $498 $500 #
convexity-sys-attrib $-1 $-1 $-1 $409 #
vertex $-1 $452 $501 #
ellipse-curve $-1 0.28871235390977668 0.2887123539097769 0 0 0 -1 0.14435617695488859 -0.059794286307045204 0 1 F 0.78539816339744917 F 3.1415926535897931 #
coedge $-1 $411 $410 $502 $503 forward $412 $-1 #
edge $504 $414 $505 $453 $506 forward #
face $-1 $500 $412 $2 $-1 $507 forward single #
point $-1 0.14435617695488809 0.34850664021682209 0 #
coedge $-1 $420 $502 $416 $464 reversed $250 $-1 #
edge $-1 $422 $465 $463 $508 forward #
vertex $-1 $503 $509 #
straight-curve $-1 0.19432256234293585 0.46913616548340814 0 0 0 -0.39370078740157477 F -1.2722235000000002 F 0.24606350000000002 #
cone-surface $-1 0.16545132695195813 0.48109502274481714 0 0 0 1 0.028490142489162838 0.01284033803866542 0 1 I I 0 1 0.031249999999999997 forward I I I I #
ellipse-curve $-1 1.2354211412660484e-017 -3.0672996811944928e-017 0.40400000000000003 0 0 -1 0.20664905347714807 0.49889494755609493 0 1 F -0.78539816339744806 F 0 #
point $-1 0.17561418487284006 0.51064631406820882 0.40400000000000003 #
coedge $-1 $427 $510 $511 $512 reversed $80 $-1 #
coedge $-1 $513 $514 $427 $472 forward $515 $-1 #
edge $-1 $475 $516 $471 $517 forward #
coedge $-1 $487 $428 $514 $518 forward $445 $-1 #
coedge $-1 $428 $487 $430 $478 forward $445 $-1 #
vertex $-1 $472 $519 #
ellipse-curve $-1 0.16545132695195891 -0.48109502274481697 0 0 0 1 0.028490142489162838 -0.01284033803866542 0 1 I I #
coedge $-1 $431 $430 $488 $520 forward $401 $-1 #
edge $-1 $521 $432 $430 $522 forward #
point $-1 0.17561418487284097 -0.51064631406820871 0 #
vertex $-1 $434 $523 #
straight-curve $-1 -0.17561418487284022 -0.51064631406820893 0 0 0 0.39370078740157477 F -0.24606350000000002 F 1.2722235000000002 #
straight-curve $-1 -0.14435617695488814 -0.34850664021682215 0.40400000000000003 0.15066276864767297 0.36373209941389245 0 F -0.41345899243317896 F 0 #
point $-1 -0.19432256234293599 -0.4691361654834082 0.40400000000000003 #
face $-1 $524 $525 $2 $-1 $526 forward single #
loop $-1 $-1 $527 $444 #
cone-surface $-1 0.48109502274481708 -0.16545132695195866 0 0 0 1 0.012840338038665314 -0.028490142489162894 0 1 I I 0 1 0.03125 forward I I I I #
coedge $-1 $474 $473 $528 $529 forward $445 $-1 #
coedge $-1 $528 $447 $477 $520 reversed $250 $-1 #
ellipse-curve $-1 -0.1654513269519583 -0.48109502274481725 0.40400000000000003 0 0 -1 -0.028490142489162835 -0.012840338038665428 0 1 I I #
coedge $-1 $530 $450 $531 $532 reversed $80 $-1 #
coedge $-1 $533 $534 $450 $492 forward $535 $-1 #
edge $-1 $536 $496 $450 $537 forward #
coedge $-1 $538 $451 $454 $499 forward $495 $-1 #
coedge $-1 $451 $538 $533 $539 reversed $495 $-1 #
loop $-1 $-1 $494 $540 #
vertex $-1 $452 $541 #
straight-curve $-1 0.49889494755609481 0.2066490534771484 0 -0.3637320994138924 -0.15066276864767311 0 F 0 F 0.41345899243317913 #
coedge $-1 $454 $453 $542 $543 forward $455 $-1 #
edge $544 $457 $545 $493 $546 forward #
face $-1 $540 $455 $2 $-1 $547 forward single #
point $-1 0.34850664021682193 0.14435617695488831 0 #
coedge $-1 $463 $542 $459 $503 reversed $250 $-1 #
edge $-1 $465 $505 $459 $548 forward #
convexity-sys-attrib $-1 $-1 $-1 $460 #
vertex $-1 $460 $549 #
straight-curve $-1 0.14435617695488809 0.34850664021682209 0 0 0 0.39370078740157477 I I #
plane-surface $-1 0.20664905347714807 0.49889494755609498 0 0.92387953251128707 -0.38268343236508906 0 0 0 -0.39370078740157477 forward_v I I I I #
ellipse-curve $-1 0.16545132695195813 0.48109502274481714 0.40400000000000003 0 0 -1 0.028490142489162838 0.01284033803866542 0 1 I I #
point $-1 0.19432256234293585 0.46913616548340814 0.40400000000000003 #
coedge $-1 $470 $530 $550 $551 reversed $80 $-1 #
coedge $-1 $552 $553 $470 $512 forward $554 $-1 #
edge $555 $516 $556 $511 $557 forward #
coedge $-1 $558 $471 $553 $559 forward $515 $-1 #
coedge $-1 $471 $558 $473 $518 reversed $515 $-1 #
loop $-1 $-1 $514 $560 #
vertex $-1 $472 $561 #
straight-curve $-1 0.20664905347714882 -0.49889494755609476 0 -0.15066276864767336 0.36373209941389228 0 F 0 F 0.41345899243317707 #
edge $-1 $475 $562 $514 $563 forward #
point $-1 0.1943225623429366 -0.46913616548340797 0 #
edge $564 $521 $480 $477 $565 forward #
vertex $-1 $520 $566 #
straight-curve $-1 0.17561418487284094 -0.51064631406820871 0 0 0 -0.39370078740157477 F -1.2722235000000002 F 0.24606350000000002 #
point $-1 -0.17561418487284028 -0.51064631406820904 0.40400000000000003 #
face $-1 $323 $535 $2 $-1 $567 forward single #
loop $-1 $-1 $568 $484 #
cone-surface $-1 1.2354211412660484e-017 -3.0672996811944928e-017 0 0 0 1 0.49889494755609476 -0.2066490534771486 0 1 I I 0 1 0.53999999999999992 forward I I I I #
coedge $-1 $569 $570 $571 $572 forward $485 $-1 #
coedge $-1 $573 $488 $487 $529 reversed $250 $-1 #
edge $-1 $562 $521 $528 $574 forward #
coedge $-1 $510 $490 $575 $576 reversed $80 $-1 #
coedge $-1 $577 $568 $490 $532 forward $525 $-1 #
edge $-1 $578 $536 $531 $579 forward #
coedge $-1 $580 $491 $494 $539 forward $535 $-1 #
coedge $-1 $491 $580 $577 $581 forward $535 $-1 #
loop $-1 $-1 $580 $524 #
vertex $-1 $581 $582 #
ellipse-curve $-1 0.48109502274481708 0.16545132695195847 0 0 0 1 0.012840338038665513 0.0284901424891628 0 1 I I #
coedge $-1 $494 $493 $583 $584 forward $495 $-1 #
edge $-1 $496 $585 $494 $586 forward #
face $-1 $587 $495 $2 $-1 $588 forward single #
point $-1 0.46913616548340803 0.19432256234293624 0 #
coedge $-1 $502 $583 $498 $543 reversed $250 $-1 #
edge $-1 $505 $545 $498 $589 forward #
convexity-sys-attrib $-1 $-1 $-1 $499 #
vertex $-1 $499 $590 #
straight-curve $-1 0.34850664021682193 0.14435617695488831 0 0 0 0.39370078740157477 I I #
cone-surface $-1 0.28871235390977668 0.2887123539097769 0 0 0 1 0.14435617695488859 -0.059794286307045204 0 1 I I 0 -1 0.15625 forward I I I I #
straight-curve $-1 0.14435617695488809 0.34850664021682209 0.40400000000000003 -0.15066276864767283 -0.36373209941389251 0 F -0.41345899243317902 F 0 #
point $-1 0.14435617695488809 0.34850664021682209 0.40400000000000003 #
coedge $-1 $591 $592 $510 $551 forward $593 $-1 #
edge $594 $556 $595 $550 $596 forward #
coedge $-1 $597 $511 $592 $598 forward $554 $-1 #
coedge $-1 $511 $597 $513 $559 reversed $554 $-1 #
loop $-1 $-1 $597 $599 #
convexity-sys-attrib $-1 $-1 $-1 $512 #
vertex $-1 $512 $600 #
ellipse-curve $-1 0.2887123539097774 -0.28871235390977723 0 0 0 -1 -0.059794286307045412 -0.14435617695488845 0 1 F 0.78539816339744617 F 3.1415926535897931 #
coedge $-1 $514 $513 $573 $601 forward $515 $-1 #
edge $602 $516 $603 $513 $604 forward #
face $-1 $389 $515 $2 $-1 $605 forward single #
point $-1 0.14435617695488892 -0.34850664021682259 0 #
vertex $-1 $529 $606 #
straight-curve $-1 0.19432256234293657 -0.46913616548340797 0 0 0 0.39370078740157477 F -0.24606350000000002 F 1.2722235000000002 #
convexity-sys-attrib $-1 $-1 $-1 $520 #
ellipse-curve $-1 1.2354211412660484e-017 -3.0672996811944928e-017 0.40400000000000003 0 0 -1 -0.20664905347714815 -0.49889494755609498 0 1 F -0.78539816339744828 F 0 #
point $-1 0.17561418487284097 -0.51064631406820871 0.40400000000000003 #
cone-surface $-1 0.48109502274481708 0.16545132695195847 0 0 0 1 0.012840338038665513 0.0284901424891628 0 1 I I 0 1 0.03125 forward I I I I #
coedge $-1 $531 $607 $570 $608 reversed $525 $-1 #
coedge $-1 $575 $527 $591 $609 forward $485 $-1 #
coedge $-1 $527 $575 $568 $608 forward $485 $-1 #
coedge $-1 $610 $611 $527 $572 reversed $250 $-1 #
edge $-1 $612 $613 $571 $614 forward #
coedge $-1 $615 $528 $558 $601 reversed $250 $-1 #
ellipse-curve $-1 0.16545132695195891 -0.48109502274481697 0.40400000000000003 0 0 -1 0.028490142489162838 -0.01284033803866542 0 1 I I #
coedge $-1 $570 $569 $530 $576 forward $485 $-1 #
edge $-1 $595 $578 $530 $616 forward #
coedge $-1 $607 $531 $534 $581 reversed $525 $-1 #
vertex $-1 $532 $617 #
ellipse-curve $-1 1.2354211412660484e-017 -3.0672996811944928e-017 0 0 0 1 0.49889494755609476 -0.2066490534771486 0 1 F 0 F 0.78539816339744861 #
coedge $-1 $534 $533 $618 $619 forward $535 $-1 #
edge $-1 $620 $536 $577 $621 forward #
point $-1 0.51064631406820882 0.17561418487284045 0 #
coedge $-1 $542 $618 $538 $584 reversed $250 $-1 #
edge $622 $545 $585 $538 $623 forward #
vertex $-1 $619 $624 #
straight-curve $-1 0.46913616548340803 0.19432256234293621 0 0 0 0.39370078740157477 F -0.24606350000000002 F 1.2722235000000002 #
face $-1 $599 $593 $2 $-1 $625 forward single #
plane-surface $-1 0.34850664021682193 0.14435617695488831 0 -0.38268343236508973 0.92387953251128674 0 0 0 0.39370078740157477 forward_v I I I I #
ellipse-curve $-1 0.28871235390977668 0.2887123539097769 0.40400000000000003 0 0 1 0.14435617695488859 -0.059794286307045204 0 1 F -3.1415926535897931 F -0.78539816339744917 #
point $-1 0.34850664021682193 0.14435617695488831 0.40400000000000003 #
coedge $-1 $626 $550 $569 $609 reversed $593 $-1 #
coedge $-1 $550 $626 $552 $598 reversed $593 $-1 #
loop $-1 $-1 $591 $587 #
convexity-sys-attrib $-1 $-1 $-1 $551 #
vertex $-1 $576 $627 #
straight-curve $-1 0.34850664021682282 -0.14435617695488873 0 0.36373209941389223 -0.15066276864767345 0 F 0 F 0.41345899243317691 #
coedge $-1 $553 $552 $615 $628 forward $554 $-1 #
edge $629 $556 $630 $552 $631 forward #
face $-1 $560 $554 $2 $-1 $632 forward single #
point $-1 0.34850664021682282 -0.14435617695488873 0 #
edge $633 $603 $562 $558 $634 forward #
convexity-sys-attrib $-1 $-1 $-1 $559 #
vertex $-1 $559 $635 #
straight-curve $-1 0.14435617695488892 -0.34850664021682259 0 0 0 0.39370078740157477 I I #
plane-surface $-1 0.14435617695488892 -0.34850664021682259 0 0.92387953251128652 0.38268343236509039 0 0 0 -0.39370078740157477 forward_v I I I I #
point $-1 0.1943225623429366 -0.46913616548340797 0.40400000000000003 #
coedge $-1 $568 $577 $610 $636 forward $525 $-1 #
edge $-1 $578 $612 $568 $637 forward #
edge $-1 $613 $595 $591 $638 forward #
coedge $-1 $618 $571 $607 $636 reversed $250 $-1 #
coedge $-1 $571 $615 $626 $639 reversed $250 $-1 #
vertex $-1 $608 $640 #
vertex $-1 $639 $641 #
ellipse-curve $-1 0.48109502274481708 -0.16545132695195866 0.40400000000000003 0 0 -1 0.012840338038665314 -0.028490142489162894 0 1 I I #
coedge $-1 $611 $573 $597 $628 reversed $250 $-1 #
ellipse-curve $-1 0.48109502274481708 -0.16545132695195866 0 0 0 1 0.012840338038665314 -0.028490142489162894 0 1 I I #
point $-1 0.51064631406820871 -0.17561418487284064 0 #
coedge $-1 $583 $610 $580 $619 reversed $250 $-1 #
edge $-1 $585 $620 $618 $642 forward #
vertex $-1 $636 $643 #
straight-curve $-1 0.51064631406820882 0.17561418487284045 0 0 0 -0.39370078740157477 F -1.2722235000000002 F 0.24606350000000002 #
convexity-sys-attrib $-1 $-1 $-1 $584 #
straight-curve $-1 0.49889494755609481 0.2066490534771484 0.40400000000000003 0.3637320994138924 0.15066276864767311 0 F -0.41345899243317913 F 0 #
point $-1 0.46913616548340803 0.19432256234293624 0.40400000000000003 #
plane-surface $-1 0.49889494755609481 -0.20664905347714863 0 -0.38268343236509061 -0.92387953251128641 0 0 0 -0.39370078740157477 forward_v I I I I #
coedge $-1 $592 $591 $611 $639 forward $593 $-1 #
point $-1 0.46913616548340797 -0.19432256234293638 0 #
edge $644 $630 $603 $597 $645 forward #
convexity-sys-attrib $-1 $-1 $-1 $598 #
vertex $-1 $598 $646 #
straight-curve $-1 0.34850664021682282 -0.14435617695488873 0 0 0 0.39370078740157477 I I #
cone-surface $-1 0.2887123539097774 -0.28871235390977723 0 0 0 1 -0.059794286307045412 -0.14435617695488845 0 1 I I 0 -1 0.15624999999999994 forward I I I I #
convexity-sys-attrib $-1 $-1 $-1 $601 #
straight-curve $-1 0.20664905347714882 -0.49889494755609476 0.40400000000000003 0.15066276864767336 -0.36373209941389228 0 F -0.41345899243317707 F 0 #
point $-1 0.14435617695488892 -0.34850664021682259 0.40400000000000003 #
edge $647 $620 $612 $607 $648 forward #
straight-curve $-1 0.51064631406820871 -0.17561418487284064 0 0 0 0.39370078740157477 F -0.24606350000000002 F 1.2722235000000002 #
straight-curve $-1 0.46913616548340797 -0.19432256234293638 0 0 0 -0.39370078740157477 F -1.2722235000000002 F 0.24606350000000002 #
edge $-1 $613 $630 $626 $649 forward #
point $-1 0.51064631406820871 -0.17561418487284064 0.40400000000000003 #
point $-1 0.46913616548340797 -0.19432256234293638 0.40400000000000003 #
ellipse-curve $-1 0.48109502274481708 0.16545132695195847 0.40400000000000003 0 0 -1 0.012840338038665513 0.0284901424891628 0 1 I I #
point $-1 0.51064631406820882 0.17561418487284045 0.40400000000000003 #
convexity-sys-attrib $-1 $-1 $-1 $628 #
ellipse-curve $-1 0.2887123539097774 -0.28871235390977723 0.40400000000000003 0 0 1 -0.059794286307045412 -0.14435617695488845 0 1 F -3.1415926535897931 F -0.78539816339744617 #
point $-1 0.34850664021682282 -0.14435617695488873 0.40400000000000003 #
convexity-sys-attrib $-1 $-1 $-1 $636 #
ellipse-curve $-1 1.2354211412660484e-017 -3.0672996811944928e-017 0.40400000000000003 0 0 -1 0.49889494755609476 -0.2066490534771486 0 1 F -0.78539816339744861 F 0 #
straight-curve $-1 0.34850664021682282 -0.14435617695488873 0.40400000000000003 -0.36373209941389223 0.15066276864767345 0 F -0.41345899243317691 F 0 #
End-of-ACIS-data 