700 0 3 0           
29 Autodesk Inventor 6.2.0.12000 17 ASM 6.0.1.6021 NT 24 Mon Jan 21 09:20:43 2008 
25.399999999999999 9.9999999999999995e-007 1e-010 
body $-1 -1 $-1 $3 $-1 $-1 #
body $-1 -1 $-1 $4 $-1 $-1 #
body $-1 -1 $-1 $5 $-1 $-1 #
lump $-1 -1 $-1 $-1 $6 $0 #
lump $-1 -1 $-1 $-1 $7 $1 #
lump $-1 -1 $-1 $-1 $8 $2 #
shell $-1 -1 $-1 $9 $-1 $10 $-1 $3 #
shell $-1 -1 $-1 $-1 $-1 $11 $-1 $4 #
shell $-1 -1 $-1 $-1 $-1 $12 $-1 $5 #
shell $-1 -1 $-1 $-1 $-1 $13 $-1 $3 #
face $-1 -1 $-1 $14 $15 $6 $-1 $16 forward single #
face $-1 -1 $-1 $17 $18 $7 $-1 $19 forward single #
face $-1 -1 $-1 $20 $21 $8 $-1 $22 reversed single #
face $-1 -1 $-1 $23 $24 $9 $-1 $25 forward single #
face $-1 -1 $-1 $26 $27 $6 $-1 $28 reversed single #
loop $-1 -1 $-1 $29 $30 $10 #
cone-surface $-1 -1 $-1 0 0 1.6509999999999994 0 0 -1 -0.309 0 0 1 I I 0.70710678118654291 0.70710678118655224 0.309 forward I I I I #
face $-1 -1 $-1 $31 $32 $7 $-1 $33 forward single #
loop $-1 -1 $-1 $34 $35 $11 #
cone-surface $-1 -1 $-1 0 0 2.5599999999999996 0 0 -1 -0.008155093385134456 -0.11471048100273896 0 1 I I 0.70710678118654635 0.70710678118654868 0.115 forward I I I I #
face $-1 -1 $-1 $36 $37 $8 $-1 $38 reversed single #
loop $-1 -1 $-1 $39 $40 $12 #
cone-surface $-1 -1 $-1 -0.065961492992290913 0.24530405916378129 1.6809999999999998 0 0 -1 0.02042669942657525 0.0017320365285843128 0 1 I I 0 1 0.020500000000000001 forward I I I I #
face $-1 -1 $-1 $41 $42 $9 $-1 $43 reversed single #
loop $-1 -1 $-1 $-1 $44 $13 #
plane-surface $-1 -1 $-1 0 0 -2.4249999999999998 0 0 1 0.39370078740157477 0 0 forward_v I I I I #
face $-1 -1 $-1 $45 $46 $6 $-1 $47 forward single #
loop $-1 -1 $-1 $-1 $48 $14 #
plane-surface $-1 -1 $-1 0 0 1.6559999999999997 0 0 -1 -0.39370078740157477 0 0 forward_v I I I I #
loop $-1 -1 $-1 $-1 $49 $10 #
coedge $-1 -1 $-1 $30 $30 $48 $50 forward $15 $-1 #
face $-1 -1 $-1 $51 $52 $7 $-1 $53 reversed single #
loop $-1 -1 $-1 $54 $55 $17 #
cone-surface $-1 -1 $-1 0 0 2.1949999999999994 0 0 1 -0.0088642319403635372 -0.12468530543775973 0 1 I I 0 1 0.12499999999999999 forward I I I I #
loop $-1 -1 $-1 $-1 $56 $11 #
coedge $-1 -1 $-1 $35 $35 $57 $58 forward $18 $-1 #
face $-1 -1 $-1 $59 $60 $8 $-1 $61 forward single #
loop $-1 -1 $-1 $62 $63 $20 #
cone-surface $-1 -1 $-1 0.023716699612185789 0.25290812197220019 1.6809999999999998 0 0 -1 0.02042669942657525 0.0017320365285843128 0 1 I I 0 1 0.020500000000000001 forward I I I I #
loop $-1 -1 $-1 $-1 $64 $12 #
coedge $-1 -1 $-1 $40 $40 $65 $66 reversed $21 $-1 #
face $-1 -1 $-1 $-1 $67 $9 $-1 $68 reversed single #
loop $-1 -1 $-1 $69 $70 $23 #
cone-surface $-1 -1 $-1 0 0 -0.26500000000000001 0 0 -1 0.62249999999999994 0 0 1 I I 0 1 0.62249999999999994 forward I I I I #
coedge $-1 -1 $-1 $44 $44 $70 $71 forward $24 $-1 #
face $-1 -1 $-1 $72 $73 $6 $-1 $74 reversed single #
loop $-1 -1 $-1 $75 $76 $26 #
cone-surface $-1 -1 $-1 0 0 1.5049999999999997 0 0 1 -0.314 0 0 1 I I 0 1 0.314 forward I I I I #
coedge $-1 -1 $-1 $48 $48 $30 $50 reversed $27 $-1 #
coedge $-1 -1 $-1 $49 $49 $77 $78 forward $29 $-1 #
edge $-1 -1 $-1 $79 -3.1415926535897931 $79 3.1415926535897931 $48 $80 forward @7 unknown #
face $-1 -1 $-1 $81 $82 $7 $-1 $83 forward single #
loop $-1 -1 $-1 $-1 $57 $31 #
plane-surface $-1 -1 $-1 0 0 2.5699999999999994 0 0 -1 -0.027918840757050513 -0.3927096234260149 0 forward_v I I I I #
loop $-1 -1 $-1 $-1 $84 $17 #
coedge $-1 -1 $-1 $55 $55 $85 $86 reversed $32 $-1 #
coedge $-1 -1 $-1 $56 $56 $84 $87 forward $34 $-1 #
coedge $-1 -1 $-1 $57 $57 $35 $58 reversed $52 $-1 #
edge $-1 -1 $-1 $88 -3.1415926535897931 $88 3.1415926535897931 $57 $89 forward @7 unknown #
face $-1 -1 $-1 $90 $91 $8 $-1 $92 forward single #
loop $-1 -1 $-1 $-1 $93 $36 #
plane-surface $-1 -1 $-1 -0.01237511633812019 0.23471374598546316 1.6809999999999998 -0.9964243622719634 -0.084489586760210372 0 0 0 0.39370078740157477 forward_v I I I I #
loop $-1 -1 $-1 $-1 $94 $20 #
coedge $-1 -1 $-1 $63 $63 $95 $96 reversed $37 $-1 #
coedge $-1 -1 $-1 $64 $64 $97 $98 reversed $39 $-1 #
coedge $-1 -1 $-1 $65 $65 $40 $66 forward $99 $-1 #
edge $-1 -1 $-1 $100 -3.1415926535897931 $100 3.1415926535897931 $65 $101 forward @7 unknown #
loop $-1 -1 $-1 $-1 $102 $41 #
plane-surface $-1 -1 $-1 0 0 -0.26500000000000001 0 0 1 0.39370078740157477 0 0 forward_v I I I I #
loop $-1 -1 $-1 $-1 $103 $23 #
coedge $-1 -1 $-1 $70 $70 $44 $71 reversed $42 $-1 #
edge $-1 -1 $-1 $104 -3.1415926535897931 $104 3.1415926535897931 $70 $105 forward @7 unknown #
face $-1 -1 $-1 $106 $107 $6 $-1 $108 reversed single #
loop $-1 -1 $-1 $109 $110 $45 #
cone-surface $-1 -1 $-1 0.49999999999999994 -1.1102230246251564e-016 1.2393776239052832 0 0 1 -5.7731597280508137e-018 -0.025999999999999999 0 1 I I 0.85716730070211233 0.51503807491005416 0.025999999999999999 reversed I I I I #
loop $-1 -1 $-1 $-1 $77 $26 #
coedge $-1 -1 $-1 $76 $76 $111 $112 reversed $46 $-1 #
coedge $-1 -1 $-1 $77 $77 $49 $78 reversed $75 $-1 #
edge $-1 -1 $-1 $113 -3.1415926535897931 $113 3.1415926535897931 $77 $114 forward @7 unknown #
vertex $-1 -1 $-1 $50 $115 #
ellipse-curve $-1 -1 $-1 0 0 1.6559999999999997 0 0 -1 -0.30399999999999999 0 0 1 I I #
face $-1 -1 $-1 $116 $117 $7 $-1 $118 forward single #
loop $-1 -1 $-1 $-1 $119 $51 #
cone-surface $-1 -1 $-1 0 0 2.1899999999999995 0 0 -1 0.11026219410418557 -0.14542523354401365 0 1 I I 0.70710678118654635 0.70710678118654891 0.18250000000000002 forward I I I I #
coedge $-1 -1 $-1 $84 $84 $56 $87 reversed $54 $-1 #
coedge $-1 -1 $-1 $85 $85 $55 $86 forward $117 $-1 #
edge $-1 -1 $-1 $120 -3.1415926535897931 $120 3.1415926535897931 $85 $121 forward @7 unknown #
edge $-1 -1 $-1 $122 -3.1415926535897931 $122 3.1415926535897931 $84 $123 forward @7 unknown #
vertex $-1 -1 $-1 $58 $124 #
ellipse-curve $-1 -1 $-1 0 0 2.5699999999999994 0 0 -1 -0.0074459548299053721 -0.10473565656771817 0 1 I I #
face $-1 -1 $-1 $125 $126 $8 $-1 $127 forward single #
loop $-1 -1 $-1 $-1 $128 $59 #
cone-surface $-1 -1 $-1 0 0 1.6809999999999998 0 0 -1 0.17537068775986553 0.014870167269797025 0 1 I I 0 -1 0.17599999999999999 forward I I I I #
coedge $-1 -1 $-1 $129 $130 $131 $132 forward $60 $-1 #
coedge $-1 -1 $-1 $94 $94 $133 $134 reversed $62 $-1 #
coedge $-1 -1 $-1 $95 $95 $63 $96 forward $135 $-1 #
edge $-1 -1 $-1 $136 -3.1415926535897931 $136 3.1415926535897931 $95 $137 forward @7 unknown #
coedge $-1 -1 $-1 $97 $97 $64 $98 forward $138 $-1 #
edge $-1 -1 $-1 $139 -3.1415926535897931 $139 3.1415926535897931 $97 $140 forward @7 unknown #
loop $-1 -1 $-1 $135 $65 $141 #
vertex $-1 -1 $-1 $66 $142 #
ellipse-curve $-1 -1 $-1 -0.065961492992290913 0.24530405916378129 1.6559999999999997 0 0 1 0.02042669942657525 0.0017320365285843128 0 1 I I #
coedge $-1 -1 $-1 $102 $102 $103 $143 forward $67 $-1 #
coedge $-1 -1 $-1 $103 $103 $102 $143 reversed $69 $-1 #
vertex $-1 -1 $-1 $71 $144 #
ellipse-curve $-1 -1 $-1 0 0 -2.4249999999999998 0 0 1 0.62249999999999994 0 0 1 I I #
face $-1 -1 $-1 $145 $146 $6 $-1 $147 reversed single #
loop $-1 -1 $-1 $148 $149 $72 #
cone-surface $-1 -1 $-1 0.49999999999999994 -1.1102230246251564e-016 1.3799999999999999 0 0 1 -1.1546319456101627e-017 -0.051999999999999998 0 1 I I 0 1 0.051999999999999998 reversed I I I I #
loop $-1 -1 $-1 $-1 $150 $45 #
coedge $-1 -1 $-1 $110 $110 $151 $152 forward $73 $-1 #
coedge $-1 -1 $-1 $111 $111 $76 $112 forward $153 $-1 #
edge $-1 -1 $-1 $154 -3.1415926535897931 $154 3.1415926535897931 $111 $155 forward @7 unknown #
vertex $-1 -1 $-1 $78 $156 #
ellipse-curve $-1 -1 $-1 0 0 1.6459999999999995 0 0 1 -0.314 0 0 1 I I #
point $-1 -1 $-1 0.30399999999999999 -3.7228033156200268e-017 1.6559999999999997 #
face $-1 -1 $-1 $157 $158 $7 $-1 $159 forward single #
loop $-1 -1 $-1 $160 $85 $81 #
plane-surface $-1 -1 $-1 0 0 2.1949999999999994 0 0 1 0.027918840757050513 0.3927096234260149 0 forward_v I I I I #
coedge $-1 -1 $-1 $161 $162 $163 $164 forward $82 $-1 #
vertex $-1 -1 $-1 $86 $165 #
ellipse-curve $-1 -1 $-1 0 0 2.1949999999999994 0 0 -1 -0.0088642319403635372 -0.12468530543775973 0 1 I I #
vertex $-1 -1 $-1 $87 $166 #
ellipse-curve $-1 -1 $-1 0 0 2.5499999999999994 0 0 1 -0.0088642319403635372 -0.12468530543775973 0 1 I I #
point $-1 -1 $-1 0.0074459548299053843 0.10473565656771817 2.5699999999999994 #
face $-1 -1 $-1 $167 $168 $8 $-1 $169 forward single #
loop $-1 -1 $-1 $-1 $170 $90 #
plane-surface $-1 -1 $-1 -0.027321481772199643 0.23344640218405999 1.6809999999999998 0.9964243622719634 0.084489586760210372 0 0 0 -0.39370078740157477 forward_v I I I I #
coedge $-1 -1 $-1 $171 $172 $173 $174 forward $91 $-1 #
coedge $-1 -1 $-1 $175 $93 $172 $176 reversed $60 $-1 #
coedge $-1 -1 $-1 $93 $175 $177 $178 forward $60 $-1 #
coedge $-1 -1 $-1 $179 $173 $93 $132 reversed $180 $-1 #
edge $-1 -1 $-1 $181 -0.30012607932222624 $182 0 $93 $183 forward @7 unknown #
coedge $-1 -1 $-1 $133 $133 $94 $134 forward $184 $-1 #
edge $-1 -1 $-1 $185 -3.1415926535897931 $185 3.1415926535897931 $133 $186 forward @7 unknown #
loop $-1 -1 $-1 $180 $95 $141 #
vertex $-1 -1 $-1 $96 $187 #
ellipse-curve $-1 -1 $-1 0.023716699612185789 0.25290812197220019 1.6559999999999997 0 0 1 0.02042669942657525 0.0017320365285843128 0 1 I I #
loop $-1 -1 $-1 $184 $97 $188 #
vertex $-1 -1 $-1 $98 $189 #
ellipse-curve $-1 -1 $-1 -0.065961492992290913 0.24530405916378129 1.6809999999999998 0 0 -1 0.02042669942657525 0.0017320365285843128 0 1 I I #
face $-1 -1 $-1 $-1 $99 $8 $-1 $190 forward single #
point $-1 -1 $-1 -0.086388192418866167 0.24357202263519698 1.6559999999999997 #
edge $-1 -1 $-1 $191 -3.1415926535897931 $191 3.1415926535897931 $102 $192 forward @7 unknown #
point $-1 -1 $-1 -0.62249999999999994 7.623174552544297e-017 -2.4249999999999998 #
face $-1 -1 $-1 $193 $194 $6 $-1 $195 reversed single #
loop $-1 -1 $-1 $196 $197 $106 #
cone-surface $-1 -1 $-1 -6.1230317691118851e-017 -0.49999999999999994 1.2393776239052832 0 0 1 -0.025999999999999999 3.1839765199381806e-018 0 1 I I 0.85716730070211233 0.51503807491005416 0.025999999999999999 reversed I I I I #
loop $-1 -1 $-1 $-1 $151 $72 #
coedge $-1 -1 $-1 $149 $149 $198 $199 reversed $107 $-1 #
coedge $-1 -1 $-1 $150 $150 $-1 $200 reversed $109 $-1 #
coedge $-1 -1 $-1 $151 $151 $110 $152 reversed $148 $-1 #
edge $-1 -1 $-1 $201 0 $201 6.2831853071795862 $151 $202 forward @7 unknown #
loop $-1 -1 $-1 $203 $111 $204 #
vertex $-1 -1 $-1 $112 $205 #
ellipse-curve $-1 -1 $-1 0 0 1.5049999999999997 0 0 -1 -0.314 0 0 1 I I #
point $-1 -1 $-1 0.314 3.8452639510022641e-017 1.6459999999999995 #
face $-1 -1 $-1 $206 $207 $7 $-1 $208 forward single #
loop $-1 -1 $-1 $-1 $209 $116 #
plane-surface $-1 -1 $-1 -0.11328307613443719 0.14940948651782224 1.6559999999999997 0.070913855522908312 0.99748244350207793 0 0 0 -0.39370078740157477 forward_v I I I I #
loop $-1 -1 $-1 $-1 $210 $81 #
coedge $-1 -1 $-1 $211 $119 $212 $213 forward $82 $-1 #
coedge $-1 -1 $-1 $119 $211 $210 $214 forward $82 $-1 #
coedge $-1 -1 $-1 $215 $216 $119 $164 reversed $217 $-1 #
edge $-1 -1 $-1 $218 0 $219 0.10062315579927954 $163 $220 forward @7 unknown #
point $-1 -1 $-1 0.0088642319403635234 0.12468530543775973 2.1949999999999994 #
point $-1 -1 $-1 0.0088642319403635234 0.12468530543775973 2.5499999999999994 #
face $-1 -1 $-1 $221 $222 $8 $-1 $223 forward single #
loop $-1 -1 $-1 $-1 $224 $125 #
plane-surface $-1 -1 $-1 -0.03231312122454158 0.29231509060725563 1.6809999999999998 -0.084489586760210372 0.9964243622719634 0 0 0 -0.39370078740157477 forward_v I I I I #
coedge $-1 -1 $-1 $225 $226 $227 $228 forward $126 $-1 #
coedge $-1 -1 $-1 $229 $128 $226 $230 reversed $91 $-1 #
coedge $-1 -1 $-1 $128 $229 $129 $176 forward $91 $-1 #
coedge $-1 -1 $-1 $131 $227 $128 $174 reversed $180 $-1 #
edge $-1 -1 $-1 $182 -1.5281697827074121 $231 4.669762436297205 $128 $232 forward @7 unknown #
coedge $-1 -1 $-1 $130 $129 $233 $234 forward $60 $-1 #
edge $-1 -1 $-1 $235 0 $182 0.063500000000000001 $172 $236 forward @7 unknown #
coedge $-1 -1 $-1 $237 $238 $130 $178 reversed $239 $-1 #
edge $-1 -1 $-1 $240 0 $181 0.063500000000000001 $130 $241 forward @7 unknown #
coedge $-1 -1 $-1 $242 $131 $238 $243 reversed $180 $-1 #
loop $-1 -1 $-1 $-1 $131 $141 #
vertex $-1 -1 $-1 $178 $244 #
vertex $-1 -1 $-1 $176 $245 #
straight-curve $-1 -1 $-1 -0.0073834768857782614 0.17584505756226751 1.6559999999999997 0.033263616834728491 -0.39229305601258396 0 F -0.30012607932222624 F 0 #
loop $-1 -1 $-1 $246 $133 $188 #
vertex $-1 -1 $-1 $134 $247 #
ellipse-curve $-1 -1 $-1 0.023716699612185789 0.25290812197220019 1.6809999999999998 0 0 -1 0.02042669942657525 0.0017320365285843128 0 1 I I #
point $-1 -1 $-1 0.0032900001856105403 0.25117608544361586 1.6559999999999997 #
face $-1 -1 $-1 $141 $138 $8 $-1 $248 reversed single #
point $-1 -1 $-1 -0.086388192418866167 0.24357202263519698 1.6809999999999998 #
plane-surface $-1 -1 $-1 -0.003992270490649201 0.047082672909174478 1.6559999999999997 0 0 -1 -0.39229305601258396 -0.033263616834728491 0 forward_v I I I I #
vertex $-1 -1 $-1 $143 $249 #
ellipse-curve $-1 -1 $-1 0 0 -0.26500000000000001 0 0 -1 0.62249999999999994 0 0 1 I I #
face $-1 -1 $-1 $250 $251 $6 $-1 $252 reversed single #
loop $-1 -1 $-1 $253 $254 $145 #
cone-surface $-1 -1 $-1 -6.1230317691118851e-017 -0.49999999999999994 1.3799999999999999 0 0 1 -0.051999999999999998 6.3679530398763612e-018 0 1 I I 0 1 0.051999999999999998 reversed I I I I #
loop $-1 -1 $-1 $-1 $255 $106 #
coedge $-1 -1 $-1 $197 $197 $256 $257 forward $146 $-1 #
coedge $-1 -1 $-1 $198 $198 $149 $199 forward $258 $-1 #
edge $-1 -1 $-1 $259 -2.2204460492503131e-016 $259 6.2831853071795862 $198 $260 forward @7 unknown #
edge $-1 -1 $-1 $261 1 $261 0 $150 $-1 forward @7 unknown #
vertex $-1 -1 $-1 $152 $262 #
ellipse-curve $-1 -1 $-1 0.49999999999999994 -1.1102230246251564e-016 1.2549999999999997 0 0 1 -1.1546319456101627e-017 -0.051999999999999998 0 1 I I #
loop $-1 -1 $-1 $-1 $263 $204 #
face $-1 -1 $-1 $264 $258 $6 $-1 $265 reversed single #
point $-1 -1 $-1 0.314 3.8452639510022641e-017 1.5049999999999997 #
face $-1 -1 $-1 $266 $217 $7 $-1 $267 forward single #
loop $-1 -1 $-1 $-1 $268 $157 #
cone-surface $-1 -1 $-1 0 0 2.1899999999999995 0 0 -1 -0.11026219410418557 0.14542523354401365 0 1 I I 0.70710678118654635 0.70710678118654891 0.18250000000000002 forward I I I I #
coedge $-1 -1 $-1 $269 $270 $211 $271 reversed $158 $-1 #
coedge $-1 -1 $-1 $272 $273 $162 $214 reversed $160 $-1 #
coedge $-1 -1 $-1 $162 $161 $209 $271 forward $82 $-1 #
coedge $-1 -1 $-1 $274 $275 $161 $213 reversed $276 $-1 #
edge $-1 -1 $-1 $219 -1.2237149367944902e-016 $277 1.7021820015405602 $212 $278 forward @7 unknown #
edge $-1 -1 $-1 $279 -1.7690544659593828 $218 0.066872464418822553 $210 $280 forward @7 unknown #
coedge $-1 -1 $-1 $281 $163 $273 $282 forward $217 $-1 #
coedge $-1 -1 $-1 $163 $283 $274 $284 forward $217 $-1 #
loop $-1 -1 $-1 $-1 $163 $206 #
vertex $-1 -1 $-1 $282 $285 #
vertex $-1 -1 $-1 $213 $286 #
intcurve-curve $-1 -1 $-1 forward { exactcur full nurbs 2 open 2 
	0 2 0.10062315579927954 2 
	0.09755015489545027 -0.14829098853225595 2.1949999999999994 1 
	0.10520109604592669 -0.14883491563482656 2.1903407888334949 1.0167317240314993 
	0.11328307613443719 -0.14940948651782224 2.1849999999999996 1.0318130523125186 
	0 
	null_surface 
	null_surface 
	nullbs 
	nullbs 
	I I 
	0 
	0 
	0 
	F 1 F 0 } I I #
face $-1 -1 $-1 $287 $288 $8 $-1 $289 forward single #
loop $-1 -1 $-1 $-1 $290 $167 #
cone-surface $-1 -1 $-1 -0.082090712641013364 0.25798665643418572 1.6809999999999998 0 0 -1 -0.029892730868158898 -0.0025346876028063108 0 1 I I 0 1 0.029999999999999992 forward I I I I #
coedge $-1 -1 $-1 $291 $292 $293 $294 forward $168 $-1 #
coedge $-1 -1 $-1 $295 $170 $292 $296 reversed $126 $-1 #
coedge $-1 -1 $-1 $170 $295 $171 $230 forward $126 $-1 #
coedge $-1 -1 $-1 $173 $293 $170 $228 reversed $180 $-1 #
edge $-1 -1 $-1 $231 -0.30012607932222624 $297 0 $170 $298 forward @7 unknown #
coedge $-1 -1 $-1 $172 $171 $299 $300 forward $91 $-1 #
edge $-1 -1 $-1 $301 0 $231 0.063500000000000001 $226 $302 forward @7 unknown #
vertex $-1 -1 $-1 $230 $303 #
ellipse-curve $-1 -1 $-1 0 0 1.6559999999999997 0 0 -1 0.17537068775986553 0.014870167269797025 0 1 I I #
coedge $-1 -1 $-1 $299 $304 $175 $234 reversed $246 $-1 #
edge $-1 -1 $-1 $235 0 $240 0.30012607932222624 $175 $305 forward @7 unknown #
vertex $-1 -1 $-1 $300 $306 #
straight-curve $-1 -1 $-1 -0.0073834768857782614 0.17584505756226751 1.6809999999999998 0 0 -0.39370078740157477 I I #
coedge $-1 -1 $-1 $307 $177 $304 $308 forward $239 $-1 #
coedge $-1 -1 $-1 $177 $307 $179 $243 forward $239 $-1 #
loop $-1 -1 $-1 $-1 $238 $309 #
vertex $-1 -1 $-1 $308 $310 #
straight-curve $-1 -1 $-1 -0.017366755790462127 0.29358243440865883 1.6809999999999998 0 0 -0.39370078740157477 I I #
coedge $-1 -1 $-1 $311 $179 $312 $313 reversed $180 $-1 #
edge $-1 -1 $-1 $314 -0.13335000000000002 $181 1.0408340855860843e-017 $238 $315 forward @7 unknown #
point $-1 -1 $-1 -0.017366755790462127 0.29358243440865883 1.6559999999999997 #
point $-1 -1 $-1 -0.0073834768857782614 0.17584505756226751 1.6559999999999997 #
loop $-1 -1 $-1 $-1 $304 $188 #
point $-1 -1 $-1 0.0032900001856105403 0.25117608544361586 1.6809999999999998 #
plane-surface $-1 -1 $-1 -0.0039922704906491992 0.047082672909174457 1.6809999999999998 0 0 -1 -0.39229305601258396 -0.033263616834728491 0 forward_v I I I I #
point $-1 -1 $-1 -0.62249999999999994 7.623174552544297e-017 -0.26500000000000001 #
face $-1 -1 $-1 $316 $317 $6 $-1 $318 reversed single #
loop $-1 -1 $-1 $319 $320 $193 #
cone-surface $-1 -1 $-1 -0.49999999999999994 1.1102230246251564e-016 1.2393776239052832 0 0 1 5.7731597280508137e-018 0.025999999999999999 0 1 I I 0.85716730070211233 0.51503807491005416 0.025999999999999999 reversed I I I I #
loop $-1 -1 $-1 $-1 $256 $145 #
coedge $-1 -1 $-1 $254 $254 $321 $322 reversed $194 $-1 #
coedge $-1 -1 $-1 $255 $255 $-1 $323 reversed $196 $-1 #
coedge $-1 -1 $-1 $256 $256 $197 $257 reversed $253 $-1 #
edge $-1 -1 $-1 $324 0 $324 6.2831853071795862 $256 $325 forward @7 unknown #
loop $-1 -1 $-1 $326 $198 $204 #
vertex $-1 -1 $-1 $199 $327 #
ellipse-curve $-1 -1 $-1 0.49999999999999994 -1.1102230246251564e-016 1.5049999999999997 0 0 -1 -1.1546319456101627e-017 -0.051999999999999998 0 1 I I #
vertex $-1 -1 $-1 $200 $328 #
point $-1 -1 $-1 0.49999999999999994 -0.052000000000000109 1.2549999999999997 #
coedge $-1 -1 $-1 $263 $263 $329 $330 reversed $203 $-1 #
face $-1 -1 $-1 $331 $332 $6 $-1 $333 forward single #
plane-surface $-1 -1 $-1 0 0 1.5049999999999997 0 0 -1 -0.39370078740157477 0 0 forward_v I I I I #
face $-1 -1 $-1 $334 $335 $7 $-1 $336 forward single #
plane-surface $-1 -1 $-1 0.11328307613443719 -0.14940948651782224 1.6559999999999997 -0.070913855522908312 -0.99748244350207793 0 0 0 0.39370078740157477 forward_v I I I I #
coedge $-1 -1 $-1 $337 $338 $339 $340 forward $207 $-1 #
coedge $-1 -1 $-1 $341 $209 $275 $342 reversed $158 $-1 #
coedge $-1 -1 $-1 $209 $339 $272 $343 forward $158 $-1 #
edge $-1 -1 $-1 $277 1.9396134038553499 $279 2.0402365596526186 $209 $344 forward @7 unknown #
coedge $-1 -1 $-1 $345 $210 $270 $343 reversed $160 $-1 #
coedge $-1 -1 $-1 $210 $345 $215 $282 reversed $160 $-1 #
coedge $-1 -1 $-1 $346 $212 $216 $284 reversed $276 $-1 #
coedge $-1 -1 $-1 $212 $346 $269 $342 forward $276 $-1 #
loop $-1 -1 $-1 $-1 $212 $334 #
vertex $-1 -1 $-1 $271 $347 #
ellipse-curve $-1 -1 $-1 0 0 2.1849999999999996 0 0 1 0.11328307613443725 -0.14940948651782227 0 1 F -0.34498474043429173 F 2.047166741974852 #
vertex $-1 -1 $-1 $271 $348 #
ellipse-curve $-1 -1 $-1 0 0 2.1949999999999994 0 0 -1 0.10724131207393392 -0.14144098057020504 0 1 F -2.047166741974852 F 0.34498474043429173 #
coedge $-1 -1 $-1 $349 $215 $350 $351 reversed $217 $-1 #
edge $-1 -1 $-1 $218 0.040062479502621262 $352 0.58779037873726936 $215 $353 forward @7 unknown #
coedge $-1 -1 $-1 $216 $349 $354 $355 reversed $217 $-1 #
edge $-1 -1 $-1 $356 0 $219 1.3436600000000001 $216 $357 forward @7 unknown #
point $-1 -1 $-1 0.097550154895450367 -0.14829098853225595 2.1949999999999994 #
point $-1 -1 $-1 0.11328307613443719 -0.14940948651782224 2.1849999999999996 #
face $-1 -1 $-1 $358 $359 $8 $-1 $360 forward single #
loop $-1 -1 $-1 $-1 $361 $221 #
plane-surface $-1 -1 $-1 -0.11198344350917223 0.25545196883137938 1.6809999999999998 -0.9964243622719634 -0.084489586760210122 0 0 0 0.39370078740157477 forward_v I I I I #
coedge $-1 -1 $-1 $362 $363 $364 $365 forward $222 $-1 #
coedge $-1 -1 $-1 $366 $224 $363 $367 reversed $168 $-1 #
coedge $-1 -1 $-1 $224 $366 $225 $296 forward $168 $-1 #
coedge $-1 -1 $-1 $227 $364 $224 $294 reversed $180 $-1 #
edge $-1 -1 $-1 $297 -0.13335000000000002 $368 0 $224 $369 forward @7 unknown #
coedge $-1 -1 $-1 $226 $225 $370 $371 forward $126 $-1 #
edge $-1 -1 $-1 $372 0 $297 0.063500000000000001 $292 $373 forward @7 unknown #
vertex $-1 -1 $-1 $296 $374 #
straight-curve $-1 -1 $-1 -0.03231312122454158 0.29231509060725563 1.6559999999999997 -0.033263616834728491 0.39229305601258396 0 F -0.30012607932222624 F 0 #
coedge $-1 -1 $-1 $370 $233 $229 $300 reversed $246 $-1 #
edge $-1 -1 $-1 $301 1.613422870882381 $235 7.8113550898869981 $229 $375 forward @7 unknown #
vertex $-1 -1 $-1 $371 $376 #
straight-curve $-1 -1 $-1 -0.022329842319857712 0.17457771376086434 1.6809999999999998 0 0 -0.39370078740157477 I I #
point $-1 -1 $-1 -0.022329842319857712 0.17457771376086434 1.6559999999999997 #
coedge $-1 -1 $-1 $233 $377 $237 $308 reversed $246 $-1 #
straight-curve $-1 -1 $-1 -0.0073834768857782614 0.17584505756226751 1.6809999999999998 -0.033263616834728491 0.39229305601258396 0 F 0 F 0.30012607932222624 #
point $-1 -1 $-1 -0.0073834768857782614 0.17584505756226751 1.6809999999999998 #
coedge $-1 -1 $-1 $238 $237 $378 $379 forward $239 $-1 #
edge $-1 -1 $-1 $240 -1.0408340855860843e-017 $380 0.13335000000000002 $237 $381 forward @7 unknown #
face $-1 -1 $-1 $188 $239 $8 $-1 $382 forward single #
point $-1 -1 $-1 -0.017366755790462127 0.29358243440865883 1.6809999999999998 #
coedge $-1 -1 $-1 $383 $242 $384 $385 reversed $180 $-1 #
coedge $-1 -1 $-1 $378 $386 $242 $313 forward $387 $-1 #
edge $-1 -1 $-1 $388 -1.5707963267948966 $314 0 $312 $389 forward @7 unknown #
vertex $-1 -1 $-1 $379 $390 #
straight-curve $-1 -1 $-1 -0.01736675579046212 0.29358243440865883 1.6559999999999997 -0.39229305601258396 -0.033263616834728491 0 F -0.13335000000000002 F 0 #
face $-1 -1 $-1 $391 $392 $6 $-1 $393 reversed single #
loop $-1 -1 $-1 $394 $395 $250 #
cone-surface $-1 -1 $-1 -0.49999999999999994 1.1102230246251564e-016 1.3799999999999999 0 0 1 1.1546319456101627e-017 0.051999999999999998 0 1 I I 0 1 0.051999999999999998 reversed I I I I #
loop $-1 -1 $-1 $-1 $396 $193 #
coedge $-1 -1 $-1 $320 $320 $397 $398 forward $251 $-1 #
coedge $-1 -1 $-1 $321 $321 $254 $322 forward $326 $-1 #
edge $-1 -1 $-1 $399 -1.2246063538223773e-016 $399 6.2831853071795862 $321 $400 forward @7 unknown #
edge $-1 -1 $-1 $401 1 $401 0 $255 $-1 forward @7 unknown #
vertex $-1 -1 $-1 $257 $402 #
ellipse-curve $-1 -1 $-1 -6.1230317691118851e-017 -0.49999999999999994 1.2549999999999997 0 0 1 -0.051999999999999998 6.3679530398763612e-018 0 1 I I #
loop $-1 -1 $-1 $403 $321 $204 #
point $-1 -1 $-1 0.49999999999999994 -0.052000000000000109 1.5049999999999997 #
point $-1 -1 $-1 0.49999999999999994 -1.1102230246251564e-016 1.2237552478105667 #
coedge $-1 -1 $-1 $329 $329 $263 $330 forward $332 $-1 #
edge $-1 -1 $-1 $404 -3.1415926535897931 $404 3.1415926535897931 $329 $405 forward @7 unknown #
face $-1 -1 $-1 $406 $407 $6 $-1 $408 forward single #
loop $-1 -1 $-1 $409 $329 $264 #
cone-surface $-1 -1 $-1 0 0 0 0 0 1 -0.76000000000000001 0 0 1 I I 0 1 0.76000000000000001 forward I I I I #
face $-1 -1 $-1 $410 $276 $7 $-1 $411 forward single #
loop $-1 -1 $-1 $-1 $412 $266 #
cone-surface $-1 -1 $-1 0 0 1.6559999999999997 0 0 1 0.11328307613443725 -0.14940948651782227 0 1 I I 0 1 0.18750000000000003 forward I I I I #
coedge $-1 -1 $-1 $350 $268 $412 $413 forward $207 $-1 #
coedge $-1 -1 $-1 $268 $350 $345 $414 forward $207 $-1 #
coedge $-1 -1 $-1 $270 $415 $268 $340 reversed $158 $-1 #
edge $-1 -1 $-1 $416 0 $417 0.10062315579927954 $339 $418 forward @7 unknown #
coedge $-1 -1 $-1 $415 $269 $419 $420 reversed $158 $-1 #
edge $-1 -1 $-1 $421 0 $277 1.3436600000000001 $275 $422 forward @7 unknown #
edge $-1 -1 $-1 $416 0.040062479502621262 $279 0.58779037873726936 $270 $423 forward @7 unknown #
intcurve-curve $-1 -1 $-1 forward { exactcur full nurbs 2 open 2 
	1.9396134038553499 2 2.0402365596526186 2 
	0.13328078339189736 0.13188056254976371 2.1849999999999996 1.0318130523119158 
	0.12519880330323649 0.13245513343277007 2.1903407888335864 1.0167317240311649 
	0.11754786215291042 0.13299906053533 2.1949999999999994 1 
	0 
	null_surface 
	null_surface 
	nullbs 
	nullbs 
	I I 
	0 
	0 
	0 
	F 1 F 0 } I I #
coedge $-1 -1 $-1 $273 $272 $338 $414 reversed $160 $-1 #
coedge $-1 -1 $-1 $275 $274 $424 $425 reversed $276 $-1 #
point $-1 -1 $-1 0.13328078339189736 0.13188056254976371 2.1849999999999996 #
point $-1 -1 $-1 0.11754786215291051 0.13299906053533 2.1949999999999994 #
coedge $-1 -1 $-1 $283 $281 $426 $427 reversed $217 $-1 #
coedge $-1 -1 $-1 $338 $337 $281 $351 forward $207 $-1 #
edge $-1 -1 $-1 $428 1.9396134038553499 $352 2.0402365596526186 $281 $429 forward @7 unknown #
vertex $-1 -1 $-1 $351 $430 #
straight-curve $-1 -1 $-1 0.11328307613443719 -0.14940948651782224 2.1949999999999994 -0.3927096234260149 0.027918840757050513 0 F 0 F 0.62785285823989057 #
coedge $-1 -1 $-1 $431 $424 $283 $355 forward $432 $-1 #
edge $-1 -1 $-1 $356 0 $433 0.62785285823989057 $354 $434 forward @7 unknown #
vertex $-1 -1 $-1 $355 $435 #
straight-curve $-1 -1 $-1 0.11328307613443719 -0.14940948651782224 1.6559999999999997 0 0 0.39370078740157477 I I #
face $-1 -1 $-1 $436 $437 $8 $-1 $438 forward single #
loop $-1 -1 $-1 $-1 $439 $287 #
cone-surface $-1 -1 $-1 -0.16506576345437649 0.20683670915043206 1.6809999999999998 0 0 -1 -0.056796188649501908 -0.00481590644533199 0 1 I I 0 -1 0.056999999999999995 forward I I I I #
coedge $-1 -1 $-1 $440 $441 $442 $443 forward $288 $-1 #
coedge $-1 -1 $-1 $444 $290 $441 $445 reversed $222 $-1 #
coedge $-1 -1 $-1 $290 $444 $291 $367 forward $222 $-1 #
coedge $-1 -1 $-1 $293 $442 $290 $365 reversed $180 $-1 #
edge $-1 -1 $-1 $368 -1.5707963267948966 $446 0 $290 $447 forward @7 unknown #
coedge $-1 -1 $-1 $292 $291 $448 $449 forward $168 $-1 #
edge $-1 -1 $-1 $450 0 $368 0.063500000000000001 $363 $451 forward @7 unknown #
vertex $-1 -1 $-1 $367 $452 #
straight-curve $-1 -1 $-1 -0.084625400243819662 0.28787938730234464 1.6559999999999997 -0.39229305601258396 -0.033263616834728491 0 F -0.13335000000000002 F 0 #
coedge $-1 -1 $-1 $448 $299 $295 $371 reversed $246 $-1 #
edge $-1 -1 $-1 $372 0 $301 0.30012607932222624 $295 $453 forward @7 unknown #
vertex $-1 -1 $-1 $449 $454 #
straight-curve $-1 -1 $-1 -0.03231312122454158 0.29231509060725563 1.6809999999999998 0 0 -0.39370078740157477 I I #
point $-1 -1 $-1 -0.03231312122454158 0.29231509060725563 1.6559999999999997 #
ellipse-curve $-1 -1 $-1 0 0 1.6809999999999998 0 0 1 0.17537068775986553 0.014870167269797025 0 1 I I #
point $-1 -1 $-1 -0.022329842319857712 0.17457771376086434 1.6809999999999998 #
coedge $-1 -1 $-1 $304 $455 $456 $457 reversed $246 $-1 #
coedge $-1 -1 $-1 $456 $312 $307 $379 reversed $387 $-1 #
edge $-1 -1 $-1 $380 0 $314 0.063500000000000001 $307 $458 forward @7 unknown #
vertex $-1 -1 $-1 $308 $459 #
straight-curve $-1 -1 $-1 -0.01736675579046212 0.29358243440865883 1.6809999999999998 0.39229305601258396 0.033263616834728491 0 F 0 F 0.13335000000000002 #
plane-surface $-1 -1 $-1 0.034945523228815965 0.29801813771356983 1.6809999999999998 -0.084489586760210372 0.9964243622719634 0 0 0 -0.39370078740157477 forward_v I I I I #
coedge $-1 -1 $-1 $460 $311 $461 $462 reversed $180 $-1 #
coedge $-1 -1 $-1 $463 $464 $311 $385 forward $465 $-1 #
edge $-1 -1 $-1 $466 -0.11164957565348888 $388 0 $384 $467 forward @7 unknown #
coedge $-1 -1 $-1 $312 $456 $463 $468 forward $387 $-1 #
loop $-1 -1 $-1 $-1 $312 $469 #
vertex $-1 -1 $-1 $468 $470 #
ellipse-curve $-1 -1 $-1 0.037480210831622278 0.26812540684541097 1.6559999999999997 0 0 1 -0.0025346876028063108 0.029892730868158902 0 1 F -1.5707963267948966 F 0 #
point $-1 -1 $-1 0.034945523228815965 0.29801813771356983 1.6559999999999997 #
face $-1 -1 $-1 $471 $472 $6 $-1 $473 reversed single #
loop $-1 -1 $-1 $474 $475 $316 #
cone-surface $-1 -1 $-1 0 0.49999999999999994 1.2393776239052832 0 0 1 0.025999999999999999 0 0 1 I I 0.85716730070211233 0.51503807491005416 0.025999999999999999 reversed I I I I #
loop $-1 -1 $-1 $-1 $397 $250 #
coedge $-1 -1 $-1 $395 $395 $476 $477 reversed $317 $-1 #
coedge $-1 -1 $-1 $396 $396 $-1 $478 reversed $319 $-1 #
coedge $-1 -1 $-1 $397 $397 $320 $398 reversed $394 $-1 #
edge $-1 -1 $-1 $479 0 $479 6.2831853071795862 $397 $480 forward @7 unknown #
vertex $-1 -1 $-1 $322 $481 #
ellipse-curve $-1 -1 $-1 -6.1230317691118851e-017 -0.49999999999999994 1.5049999999999997 0 0 -1 -0.051999999999999998 6.3679530398763612e-018 0 1 I I #
vertex $-1 -1 $-1 $323 $482 #
point $-1 -1 $-1 -0.05200000000000006 -0.49999999999999994 1.2549999999999997 #
loop $-1 -1 $-1 $483 $476 $204 #
vertex $-1 -1 $-1 $330 $484 #
ellipse-curve $-1 -1 $-1 0 0 1.5049999999999997 0 0 -1 -0.76000000000000001 0 0 1 I I #
face $-1 -1 $-1 $485 $486 $6 $-1 $487 forward single #
loop $-1 -1 $-1 $488 $489 $331 #
cone-surface $-1 -1 $-1 0 0 0 0 0 -1 0.69999999999999984 0 0 1 I I 0 1 0.69999999999999984 forward I I I I #
loop $-1 -1 $-1 $-1 $490 $264 #
face $-1 -1 $-1 $-1 $432 $7 $-1 $491 reversed single #
cone-surface $-1 -1 $-1 0 0 1.6559999999999997 0 0 1 -0.11328307613443725 0.14940948651782227 0 1 I I 0 1 0.18750000000000003 forward I I I I #
coedge $-1 -1 $-1 $492 $426 $337 $413 reversed $335 $-1 #
edge $-1 -1 $-1 $417 -1.2237149367944902e-016 $428 1.7021820015405602 $412 $493 forward @7 unknown #
edge $-1 -1 $-1 $352 -1.7690544659593828 $416 0.066872464418822553 $345 $494 forward @7 unknown #
coedge $-1 -1 $-1 $339 $341 $492 $495 forward $158 $-1 #
vertex $-1 -1 $-1 $343 $496 #
vertex $-1 -1 $-1 $413 $497 #
intcurve-curve $-1 -1 $-1 forward { exactcur full nurbs 2 open 2 
	0 2 0.10062315579927954 2 
	-0.09755015489545027 0.14829098853225595 2.1949999999999994 1 
	-0.10520109604592669 0.14883491563482656 2.1903407888334949 1.0167317240314993 
	-0.11328307613443719 0.14940948651782224 2.1849999999999996 1.0318130523125186 
	0 
	null_surface 
	null_surface 
	nullbs 
	nullbs 
	I I 
	0 
	0 
	0 
	F 1 F 0 } I I #
coedge $-1 -1 $-1 $424 $431 $341 $420 forward $432 $-1 #
edge $-1 -1 $-1 $498 0 $421 0.62785285823989057 $419 $499 forward @7 unknown #
vertex $-1 -1 $-1 $420 $500 #
straight-curve $-1 -1 $-1 0.13328078339189736 0.13188056254976371 1.6559999999999997 0 0 0.39370078740157477 I I #
straight-curve $-1 -1 $-1 -0.11328307613443719 0.14940948651782224 2.1949999999999994 0.3927096234260149 -0.027918840757050513 0 F 0 F 0.62785285823989057 #
coedge $-1 -1 $-1 $354 $419 $346 $425 forward $432 $-1 #
edge $-1 -1 $-1 $421 1.4394106520492331 $356 3.1415926535897931 $424 $501 forward @7 unknown #
coedge $-1 -1 $-1 $412 $502 $349 $427 forward $335 $-1 #
edge $-1 -1 $-1 $433 0 $428 1.3436600000000001 $426 $503 forward @7 unknown #
vertex $-1 -1 $-1 $413 $504 #
intcurve-curve $-1 -1 $-1 forward { exactcur full nurbs 2 open 2 
	1.9396134038553499 2 2.0402365596526186 2 
	-0.13328078339189736 -0.13188056254976371 2.1849999999999996 1.0318130523119158 
	-0.12519880330323649 -0.13245513343277007 2.1903407888335864 1.0167317240311649 
	-0.11754786215291042 -0.13299906053533 2.1949999999999994 1 
	0 
	null_surface 
	null_surface 
	nullbs 
	nullbs 
	I I 
	0 
	0 
	0 
	F 1 F 0 } I I #
point $-1 -1 $-1 -0.11754786215291051 -0.13299906053533 2.1949999999999994 #
coedge $-1 -1 $-1 $419 $354 $502 $505 forward $432 $-1 #
loop $-1 -1 $-1 $-1 $354 $410 #
vertex $-1 -1 $-1 $355 $506 #
straight-curve $-1 -1 $-1 0.11328307613443719 -0.14940948651782224 1.6559999999999997 -0.3927096234260149 0.027918840757050513 0 F 0 F 0.62785285823989057 #
point $-1 -1 $-1 0.11328307613443719 -0.14940948651782224 1.6559999999999997 #
face $-1 -1 $-1 $507 $508 $8 $-1 $509 forward single #
loop $-1 -1 $-1 $-1 $510 $358 #
cone-surface $-1 -1 $-1 0.000844895867602104 -0.0099642436227196374 1.6809999999999998 0 0 -1 0.10051366405923584 0.19118839749678082 0 1 I I 0 1 0.216 forward I I I I #
coedge $-1 -1 $-1 $511 $512 $513 $514 forward $359 $-1 #
coedge $-1 -1 $-1 $515 $361 $512 $516 reversed $288 $-1 #
coedge $-1 -1 $-1 $361 $515 $362 $445 forward $288 $-1 #
coedge $-1 -1 $-1 $364 $513 $361 $443 reversed $180 $-1 #
edge $-1 -1 $-1 $446 -0.11164957565348888 $517 0 $361 $518 forward @7 unknown #
coedge $-1 -1 $-1 $363 $362 $519 $520 forward $222 $-1 #
edge $-1 -1 $-1 $521 0 $446 0.063500000000000001 $441 $522 forward @7 unknown #
vertex $-1 -1 $-1 $445 $523 #
ellipse-curve $-1 -1 $-1 -0.082090712641013364 0.25798665643418572 1.6559999999999997 0 0 1 -0.029892730868158898 -0.0025346876028063108 0 1 F -1.5707963267948966 F 0 #
coedge $-1 -1 $-1 $519 $370 $366 $449 reversed $246 $-1 #
edge $-1 -1 $-1 $450 0 $372 0.13335000000000002 $366 $524 forward @7 unknown #
vertex $-1 -1 $-1 $520 $525 #
straight-curve $-1 -1 $-1 -0.084625400243819662 0.28787938730234464 1.6809999999999998 0 0 -0.39370078740157477 I I #
point $-1 -1 $-1 -0.084625400243819662 0.28787938730234464 1.6559999999999997 #
straight-curve $-1 -1 $-1 -0.03231312122454158 0.29231509060725563 1.6809999999999998 0.033263616834728491 -0.39229305601258396 0 F 0 F 0.30012607932222624 #
point $-1 -1 $-1 -0.03231312122454158 0.29231509060725563 1.6809999999999998 #
coedge $-1 -1 $-1 $377 $526 $527 $528 reversed $246 $-1 #
coedge $-1 -1 $-1 $386 $378 $377 $457 forward $387 $-1 #
edge $-1 -1 $-1 $380 0 $529 1.5707963267948966 $456 $530 forward @7 unknown #
straight-curve $-1 -1 $-1 0.034945523228815965 0.29801813771356983 1.6809999999999998 0 0 -0.39370078740157477 I I #
point $-1 -1 $-1 0.034945523228815965 0.29801813771356983 1.6809999999999998 #
coedge $-1 -1 $-1 $513 $383 $510 $531 reversed $180 $-1 #
coedge $-1 -1 $-1 $532 $533 $383 $462 forward $508 $-1 #
edge $-1 -1 $-1 $534 -3.1415926535897931 $466 -2.139406627059079 $461 $535 forward @7 unknown #
coedge $-1 -1 $-1 $527 $384 $386 $468 reversed $465 $-1 #
coedge $-1 -1 $-1 $384 $527 $532 $536 forward $465 $-1 #
loop $-1 -1 $-1 $-1 $384 $507 #
vertex $-1 -1 $-1 $536 $537 #
straight-curve $-1 -1 $-1 0.067372941699781155 0.27066009444821726 1.6559999999999997 -0.033263616834728588 0.39229305601258396 0 F -0.11164957565348888 F 0 #
edge $-1 -1 $-1 $529 0 $388 0.063500000000000001 $386 $538 forward @7 unknown #
face $-1 -1 $-1 $309 $387 $8 $-1 $539 forward single #
point $-1 -1 $-1 0.067372941699781155 0.27066009444821726 1.6559999999999997 #
face $-1 -1 $-1 $540 $541 $6 $-1 $542 forward single #
loop $-1 -1 $-1 $543 $544 $391 #
cone-surface $-1 -1 $-1 0 0.49999999999999994 1.3799999999999999 0 0 1 0.051999999999999998 0 0 1 I I 0 1 0.051999999999999998 reversed I I I I #
loop $-1 -1 $-1 $-1 $545 $316 #
coedge $-1 -1 $-1 $475 $475 $546 $547 forward $392 $-1 #
coedge $-1 -1 $-1 $476 $476 $395 $477 forward $403 $-1 #
edge $-1 -1 $-1 $548 -2.2204460492503131e-016 $548 6.2831853071795862 $476 $549 forward @7 unknown #
edge $-1 -1 $-1 $550 1 $550 0 $396 $-1 forward @7 unknown #
vertex $-1 -1 $-1 $398 $551 #
ellipse-curve $-1 -1 $-1 -0.49999999999999994 1.1102230246251564e-016 1.2549999999999997 0 0 1 1.1546319456101627e-017 0.051999999999999998 0 1 I I #
point $-1 -1 $-1 -0.05200000000000006 -0.49999999999999994 1.5049999999999997 #
point $-1 -1 $-1 -6.1230317691118851e-017 -0.49999999999999994 1.2237552478105667 #
loop $-1 -1 $-1 $153 $552 $204 #
point $-1 -1 $-1 0.76000000000000001 9.3070082890500667e-017 1.5049999999999997 #
face $-1 -1 $-1 $553 $554 $6 $-1 $555 forward single #
loop $-1 -1 $-1 $556 $557 $406 #
cone-surface $-1 -1 $-1 0 0 -0.12999999999999998 0 0 -1 0.75 0 0 1 I I 0 1 0.75 forward I I I I #
loop $-1 -1 $-1 $-1 $558 $331 #
coedge $-1 -1 $-1 $489 $489 $559 $560 forward $407 $-1 #
coedge $-1 -1 $-1 $490 $490 $561 $562 reversed $409 $-1 #
plane-surface $-1 -1 $-1 0 0 1.6559999999999997 0 0 1 0.027918840757050513 0.3927096234260149 0 forward_v I I I I #
coedge $-1 -1 $-1 $502 $412 $415 $495 reversed $335 $-1 #
ellipse-curve $-1 -1 $-1 0 0 2.1849999999999996 0 0 1 -0.11328307613443725 0.14940948651782227 0 1 F -0.34498474043429173 F 2.047166741974852 #
ellipse-curve $-1 -1 $-1 0 0 2.1949999999999994 0 0 -1 -0.10724131207393392 0.14144098057020504 0 1 F -2.047166741974852 F 0.34498474043429173 #
edge $-1 -1 $-1 $498 0 $417 1.3436600000000001 $415 $563 forward @7 unknown #
point $-1 -1 $-1 -0.097550154895450367 0.14829098853225595 2.1949999999999994 #
point $-1 -1 $-1 -0.11328307613443719 0.14940948651782224 2.1849999999999996 #
vertex $-1 -1 $-1 $505 $564 #
straight-curve $-1 -1 $-1 -0.11328307613443719 0.14940948651782224 1.6559999999999997 0.3927096234260149 -0.027918840757050513 0 F 0 F 0.62785285823989057 #
point $-1 -1 $-1 0.13328078339189736 0.13188056254976371 1.6559999999999997 #
ellipse-curve $-1 -1 $-1 0 0 1.6559999999999997 0 0 -1 -0.11328307613443725 0.14940948651782227 0 1 F 1.4394106520492327 F 3.1415926535897931 #
coedge $-1 -1 $-1 $426 $492 $431 $505 reversed $335 $-1 #
straight-curve $-1 -1 $-1 -0.13328078339189736 -0.13188056254976371 1.6559999999999997 0 0 0.39370078740157477 I I #
point $-1 -1 $-1 -0.13328078339189736 -0.13188056254976371 2.1849999999999996 #
edge $-1 -1 $-1 $433 1.4394106520492331 $498 3.1415926535897931 $431 $565 forward @7 unknown #
point $-1 -1 $-1 -0.13328078339189736 -0.13188056254976371 1.6559999999999997 #
face $-1 -1 $-1 $469 $465 $8 $-1 $566 forward single #
loop $-1 -1 $-1 $-1 $461 $436 #
cone-surface $-1 -1 $-1 0.12788299905358075 0.23167664765793392 1.6809999999999998 0 0 -1 0.026524439126742804 0.050452493783872711 0 1 I I 0 -1 0.056999999999999995 forward I I I I #
coedge $-1 -1 $-1 $567 $568 $460 $531 forward $437 $-1 #
coedge $-1 -1 $-1 $569 $439 $568 $570 reversed $359 $-1 #
coedge $-1 -1 $-1 $439 $569 $440 $516 forward $359 $-1 #
coedge $-1 -1 $-1 $442 $460 $439 $514 reversed $180 $-1 #
edge $-1 -1 $-1 $517 -3.1415926535897931 $571 -2.139406627059079 $439 $572 forward @7 unknown #
coedge $-1 -1 $-1 $441 $440 $573 $574 forward $288 $-1 #
edge $-1 -1 $-1 $575 0 $517 0.063500000000000001 $512 $576 forward @7 unknown #
vertex $-1 -1 $-1 $516 $577 #
straight-curve $-1 -1 $-1 -0.10826957480487456 0.21165261559576404 1.6559999999999997 0.033263616834728393 -0.39229305601258396 0 F -0.11164957565348888 F 0 #
coedge $-1 -1 $-1 $573 $448 $444 $520 reversed $246 $-1 #
edge $-1 -1 $-1 $521 0 $450 1.5707963267948966 $444 $578 forward @7 unknown #
vertex $-1 -1 $-1 $574 $579 #
straight-curve $-1 -1 $-1 -0.11198344350917223 0.25545196883137938 1.6809999999999998 0 0 -0.39370078740157477 I I #
point $-1 -1 $-1 -0.11198344350917223 0.25545196883137938 1.6559999999999997 #
straight-curve $-1 -1 $-1 -0.084625400243819662 0.28787938730234464 1.6809999999999998 0.39229305601258396 0.033263616834728491 0 F 0 F 0.13335000000000002 #
point $-1 -1 $-1 -0.084625400243819662 0.28787938730234464 1.6809999999999998 #
coedge $-1 -1 $-1 $455 $580 $581 $582 reversed $246 $-1 #
coedge $-1 -1 $-1 $464 $463 $455 $528 forward $465 $-1 #
edge $-1 -1 $-1 $529 0 $583 0.11164957565348888 $527 $584 forward @7 unknown #
vertex $-1 -1 $-1 $457 $585 #
ellipse-curve $-1 -1 $-1 0.037480210831622278 0.26812540684541097 1.6809999999999998 0 0 -1 -0.0025346876028063108 0.029892730868158902 0 1 F 0 F 1.5707963267948966 #
edge $-1 -1 $-1 $571 -5.1459647066512222 $534 0 $510 $586 forward @7 unknown #
coedge $-1 -1 $-1 $581 $461 $464 $536 reversed $508 $-1 #
coedge $-1 -1 $-1 $461 $581 $567 $587 forward $508 $-1 #
vertex $-1 -1 $-1 $587 $588 #
ellipse-curve $-1 -1 $-1 0.12788299905358075 0.23167664765793392 1.6559999999999997 0 0 -1 0.026524439126742804 0.050452493783872711 0 1 F -3.1415926535897931 F -2.139406627059079 #
edge $-1 -1 $-1 $583 0 $466 0.063500000000000001 $464 $589 forward @7 unknown #
point $-1 -1 $-1 0.071086810404078854 0.22686074121260194 1.6559999999999997 #
straight-curve $-1 -1 $-1 0.067372941699781155 0.27066009444821726 1.6809999999999998 0 0 -0.39370078740157477 I I #
cone-surface $-1 -1 $-1 0.037480210831622278 0.26812540684541097 1.6809999999999998 0 0 -1 -0.0025346876028063108 0.029892730868158902 0 1 I I 0 1 0.029999999999999999 forward I I I I #
face $-1 -1 $-1 $590 $591 $6 $-1 $592 forward single #
loop $-1 -1 $-1 $593 $594 $471 #
torus-surface $-1 -1 $-1 0 0 -2.6149999999999998 0 0 1 0.67605314316542231 0.029999999999999999 1 0 0 forward_v I I I I #
loop $-1 -1 $-1 $-1 $546 $391 #
coedge $-1 -1 $-1 $544 $544 $552 $595 reversed $472 $-1 #
coedge $-1 -1 $-1 $545 $545 $-1 $596 reversed $474 $-1 #
coedge $-1 -1 $-1 $546 $546 $475 $547 reversed $543 $-1 #
edge $-1 -1 $-1 $597 0 $597 6.2831853071795862 $546 $598 forward @7 unknown #
vertex $-1 -1 $-1 $477 $599 #
ellipse-curve $-1 -1 $-1 -0.49999999999999994 1.1102230246251564e-016 1.5049999999999997 0 0 -1 1.1546319456101627e-017 0.051999999999999998 0 1 I I #
vertex $-1 -1 $-1 $478 $600 #
point $-1 -1 $-1 -0.49999999999999994 0.052000000000000109 1.2549999999999997 #
coedge $-1 -1 $-1 $552 $552 $544 $595 forward $483 $-1 #
face $-1 -1 $-1 $601 $602 $6 $-1 $603 reversed single #
loop $-1 -1 $-1 $604 $605 $485 #
plane-surface $-1 -1 $-1 0 0 -0.12999999999999998 0 0 1 0.39370078740157477 0 0 forward_v I I I I #
loop $-1 -1 $-1 $-1 $606 $406 #
coedge $-1 -1 $-1 $557 $557 $607 $608 forward $486 $-1 #
coedge $-1 -1 $-1 $558 $558 $609 $610 reversed $488 $-1 #
coedge $-1 -1 $-1 $559 $559 $489 $560 reversed $604 $-1 #
edge $-1 -1 $-1 $611 -3.1415926535897931 $611 3.1415926535897931 $489 $612 forward @7 unknown #
coedge $-1 -1 $-1 $561 $561 $490 $562 forward $613 $-1 #
edge $-1 -1 $-1 $614 -3.1415926535897931 $614 3.1415926535897931 $561 $615 forward @7 unknown #
straight-curve $-1 -1 $-1 -0.11328307613443719 0.14940948651782224 1.6559999999999997 0 0 0.39370078740157477 I I #
point $-1 -1 $-1 -0.11328307613443719 0.14940948651782224 1.6559999999999997 #
ellipse-curve $-1 -1 $-1 0 0 1.6559999999999997 0 0 -1 0.11328307613443725 -0.14940948651782227 0 1 F 1.4394106520492327 F 3.1415926535897931 #
plane-surface $-1 -1 $-1 0.071086810404078854 0.22686074121260194 1.6809999999999998 0.9964243622719634 0.084489586760210622 0 0 0 -0.39370078740157477 forward_v I I I I #
coedge $-1 -1 $-1 $616 $510 $533 $587 reversed $437 $-1 #
coedge $-1 -1 $-1 $510 $616 $511 $570 forward $437 $-1 #
coedge $-1 -1 $-1 $512 $511 $617 $618 forward $359 $-1 #
edge $-1 -1 $-1 $619 0 $571 0.063500000000000001 $568 $620 forward @7 unknown #
vertex $-1 -1 $-1 $570 $621 #
ellipse-curve $-1 -1 $-1 -0.16506576345437649 0.20683670915043206 1.6559999999999997 0 0 -1 -0.056796188649501908 -0.00481590644533199 0 1 F -3.1415926535897931 F -2.139406627059079 #
coedge $-1 -1 $-1 $617 $519 $515 $574 reversed $246 $-1 #
edge $-1 -1 $-1 $575 0 $521 0.11164957565348888 $515 $622 forward @7 unknown #
vertex $-1 -1 $-1 $618 $623 #
straight-curve $-1 -1 $-1 -0.10826957480487456 0.21165261559576404 1.6809999999999998 0 0 -0.39370078740157477 I I #
point $-1 -1 $-1 -0.10826957480487456 0.21165261559576404 1.6559999999999997 #
ellipse-curve $-1 -1 $-1 -0.082090712641013364 0.25798665643418572 1.6809999999999998 0 0 -1 -0.029892730868158898 -0.0025346876028063108 0 1 F 0 F 1.5707963267948966 #
point $-1 -1 $-1 -0.11198344350917223 0.25545196883137938 1.6809999999999998 #
coedge $-1 -1 $-1 $526 $617 $616 $624 reversed $246 $-1 #
coedge $-1 -1 $-1 $533 $532 $526 $582 forward $508 $-1 #
edge $-1 -1 $-1 $583 2.139406627059079 $625 3.1415926535897931 $581 $626 forward @7 unknown #
vertex $-1 -1 $-1 $528 $627 #
straight-curve $-1 -1 $-1 0.067372941699781155 0.27066009444821726 1.6809999999999998 0.033263616834728588 -0.39229305601258396 0 F 0 F 0.11164957565348888 #
point $-1 -1 $-1 0.067372941699781155 0.27066009444821726 1.6809999999999998 #
ellipse-curve $-1 -1 $-1 0.000844895867602104 -0.0099642436227196374 1.6559999999999997 0 0 1 0.10051366405923584 0.19118839749678082 0 1 F -5.1459647066512222 F 0 #
edge $-1 -1 $-1 $625 0 $534 0.063500000000000001 $533 $628 forward @7 unknown #
point $-1 -1 $-1 0.10135855992683795 0.18122415387406118 1.6559999999999997 #
straight-curve $-1 -1 $-1 0.071086810404078854 0.22686074121260194 1.6809999999999998 0 0 -0.39370078740157477 I I #
face $-1 -1 $-1 $629 $630 $6 $-1 $631 reversed single #
loop $-1 -1 $-1 $632 $633 $540 #
cone-surface $-1 -1 $-1 0 0 -2.5349999999999997 0 0 1 0.72499999999999987 0 0 1 I I 0.22162110358896822 0.9751328557914597 0.72499999999999987 forward I I I I #
loop $-1 -1 $-1 $-1 $634 $471 #
coedge $-1 -1 $-1 $594 $594 $635 $636 forward $541 $-1 #
edge $-1 -1 $-1 $637 0 $637 6.2831853071795862 $552 $638 forward @7 unknown #
edge $-1 -1 $-1 $639 1 $639 0 $545 $-1 forward @7 unknown #
vertex $-1 -1 $-1 $547 $640 #
ellipse-curve $-1 -1 $-1 0 0.49999999999999994 1.2549999999999997 0 0 1 0.051999999999999998 0 0 1 I I #
point $-1 -1 $-1 -0.49999999999999994 0.052000000000000109 1.5049999999999997 #
point $-1 -1 $-1 -0.49999999999999994 1.1102230246251564e-016 1.2237552478105667 #
face $-1 -1 $-1 $641 $642 $6 $-1 $643 forward single #
loop $-1 -1 $-1 $644 $645 $553 #
plane-surface $-1 -1 $-1 0 0 -2.4249999999999998 0 0 1 0.39370078740157477 0 0 forward_v I I I I #
loop $-1 -1 $-1 $-1 $559 $485 #
coedge $-1 -1 $-1 $605 $605 $606 $646 forward $554 $-1 #
coedge $-1 -1 $-1 $606 $606 $605 $646 reversed $556 $-1 #
coedge $-1 -1 $-1 $607 $607 $557 $608 reversed $647 $-1 #
edge $-1 -1 $-1 $648 -3.1415926535897931 $648 3.1415926535897931 $557 $649 forward @7 unknown #
coedge $-1 -1 $-1 $609 $609 $558 $610 forward $650 $-1 #
edge $-1 -1 $-1 $651 -3.1415926535897931 $651 3.1415926535897931 $609 $652 forward @7 unknown #
vertex $-1 -1 $-1 $560 $653 #
ellipse-curve $-1 -1 $-1 0 0 -0.12999999999999998 0 0 1 0.69999999999999984 0 0 1 I I #
loop $-1 -1 $-1 $-1 $561 $629 #
vertex $-1 -1 $-1 $562 $654 #
ellipse-curve $-1 -1 $-1 0 0 0 0 0 -1 -0.76000000000000001 0 0 1 I I #
coedge $-1 -1 $-1 $568 $567 $580 $624 forward $437 $-1 #
coedge $-1 -1 $-1 $580 $573 $569 $618 reversed $246 $-1 #
edge $-1 -1 $-1 $619 2.139406627059079 $575 3.1415926535897931 $569 $655 forward @7 unknown #
vertex $-1 -1 $-1 $624 $656 #
straight-curve $-1 -1 $-1 -0.13042507634319411 0.16157057615383993 1.6809999999999998 0 0 -0.39370078740157477 I I #
point $-1 -1 $-1 -0.13042507634319411 0.16157057615383993 1.6559999999999997 #
straight-curve $-1 -1 $-1 -0.10826957480487456 0.21165261559576404 1.6809999999999998 -0.033263616834728393 0.39229305601258396 0 F 0 F 0.11164957565348888 #
point $-1 -1 $-1 -0.10826957480487456 0.21165261559576404 1.6809999999999998 #
edge $-1 -1 $-1 $625 0 $619 5.1459647066512222 $616 $657 forward @7 unknown #
vertex $-1 -1 $-1 $582 $658 #
ellipse-curve $-1 -1 $-1 0.12788299905358075 0.23167664765793392 1.6809999999999998 0 0 1 0.026524439126742804 0.050452493783872711 0 1 F 2.139406627059079 F 3.1415926535897931 #
point $-1 -1 $-1 0.071086810404078854 0.22686074121260194 1.6809999999999998 #
straight-curve $-1 -1 $-1 0.10135855992683795 0.18122415387406118 1.6809999999999998 0 0 -0.39370078740157477 I I #
face $-1 -1 $-1 $204 $650 $6 $-1 $659 forward single #
loop $-1 -1 $-1 $-1 $635 $590 #
plane-surface $-1 -1 $-1 0 0 -2.645 0 0 1 0.39370078740157477 0 0 forward_v I I I I #
loop $-1 -1 $-1 $-1 $660 $540 #
coedge $-1 -1 $-1 $633 $633 $645 $661 reversed $591 $-1 #
coedge $-1 -1 $-1 $634 $634 $660 $662 forward $593 $-1 #
coedge $-1 -1 $-1 $635 $635 $594 $636 reversed $630 $-1 #
edge $-1 -1 $-1 $663 -3.1415926535897931 $663 3.1415926535897931 $635 $664 forward @7 unknown #
vertex $-1 -1 $-1 $595 $665 #
ellipse-curve $-1 -1 $-1 0 0.49999999999999994 1.5049999999999997 0 0 -1 0.051999999999999998 0 0 1 I I #
vertex $-1 -1 $-1 $596 $666 #
point $-1 -1 $-1 0.051999999999999998 0.49999999999999994 1.2549999999999997 #
face $-1 -1 $-1 $-1 $667 $6 $-1 $668 forward single #
loop $-1 -1 $-1 $669 $670 $601 #
cone-surface $-1 -1 $-1 0 0 -0.26500000000000001 0 0 -1 0.77500000000000002 0 0 1 I I 0 1 0.77500000000000002 forward I I I I #
loop $-1 -1 $-1 $-1 $671 $553 #
coedge $-1 -1 $-1 $645 $645 $633 $661 forward $602 $-1 #
edge $-1 -1 $-1 $672 -3.1415926535897931 $672 3.1415926535897931 $605 $673 forward @7 unknown #
loop $-1 -1 $-1 $-1 $607 $641 #
vertex $-1 -1 $-1 $608 $674 #
ellipse-curve $-1 -1 $-1 0 0 -0.26500000000000001 0 0 1 0.75 0 0 1 I I #
loop $-1 -1 $-1 $613 $609 $629 #
vertex $-1 -1 $-1 $610 $675 #
ellipse-curve $-1 -1 $-1 0 0 0 0 0 1 0.69999999999999984 0 0 1 I I #
point $-1 -1 $-1 -0.69999999999999984 8.5722444767566393e-017 -0.12999999999999998 #
point $-1 -1 $-1 0.76000000000000001 9.3070082890500667e-017 0 #
ellipse-curve $-1 -1 $-1 -0.16506576345437649 0.20683670915043206 1.6809999999999998 0 0 1 -0.056796188649501908 -0.00481590644533199 0 1 F 2.139406627059079 F 3.1415926535897931 #
point $-1 -1 $-1 -0.13042507634319411 0.16157057615383993 1.6809999999999998 #
ellipse-curve $-1 -1 $-1 0.000844895867602104 -0.0099642436227196374 1.6809999999999998 0 0 -1 0.10051366405923584 0.19118839749678082 0 1 F 0 F 5.1459647066512222 #
point $-1 -1 $-1 0.10135855992683795 0.18122415387406118 1.6809999999999998 #
plane-surface $-1 -1 $-1 0 0 0 0 0 -1 -0.39370078740157477 0 0 forward_v I I I I #
coedge $-1 -1 $-1 $660 $660 $634 $662 reversed $632 $-1 #
edge $-1 -1 $-1 $676 -3.1415926535897931 $676 3.1415926535897931 $645 $677 forward @7 unknown #
edge $-1 -1 $-1 $678 -3.1415926535897931 $678 3.1415926535897931 $660 $679 forward @7 unknown #
vertex $-1 -1 $-1 $636 $680 #
ellipse-curve $-1 -1 $-1 0 0 -2.645 0 0 1 0.67605314316542231 0 0 1 I I #
point $-1 -1 $-1 0.051999999999999998 0.49999999999999994 1.5049999999999997 #
point $-1 -1 $-1 0 0.49999999999999994 1.2237552478105667 #
loop $-1 -1 $-1 $647 $681 $641 #
plane-surface $-1 -1 $-1 0 0 -0.26500000000000001 0 0 1 0.39370078740157477 0 0 forward_v I I I I #
loop $-1 -1 $-1 $-1 $682 $601 #
coedge $-1 -1 $-1 $670 $670 $671 $683 forward $642 $-1 #
coedge $-1 -1 $-1 $671 $671 $670 $683 reversed $644 $-1 #
vertex $-1 -1 $-1 $646 $684 #
ellipse-curve $-1 -1 $-1 0 0 -0.12999999999999998 0 0 1 0.75 0 0 1 I I #
point $-1 -1 $-1 -0.75 9.1845476536678294e-017 -0.26500000000000001 #
point $-1 -1 $-1 -0.69999999999999984 8.5722444767566393e-017 0 #
vertex $-1 -1 $-1 $661 $685 #
ellipse-curve $-1 -1 $-1 0 0 -2.4249999999999998 0 0 1 0.75 0 0 1 I I #
vertex $-1 -1 $-1 $662 $686 #
ellipse-curve $-1 -1 $-1 0 -4.3186179568633036e-017 -2.6216486331076689 0 0 -1 0.70530712883916602 4.3186179568633036e-017 0 1 I I #
point $-1 -1 $-1 -0.67605314316542231 -8.2789897464196553e-017 -2.645 #
coedge $-1 -1 $-1 $681 $681 $682 $687 forward $667 $-1 #
coedge $-1 -1 $-1 $682 $682 $681 $687 reversed $669 $-1 #
edge $-1 -1 $-1 $688 -3.1415926535897931 $688 3.1415926535897931 $670 $689 forward @7 unknown #
point $-1 -1 $-1 -0.75 9.1845476536678294e-017 -0.12999999999999998 #
point $-1 -1 $-1 -0.75 9.1845476536678294e-017 -2.4249999999999998 #
point $-1 -1 $-1 -0.70530712883916602 9.705473735494731e-033 -2.6216486331076689 #
edge $-1 -1 $-1 $690 -3.1415926535897931 $690 3.1415926535897931 $681 $691 forward @7 unknown #
vertex $-1 -1 $-1 $683 $692 #
ellipse-curve $-1 -1 $-1 0 0 -2.4249999999999998 0 0 1 0.77500000000000002 0 0 1 I I #
vertex $-1 -1 $-1 $687 $693 #
ellipse-curve $-1 -1 $-1 0 0 -0.26500000000000001 0 0 1 0.77500000000000002 0 0 1 I I #
point $-1 -1 $-1 -0.77500000000000002 9.4906992421234245e-017 -2.4249999999999998 #
point $-1 -1 $-1 -0.77500000000000002 9.4906992421234245e-017 -0.26500000000000001 #
End-of-ACIS-data 