700 0 1 0           
28 Autodesk Inventor 6.0.0.9000 16 ASM 6.0.0.192 NT 24 Thu Jan 11 21:23:39 2007 
25.399999999999999 9.9999999999999995e-007 1e-010 
body $-1 -1 $-1 $1 $-1 $-1 #
lump $-1 -1 $-1 $-1 $2 $0 #
shell $-1 -1 $-1 $-1 $-1 $3 $-1 $1 #
face $-1 -1 $-1 $4 $5 $2 $-1 $6 forward single #
face $-1 -1 $-1 $7 $8 $2 $-1 $9 forward single #
loop $-1 -1 $-1 $-1 $10 $3 #
plane-surface $-1 -1 $-1 -1.8379999999999999 -1.6124999999999998 0 -0.70710678118654757 -0.70710678118654757 0 0 0 0.39370078740157477 forward_v I I I I #
face $-1 -1 $-1 $11 $12 $2 $-1 $13 reversed single #
loop $-1 -1 $-1 $-1 $14 $4 #
plane-surface $-1 -1 $-1 1.9129999999999998 -1.6874999999999998 0 0 -1 0 0 0 -0.39370078740157477 forward_v I I I I #
coedge $-1 -1 $-1 $15 $16 $17 $18 forward $5 $-1 #
face $-1 -1 $-1 $19 $20 $2 $-1 $21 forward single #
loop $-1 -1 $-1 $22 $23 $7 #
plane-surface $-1 -1 $-1 0 0 0 0 0 1 0.39370078740157477 0 0 forward_v I I I I #
coedge $-1 -1 $-1 $24 $25 $16 $26 reversed $8 $-1 #
coedge $-1 -1 $-1 $27 $10 $28 $29 forward $5 $-1 #
coedge $-1 -1 $-1 $10 $27 $14 $26 forward $5 $-1 #
coedge $-1 -1 $-1 $30 $31 $10 $18 reversed $32 $-1 #
edge $-1 -1 $-1 $33 -0.06690290810196528 $34 0.47191245916218427 $17 $35 forward @7 unknown #
face $-1 -1 $-1 $36 $37 $2 $-1 $38 forward single #
loop $-1 -1 $-1 $-1 $39 $11 #
plane-surface $-1 -1 $-1 1.8379999999999999 -1.6124999999999998 0 0.70710678118654757 -0.70710678118654757 0 0 0 -0.39370078740157477 forward_v I I I I #
loop $-1 -1 $-1 $40 $41 $7 #
coedge $-1 -1 $-1 $23 $23 $42 $43 forward $12 $-1 #
coedge $-1 -1 $-1 $44 $14 $45 $46 reversed $8 $-1 #
coedge $-1 -1 $-1 $14 $44 $30 $47 forward $8 $-1 #
edge $-1 -1 $-1 $48 0 $33 0.30480000000000002 $14 $49 forward @7 unknown #
coedge $-1 -1 $-1 $16 $15 $50 $51 forward $5 $-1 #
coedge $-1 -1 $-1 $52 $53 $15 $29 reversed $54 $-1 #
edge $-1 -1 $-1 $34 -0.30480000000000002 $55 0 $28 $56 forward @7 unknown #
coedge $-1 -1 $-1 $57 $17 $25 $47 reversed $32 $-1 #
coedge $-1 -1 $-1 $17 $58 $52 $59 reversed $32 $-1 #
loop $-1 -1 $-1 $60 $17 $61 #
vertex $-1 -1 $-1 $26 $62 #
vertex $-1 -1 $-1 $59 $63 #
straight-curve $-1 -1 $-1 -1.7816249999999996 -1.6688749999999997 0.12 -0.27838849653013681 0.27838849653013681 0 I I #
face $-1 -1 $-1 $64 $65 $2 $-1 $66 forward single #
loop $-1 -1 $-1 $-1 $67 $19 #
plane-surface $-1 -1 $-1 1.9129999999999998 1.6874999999999998 0 1 0 0 0 0 -0.39370078740157477 forward_v I I I I #
coedge $-1 -1 $-1 $68 $69 $57 $70 forward $20 $-1 #
loop $-1 -1 $-1 $71 $72 $7 #
coedge $-1 -1 $-1 $73 $74 $75 $76 forward $22 $-1 #
coedge $-1 -1 $-1 $42 $42 $23 $43 reversed $77 $-1 #
edge $-1 -1 $-1 $78 -3.1415926535897931 $78 3.1415926535897931 $23 $79 forward @7 unknown #
coedge $-1 -1 $-1 $25 $24 $68 $80 reversed $8 $-1 #
coedge $-1 -1 $-1 $50 $81 $24 $46 forward $82 $-1 #
edge $-1 -1 $-1 $83 0.38100000000000023 $48 9.33704 $45 $84 forward @7 unknown #
edge $-1 -1 $-1 $85 0.38100000000000023 $33 9.33704 $25 $86 forward @7 unknown #
vertex $-1 -1 $-1 $51 $87 #
straight-curve $-1 -1 $-1 -1.7629999999999999 -1.6874999999999998 0 0 0 0.39370078740157477 F -1.1811010000000006 F 1.4859010000000006 #
coedge $-1 -1 $-1 $88 $45 $27 $51 reversed $82 $-1 #
edge $-1 -1 $-1 $55 -0.47191245916218427 $48 0.06690290810196528 $50 $89 forward @7 unknown #
coedge $-1 -1 $-1 $90 $28 $31 $59 forward $54 $-1 #
coedge $-1 -1 $-1 $28 $90 $88 $91 reversed $54 $-1 #
loop $-1 -1 $-1 $-1 $28 $92 #
vertex $-1 -1 $-1 $91 $93 #
straight-curve $-1 -1 $-1 -1.9129999999999998 -1.5374999999999996 0 0 0 -0.39370078740157477 F -1.4859010000000006 F 1.1811010000000006 #
coedge $-1 -1 $-1 $94 $30 $39 $70 reversed $32 $-1 #
coedge $-1 -1 $-1 $31 $95 $96 $97 reversed $32 $-1 #
edge $-1 -1 $-1 $34 0.38100000000000023 $98 8.1914999999999996 $52 $99 forward @7 unknown #
loop $-1 -1 $-1 $100 $101 $61 #
face $-1 -1 $-1 $-1 $32 $2 $-1 $102 forward single #
point $-1 -1 $-1 -1.7629999999999999 -1.6874999999999998 0.12 #
point $-1 -1 $-1 -1.9129999999999998 -1.5374999999999996 0.12 #
face $-1 -1 $-1 $103 $104 $2 $-1 $105 forward single #
loop $-1 -1 $-1 $-1 $106 $36 #
plane-surface $-1 -1 $-1 1.8379999999999999 1.6124999999999998 0 0.70710678118654757 0.70710678118654757 0 0 0 -0.39370078740157477 forward_v I I I I #
coedge $-1 -1 $-1 $107 $108 $69 $109 reversed $37 $-1 #
coedge $-1 -1 $-1 $110 $39 $44 $80 forward $20 $-1 #
coedge $-1 -1 $-1 $39 $110 $67 $109 forward $20 $-1 #
edge $-1 -1 $-1 $111 -0.47191245916218427 $85 0.06690290810196528 $57 $112 forward @7 unknown #
loop $-1 -1 $-1 $113 $114 $7 #
coedge $-1 -1 $-1 $72 $72 $115 $116 forward $40 $-1 #
coedge $-1 -1 $-1 $117 $41 $118 $119 forward $22 $-1 #
coedge $-1 -1 $-1 $41 $117 $120 $121 forward $22 $-1 #
coedge $-1 -1 $-1 $122 $123 $41 $76 reversed $124 $-1 #
edge $-1 -1 $-1 $125 0.61023500000000075 $126 1.5627350000000004 $41 $127 forward @7 unknown #
loop $-1 -1 $-1 $128 $42 $129 #
vertex $-1 -1 $-1 $43 $130 #
ellipse-curve $-1 -1 $-1 0 0.29249999999999998 0 0 0 1 0.62499999999999989 0 0 1 I I #
edge $-1 -1 $-1 $85 -0.30480000000000002 $83 0 $44 $131 forward @7 unknown #
coedge $-1 -1 $-1 $45 $132 $110 $133 reversed $82 $-1 #
loop $-1 -1 $-1 $-1 $50 $7 #
vertex $-1 -1 $-1 $46 $134 #
straight-curve $-1 -1 $-1 1.9129999999999998 -1.6874999999999998 0 -0.39370078740157477 0 0 F 0 F 9.7180400000000002 #
vertex $-1 -1 $-1 $47 $135 #
straight-curve $-1 -1 $-1 1.9129999999999998 -1.6874999999999998 0.12 -0.39370078740157477 0 0 F 0 F 9.7180400000000002 #
point $-1 -1 $-1 -1.7629999999999999 -1.6874999999999998 0 #
coedge $-1 -1 $-1 $136 $50 $53 $91 forward $82 $-1 #
straight-curve $-1 -1 $-1 -1.7816249999999996 -1.6688749999999997 0 0.27838849653013681 -0.27838849653013681 0 I I #
coedge $-1 -1 $-1 $53 $52 $137 $138 reversed $54 $-1 #
edge $-1 -1 $-1 $55 0.38100000000000023 $139 8.1914999999999996 $88 $140 forward @7 unknown #
face $-1 -1 $-1 $61 $54 $2 $-1 $141 forward single #
point $-1 -1 $-1 -1.9129999999999998 -1.5374999999999996 0 #
coedge $-1 -1 $-1 $142 $57 $108 $143 reversed $32 $-1 #
coedge $-1 -1 $-1 $58 $142 $144 $145 reversed $32 $-1 #
coedge $-1 -1 $-1 $146 $137 $58 $97 forward $147 $-1 #
edge $-1 -1 $-1 $98 -0.47191245916218427 $148 0.06690290810196528 $58 $149 forward @7 unknown #
vertex $-1 -1 $-1 $97 $150 #
straight-curve $-1 -1 $-1 -1.9129999999999998 -1.6874999999999998 0.12 0 0.39370078740157477 0 F 0 F 8.5724999999999998 #
loop $-1 -1 $-1 $151 $152 $61 #
coedge $-1 -1 $-1 $101 $101 $153 $154 forward $60 $-1 #
plane-surface $-1 -1 $-1 0 0 0.12 0 0 1 0.39370078740157477 0 0 forward_v I I I I #
face $-1 -1 $-1 $129 $147 $2 $-1 $155 forward single #
loop $-1 -1 $-1 $-1 $156 $64 #
plane-surface $-1 -1 $-1 -1.9129999999999998 1.6874999999999998 0 0 1 0 0 0 0.39370078740157477 forward_v I I I I #
coedge $-1 -1 $-1 $157 $158 $142 $159 forward $65 $-1 #
coedge $-1 -1 $-1 $160 $67 $132 $161 reversed $37 $-1 #
coedge $-1 -1 $-1 $67 $160 $94 $143 forward $37 $-1 #
edge $-1 -1 $-1 $162 0 $111 0.30480000000000002 $67 $163 forward @7 unknown #
coedge $-1 -1 $-1 $69 $68 $81 $133 forward $20 $-1 #
vertex $-1 -1 $-1 $109 $164 #
straight-curve $-1 -1 $-1 1.7816249999999996 -1.6688749999999997 0.12 -0.27838849653013681 -0.27838849653013681 0 I I #
loop $-1 -1 $-1 $165 $166 $7 #
coedge $-1 -1 $-1 $114 $114 $167 $168 forward $71 $-1 #
coedge $-1 -1 $-1 $115 $115 $72 $116 reversed $169 $-1 #
edge $-1 -1 $-1 $170 -3.1415926535897931 $170 3.1415926535897931 $72 $171 forward @7 unknown #
coedge $-1 -1 $-1 $74 $73 $172 $173 forward $22 $-1 #
coedge $-1 -1 $-1 $174 $175 $73 $119 reversed $176 $-1 #
edge $-1 -1 $-1 $126 0 $177 3.1415926535897931 $73 $178 forward @7 unknown #
coedge $-1 -1 $-1 $179 $180 $74 $121 reversed $181 $-1 #
edge $-1 -1 $-1 $182 0 $125 3.1415926535897931 $74 $183 forward @7 unknown #
coedge $-1 -1 $-1 $184 $75 $180 $185 reversed $124 $-1 #
coedge $-1 -1 $-1 $75 $184 $174 $186 forward $124 $-1 #
loop $-1 -1 $-1 $-1 $75 $187 #
vertex $-1 -1 $-1 $76 $188 #
vertex $-1 -1 $-1 $76 $189 #
straight-curve $-1 -1 $-1 0.57499999999999962 -0.61524999999999974 0 1.8355724051917364e-016 -0.39370078740157477 0 I I #
loop $-1 -1 $-1 $-1 $153 $129 #
face $-1 -1 $-1 $187 $77 $2 $-1 $190 reversed single #
point $-1 -1 $-1 -0.62499999999999989 0.29249999999999987 0 #
straight-curve $-1 -1 $-1 1.7629999999999999 -1.6874999999999998 0 0 0 -0.39370078740157477 F -1.4859010000000006 F 1.1811010000000006 #
coedge $-1 -1 $-1 $81 $191 $107 $161 forward $82 $-1 #
edge $-1 -1 $-1 $83 -0.06690290810196528 $162 0.47191245916218427 $81 $192 forward @7 unknown #
point $-1 -1 $-1 1.7629999999999999 -1.6874999999999998 0 #
point $-1 -1 $-1 1.7629999999999999 -1.6874999999999998 0.12 #
coedge $-1 -1 $-1 $193 $88 $194 $195 reversed $82 $-1 #
coedge $-1 -1 $-1 $96 $194 $90 $138 forward $147 $-1 #
edge $-1 -1 $-1 $139 0 $98 0.30480000000000002 $90 $196 forward @7 unknown #
vertex $-1 -1 $-1 $195 $197 #
straight-curve $-1 -1 $-1 -1.9129999999999998 -1.6874999999999998 0 0 0.39370078740157477 0 F 0 F 8.5724999999999998 #
plane-surface $-1 -1 $-1 -1.9129999999999998 -1.6874999999999998 0 -1 0 0 0 0 0.39370078740157477 forward_v I I I I #
coedge $-1 -1 $-1 $95 $94 $106 $159 reversed $32 $-1 #
edge $-1 -1 $-1 $198 0.38100000000000023 $111 8.1914999999999996 $108 $199 forward @7 unknown #
coedge $-1 -1 $-1 $156 $200 $95 $145 forward $104 $-1 #
edge $-1 -1 $-1 $148 0.38100000000000023 $201 9.33704 $144 $202 forward @7 unknown #
coedge $-1 -1 $-1 $194 $96 $200 $203 forward $147 $-1 #
loop $-1 -1 $-1 $-1 $96 $103 #
vertex $-1 -1 $-1 $145 $204 #
straight-curve $-1 -1 $-1 -1.7816249999999996 1.6688749999999997 0.12 0.27838849653013681 0.27838849653013681 0 I I #
point $-1 -1 $-1 -1.9129999999999998 1.5374999999999996 0.12 #
loop $-1 -1 $-1 $205 $206 $61 #
coedge $-1 -1 $-1 $207 $208 $184 $209 forward $100 $-1 #
coedge $-1 -1 $-1 $153 $153 $101 $154 reversed $128 $-1 #
edge $-1 -1 $-1 $210 0 $210 6.2831853071795862 $101 $211 forward @7 unknown #
plane-surface $-1 -1 $-1 -1.8379999999999999 1.6124999999999998 0 -0.70710678118654757 0.70710678118654757 0 0 0 0.39370078740157477 forward_v I I I I #
coedge $-1 -1 $-1 $212 $144 $158 $213 reversed $104 $-1 #
coedge $-1 -1 $-1 $214 $106 $160 $215 forward $65 $-1 #
coedge $-1 -1 $-1 $106 $214 $156 $213 forward $65 $-1 #
edge $-1 -1 $-1 $201 -0.06690290810196528 $198 0.47191245916218427 $142 $216 forward @7 unknown #
coedge $-1 -1 $-1 $108 $107 $157 $215 reversed $37 $-1 #
edge $-1 -1 $-1 $217 0.38100000000000023 $162 8.1914999999999996 $132 $218 forward @7 unknown #
vertex $-1 -1 $-1 $133 $219 #
straight-curve $-1 -1 $-1 1.9129999999999998 -1.5374999999999996 0 0 0 0.39370078740157477 F -1.1811010000000006 F 1.4859010000000006 #
point $-1 -1 $-1 1.9129999999999998 -1.5374999999999996 0.12 #
loop $-1 -1 $-1 $220 $221 $7 #
coedge $-1 -1 $-1 $166 $166 $222 $223 forward $113 $-1 #
coedge $-1 -1 $-1 $167 $167 $114 $168 reversed $224 $-1 #
edge $-1 -1 $-1 $225 -3.1415926535897931 $225 3.1415926535897931 $114 $226 forward @7 unknown #
loop $-1 -1 $-1 $227 $115 $228 #
vertex $-1 -1 $-1 $116 $229 #
ellipse-curve $-1 -1 $-1 0.69999999999999996 1.4174999999999998 0 0 0 1 -0.13250000000000001 0 0 1 I I #
coedge $-1 -1 $-1 $230 $231 $117 $173 reversed $232 $-1 #
edge $-1 -1 $-1 $177 -2.0389849999999998 $182 -1.0864850000000001 $117 $233 forward @7 unknown #
coedge $-1 -1 $-1 $234 $118 $123 $186 reversed $176 $-1 #
coedge $-1 -1 $-1 $118 $234 $230 $235 forward $176 $-1 #
loop $-1 -1 $-1 $-1 $118 $236 #
vertex $-1 -1 $-1 $173 $237 #
ellipse-curve $-1 -1 $-1 0.69999999999999996 -1.2304999999999999 0 0 0 1 -0.1249999999999999 0 0 1 I I #
coedge $-1 -1 $-1 $238 $120 $231 $239 reversed $181 $-1 #
coedge $-1 -1 $-1 $120 $238 $122 $185 forward $181 $-1 #
loop $-1 -1 $-1 $-1 $120 $240 #
vertex $-1 -1 $-1 $121 $241 #
ellipse-curve $-1 -1 $-1 0.69999999999999996 -0.85550000000000004 0 0 0 1 0.1249999999999999 0 0 1 I I #
coedge $-1 -1 $-1 $123 $122 $152 $209 reversed $124 $-1 #
edge $-1 -1 $-1 $242 0 $125 0.30480000000000002 $180 $243 forward @7 unknown #
edge $-1 -1 $-1 $244 0 $126 0.30480000000000002 $123 $245 forward @7 unknown #
face $-1 -1 $-1 $240 $124 $2 $-1 $246 reversed single #
point $-1 -1 $-1 0.57499999999999984 -0.85550000000000004 0 #
point $-1 -1 $-1 0.57499999999999996 -1.2304999999999999 0 #
cone-surface $-1 -1 $-1 0 0.29249999999999998 -4.9832637595954212 0 0 1 0.62499999999999989 0 0 1 I I 0 1 0.62499999999999989 reversed I I I I #
coedge $-1 -1 $-1 $132 $193 $214 $247 reversed $82 $-1 #
straight-curve $-1 -1 $-1 1.7816249999999996 -1.6688749999999997 0 0.27838849653013681 0.27838849653013681 0 I I #
coedge $-1 -1 $-1 $191 $136 $212 $248 forward $82 $-1 #
coedge $-1 -1 $-1 $137 $146 $136 $195 forward $147 $-1 #
edge $-1 -1 $-1 $249 -0.06690290810196528 $139 0.47191245916218427 $136 $250 forward @7 unknown #
straight-curve $-1 -1 $-1 -1.9129999999999998 1.5374999999999996 0 0 0 0.39370078740157477 F -1.1811010000000006 F 1.4859010000000006 #
point $-1 -1 $-1 -1.9129999999999998 1.5374999999999996 0 #
vertex $-1 -1 $-1 $143 $251 #
straight-curve $-1 -1 $-1 1.9129999999999998 1.6874999999999998 0.12 0 -0.39370078740157477 0 F 0 F 8.5724999999999998 #
coedge $-1 -1 $-1 $144 $212 $146 $203 reversed $104 $-1 #
vertex $-1 -1 $-1 $213 $252 #
straight-curve $-1 -1 $-1 -1.9129999999999998 1.6874999999999998 0.12 0.39370078740157477 0 0 F 0 F 9.7180400000000002 #
edge $-1 -1 $-1 $148 -0.30480000000000002 $249 0 $200 $253 forward @7 unknown #
point $-1 -1 $-1 -1.7629999999999999 1.6874999999999998 0.12 #
loop $-1 -1 $-1 $254 $255 $61 #
coedge $-1 -1 $-1 $206 $206 $256 $257 forward $151 $-1 #
coedge $-1 -1 $-1 $258 $152 $238 $259 forward $100 $-1 #
coedge $-1 -1 $-1 $152 $258 $234 $260 forward $100 $-1 #
edge $-1 -1 $-1 $244 -1.5627350000000004 $242 -0.61023500000000075 $152 $261 forward @7 unknown #
vertex $-1 -1 $-1 $154 $262 #
ellipse-curve $-1 -1 $-1 0 0.29249999999999998 0.12000000000000006 0 0 -1 0.62499999999999989 0 0 1 I I #
coedge $-1 -1 $-1 $200 $156 $193 $248 reversed $104 $-1 #
edge $-1 -1 $-1 $263 0 $201 0.30480000000000002 $156 $264 forward @7 unknown #
coedge $-1 -1 $-1 $158 $157 $191 $247 forward $65 $-1 #
edge $-1 -1 $-1 $198 -0.30480000000000002 $217 0 $160 $265 forward @7 unknown #
straight-curve $-1 -1 $-1 1.7816249999999996 1.6688749999999997 0.12 0.27838849653013681 -0.27838849653013681 0 I I #
vertex $-1 -1 $-1 $161 $266 #
straight-curve $-1 -1 $-1 1.9129999999999998 1.6874999999999998 0 0 -0.39370078740157477 0 F 0 F 8.5724999999999998 #
point $-1 -1 $-1 1.9129999999999998 -1.5374999999999996 0 #
loop $-1 -1 $-1 $267 $268 $7 #
coedge $-1 -1 $-1 $221 $221 $269 $270 forward $165 $-1 #
coedge $-1 -1 $-1 $222 $222 $166 $223 reversed $271 $-1 #
edge $-1 -1 $-1 $272 -3.1415926535897931 $272 3.1415926535897931 $166 $273 forward @7 unknown #
loop $-1 -1 $-1 $274 $167 $275 #
vertex $-1 -1 $-1 $168 $276 #
ellipse-curve $-1 -1 $-1 1.625 -0.73050000000000015 0 0 0 1 -0.13250000000000001 0 0 1 I I #
loop $-1 -1 $-1 $-1 $256 $228 #
face $-1 -1 $-1 $275 $169 $2 $-1 $277 reversed single #
point $-1 -1 $-1 0.83249999999999991 1.4174999999999998 0 #
coedge $-1 -1 $-1 $278 $172 $175 $235 reversed $232 $-1 #
coedge $-1 -1 $-1 $172 $278 $179 $239 forward $232 $-1 #
loop $-1 -1 $-1 $-1 $172 $279 #
straight-curve $-1 -1 $-1 0.82500000000000007 -0.42775000000000002 0 0 0.39370078740157477 0 I I #
coedge $-1 -1 $-1 $175 $174 $208 $260 reversed $176 $-1 #
edge $-1 -1 $-1 $280 0 $177 0.30480000000000002 $175 $281 forward @7 unknown #
face $-1 -1 $-1 $228 $176 $2 $-1 $282 reversed single #
point $-1 -1 $-1 0.82500000000000007 -1.2304999999999999 0 #
coedge $-1 -1 $-1 $180 $179 $207 $259 reversed $181 $-1 #
edge $-1 -1 $-1 $283 0 $182 0.30480000000000002 $231 $284 forward @7 unknown #
face $-1 -1 $-1 $279 $181 $2 $-1 $285 reversed single #
point $-1 -1 $-1 0.82500000000000007 -0.85550000000000004 0 #
vertex $-1 -1 $-1 $209 $286 #
straight-curve $-1 -1 $-1 0.57499999999999984 -0.85550000000000004 0.12 0 0 -0.39370078740157477 I I #
vertex $-1 -1 $-1 $209 $287 #
straight-curve $-1 -1 $-1 0.57499999999999996 -1.2304999999999999 0.12 0 0 -0.39370078740157477 I I #
plane-surface $-1 -1 $-1 0.57499999999999996 -1.2304999999999999 0.12 -1 -4.662353909187011e-016 0 0 0 -0.39370078740157477 reverse_v I I I I #
edge $-1 -1 $-1 $217 -0.47191245916218427 $263 0.06690290810196528 $191 $288 forward @7 unknown #
edge $-1 -1 $-1 $249 0.38100000000000023 $263 9.33704 $193 $289 forward @7 unknown #
vertex $-1 -1 $-1 $248 $290 #
straight-curve $-1 -1 $-1 -1.7816249999999996 1.6688749999999997 0 -0.27838849653013681 -0.27838849653013681 0 I I #
point $-1 -1 $-1 1.9129999999999998 1.5374999999999996 0.12 #
point $-1 -1 $-1 1.7629999999999999 1.6874999999999998 0.12 #
straight-curve $-1 -1 $-1 -1.7629999999999999 1.6874999999999998 0 0 0 -0.39370078740157477 F -1.4859010000000006 F 1.1811010000000006 #
loop $-1 -1 $-1 $291 $292 $61 #
coedge $-1 -1 $-1 $255 $255 $293 $294 forward $205 $-1 #
coedge $-1 -1 $-1 $256 $256 $206 $257 reversed $227 $-1 #
edge $-1 -1 $-1 $295 0 $295 6.2831853071795862 $206 $296 forward @7 unknown #
coedge $-1 -1 $-1 $208 $207 $278 $297 forward $100 $-1 #
edge $-1 -1 $-1 $242 -3.1415926535897931 $283 0 $207 $298 forward @7 unknown #
edge $-1 -1 $-1 $280 -3.1415926535897931 $244 0 $208 $299 forward @7 unknown #
straight-curve $-1 -1 $-1 0.57499999999999962 -0.61524999999999974 0.12 -1.8355724051917364e-016 0.39370078740157477 0 I I #
point $-1 -1 $-1 0.62499999999999978 0.29249999999999998 0.12 #
vertex $-1 -1 $-1 $247 $300 #
straight-curve $-1 -1 $-1 1.7629999999999999 1.6874999999999998 0 0 0 0.39370078740157477 F -1.1811010000000006 F 1.4859010000000006 #
straight-curve $-1 -1 $-1 1.9129999999999998 1.5374999999999996 0 0 0 -0.39370078740157477 F -1.4859010000000006 F 1.1811010000000006 #
point $-1 -1 $-1 1.9129999999999998 1.5374999999999996 0 #
loop $-1 -1 $-1 $301 $302 $7 #
coedge $-1 -1 $-1 $268 $268 $303 $304 forward $220 $-1 #
coedge $-1 -1 $-1 $269 $269 $221 $270 reversed $305 $-1 #
edge $-1 -1 $-1 $306 -3.1415926535897931 $306 3.1415926535897931 $221 $307 forward @7 unknown #
loop $-1 -1 $-1 $308 $222 $309 #
vertex $-1 -1 $-1 $223 $310 #
ellipse-curve $-1 -1 $-1 1.625 -0.23050000000000012 0 0 0 1 -0.13250000000000001 0 0 1 I I #
loop $-1 -1 $-1 $-1 $293 $275 #
face $-1 -1 $-1 $309 $224 $2 $-1 $311 reversed single #
point $-1 -1 $-1 1.7575000000000001 -0.73050000000000015 0 #
cone-surface $-1 -1 $-1 0.69999999999999996 1.4174999999999998 -4.9832637595954212 0 0 -1 -0.13250000000000001 0 0 1 I I 0 1 0.13250000000000001 forward I I I I #
coedge $-1 -1 $-1 $231 $230 $258 $297 reversed $232 $-1 #
face $-1 -1 $-1 $236 $232 $2 $-1 $312 reversed single #
vertex $-1 -1 $-1 $297 $313 #
straight-curve $-1 -1 $-1 0.82500000000000007 -1.2304999999999999 0.12 0 0 -0.39370078740157477 I I #
cone-surface $-1 -1 $-1 0.69999999999999996 -1.2304999999999999 0.12 0 0 1 -0.1249999999999999 0 0 1 I I 0 1 0.1249999999999999 reversed I I I I #
vertex $-1 -1 $-1 $259 $314 #
straight-curve $-1 -1 $-1 0.82500000000000007 -0.85550000000000004 0.12 0 0 -0.39370078740157477 I I #
cone-surface $-1 -1 $-1 0.69999999999999996 -0.85550000000000004 0.12 0 0 1 0.1249999999999999 0 0 1 I I 0 1 0.1249999999999999 reversed I I I I #
point $-1 -1 $-1 0.57499999999999984 -0.85550000000000004 0.12 #
point $-1 -1 $-1 0.57499999999999996 -1.2304999999999999 0.12 #
straight-curve $-1 -1 $-1 1.7816249999999996 1.6688749999999997 0 -0.27838849653013681 0.27838849653013681 0 I I #
straight-curve $-1 -1 $-1 -1.9129999999999998 1.6874999999999998 0 0.39370078740157477 0 0 F 0 F 9.7180400000000002 #
point $-1 -1 $-1 -1.7629999999999999 1.6874999999999998 0 #
loop $-1 -1 $-1 $315 $316 $61 #
coedge $-1 -1 $-1 $292 $292 $317 $318 forward $254 $-1 #
coedge $-1 -1 $-1 $293 $293 $255 $294 reversed $274 $-1 #
edge $-1 -1 $-1 $319 0 $319 6.2831853071795862 $255 $320 forward @7 unknown #
vertex $-1 -1 $-1 $257 $321 #
ellipse-curve $-1 -1 $-1 0.69999999999999996 1.4174999999999998 0.12000000000000006 0 0 -1 -0.13250000000000001 0 0 1 I I #
edge $-1 -1 $-1 $283 1.0864850000000001 $280 2.0389849999999998 $258 $322 forward @7 unknown #
ellipse-curve $-1 -1 $-1 0.69999999999999996 -0.85550000000000004 0.12 0 0 -1 0.1249999999999999 0 0 1 I I #
ellipse-curve $-1 -1 $-1 0.69999999999999996 -1.2304999999999999 0.12 0 0 -1 -0.1249999999999999 0 0 1 I I #
point $-1 -1 $-1 1.7629999999999999 1.6874999999999998 0 #
loop $-1 -1 $-1 $323 $324 $7 #
coedge $-1 -1 $-1 $302 $302 $325 $326 forward $267 $-1 #
coedge $-1 -1 $-1 $303 $303 $268 $304 reversed $327 $-1 #
edge $-1 -1 $-1 $328 -3.1415926535897931 $328 3.1415926535897931 $268 $329 forward @7 unknown #
loop $-1 -1 $-1 $330 $269 $331 #
vertex $-1 -1 $-1 $270 $332 #
ellipse-curve $-1 -1 $-1 1.625 0.26949999999999985 0 0 0 1 -0.13250000000000001 0 0 1 I I #
loop $-1 -1 $-1 $-1 $317 $309 #
face $-1 -1 $-1 $331 $271 $2 $-1 $333 reversed single #
point $-1 -1 $-1 1.7575000000000001 -0.23050000000000012 0 #
cone-surface $-1 -1 $-1 1.625 -0.73050000000000015 -4.9832637595954212 0 0 -1 -0.13250000000000001 0 0 1 I I 0 1 0.13250000000000001 forward I I I I #
plane-surface $-1 -1 $-1 0.82500000000000007 -0.85550000000000004 0.12 1 0 0 0 0 0.39370078740157477 reverse_v I I I I #
point $-1 -1 $-1 0.82500000000000007 -1.2304999999999999 0.12 #
point $-1 -1 $-1 0.82500000000000007 -0.85550000000000004 0.12 #
loop $-1 -1 $-1 $334 $335 $61 #
coedge $-1 -1 $-1 $316 $316 $336 $337 forward $291 $-1 #
coedge $-1 -1 $-1 $317 $317 $292 $318 reversed $308 $-1 #
edge $-1 -1 $-1 $338 0 $338 6.2831853071795862 $292 $339 forward @7 unknown #
vertex $-1 -1 $-1 $294 $340 #
ellipse-curve $-1 -1 $-1 1.625 -0.73050000000000015 0.12000000000000006 0 0 -1 -0.13250000000000001 0 0 1 I I #
point $-1 -1 $-1 0.5675 1.4174999999999998 0.12 #
straight-curve $-1 -1 $-1 0.82500000000000007 -0.42775000000000002 0.12 0 -0.39370078740157477 0 I I #
loop $-1 -1 $-1 $341 $342 $7 #
coedge $-1 -1 $-1 $324 $324 $343 $344 forward $301 $-1 #
coedge $-1 -1 $-1 $325 $325 $302 $326 reversed $345 $-1 #
edge $-1 -1 $-1 $346 -3.1415926535897931 $346 3.1415926535897931 $302 $347 forward @7 unknown #
loop $-1 -1 $-1 $348 $303 $349 #
vertex $-1 -1 $-1 $304 $350 #
ellipse-curve $-1 -1 $-1 1.625 0.76949999999999985 0 0 0 1 -0.13250000000000001 0 0 1 I I #
loop $-1 -1 $-1 $-1 $336 $331 #
face $-1 -1 $-1 $349 $305 $2 $-1 $351 reversed single #
point $-1 -1 $-1 1.7575000000000001 0.26949999999999985 0 #
cone-surface $-1 -1 $-1 1.625 -0.23050000000000012 -4.9832637595954212 0 0 -1 -0.13250000000000001 0 0 1 I I 0 1 0.13250000000000001 forward I I I I #
loop $-1 -1 $-1 $352 $353 $61 #
coedge $-1 -1 $-1 $335 $335 $354 $355 forward $315 $-1 #
coedge $-1 -1 $-1 $336 $336 $316 $337 reversed $330 $-1 #
edge $-1 -1 $-1 $356 0 $356 6.2831853071795862 $316 $357 forward @7 unknown #
vertex $-1 -1 $-1 $318 $358 #
ellipse-curve $-1 -1 $-1 1.625 -0.23050000000000012 0.12000000000000006 0 0 -1 -0.13250000000000001 0 0 1 I I #
point $-1 -1 $-1 1.4924999999999999 -0.73050000000000015 0.12 #
loop $-1 -1 $-1 $359 $360 $7 #
coedge $-1 -1 $-1 $361 $362 $363 $364 forward $323 $-1 #
coedge $-1 -1 $-1 $343 $343 $324 $344 reversed $365 $-1 #
edge $-1 -1 $-1 $366 -3.1415926535897931 $366 3.1415926535897931 $324 $367 forward @7 unknown #
loop $-1 -1 $-1 $368 $325 $369 #
vertex $-1 -1 $-1 $326 $370 #
ellipse-curve $-1 -1 $-1 1.625 -1.2304999999999999 0 0 0 1 -0.13250000000000001 0 0 1 I I #
loop $-1 -1 $-1 $-1 $354 $349 #
face $-1 -1 $-1 $369 $327 $2 $-1 $371 reversed single #
point $-1 -1 $-1 1.7575000000000001 0.76949999999999985 0 #
cone-surface $-1 -1 $-1 1.625 0.26949999999999985 -4.9832637595954212 0 0 -1 -0.13250000000000001 0 0 1 I I 0 1 0.13250000000000001 forward I I I I #
loop $-1 -1 $-1 $372 $373 $61 #
coedge $-1 -1 $-1 $353 $353 $374 $375 forward $334 $-1 #
coedge $-1 -1 $-1 $354 $354 $335 $355 reversed $348 $-1 #
edge $-1 -1 $-1 $376 0 $376 6.2831853071795862 $335 $377 forward @7 unknown #
vertex $-1 -1 $-1 $337 $378 #
ellipse-curve $-1 -1 $-1 1.625 0.26949999999999985 0.12000000000000006 0 0 -1 -0.13250000000000001 0 0 1 I I #
point $-1 -1 $-1 1.4924999999999999 -0.23050000000000012 0.12 #
loop $-1 -1 $-1 $379 $380 $7 #
coedge $-1 -1 $-1 $360 $360 $381 $382 forward $341 $-1 #
coedge $-1 -1 $-1 $383 $342 $384 $385 forward $323 $-1 #
coedge $-1 -1 $-1 $342 $383 $386 $387 forward $323 $-1 #
coedge $-1 -1 $-1 $388 $389 $342 $364 reversed $390 $-1 #
edge $-1 -1 $-1 $391 1.0864850000000001 $392 2.0389849999999998 $342 $393 forward @7 unknown #
loop $-1 -1 $-1 $394 $343 $395 #
vertex $-1 -1 $-1 $344 $396 #
ellipse-curve $-1 -1 $-1 1.625 1.2694999999999999 0 0 0 1 -0.13250000000000001 0 0 1 I I #
loop $-1 -1 $-1 $-1 $374 $369 #
face $-1 -1 $-1 $395 $345 $2 $-1 $397 reversed single #
point $-1 -1 $-1 1.7575000000000001 -1.2304999999999999 0 #
cone-surface $-1 -1 $-1 1.625 0.76949999999999985 -4.9832637595954212 0 0 -1 -0.13250000000000001 0 0 1 I I 0 1 0.13250000000000001 forward I I I I #
loop $-1 -1 $-1 $398 $399 $61 #
coedge $-1 -1 $-1 $373 $373 $400 $401 forward $352 $-1 #
coedge $-1 -1 $-1 $374 $374 $353 $375 reversed $368 $-1 #
edge $-1 -1 $-1 $402 0 $402 6.2831853071795862 $353 $403 forward @7 unknown #
vertex $-1 -1 $-1 $355 $404 #
ellipse-curve $-1 -1 $-1 1.625 0.76949999999999985 0.12000000000000006 0 0 -1 -0.13250000000000001 0 0 1 I I #
point $-1 -1 $-1 1.4924999999999999 0.26949999999999985 0.12 #
loop $-1 -1 $-1 $405 $406 $7 #
coedge $-1 -1 $-1 $380 $380 $407 $408 forward $359 $-1 #
coedge $-1 -1 $-1 $381 $381 $360 $382 reversed $409 $-1 #
edge $-1 -1 $-1 $410 -3.1415926535897931 $410 3.1415926535897931 $360 $411 forward @7 unknown #
coedge $-1 -1 $-1 $362 $361 $412 $413 forward $323 $-1 #
coedge $-1 -1 $-1 $414 $415 $361 $385 reversed $416 $-1 #
edge $-1 -1 $-1 $392 -3.1415926535897931 $417 0 $361 $418 forward @7 unknown #
coedge $-1 -1 $-1 $419 $420 $362 $387 reversed $421 $-1 #
edge $-1 -1 $-1 $422 -3.1415926535897931 $391 0 $362 $423 forward @7 unknown #
coedge $-1 -1 $-1 $424 $363 $420 $425 reversed $390 $-1 #
coedge $-1 -1 $-1 $363 $424 $414 $426 forward $390 $-1 #
loop $-1 -1 $-1 $-1 $363 $427 #
vertex $-1 -1 $-1 $364 $428 #
vertex $-1 -1 $-1 $364 $429 #
straight-curve $-1 -1 $-1 -0.82500000000000007 -0.42775000000000002 0 0 -0.39370078740157477 0 I I #
loop $-1 -1 $-1 $-1 $400 $395 #
face $-1 -1 $-1 $430 $365 $2 $-1 $431 reversed single #
point $-1 -1 $-1 1.7575000000000001 1.2694999999999999 0 #
cone-surface $-1 -1 $-1 1.625 -1.2304999999999999 -4.9832637595954212 0 0 -1 -0.13250000000000001 0 0 1 I I 0 1 0.13250000000000001 forward I I I I #
loop $-1 -1 $-1 $432 $433 $61 #
coedge $-1 -1 $-1 $434 $435 $424 $436 forward $372 $-1 #
coedge $-1 -1 $-1 $400 $400 $373 $401 reversed $394 $-1 #
edge $-1 -1 $-1 $437 0 $437 6.2831853071795862 $373 $438 forward @7 unknown #
vertex $-1 -1 $-1 $375 $439 #
ellipse-curve $-1 -1 $-1 1.625 -1.2304999999999999 0.12000000000000006 0 0 -1 -0.13250000000000001 0 0 1 I I #
point $-1 -1 $-1 1.4924999999999999 0.76949999999999985 0.12 #
loop $-1 -1 $-1 $440 $441 $7 #
coedge $-1 -1 $-1 $406 $406 $442 $443 forward $379 $-1 #
coedge $-1 -1 $-1 $407 $407 $380 $408 reversed $444 $-1 #
edge $-1 -1 $-1 $445 -3.1415926535897931 $445 3.1415926535897931 $380 $446 forward @7 unknown #
loop $-1 -1 $-1 $447 $381 $448 #
vertex $-1 -1 $-1 $382 $449 #
ellipse-curve $-1 -1 $-1 -0.69999999999999996 1.4174999999999998 0 0 0 1 0.13250000000000001 0 0 1 I I #
coedge $-1 -1 $-1 $450 $451 $383 $413 reversed $452 $-1 #
edge $-1 -1 $-1 $417 -1.5627350000000004 $422 -0.61023500000000075 $383 $453 forward @7 unknown #
coedge $-1 -1 $-1 $454 $384 $389 $426 reversed $416 $-1 #
coedge $-1 -1 $-1 $384 $454 $450 $455 forward $416 $-1 #
loop $-1 -1 $-1 $-1 $384 $456 #
vertex $-1 -1 $-1 $385 $457 #
ellipse-curve $-1 -1 $-1 -0.69999999999999996 -1.2304999999999999 0 0 0 1 0.1249999999999999 0 0 1 I I #
coedge $-1 -1 $-1 $458 $386 $451 $459 reversed $421 $-1 #
coedge $-1 -1 $-1 $386 $458 $388 $425 forward $421 $-1 #
loop $-1 -1 $-1 $-1 $386 $460 #
vertex $-1 -1 $-1 $413 $461 #
ellipse-curve $-1 -1 $-1 -0.69999999999999996 -0.85550000000000004 0 0 0 1 -0.1249999999999999 0 0 1 I I #
coedge $-1 -1 $-1 $389 $388 $399 $436 reversed $390 $-1 #
edge $-1 -1 $-1 $462 0 $391 0.30480000000000002 $388 $463 forward @7 unknown #
edge $-1 -1 $-1 $464 0 $392 0.30480000000000002 $414 $465 forward @7 unknown #
face $-1 -1 $-1 $456 $390 $2 $-1 $466 reversed single #
point $-1 -1 $-1 -0.82500000000000007 -0.85550000000000004 0 #
point $-1 -1 $-1 -0.82500000000000007 -1.2304999999999999 0 #
face $-1 -1 $-1 $460 $452 $2 $-1 $467 reversed single #
cone-surface $-1 -1 $-1 1.625 1.2694999999999999 -4.9832637595954212 0 0 -1 -0.13250000000000001 0 0 1 I I 0 1 0.13250000000000001 forward I I I I #
loop $-1 -1 $-1 $468 $469 $61 #
coedge $-1 -1 $-1 $433 $433 $470 $471 forward $398 $-1 #
coedge $-1 -1 $-1 $472 $399 $458 $473 forward $372 $-1 #
coedge $-1 -1 $-1 $399 $472 $454 $474 forward $372 $-1 #
edge $-1 -1 $-1 $464 -2.0389849999999998 $462 -1.0864850000000001 $399 $475 forward @7 unknown #
vertex $-1 -1 $-1 $401 $476 #
ellipse-curve $-1 -1 $-1 1.625 1.2694999999999999 0.12000000000000006 0 0 -1 -0.13250000000000001 0 0 1 I I #
point $-1 -1 $-1 1.4924999999999999 -1.2304999999999999 0.12 #
loop $-1 -1 $-1 $477 $478 $7 #
coedge $-1 -1 $-1 $441 $441 $479 $480 forward $405 $-1 #
coedge $-1 -1 $-1 $442 $442 $406 $443 reversed $481 $-1 #
edge $-1 -1 $-1 $482 -3.1415926535897931 $482 3.1415926535897931 $406 $483 forward @7 unknown #
loop $-1 -1 $-1 $484 $407 $485 #
vertex $-1 -1 $-1 $408 $486 #
ellipse-curve $-1 -1 $-1 -1.625 -0.73050000000000015 0 0 0 1 0.13250000000000001 0 0 1 I I #
loop $-1 -1 $-1 $-1 $470 $448 #
face $-1 -1 $-1 $485 $409 $2 $-1 $487 reversed single #
point $-1 -1 $-1 -0.83249999999999991 1.4174999999999998 0 #
coedge $-1 -1 $-1 $488 $412 $415 $455 reversed $452 $-1 #
coedge $-1 -1 $-1 $412 $488 $419 $459 forward $452 $-1 #
loop $-1 -1 $-1 $-1 $412 $430 #
straight-curve $-1 -1 $-1 -0.57499999999999962 -0.61524999999999974 0 1.8355724051917364e-016 0.39370078740157477 0 I I #
coedge $-1 -1 $-1 $415 $414 $435 $474 reversed $416 $-1 #
edge $-1 -1 $-1 $489 0 $417 0.30480000000000002 $450 $490 forward @7 unknown #
face $-1 -1 $-1 $448 $416 $2 $-1 $491 reversed single #
point $-1 -1 $-1 -0.57499999999999996 -1.2304999999999999 0 #
coedge $-1 -1 $-1 $420 $419 $434 $473 reversed $421 $-1 #
edge $-1 -1 $-1 $492 0 $422 0.30480000000000002 $419 $493 forward @7 unknown #
face $-1 -1 $-1 $427 $421 $2 $-1 $494 reversed single #
point $-1 -1 $-1 -0.57499999999999984 -0.85550000000000004 0 #
vertex $-1 -1 $-1 $436 $495 #
straight-curve $-1 -1 $-1 -0.82500000000000007 -0.85550000000000004 0.12 0 0 -0.39370078740157477 I I #
vertex $-1 -1 $-1 $436 $496 #
straight-curve $-1 -1 $-1 -0.82500000000000007 -1.2304999999999999 0.12 0 0 -0.39370078740157477 I I #
plane-surface $-1 -1 $-1 -0.82500000000000007 -0.85550000000000004 0.12 -1 0 0 0 0 0.39370078740157477 forward_v I I I I #
plane-surface $-1 -1 $-1 -0.57499999999999996 -1.2304999999999999 0.12 1 -4.662353909187011e-016 0 0 0 -0.39370078740157477 forward_v I I I I #
loop $-1 -1 $-1 $497 $498 $61 #
coedge $-1 -1 $-1 $469 $469 $499 $500 forward $432 $-1 #
coedge $-1 -1 $-1 $470 $470 $433 $471 reversed $447 $-1 #
edge $-1 -1 $-1 $501 0 $501 6.2831853071795862 $433 $502 forward @7 unknown #
coedge $-1 -1 $-1 $435 $434 $488 $503 forward $372 $-1 #
edge $-1 -1 $-1 $462 0 $492 3.1415926535897931 $434 $504 forward @7 unknown #
edge $-1 -1 $-1 $489 0 $464 3.1415926535897931 $435 $505 forward @7 unknown #
straight-curve $-1 -1 $-1 -0.82500000000000007 -0.42775000000000002 0.12 0 0.39370078740157477 0 I I #
point $-1 -1 $-1 1.4924999999999999 1.2694999999999999 0.12 #
loop $-1 -1 $-1 $506 $507 $7 #
coedge $-1 -1 $-1 $478 $478 $508 $509 forward $440 $-1 #
coedge $-1 -1 $-1 $479 $479 $441 $480 reversed $510 $-1 #
edge $-1 -1 $-1 $511 -3.1415926535897931 $511 3.1415926535897931 $441 $512 forward @7 unknown #
loop $-1 -1 $-1 $513 $442 $514 #
vertex $-1 -1 $-1 $443 $515 #
ellipse-curve $-1 -1 $-1 -1.625 -0.23050000000000012 0 0 0 1 0.13250000000000001 0 0 1 I I #
loop $-1 -1 $-1 $-1 $499 $485 #
face $-1 -1 $-1 $514 $444 $2 $-1 $516 reversed single #
point $-1 -1 $-1 -1.7575000000000001 -0.73050000000000015 0 #
cone-surface $-1 -1 $-1 -0.69999999999999996 1.4174999999999998 -4.9832637595954212 0 0 1 0.13250000000000001 0 0 1 I I 0 1 0.13250000000000001 reversed I I I I #
coedge $-1 -1 $-1 $451 $450 $472 $503 reversed $452 $-1 #
vertex $-1 -1 $-1 $474 $517 #
straight-curve $-1 -1 $-1 -0.57499999999999996 -1.2304999999999999 0.12 0 0 -0.39370078740157477 I I #
cone-surface $-1 -1 $-1 -0.69999999999999996 -1.2304999999999999 0.12 0 0 -1 0.1249999999999999 0 0 1 I I 0 1 0.1249999999999999 forward I I I I #
vertex $-1 -1 $-1 $503 $518 #
straight-curve $-1 -1 $-1 -0.57499999999999984 -0.85550000000000004 0.12 0 0 -0.39370078740157477 I I #
cone-surface $-1 -1 $-1 -0.69999999999999996 -0.85550000000000004 0.12 0 0 -1 -0.1249999999999999 0 0 1 I I 0 1 0.1249999999999999 forward I I I I #
point $-1 -1 $-1 -0.82500000000000007 -0.85550000000000004 0.12 #
point $-1 -1 $-1 -0.82500000000000007 -1.2304999999999999 0.12 #
loop $-1 -1 $-1 $519 $520 $61 #
coedge $-1 -1 $-1 $498 $498 $521 $522 forward $468 $-1 #
coedge $-1 -1 $-1 $499 $499 $469 $500 reversed $484 $-1 #
edge $-1 -1 $-1 $523 0 $523 6.2831853071795862 $469 $524 forward @7 unknown #
vertex $-1 -1 $-1 $471 $525 #
ellipse-curve $-1 -1 $-1 -0.69999999999999996 1.4174999999999998 0.12000000000000006 0 0 -1 0.13250000000000001 0 0 1 I I #
edge $-1 -1 $-1 $492 0.61023500000000075 $489 1.5627350000000004 $472 $526 forward @7 unknown #
ellipse-curve $-1 -1 $-1 -0.69999999999999996 -0.85550000000000004 0.12 0 0 -1 -0.1249999999999999 0 0 1 I I #
ellipse-curve $-1 -1 $-1 -0.69999999999999996 -1.2304999999999999 0.12 0 0 -1 0.1249999999999999 0 0 1 I I #
loop $-1 -1 $-1 $82 $527 $7 #
coedge $-1 -1 $-1 $507 $507 $528 $529 forward $477 $-1 #
coedge $-1 -1 $-1 $508 $508 $478 $509 reversed $530 $-1 #
edge $-1 -1 $-1 $531 -3.1415926535897931 $531 3.1415926535897931 $478 $532 forward @7 unknown #
loop $-1 -1 $-1 $533 $479 $534 #
vertex $-1 -1 $-1 $480 $535 #
ellipse-curve $-1 -1 $-1 -1.625 0.26949999999999985 0 0 0 1 0.13250000000000001 0 0 1 I I #
loop $-1 -1 $-1 $-1 $521 $514 #
face $-1 -1 $-1 $534 $481 $2 $-1 $536 reversed single #
point $-1 -1 $-1 -1.7575000000000001 -0.23050000000000012 0 #
cone-surface $-1 -1 $-1 -1.625 -0.73050000000000015 -4.9832637595954212 0 0 1 0.13250000000000001 0 0 1 I I 0 1 0.13250000000000001 reversed I I I I #
point $-1 -1 $-1 -0.57499999999999996 -1.2304999999999999 0.12 #
point $-1 -1 $-1 -0.57499999999999984 -0.85550000000000004 0.12 #
loop $-1 -1 $-1 $537 $538 $61 #
coedge $-1 -1 $-1 $520 $520 $539 $540 forward $497 $-1 #
coedge $-1 -1 $-1 $521 $521 $498 $522 reversed $513 $-1 #
edge $-1 -1 $-1 $541 0 $541 6.2831853071795862 $498 $542 forward @7 unknown #
vertex $-1 -1 $-1 $500 $543 #
ellipse-curve $-1 -1 $-1 -1.625 -0.73050000000000015 0.12000000000000006 0 0 -1 0.13250000000000001 0 0 1 I I #
point $-1 -1 $-1 -0.5675 1.4174999999999998 0.12 #
straight-curve $-1 -1 $-1 -0.57499999999999962 -0.61524999999999974 0.12 -1.8355724051917364e-016 -0.39370078740157477 0 I I #
coedge $-1 -1 $-1 $527 $527 $544 $545 forward $506 $-1 #
coedge $-1 -1 $-1 $528 $528 $507 $529 reversed $546 $-1 #
edge $-1 -1 $-1 $547 -3.1415926535897931 $547 3.1415926535897931 $507 $548 forward @7 unknown #
loop $-1 -1 $-1 $549 $508 $550 #
vertex $-1 -1 $-1 $509 $551 #
ellipse-curve $-1 -1 $-1 -1.625 0.76949999999999985 0 0 0 1 0.13250000000000001 0 0 1 I I #
loop $-1 -1 $-1 $-1 $539 $534 #
face $-1 -1 $-1 $550 $510 $2 $-1 $552 reversed single #
point $-1 -1 $-1 -1.7575000000000001 0.26949999999999985 0 #
cone-surface $-1 -1 $-1 -1.625 -0.23050000000000012 -4.9832637595954212 0 0 1 0.13250000000000001 0 0 1 I I 0 1 0.13250000000000001 reversed I I I I #
loop $-1 -1 $-1 $553 $554 $61 #
coedge $-1 -1 $-1 $538 $538 $555 $556 forward $519 $-1 #
coedge $-1 -1 $-1 $539 $539 $520 $540 reversed $533 $-1 #
edge $-1 -1 $-1 $557 0 $557 6.2831853071795862 $520 $558 forward @7 unknown #
vertex $-1 -1 $-1 $522 $559 #
ellipse-curve $-1 -1 $-1 -1.625 -0.23050000000000012 0.12000000000000006 0 0 -1 0.13250000000000001 0 0 1 I I #
point $-1 -1 $-1 -1.4924999999999999 -0.73050000000000015 0.12 #
coedge $-1 -1 $-1 $544 $544 $527 $545 reversed $560 $-1 #
edge $-1 -1 $-1 $561 -3.1415926535897931 $561 3.1415926535897931 $527 $562 forward @7 unknown #
loop $-1 -1 $-1 $563 $528 $564 #
vertex $-1 -1 $-1 $529 $565 #
ellipse-curve $-1 -1 $-1 -1.625 -1.2304999999999999 0 0 0 1 0.13250000000000001 0 0 1 I I #
loop $-1 -1 $-1 $-1 $555 $550 #
face $-1 -1 $-1 $564 $530 $2 $-1 $566 reversed single #
point $-1 -1 $-1 -1.7575000000000001 0.76949999999999985 0 #
cone-surface $-1 -1 $-1 -1.625 0.26949999999999985 -4.9832637595954212 0 0 1 0.13250000000000001 0 0 1 I I 0 1 0.13250000000000001 reversed I I I I #
loop $-1 -1 $-1 $-1 $567 $61 #
coedge $-1 -1 $-1 $554 $554 $568 $569 forward $537 $-1 #
coedge $-1 -1 $-1 $555 $555 $538 $556 reversed $549 $-1 #
edge $-1 -1 $-1 $570 0 $570 6.2831853071795862 $538 $571 forward @7 unknown #
vertex $-1 -1 $-1 $540 $572 #
ellipse-curve $-1 -1 $-1 -1.625 0.26949999999999985 0.12000000000000006 0 0 -1 0.13250000000000001 0 0 1 I I #
point $-1 -1 $-1 -1.4924999999999999 -0.23050000000000012 0.12 #
loop $-1 -1 $-1 $573 $544 $574 #
vertex $-1 -1 $-1 $545 $575 #
ellipse-curve $-1 -1 $-1 -1.625 1.2694999999999999 0 0 0 1 0.13250000000000001 0 0 1 I I #
loop $-1 -1 $-1 $-1 $568 $564 #
face $-1 -1 $-1 $574 $546 $2 $-1 $576 reversed single #
point $-1 -1 $-1 -1.7575000000000001 -1.2304999999999999 0 #
cone-surface $-1 -1 $-1 -1.625 0.76949999999999985 -4.9832637595954212 0 0 1 0.13250000000000001 0 0 1 I I 0 1 0.13250000000000001 reversed I I I I #
coedge $-1 -1 $-1 $567 $567 $577 $578 forward $553 $-1 #
coedge $-1 -1 $-1 $568 $568 $554 $569 reversed $563 $-1 #
edge $-1 -1 $-1 $579 0 $579 6.2831853071795862 $554 $580 forward @7 unknown #
vertex $-1 -1 $-1 $556 $581 #
ellipse-curve $-1 -1 $-1 -1.625 0.76949999999999985 0.12000000000000006 0 0 -1 0.13250000000000001 0 0 1 I I #
point $-1 -1 $-1 -1.4924999999999999 0.26949999999999985 0.12 #
loop $-1 -1 $-1 $-1 $577 $574 #
face $-1 -1 $-1 $92 $560 $2 $-1 $582 reversed single #
point $-1 -1 $-1 -1.7575000000000001 1.2694999999999999 0 #
cone-surface $-1 -1 $-1 -1.625 -1.2304999999999999 -4.9832637595954212 0 0 1 0.13250000000000001 0 0 1 I I 0 1 0.13250000000000001 reversed I I I I #
coedge $-1 -1 $-1 $577 $577 $567 $578 reversed $573 $-1 #
edge $-1 -1 $-1 $583 0 $583 6.2831853071795862 $567 $584 forward @7 unknown #
vertex $-1 -1 $-1 $569 $585 #
ellipse-curve $-1 -1 $-1 -1.625 -1.2304999999999999 0.12000000000000006 0 0 -1 0.13250000000000001 0 0 1 I I #
point $-1 -1 $-1 -1.4924999999999999 0.76949999999999985 0.12 #
cone-surface $-1 -1 $-1 -1.625 1.2694999999999999 -4.9832637595954212 0 0 1 0.13250000000000001 0 0 1 I I 0 1 0.13250000000000001 reversed I I I I #
vertex $-1 -1 $-1 $578 $586 #
ellipse-curve $-1 -1 $-1 -1.625 1.2694999999999999 0.12000000000000006 0 0 -1 0.13250000000000001 0 0 1 I I #
point $-1 -1 $-1 -1.4924999999999999 -1.2304999999999999 0.12 #
point $-1 -1 $-1 -1.4924999999999999 1.2694999999999999 0.12 #
End-of-ACIS-data 