400 0 1 0           
7 Unknown 11 ACIS 6.0 NT 24 Thu Jan 24 18:15:20 2002 
25.399999999999999 9.9999999999999995e-007 1e-010 
body $-1 $1 $-1 $-1 #
lump $-1 $-1 $2 $0 #
shell $-1 $-1 $-1 $3 $-1 $1 #
face $-1 $4 $5 $2 $-1 $6 forward single #
face $-1 $7 $8 $2 $-1 $9 forward single #
loop $-1 $-1 $10 $3 #
cone-surface $-1 0.32117809843505568 0.74665589108167585 0 0 0 1 0.044194173824159223 0.044194173824159223 0 1 I I 0 1 0.0625 forward I I I I #
face $-1 $11 $12 $2 $-1 $13 forward single #
loop $-1 $-1 $14 $4 #
plane-surface $-1 0.38367809843505568 0.80915589108167585 0 1 -2.9139711932418806e-017 0 0 0 -0.39370078740157477 forward_v I I I I #
coedge $-1 $15 $16 $17 $18 forward $5 $-1 #
face $-1 $19 $20 $2 $-1 $21 forward single #
loop $-1 $-1 $17 $7 #
plane-surface $-1 -0.091608183076608063 0.059155891081675911 0.12 0 0 1 0.39370078740157477 0 0 forward_v I I I I #
coedge $-1 $22 $23 $15 $24 reversed $8 $-1 #
coedge $-1 $25 $10 $14 $24 forward $5 $-1 #
coedge $-1 $10 $25 $26 $27 forward $5 $-1 #
coedge $-1 $28 $29 $10 $18 reversed $12 $-1 #
edge $-1 $30 $31 $17 $32 forward #
face $-1 $33 $34 $2 $-1 $35 forward single #
loop $-1 $-1 $36 $11 #
cone-surface $-1 0.32117809843505568 -0.62834410891832415 0 0 0 1 0.044194173824159147 -0.044194173824159279 0 1 I I 0 1 0.062499999999999993 forward I I I I #
coedge $-1 $37 $14 $29 $38 forward $8 $-1 #
coedge $-1 $14 $37 $39 $40 forward $8 $-1 #
edge $-1 $31 $41 $14 $42 forward #
coedge $-1 $16 $15 $43 $44 forward $5 $-1 #
coedge $-1 $45 $46 $16 $27 reversed $47 $-1 #
edge $-1 $48 $30 $26 $49 forward #
coedge $-1 $50 $17 $46 $51 reversed $12 $-1 #
coedge $-1 $17 $52 $22 $38 reversed $12 $-1 #
vertex $-1 $18 $53 #
vertex $-1 $38 $54 #
ellipse-curve $-1 0.32117809843505568 0.74665589108167585 0.12 0 0 -1 0.044194173824159223 0.044194173824159223 0 1 I I #
face $-1 $55 $56 $2 $-1 $57 forward single #
loop $-1 $-1 $58 $19 #
plane-surface $-1 0.38367809843505563 -0.69084410891832415 0 0 -1 0 0 0 -0.39370078740157477 forward_v I I I I #
coedge $-1 $59 $60 $52 $61 forward $20 $-1 #
coedge $-1 $23 $22 $60 $62 reversed $8 $-1 #
edge $-1 $31 $63 $22 $64 forward #
coedge $-1 $65 $43 $23 $40 reversed $66 $-1 #
edge $67 $68 $41 $23 $69 forward #
vertex $-1 $24 $70 #
straight-curve $-1 0.38367809843505568 0.74665589108167585 0 0 0 -0.39370078740157477 F -0.79692600000000013 F 0.49212600000000001 #
coedge $-1 $39 $71 $25 $44 reversed $66 $-1 #
edge $-1 $41 $48 $43 $72 forward #
coedge $-1 $73 $26 $71 $74 forward $47 $-1 #
coedge $-1 $26 $73 $28 $51 forward $47 $-1 #
loop $-1 $-1 $26 $75 #
vertex $-1 $74 $76 #
straight-curve $-1 0.32117809843505568 0.80915589108167585 0 0 0 0.39370078740157477 F -0.49212600000000001 F 0.79692600000000013 #
coedge $-1 $77 $28 $78 $79 reversed $12 $-1 #
edge $80 $81 $30 $46 $82 forward #
coedge $-1 $29 $83 $36 $61 reversed $12 $-1 #
point $-1 0.32117809843505568 0.80915589108167585 0.12 #
point $-1 0.38367809843505568 0.74665589108167585 0.12 #
face $-1 $84 $85 $2 $-1 $86 forward single #
loop $-1 $-1 $87 $33 #
cone-surface $-1 -0.61632190156494415 -0.30599645292656708 1.3699999999999999 1 0 0 0 0.1872255496937654 0.33067596456632187 1 I I 0 1 0.38 forward I I I I #
coedge $-1 $88 $89 $59 $90 reversed $34 $-1 #
coedge $-1 $91 $36 $58 $90 forward $20 $-1 #
coedge $-1 $36 $91 $37 $62 forward $20 $-1 #
edge $-1 $63 $92 $52 $93 forward #
edge $-1 $68 $63 $37 $94 forward #
vertex $-1 $61 $95 #
straight-curve $-1 0.38367809843505563 -0.69084410891832426 0.12 -1.1472327532448348e-017 -0.39370078740157477 0 F -3.8100000000000005 F 0 #
coedge $-1 $96 $39 $91 $97 reversed $66 $-1 #
loop $-1 $-1 $43 $98 #
convexity-sys-attrib $-1 $-1 $-1 $40 #
vertex $-1 $40 $99 #
straight-curve $-1 0.38367809843505563 -0.69084410891832426 0 1.1472327532448348e-017 0.39370078740157477 0 F 0 F 3.8100000000000005 #
point $-1 0.38367809843505568 0.74665589108167585 0 #
coedge $-1 $43 $100 $45 $74 reversed $66 $-1 #
ellipse-curve $-1 0.32117809843505568 0.74665589108167585 0 0 0 1 0.044194173824159223 0.044194173824159223 0 1 I I #
coedge $-1 $46 $45 $101 $102 forward $47 $-1 #
edge $-1 $48 $103 $45 $104 forward #
face $-1 $105 $47 $2 $-1 $106 forward single #
point $-1 0.32117809843505568 0.80915589108167585 0 #
coedge $-1 $107 $50 $108 $109 reversed $12 $-1 #
coedge $-1 $101 $110 $50 $79 forward $111 $-1 #
edge $-1 $112 $81 $78 $113 forward #
convexity-sys-attrib $-1 $-1 $-1 $51 #
vertex $-1 $102 $114 #
straight-curve $-1 0.38367809843505568 0.80915589108167585 0.12 0.39370078740157477 0 0 F -0.63500000000000023 F 0 #
coedge $-1 $52 $115 $88 $116 reversed $12 $-1 #
face $-1 $117 $118 $2 $-1 $119 forward single #
loop $-1 $120 $121 $55 #
plane-surface $-1 -0.49632190156494421 0.059155891081675849 0.93500000000000005 1 2.40946274784478e-016 6.0035117523983617e-017 2.3635873040938431e-017 0 -0.39370078740157477 forward_v I I I I #
coedge $-1 $122 $123 $124 $125 forward $56 $-1 #
coedge $-1 $126 $58 $83 $116 forward $34 $-1 #
coedge $-1 $58 $126 $96 $127 forward $34 $-1 #
edge $-1 $92 $128 $58 $129 forward #
coedge $-1 $60 $59 $65 $97 forward $20 $-1 #
vertex $-1 $116 $130 #
ellipse-curve $-1 0.32117809843505568 -0.62834410891832415 0.12 0 0 -1 0.044194173824159147 -0.044194173824159279 0 1 I I #
straight-curve $-1 0.38367809843505563 -0.62834410891832415 0 0 0 0.39370078740157477 F -0.49212600000000001 F 0.79692600000000013 #
point $-1 0.38367809843505563 -0.62834410891832415 0.12 #
coedge $-1 $131 $65 $89 $127 reversed $66 $-1 #
edge $-1 $128 $68 $65 $132 forward #
face $-1 $-1 $66 $2 $-1 $133 reversed single #
point $-1 0.38367809843505563 -0.62834410891832415 0 #
coedge $-1 $71 $134 $135 $136 reversed $66 $-1 #
coedge $-1 $135 $78 $73 $102 reversed $111 $-1 #
edge $-1 $103 $81 $73 $137 forward #
vertex $-1 $74 $138 #
straight-curve $-1 0.38367809843505568 0.80915589108167585 0 -0.39370078740157477 0 0 F 0 F 0.63500000000000023 #
face $-1 $139 $140 $2 $-1 $141 forward single #
plane-surface $-1 0.13367809843505563 0.80915589108167585 0 0 1 0 0 0 0.39370078740157477 forward_v I I I I #
coedge $-1 $142 $77 $143 $144 reversed $12 $-1 #
coedge $-1 $145 $146 $77 $109 forward $147 $-1 #
edge $-1 $148 $112 $108 $149 forward #
coedge $-1 $78 $135 $145 $150 forward $111 $-1 #
loop $-1 $-1 $78 $151 #
vertex $-1 $150 $152 #
straight-curve $-1 0.13367809843505563 0.80915589108167585 0.12 -6.8833965194690011e-017 0.39370078740157477 0 F -0.63500000000000068 F 0 #
point $-1 0.13367809843505563 0.80915589108167585 0.12 #
coedge $-1 $83 $153 $154 $155 reversed $12 $-1 #
edge $-1 $92 $156 $88 $157 forward #
face $-1 $158 $159 $2 $-1 $160 forward single #
loop $-1 $-1 $161 $84 #
plane-surface $-1 -0.61632190156494404 -0.69084410891832426 1.75 0 0 1 0.39370078740157477 0 0 forward_v I I I I #
loop $-1 $-1 $124 $55 #
coedge $-1 $121 $121 $162 $163 forward $85 $-1 #
coedge $-1 $164 $87 $165 $166 forward $56 $-1 #
coedge $-1 $87 $164 $161 $167 forward $56 $-1 #
coedge $-1 $168 $169 $87 $125 reversed $120 $-1 #
edge $-1 $170 $171 $124 $172 forward #
coedge $-1 $89 $88 $173 $174 reversed $34 $-1 #
edge $175 $176 $128 $89 $177 forward #
vertex $-1 $90 $178 #
straight-curve $-1 0.32117809843505568 -0.69084410891832415 0 0 0 -0.39370078740157477 F -0.79692600000000013 F 0.49212600000000001 #
point $-1 0.32117809843505568 -0.69084410891832415 0.12 #
coedge $-1 $179 $96 $180 $181 reversed $66 $-1 #
ellipse-curve $-1 0.32117809843505568 -0.62834410891832415 0 0 0 1 0.044194173824159147 -0.044194173824159279 0 1 I I #
plane-surface $-1 -0.091608183076608021 0.05915589108167587 0 0 0 1 0.39370078740157477 0 0 forward_v I I I I #
coedge $-1 $100 $182 $183 $184 reversed $66 $-1 #
coedge $-1 $110 $101 $100 $136 forward $111 $-1 #
edge $-1 $103 $185 $135 $186 forward #
straight-curve $-1 0.13367809843505563 0.80915589108167585 0 0 0 0.39370078740157477 I I #
point $-1 0.13367809843505563 0.80915589108167585 0 #
face $-1 $187 $188 $2 $-1 $189 forward single #
loop $-1 $-1 $154 $105 #
plane-surface $-1 0.13367809843505593 -0.69084410891832415 0 -1 -3.496765431890257e-016 0 0 0 0.39370078740157477 forward_v I I I I #
coedge $-1 $190 $107 $191 $192 reversed $12 $-1 #
coedge $-1 $193 $194 $107 $144 forward $195 $-1 #
edge $-1 $196 $148 $143 $197 forward #
coedge $-1 $183 $108 $110 $150 reversed $147 $-1 #
coedge $-1 $108 $183 $193 $198 forward $147 $-1 #
loop $-1 $-1 $108 $199 #
vertex $-1 $198 $200 #
ellipse-curve $-1 0.0036780984350556919 0.55915589108167563 0.12 0 0 1 0.12999999999999998 8.7419135797256401e-017 0 1 F -3.1415926535897931 F 1.1304889502276862e-031 #
edge $-1 $185 $112 $110 $201 forward #
face $-1 $75 $111 $2 $-1 $202 forward single #
point $-1 0.13367809843505565 0.55915589108167563 0.12 #
coedge $-1 $115 $203 $204 $205 reversed $12 $-1 #
coedge $-1 $206 $173 $115 $155 forward $140 $-1 #
edge $-1 $156 $207 $154 $208 forward #
vertex $-1 $174 $209 #
straight-curve $-1 0.13367809843505593 -0.69084410891832415 0.12 -0.39370078740157477 0 0 F -0.63499999999999934 F 0 #
face $-1 $210 $211 $2 $-1 $212 reversed single #
loop $-1 $-1 $165 $117 #
plane-surface $-1 -0.61632190156494415 0.35915589108167584 0.99999999999999989 0 0.85749292571254421 0.51449575542752657 0.39370078740157477 0 0 forward_v I I I I #
coedge $-1 $213 $214 $123 $167 reversed $118 $-1 #
coedge $-1 $162 $162 $121 $163 reversed $215 $-1 #
edge $-1 $216 $216 $121 $217 forward #
coedge $-1 $123 $122 $218 $219 forward $56 $-1 #
coedge $-1 $220 $221 $122 $166 reversed $159 $-1 #
edge $-1 $171 $222 $165 $223 forward #
edge $-1 $224 $170 $161 $225 forward #
coedge $-1 $226 $124 $214 $227 reversed $120 $-1 #
coedge $-1 $124 $228 $220 $229 reversed $120 $-1 #
vertex $-1 $167 $230 #
vertex $-1 $229 $231 #
ellipse-curve $-1 -0.49632190156494421 -0.30599645292656708 1.3699999999999999 -1 -2.40946274784478e-016 -6.0035117523983617e-017 0 0.1872255496937654 0.33067596456632187 1 I I #
coedge $-1 $154 $180 $126 $174 forward $140 $-1 #
edge $-1 $176 $156 $173 $232 forward #
convexity-sys-attrib $-1 $-1 $-1 $127 #
vertex $-1 $181 $233 #
straight-curve $-1 0.13367809843505593 -0.69084410891832415 0 0.39370078740157477 0 0 F 0 F 0.63499999999999934 #
point $-1 0.32117809843505568 -0.69084410891832415 0 #
coedge $-1 $234 $131 $235 $236 reversed $66 $-1 #
coedge $-1 $173 $206 $131 $181 forward $140 $-1 #
edge $-1 $237 $176 $180 $238 forward #
coedge $-1 $134 $239 $240 $241 reversed $66 $-1 #
coedge $-1 $146 $145 $134 $184 forward $147 $-1 #
edge $-1 $185 $242 $183 $243 forward #
vertex $-1 $136 $244 #
straight-curve $-1 0.13367809843505563 0.80915589108167585 0 6.8833965194690011e-017 -0.39370078740157477 0 F 0 F 0.63500000000000068 #
face $-1 $98 $245 $2 $-1 $246 forward single #
loop $-1 $-1 $204 $139 #
cone-surface $-1 0.0036780984350558666 -0.4408441089183241 0 0 0 1 -0.12999999999999998 8.7419135797256413e-017 0 1 I I 0 -1 0.12999999999999998 forward I I I I #
coedge $-1 $247 $142 $248 $249 forward $12 $-1 #
coedge $-1 $250 $251 $142 $192 forward $252 $-1 #
edge $-1 $253 $196 $191 $254 forward #
coedge $-1 $240 $143 $146 $198 reversed $195 $-1 #
coedge $-1 $143 $240 $250 $255 forward $195 $-1 #
loop $-1 $-1 $143 $256 #
vertex $-1 $255 $257 #
straight-curve $-1 -0.12632190156494433 0.55915589108167563 0.12 6.8833965194690011e-017 -0.39370078740157477 0 F -0.63500000000000068 F 0 #
edge $-1 $242 $148 $146 $258 forward #
face $-1 $151 $147 $2 $-1 $259 forward single #
point $-1 -0.12632190156494433 0.55915589108167563 0.12 #
straight-curve $-1 0.13367809843505565 0.55915589108167563 0 0 0 0.39370078740157477 I I #
plane-surface $-1 0.13367809843505565 0.55915589108167563 0 -1 -1.7483827159451265e-016 0 0 0 0.39370078740157477 forward_v I I I I #
coedge $-1 $153 $247 $260 $261 reversed $12 $-1 #
coedge $-1 $262 $263 $153 $205 forward $188 $-1 #
edge $-1 $207 $264 $204 $265 forward #
coedge $-1 $180 $154 $263 $266 reversed $140 $-1 #
vertex $-1 $266 $267 #
straight-curve $-1 0.13367809843505585 -0.44084410891832421 0.12 -1.3766793038938019e-016 0.39370078740157477 0 F -0.63500000000000001 F 0 #
point $-1 0.13367809843505593 -0.69084410891832415 0.12 #
face $-1 $268 $269 $2 $-1 $270 forward single #
loop $-1 $271 $218 $158 #
plane-surface $-1 -0.61632190156494415 0.059155891081675828 0.93500000000000005 1 2.40946274784478e-016 6.0035117523983592e-017 2.3635873040938419e-017 0 -0.39370078740157477 forward_v I I I I #
coedge $-1 $272 $161 $273 $274 forward $118 $-1 #
coedge $-1 $161 $272 $168 $227 forward $118 $-1 #
loop $-1 $-1 $162 $275 #
vertex $-1 $163 $276 #
ellipse-curve $-1 -0.49632190156494427 -0.31084410891832415 1.3699999999999999 -1 -2.40946274784478e-016 -6.0035117523983617e-017 1.1406672329556887e-017 2.6590971663262417e-033 -0.19 1 I I #
coedge $-1 $277 $273 $164 $219 reversed $211 $-1 #
edge $-1 $222 $224 $218 $278 forward #
coedge $-1 $279 $165 $169 $229 forward $159 $-1 #
coedge $-1 $165 $279 $277 $280 forward $159 $-1 #
vertex $-1 $219 $281 #
straight-curve $-1 -0.61632190156494415 0.019850858844199779 1.56550838706246 -0.39370078740157477 0 0 F -3.2969210000000002 F 2.9921210000000005 #
vertex $-1 $274 $282 #
straight-curve $-1 -0.61632190156494415 -0.30599645292656708 1.75 0.39370078740157477 0 0 F -2.9921210000000005 F 3.2969210000000002 #
coedge $-1 $283 $168 $284 $285 reversed $120 $-1 #
edge $286 $287 $170 $214 $288 forward #
coedge $-1 $169 $289 $290 $291 reversed $120 $-1 #
edge $-1 $171 $292 $169 $293 forward #
point $-1 -0.49632190156494421 -0.30599645292656708 1.75 #
point $-1 -0.49632190156494421 0.019850858844199692 1.56550838706246 #
straight-curve $-1 0.13367809843505593 -0.69084410891832415 0 0 0 0.39370078740157477 I I #
point $-1 0.13367809843505593 -0.69084410891832415 0 #
coedge $-1 $294 $179 $295 $296 reversed $66 $-1 #
coedge $-1 $263 $262 $179 $236 forward $188 $-1 #
edge $-1 $297 $237 $235 $298 forward #
vertex $-1 $236 $299 #
straight-curve $-1 0.13367809843505585 -0.44084410891832421 0 1.3766793038938019e-016 -0.39370078740157477 0 F 0 F 0.63500000000000001 #
coedge $-1 $182 $300 $301 $302 reversed $66 $-1 #
coedge $-1 $194 $193 $182 $241 forward $195 $-1 #
edge $-1 $242 $303 $240 $304 forward #
vertex $-1 $184 $305 #
ellipse-curve $-1 0.0036780984350556919 0.55915589108167563 0 0 0 -1 0.12999999999999998 8.7419135797256401e-017 0 1 F -1.1304889502276862e-031 F 3.1415926535897931 #
point $-1 0.13367809843505565 0.55915589108167563 0 #
loop $-1 $-1 $260 $187 #
plane-surface $-1 -0.12632190156494413 -0.44084410891832421 0 1 4.3709567898628192e-016 0 0 0 -0.39370078740157477 forward_v I I I I #
coedge $-1 $203 $190 $306 $307 reversed $12 $-1 #
coedge $-1 $308 $309 $190 $249 reversed $310 $-1 #
edge $-1 $253 $311 $190 $312 forward #
coedge $-1 $301 $191 $194 $255 reversed $252 $-1 #
coedge $-1 $191 $290 $308 $313 reversed $252 $-1 #
loop $-1 $-1 $314 $315 #
vertex $-1 $192 $316 #
straight-curve $-1 -0.12632190156494433 0.80915589108167585 0.12 0.39370078740157477 0 0 F -1.2446000000000002 F 0 #
edge $-1 $303 $196 $194 $317 forward #
face $-1 $199 $195 $2 $-1 $318 forward single #
point $-1 -0.12632190156494436 0.80915589108167585 0.12 #
straight-curve $-1 -0.12632190156494433 0.55915589108167563 0 0 0 0.39370078740157477 I I #
cone-surface $-1 0.0036780984350556919 0.55915589108167563 0 0 0 1 0.12999999999999998 8.7419135797256401e-017 0 1 I I 0 -1 0.12999999999999998 forward I I I I #
coedge $-1 $319 $320 $203 $261 forward $245 $-1 #
edge $-1 $264 $321 $260 $322 forward #
coedge $-1 $235 $204 $320 $323 reversed $188 $-1 #
coedge $-1 $204 $235 $206 $266 forward $188 $-1 #
vertex $-1 $323 $324 #
ellipse-curve $-1 0.0036780984350558666 -0.4408441089183241 0.12 0 0 1 -0.12999999999999998 8.7419135797256413e-017 0 1 F -3.1415926535897931 F 0 #
edge $-1 $237 $207 $263 $325 forward #
point $-1 0.13367809843505585 -0.44084410891832421 0.12 #
face $-1 $275 $326 $2 $-1 $327 forward single #
loop $-1 $-1 $284 $210 #
cone-surface $-1 -0.37132190156494405 -0.31084410891832426 1.3699999999999999 1 0 0 0 -0.268700576850888 0.26870057685088811 1 I I 0 1 0.38 forward I I I I #
loop $-1 $-1 $328 $158 #
coedge $-1 $214 $213 $329 $330 reversed $118 $-1 #
coedge $-1 $218 $331 $213 $274 reversed $211 $-1 #
edge $-1 $224 $332 $213 $333 forward #
face $-1 $334 $335 $2 $-1 $336 reversed single #
point $-1 -0.4963219015649441 -0.31084410891832415 1.1799999999999999 #
coedge $-1 $337 $218 $221 $280 reversed $211 $-1 #
ellipse-curve $-1 -0.61632190156494415 -0.30599645292656708 1.3699999999999999 1 2.40946274784478e-016 6.0035117523983592e-017 0 0.1872255496937654 0.33067596456632187 1 I I #
coedge $-1 $221 $220 $314 $338 forward $159 $-1 #
edge $339 $340 $222 $277 $341 forward #
point $-1 -0.61632190156494415 0.019850858844199692 1.56550838706246 #
point $-1 -0.61632190156494415 -0.30599645292656708 1.75 #
coedge $-1 $289 $226 $342 $343 reversed $120 $-1 #
coedge $-1 $329 $344 $226 $285 forward $269 $-1 #
edge $-1 $345 $287 $226 $346 forward #
convexity-sys-attrib $-1 $-1 $-1 $227 #
vertex $-1 $227 $347 #
straight-curve $-1 -0.49632190156494443 0.80915589108167585 1.75 -9.1778620259586809e-017 0.39370078740157477 0 F -3.8100000000000005 F 0 #
coedge $-1 $228 $283 $348 $349 forward $120 $-1 #
coedge $-1 $251 $314 $228 $291 forward $252 $-1 #
edge $-1 $292 $350 $290 $351 forward #
vertex $-1 $291 $352 #
straight-curve $-1 -0.49632190156494427 0.33378824402285234 1.0422794117647058 -2.85378531856501e-017 0.20255738402658524 -0.3375956400443087 I I #
coedge $-1 $300 $234 $353 $354 reversed $66 $-1 #
coedge $-1 $320 $319 $234 $296 forward $245 $-1 #
edge $-1 $355 $297 $295 $356 forward #
vertex $-1 $296 $357 #
ellipse-curve $-1 0.0036780984350558666 -0.4408441089183241 0 0 0 -1 -0.12999999999999998 8.7419135797256413e-017 0 1 F 0 F 3.1415926535897931 #
point $-1 0.13367809843505585 -0.44084410891832421 0 #
coedge $-1 $239 $294 $358 $359 forward $66 $-1 #
coedge $-1 $360 $250 $239 $302 forward $252 $-1 #
edge $-1 $303 $361 $301 $362 forward #
vertex $-1 $241 $363 #
straight-curve $-1 -0.12632190156494433 0.55915589108167563 0 -6.8833965194690011e-017 0.39370078740157477 0 F 0 F 0.63500000000000068 #
point $-1 -0.12632190156494433 0.55915589108167563 0 #
coedge $-1 $364 $365 $247 $307 forward $326 $-1 #
edge $-1 $321 $311 $306 $366 forward #
coedge $-1 $348 $248 $251 $313 forward $310 $-1 #
coedge $-1 $248 $348 $364 $367 reversed $310 $-1 #
loop $-1 $-1 $348 $334 #
vertex $-1 $367 $368 #
straight-curve $-1 -0.46632190156494363 -0.3158441089183241 0.12 9.1778620259586784e-017 -0.39370078740157477 0 I I #
edge $-1 $253 $350 $308 $369 forward #
coedge $-1 $290 $370 $279 $338 reversed $252 $-1 #
face $-1 $256 $252 $2 $-1 $371 forward single #
point $-1 -0.46632190156494391 0.80915589108167585 0.11999999999999997 #
straight-curve $-1 -0.12632190156494436 0.80915589108167585 0 0 0 0.39370078740157477 I I #
plane-surface $-1 -0.12632190156494436 0.80915589108167585 0 1 1.7483827159451265e-016 0 0 0 -0.39370078740157477 forward_v I I I I #
coedge $-1 $295 $260 $365 $372 reversed $245 $-1 #
coedge $-1 $260 $295 $262 $323 forward $245 $-1 #
vertex $-1 $372 $373 #
straight-curve $-1 -0.12632190156494402 -0.69084410891832426 0.12 1.7208491298672514e-016 -0.39370078740157477 0 F -0.63500000000000023 F 0 #
edge $-1 $297 $264 $320 $374 forward #
point $-1 -0.12632190156494413 -0.44084410891832421 0.12 #
straight-curve $-1 0.13367809843505585 -0.44084410891832421 0 0 0 0.39370078740157477 I I #
loop $-1 $-1 $375 $268 #
plane-surface $-1 -0.12632190156494402 -0.69084410891832426 0 0 -1 0 0 0 -0.39370078740157477 forward_v I I I I #
coedge $-1 $328 $328 $376 $377 forward $271 $-1 #
coedge $-1 $378 $284 $272 $330 forward $269 $-1 #
edge $-1 $287 $332 $272 $379 forward #
coedge $-1 $273 $380 $378 $381 reversed $211 $-1 #
vertex $-1 $381 $382 #
straight-curve $-1 -0.61632190156494437 0.80915589108167585 1.75 9.1778620259586809e-017 -0.39370078740157477 0 F 0 F 3.8100000000000005 #
face $-1 $383 $310 $2 $-1 $384 forward single #
loop $-1 $215 $376 $275 #
cone-surface $-1 -3.0087908068451665 -0.31084410891832481 1.3699999999999997 1 2.40946274784478e-016 6.0035117523983617e-017 1.1406672329556887e-017 2.6590971663262417e-033 -0.19 1 I I 0 1 0.19 reversed I I I I #
coedge $-1 $385 $277 $370 $386 reversed $211 $-1 #
edge $-1 $292 $340 $314 $387 forward #
convexity-sys-attrib $-1 $-1 $-1 $280 #
vertex $-1 $280 $388 #
straight-curve $-1 -0.61632190156494426 0.33378824402285234 1.0422794117647058 2.8537853185650106e-017 -0.20255738402658524 0.3375956400443087 I I #
coedge $-1 $375 $364 $283 $343 forward $326 $-1 #
edge $389 $390 $345 $342 $391 forward #
coedge $-1 $284 $378 $375 $392 forward $269 $-1 #
vertex $-1 $392 $393 #
ellipse-curve $-1 -0.49632190156494421 -0.31084410891832426 1.3699999999999999 -1 -2.40946274784478e-016 -6.0035117523983617e-017 0 -0.268700576850888 0.26870057685088811 1 I I #
point $-1 -0.49632190156494421 -0.31084410891832415 1.75 #
coedge $-1 $309 $308 $289 $349 reversed $310 $-1 #
edge $-1 $390 $350 $289 $394 forward #
vertex $-1 $349 $395 #
straight-curve $-1 -0.49632190156494438 0.80915589108167585 0.12 2.4106424287842076e-017 5.6196340757470569e-033 -0.39370078740157477 F -4.1402000000000001 F 0 #
point $-1 -0.49632190156494438 0.80915589108167585 0.25000000000000006 #
coedge $-1 $365 $396 $294 $354 forward $326 $-1 #
edge $-1 $397 $355 $353 $398 forward #
vertex $-1 $354 $399 #
straight-curve $-1 -0.12632190156494402 -0.69084410891832426 0 -1.7208491298672514e-016 0.39370078740157477 0 F 0 F 0.63500000000000023 #
point $-1 -0.12632190156494413 -0.44084410891832421 0 #
coedge $-1 $400 $401 $300 $359 reversed $402 $-1 #
edge $-1 $397 $361 $300 $403 forward #
coedge $-1 $370 $301 $401 $404 forward $252 $-1 #
vertex $-1 $359 $405 #
straight-curve $-1 -0.12632190156494433 0.80915589108167585 0 -0.39370078740157477 0 0 F 0 F 1.2446000000000002 #
point $-1 -0.12632190156494436 0.80915589108167585 0 #
coedge $-1 $342 $306 $309 $367 forward $326 $-1 #
coedge $-1 $306 $353 $319 $372 forward $326 $-1 #
straight-curve $-1 -0.61632190156494393 -0.69084410891832426 0.12 -0.39370078740157477 0 0 F -1.2445999999999999 F 0 #
edge $-1 $311 $390 $364 $406 forward #
point $-1 -0.46632190156494358 -0.69084410891832404 0.11999999999999997 #
ellipse-curve $-1 -0.46632190156494463 0.80915589108167563 0.15000000000000002 -2.3311769545935045e-016 1 0 1.3987061727561025e-016 0 -0.029999999999999992 1 F -1.864941563674804e-014 F 1.5707963267948808 #
coedge $-1 $314 $360 $337 $386 forward $252 $-1 #
plane-surface $-1 -0.61632190156494437 0.80915589108167585 0 0 1 0 0 0 0.39370078740157477 forward_v I I I I #
edge $-1 $355 $321 $365 $407 forward #
point $-1 -0.12632190156494402 -0.69084410891832426 0.12 #
straight-curve $-1 -0.12632190156494413 -0.44084410891832421 0 0 0 0.39370078740157477 I I #
coedge $-1 $408 $342 $344 $392 reversed $326 $-1 #
coedge $-1 $376 $376 $328 $377 reversed $335 $-1 #
edge $-1 $409 $409 $328 $410 forward #
coedge $-1 $344 $329 $331 $381 forward $269 $-1 #
straight-curve $-1 -0.37132190156494405 -0.31084410891832426 1.75 -0.39370078740157477 0 0 F -2.6746210000000001 F 3.614421000000001 #
coedge $-1 $331 $385 $408 $411 reversed $211 $-1 #
edge $-1 $332 $412 $331 $413 forward #
point $-1 -0.61632190156494415 -0.31084410891832415 1.75 #
face $-1 $315 $402 $2 $-1 $414 forward single #
cone-surface $-1 -0.46632190156494441 0.059155891081675779 0.15000000000000002 -2.3311769545935045e-016 1 0 1.3987061727561025e-016 0 -0.029999999999999992 1 I I 0 -1 0.029999999999999992 forward I I I I #
coedge $-1 $380 $337 $415 $416 forward $211 $-1 #
edge $417 $418 $340 $370 $419 forward #
straight-curve $-1 -0.61632190156494415 0.80915589108167585 0.25000000000000006 -0.39370078740157477 0 0 F -12.115800999999999 F 11.811001000000001 #
point $-1 -0.61632190156494437 0.80915589108167585 0.25000000000000006 #
convexity-sys-attrib $-1 $-1 $-1 $343 #
vertex $-1 $343 $420 #
straight-curve $-1 -0.4963219015649441 -0.69084410891832426 1.75 -2.4106424287842076e-017 -6.974207826442068e-034 0.39370078740157477 F -4.1402000000000001 F 0 #
edge $-1 $412 $345 $375 $421 forward #
point $-1 -0.4963219015649441 -0.69084410891832426 1.3699999999999999 #
straight-curve $-1 -0.49632190156494399 -0.31584410891832421 0.15000000000000002 -9.4860738104125192e-017 0.39370078740157477 0 I I #
point $-1 -0.49632190156494421 0.80915589108167563 0.14999999999999999 #
coedge $-1 $353 $408 $400 $422 reversed $326 $-1 #
vertex $-1 $354 $423 #
straight-curve $-1 -0.61632190156494393 -0.69084410891832426 0 0.39370078740157477 0 0 F 0 F 1.2445999999999999 #
point $-1 -0.12632190156494402 -0.69084410891832426 0 #
coedge $-1 $415 $358 $396 $422 forward $402 $-1 #
coedge $-1 $358 $415 $360 $404 reversed $402 $-1 #
loop $-1 $-1 $415 $383 #
straight-curve $-1 -0.46632190156494363 -0.31584410891832415 0 -9.1778620259586784e-017 0.39370078740157477 0 I I #
edge $-1 $361 $418 $360 $424 forward #
point $-1 -0.46632190156494391 0.80915589108167585 4.3709567898628207e-017 #
ellipse-curve $-1 -0.46632190156494424 -0.69084410891832404 0.15000000000000002 -2.3311769545935045e-016 1 0 1.3987061727561025e-016 0 -0.029999999999999992 1 F -1.864941563674804e-014 F 1.5707963267948692 #
straight-curve $-1 -0.12632190156494402 -0.69084410891832426 0 0 0 0.39370078740157477 I I #
coedge $-1 $396 $375 $380 $411 forward $326 $-1 #
vertex $-1 $377 $425 #
ellipse-curve $-1 -0.61632190156494437 -0.3108441089183242 1.3699999999999999 1 2.40946274784478e-016 6.0035117523983592e-017 1.1406672329556887e-017 2.6590971663262417e-033 -0.19 1 I I #
edge $-1 $412 $426 $408 $427 forward #
vertex $-1 $411 $428 #
ellipse-curve $-1 -0.61632190156494415 -0.31084410891832426 1.3699999999999999 1 2.40946274784478e-016 6.0035117523983592e-017 0 -0.268700576850888 0.26870057685088811 1 I I #
cone-surface $-1 -0.46632190156494441 0.059155891081675779 0.15000000000000002 -2.3311769545935045e-016 1 0 6.9935308637805131e-016 0 -0.14999999999999999 1 I I 0 1 0.14999999999999999 forward I I I I #
coedge $-1 $401 $400 $385 $416 reversed $402 $-1 #
edge $-1 $418 $426 $385 $429 forward #
convexity-sys-attrib $-1 $-1 $-1 $386 #
vertex $-1 $386 $430 #
straight-curve $-1 -0.61632190156494437 0.80915589108167585 0.12 -2.4106424287842076e-017 -5.6196340757470569e-033 0.39370078740157477 F 0 F 4.1402000000000001 #
point $-1 -0.49632190156494382 -0.69084410891832426 0.14999999999999999 #
straight-curve $-1 -0.37132190156494405 -0.69084410891832426 1.3699999999999999 0.39370078740157477 0 0 F -3.614421000000001 F 2.6746210000000001 #
edge $-1 $397 $426 $400 $431 forward #
point $-1 -0.46632190156494358 -0.69084410891832404 4.3709567898628207e-017 #
ellipse-curve $-1 -0.46632190156494463 0.80915589108167563 0.15000000000000002 -2.3311769545935045e-016 1 0 6.9935308637805131e-016 0 -0.14999999999999999 1 F 0 F 1.5707963267948972 #
point $-1 -0.61632190156494437 -0.3108441089183242 1.5599999999999998 #
vertex $-1 $422 $432 #
straight-curve $-1 -0.61632190156494404 -0.69084410891832426 1.75 2.4106424287842076e-017 6.974207826442068e-034 -0.39370078740157477 F 0 F 4.1402000000000001 #
point $-1 -0.61632190156494404 -0.69084410891832426 1.3699999999999999 #
straight-curve $-1 -0.61632190156494393 -0.31584410891832426 0.15000000000000002 9.4860738104125192e-017 -0.39370078740157477 0 I I #
point $-1 -0.61632190156494437 0.80915589108167563 0.14999999999999999 #
ellipse-curve $-1 -0.46632190156494424 -0.69084410891832404 0.15000000000000002 -2.3311769545935045e-016 1 0 6.9935308637805131e-016 0 -0.14999999999999999 1 F 0 F 1.5707963267948948 #
point $-1 -0.61632190156494393 -0.69084410891832426 0.14999999999999999 #
End-of-ACIS-data 