700 0 1 0           
29 Autodesk Inventor 6.2.0.12000 17 ASM 6.0.1.6021 NT 24 Sat Dec 31 12:30:29 2005 
25.399999999999999 9.9999999999999995e-007 1e-010 
body $-1 -1 $-1 $1 $-1 $-1 #
lump $-1 -1 $-1 $-1 $2 $0 #
shell $-1 -1 $-1 $-1 $-1 $3 $-1 $1 #
face $-1 -1 $-1 $4 $5 $2 $-1 $6 forward single #
face $-1 -1 $-1 $7 $8 $2 $-1 $9 reversed single #
loop $-1 -1 $-1 $10 $11 $3 #
cone-surface $-1 -1 $-1 -0.81249999999999989 -0.46909709371657105 0.0074999999999999997 0 0 -1 -0.13250000000000001 0 0 1 I I -0.70710678118654779 -0.70710678118654735 0.13250000000000001 forward I I I I #
face $-1 -1 $-1 $12 $13 $2 $-1 $14 reversed single #
loop $-1 -1 $-1 $15 $16 $4 #
plane-surface $-1 -1 $-1 9.4248755781417071e-017 -4.9173263885956735e-017 0 0 0 1 0.39370078740157477 0 0 forward_v I I I I #
loop $-1 -1 $-1 $-1 $17 $3 #
coedge $-1 -1 $-1 $11 $11 $18 $19 forward $5 $-1 #
face $-1 -1 $-1 $20 $21 $2 $-1 $22 forward single #
loop $-1 -1 $-1 $23 $24 $7 #
cone-surface $-1 -1 $-1 -0.81249999999999989 -0.46909709371657105 0 0 0 1 -0.12499999999999999 0 0 1 I I 0 1 0.12499999999999999 forward I I I I #
loop $-1 -1 $-1 $25 $26 $4 #
coedge $-1 -1 $-1 $16 $16 $27 $28 reversed $8 $-1 #
coedge $-1 -1 $-1 $17 $17 $29 $30 forward $10 $-1 #
coedge $-1 -1 $-1 $18 $18 $11 $19 reversed $23 $-1 #
edge $-1 -1 $-1 $31 -3.1415926535897931 $31 3.1415926535897931 $18 $32 forward @7 unknown #
face $-1 -1 $-1 $33 $34 $2 $-1 $35 reversed single #
loop $-1 -1 $-1 $36 $37 $12 #
cone-surface $-1 -1 $-1 0.8125 -0.46909709371657099 0.0074999999999999997 0 0 -1 -0.13250000000000001 0 0 1 I I -0.70710678118654779 -0.70710678118654735 0.13250000000000001 forward I I I I #
loop $-1 -1 $-1 $-1 $18 $7 #
coedge $-1 -1 $-1 $24 $24 $38 $39 reversed $13 $-1 #
loop $-1 -1 $-1 $40 $41 $4 #
coedge $-1 -1 $-1 $42 $43 $44 $45 reversed $15 $-1 #
coedge $-1 -1 $-1 $27 $27 $16 $28 forward $36 $-1 #
edge $-1 -1 $-1 $46 -3.1415926535897931 $46 3.1415926535897931 $16 $47 forward @7 unknown #
coedge $-1 -1 $-1 $29 $29 $17 $30 reversed $48 $-1 #
edge $-1 -1 $-1 $49 -3.1415926535897931 $49 3.1415926535897931 $29 $50 forward @7 unknown #
vertex $-1 -1 $-1 $19 $51 #
ellipse-curve $-1 -1 $-1 -0.81249999999999989 -0.46909709371657105 0.014999999999999999 0 0 1 -0.12499999999999999 0 0 1 I I #
face $-1 -1 $-1 $52 $53 $2 $-1 $54 forward single #
loop $-1 -1 $-1 $55 $56 $20 #
cone-surface $-1 -1 $-1 0.8125 -0.46909709371657099 0 0 0 1 -0.12499999999999999 0 0 1 I I 0 1 0.12499999999999999 forward I I I I #
loop $-1 -1 $-1 $-1 $27 $12 #
coedge $-1 -1 $-1 $37 $37 $57 $58 forward $21 $-1 #
coedge $-1 -1 $-1 $38 $38 $24 $39 forward $59 $-1 #
edge $-1 -1 $-1 $60 -3.1415926535897931 $60 3.1415926535897931 $24 $61 forward @7 unknown #
loop $-1 -1 $-1 $48 $62 $4 #
coedge $-1 -1 $-1 $63 $64 $65 $66 forward $25 $-1 #
coedge $-1 -1 $-1 $67 $26 $68 $69 reversed $15 $-1 #
coedge $-1 -1 $-1 $26 $70 $71 $72 reversed $15 $-1 #
coedge $-1 -1 $-1 $73 $68 $26 $45 forward $74 $-1 #
edge $-1 -1 $-1 $75 -3.1415926535897931 $76 -1.867587132965137 $26 $77 forward @7 unknown #
vertex $-1 -1 $-1 $28 $78 #
ellipse-curve $-1 -1 $-1 0.8125 -0.46909709371657099 0 0 0 -1 -0.13999999999999999 0 0 1 I I #
loop $-1 -1 $-1 $-1 $29 $4 #
vertex $-1 -1 $-1 $30 $79 #
ellipse-curve $-1 -1 $-1 -0.81249999999999989 -0.46909709371657105 0 0 0 -1 -0.13999999999999999 0 0 1 I I #
point $-1 -1 $-1 -0.68749999999999989 -0.46909709371657105 0.014999999999999999 #
face $-1 -1 $-1 $80 $81 $2 $-1 $82 reversed single #
loop $-1 -1 $-1 $83 $84 $33 #
cone-surface $-1 -1 $-1 0 0.93819418743314176 0.0074999999999999997 0 0 -1 -0.13250000000000001 0 0 1 I I -0.70710678118654779 -0.70710678118654735 0.13250000000000001 forward I I I I #
loop $-1 -1 $-1 $-1 $57 $20 #
coedge $-1 -1 $-1 $56 $56 $85 $86 reversed $34 $-1 #
coedge $-1 -1 $-1 $57 $57 $37 $58 reversed $55 $-1 #
edge $-1 -1 $-1 $87 -3.1415926535897931 $87 3.1415926535897931 $57 $88 forward @7 unknown #
loop $-1 -1 $-1 $89 $38 $90 #
vertex $-1 -1 $-1 $39 $91 #
ellipse-curve $-1 -1 $-1 -0.81249999999999989 -0.46909709371657105 0.23499999999999999 0 0 -1 -0.12499999999999999 0 0 1 I I #
coedge $-1 -1 $-1 $62 $62 $92 $93 reversed $40 $-1 #
coedge $-1 -1 $-1 $94 $41 $95 $96 forward $25 $-1 #
coedge $-1 -1 $-1 $41 $97 $98 $99 forward $25 $-1 #
coedge $-1 -1 $-1 $100 $101 $41 $66 reversed $102 $-1 #
edge $-1 -1 $-1 $103 0 $104 3.1415926535897931 $41 $105 forward @7 unknown #
coedge $-1 -1 $-1 $70 $42 $106 $107 reversed $15 $-1 #
coedge $-1 -1 $-1 $44 $108 $42 $69 forward $74 $-1 #
edge $-1 -1 $-1 $109 -1.2740055206246566 $75 3.1415926535897931 $42 $110 forward @7 unknown #
coedge $-1 -1 $-1 $43 $67 $111 $112 reversed $15 $-1 #
coedge $-1 -1 $-1 $113 $114 $43 $72 forward $115 $-1 #
edge $-1 -1 $-1 $76 0.24679703411364717 $116 0.43497500000000011 $43 $117 forward @7 unknown #
coedge $-1 -1 $-1 $118 $44 $114 $119 forward $74 $-1 #
loop $-1 -1 $-1 $-1 $118 $80 #
vertex $-1 -1 $-1 $45 $120 #
vertex $-1 -1 $-1 $45 $121 #
ellipse-curve $-1 -1 $-1 0 0 0 0 0 -1 0.26500000000000001 0 0 1 I I #
point $-1 -1 $-1 0.95250000000000001 -0.46909709371657099 0 #
point $-1 -1 $-1 -0.67249999999999988 -0.46909709371657105 0 #
face $-1 -1 $-1 $122 $74 $2 $-1 $123 forward single #
loop $-1 -1 $-1 $124 $125 $52 #
cone-surface $-1 -1 $-1 0 0.93819418743314176 0 0 0 1 -0.12499999999999999 0 0 1 I I 0 1 0.12499999999999999 forward I I I I #
loop $-1 -1 $-1 $-1 $92 $33 #
coedge $-1 -1 $-1 $84 $84 $126 $127 forward $53 $-1 #
coedge $-1 -1 $-1 $85 $85 $56 $86 forward $128 $-1 #
edge $-1 -1 $-1 $129 -3.1415926535897931 $129 3.1415926535897931 $56 $130 forward @7 unknown #
vertex $-1 -1 $-1 $58 $131 #
ellipse-curve $-1 -1 $-1 0.8125 -0.46909709371657099 0.014999999999999999 0 0 1 -0.12499999999999999 0 0 1 I I #
loop $-1 -1 $-1 $-1 $132 $90 #
face $-1 -1 $-1 $133 $59 $2 $-1 $134 forward single #
point $-1 -1 $-1 -0.68749999999999989 -0.46909709371657105 0.23499999999999999 #
coedge $-1 -1 $-1 $92 $92 $62 $93 forward $83 $-1 #
edge $-1 -1 $-1 $135 -3.1415926535897931 $135 3.1415926535897931 $62 $136 forward @7 unknown #
coedge $-1 -1 $-1 $137 $63 $138 $139 reversed $25 $-1 #
coedge $-1 -1 $-1 $140 $141 $63 $96 reversed $142 $-1 #
edge $-1 -1 $-1 $104 0 $143 0.3749669218732592 $63 $144 forward @7 unknown #
coedge $-1 -1 $-1 $64 $145 $146 $147 reversed $25 $-1 #
coedge $-1 -1 $-1 $148 $149 $64 $99 reversed $150 $-1 #
edge $-1 -1 $-1 $151 0.21199508999308936 $103 0.58696201186634944 $64 $152 forward @7 unknown #
coedge $-1 -1 $-1 $153 $65 $149 $154 forward $102 $-1 #
coedge $-1 -1 $-1 $65 $153 $140 $155 reversed $102 $-1 #
loop $-1 -1 $-1 $-1 $153 $156 #
vertex $-1 -1 $-1 $66 $157 #
vertex $-1 -1 $-1 $66 $158 #
ellipse-curve $-1 -1 $-1 0 0.93819418743314176 0 0 0 -1 -0.24999999999999997 0 0 1 F 0 F 3.1415926535897931 #
coedge $-1 -1 $-1 $159 $160 $67 $107 forward $161 $-1 #
edge $-1 -1 $-1 $162 -0.52443194689478667 $109 -0.33625398100843334 $67 $163 forward @7 unknown #
coedge $-1 -1 $-1 $68 $164 $159 $165 forward $74 $-1 #
vertex $-1 -1 $-1 $69 $166 #
ellipse-curve $-1 -1 $-1 0 0 0 0 0 -1 0.26500000000000001 0 0 1 I I #
coedge $-1 -1 $-1 $167 $168 $70 $112 forward $169 $-1 #
edge $-1 -1 $-1 $116 -0.27622499999999994 $162 0.11747500000000012 $70 $170 forward @7 unknown #
coedge $-1 -1 $-1 $171 $71 $168 $172 reversed $115 $-1 #
coedge $-1 -1 $-1 $71 $171 $73 $119 reversed $115 $-1 #
loop $-1 -1 $-1 $-1 $171 $122 #
vertex $-1 -1 $-1 $72 $173 #
straight-curve $-1 -1 $-1 -0.077499999999999999 0.15624999999999994 0 -1.8322878804777184e-016 0.39370078740157477 0 F -2.3437859999999997 F 2.6630492360801803 #
coedge $-1 -1 $-1 $164 $73 $174 $175 forward $74 $-1 #
edge $-1 -1 $-1 $76 -0.061091071866912108 $176 0 $73 $177 forward @7 unknown #
point $-1 -1 $-1 -0.26500000000000001 3.2452068376292997e-017 0 #
point $-1 -1 $-1 -0.077500000000000055 0.25341418665891613 0 #
face $-1 -1 $-1 $178 $115 $2 $-1 $179 forward single #
cone-surface $-1 -1 $-1 0 0 0.0075000000000000041 0 0 -1 0.25750000000000001 0 0 1 I I -0.70710678118654746 -0.70710678118654746 0.25750000000000001 forward I I I I #
loop $-1 -1 $-1 $-1 $126 $52 #
coedge $-1 -1 $-1 $125 $125 $180 $181 reversed $81 $-1 #
coedge $-1 -1 $-1 $126 $126 $84 $127 reversed $124 $-1 #
edge $-1 -1 $-1 $182 -3.1415926535897931 $182 3.1415926535897931 $126 $183 forward @7 unknown #
loop $-1 -1 $-1 $184 $85 $185 #
vertex $-1 -1 $-1 $86 $186 #
ellipse-curve $-1 -1 $-1 0.8125 -0.46909709371657099 0.23499999999999999 0 0 -1 -0.12499999999999999 0 0 1 I I #
point $-1 -1 $-1 0.9375 -0.46909709371657099 0.014999999999999999 #
coedge $-1 -1 $-1 $132 $132 $187 $188 forward $89 $-1 #
face $-1 -1 $-1 $189 $190 $2 $-1 $191 forward single #
cone-surface $-1 -1 $-1 -0.81249999999999989 -0.46909709371657105 0.24249999999999997 0 0 1 -0.13250000000000001 0 0 1 I I -0.70710678118654746 -0.70710678118654746 0.13250000000000001 forward I I I I #
vertex $-1 -1 $-1 $93 $192 #
ellipse-curve $-1 -1 $-1 0 0.93819418743314176 0 0 0 -1 -0.13999999999999999 0 0 1 I I #
coedge $-1 -1 $-1 $193 $94 $194 $195 forward $25 $-1 #
coedge $-1 -1 $-1 $196 $197 $94 $139 forward $198 $-1 #
edge $-1 -1 $-1 $199 -0.56394264136062822 $143 0.56394264136062955 $138 $200 forward @7 unknown #
coedge $-1 -1 $-1 $201 $95 $101 $155 forward $142 $-1 #
coedge $-1 -1 $-1 $95 $201 $196 $202 reversed $142 $-1 #
loop $-1 -1 $-1 $-1 $141 $203 #
vertex $-1 -1 $-1 $139 $204 #
straight-curve $-1 -1 $-1 0.24999999999999994 0.93819418743314176 0 7.4467456181100871e-017 -0.39370078740157477 0 F 0 F 0.58696201186634966 #
coedge $-1 -1 $-1 $97 $205 $206 $207 forward $25 $-1 #
coedge $-1 -1 $-1 $208 $209 $97 $147 forward $210 $-1 #
edge $-1 -1 $-1 $151 -0.56394264136062766 $211 0.56394264136062955 $146 $212 forward @7 unknown #
coedge $-1 -1 $-1 $213 $98 $209 $214 reversed $150 $-1 #
coedge $-1 -1 $-1 $98 $213 $100 $154 reversed $150 $-1 #
loop $-1 -1 $-1 $-1 $148 $215 #
vertex $-1 -1 $-1 $99 $216 #
straight-curve $-1 -1 $-1 -0.24999999999999997 0.70710678118654757 0 7.4467456181100908e-017 0.39370078740157477 0 F 0 F 0.58696201186634944 #
coedge $-1 -1 $-1 $101 $100 $217 $218 forward $102 $-1 #
edge $-1 -1 $-1 $103 0 $219 0.63500000000000001 $100 $220 forward @7 unknown #
edge $-1 -1 $-1 $104 0 $221 0.63500000000000001 $140 $222 forward @7 unknown #
face $-1 -1 $-1 $-1 $102 $2 $-1 $223 forward single #
point $-1 -1 $-1 -0.24999999999999994 0.93819418743314176 0 #
point $-1 -1 $-1 0.24999999999999994 0.93819418743314176 0 #
coedge $-1 -1 $-1 $224 $106 $108 $165 reversed $161 $-1 #
coedge $-1 -1 $-1 $106 $224 $167 $225 forward $161 $-1 #
loop $-1 -1 $-1 $-1 $106 $178 #
vertex $-1 -1 $-1 $107 $226 #
straight-curve $-1 -1 $-1 0.077499999999999999 0.12103072956898175 0 1.2215252536518108e-016 -0.39370078740157477 0 F -2.7525061829749666 F 2.2543290531052138 #
coedge $-1 -1 $-1 $108 $118 $227 $228 forward $74 $-1 #
edge $-1 -1 $-1 $229 -0.061090817261809406 $109 0 $108 $230 forward @7 unknown #
point $-1 -1 $-1 0.077499999999999986 0.25341418665891613 0 #
coedge $-1 -1 $-1 $231 $111 $160 $225 reversed $169 $-1 #
coedge $-1 -1 $-1 $111 $231 $113 $172 forward $169 $-1 #
loop $-1 -1 $-1 $-1 $231 $232 #
straight-curve $-1 -1 $-1 0.031249999999999892 0.32750000000000007 0 0.39370078740157477 2.7533586077876039e-016 0 F -2.820036 F 2.6612860000000005 #
coedge $-1 -1 $-1 $114 $113 $233 $234 forward $115 $-1 #
edge $-1 -1 $-1 $235 0 $116 0.065991135768374273 $168 $236 forward @7 unknown #
point $-1 -1 $-1 -0.077500000000000083 0.32749999999999996 0 #
coedge $-1 -1 $-1 $237 $227 $118 $175 reversed $238 $-1 #
edge $-1 -1 $-1 $176 1.8234765819369754 $239 3.1415926535897931 $174 $240 forward @7 unknown #
vertex $-1 -1 $-1 $175 $241 #
intcurve-curve $-1 -1 $-1 forward { surfintcur full nubs 3 open 2 
	-0.061091071866912108 3 0 3 
	-0.077500000000000097 0.25341418665891607 0 
	-0.072476938056406592 0.24969764605461506 0.0050230619435935016 
	-0.067472057011012346 0.24591279793797233 0.01002794298898774 
	-0.062500000000000056 0.24206145913796348 0.015000000000000008 
	5.4395290456269106e-011 
	cone 0 0 0.0075000000000000041 0 0 -1 0.25750000000000001 0 0 1 I I -0.70710678118654746 -0.70710678118654746 0.25750000000000001 forward I I I I 
	spline reversed { exactsur full nurbs 2 1 u open open none none 2 2 
	0 2 0.99999999999999989 2 
	0 1 1 1 
	-0.032500000000000015 0.21758618981911509 0.015000000000000008 1 
	-0.059592957125521165 0.24093293560871826 0.015000000000000008 1 
	-0.092500000000000068 0.26427968139832464 0.015000000000000008 1 
	-0.032500000000000015 0.21758618981911509 -0.018000000000000013 1 
	-0.059592957125521165 0.24093293560871826 -0.018000000000000013 1 
	-0.092500000000000068 0.26427968139832464 -0.018000000000000013 1 
	0 
	0 
	0 
	0 
	0 
	0 
	0 
	F 1 F 0 F 1 F 0 } I I I I 
	nullbs 
	nubs 3 open 2 
	-0.061091071866912108 3 0 3 
	0.76730172938607366 0.45454545454545447 
	0.68770732599912088 0.30233145625474245 
	0.60665003110349036 0.15066839427309894 
	0.52416875438261057 0 
	
	I I 
	0 
	0 
	0 
	} I I #
face $-1 -1 $-1 $232 $161 $2 $-1 $242 forward single #
plane-surface $-1 -1 $-1 -0.069999999999999993 0.15624999999999994 0.0075000000000000041 0.70710678118654735 3.2908828908441702e-016 -0.70710678118654779 -0.27838849653013692 0 -0.27838849653013675 forward_v I I I I #
coedge $-1 -1 $-1 $180 $180 $125 $181 forward $190 $-1 #
edge $-1 -1 $-1 $243 -3.1415926535897931 $243 3.1415926535897931 $125 $244 forward @7 unknown #
vertex $-1 -1 $-1 $127 $245 #
ellipse-curve $-1 -1 $-1 0 0.93819418743314176 0.014999999999999999 0 0 1 -0.12499999999999999 0 0 1 I I #
loop $-1 -1 $-1 $-1 $246 $185 #
face $-1 -1 $-1 $247 $128 $2 $-1 $248 forward single #
point $-1 -1 $-1 0.9375 -0.46909709371657099 0.23499999999999999 #
coedge $-1 -1 $-1 $187 $187 $132 $188 reversed $249 $-1 #
edge $-1 -1 $-1 $250 -3.1415926535897931 $250 3.1415926535897931 $187 $251 forward @7 unknown #
face $-1 -1 $-1 $252 $238 $2 $-1 $253 reversed single #
loop $-1 -1 $-1 $254 $180 $133 #
cone-surface $-1 -1 $-1 0 0.93819418743314176 0.24249999999999997 0 0 1 -0.13250000000000001 0 0 1 I I -0.70710678118654746 -0.70710678118654746 0.13250000000000001 forward I I I I #
point $-1 -1 $-1 0.13999999999999999 0.93819418743314176 0 #
coedge $-1 -1 $-1 $255 $137 $256 $257 reversed $25 $-1 #
coedge $-1 -1 $-1 $258 $259 $137 $195 reversed $260 $-1 #
edge $-1 -1 $-1 $199 1.829945504724358 $261 3.0385185189702759 $137 $262 forward @7 unknown #
coedge $-1 -1 $-1 $263 $138 $141 $202 forward $198 $-1 #
coedge $-1 -1 $-1 $138 $263 $258 $264 forward $198 $-1 #
loop $-1 -1 $-1 $-1 $138 $265 #
vertex $-1 -1 $-1 $195 $266 #
ellipse-curve $-1 -1 $-1 0.37499999999999994 0.79056941504209488 0 0 0 -1 -0.10564428184106453 -0.066815310478106169 0 1 I I #
coedge $-1 -1 $-1 $141 $140 $267 $268 forward $142 $-1 #
edge $-1 -1 $-1 $143 0 $269 0.63500000000000001 $141 $270 forward @7 unknown #
face $-1 -1 $-1 $271 $142 $2 $-1 $272 forward single #
point $-1 -1 $-1 0.24999999999999997 0.79056941504209488 0 #
coedge $-1 -1 $-1 $145 $273 $274 $275 reversed $25 $-1 #
coedge $-1 -1 $-1 $276 $277 $145 $207 reversed $278 $-1 #
edge $-1 -1 $-1 $279 1.8299455047243587 $211 3.0385185189702759 $145 $280 forward @7 unknown #
coedge $-1 -1 $-1 $281 $146 $277 $282 forward $210 $-1 #
coedge $-1 -1 $-1 $146 $281 $148 $214 forward $210 $-1 #
loop $-1 -1 $-1 $-1 $146 $252 #
vertex $-1 -1 $-1 $147 $283 #
ellipse-curve $-1 -1 $-1 -0.37500000000000017 0.79056941504209455 0 0 0 -1 0.10564428184106464 -0.066815310478105974 0 1 I I #
coedge $-1 -1 $-1 $149 $148 $284 $285 forward $150 $-1 #
edge $-1 -1 $-1 $286 -0.63500000000000001 $151 0 $148 $287 forward @7 unknown #
face $-1 -1 $-1 $156 $150 $2 $-1 $288 forward single #
point $-1 -1 $-1 -0.24999999999999997 0.79056941504209455 0 #
coedge $-1 -1 $-1 $284 $267 $153 $218 reversed $289 $-1 #
edge $-1 -1 $-1 $219 0 $221 3.1415926535897931 $153 $290 forward @7 unknown #
vertex $-1 -1 $-1 $154 $291 #
straight-curve $-1 -1 $-1 -0.24999999999999994 0.93819418743314176 0 0 0 0.39370078740157477 I I #
vertex $-1 -1 $-1 $155 $292 #
straight-curve $-1 -1 $-1 0.24999999999999994 0.93819418743314176 0 0 0 0.39370078740157477 I I #
cone-surface $-1 -1 $-1 0 0.93819418743314176 0 0 0 1 -0.24999999999999997 0 0 1 I I 0 1 0.24999999999999997 forward I I I I #
coedge $-1 -1 $-1 $160 $159 $293 $294 forward $161 $-1 #
edge $-1 -1 $-1 $295 0 $162 0.065991135768374315 $160 $296 forward @7 unknown #
point $-1 -1 $-1 0.077499999999999944 0.32750000000000007 0 #
coedge $-1 -1 $-1 $174 $297 $164 $228 reversed $238 $-1 #
edge $-1 -1 $-1 $239 -3.1415926535897931 $229 1.3181160716528182 $227 $298 forward @7 unknown #
vertex $-1 -1 $-1 $228 $299 #
intcurve-curve $-1 -1 $-1 forward { surfintcur full nubs 3 open 2 
	-0.061090817261809406 3 0 3 
	0.062499999999999972 0.24206145913796362 0.015000000000000008 
	0.067472057011013054 0.24591279793797313 0.01002794298898693 
	0.072476938056408313 0.24969764605461656 0.0050230619435916359 
	0.077499999999999958 0.25341418665891619 0 
	5.4395179709292308e-011 
	cone 0 0 0.0075000000000000041 0 0 -1 0.25750000000000001 0 0 1 I I -0.70710678118654746 -0.70710678118654746 0.25750000000000001 forward I I I I 
	spline reversed { exactsur full nurbs 2 1 u open open none none 2 2 
	0 2 0.99999999999999989 2 
	0 1 1 1 
	0.032499999999999946 0.21758618981911509 -0.015000000000000008 1 
	0.059592957125523496 0.24093293560872037 -0.015000000000000008 1 
	0.092499999999999971 0.26427968139832464 -0.015000000000000008 1 
	0.032499999999999946 0.21758618981911509 0.018000000000000013 1 
	0.059592957125523496 0.24093293560872037 0.018000000000000013 1 
	0.092499999999999971 0.26427968139832464 0.018000000000000013 1 
	0 
	0 
	0 
	0 
	0 
	0 
	0 
	F 1 F 0 F 1 F 0 } I I I I 
	nullbs 
	nubs 3 open 2 
	-0.061090817261809406 3 0 3 
	0.52416875438259047 0.90909090909090895 
	0.60665003110348414 0.75842251481778544 
	0.68770732599913231 0.60675945283610999 
	0.76730172938605934 0.45454545454545447 
	
	I I 
	0 
	0 
	0 
	} I I #
coedge $-1 -1 $-1 $168 $167 $300 $301 forward $169 $-1 #
face $-1 -1 $-1 $302 $169 $2 $-1 $303 forward single #
coedge $-1 -1 $-1 $304 $305 $171 $234 reversed $306 $-1 #
edge $-1 -1 $-1 $235 -0.39687500000000009 $176 -0.21796110621042752 $233 $307 forward @7 unknown #
vertex $-1 -1 $-1 $234 $308 #
straight-curve $-1 -1 $-1 -0.062500000000000056 0.31249999999999994 0.015000000000000008 -0.22730325558646691 0.22730325558646672 -0.22730325558646672 F 0 F 0.065991135768374273 #
coedge $-1 -1 $-1 $309 $174 $305 $310 reversed $238 $-1 #
loop $-1 -1 $-1 $-1 $174 $189 #
vertex $-1 -1 $-1 $228 $311 #
ellipse-curve $-1 -1 $-1 0 0 0.015000000000000008 0 0 1 0.24999999999999997 0 0 1 I I #
point $-1 -1 $-1 -0.062500000000000028 0.24206145913796351 0.015000000000000008 #
plane-surface $-1 -1 $-1 0.069999999999999993 0.12103072956898175 0.0075000000000000041 -0.70710678118654757 -2.1939219272294449e-016 -0.70710678118654757 -0.27838849653013681 0 0.27838849653013681 forward_v I I I I #
vertex $-1 -1 $-1 $181 $312 #
ellipse-curve $-1 -1 $-1 0 0.93819418743314176 0.23499999999999999 0 0 -1 -0.12499999999999999 0 0 1 I I #
point $-1 -1 $-1 0.12499999999999999 0.93819418743314176 0.014999999999999999 #
coedge $-1 -1 $-1 $246 $246 $313 $314 forward $184 $-1 #
face $-1 -1 $-1 $90 $249 $2 $-1 $315 forward single #
cone-surface $-1 -1 $-1 0.8125 -0.46909709371657099 0.24249999999999997 0 0 1 -0.13250000000000001 0 0 1 I I -0.70710678118654746 -0.70710678118654746 0.13250000000000001 forward I I I I #
loop $-1 -1 $-1 $289 $187 $247 #
vertex $-1 -1 $-1 $188 $316 #
ellipse-curve $-1 -1 $-1 -0.81249999999999989 -0.46909709371657105 0.24999999999999997 0 0 1 -0.13999999999999999 0 0 1 I I #
face $-1 -1 $-1 $317 $210 $2 $-1 $318 forward single #
cone-surface $-1 -1 $-1 0 0 1.2499999999999998 0 0 -1 0.24999999999999997 0 0 1 I I 0 1 0.24999999999999997 forward I I I I #
loop $-1 -1 $-1 $-1 $319 $133 #
coedge $-1 -1 $-1 $320 $193 $321 $322 forward $25 $-1 #
coedge $-1 -1 $-1 $323 $324 $193 $257 forward $325 $-1 #
edge $-1 -1 $-1 $326 -0.56394264136062999 $261 0.56394264136062999 $256 $327 forward @7 unknown #
coedge $-1 -1 $-1 $328 $194 $197 $264 reversed $260 $-1 #
coedge $-1 -1 $-1 $194 $328 $323 $329 reversed $260 $-1 #
loop $-1 -1 $-1 $-1 $259 $330 #
vertex $-1 -1 $-1 $257 $331 #
ellipse-curve $-1 -1 $-1 0 0 0 0 0 -1 -0.73737243569579447 0.13704703964716447 0 1 F 1.726871370104841 F 3.1415926535897931 #
coedge $-1 -1 $-1 $197 $196 $332 $333 forward $198 $-1 #
edge $-1 -1 $-1 $334 -0.63500000000000001 $199 0 $258 $335 forward @7 unknown #
face $-1 -1 $-1 $203 $198 $2 $-1 $336 forward single #
point $-1 -1 $-1 0.32142857142857134 0.67763092717893836 0 #
coedge $-1 -1 $-1 $217 $332 $201 $268 reversed $289 $-1 #
edge $-1 -1 $-1 $221 0 $269 0.3749669218732592 $201 $337 forward @7 unknown #
vertex $-1 -1 $-1 $268 $338 #
straight-curve $-1 -1 $-1 0.24999999999999997 0.79056941504209488 0 0 0 0.39370078740157477 F -0.9842510000000001 F 1.619251 #
face $-1 -1 $-1 $339 $340 $2 $-1 $341 forward single #
plane-surface $-1 -1 $-1 0.24999999999999994 0.93819418743314176 0 1 1.8914733869999624e-016 0 0 0 -0.39370078740157477 forward_v I I I I #
coedge $-1 -1 $-1 $205 $342 $343 $344 forward $25 $-1 #
coedge $-1 -1 $-1 $345 $346 $205 $275 forward $347 $-1 #
edge $-1 -1 $-1 $279 -0.56394264136062833 $348 0.56394264136062833 $274 $349 forward @7 unknown #
coedge $-1 -1 $-1 $350 $206 $346 $351 reversed $278 $-1 #
coedge $-1 -1 $-1 $206 $350 $208 $282 reversed $278 $-1 #
loop $-1 -1 $-1 $-1 $277 $317 #
vertex $-1 -1 $-1 $207 $352 #
ellipse-curve $-1 -1 $-1 0 0 0 0 0 -1 0.24999999999999989 -0.70710678118654735 0 1 F 1.7268713701048417 F 3.1415926535897931 #
coedge $-1 -1 $-1 $209 $208 $353 $354 forward $210 $-1 #
edge $-1 -1 $-1 $211 0 $355 0.63500000000000001 $277 $356 forward @7 unknown #
point $-1 -1 $-1 -0.32142857142857151 0.67763092717893814 0 #
coedge $-1 -1 $-1 $353 $217 $213 $285 reversed $289 $-1 #
edge $-1 -1 $-1 $286 0.21199508999308936 $219 0.58696201186634944 $213 $357 forward @7 unknown #
vertex $-1 -1 $-1 $285 $358 #
straight-curve $-1 -1 $-1 -0.24999999999999997 0.79056941504209455 0 0 0 -0.39370078740157477 F -1.619251 F 0.9842510000000001 #
plane-surface $-1 -1 $-1 -0.24999999999999997 0.70710678118654757 0 -1 1.8914733869999631e-016 0 0 0 0.39370078740157477 forward_v I I I I #
loop $-1 -1 $-1 $359 $267 $247 #
ellipse-curve $-1 -1 $-1 0 0.93819418743314176 0.24999999999999997 0 0 -1 -0.24999999999999997 0 0 1 F 0 F 3.1415926535897931 #
point $-1 -1 $-1 -0.24999999999999994 0.93819418743314176 0.24999999999999997 #
point $-1 -1 $-1 0.24999999999999994 0.93819418743314176 0.24999999999999997 #
coedge $-1 -1 $-1 $360 $361 $224 $294 reversed $362 $-1 #
edge $-1 -1 $-1 $229 0.3074180531052137 $295 0.48633194689478648 $293 $363 forward @7 unknown #
vertex $-1 -1 $-1 $294 $364 #
straight-curve $-1 -1 $-1 0.062499999999999931 0.31250000000000006 0.015000000000000008 0.22730325558646661 0.22730325558646725 -0.22730325558646661 F 0 F 0.065991135768374315 #
coedge $-1 -1 $-1 $227 $365 $360 $366 forward $238 $-1 #
ellipse-curve $-1 -1 $-1 0 0 0.015000000000000008 0 0 1 0.24999999999999997 0 0 1 I I #
point $-1 -1 $-1 0.062499999999999951 0.24206145913796351 0.015000000000000008 #
coedge $-1 -1 $-1 $367 $368 $231 $301 reversed $369 $-1 #
edge $-1 -1 $-1 $295 -0.07937500000000007 $235 0.23812499999999992 $300 $370 forward @7 unknown #
face $-1 -1 $-1 $371 $369 $2 $-1 $372 reversed single #
plane-surface $-1 -1 $-1 0.031249999999999899 0.32000000000000006 0.0075000000000000041 4.9451730982166151e-016 -0.70710678118654757 -0.70710678118654757 -0.39370078740157477 0 -2.7533586077876039e-016 forward_v I I I I #
coedge $-1 -1 $-1 $373 $233 $368 $374 reversed $306 $-1 #
coedge $-1 -1 $-1 $233 $373 $237 $310 forward $306 $-1 #
loop $-1 -1 $-1 $-1 $233 $375 #
straight-curve $-1 -1 $-1 -0.062499999999999986 0.15624999999999994 0.015000000000000008 1.8322878804777184e-016 -0.39370078740157477 0 F -2.6630492360801803 F 2.3437859999999997 #
point $-1 -1 $-1 -0.062500000000000056 0.31249999999999994 0.015000000000000008 #
coedge $-1 -1 $-1 $365 $237 $376 $377 reversed $238 $-1 #
edge $-1 -1 $-1 $378 0.038100000000000023 $176 3.1368999999999998 $305 $379 forward @7 unknown #
point $-1 -1 $-1 -0.24999999999999997 -3.0615158845559425e-017 0.015000000000000008 #
point $-1 -1 $-1 0.12499999999999999 0.93819418743314176 0.23499999999999999 #
coedge $-1 -1 $-1 $313 $313 $246 $314 reversed $380 $-1 #
edge $-1 -1 $-1 $381 -3.1415926535897931 $381 3.1415926535897931 $313 $382 forward @7 unknown #
plane-surface $-1 -1 $-1 1.0381022375924199e-016 -9.2882831784584942e-017 0.24999999999999997 0 0 1 0.39370078740157477 0 0 forward_v I I I I #
point $-1 -1 $-1 -0.67249999999999988 -0.46909709371657105 0.24999999999999997 #
face $-1 -1 $-1 $383 $278 $2 $-1 $384 forward single #
cone-surface $-1 -1 $-1 -0.37500000000000017 0.79056941504209455 0 0 0 1 0.10564428184106464 -0.066815310478105974 0 1 I I 0 -1 0.12499999999999999 forward I I I I #
coedge $-1 -1 $-1 $319 $319 $385 $386 forward $254 $-1 #
coedge $-1 -1 $-1 $387 $255 $388 $389 forward $25 $-1 #
coedge $-1 -1 $-1 $390 $391 $255 $322 reversed $340 $-1 #
edge $-1 -1 $-1 $326 0.21199508999309072 $392 0.58696201186634911 $255 $393 forward @7 unknown #
coedge $-1 -1 $-1 $394 $256 $259 $329 forward $325 $-1 #
coedge $-1 -1 $-1 $256 $394 $390 $395 forward $325 $-1 #
loop $-1 -1 $-1 $-1 $256 $396 #
vertex $-1 -1 $-1 $322 $397 #
ellipse-curve $-1 -1 $-1 0.87215319688145765 -0.070525181101883105 0 0 0 -1 -0.1106858971563167 -0.058082976599872042 0 1 I I #
coedge $-1 -1 $-1 $259 $258 $398 $399 forward $260 $-1 #
edge $-1 -1 $-1 $261 0 $400 0.63500000000000001 $259 $401 forward @7 unknown #
face $-1 -1 $-1 $265 $260 $2 $-1 $402 forward single #
point $-1 -1 $-1 0.74755988304124932 -0.060450155230185508 0 #
coedge $-1 -1 $-1 $267 $398 $263 $333 reversed $289 $-1 #
edge $-1 -1 $-1 $269 -0.56394264136062955 $334 0.56394264136062822 $263 $403 forward @7 unknown #
vertex $-1 -1 $-1 $399 $404 #
straight-curve $-1 -1 $-1 0.32142857142857134 0.67763092717893836 0 0 0 -0.39370078740157477 F -1.619251 F 0.9842510000000001 #
cone-surface $-1 -1 $-1 0.37499999999999994 0.79056941504209488 0 0 0 1 -0.10564428184106453 -0.066815310478106169 0 1 I I 0 -1 0.125 forward I I I I #
straight-curve $-1 -1 $-1 0.24999999999999994 0.93819418743314176 0.24999999999999997 7.4467456181100871e-017 -0.39370078740157477 0 F 0 F 0.58696201186634966 #
point $-1 -1 $-1 0.24999999999999997 0.79056941504209488 0.24999999999999997 #
face $-1 -1 $-1 $405 $406 $2 $-1 $407 forward single #
loop $-1 -1 $-1 $-1 $390 $271 #
plane-surface $-1 -1 $-1 0.73737243569579447 -0.13704703964716447 0 0.49999999999999811 0.86602540378443982 0 0 0 0.39370078740157477 forward_v I I I I #
coedge $-1 -1 $-1 $273 $408 $409 $410 forward $25 $-1 #
coedge $-1 -1 $-1 $411 $412 $273 $344 reversed $413 $-1 #
edge $-1 -1 $-1 $414 0 $348 0.37496692187326042 $273 $415 forward @7 unknown #
coedge $-1 -1 $-1 $416 $274 $412 $417 forward $347 $-1 #
coedge $-1 -1 $-1 $274 $416 $276 $351 forward $347 $-1 #
loop $-1 -1 $-1 $-1 $274 $383 #
vertex $-1 -1 $-1 $275 $418 #
ellipse-curve $-1 -1 $-1 -0.87215319688145732 -0.0705251811018828 0 0 0 -1 0.11068589715631677 -0.058082976599871911 0 1 I I #
coedge $-1 -1 $-1 $277 $276 $419 $420 forward $278 $-1 #
edge $-1 -1 $-1 $421 -0.63500000000000001 $279 0 $276 $422 forward @7 unknown #
point $-1 -1 $-1 -0.74755988304124921 -0.060450155230185279 0 #
coedge $-1 -1 $-1 $419 $284 $281 $354 reversed $289 $-1 #
edge $-1 -1 $-1 $355 -0.56394264136062955 $286 0.56394264136062766 $281 $423 forward @7 unknown #
vertex $-1 -1 $-1 $420 $424 #
straight-curve $-1 -1 $-1 -0.32142857142857156 0.67763092717893825 0 0 0 0.39370078740157477 F -0.9842510000000001 F 1.619251 #
straight-curve $-1 -1 $-1 -0.24999999999999997 0.70710678118654757 0.24999999999999997 7.4467456181100908e-017 0.39370078740157477 0 F 0 F 0.58696201186634944 #
point $-1 -1 $-1 -0.24999999999999997 0.79056941504209455 0.24999999999999997 #
loop $-1 -1 $-1 $425 $426 $247 #
coedge $-1 -1 $-1 $427 $293 $297 $366 reversed $362 $-1 #
coedge $-1 -1 $-1 $293 $427 $367 $428 forward $362 $-1 #
loop $-1 -1 $-1 $-1 $293 $371 #
straight-curve $-1 -1 $-1 0.062499999999999993 0.12103072956898175 0.015000000000000008 -1.2215252536518108e-016 0.39370078740157477 0 F -2.2543290531052138 F 2.7525061829749666 #
point $-1 -1 $-1 0.062499999999999931 0.31250000000000006 0.015000000000000008 #
coedge $-1 -1 $-1 $297 $309 $429 $430 reversed $238 $-1 #
edge $-1 -1 $-1 $431 0.038100000000000023 $229 3.1368999999999998 $360 $432 forward @7 unknown #
coedge $-1 -1 $-1 $433 $300 $361 $428 reversed $369 $-1 #
coedge $-1 -1 $-1 $300 $433 $304 $374 forward $369 $-1 #
loop $-1 -1 $-1 $-1 $300 $302 #
straight-curve $-1 -1 $-1 0.031249999999999906 0.31250000000000006 0.015000000000000008 -0.39370078740157477 -2.7533586077876039e-016 0 F -2.6612860000000005 F 2.820036 #
face $-1 -1 $-1 $434 $362 $2 $-1 $435 reversed single #
plane-surface $-1 -1 $-1 0.062499999999999931 0.31250000000000006 1.2499999999999998 -6.993530863780514e-016 1 0 0 0 0.39370078740157477 forward_v I I I I #
coedge $-1 -1 $-1 $305 $304 $436 $437 reversed $306 $-1 #
edge $-1 -1 $-1 $438 0.038100000000000023 $235 3.1368999999999998 $304 $439 forward @7 unknown #
face $-1 -1 $-1 $440 $306 $2 $-1 $441 reversed single #
coedge $-1 -1 $-1 $442 $429 $309 $377 forward $443 $-1 #
edge $-1 -1 $-1 $444 -3.1415926535897931 $378 -1.8234765819369754 $309 $445 forward @7 unknown #
vertex $-1 -1 $-1 $310 $446 #
straight-curve $-1 -1 $-1 -0.062500000000000028 0.24206145913796351 1.2499999999999998 0 0 -0.39370078740157477 I I #
loop $-1 -1 $-1 $-1 $313 $247 #
vertex $-1 -1 $-1 $314 $447 #
ellipse-curve $-1 -1 $-1 0.8125 -0.46909709371657099 0.24999999999999997 0 0 1 -0.13999999999999999 0 0 1 I I #
face $-1 -1 $-1 $448 $347 $2 $-1 $449 forward single #
cone-surface $-1 -1 $-1 0 0 0 0 0 1 0.24999999999999989 -0.70710678118654735 0 1 I I 0 1 0.74999999999999978 forward I I I I #
coedge $-1 -1 $-1 $385 $385 $319 $386 reversed $425 $-1 #
edge $-1 -1 $-1 $450 -3.1415926535897931 $450 3.1415926535897931 $385 $451 forward @7 unknown #
coedge $-1 -1 $-1 $452 $320 $453 $454 forward $25 $-1 #
coedge $-1 -1 $-1 $455 $456 $320 $389 reversed $406 $-1 #
edge $-1 -1 $-1 $392 -7.5717361714159039e-016 $457 3.1415926535897931 $320 $458 forward @7 unknown #
coedge $-1 -1 $-1 $459 $321 $324 $395 reversed $340 $-1 #
coedge $-1 -1 $-1 $321 $459 $455 $460 reversed $340 $-1 #
vertex $-1 -1 $-1 $322 $461 #
straight-curve $-1 -1 $-1 0.73737243569579447 -0.13704703964716447 0 0.3409548833797007 -0.19685039370078664 0 F 0 F 0.58696201186634911 #
coedge $-1 -1 $-1 $324 $323 $462 $463 forward $325 $-1 #
edge $-1 -1 $-1 $464 -0.63500000000000001 $326 0 $390 $465 forward @7 unknown #
face $-1 -1 $-1 $330 $325 $2 $-1 $466 forward single #
point $-1 -1 $-1 0.80965319688145787 -0.1787783565749381 0 #
coedge $-1 -1 $-1 $332 $462 $328 $399 reversed $289 $-1 #
edge $-1 -1 $-1 $334 1.829945504724358 $400 3.0385185189702759 $328 $467 forward @7 unknown #
vertex $-1 -1 $-1 $399 $468 #
straight-curve $-1 -1 $-1 0.74755988304124932 -0.060450155230185508 0 0 0 0.39370078740157477 F -0.9842510000000001 F 1.619251 #
cone-surface $-1 -1 $-1 0 0 0 0 0 1 -0.73737243569579447 0.13704703964716447 0 1 I I 0 1 0.75 forward I I I I #
ellipse-curve $-1 -1 $-1 0.37499999999999994 0.79056941504209488 0.24999999999999997 0 0 1 -0.10564428184106453 -0.066815310478106169 0 1 I I #
point $-1 -1 $-1 0.32142857142857134 0.67763092717893836 0.24999999999999997 #
face $-1 -1 $-1 $469 $470 $2 $-1 $471 forward single #
loop $-1 -1 $-1 $-1 $472 $339 #
cone-surface $-1 -1 $-1 0.8125 -0.46909709371657099 0 0 0 1 0.125 0.21650635094610965 0 1 I I 0 1 0.24999999999999997 forward I I I I #
coedge $-1 -1 $-1 $342 $473 $474 $475 forward $25 $-1 #
coedge $-1 -1 $-1 $476 $477 $342 $410 reversed $478 $-1 #
edge $-1 -1 $-1 $479 1.3766793038938044e-016 $414 3.1415926535897931 $342 $480 forward @7 unknown #
coedge $-1 -1 $-1 $481 $343 $477 $482 forward $413 $-1 #
coedge $-1 -1 $-1 $343 $481 $345 $417 reversed $413 $-1 #
loop $-1 -1 $-1 $-1 $412 $448 #
vertex $-1 -1 $-1 $410 $483 #
straight-curve $-1 -1 $-1 -0.9375 -0.25259074277046106 0 0.34095488337970026 0.19685039370078747 0 F 0 F 0.58696201186634989 #
coedge $-1 -1 $-1 $346 $345 $484 $485 forward $347 $-1 #
edge $-1 -1 $-1 $348 0 $486 0.63500000000000001 $412 $487 forward @7 unknown #
point $-1 -1 $-1 -0.80965319688145732 -0.1787783565749374 0 #
coedge $-1 -1 $-1 $484 $353 $350 $420 reversed $289 $-1 #
edge $-1 -1 $-1 $421 1.8299455047243587 $355 3.0385185189702759 $350 $488 forward @7 unknown #
vertex $-1 -1 $-1 $420 $489 #
straight-curve $-1 -1 $-1 -0.74755988304124921 -0.060450155230185279 0 0 0 -0.39370078740157477 F -1.619251 F 0.9842510000000001 #
ellipse-curve $-1 -1 $-1 -0.37500000000000017 0.79056941504209455 0.24999999999999997 0 0 1 0.10564428184106464 -0.066815310478105974 0 1 I I #
point $-1 -1 $-1 -0.32142857142857151 0.67763092717893814 0.24999999999999997 #
loop $-1 -1 $-1 $380 $385 $247 #
coedge $-1 -1 $-1 $426 $426 $490 $491 forward $359 $-1 #
coedge $-1 -1 $-1 $361 $360 $492 $493 reversed $362 $-1 #
edge $-1 -1 $-1 $494 0.038100000000000023 $295 3.1368999999999998 $367 $495 forward @7 unknown #
coedge $-1 -1 $-1 $376 $496 $365 $430 forward $443 $-1 #
edge $-1 -1 $-1 $431 -1.3181160716528182 $444 3.1415926535897931 $365 $497 forward @7 unknown #
vertex $-1 -1 $-1 $366 $498 #
straight-curve $-1 -1 $-1 0.062499999999999951 0.24206145913796351 1.2499999999999998 0 0 -0.39370078740157477 I I #
coedge $-1 -1 $-1 $368 $367 $499 $500 reversed $369 $-1 #
face $-1 -1 $-1 $501 $502 $2 $-1 $503 forward single #
plane-surface $-1 -1 $-1 0.062499999999999951 0.24206145913796351 1.2499999999999998 1 3.1026741442755996e-016 0 0 0 -0.39370078740157477 forward_v I I I I #
coedge $-1 -1 $-1 $504 $505 $373 $437 forward $506 $-1 #
edge $-1 -1 $-1 $378 0.21796110621042747 $438 0.39687500000000003 $373 $507 forward @7 unknown #
vertex $-1 -1 $-1 $374 $508 #
straight-curve $-1 -1 $-1 -0.062500000000000056 0.31249999999999994 1.2499999999999998 0 0 -0.39370078740157477 I I #
face $-1 -1 $-1 $509 $510 $2 $-1 $511 reversed single #
plane-surface $-1 -1 $-1 -0.062500000000000056 0.31249999999999994 1.2499999999999998 -1 -4.6540112164134051e-016 0 0 0 0.39370078740157477 forward_v I I I I #
coedge $-1 -1 $-1 $512 $376 $505 $513 forward $443 $-1 #
loop $-1 -1 $-1 $-1 $429 $501 #
vertex $-1 -1 $-1 $377 $514 #
ellipse-curve $-1 -1 $-1 0 0 1.2349999999999999 0 0 -1 0.24999999999999997 0 0 1 I I #
point $-1 -1 $-1 -0.062500000000000028 0.24206145913796351 1.2349999999999999 #
point $-1 -1 $-1 0.95250000000000001 -0.46909709371657099 0.24999999999999997 #
face $-1 -1 $-1 $515 $413 $2 $-1 $516 forward single #
cone-surface $-1 -1 $-1 -0.87215319688145732 -0.0705251811018828 0 0 0 1 0.11068589715631677 -0.058082976599871911 0 1 I I 0 -1 0.125 forward I I I I #
vertex $-1 -1 $-1 $386 $517 #
ellipse-curve $-1 -1 $-1 0 0.93819418743314176 0.24999999999999997 0 0 1 -0.13999999999999999 0 0 1 I I #
coedge $-1 -1 $-1 $518 $387 $519 $520 reversed $25 $-1 #
coedge $-1 -1 $-1 $521 $522 $387 $454 reversed $523 $-1 #
edge $-1 -1 $-1 $457 0 $524 0.37496692187326075 $387 $525 forward @7 unknown #
coedge $-1 -1 $-1 $472 $388 $391 $460 forward $406 $-1 #
coedge $-1 -1 $-1 $388 $472 $521 $526 reversed $406 $-1 #
vertex $-1 -1 $-1 $389 $527 #
ellipse-curve $-1 -1 $-1 0.8125 -0.46909709371657099 0 0 0 -1 0.125 0.21650635094610965 0 1 F -1.4901161435372275e-008 F 3.1415926535897931 #
coedge $-1 -1 $-1 $391 $390 $528 $529 forward $340 $-1 #
edge $-1 -1 $-1 $392 0 $530 0.63500000000000001 $455 $531 forward @7 unknown #
point $-1 -1 $-1 0.9375 -0.25259074277046106 0 #
coedge $-1 -1 $-1 $398 $528 $394 $463 reversed $289 $-1 #
edge $-1 -1 $-1 $400 -0.56394264136062999 $464 0.56394264136062999 $394 $532 forward @7 unknown #
vertex $-1 -1 $-1 $529 $533 #
straight-curve $-1 -1 $-1 0.80965319688145787 -0.1787783565749381 0 0 0 -0.39370078740157477 F -1.619251 F 0.9842510000000001 #
cone-surface $-1 -1 $-1 0.87215319688145765 -0.070525181101883105 0 0 0 1 -0.1106858971563167 -0.058082976599872042 0 1 I I 0 -1 0.125 forward I I I I #
ellipse-curve $-1 -1 $-1 0 0 0.24999999999999997 0 0 -1 -0.73737243569579447 0.13704703964716447 0 1 F 1.726871370104841 F 3.1415926535897931 #
point $-1 -1 $-1 0.74755988304124932 -0.060450155230185508 0.24999999999999997 #
face $-1 -1 $-1 $215 $478 $2 $-1 $534 forward single #
loop $-1 -1 $-1 $-1 $535 $405 #
plane-surface $-1 -1 $-1 -0.48737243569579464 -0.57005974153938332 0 0.4999999999999995 -0.86602540378443893 0 0 0 -0.39370078740157477 forward_v I I I I #
coedge $-1 -1 $-1 $456 $455 $536 $537 forward $406 $-1 #
coedge $-1 -1 $-1 $408 $518 $538 $539 reversed $25 $-1 #
coedge $-1 -1 $-1 $535 $540 $408 $475 reversed $470 $-1 #
edge $-1 -1 $-1 $541 0.21199508999309008 $479 0.58696201186634966 $408 $542 forward @7 unknown #
coedge $-1 -1 $-1 $543 $409 $540 $544 forward $478 $-1 #
coedge $-1 -1 $-1 $409 $543 $411 $482 reversed $478 $-1 #
loop $-1 -1 $-1 $-1 $543 $469 #
vertex $-1 -1 $-1 $475 $545 #
ellipse-curve $-1 -1 $-1 -0.81249999999999989 -0.46909709371657105 0 0 0 -1 0.12499999999999994 -0.21650635094610968 0 1 F 6.8833965194690072e-017 F 3.1415926535897931 #
coedge $-1 -1 $-1 $412 $411 $546 $547 forward $413 $-1 #
edge $-1 -1 $-1 $414 0 $548 0.63500000000000001 $411 $549 forward @7 unknown #
point $-1 -1 $-1 -0.9375 -0.25259074277046106 0 #
coedge $-1 -1 $-1 $546 $419 $416 $485 reversed $289 $-1 #
edge $-1 -1 $-1 $486 -0.56394264136062833 $421 0.56394264136062833 $416 $550 forward @7 unknown #
vertex $-1 -1 $-1 $547 $551 #
straight-curve $-1 -1 $-1 -0.80965319688145732 -0.17877835657493746 0 0 0 0.39370078740157477 F -0.9842510000000001 F 1.619251 #
ellipse-curve $-1 -1 $-1 0 0 0.24999999999999997 0 0 -1 0.24999999999999989 -0.70710678118654735 0 1 F 1.7268713701048417 F 3.1415926535897931 #
point $-1 -1 $-1 -0.74755988304124921 -0.060450155230185279 0.24999999999999997 #
coedge $-1 -1 $-1 $490 $490 $426 $491 reversed $552 $-1 #
edge $-1 -1 $-1 $553 -3.1415926535897931 $553 3.1415926535897931 $426 $554 forward @7 unknown #
coedge $-1 -1 $-1 $555 $556 $427 $493 forward $557 $-1 #
edge $-1 -1 $-1 $494 -0.48633194689478643 $431 -0.30741805310521364 $427 $558 forward @7 unknown #
vertex $-1 -1 $-1 $428 $559 #
straight-curve $-1 -1 $-1 0.062499999999999931 0.31250000000000006 1.2499999999999998 0 0 -0.39370078740157477 I I #
coedge $-1 -1 $-1 $429 $560 $555 $561 forward $443 $-1 #
ellipse-curve $-1 -1 $-1 0 0 1.2349999999999999 0 0 -1 0.24999999999999997 0 0 1 I I #
point $-1 -1 $-1 0.062499999999999951 0.24206145913796351 1.2349999999999999 #
coedge $-1 -1 $-1 $562 $563 $433 $500 forward $502 $-1 #
edge $-1 -1 $-1 $438 -0.23812499999999981 $494 0.079375000000000195 $433 $564 forward @7 unknown #
face $-1 -1 $-1 $565 $443 $2 $-1 $566 forward single #
loop $-1 -1 $-1 $-1 $499 $434 #
plane-surface $-1 -1 $-1 0.031249999999999851 0.32000000000000006 1.2424999999999997 4.9451730982166151e-016 -0.70710678118654757 0.70710678118654757 0.39370078740157477 0 -2.7533586077876039e-016 forward_v I I I I #
coedge $-1 -1 $-1 $567 $436 $563 $568 reversed $506 $-1 #
coedge $-1 -1 $-1 $436 $567 $442 $513 reversed $506 $-1 #
loop $-1 -1 $-1 $-1 $436 $569 #
straight-curve $-1 -1 $-1 -0.062499999999999986 0.15624999999999994 1.2349999999999999 -1.8322878804777184e-016 0.39370078740157477 0 F -1.5119359999999999 F 0.71818600000000021 #
point $-1 -1 $-1 -0.062500000000000056 0.31249999999999994 1.2349999999999999 #
face $-1 -1 $-1 $570 $571 $2 $-1 $572 forward single #
loop $-1 -1 $-1 $573 $574 $440 #
plane-surface $-1 -1 $-1 0 0 1.2499999999999998 0 0 -1 -0.39370078740157477 0 0 forward_v I I I I #
coedge $-1 -1 $-1 $560 $442 $575 $576 forward $443 $-1 #
edge $-1 -1 $-1 $378 -0.061090817261858853 $577 0 $442 $578 forward @7 unknown #
point $-1 -1 $-1 -0.24999999999999997 3.0615158845559425e-017 1.2349999999999999 #
face $-1 -1 $-1 $579 $580 $2 $-1 $581 forward single #
plane-surface $-1 -1 $-1 -0.9375 -0.25259074277046106 0 -0.50000000000000011 0.86602540378443871 0 0 0 0.39370078740157477 forward_v I I I I #
point $-1 -1 $-1 0.13999999999999999 0.93819418743314176 0.24999999999999997 #
coedge $-1 -1 $-1 $473 $452 $582 $583 forward $25 $-1 #
coedge $-1 -1 $-1 $584 $585 $452 $520 forward $586 $-1 #
edge $-1 -1 $-1 $587 -0.56394264136062733 $524 0.56394264136062744 $519 $588 forward @7 unknown #
coedge $-1 -1 $-1 $589 $453 $456 $526 forward $523 $-1 #
coedge $-1 -1 $-1 $453 $589 $584 $590 reversed $523 $-1 #
loop $-1 -1 $-1 $-1 $522 $591 #
vertex $-1 -1 $-1 $520 $592 #
straight-curve $-1 -1 $-1 0.68750000000000011 -0.68560344466268031 0 -0.34095488337970076 0.19685039370078641 0 F 0 F 0.58696201186635011 #
edge $-1 -1 $-1 $457 0 $593 0.63500000000000001 $521 $594 forward @7 unknown #
point $-1 -1 $-1 0.68750000000000011 -0.68560344466268031 0 #
coedge $-1 -1 $-1 $462 $536 $459 $529 reversed $289 $-1 #
edge $-1 -1 $-1 $464 0.21199508999309072 $530 0.58696201186634911 $459 $595 forward @7 unknown #
vertex $-1 -1 $-1 $460 $596 #
straight-curve $-1 -1 $-1 0.9375 -0.25259074277046106 0 0 0 0.39370078740157477 I I #
ellipse-curve $-1 -1 $-1 0.87215319688145765 -0.070525181101883105 0.24999999999999997 0 0 1 -0.1106858971563167 -0.058082976599872042 0 1 I I #
point $-1 -1 $-1 0.80965319688145787 -0.1787783565749381 0.24999999999999997 #
cone-surface $-1 -1 $-1 -0.81249999999999989 -0.46909709371657105 0 0 0 1 0.12499999999999994 -0.21650635094610968 0 1 I I 0 1 0.24999999999999997 forward I I I I #
coedge $-1 -1 $-1 $597 $474 $598 $599 reversed $470 $-1 #
coedge $-1 -1 $-1 $528 $600 $472 $537 reversed $289 $-1 #
edge $-1 -1 $-1 $530 -7.5717361714159039e-016 $593 3.1415926535897931 $472 $601 forward @7 unknown #
coedge $-1 -1 $-1 $602 $598 $473 $539 forward $580 $-1 #
edge $-1 -1 $-1 $541 -0.56394264136062844 $603 0.56394264136062922 $538 $604 forward @7 unknown #
coedge $-1 -1 $-1 $474 $597 $476 $544 reversed $470 $-1 #
vertex $-1 -1 $-1 $475 $605 #
straight-curve $-1 -1 $-1 -0.48737243569579464 -0.57005974153938332 0 -0.34095488337970031 -0.19685039370078719 0 F 0 F 0.58696201186634966 #
coedge $-1 -1 $-1 $477 $476 $606 $607 forward $478 $-1 #
edge $-1 -1 $-1 $479 0 $608 0.63500000000000001 $476 $609 forward @7 unknown #
point $-1 -1 $-1 -0.68750000000000011 -0.68560344466268031 0 #
coedge $-1 -1 $-1 $606 $484 $481 $547 reversed $289 $-1 #
edge $-1 -1 $-1 $548 0 $486 0.37496692187326042 $481 $610 forward @7 unknown #
vertex $-1 -1 $-1 $482 $611 #
straight-curve $-1 -1 $-1 -0.9375 -0.25259074277046106 0 0 0 0.39370078740157477 I I #
ellipse-curve $-1 -1 $-1 -0.87215319688145732 -0.0705251811018828 0.24999999999999997 0 0 1 0.11068589715631677 -0.058082976599871911 0 1 I I #
point $-1 -1 $-1 -0.80965319688145732 -0.1787783565749374 0.24999999999999997 #
loop $-1 -1 $-1 $612 $490 $570 #
vertex $-1 -1 $-1 $491 $613 #
ellipse-curve $-1 -1 $-1 0 0 0.24999999999999997 0 0 -1 -0.4375 0 0 1 I I #
coedge $-1 -1 $-1 $614 $492 $496 $561 reversed $557 $-1 #
coedge $-1 -1 $-1 $492 $614 $562 $615 forward $557 $-1 #
loop $-1 -1 $-1 $-1 $614 $565 #
straight-curve $-1 -1 $-1 0.062499999999999993 0.12103072956898178 1.2349999999999999 1.2215252536518108e-016 -0.39370078740157477 0 F -0.80764294689478633 F 1.4224790531052138 #
point $-1 -1 $-1 0.062499999999999931 0.31250000000000006 1.2349999999999999 #
coedge $-1 -1 $-1 $496 $512 $616 $617 forward $443 $-1 #
edge $-1 -1 $-1 $618 -0.061091071866888821 $431 0 $496 $619 forward @7 unknown #
coedge $-1 -1 $-1 $620 $499 $556 $615 reversed $502 $-1 #
coedge $-1 -1 $-1 $499 $620 $504 $568 forward $502 $-1 #
straight-curve $-1 -1 $-1 0.031249999999999854 0.31250000000000006 1.2349999999999999 0.39370078740157477 2.7533586077876039e-016 0 F -1.1944359999999996 F 1.0356860000000006 #
face $-1 -1 $-1 $569 $557 $2 $-1 $621 forward single #
cone-surface $-1 -1 $-1 0 0 1.2424999999999997 0 0 1 0.25750000000000001 0 0 1 I I -0.70710678118654746 -0.70710678118654746 0.25750000000000001 forward I I I I #
coedge $-1 -1 $-1 $505 $504 $622 $623 forward $506 $-1 #
edge $-1 -1 $-1 $624 0 $438 0.065991135768374273 $563 $625 forward @7 unknown #
face $-1 -1 $-1 $375 $506 $2 $-1 $626 forward single #
face $-1 -1 $-1 $185 $552 $2 $-1 $627 forward single #
loop $-1 -1 $-1 $628 $629 $509 #
cone-surface $-1 -1 $-1 0 0 1.2424999999999997 0 0 -1 -0.42999999999999999 0 0 1 I I 0.70710678118654746 0.70710678118654746 0.42999999999999999 forward I I I I #
loop $-1 -1 $-1 $-1 $616 $440 #
coedge $-1 -1 $-1 $574 $574 $629 $630 reversed $510 $-1 #
coedge $-1 -1 $-1 $622 $616 $512 $576 reversed $573 $-1 #
edge $-1 -1 $-1 $577 1.867587132965137 $631 3.1415926535897931 $575 $632 forward @7 unknown #
vertex $-1 -1 $-1 $576 $633 #
intcurve-curve $-1 -1 $-1 forward { surfintcur full nubs 3 open 2 
	-0.061090817261858853 3 0 3 
	-0.062500000000000097 0.24206145913796351 1.2350000000000001 
	-0.067472057011011333 0.24591279793797161 1.2399720570110113 
	-0.072476938056404386 0.24969764605461345 1.2449769380564042 
	-0.077500000000000097 0.25341418665891607 1.2499999999999998 
	5.4395260363319404e-011 
	cone 0 0 1.2424999999999997 0 0 1 0.25750000000000001 0 0 1 I I -0.70710678118654746 -0.70710678118654746 0.25750000000000001 forward I I I I 
	spline reversed { exactsur full nurbs 2 1 u open open none none 2 2 
	0 2 0.99999999999999989 2 
	0 1 1 1 
	-0.032500000000000015 0.21758618981911509 1.2649999999999997 1 
	-0.059592957125521165 0.24093293560871826 1.2649999999999997 1 
	-0.092500000000000068 0.26427968139832464 1.2649999999999997 1 
	-0.032500000000000015 0.21758618981911509 1.232 1 
	-0.059592957125521165 0.24093293560871826 1.232 1 
	-0.092500000000000068 0.26427968139832464 1.232 1 
	0 
	0 
	0 
	0 
	0 
	0 
	0 
	F 1 F 0 F 1 F 0 } I I I I 
	nullbs 
	nubs 3 open 2 
	-0.061090817261858853 3 0 3 
	0.5241687543826109 0.90909090909090606 
	0.60665003110347326 0.75842251481783762 
	0.68770732599908568 0.60675945283623323 
	0.76730172938607344 0.45454545454545309 
	
	I I 
	0 
	0 
	0 
	} I I #
face $-1 -1 $-1 $634 $635 $2 $-1 $636 forward single #
loop $-1 -1 $-1 $-1 $538 $515 #
cone-surface $-1 -1 $-1 -0.49715319688145776 -0.72004423394021178 0 0 0 1 0.0050416153152521665 0.12489828707797804 0 1 I I 0 -1 0.125 forward I I I I #
coedge $-1 -1 $-1 $637 $638 $518 $583 reversed $635 $-1 #
edge $-1 -1 $-1 $587 1.8299455047243587 $603 3.0385185189702764 $518 $639 forward @7 unknown #
coedge $-1 -1 $-1 $640 $519 $522 $590 forward $586 $-1 #
coedge $-1 -1 $-1 $519 $640 $637 $641 forward $586 $-1 #
loop $-1 -1 $-1 $-1 $519 $634 #
vertex $-1 -1 $-1 $583 $642 #
ellipse-curve $-1 -1 $-1 0.49715319688145743 -0.720044233940212 0 0 0 -1 -0.00504161531525236 0.124898287077978 0 1 I I #
coedge $-1 -1 $-1 $522 $521 $600 $643 forward $523 $-1 #
edge $-1 -1 $-1 $524 0 $644 0.63500000000000001 $522 $645 forward @7 unknown #
face $-1 -1 $-1 $396 $523 $2 $-1 $646 forward single #
point $-1 -1 $-1 0.55965319688145709 -0.61179105846715698 0 #
vertex $-1 -1 $-1 $526 $647 #
straight-curve $-1 -1 $-1 0.68750000000000011 -0.68560344466268031 0 0 0 0.39370078740157477 I I #
straight-curve $-1 -1 $-1 0.73737243569579447 -0.13704703964716447 0.24999999999999997 0.3409548833797007 -0.19685039370078664 0 F 0 F 0.58696201186634911 #
point $-1 -1 $-1 0.9375 -0.25259074277046106 0.24999999999999997 #
coedge $-1 -1 $-1 $540 $535 $648 $649 forward $470 $-1 #
coedge $-1 -1 $-1 $538 $650 $535 $599 forward $580 $-1 #
edge $-1 -1 $-1 $651 -0.63500000000000001 $541 0 $535 $652 forward @7 unknown #
coedge $-1 -1 $-1 $536 $653 $589 $643 reversed $289 $-1 #
ellipse-curve $-1 -1 $-1 0.8125 -0.46909709371657099 0.24999999999999997 0 0 -1 0.125 0.21650635094610965 0 1 F -1.4901161435372275e-008 F 3.1415926535897931 #
coedge $-1 -1 $-1 $650 $538 $638 $654 forward $580 $-1 #
vertex $-1 -1 $-1 $539 $655 #
ellipse-curve $-1 -1 $-1 -0.49715319688145776 -0.72004423394021178 0 0 0 -1 0.0050416153152521665 0.12489828707797804 0 1 I I #
point $-1 -1 $-1 -0.55965319688145776 -0.61179105846715687 0 #
coedge $-1 -1 $-1 $648 $546 $543 $607 reversed $289 $-1 #
edge $-1 -1 $-1 $608 1.3766793038938044e-016 $548 3.1415926535897931 $543 $656 forward @7 unknown #
vertex $-1 -1 $-1 $544 $657 #
straight-curve $-1 -1 $-1 -0.68750000000000011 -0.68560344466268031 0 0 0 0.39370078740157477 I I #
straight-curve $-1 -1 $-1 -0.9375 -0.25259074277046106 0.24999999999999997 0.34095488337970026 0.19685039370078747 0 F 0 F 0.58696201186634989 #
point $-1 -1 $-1 -0.9375 -0.25259074277046106 0.24999999999999997 #
loop $-1 -1 $-1 $-1 $658 $570 #
point $-1 -1 $-1 0.4375 5.3576527979729005e-017 0.24999999999999997 #
coedge $-1 -1 $-1 $556 $555 $659 $660 forward $557 $-1 #
edge $-1 -1 $-1 $661 0 $494 0.065991135768374315 $556 $662 forward @7 unknown #
coedge $-1 -1 $-1 $575 $659 $560 $617 reversed $573 $-1 #
edge $-1 -1 $-1 $631 -3.1415926535897931 $618 1.2740055206246566 $616 $663 forward @7 unknown #
vertex $-1 -1 $-1 $617 $664 #
intcurve-curve $-1 -1 $-1 forward { surfintcur full nubs 3 open 2 
	-0.061091071866888821 3 0 3 
	0.077499999999999958 0.25341418665891619 1.2499999999999998 
	0.072476938056402332 0.24969764605461209 1.2449769380564022 
	0.06747205701101032 0.24591279793797099 1.2399720570110104 
	0.062499999999999951 0.24206145913796356 1.2350000000000001 
	5.4395241898942764e-011 
	cone 0 0 1.2424999999999997 0 0 1 0.25750000000000001 0 0 1 I I -0.70710678118654746 -0.70710678118654746 0.25750000000000001 forward I I I I 
	spline reversed { exactsur full nurbs 2 1 u open open none none 2 2 
	0 2 0.99999999999999989 2 
	0 1 1 1 
	0.032499999999999946 0.21758618981911509 1.2350000000000001 1 
	0.059592957125523496 0.24093293560872037 1.2350000000000001 1 
	0.092499999999999971 0.26427968139832464 1.2350000000000001 1 
	0.032499999999999946 0.21758618981911509 1.2679999999999998 1 
	0.059592957125523496 0.24093293560872037 1.2679999999999998 1 
	0.092499999999999971 0.26427968139832464 1.2679999999999998 1 
	0 
	0 
	0 
	0 
	0 
	0 
	0 
	F 1 F 0 F 1 F 0 } I I I I 
	nullbs 
	nubs 3 open 2 
	-0.061091071866888821 3 0 3 
	0.76730172938605934 0.45454545454545309 
	0.68770732599903761 0.30233145625461499 
	0.60665003110343885 0.15066839427304293 
	0.52416875438259003 0 
	
	I I 
	0 
	0 
	0 
	} I I #
coedge $-1 -1 $-1 $563 $562 $665 $666 forward $502 $-1 #
plane-surface $-1 -1 $-1 0.069999999999999993 0.12103072956898178 1.2424999999999997 -0.70710678118654757 -2.1939219272294449e-016 0.70710678118654757 0.27838849653013681 0 0.27838849653013681 forward_v I I I I #
coedge $-1 -1 $-1 $665 $575 $567 $623 reversed $573 $-1 #
edge $-1 -1 $-1 $624 -0.43497500000000006 $577 -0.24679703411364712 $622 $667 forward @7 unknown #
vertex $-1 -1 $-1 $666 $668 #
straight-curve $-1 -1 $-1 -0.077500000000000083 0.32749999999999996 1.2499999999999998 0.22730325558646691 -0.22730325558646672 -0.22730325558646672 F 0 F 0.065991135768374273 #
plane-surface $-1 -1 $-1 -0.069999999999999993 0.15624999999999994 1.2424999999999997 0.70710678118654735 3.2908828908441702e-016 0.70710678118654779 0.27838849653013692 0 -0.27838849653013675 forward_v I I I I #
cone-surface $-1 -1 $-1 0 0 0.24999999999999997 0 0 1 -0.4375 0 0 1 I I 0 1 0.4375 forward I I I I #
loop $-1 -1 $-1 $-1 $669 $509 #
coedge $-1 -1 $-1 $629 $629 $574 $630 forward $571 $-1 #
edge $-1 -1 $-1 $670 -3.1415926535897931 $670 3.1415926535897931 $574 $671 forward @7 unknown #
vertex $-1 -1 $-1 $617 $672 #
ellipse-curve $-1 -1 $-1 0 0 1.2499999999999998 0 0 1 0.26500000000000001 0 0 1 I I #
point $-1 -1 $-1 -0.077500000000000055 0.25341418665891613 1.2499999999999998 #
face $-1 -1 $-1 $591 $586 $2 $-1 $673 forward single #
loop $-1 -1 $-1 $-1 $638 $579 #
cone-surface $-1 -1 $-1 0 0 0 0 0 1 0.48737243569579464 0.57005974153938332 0 1 I I 0 1 0.75 forward I I I I #
coedge $-1 -1 $-1 $674 $582 $585 $641 reversed $635 $-1 #
coedge $-1 -1 $-1 $582 $674 $602 $654 reversed $635 $-1 #
ellipse-curve $-1 -1 $-1 0 0 0 0 0 -1 0.48737243569579464 0.57005974153938332 0 1 F 1.7268713701048419 F 3.1415926535897931 #
coedge $-1 -1 $-1 $585 $584 $653 $675 forward $586 $-1 #
edge $-1 -1 $-1 $676 -0.63500000000000001 $587 0 $637 $677 forward @7 unknown #
point $-1 -1 $-1 0.42613131161267775 -0.61718077194875309 0 #
edge $-1 -1 $-1 $593 0 $644 0.37496692187326075 $589 $678 forward @7 unknown #
vertex $-1 -1 $-1 $643 $679 #
straight-curve $-1 -1 $-1 0.55965319688145709 -0.61179105846715698 0 0 0 0.39370078740157477 F -0.9842510000000001 F 1.619251 #
plane-surface $-1 -1 $-1 0.68750000000000011 -0.68560344466268031 0 -0.4999999999999975 -0.86602540378444004 0 0 0 -0.39370078740157477 forward_v I I I I #
point $-1 -1 $-1 0.68750000000000011 -0.68560344466268031 0.24999999999999997 #
coedge $-1 -1 $-1 $680 $606 $597 $649 reversed $289 $-1 #
edge $-1 -1 $-1 $651 0.21199508999309008 $608 0.58696201186634966 $597 $681 forward @7 unknown #
coedge $-1 -1 $-1 $598 $602 $680 $682 forward $580 $-1 #
vertex $-1 -1 $-1 $649 $683 #
straight-curve $-1 -1 $-1 -0.55965319688145776 -0.61179105846715687 0 0 0 -0.39370078740157477 F -1.619251 F 0.9842510000000001 #
coedge $-1 -1 $-1 $600 $684 $640 $675 reversed $289 $-1 #
edge $-1 -1 $-1 $603 0 $685 0.63500000000000001 $638 $686 forward @7 unknown #
point $-1 -1 $-1 -0.42613131161267809 -0.61718077194875287 0 #
ellipse-curve $-1 -1 $-1 -0.81249999999999989 -0.46909709371657105 0.24999999999999997 0 0 -1 0.12499999999999994 -0.21650635094610968 0 1 F 6.8833965194690072e-017 F 3.1415926535897931 #
point $-1 -1 $-1 -0.68750000000000011 -0.68560344466268031 0.24999999999999997 #
coedge $-1 -1 $-1 $658 $658 $669 $687 reversed $612 $-1 #
coedge $-1 -1 $-1 $616 $665 $614 $660 reversed $573 $-1 #
edge $-1 -1 $-1 $618 0.33625398100843329 $661 0.52443194689478656 $659 $688 forward @7 unknown #
vertex $-1 -1 $-1 $666 $689 #
straight-curve $-1 -1 $-1 0.077499999999999944 0.32750000000000007 1.2499999999999998 -0.22730325558646661 -0.22730325558646725 -0.22730325558646661 F 0 F 0.065991135768374315 #
ellipse-curve $-1 -1 $-1 0 0 1.2499999999999998 0 0 1 0.26500000000000001 0 0 1 I I #
point $-1 -1 $-1 0.077499999999999986 0.25341418665891613 1.2499999999999998 #
coedge $-1 -1 $-1 $659 $622 $620 $666 reversed $573 $-1 #
edge $-1 -1 $-1 $661 -0.11747500000000025 $624 0.27622499999999983 $665 $690 forward @7 unknown #
straight-curve $-1 -1 $-1 -0.077499999999999999 0.15624999999999994 1.2499999999999998 1.8322878804777184e-016 -0.39370078740157477 0 F -0.71818600000000021 F 1.5119359999999999 #
point $-1 -1 $-1 -0.077500000000000083 0.32749999999999996 1.2499999999999998 #
coedge $-1 -1 $-1 $669 $669 $658 $687 forward $628 $-1 #
vertex $-1 -1 $-1 $630 $691 #
ellipse-curve $-1 -1 $-1 0 0 1.2499999999999998 0 0 -1 -0.42249999999999999 0 0 1 I I #
point $-1 -1 $-1 -0.26500000000000001 -3.2452068376292997e-017 1.2499999999999998 #
cone-surface $-1 -1 $-1 0.49715319688145743 -0.720044233940212 0 0 0 1 -0.00504161531525236 0.124898287077978 0 1 I I 0 -1 0.12499999999999997 forward I I I I #
coedge $-1 -1 $-1 $638 $637 $684 $692 forward $635 $-1 #
edge $-1 -1 $-1 $644 -0.56394264136062744 $676 0.56394264136062733 $640 $693 forward @7 unknown #
vertex $-1 -1 $-1 $692 $694 #
straight-curve $-1 -1 $-1 0.42613131161267775 -0.61718077194875309 0 0 0 -0.39370078740157477 F -1.619251 F 0.9842510000000001 #
straight-curve $-1 -1 $-1 0.68750000000000011 -0.68560344466268031 0.24999999999999997 -0.34095488337970076 0.19685039370078641 0 F 0 F 0.58696201186635011 #
point $-1 -1 $-1 0.55965319688145709 -0.61179105846715698 0.24999999999999997 #
coedge $-1 -1 $-1 $684 $648 $650 $682 reversed $289 $-1 #
straight-curve $-1 -1 $-1 -0.48737243569579464 -0.57005974153938332 0.24999999999999997 -0.34095488337970031 -0.19685039370078719 0 F 0 F 0.58696201186634966 #
edge $-1 -1 $-1 $685 -0.56394264136062922 $651 0.56394264136062844 $650 $695 forward @7 unknown #
point $-1 -1 $-1 -0.55965319688145776 -0.61179105846715687 0.24999999999999997 #
coedge $-1 -1 $-1 $653 $680 $674 $692 reversed $289 $-1 #
vertex $-1 -1 $-1 $692 $696 #
straight-curve $-1 -1 $-1 -0.42613131161267814 -0.61718077194875298 0 0 0 0.39370078740157477 F -0.9842510000000001 F 1.619251 #
edge $-1 -1 $-1 $697 -3.1415926535897931 $697 3.1415926535897931 $658 $698 forward @7 unknown #
straight-curve $-1 -1 $-1 0.077499999999999999 0.12103072956898178 1.2499999999999998 -1.2215252536518108e-016 0.39370078740157477 0 F -1.4224790531052138 F 0.80764294689478633 #
point $-1 -1 $-1 0.077499999999999944 0.32750000000000007 1.2499999999999998 #
straight-curve $-1 -1 $-1 0.031249999999999844 0.32750000000000007 1.2499999999999998 -0.39370078740157477 -2.7533586077876039e-016 0 F -1.0356860000000006 F 1.1944359999999996 #
point $-1 -1 $-1 0.42249999999999999 -5.173961844899544e-017 1.2499999999999998 #
edge $-1 -1 $-1 $676 1.8299455047243587 $685 3.0385185189702764 $674 $699 forward @7 unknown #
ellipse-curve $-1 -1 $-1 0.49715319688145743 -0.720044233940212 0.24999999999999997 0 0 1 -0.00504161531525236 0.124898287077978 0 1 I I #
point $-1 -1 $-1 0.42613131161267775 -0.61718077194875309 0.24999999999999997 #
ellipse-curve $-1 -1 $-1 -0.49715319688145776 -0.72004423394021178 0.24999999999999997 0 0 1 0.0050416153152521665 0.12489828707797804 0 1 I I #
point $-1 -1 $-1 -0.42613131161267809 -0.61718077194875287 0.24999999999999997 #
vertex $-1 -1 $-1 $687 $700 #
ellipse-curve $-1 -1 $-1 0 0 1.2349999999999999 0 0 1 -0.4375 0 0 1 I I #
ellipse-curve $-1 -1 $-1 0 0 0.24999999999999997 0 0 -1 0.48737243569579464 0.57005974153938332 0 1 F 1.7268713701048419 F 3.1415926535897931 #
point $-1 -1 $-1 0.4375 5.3576527979729005e-017 1.2349999999999999 #
End-of-ACIS-data 