400 0 1 0           
7 Unknown 11 ACIS 6.0 NT 24 Wed Dec 26 20:17:54 2001 
25.399999999999999 9.9999999999999995e-007 1e-010 
body $-1 $1 $-1 $-1 #
lump $-1 $-1 $2 $0 #
shell $-1 $-1 $-1 $3 $-1 $1 #
face $-1 $4 $5 $2 $-1 $6 reversed single #
face $-1 $7 $8 $2 $-1 $9 reversed single #
loop $-1 $10 $11 $3 #
cone-surface $-1 0 0 0.40444217033235041 0 0 -1 -0.048999999999999995 0 0 1 I I 0.85716730070211222 0.51503807491005416 0.048999999999999995 reversed I I I I #
face $-1 $12 $13 $2 $-1 $14 forward single #
loop $-1 $15 $16 $4 #
cone-surface $-1 0 0 0.1875 0 0 -1 -0.09799999999999999 0 0 1 I I 0 1 0.09799999999999999 reversed I I I I #
loop $-1 $-1 $17 $3 #
coedge $-1 $11 $11 $18 $19 forward $5 $-1 #
face $-1 $20 $21 $2 $-1 $22 forward single #
loop $-1 $23 $24 $7 #
cone-surface $-1 -3.8210526517695893e-034 1.910526325884794e-034 1.0143749999999998 2.4454736971325314e-032 -1.2227368485662651e-032 -1 -0.109375 -1.4016425632891519e-065 -1.1463157955308739e-033 1 I I 0.70710678118654668 0.70710678118654835 0.109375 forward I I I I #
loop $-1 $-1 $18 $4 #
coedge $-1 $16 $16 $25 $26 reversed $8 $-1 #
coedge $-1 $17 $17 $-1 $27 reversed $10 $-1 #
coedge $-1 $18 $18 $11 $19 reversed $15 $-1 #
edge $-1 $28 $28 $18 $29 forward #
face $-1 $30 $31 $2 $-1 $32 forward single #
loop $-1 $33 $34 $12 #
cone-surface $-1 0 0 0.53000000000000003 0 0 1 -0.12499999999999999 0 0 1 I I 0 1 0.12499999999999999 forward I I I I #
loop $-1 $-1 $35 $7 #
coedge $-1 $24 $24 $36 $37 forward $13 $-1 #
coedge $-1 $25 $25 $16 $26 forward $38 $-1 #
edge $-1 $39 $39 $25 $40 forward #
edge $-1 $41 $41 $17 $-1 forward #
vertex $-1 $19 $42 #
ellipse-curve $-1 0 0 0.375 0 0 -1 -0.09799999999999999 0 0 1 I I #
face $-1 $43 $44 $2 $-1 $45 forward single #
loop $-1 $-1 $36 $20 #
plane-surface $-1 0.011363636363636366 -9.9339927042336831e-019 1.03 -2.4454736971325311e-032 1.2227368485662653e-032 1 0.39370078740157477 0 9.6278492013091769e-033 forward_v I I I I #
loop $-1 $-1 $46 $12 #
coedge $-1 $34 $34 $47 $48 reversed $21 $-1 #
coedge $-1 $35 $35 $46 $49 forward $23 $-1 #
coedge $-1 $36 $36 $24 $37 reversed $31 $-1 #
edge $-1 $50 $50 $36 $51 forward #
loop $-1 $52 $25 $53 #
vertex $-1 $26 $54 #
ellipse-curve $-1 0 0 0 0 0 1 -0.09799999999999999 0 0 1 I I #
vertex $-1 $27 $55 #
point $-1 -0.09799999999999999 0 0.375 #
face $-1 $53 $56 $2 $-1 $57 forward single #
loop $-1 $58 $59 $30 #
cone-surface $-1 0 0 0 0 0 1 -0.49999999999999994 0 0 1 I I 0 1 0.49999999999999994 forward I I I I #
coedge $-1 $46 $46 $35 $49 reversed $33 $-1 #
coedge $-1 $47 $47 $34 $48 forward $56 $-1 #
edge $-1 $60 $60 $47 $61 forward #
edge $-1 $62 $62 $46 $63 forward #
vertex $-1 $37 $64 #
ellipse-curve $-1 -7.6421053035391785e-034 3.821052651769588e-034 1.03 2.4454736971325311e-032 -1.2227368485662653e-032 -1 -0.09375 -2.8032851265783039e-065 -2.2926315910617478e-033 1 I I #
loop $-1 $-1 $65 $53 #
face $-1 $-1 $38 $2 $-1 $66 reversed single #
point $-1 -0.09799999999999999 0 0 #
point $-1 0 0 0.43388434066470094 #
loop $-1 $67 $47 $43 #
plane-surface $-1 0.045454545454545463 -3.9735970816934733e-018 0.53000000000000003 0 0 1 0.39370078740157477 0 0 forward_v I I I I #
loop $-1 $-1 $68 $30 #
coedge $-1 $59 $59 $69 $70 forward $44 $-1 #
vertex $-1 $48 $71 #
ellipse-curve $-1 0 0 0.53000000000000003 0 0 -1 -0.12499999999999999 0 0 1 I I #
vertex $-1 $49 $72 #
ellipse-curve $-1 0 0 0.99874999999999992 -2.4454736971325311e-032 1.2227368485662653e-032 1 -0.12499999999999999 0 0 1 I I #
point $-1 0.09375 3.821052651769588e-034 1.03 #
coedge $-1 $65 $65 $68 $73 forward $52 $-1 #
plane-surface $-1 0.045454545454545463 -3.9735970816934733e-018 0 0 0 1 0.39370078740157477 0 0 forward_v I I I I #
loop $-1 $-1 $69 $43 #
coedge $-1 $68 $68 $65 $73 reversed $58 $-1 #
coedge $-1 $69 $69 $59 $70 reversed $67 $-1 #
edge $-1 $74 $74 $59 $75 forward #
point $-1 0.12499999999999999 1.5307579422779713e-017 0.53000000000000003 #
point $-1 0.12499999999999999 0 0.99874999999999992 #
edge $-1 $76 $76 $65 $77 forward #
vertex $-1 $70 $78 #
ellipse-curve $-1 0 0 0.53000000000000003 0 0 -1 -0.49999999999999994 0 0 1 I I #
vertex $-1 $73 $79 #
ellipse-curve $-1 0 0 0 0 0 -1 -0.49999999999999994 0 0 1 I I #
point $-1 0.49999999999999994 6.1230317691118851e-017 0.53000000000000003 #
point $-1 0.49999999999999994 6.1230317691118851e-017 0 #
End-of-ACIS-data 