400 0 1 0           
7 Unknown 11 ACIS 6.0 NT 24 Wed Dec 26 20:14:04 2001 
25.399999999999999 9.9999999999999995e-007 1e-010 
body $-1 $1 $-1 $-1 #
lump $-1 $-1 $2 $0 #
shell $-1 $-1 $-1 $3 $-1 $1 #
face $-1 $4 $5 $2 $-1 $6 forward single #
face $-1 $7 $8 $2 $-1 $9 forward single #
loop $-1 $10 $11 $3 #
cone-surface $-1 -3.8210526517695893e-034 1.910526325884794e-034 0.88937499999999992 2.4454736971325314e-032 -1.2227368485662651e-032 -1 -0.109375 -1.4016425632891519e-065 -1.1463157955308739e-033 1 I I 0.70710678118654668 0.70710678118654835 0.109375 forward I I I I #
face $-1 $12 $13 $2 $-1 $14 forward single #
loop $-1 $15 $16 $4 #
cone-surface $-1 0 0 0.53000000000000003 0 0 1 -0.12499999999999999 0 0 1 I I 0 1 0.12499999999999999 forward I I I I #
loop $-1 $-1 $17 $3 #
coedge $-1 $11 $11 $18 $19 forward $5 $-1 #
face $-1 $20 $21 $2 $-1 $22 forward single #
loop $-1 $-1 $18 $7 #
plane-surface $-1 0.011363636363636366 -9.9339927042336831e-019 0.90500000000000003 -2.4454736971325311e-032 1.2227368485662653e-032 1 0.39370078740157477 0 9.6278492013091769e-033 forward_v I I I I #
loop $-1 $-1 $23 $4 #
coedge $-1 $16 $16 $24 $25 reversed $8 $-1 #
coedge $-1 $17 $17 $23 $26 forward $10 $-1 #
coedge $-1 $18 $18 $11 $19 reversed $13 $-1 #
edge $-1 $27 $27 $18 $28 forward #
face $-1 $29 $30 $2 $-1 $31 forward single #
loop $-1 $32 $33 $12 #
cone-surface $-1 0 0 0 0 0 1 -0.49999999999999994 0 0 1 I I 0 1 0.49999999999999994 forward I I I I #
coedge $-1 $23 $23 $17 $26 reversed $15 $-1 #
coedge $-1 $24 $24 $16 $25 forward $30 $-1 #
edge $-1 $34 $34 $24 $35 forward #
edge $-1 $36 $36 $23 $37 forward #
vertex $-1 $19 $38 #
ellipse-curve $-1 -7.6421053035391785e-034 3.821052651769588e-034 0.90500000000000003 2.4454736971325311e-032 -1.2227368485662653e-032 -1 -0.09375 -2.8032851265783039e-065 -2.2926315910617478e-033 1 I I #
face $-1 $-1 $39 $2 $-1 $40 reversed single #
loop $-1 $41 $24 $20 #
plane-surface $-1 0.045454545454545463 -3.9735970816934733e-018 0.53000000000000003 0 0 1 0.39370078740157477 0 0 forward_v I I I I #
loop $-1 $-1 $42 $12 #
coedge $-1 $33 $33 $43 $44 forward $21 $-1 #
vertex $-1 $25 $45 #
ellipse-curve $-1 0 0 0.53000000000000003 0 0 -1 -0.12499999999999999 0 0 1 I I #
vertex $-1 $26 $46 #
ellipse-curve $-1 0 0 0.87374999999999992 -2.4454736971325311e-032 1.2227368485662653e-032 1 -0.12499999999999999 0 0 1 I I #
point $-1 0.09375 3.821052651769588e-034 0.90500000000000003 #
loop $-1 $-1 $47 $29 #
plane-surface $-1 0.045454545454545463 -3.9735970816934733e-018 0 0 0 1 0.39370078740157477 0 0 forward_v I I I I #
loop $-1 $-1 $43 $20 #
coedge $-1 $42 $42 $47 $48 reversed $32 $-1 #
coedge $-1 $43 $43 $33 $44 reversed $41 $-1 #
edge $-1 $49 $49 $33 $50 forward #
point $-1 0.12499999999999999 1.5307579422779713e-017 0.53000000000000003 #
point $-1 0.12499999999999999 0 0.87374999999999992 #
coedge $-1 $47 $47 $42 $48 forward $39 $-1 #
edge $-1 $51 $51 $47 $52 forward #
vertex $-1 $44 $53 #
ellipse-curve $-1 0 0 0.53000000000000003 0 0 -1 -0.49999999999999994 0 0 1 I I #
vertex $-1 $48 $54 #
ellipse-curve $-1 0 0 0 0 0 -1 -0.49999999999999994 0 0 1 I I #
point $-1 0.49999999999999994 6.1230317691118851e-017 0.53000000000000003 #
point $-1 0.49999999999999994 6.1230317691118851e-017 0 #
End-of-ACIS-data 