400 0 1 0           
7 Unknown 11 ACIS 6.0 NT 24 Wed Dec 26 20:23:57 2001 
25.399999999999999 9.9999999999999995e-007 1e-010 
body $-1 $1 $-1 $-1 #
lump $-1 $-1 $2 $0 #
shell $-1 $-1 $-1 $3 $-1 $1 #
face $-1 $4 $5 $2 $-1 $6 forward single #
face $-1 $7 $8 $2 $-1 $9 forward single #
loop $-1 $10 $11 $3 #
cone-surface $-1 0 0 -0.484375 0 0 1 0.109375 0 0 1 I I 0.70710678118654768 0.70710678118654746 0.109375 forward I I I I #
face $-1 $12 $13 $2 $-1 $14 reversed single #
loop $-1 $15 $16 $4 #
cone-surface $-1 0 0 0 0 0 -1 0.12499999999999999 0 0 1 I I 0 1 0.12499999999999999 forward I I I I #
loop $-1 $-1 $17 $3 #
coedge $-1 $11 $11 $18 $19 forward $5 $-1 #
face $-1 $20 $21 $2 $-1 $22 forward single #
loop $-1 $-1 $18 $7 #
plane-surface $-1 -0.011363636363636366 -9.9339927042336831e-019 -0.49999999999999994 0 0 1 0.39370078740157477 0 0 forward_v I I I I #
loop $-1 $-1 $23 $4 #
coedge $-1 $16 $16 $24 $25 reversed $8 $-1 #
coedge $-1 $17 $17 $23 $26 forward $10 $-1 #
coedge $-1 $18 $18 $11 $19 reversed $13 $-1 #
edge $-1 $27 $27 $18 $28 forward #
face $-1 $29 $30 $2 $-1 $31 forward single #
loop $-1 $32 $33 $12 #
cone-surface $-1 -3.8210526517695893e-034 1.910526325884794e-034 1.0143749999999998 2.4454736971325314e-032 -1.2227368485662651e-032 -1 -0.109375 -1.4016425632891519e-065 -1.1463157955308739e-033 1 I I 0.70710678118654668 0.70710678118654835 0.109375 forward I I I I #
coedge $-1 $23 $23 $17 $26 reversed $15 $-1 #
coedge $-1 $24 $24 $16 $25 forward $34 $-1 #
edge $-1 $35 $35 $24 $36 forward #
edge $-1 $37 $37 $23 $38 forward #
vertex $-1 $19 $39 #
ellipse-curve $-1 0 0 -0.49999999999999994 0 0 1 0.09375 0 0 1 I I #
face $-1 $40 $41 $2 $-1 $42 forward single #
loop $-1 $43 $44 $20 #
cone-surface $-1 0 0 0.53000000000000003 0 0 1 -0.12499999999999999 0 0 1 I I 0 1 0.12499999999999999 forward I I I I #
loop $-1 $-1 $45 $12 #
coedge $-1 $33 $33 $46 $47 forward $21 $-1 #
loop $-1 $48 $24 $49 #
vertex $-1 $25 $50 #
ellipse-curve $-1 0 0 0 0 0 1 0.12499999999999999 0 0 1 I I #
vertex $-1 $26 $51 #
ellipse-curve $-1 0 0 -0.46875 0 0 -1 0.12499999999999999 0 0 1 I I #
point $-1 -0.09375 0 -0.49999999999999994 #
face $-1 $52 $53 $2 $-1 $54 forward single #
loop $-1 $-1 $46 $29 #
plane-surface $-1 0.011363636363636366 -9.9339927042336831e-019 1.03 -2.4454736971325311e-032 1.2227368485662653e-032 1 0.39370078740157477 0 9.6278492013091769e-033 forward_v I I I I #
loop $-1 $-1 $55 $20 #
coedge $-1 $44 $44 $56 $57 reversed $30 $-1 #
coedge $-1 $45 $45 $55 $58 forward $32 $-1 #
coedge $-1 $46 $46 $33 $47 reversed $41 $-1 #
edge $-1 $59 $59 $46 $60 forward #
loop $-1 $-1 $61 $49 #
face $-1 $-1 $34 $2 $-1 $62 reversed single #
point $-1 -0.12499999999999999 1.5307579422779713e-017 0 #
point $-1 -0.12499999999999999 0 -0.46875 #
face $-1 $49 $63 $2 $-1 $64 forward single #
loop $-1 $65 $66 $40 #
cone-surface $-1 0 0 0 0 0 1 -0.49999999999999994 0 0 1 I I 0 1 0.49999999999999994 forward I I I I #
coedge $-1 $55 $55 $45 $58 reversed $43 $-1 #
coedge $-1 $56 $56 $44 $57 forward $63 $-1 #
edge $-1 $67 $67 $56 $68 forward #
edge $-1 $69 $69 $55 $70 forward #
vertex $-1 $47 $71 #
ellipse-curve $-1 -7.6421053035391785e-034 3.821052651769588e-034 1.03 2.4454736971325311e-032 -1.2227368485662653e-032 -1 -0.09375 -2.8032851265783039e-065 -2.2926315910617478e-033 1 I I #
coedge $-1 $61 $61 $72 $73 forward $48 $-1 #
plane-surface $-1 0.045454545454545463 -3.9735970816934733e-018 0 0 0 1 0.39370078740157477 0 0 forward_v I I I I #
loop $-1 $74 $56 $52 #
plane-surface $-1 0.045454545454545463 -3.9735970816934733e-018 0.53000000000000003 0 0 1 0.39370078740157477 0 0 forward_v I I I I #
loop $-1 $-1 $72 $40 #
coedge $-1 $66 $66 $75 $76 forward $53 $-1 #
vertex $-1 $57 $77 #
ellipse-curve $-1 0 0 0.53000000000000003 0 0 -1 -0.12499999999999999 0 0 1 I I #
vertex $-1 $58 $78 #
ellipse-curve $-1 0 0 0.99874999999999992 -2.4454736971325311e-032 1.2227368485662653e-032 1 -0.12499999999999999 0 0 1 I I #
point $-1 0.09375 3.821052651769588e-034 1.03 #
coedge $-1 $72 $72 $61 $73 reversed $65 $-1 #
edge $-1 $79 $79 $61 $80 forward #
loop $-1 $-1 $75 $52 #
coedge $-1 $75 $75 $66 $76 reversed $74 $-1 #
edge $81 $82 $82 $66 $83 forward #
point $-1 0.12499999999999999 1.5307579422779713e-017 0.53000000000000003 #
point $-1 0.12499999999999999 0 0.99874999999999992 #
vertex $-1 $73 $84 #
ellipse-curve $-1 0 0 0 0 0 -1 -0.49999999999999994 0 0 1 I I #
convexity-sys-attrib $-1 $-1 $-1 $76 #
vertex $-1 $76 $85 #
ellipse-curve $-1 0 0 0.53000000000000003 0 0 -1 -0.49999999999999994 0 0 1 I I #
point $-1 0.49999999999999994 6.1230317691118851e-017 0 #
point $-1 0.49999999999999994 6.1230317691118851e-017 0.53000000000000003 #
End-of-ACIS-data 