400 0 1 0           
7 Unknown 11 ACIS 6.0 NT 24 Thu Dec 27 20:40:10 2001 
1 9.9999999999999995e-007 1e-010 
body $1 $2 $-1 $-1 #
aggregate_simgeom_attribute-aggregate_simgeom_base_attribute-aggregate_body_attribute-attrib_HH-attrib $-1 $-1 $-1 $0 #
lump $-1 $-1 $3 $0 #
shell $-1 $-1 $-1 $4 $-1 $2 #
face $-1 $5 $6 $3 $-1 $7 reversed single #
face $-1 $8 $9 $3 $-1 $10 forward single #
loop $-1 $11 $12 $4 #
cone-surface $-1 0 0 -15.10231770292229 0 0 1 2 0 0 1 I I 0 1 2 reversed I I I I #
face $-1 $13 $14 $3 $-1 $15 forward single #
loop $-1 $-1 $16 $5 #
cone-surface $-1 0 0 -6.2999999999999998 0 0 1 3.3250000000000002 0 0 1 I I 0 1 3.3250000000000002 forward I I I I #
loop $-1 $-1 $17 $4 #
coedge $-1 $12 $12 $18 $19 reversed $6 $-1 #
face $-1 $20 $21 $3 $-1 $22 forward single #
loop $-1 $-1 $23 $8 #
cone-surface $-1 0.86434609112925709 4.3347026132826496 -40.745038426371003 0 0 1 3.0874114738059788 1.7825178455010167 0 1 I I 0 1 3.5650356910020391 forward I I I I #
coedge $-1 $24 $25 $26 $27 reversed $9 $-1 #
coedge $-1 $17 $17 $28 $29 reversed $11 $-1 #
coedge $-1 $18 $18 $12 $19 forward $30 $-1 #
edge $-1 $31 $31 $18 $32 forward #
face $-1 $33 $34 $3 $-1 $35 forward single #
loop $-1 $-1 $36 $13 #
cone-surface $-1 0 0 -40.745038426371003 0 0 1 4.2435244785437529 2.4499999999999957 0 1 I I 0 1 4.9000000000000012 forward I I I I #
coedge $-1 $37 $38 $39 $40 reversed $14 $-1 #
coedge $-1 $41 $16 $42 $43 forward $9 $-1 #
coedge $-1 $16 $41 $44 $45 reversed $9 $-1 #
coedge $-1 $46 $47 $16 $27 forward $48 $-1 #
edge $-1 $49 $50 $16 $51 forward #
coedge $-1 $28 $28 $17 $29 forward $52 $-1 #
edge $-1 $53 $53 $28 $54 forward #
loop $-1 $48 $18 $55 #
vertex $-1 $19 $56 #
ellipse-curve $-1 0 0 -6.0000000000000009 0 0 1 2 0 0 1 I I #
face $-1 $57 $58 $3 $-1 $59 forward single #
loop $-1 $-1 $60 $20 #
cone-surface $-1 -4.1861356265181904 1.41880563406162 -40.745038426371003 0 0 1 3.0874114738059788 1.7825178455010167 0 1 I I 0 1 3.5650356910020391 forward I I I I #
coedge $-1 $61 $62 $63 $64 reversed $21 $-1 #
coedge $-1 $65 $23 $66 $67 forward $14 $-1 #
coedge $-1 $23 $65 $61 $68 reversed $14 $-1 #
coedge $-1 $63 $69 $23 $40 forward $48 $-1 #
edge $-1 $70 $71 $23 $72 forward #
coedge $-1 $25 $24 $73 $74 forward $9 $-1 #
coedge $-1 $60 $75 $24 $43 reversed $34 $-1 #
edge $-1 $49 $76 $24 $77 forward #
coedge $-1 $78 $79 $25 $45 forward $80 $-1 #
edge $-1 $50 $81 $25 $82 forward #
coedge $-1 $83 $26 $79 $84 forward $48 $-1 #
coedge $-1 $26 $63 $60 $85 forward $48 $-1 #
loop $-1 $-1 $69 $55 #
vertex $-1 $27 $86 #
vertex $-1 $27 $87 #
ellipse-curve $-1 0 0 -6.0000000000000009 0 0 -1 3.3250000000000002 0 0 1 I I #
loop $-1 $88 $28 $89 #
vertex $-1 $29 $90 #
ellipse-curve $-1 0 0 0 0 0 -1 2 0 0 1 I I #
face $-1 $89 $30 $3 $-1 $91 forward single #
point $-1 -2 0 -6.0000000000000009 #
face $-1 $92 $93 $3 $-1 $94 forward single #
loop $-1 $-1 $95 $33 #
cone-surface $-1 0 0 -6.2999999999999998 0 0 1 3.3250000000000002 0 0 1 I I 0 1 3.3250000000000002 forward I I I I #
coedge $-1 $96 $42 $47 $85 reversed $34 $-1 #
coedge $-1 $97 $36 $38 $68 forward $21 $-1 #
coedge $-1 $36 $97 $96 $98 reversed $21 $-1 #
coedge $-1 $47 $39 $36 $64 forward $48 $-1 #
edge $-1 $71 $99 $36 $100 forward #
coedge $-1 $38 $37 $101 $102 reversed $14 $-1 #
coedge $-1 $95 $103 $37 $67 reversed $58 $-1 #
edge $-1 $70 $104 $37 $105 forward #
edge $-1 $71 $106 $38 $107 forward #
coedge $-1 $39 $108 $95 $109 forward $48 $-1 #
vertex $-1 $40 $110 #
vertex $-1 $40 $111 #
ellipse-curve $-1 0.86434609112925709 4.3347026132826496 -6.0000000000000009 0 0 -1 -3.0874114738059788 -1.7825178455010162 0 1 I I #
coedge $-1 $112 $113 $41 $74 reversed $88 $-1 #
edge $-1 $76 $81 $41 $114 forward #
coedge $-1 $42 $96 $112 $115 reversed $34 $-1 #
vertex $-1 $43 $116 #
straight-curve $-1 -1.06883725204859 3.1485253577878702 -6.0000000000000009 0 0 1 I I #
coedge $-1 $117 $44 $113 $118 reversed $80 $-1 #
coedge $-1 $44 $117 $46 $84 reversed $80 $-1 #
loop $-1 $-1 $79 $119 #
vertex $-1 $74 $120 #
straight-curve $-1 -0.64862246610869301 3.2611215703280805 -6.0000000000000009 0 0 1 I I #
coedge $-1 $121 $46 $122 $123 forward $48 $-1 #
edge $-1 $50 $124 $46 $125 forward #
edge $-1 $99 $49 $60 $126 forward #
point $-1 -1.06883725204859 3.1485253577878702 -6.0000000000000009 #
point $-1 -0.64862246610869301 3.2611215703280805 -6.0000000000000009 #
loop $-1 $-1 $127 $89 #
face $-1 $119 $52 $3 $-1 $128 reversed single #
point $-1 2 0 0 #
plane-surface $-1 5.3889869030500384 -5.3889869030500384 -6.0000000000000009 0 0 -1 -1 0 0 forward_v I I I I #
face $-1 $129 $130 $3 $-1 $131 forward single #
loop $-1 $-1 $132 $57 #
cone-surface $-1 -1.4188056340616102 4.1861356265181904 -40.745038426371003 0 0 1 1.7825178455010238 3.0874114738059744 0 1 I I 0 1 3.5650356910020391 forward I I I I #
coedge $-1 $133 $66 $69 $109 reversed $58 $-1 #
coedge $-1 $75 $60 $62 $98 forward $34 $-1 #
coedge $-1 $62 $61 $134 $135 reversed $21 $-1 #
edge $-1 $99 $136 $62 $137 forward #
vertex $-1 $64 $138 #
ellipse-curve $-1 0 0 -6.0000000000000009 0 0 -1 -4.2435244785437529 -2.4499999999999957 0 1 I I #
coedge $-1 $127 $134 $65 $102 forward $88 $-1 #
edge $-1 $106 $104 $65 $139 forward #
coedge $-1 $66 $133 $127 $140 forward $58 $-1 #
vertex $-1 $67 $141 #
straight-curve $-1 -2.1922843182794702 2.4999028916791701 -6.0000000000000009 0 0 1 I I #
vertex $-1 $102 $142 #
straight-curve $-1 -2.6925490616668499 4.0939198270749007 -6.0000000000000009 0 0 1 I I #
coedge $-1 $69 $143 $144 $145 forward $48 $-1 #
edge $-1 $146 $70 $95 $147 forward #
point $-1 -2.19228431827948 2.4999028916791701 -6.0000000000000009 #
point $-1 -2.6925490616668499 4.0939198270749007 -6.0000000000000009 #
coedge $-1 $134 $73 $75 $115 forward $88 $-1 #
coedge $-1 $73 $148 $78 $118 forward $88 $-1 #
ellipse-curve $-1 0 0 0 0 0 -1 3.3250000000000002 0 0 1 I I #
edge $-1 $76 $136 $75 $149 forward #
point $-1 -1.06883725204859 3.1485253577878702 0 #
coedge $-1 $79 $78 $150 $151 reversed $80 $-1 #
edge $-1 $152 $81 $113 $153 forward #
face $-1 $154 $80 $3 $-1 $155 forward single #
point $-1 -0.64862246610869301 3.2611215703280805 0 #
coedge $-1 $156 $83 $157 $158 forward $48 $-1 #
coedge $-1 $150 $159 $83 $123 reversed $160 $-1 #
edge $-1 $124 $161 $83 $162 forward #
vertex $-1 $84 $163 #
ellipse-curve $-1 2.9158969792210399 3.3217895353889402 -6.0000000000000009 0 0 -1 -3.5650356910020391 0 0 1 I I #
ellipse-curve $-1 -4.1861356265181904 1.41880563406162 -6.0000000000000009 0 0 -1 -3.0874114738059788 -1.7825178455010167 0 1 I I #
coedge $-1 $164 $101 $103 $140 reversed $88 $-1 #
plane-surface $-1 5.3889869030500384 -5.3889869030500384 0 0 0 -1 -1 0 0 forward_v I I I I #
face $-1 $165 $166 $3 $-1 $167 forward single #
loop $-1 $-1 $168 $92 #
cone-surface $-1 0 0 -40.745038426371003 0 0 1 2.4500000000000055 4.2435244785437467 0 1 I I 0 1 4.9000000000000004 forward I I I I #
coedge $-1 $169 $170 $171 $172 reversed $93 $-1 #
coedge $-1 $103 $95 $173 $174 forward $58 $-1 #
coedge $-1 $101 $112 $97 $135 forward $88 $-1 #
edge $-1 $136 $106 $97 $175 forward #
vertex $-1 $135 $176 #
straight-curve $-1 -2.1991640404702202 4.3787758018769001 -6.0000000000000009 0 0 1 I I #
point $-1 -2.1991640404702202 4.3787758018769001 -6.0000000000000009 #
ellipse-curve $-1 0.86434609112925709 4.3347026132826496 0 0 0 1 3.0874114738059788 1.7825178455010162 0 1 I I #
edge $-1 $177 $104 $103 $178 forward #
point $-1 -2.1922843182794702 2.4999028916791701 0 #
point $-1 -2.6925490616668499 4.0939198270749007 0 #
coedge $-1 $108 $171 $168 $179 forward $48 $-1 #
coedge $-1 $180 $173 $108 $145 reversed $166 $-1 #
edge $-1 $181 $146 $144 $182 forward #
vertex $-1 $109 $183 #
ellipse-curve $-1 0 0 -6.0000000000000009 0 0 -1 3.3250000000000002 0 0 1 I I #
coedge $-1 $113 $184 $185 $186 forward $88 $-1 #
ellipse-curve $-1 -4.1861356265181904 1.41880563406162 0 0 0 1 3.0874114738059788 1.7825178455010162 0 1 I I #
coedge $-1 $185 $122 $117 $151 forward $160 $-1 #
edge $-1 $124 $152 $117 $187 forward #
vertex $-1 $186 $188 #
ellipse-curve $-1 2.9158969792210399 3.3217895353889402 0 0 0 1 3.5650356910020391 0 0 1 I I #
face $-1 $189 $160 $3 $-1 $190 forward single #
cone-surface $-1 2.9158969792210399 3.3217895353889402 -40.745038426371003 0 0 1 3.5650356910020391 0 0 1 I I 0 1 3.5650356910020391 forward I I I I #
coedge $-1 $191 $121 $192 $193 forward $48 $-1 #
coedge $-1 $194 $195 $121 $158 reversed $196 $-1 #
edge $-1 $161 $197 $121 $198 forward #
coedge $-1 $122 $185 $194 $199 reversed $160 $-1 #
loop $-1 $-1 $122 $154 #
vertex $-1 $123 $200 #
ellipse-curve $-1 0 0 -6.0000000000000009 0 0 -1 -4.9000000000000004 0 0 1 I I #
point $-1 -0.28485597480199698 4.8917131021370794 -6.0000000000000009 #
coedge $-1 $201 $127 $202 $203 forward $88 $-1 #
face $-1 $204 $205 $3 $-1 $206 forward single #
loop $-1 $-1 $144 $129 #
cone-surface $-1 -4.3347026132826496 -0.8643460911292411 -40.745038426371003 0 0 1 1.7825178455010238 3.0874114738059744 0 1 I I 0 1 3.5650356910020391 forward I I I I #
coedge $-1 $207 $208 $143 $179 reversed $130 $-1 #
coedge $-1 $209 $132 $210 $211 forward $93 $-1 #
coedge $-1 $132 $209 $207 $212 reversed $93 $-1 #
coedge $-1 $143 $213 $132 $172 forward $48 $-1 #
edge $-1 $214 $215 $132 $216 forward #
coedge $-1 $144 $202 $133 $174 reversed $166 $-1 #
edge $-1 $146 $177 $133 $217 forward #
ellipse-curve $-1 0 0 0 0 0 1 4.2435244785437529 2.4499999999999957 0 1 I I #
point $-1 -2.1991640404702202 4.3787758018769001 0 #
vertex $-1 $174 $218 #
ellipse-curve $-1 0 0 0 0 0 -1 3.3250000000000002 0 0 1 I I #
edge $-1 $215 $181 $168 $219 forward #
coedge $-1 $202 $144 $208 $220 forward $166 $-1 #
vertex $-1 $179 $221 #
ellipse-curve $-1 -4.3347026132826496 -0.8643460911292411 -6.0000000000000009 0 0 -1 -1.7825178455010235 -3.0874114738059739 0 1 I I #
point $-1 -2.4999028916791604 2.1922843182794898 -6.0000000000000009 #
coedge $-1 $148 $222 $223 $224 forward $88 $-1 #
coedge $-1 $159 $150 $148 $186 reversed $160 $-1 #
edge $-1 $225 $152 $148 $226 forward #
straight-curve $-1 -0.28485597480199698 4.8917131021370794 -6.0000000000000009 0 0 1 I I #
point $-1 -0.28485597480199698 4.8917131021370794 0 #
face $-1 $-1 $196 $3 $-1 $227 forward single #
cone-surface $-1 0 0 -40.745038426371003 0 0 1 4.9000000000000004 0 0 1 I I 0 1 4.9000000000000004 forward I I I I #
coedge $-1 $228 $156 $229 $230 forward $48 $-1 #
coedge $-1 $231 $232 $156 $193 reversed $233 $-1 #
edge $-1 $197 $234 $192 $235 forward #
coedge $-1 $223 $157 $159 $199 forward $196 $-1 #
coedge $-1 $157 $223 $231 $236 reversed $196 $-1 #
loop $-1 $-1 $157 $189 #
vertex $-1 $193 $237 #
ellipse-curve $-1 -2.9158969792210305 3.3217895353889402 -6.0000000000000009 0 0 -1 -3.5650356910020387 0 0 1 I I #
edge $-1 $161 $225 $159 $238 forward #
point $-1 0.28485597480200198 4.8917131021370794 -6.0000000000000009 #
coedge $-1 $239 $164 $240 $241 forward $88 $-1 #
coedge $-1 $173 $180 $164 $203 reversed $166 $-1 #
edge $-1 $177 $242 $202 $243 forward #
face $-1 $244 $245 $3 $-1 $246 forward single #
loop $-1 $-1 $247 $165 #
cone-surface $-1 0 0 -6.2999999999999998 0 0 1 3.3250000000000002 0 0 1 I I 0 1 3.3250000000000002 forward I I I I #
coedge $-1 $240 $168 $170 $212 forward $130 $-1 #
coedge $-1 $168 $240 $180 $220 reversed $130 $-1 #
coedge $-1 $170 $169 $239 $248 reversed $93 $-1 #
coedge $-1 $247 $249 $169 $211 reversed $205 $-1 #
edge $-1 $214 $250 $169 $251 forward #
edge $-1 $215 $252 $170 $253 forward #
coedge $-1 $171 $254 $247 $255 forward $48 $-1 #
vertex $-1 $172 $256 #
vertex $-1 $172 $257 #
ellipse-curve $-1 -1.4188056340616102 4.1861356265181904 -6.0000000000000009 0 0 -1 -1.7825178455010238 -3.0874114738059744 0 1 I I #
straight-curve $-1 -2.4999028916791701 2.1922843182794898 -6.0000000000000009 0 0 1 I I #
point $-1 -2.4999028916791604 2.1922843182794898 0 #
ellipse-curve $-1 0 0 -6.0000000000000009 0 0 -1 -2.4500000000000055 -4.2435244785437467 0 1 I I #
edge $-1 $181 $242 $208 $258 forward #
point $-1 -4.09391982707489 2.6925490616668606 -6.0000000000000009 #
coedge $-1 $184 $259 $260 $261 reversed $88 $-1 #
coedge $-1 $195 $194 $184 $224 reversed $196 $-1 #
edge $-1 $262 $225 $184 $263 forward #
vertex $-1 $224 $264 #
ellipse-curve $-1 0 0 0 0 0 1 4.9000000000000004 0 0 1 I I #
cone-surface $-1 -2.9158969792210305 3.3217895353889402 -40.745038426371003 0 0 1 3.5650356910020391 0 0 1 I I 0 1 3.5650356910020391 forward I I I I #
coedge $-1 $265 $191 $266 $267 forward $48 $-1 #
coedge $-1 $268 $269 $191 $230 reversed $270 $-1 #
edge $-1 $234 $271 $229 $272 forward #
coedge $-1 $260 $192 $195 $236 forward $233 $-1 #
coedge $-1 $192 $260 $268 $273 reversed $233 $-1 #
loop $-1 $-1 $192 $274 #
vertex $-1 $230 $275 #
ellipse-curve $-1 0 0 -6.0000000000000009 0 0 -1 3.3250000000000002 0 0 1 I I #
edge $-1 $197 $262 $231 $276 forward #
point $-1 0.64862246610870011 3.2611215703280805 -6.0000000000000009 #
straight-curve $-1 0.28485597480200198 4.8917131021370794 -6.0000000000000009 0 0 1 I I #
coedge $-1 $277 $201 $209 $248 forward $88 $-1 #
coedge $-1 $208 $207 $201 $241 reversed $130 $-1 #
edge $-1 $242 $252 $240 $278 forward #
vertex $-1 $241 $279 #
ellipse-curve $-1 -4.3347026132826496 -0.8643460911292411 0 0 0 1 1.7825178455010235 3.0874114738059744 0 1 I I #
face $-1 $280 $281 $3 $-1 $282 forward single #
loop $-1 $-1 $283 $204 #
cone-surface $-1 -3.3217895353889402 2.9158969792210399 -40.745038426371003 0 0 1 0 3.5650356910020391 0 1 I I 0 1 3.5650356910020391 forward I I I I #
coedge $-1 $284 $210 $213 $255 reversed $205 $-1 #
edge $-1 $252 $250 $209 $285 forward #
coedge $-1 $210 $284 $277 $286 forward $205 $-1 #
vertex $-1 $211 $287 #
straight-curve $-1 -3.14852535778786 1.0688372520486 -6.0000000000000009 0 0 1 I I #
vertex $-1 $248 $288 #
straight-curve $-1 -4.3787758018768894 2.1991640404702402 -6.0000000000000009 0 0 1 I I #
coedge $-1 $213 $289 $290 $291 forward $48 $-1 #
edge $-1 $292 $214 $247 $293 forward #
point $-1 -3.14852535778786 1.0688372520486 -6.0000000000000009 #
point $-1 -4.3787758018768894 2.1991640404702402 -6.0000000000000009 #
straight-curve $-1 -4.09391982707489 2.6925490616668606 -6.0000000000000009 0 0 1 I I #
coedge $-1 $222 $294 $295 $296 forward $88 $-1 #
coedge $-1 $232 $231 $222 $261 forward $233 $-1 #
edge $-1 $262 $297 $260 $298 forward #
vertex $-1 $236 $299 #
ellipse-curve $-1 -2.9158969792210305 3.3217895353889402 0 0 0 1 3.5650356910020391 0 0 1 I I #
point $-1 0.28485597480200398 4.8917131021370794 0 #
coedge $-1 $300 $228 $301 $302 forward $48 $-1 #
coedge $-1 $303 $304 $228 $267 reversed $305 $-1 #
edge $-1 $271 $306 $266 $307 forward #
coedge $-1 $295 $229 $232 $273 forward $270 $-1 #
coedge $-1 $229 $295 $303 $308 reversed $270 $-1 #
loop $-1 $-1 $229 $309 #
vertex $-1 $230 $310 #
ellipse-curve $-1 4.1861356265181904 1.4188056340616102 -6.0000000000000009 0 0 -1 -3.0874114738059761 1.7825178455010211 0 1 I I #
edge $-1 $234 $297 $268 $311 forward #
face $-1 $55 $233 $3 $-1 $312 forward single #
point $-1 1.0688372520486 3.14852535778786 -6.0000000000000009 #
straight-curve $-1 0.64862246610870011 3.2611215703280805 -6.0000000000000009 0 0 1 I I #
coedge $-1 $313 $239 $249 $286 reversed $88 $-1 #
ellipse-curve $-1 0 0 0 0 0 1 2.4500000000000055 4.2435244785437467 0 1 I I #
point $-1 -4.09391982707489 2.6925490616668606 0 #
face $-1 $314 $315 $3 $-1 $316 forward single #
loop $-1 $-1 $317 $244 #
cone-surface $-1 0 0 -40.745038426371003 0 0 1 0 4.9000000000000004 0 1 I I 0 1 4.9000000000000004 forward I I I I #
coedge $-1 $318 $319 $320 $321 reversed $245 $-1 #
coedge $-1 $249 $247 $322 $323 forward $205 $-1 #
ellipse-curve $-1 -1.4188056340616102 4.1861356265181904 0 0 0 1 1.7825178455010238 3.0874114738059739 0 1 I I #
edge $-1 $324 $250 $249 $325 forward #
point $-1 -3.14852535778786 1.0688372520486 0 #
point $-1 -4.3787758018768894 2.1991640404702402 0 #
coedge $-1 $254 $320 $317 $326 forward $48 $-1 #
coedge $-1 $327 $322 $254 $291 reversed $315 $-1 #
edge $-1 $328 $292 $290 $329 forward #
vertex $-1 $255 $330 #
ellipse-curve $-1 0 0 -6.0000000000000009 0 0 -1 3.3250000000000002 0 0 1 I I #
coedge $-1 $259 $331 $332 $333 forward $88 $-1 #
coedge $-1 $269 $268 $259 $296 reversed $270 $-1 #
edge $-1 $334 $297 $295 $335 forward #
vertex $-1 $273 $336 #
ellipse-curve $-1 0 0 0 0 0 -1 3.3250000000000002 0 0 1 I I #
point $-1 0.64862246610870011 3.2611215703280805 0 #
coedge $-1 $337 $265 $338 $339 forward $48 $-1 #
coedge $-1 $340 $341 $265 $302 reversed $342 $-1 #
edge $-1 $306 $343 $301 $344 forward #
coedge $-1 $332 $266 $269 $308 forward $305 $-1 #
coedge $-1 $266 $332 $340 $345 reversed $305 $-1 #
loop $-1 $-1 $266 $346 #
vertex $-1 $267 $347 #
ellipse-curve $-1 0 0 -6.0000000000000009 0 0 -1 -4.2435244785437485 2.4500000000000024 0 1 I I #
edge $-1 $271 $334 $269 $348 forward #
face $-1 $346 $270 $3 $-1 $349 forward single #
point $-1 2.1991640404702402 4.3787758018769001 -6.0000000000000009 #
straight-curve $-1 1.0688372520486 3.14852535778786 -6.0000000000000009 0 0 1 I I #
cone-surface $-1 0 0 -6.2999999999999998 0 0 1 3.3250000000000002 0 0 1 I I 0 1 3.3250000000000002 forward I I I I #
coedge $-1 $350 $277 $351 $352 forward $88 $-1 #
face $-1 $353 $354 $3 $-1 $355 forward single #
loop $-1 $-1 $290 $280 #
cone-surface $-1 -3.3217895353889402 -2.9158969792210305 -40.745038426371003 0 0 1 0 3.5650356910020391 0 1 I I 0 1 3.5650356910020391 forward I I I I #
coedge $-1 $356 $357 $289 $326 reversed $281 $-1 #
coedge $-1 $358 $283 $359 $360 forward $245 $-1 #
coedge $-1 $283 $358 $356 $361 reversed $245 $-1 #
coedge $-1 $289 $362 $283 $321 forward $48 $-1 #
edge $-1 $363 $364 $283 $365 forward #
coedge $-1 $290 $351 $284 $323 reversed $315 $-1 #
edge $-1 $292 $324 $284 $366 forward #
vertex $-1 $323 $367 #
ellipse-curve $-1 0 0 0 0 0 -1 3.3250000000000002 0 0 1 I I #
edge $-1 $364 $328 $317 $368 forward #
coedge $-1 $351 $290 $357 $369 forward $315 $-1 #
vertex $-1 $326 $370 #
ellipse-curve $-1 -3.3217895353889402 -2.9158969792210305 -6.0000000000000009 0 0 -1 0 -3.5650356910020387 0 1 I I #
point $-1 -3.2611215703280805 0.64862246610870011 -6.0000000000000009 #
coedge $-1 $294 $371 $372 $373 forward $88 $-1 #
coedge $-1 $304 $303 $294 $333 reversed $305 $-1 #
edge $-1 $374 $334 $332 $375 forward #
vertex $-1 $296 $376 #
ellipse-curve $-1 4.1861356265181904 1.4188056340616102 0 0 0 1 3.0874114738059752 -1.7825178455010213 0 1 I I #
point $-1 1.0688372520486 3.14852535778786 0 #
coedge $-1 $377 $300 $378 $379 forward $48 $-1 #
coedge $-1 $380 $381 $300 $339 reversed $382 $-1 #
edge $-1 $343 $383 $338 $384 forward #
coedge $-1 $372 $301 $304 $345 forward $342 $-1 #
coedge $-1 $301 $372 $380 $385 reversed $342 $-1 #
loop $-1 $-1 $301 $386 #
vertex $-1 $339 $387 #
ellipse-curve $-1 -0.86434609112924288 4.3347026132826496 -6.0000000000000009 0 0 -1 -3.0874114738059752 1.7825178455010207 0 1 I I #
edge $-1 $306 $374 $304 $388 forward #
face $-1 $386 $305 $3 $-1 $389 forward single #
point $-1 2.6925490616668606 4.0939198270749007 -6.0000000000000009 #
straight-curve $-1 2.1991640404702402 4.3787758018769001 -6.0000000000000009 0 0 1 I I #
cone-surface $-1 4.1861356265181904 1.4188056340616102 -40.745038426371003 0 0 1 3.0874114738059761 -1.7825178455010213 0 1 I I 0 1 3.5650356910020395 forward I I I I #
coedge $-1 $390 $313 $391 $392 forward $88 $-1 #
coedge $-1 $322 $327 $313 $352 reversed $315 $-1 #
edge $-1 $324 $393 $351 $394 forward #
face $-1 $395 $396 $3 $-1 $397 forward single #
loop $-1 $-1 $398 $314 #
cone-surface $-1 0 0 -6.2999999999999998 0 0 1 3.3250000000000002 0 0 1 I I 0 1 3.3250000000000002 forward I I I I #
coedge $-1 $391 $317 $319 $361 forward $281 $-1 #
coedge $-1 $317 $391 $327 $369 reversed $281 $-1 #
coedge $-1 $319 $318 $390 $399 reversed $245 $-1 #
coedge $-1 $398 $400 $318 $360 reversed $354 $-1 #
edge $-1 $363 $401 $318 $402 forward #
edge $-1 $364 $403 $319 $404 forward #
coedge $-1 $320 $405 $398 $406 forward $48 $-1 #
vertex $-1 $321 $407 #
vertex $-1 $321 $408 #
ellipse-curve $-1 -3.3217895353889402 2.9158969792210399 -6.0000000000000009 0 0 -1 0 -3.5650356910020391 0 1 I I #
straight-curve $-1 -3.2611215703280805 0.64862246610870011 -6.0000000000000009 0 0 1 I I #
point $-1 -3.2611215703280805 0.64862246610870011 0 #
ellipse-curve $-1 0 0 -6.0000000000000009 0 0 -1 0 -4.9000000000000004 0 1 I I #
edge $-1 $328 $393 $357 $409 forward #
point $-1 -4.8917131021370794 0.28485597480200198 -6.0000000000000009 #
coedge $-1 $331 $410 $411 $412 reversed $88 $-1 #
coedge $-1 $341 $340 $331 $373 reversed $342 $-1 #
edge $-1 $413 $374 $372 $414 forward #
vertex $-1 $333 $415 #
ellipse-curve $-1 0 0 0 0 0 1 4.2435244785437485 -2.4500000000000024 0 1 I I #
point $-1 2.1991640404702402 4.3787758018769001 0 #
coedge $-1 $416 $337 $417 $418 forward $48 $-1 #
coedge $-1 $419 $420 $337 $379 reversed $421 $-1 #
edge $-1 $383 $422 $378 $423 forward #
coedge $-1 $411 $338 $341 $385 forward $382 $-1 #
coedge $-1 $338 $411 $419 $424 reversed $382 $-1 #
loop $-1 $-1 $338 $425 #
vertex $-1 $379 $426 #
ellipse-curve $-1 0 0 -6.0000000000000009 0 0 -1 3.3250000000000002 0 0 1 I I #
edge $-1 $343 $413 $380 $427 forward #
face $-1 $274 $342 $3 $-1 $428 forward single #
point $-1 2.1922843182794898 2.4999028916791604 -6.0000000000000009 #
straight-curve $-1 2.6925490616668606 4.0939198270749007 -6.0000000000000009 0 0 1 I I #
cone-surface $-1 0 0 -40.745038426371003 0 0 1 4.2435244785437485 -2.4500000000000024 0 1 I I 0 1 4.9000000000000004 forward I I I I #
coedge $-1 $429 $350 $358 $399 forward $88 $-1 #
coedge $-1 $357 $356 $350 $392 reversed $281 $-1 #
edge $-1 $393 $403 $391 $430 forward #
vertex $-1 $392 $431 #
ellipse-curve $-1 -3.3217895353889402 -2.9158969792210305 0 0 0 1 0 3.5650356910020391 0 1 I I #
face $-1 $432 $433 $3 $-1 $434 forward single #
loop $-1 $-1 $435 $353 #
cone-surface $-1 -4.3347026132826496 0.8643460911292542 -40.745038426371003 0 0 1 -1.7825178455010167 3.0874114738059788 0 1 I I 0 1 3.5650356910020391 forward I I I I #
coedge $-1 $436 $359 $362 $406 reversed $354 $-1 #
edge $-1 $403 $401 $358 $437 forward #
coedge $-1 $359 $436 $429 $438 forward $354 $-1 #
vertex $-1 $360 $439 #
straight-curve $-1 -3.2611215703280805 -0.64862246610869201 -6.0000000000000009 0 0 1 I I #
vertex $-1 $399 $440 #
straight-curve $-1 -4.8917131021370794 -0.28485597480199598 -6.0000000000000009 0 0 1 I I #
coedge $-1 $362 $441 $442 $443 forward $48 $-1 #
edge $-1 $444 $363 $398 $445 forward #
point $-1 -3.2611215703280805 -0.64862246610869301 -6.0000000000000009 #
point $-1 -4.8917131021370794 -0.28485597480199598 -6.0000000000000009 #
straight-curve $-1 -4.8917131021370794 0.28485597480200198 -6.0000000000000009 0 0 1 I I #
coedge $-1 $371 $446 $447 $448 forward $88 $-1 #
coedge $-1 $381 $380 $371 $412 forward $382 $-1 #
edge $-1 $413 $449 $411 $450 forward #
vertex $-1 $385 $451 #
ellipse-curve $-1 -0.86434609112924288 4.3347026132826496 0 0 0 1 3.0874114738059766 -1.7825178455010213 0 1 I I #
point $-1 2.6925490616668606 4.0939198270749007 0 #
coedge $-1 $452 $377 $453 $454 forward $48 $-1 #
coedge $-1 $455 $456 $377 $418 reversed $457 $-1 #
edge $-1 $422 $458 $417 $459 forward #
coedge $-1 $447 $378 $381 $424 forward $421 $-1 #
coedge $-1 $378 $447 $455 $460 reversed $421 $-1 #
loop $-1 $-1 $378 $461 #
vertex $-1 $379 $462 #
ellipse-curve $-1 4.3347026132826496 -0.86434609112925109 -6.0000000000000009 0 0 -1 -1.7825178455010191 3.0874114738059766 0 1 I I #
edge $-1 $383 $449 $419 $463 forward #
face $-1 $309 $382 $3 $-1 $464 forward single #
point $-1 2.4999028916791701 2.19228431827948 -6.0000000000000009 #
straight-curve $-1 2.1922843182794898 2.4999028916791701 -6.0000000000000009 0 0 1 I I #
cone-surface $-1 -0.86434609112924288 4.3347026132826496 -40.745038426371003 0 0 1 3.0874114738059761 -1.7825178455010213 0 1 I I 0 1 3.5650356910020395 forward I I I I #
coedge $-1 $465 $390 $400 $438 reversed $88 $-1 #
ellipse-curve $-1 0 0 0 0 0 1 0 4.9000000000000004 0 1 I I #
point $-1 -4.8917131021370794 0.28485597480200398 0 #
face $-1 $466 $467 $3 $-1 $468 forward single #
loop $-1 $-1 $469 $395 #
cone-surface $-1 0 0 -40.745038426371003 0 0 1 -2.4499999999999957 4.2435244785437529 0 1 I I 0 1 4.9000000000000012 forward I I I I #
coedge $-1 $470 $471 $472 $473 reversed $396 $-1 #
coedge $-1 $400 $398 $474 $475 forward $354 $-1 #
ellipse-curve $-1 -3.3217895353889402 2.9158969792210399 0 0 0 1 0 3.5650356910020391 0 1 I I #
edge $-1 $476 $401 $400 $477 forward #
point $-1 -3.2611215703280805 -0.64862246610869201 0 #
point $-1 -4.8917131021370794 -0.28485597480199598 0 #
coedge $-1 $405 $472 $469 $478 forward $48 $-1 #
coedge $-1 $479 $474 $405 $443 reversed $467 $-1 #
edge $-1 $480 $444 $442 $481 forward #
vertex $-1 $406 $482 #
ellipse-curve $-1 0 0 -6.0000000000000009 0 0 -1 3.3250000000000002 0 0 1 I I #
coedge $-1 $410 $483 $484 $485 forward $88 $-1 #
coedge $-1 $420 $419 $410 $448 reversed $421 $-1 #
edge $-1 $486 $449 $447 $487 forward #
vertex $-1 $424 $488 #
ellipse-curve $-1 0 0 0 0 0 -1 3.3250000000000002 0 0 1 I I #
point $-1 2.1922843182794898 2.4999028916791604 0 #
coedge $-1 $489 $416 $490 $491 forward $48 $-1 #
coedge $-1 $492 $493 $416 $454 reversed $494 $-1 #
edge $-1 $458 $495 $453 $496 forward #
coedge $-1 $484 $417 $420 $460 forward $457 $-1 #
coedge $-1 $417 $484 $492 $497 reversed $457 $-1 #
loop $-1 $-1 $417 $498 #
vertex $-1 $418 $499 #
ellipse-curve $-1 0 0 -6.0000000000000009 0 0 -1 -2.4500000000000002 4.2435244785437503 0 1 I I #
edge $-1 $422 $486 $420 $500 forward #
face $-1 $498 $421 $3 $-1 $501 forward single #
point $-1 4.0939198270749007 2.6925490616668499 -6.0000000000000009 #
straight-curve $-1 2.4999028916791701 2.19228431827948 -6.0000000000000009 0 0 1 I I #
cone-surface $-1 0 0 -6.2999999999999998 0 0 1 3.3250000000000002 0 0 1 I I 0 1 3.3250000000000002 forward I I I I #
coedge $-1 $502 $429 $503 $504 forward $88 $-1 #
face $-1 $505 $506 $3 $-1 $507 forward single #
loop $-1 $-1 $442 $432 #
cone-surface $-1 -1.41880563406162 -4.1861356265181904 -40.745038426371003 0 0 1 -1.7825178455010167 3.0874114738059788 0 1 I I 0 1 3.5650356910020391 forward I I I I #
coedge $-1 $508 $509 $441 $478 reversed $433 $-1 #
coedge $-1 $510 $435 $511 $512 forward $396 $-1 #
coedge $-1 $435 $510 $508 $513 reversed $396 $-1 #
coedge $-1 $441 $514 $435 $473 forward $48 $-1 #
edge $-1 $515 $516 $435 $517 forward #
coedge $-1 $442 $503 $436 $475 reversed $467 $-1 #
edge $-1 $444 $476 $436 $518 forward #
vertex $-1 $475 $519 #
ellipse-curve $-1 0 0 0 0 0 -1 3.3250000000000002 0 0 1 I I #
edge $-1 $516 $480 $469 $520 forward #
coedge $-1 $503 $442 $509 $521 forward $467 $-1 #
vertex $-1 $478 $522 #
ellipse-curve $-1 -1.41880563406162 -4.1861356265181904 -6.0000000000000009 0 0 -1 1.7825178455010167 -3.0874114738059788 0 1 I I #
point $-1 -3.1485253577878702 -1.06883725204859 -6.0000000000000009 #
coedge $-1 $446 $523 $524 $525 forward $88 $-1 #
coedge $-1 $456 $455 $446 $485 reversed $457 $-1 #
edge $-1 $526 $486 $484 $527 forward #
vertex $-1 $448 $528 #
ellipse-curve $-1 4.3347026132826496 -0.86434609112925109 0 0 0 1 1.7825178455010191 -3.0874114738059766 0 1 I I #
point $-1 2.4999028916791701 2.19228431827948 0 #
coedge $-1 $529 $452 $530 $531 forward $48 $-1 #
coedge $-1 $532 $533 $452 $491 reversed $534 $-1 #
edge $-1 $495 $535 $490 $536 forward #
coedge $-1 $524 $453 $456 $497 forward $494 $-1 #
coedge $-1 $453 $524 $532 $537 reversed $494 $-1 #
loop $-1 $-1 $453 $538 #
vertex $-1 $491 $539 #
ellipse-curve $-1 1.41880563406162 4.1861356265181904 -6.0000000000000009 0 0 -1 -1.7825178455010193 3.087411473805977 0 1 I I #
edge $-1 $458 $526 $456 $540 forward #
face $-1 $538 $457 $3 $-1 $541 forward single #
point $-1 4.3787758018769001 2.19916404047023 -6.0000000000000009 #
straight-curve $-1 4.0939198270749007 2.6925490616668499 -6.0000000000000009 0 0 1 I I #
cone-surface $-1 4.3347026132826496 -0.86434609112925109 -40.745038426371003 0 0 1 1.7825178455010193 -3.0874114738059766 0 1 I I 0 1 3.5650356910020391 forward I I I I #
coedge $-1 $542 $465 $543 $544 forward $88 $-1 #
coedge $-1 $474 $479 $465 $504 reversed $467 $-1 #
edge $-1 $476 $545 $503 $546 forward #
face $-1 $547 $548 $3 $-1 $549 forward single #
loop $-1 $-1 $550 $466 #
cone-surface $-1 0 0 -6.2999999999999998 0 0 1 3.3250000000000002 0 0 1 I I 0 1 3.3250000000000002 forward I I I I #
coedge $-1 $543 $469 $471 $513 forward $433 $-1 #
coedge $-1 $469 $543 $479 $521 reversed $433 $-1 #
coedge $-1 $471 $470 $542 $551 reversed $396 $-1 #
coedge $-1 $550 $552 $470 $512 reversed $506 $-1 #
edge $-1 $515 $553 $470 $554 forward #
edge $-1 $516 $555 $471 $556 forward #
coedge $-1 $472 $557 $550 $558 forward $48 $-1 #
vertex $-1 $473 $559 #
vertex $-1 $473 $560 #
ellipse-curve $-1 -4.3347026132826496 0.8643460911292542 -6.0000000000000009 0 0 -1 1.7825178455010162 -3.0874114738059788 0 1 I I #
straight-curve $-1 -3.1485253577878702 -1.06883725204859 -6.0000000000000009 0 0 1 I I #
point $-1 -3.1485253577878702 -1.06883725204859 0 #
ellipse-curve $-1 0 0 -6.0000000000000009 0 0 -1 2.4499999999999957 -4.2435244785437529 0 1 I I #
edge $-1 $480 $545 $509 $561 forward #
point $-1 -4.3787758018769001 -2.19916404047023 -6.0000000000000009 #
coedge $-1 $483 $562 $563 $564 reversed $88 $-1 #
coedge $-1 $493 $492 $483 $525 reversed $494 $-1 #
edge $-1 $565 $526 $524 $566 forward #
vertex $-1 $485 $567 #
ellipse-curve $-1 0 0 0 0 0 1 2.4500000000000002 -4.2435244785437503 0 1 I I #
point $-1 4.0939198270749007 2.6925490616668499 0 #
coedge $-1 $568 $489 $569 $570 forward $48 $-1 #
coedge $-1 $571 $572 $489 $531 reversed $573 $-1 #
edge $-1 $535 $574 $530 $575 forward #
coedge $-1 $563 $490 $493 $537 forward $534 $-1 #
coedge $-1 $490 $563 $571 $576 reversed $534 $-1 #
loop $-1 $-1 $490 $577 #
vertex $-1 $531 $578 #
ellipse-curve $-1 0 0 -6.0000000000000009 0 0 -1 3.3250000000000002 0 0 1 I I #
edge $-1 $495 $565 $532 $579 forward #
face $-1 $425 $494 $3 $-1 $580 forward single #
point $-1 3.1485253577878702 1.06883725204859 -6.0000000000000009 #
straight-curve $-1 4.3787758018769001 2.19916404047023 -6.0000000000000009 0 0 1 I I #
cone-surface $-1 0 0 -40.745038426371003 0 0 1 2.4500000000000002 -4.2435244785437503 0 1 I I 0 1 4.9000000000000004 forward I I I I #
coedge $-1 $581 $502 $510 $551 forward $88 $-1 #
coedge $-1 $509 $508 $502 $544 reversed $433 $-1 #
edge $-1 $545 $555 $543 $582 forward #
vertex $-1 $544 $583 #
ellipse-curve $-1 -1.41880563406162 -4.1861356265181904 0 0 0 1 -1.7825178455010162 3.0874114738059788 0 1 I I #
face $-1 $584 $585 $3 $-1 $586 forward single #
loop $-1 $-1 $587 $505 #
cone-surface $-1 -4.1861356265181904 -1.4188056340616102 -40.745038426371003 0 0 1 -3.0874114738059761 1.7825178455010213 0 1 I I 0 1 3.5650356910020395 forward I I I I #
coedge $-1 $588 $511 $514 $558 reversed $506 $-1 #
edge $-1 $555 $553 $510 $589 forward #
coedge $-1 $511 $588 $581 $590 forward $506 $-1 #
vertex $-1 $512 $591 #
straight-curve $-1 -2.4999028916791701 -2.19228431827948 -6.0000000000000009 0 0 1 I I #
vertex $-1 $551 $592 #
straight-curve $-1 -4.0939198270749007 -2.6925490616668499 -6.0000000000000009 0 0 1 I I #
coedge $-1 $514 $593 $594 $595 forward $48 $-1 #
edge $-1 $596 $515 $550 $597 forward #
point $-1 -2.4999028916791701 -2.19228431827948 -6.0000000000000009 #
point $-1 -4.0939198270749007 -2.6925490616668499 -6.0000000000000009 #
straight-curve $-1 -4.3787758018769001 -2.19916404047023 -6.0000000000000009 0 0 1 I I #
coedge $-1 $523 $598 $599 $600 forward $88 $-1 #
coedge $-1 $533 $532 $523 $564 forward $534 $-1 #
edge $-1 $565 $601 $563 $602 forward #
vertex $-1 $537 $603 #
ellipse-curve $-1 1.41880563406162 4.1861356265181904 0 0 0 1 1.7825178455010191 -3.0874114738059766 0 1 I I #
point $-1 4.3787758018769001 2.19916404047023 0 #
coedge $-1 $604 $529 $605 $606 forward $48 $-1 #
coedge $-1 $607 $608 $529 $570 reversed $609 $-1 #
edge $-1 $574 $610 $569 $611 forward #
coedge $-1 $599 $530 $533 $576 forward $573 $-1 #
coedge $-1 $530 $599 $607 $612 reversed $573 $-1 #
loop $-1 $-1 $530 $613 #
vertex $-1 $531 $614 #
ellipse-curve $-1 3.3217895353889402 -2.9158969792210399 -6.0000000000000009 0 0 -1 0 3.5650356910020391 0 1 I I #
edge $-1 $535 $601 $571 $615 forward #
face $-1 $461 $534 $3 $-1 $616 forward single #
point $-1 3.2611215703280805 0.64862246610869201 -6.0000000000000009 #
straight-curve $-1 3.1485253577878702 1.0688372520486 -6.0000000000000009 0 0 1 I I #
cone-surface $-1 1.41880563406162 4.1861356265181904 -40.745038426371003 0 0 1 1.7825178455010193 -3.0874114738059766 0 1 I I 0 1 3.5650356910020391 forward I I I I #
coedge $-1 $617 $542 $552 $590 reversed $88 $-1 #
ellipse-curve $-1 0 0 0 0 0 1 -2.4499999999999957 4.2435244785437529 0 1 I I #
point $-1 -4.3787758018769001 -2.1991640404702202 0 #
face $-1 $618 $619 $3 $-1 $620 forward single #
loop $-1 $-1 $621 $547 #
cone-surface $-1 0 0 -40.745038426371003 0 0 1 -4.2435244785437485 2.4500000000000024 0 1 I I 0 1 4.9000000000000004 forward I I I I #
coedge $-1 $622 $623 $624 $625 reversed $548 $-1 #
coedge $-1 $552 $550 $626 $627 forward $506 $-1 #
ellipse-curve $-1 -4.3347026132826496 0.8643460911292542 0 0 0 1 -1.7825178455010162 3.0874114738059788 0 1 I I #
edge $-1 $628 $553 $552 $629 forward #
point $-1 -2.4999028916791701 -2.19228431827948 0 #
point $-1 -4.0939198270749007 -2.6925490616668499 0 #
coedge $-1 $557 $624 $621 $630 forward $48 $-1 #
coedge $-1 $631 $626 $557 $595 reversed $619 $-1 #
edge $-1 $632 $596 $594 $633 forward #
vertex $-1 $558 $634 #
ellipse-curve $-1 0 0 -6.0000000000000009 0 0 -1 3.3250000000000002 0 0 1 I I #
coedge $-1 $562 $635 $636 $637 forward $88 $-1 #
coedge $-1 $572 $571 $562 $600 reversed $573 $-1 #
edge $-1 $638 $601 $599 $639 forward #
vertex $-1 $576 $640 #
ellipse-curve $-1 0 0 0 0 0 -1 3.3250000000000002 0 0 1 I I #
point $-1 3.1485253577878702 1.06883725204859 0 #
coedge $-1 $641 $568 $642 $643 forward $48 $-1 #
coedge $-1 $644 $645 $568 $606 reversed $646 $-1 #
edge $-1 $610 $647 $605 $648 forward #
coedge $-1 $636 $569 $572 $612 forward $609 $-1 #
coedge $-1 $569 $636 $644 $649 reversed $609 $-1 #
loop $-1 $-1 $569 $650 #
vertex $-1 $570 $651 #
ellipse-curve $-1 0 0 -6.0000000000000009 0 0 -1 0 4.9000000000000004 0 1 I I #
edge $-1 $574 $638 $572 $652 forward #
face $-1 $650 $573 $3 $-1 $653 forward single #
point $-1 4.8917131021370794 0.28485597480199598 -6.0000000000000009 #
straight-curve $-1 3.2611215703280805 0.64862246610869201 -6.0000000000000009 0 0 1 I I #
cone-surface $-1 0 0 -6.2999999999999998 0 0 1 3.3250000000000002 0 0 1 I I 0 1 3.3250000000000002 forward I I I I #
coedge $-1 $654 $581 $655 $656 forward $88 $-1 #
face $-1 $657 $658 $3 $-1 $659 forward single #
loop $-1 $-1 $594 $584 #
cone-surface $-1 0.86434609112924288 -4.3347026132826496 -40.745038426371003 0 0 1 -3.0874114738059761 1.7825178455010213 0 1 I I 0 1 3.5650356910020395 forward I I I I #
coedge $-1 $660 $661 $593 $630 reversed $585 $-1 #
coedge $-1 $662 $587 $663 $664 forward $548 $-1 #
coedge $-1 $587 $662 $660 $665 reversed $548 $-1 #
coedge $-1 $593 $666 $587 $625 forward $48 $-1 #
edge $-1 $667 $668 $587 $669 forward #
coedge $-1 $594 $655 $588 $627 reversed $619 $-1 #
edge $-1 $596 $628 $588 $670 forward #
vertex $-1 $627 $671 #
ellipse-curve $-1 0 0 0 0 0 -1 3.3250000000000002 0 0 1 I I #
edge $-1 $668 $632 $621 $672 forward #
coedge $-1 $655 $594 $661 $673 forward $619 $-1 #
vertex $-1 $630 $674 #
ellipse-curve $-1 0.86434609112924288 -4.3347026132826496 -6.0000000000000009 0 0 -1 3.0874114738059752 -1.7825178455010207 0 1 I I #
point $-1 -2.1922843182794898 -2.4999028916791701 -6.0000000000000009 #
coedge $-1 $598 $675 $676 $677 forward $88 $-1 #
coedge $-1 $608 $607 $598 $637 reversed $609 $-1 #
edge $-1 $678 $638 $636 $679 forward #
vertex $-1 $600 $680 #
ellipse-curve $-1 3.3217895353889402 -2.9158969792210399 0 0 0 1 0 -3.5650356910020391 0 1 I I #
point $-1 3.2611215703280805 0.64862246610869201 0 #
coedge $-1 $681 $604 $682 $683 forward $48 $-1 #
coedge $-1 $684 $685 $604 $643 reversed $686 $-1 #
edge $-1 $647 $687 $642 $688 forward #
coedge $-1 $676 $605 $608 $649 forward $646 $-1 #
coedge $-1 $605 $676 $684 $689 reversed $646 $-1 #
loop $-1 $-1 $605 $690 #
vertex $-1 $643 $691 #
ellipse-curve $-1 3.3217895353889402 2.9158969792210305 -6.0000000000000009 0 0 -1 0 3.5650356910020387 0 1 I I #
edge $-1 $610 $678 $608 $692 forward #
face $-1 $690 $609 $3 $-1 $693 forward single #
point $-1 4.8917131021370794 -0.28485597480200303 -6.0000000000000009 #
straight-curve $-1 4.8917131021370794 0.28485597480199598 -6.0000000000000009 0 0 1 I I #
cone-surface $-1 3.3217895353889402 -2.9158969792210399 -40.745038426371003 0 0 1 0 -3.5650356910020391 0 1 I I 0 1 3.5650356910020391 forward I I I I #
coedge $-1 $694 $617 $695 $696 forward $88 $-1 #
coedge $-1 $626 $631 $617 $656 reversed $619 $-1 #
edge $-1 $628 $697 $655 $698 forward #
face $-1 $699 $700 $3 $-1 $701 forward single #
loop $-1 $-1 $702 $618 #
cone-surface $-1 0 0 -6.2999999999999998 0 0 1 3.3250000000000002 0 0 1 I I 0 1 3.3250000000000002 forward I I I I #
coedge $-1 $695 $621 $623 $665 forward $585 $-1 #
coedge $-1 $621 $695 $631 $673 reversed $585 $-1 #
coedge $-1 $623 $622 $694 $703 reversed $548 $-1 #
coedge $-1 $702 $704 $622 $664 reversed $658 $-1 #
edge $-1 $667 $705 $622 $706 forward #
edge $-1 $668 $707 $623 $708 forward #
coedge $-1 $624 $709 $702 $710 forward $48 $-1 #
vertex $-1 $625 $711 #
vertex $-1 $625 $712 #
ellipse-curve $-1 -4.1861356265181904 -1.4188056340616102 -6.0000000000000009 0 0 -1 3.0874114738059761 -1.7825178455010211 0 1 I I #
straight-curve $-1 -2.1922843182794898 -2.4999028916791701 -6.0000000000000009 0 0 1 I I #
point $-1 -2.1922843182794898 -2.4999028916791701 0 #
ellipse-curve $-1 0 0 -6.0000000000000009 0 0 -1 4.2435244785437485 -2.4500000000000024 0 1 I I #
edge $-1 $632 $697 $661 $713 forward #
point $-1 -2.6925490616668606 -4.0939198270749007 -6.0000000000000009 #
coedge $-1 $635 $714 $715 $716 reversed $88 $-1 #
coedge $-1 $645 $644 $635 $677 reversed $646 $-1 #
edge $-1 $717 $678 $676 $718 forward #
vertex $-1 $637 $719 #
ellipse-curve $-1 0 0 0 0 0 1 0 -4.9000000000000004 0 1 I I #
point $-1 4.8917131021370794 0.28485597480199598 0 #
coedge $-1 $720 $641 $721 $722 forward $48 $-1 #
coedge $-1 $723 $724 $641 $683 reversed $725 $-1 #
edge $-1 $687 $726 $682 $727 forward #
coedge $-1 $715 $642 $645 $689 forward $686 $-1 #
coedge $-1 $642 $715 $723 $728 reversed $686 $-1 #
loop $-1 $-1 $642 $729 #
vertex $-1 $683 $730 #
ellipse-curve $-1 0 0 -6.0000000000000009 0 0 -1 3.3250000000000002 0 0 1 I I #
edge $-1 $647 $717 $684 $731 forward #
face $-1 $577 $646 $3 $-1 $732 forward single #
point $-1 3.2611215703280805 -0.648622466108701 -6.0000000000000009 #
straight-curve $-1 4.8917131021370794 -0.28485597480200303 -6.0000000000000009 0 0 1 I I #
cone-surface $-1 0 0 -40.745038426371003 0 0 1 0 -4.9000000000000004 0 1 I I 0 1 4.9000000000000004 forward I I I I #
coedge $-1 $733 $654 $662 $703 forward $88 $-1 #
coedge $-1 $661 $660 $654 $696 reversed $585 $-1 #
edge $-1 $697 $707 $695 $734 forward #
vertex $-1 $696 $735 #
ellipse-curve $-1 0.86434609112924288 -4.3347026132826496 0 0 0 1 -3.0874114738059766 1.7825178455010213 0 1 I I #
face $-1 $736 $737 $3 $-1 $738 forward single #
loop $-1 $-1 $739 $657 #
cone-surface $-1 -2.9158969792210399 -3.3217895353889402 -40.745038426371003 0 0 1 -3.5650356910020391 0 0 1 I I 0 1 3.5650356910020391 forward I I I I #
coedge $-1 $740 $663 $666 $710 reversed $658 $-1 #
edge $-1 $707 $705 $662 $741 forward #
coedge $-1 $663 $740 $733 $742 forward $658 $-1 #
vertex $-1 $664 $743 #
straight-curve $-1 -1.0688372520486 -3.14852535778786 -6.0000000000000009 0 0 1 I I #
vertex $-1 $703 $744 #
straight-curve $-1 -2.1991640404702402 -4.3787758018769001 -6.0000000000000009 0 0 1 I I #
coedge $-1 $666 $745 $746 $747 forward $48 $-1 #
edge $-1 $748 $667 $702 $749 forward #
point $-1 -1.0688372520486 -3.14852535778786 -6.0000000000000009 #
point $-1 -2.1991640404702402 -4.3787758018769001 -6.0000000000000009 #
straight-curve $-1 -2.6925490616668606 -4.0939198270749007 -6.0000000000000009 0 0 1 I I #
coedge $-1 $675 $750 $751 $752 forward $88 $-1 #
coedge $-1 $685 $684 $675 $716 forward $686 $-1 #
edge $-1 $717 $753 $715 $754 forward #
vertex $-1 $689 $755 #
ellipse-curve $-1 3.3217895353889402 2.9158969792210305 0 0 0 1 0 -3.5650356910020391 0 1 I I #
point $-1 4.8917131021370794 -0.28485597480200398 0 #
coedge $-1 $756 $681 $757 $758 forward $48 $-1 #
coedge $-1 $759 $760 $681 $722 reversed $761 $-1 #
edge $-1 $726 $762 $721 $763 forward #
coedge $-1 $751 $682 $685 $728 forward $725 $-1 #
coedge $-1 $682 $751 $759 $764 reversed $725 $-1 #
loop $-1 $-1 $682 $765 #
vertex $-1 $683 $766 #
ellipse-curve $-1 1.41880563406162 -4.1861356265181904 -6.0000000000000009 0 0 -1 1.7825178455010191 3.0874114738059766 0 1 I I #
edge $-1 $687 $753 $723 $767 forward #
face $-1 $613 $686 $3 $-1 $768 forward single #
point $-1 3.14852535778786 -1.0688372520486 -6.0000000000000009 #
straight-curve $-1 3.2611215703280805 -0.64862246610870011 -6.0000000000000009 0 0 1 I I #
cone-surface $-1 3.3217895353889402 2.9158969792210305 -40.745038426371003 0 0 1 0 -3.5650356910020391 0 1 I I 0 1 3.5650356910020391 forward I I I I #
coedge $-1 $769 $694 $704 $742 reversed $88 $-1 #
ellipse-curve $-1 0 0 0 0 0 1 -4.2435244785437485 2.4500000000000024 0 1 I I #
point $-1 -2.6925490616668606 -4.0939198270749007 0 #
face $-1 $770 $771 $3 $-1 $772 forward single #
loop $-1 $-1 $773 $699 #
cone-surface $-1 0 0 -40.745038426371003 0 0 1 -4.9000000000000004 0 0 1 I I 0 1 4.9000000000000004 forward I I I I #
coedge $-1 $774 $775 $776 $777 reversed $700 $-1 #
coedge $-1 $704 $702 $778 $779 forward $658 $-1 #
ellipse-curve $-1 -4.1861356265181904 -1.4188056340616102 0 0 0 1 -3.0874114738059752 1.7825178455010213 0 1 I I #
edge $-1 $780 $705 $704 $781 forward #
point $-1 -1.0688372520486 -3.14852535778786 0 #
point $-1 -2.1991640404702402 -4.3787758018769001 0 #
coedge $-1 $709 $776 $773 $782 forward $48 $-1 #
coedge $-1 $783 $778 $709 $747 reversed $771 $-1 #
edge $-1 $784 $748 $746 $785 forward #
vertex $-1 $710 $786 #
ellipse-curve $-1 0 0 -6.0000000000000009 0 0 -1 3.3250000000000002 0 0 1 I I #
coedge $-1 $714 $787 $788 $789 forward $88 $-1 #
coedge $-1 $724 $723 $714 $752 reversed $725 $-1 #
edge $-1 $790 $753 $751 $791 forward #
vertex $-1 $728 $792 #
ellipse-curve $-1 0 0 0 0 0 -1 3.3250000000000002 0 0 1 I I #
point $-1 3.2611215703280805 -0.648622466108701 0 #
coedge $-1 $793 $720 $794 $795 forward $48 $-1 #
coedge $-1 $796 $797 $720 $758 reversed $798 $-1 #
edge $-1 $762 $799 $757 $800 forward #
coedge $-1 $788 $721 $724 $764 forward $761 $-1 #
coedge $-1 $721 $788 $796 $801 reversed $761 $-1 #
loop $-1 $-1 $721 $802 #
vertex $-1 $722 $803 #
ellipse-curve $-1 0 0 -6.0000000000000009 0 0 -1 2.4500000000000002 4.2435244785437503 0 1 I I #
edge $-1 $726 $790 $724 $804 forward #
face $-1 $802 $725 $3 $-1 $805 forward single #
point $-1 4.3787758018769001 -2.19916404047023 -6.0000000000000009 #
straight-curve $-1 3.14852535778786 -1.0688372520486 -6.0000000000000009 0 0 1 I I #
cone-surface $-1 0 0 -6.2999999999999998 0 0 1 3.3250000000000002 0 0 1 I I 0 1 3.3250000000000002 forward I I I I #
coedge $-1 $806 $733 $807 $808 forward $88 $-1 #
face $-1 $809 $810 $3 $-1 $811 forward single #
loop $-1 $-1 $746 $736 #
cone-surface $-1 2.9158969792210305 -3.3217895353889402 -40.745038426371003 0 0 1 -3.5650356910020391 0 0 1 I I 0 1 3.5650356910020391 forward I I I I #
coedge $-1 $812 $813 $745 $782 reversed $737 $-1 #
coedge $-1 $814 $739 $815 $816 forward $700 $-1 #
coedge $-1 $739 $814 $812 $817 reversed $700 $-1 #
coedge $-1 $745 $818 $739 $777 forward $48 $-1 #
edge $-1 $819 $820 $739 $821 forward #
coedge $-1 $746 $807 $740 $779 reversed $771 $-1 #
edge $-1 $748 $780 $740 $822 forward #
vertex $-1 $779 $823 #
ellipse-curve $-1 0 0 0 0 0 -1 3.3250000000000002 0 0 1 I I #
edge $-1 $820 $784 $773 $824 forward #
coedge $-1 $807 $746 $813 $825 forward $771 $-1 #
vertex $-1 $782 $826 #
ellipse-curve $-1 2.9158969792210305 -3.3217895353889402 -6.0000000000000009 0 0 -1 3.5650356910020387 0 0 1 I I #
point $-1 -0.648622466108701 -3.2611215703280805 -6.0000000000000009 #
coedge $-1 $750 $827 $828 $829 forward $88 $-1 #
coedge $-1 $760 $759 $750 $789 reversed $761 $-1 #
edge $-1 $830 $790 $788 $831 forward #
vertex $-1 $752 $832 #
ellipse-curve $-1 1.41880563406162 -4.1861356265181904 0 0 0 1 -1.7825178455010193 -3.087411473805977 0 1 I I #
point $-1 3.14852535778786 -1.0688372520486 0 #
coedge $-1 $833 $756 $834 $835 forward $48 $-1 #
coedge $-1 $836 $837 $756 $795 reversed $838 $-1 #
edge $-1 $799 $839 $794 $840 forward #
coedge $-1 $828 $757 $760 $801 forward $798 $-1 #
coedge $-1 $757 $828 $836 $841 reversed $798 $-1 #
loop $-1 $-1 $757 $842 #
vertex $-1 $795 $843 #
ellipse-curve $-1 4.3347026132826398 0.8643460911292471 -6.0000000000000009 0 0 -1 1.7825178455010191 3.0874114738059766 0 1 I I #
edge $-1 $762 $830 $760 $844 forward #
face $-1 $842 $761 $3 $-1 $845 forward single #
point $-1 4.0939198270749007 -2.6925490616668499 -6.0000000000000009 #
straight-curve $-1 4.3787758018769001 -2.19916404047023 -6.0000000000000009 0 0 1 I I #
cone-surface $-1 1.41880563406162 -4.1861356265181904 -40.745038426371003 0 0 1 -1.7825178455010193 -3.0874114738059766 0 1 I I 0 1 3.5650356910020391 forward I I I I #
coedge $-1 $846 $769 $847 $848 forward $88 $-1 #
coedge $-1 $778 $783 $769 $808 reversed $771 $-1 #
edge $-1 $780 $849 $807 $850 forward #
face $-1 $851 $852 $3 $-1 $853 forward single #
loop $-1 $-1 $854 $770 #
cone-surface $-1 0 0 -6.2999999999999998 0 0 1 3.3250000000000002 0 0 1 I I 0 1 3.3250000000000002 forward I I I I #
coedge $-1 $847 $773 $775 $817 forward $737 $-1 #
coedge $-1 $773 $847 $783 $825 reversed $737 $-1 #
coedge $-1 $775 $774 $846 $855 reversed $700 $-1 #
coedge $-1 $854 $856 $774 $816 reversed $810 $-1 #
edge $-1 $819 $857 $774 $858 forward #
edge $-1 $820 $859 $775 $860 forward #
coedge $-1 $776 $861 $854 $862 forward $48 $-1 #
vertex $-1 $777 $863 #
vertex $-1 $777 $864 #
ellipse-curve $-1 -2.9158969792210399 -3.3217895353889402 -6.0000000000000009 0 0 -1 3.5650356910020391 0 0 1 I I #
straight-curve $-1 -0.64862246610870011 -3.2611215703280805 -6.0000000000000009 0 0 1 I I #
point $-1 -0.648622466108701 -3.2611215703280805 0 #
ellipse-curve $-1 0 0 -6.0000000000000009 0 0 -1 4.9000000000000004 0 0 1 I I #
edge $-1 $784 $849 $813 $865 forward #
point $-1 -0.28485597480200303 -4.8917131021370794 -6.0000000000000009 #
coedge $-1 $787 $866 $867 $868 reversed $88 $-1 #
coedge $-1 $797 $796 $787 $829 reversed $798 $-1 #
edge $-1 $869 $830 $828 $870 forward #
vertex $-1 $789 $871 #
ellipse-curve $-1 0 0 0 0 0 1 -2.4500000000000002 -4.2435244785437503 0 1 I I #
point $-1 4.3787758018769001 -2.19916404047023 0 #
coedge $-1 $861 $793 $872 $873 forward $48 $-1 #
coedge $-1 $874 $875 $793 $835 reversed $852 $-1 #
edge $-1 $839 $876 $834 $877 forward #
coedge $-1 $867 $794 $797 $841 forward $838 $-1 #
coedge $-1 $794 $867 $874 $878 reversed $838 $-1 #
loop $-1 $-1 $794 $879 #
vertex $-1 $835 $880 #
ellipse-curve $-1 0 0 -6.0000000000000009 0 0 -1 3.3250000000000002 0 0 1 I I #
edge $-1 $799 $869 $836 $881 forward #
face $-1 $729 $798 $3 $-1 $882 forward single #
point $-1 2.4999028916791701 -2.19228431827948 -6.0000000000000009 #
straight-curve $-1 4.0939198270749007 -2.6925490616668499 -6.0000000000000009 0 0 1 I I #
cone-surface $-1 0 0 -40.745038426371003 0 0 1 -2.4500000000000002 -4.2435244785437503 0 1 I I 0 1 4.9000000000000004 forward I I I I #
coedge $-1 $883 $806 $814 $855 forward $88 $-1 #
coedge $-1 $813 $812 $806 $848 reversed $737 $-1 #
edge $-1 $849 $859 $847 $884 forward #
vertex $-1 $848 $885 #
ellipse-curve $-1 2.9158969792210305 -3.3217895353889402 0 0 0 1 -3.5650356910020391 0 0 1 I I #
face $-1 $886 $887 $3 $-1 $888 forward single #
loop $-1 $-1 $834 $809 #
cone-surface $-1 -0.86434609112925109 -4.3347026132826496 -40.745038426371003 0 0 1 -3.0874114738059766 -1.7825178455010193 0 1 I I 0 1 3.5650356910020391 forward I I I I #
coedge $-1 $889 $815 $818 $862 reversed $810 $-1 #
edge $-1 $859 $857 $814 $890 forward #
coedge $-1 $815 $889 $883 $891 forward $810 $-1 #
vertex $-1 $816 $892 #
straight-curve $-1 0.64862246610869201 -3.2611215703280805 -6.0000000000000009 0 0 1 I I #
vertex $-1 $855 $893 #
straight-curve $-1 0.28485597480199598 -4.8917131021370794 -6.0000000000000009 0 0 1 I I #
coedge $-1 $818 $833 $894 $895 forward $48 $-1 #
edge $-1 $896 $819 $854 $897 forward #
point $-1 0.64862246610869201 -3.2611215703280805 -6.0000000000000009 #
point $-1 0.28485597480199598 -4.8917131021370794 -6.0000000000000009 #
straight-curve $-1 -0.28485597480200303 -4.8917131021370794 -6.0000000000000009 0 0 1 I I #
coedge $-1 $827 $898 $899 $900 forward $88 $-1 #
coedge $-1 $837 $836 $827 $868 forward $838 $-1 #
edge $-1 $869 $901 $867 $902 forward #
vertex $-1 $841 $903 #
ellipse-curve $-1 4.3347026132826398 0.8643460911292471 0 0 0 1 -1.7825178455010191 -3.0874114738059766 0 1 I I #
point $-1 4.0939198270749007 -2.6925490616668606 0 #
coedge $-1 $904 $905 $833 $873 reversed $887 $-1 #
edge $-1 $876 $906 $872 $907 forward #
coedge $-1 $899 $834 $837 $878 forward $852 $-1 #
coedge $-1 $834 $899 $904 $908 reversed $852 $-1 #
vertex $-1 $835 $909 #
ellipse-curve $-1 -0.86434609112925109 -4.3347026132826496 -6.0000000000000009 0 0 -1 3.0874114738059766 1.7825178455010191 0 1 I I #
edge $-1 $839 $901 $874 $910 forward #
face $-1 $765 $838 $3 $-1 $911 forward single #
point $-1 2.19228431827948 -2.4999028916791701 -6.0000000000000009 #
straight-curve $-1 2.4999028916791701 -2.19228431827948 -6.0000000000000009 0 0 1 I I #
cone-surface $-1 4.3347026132826398 0.8643460911292471 -40.745038426371003 0 0 1 -1.7825178455010193 -3.0874114738059766 0 1 I I 0 1 3.5650356910020391 forward I I I I #
coedge $-1 $912 $846 $856 $891 reversed $88 $-1 #
ellipse-curve $-1 0 0 0 0 0 1 -4.9000000000000004 0 0 1 I I #
point $-1 -0.28485597480200398 -4.8917131021370794 0 #
face $-1 $879 $913 $3 $-1 $914 forward single #
loop $-1 $-1 $872 $851 #
cone-surface $-1 0 0 -40.745038426371003 0 0 1 -4.2435244785437503 -2.4500000000000002 0 1 I I 0 1 4.9000000000000004 forward I I I I #
coedge $-1 $856 $854 $915 $916 forward $810 $-1 #
ellipse-curve $-1 -2.9158969792210399 -3.3217895353889402 0 0 0 1 -3.5650356910020391 0 0 1 I I #
edge $-1 $917 $857 $856 $918 forward #
point $-1 0.64862246610869201 -3.2611215703280805 0 #
point $-1 0.28485597480199598 -4.8917131021370794 0 #
coedge $-1 $919 $915 $861 $895 reversed $913 $-1 #
edge $-1 $906 $896 $894 $920 forward #
vertex $-1 $862 $921 #
ellipse-curve $-1 0 0 -6.0000000000000009 0 0 -1 3.3250000000000002 0 0 1 I I #
coedge $-1 $866 $912 $922 $923 forward $88 $-1 #
coedge $-1 $875 $874 $866 $900 reversed $852 $-1 #
edge $-1 $924 $901 $899 $925 forward #
vertex $-1 $878 $926 #
ellipse-curve $-1 0 0 0 0 0 -1 3.3250000000000002 0 0 1 I I #
point $-1 2.4999028916791701 -2.19228431827948 0 #
coedge $-1 $922 $872 $875 $908 forward $887 $-1 #
coedge $-1 $872 $922 $919 $927 reversed $887 $-1 #
vertex $-1 $873 $928 #
ellipse-curve $-1 0 0 -6.0000000000000009 0 0 -1 4.2435244785437503 2.4500000000000002 0 1 I I #
edge $-1 $876 $924 $875 $929 forward #
point $-1 2.6925490616668499 -4.0939198270749007 -6.0000000000000009 #
straight-curve $-1 2.19228431827948 -2.4999028916791701 -6.0000000000000009 0 0 1 I I #
cone-surface $-1 0 0 -6.2999999999999998 0 0 1 3.3250000000000002 0 0 1 I I 0 1 3.3250000000000002 forward I I I I #
coedge $-1 $898 $883 $930 $931 forward $88 $-1 #
loop $-1 $-1 $894 $886 #
cone-surface $-1 4.1861356265181904 -1.41880563406162 -40.745038426371003 0 0 1 -3.0874114738059766 -1.7825178455010193 0 1 I I 0 1 3.5650356910020391 forward I I I I #
coedge $-1 $894 $930 $889 $916 reversed $913 $-1 #
edge $-1 $896 $917 $889 $932 forward #
vertex $-1 $916 $933 #
ellipse-curve $-1 0 0 0 0 0 -1 3.3250000000000002 0 0 1 I I #
coedge $-1 $930 $894 $905 $927 forward $913 $-1 #
ellipse-curve $-1 4.1861356265181904 -1.41880563406162 -6.0000000000000009 0 0 -1 3.087411473805977 1.7825178455010193 0 1 I I #
point $-1 1.06883725204859 -3.1485253577878702 -6.0000000000000009 #
coedge $-1 $905 $904 $898 $923 reversed $887 $-1 #
edge $-1 $934 $924 $922 $935 forward #
vertex $-1 $900 $936 #
ellipse-curve $-1 -0.86434609112925109 -4.3347026132826496 0 0 0 1 -3.0874114738059766 -1.7825178455010191 0 1 I I #
point $-1 2.19228431827948 -2.4999028916791701 0 #
edge $-1 $906 $934 $905 $937 forward #
point $-1 2.19916404047023 -4.3787758018769001 -6.0000000000000009 #
straight-curve $-1 2.6925490616668499 -4.0939198270749007 -6.0000000000000009 0 0 1 I I #
coedge $-1 $915 $919 $912 $931 reversed $913 $-1 #
edge $-1 $917 $934 $930 $938 forward #
straight-curve $-1 1.0688372520486 -3.1485253577878702 -6.0000000000000009 0 0 1 I I #
point $-1 1.06883725204859 -3.1485253577878702 0 #
vertex $-1 $923 $939 #
ellipse-curve $-1 0 0 0 0 0 1 -4.2435244785437503 -2.4500000000000002 0 1 I I #
point $-1 2.6925490616668499 -4.0939198270749007 0 #
straight-curve $-1 2.19916404047023 -4.3787758018769001 -6.0000000000000009 0 0 1 I I #
ellipse-curve $-1 4.1861356265181904 -1.41880563406162 0 0 0 1 -3.0874114738059766 -1.7825178455010191 0 1 I I #
point $-1 2.19916404047023 -4.3787758018769001 0 #
End-of-ACIS-data 