400 0 1 0           
7 Unknown 11 ACIS 6.0 NT 24 Thu Dec 27 20:38:54 2001 
1 9.9999999999999995e-007 1e-010 
body $-1 $1 $-1 $-1 #
lump $-1 $-1 $2 $0 #
shell $-1 $-1 $-1 $3 $-1 $1 #
face $-1 $4 $5 $2 $-1 $6 reversed single #
face $-1 $7 $8 $2 $-1 $9 reversed single #
loop $-1 $10 $11 $3 #
cone-surface $-1 14.22652256971034 -11.512580135441111 -113.89911690168265 0 0 1 3.1000000000000005 0 0 1 I I 0 1 3.1000000000000005 reversed I I I I #
face $-1 $12 $13 $2 $-1 $14 reversed single #
loop $-1 $15 $16 $4 #
cone-surface $-1 -15.77347743028966 18.487419864558888 -113.89911690168265 0 0 1 3.1000000000000005 0 0 1 I I 0 1 3.1000000000000005 reversed I I I I #
loop $-1 $-1 $17 $3 #
coedge $-1 $11 $11 $18 $19 reversed $5 $-1 #
face $-1 $20 $21 $2 $-1 $22 reversed single #
loop $-1 $23 $24 $7 #
cone-surface $-1 -15.77347743028966 -11.512580135441111 -113.89911690168265 0 0 1 3.1000000000000005 0 0 1 I I 0 1 3.1000000000000005 reversed I I I I #
loop $-1 $-1 $25 $4 #
coedge $-1 $16 $16 $26 $27 reversed $8 $-1 #
coedge $-1 $17 $17 $28 $29 reversed $10 $-1 #
coedge $-1 $18 $18 $11 $19 forward $30 $-1 #
edge $-1 $31 $31 $18 $32 forward #
face $-1 $33 $34 $2 $-1 $35 reversed single #
loop $-1 $36 $37 $12 #
cone-surface $-1 -15.77347743028966 48.487419864558902 -113.89911690168265 0 0 1 3.1000000000000005 0 0 1 I I 0 1 3.1000000000000005 reversed I I I I #
loop $-1 $-1 $38 $7 #
coedge $-1 $24 $24 $39 $40 reversed $13 $-1 #
coedge $-1 $25 $25 $41 $42 reversed $15 $-1 #
coedge $-1 $26 $26 $16 $27 forward $43 $-1 #
edge $-1 $44 $44 $26 $45 forward #
coedge $-1 $28 $28 $17 $29 forward $46 $-1 #
edge $-1 $47 $47 $28 $48 forward #
loop $-1 $43 $18 $49 #
vertex $-1 $19 $50 #
ellipse-curve $-1 14.22652256971034 -11.512580135441111 0 0 0 1 3.1000000000000005 0 0 1 I I #
face $-1 $51 $52 $2 $-1 $53 forward single #
loop $-1 $54 $55 $20 #
cone-surface $-1 44.22652256971034 -11.512580135441111 -113.89911690168265 0 0 1 3.1000000000000005 0 0 1 I I 0 1 3.1000000000000005 reversed I I I I #
loop $-1 $-1 $56 $12 #
coedge $-1 $37 $37 $57 $58 reversed $21 $-1 #
coedge $-1 $38 $38 $59 $60 reversed $23 $-1 #
coedge $-1 $39 $39 $24 $40 forward $61 $-1 #
edge $-1 $62 $62 $39 $63 forward #
coedge $-1 $41 $41 $25 $42 forward $64 $-1 #
edge $-1 $65 $65 $41 $66 forward #
loop $-1 $61 $26 $49 #
vertex $-1 $27 $67 #
ellipse-curve $-1 -15.77347743028966 18.487419864558888 0 0 0 1 3.1000000000000005 0 0 1 I I #
loop $-1 $64 $28 $68 #
vertex $-1 $29 $69 #
ellipse-curve $-1 14.22652256971034 -11.512580135441111 5 0 0 -1 3.1000000000000005 0 0 1 I I #
face $-1 $68 $30 $2 $-1 $70 reversed single #
point $-1 11.126522569710339 -11.512580135441111 0 #
face $-1 $71 $72 $2 $-1 $73 forward single #
loop $-1 $-1 $74 $33 #
plane-surface $-1 -27.77347743028966 -23.512580135441112 0 -1 0 0 0 0 10 forward_v I I I I #
loop $-1 $-1 $75 $20 #
coedge $-1 $55 $55 $76 $77 reversed $34 $-1 #
coedge $-1 $56 $56 $78 $79 reversed $36 $-1 #
coedge $-1 $57 $57 $37 $58 forward $80 $-1 #
edge $-1 $81 $81 $57 $82 forward #
coedge $-1 $59 $59 $38 $60 forward $83 $-1 #
edge $-1 $84 $84 $59 $85 forward #
loop $-1 $80 $39 $49 #
vertex $-1 $40 $86 #
ellipse-curve $-1 -15.77347743028966 -11.512580135441111 0 0 0 1 3.1000000000000005 0 0 1 I I #
loop $-1 $83 $41 $68 #
vertex $-1 $42 $87 #
ellipse-curve $-1 -15.77347743028966 18.487419864558888 5 0 0 -1 3.1000000000000005 0 0 1 I I #
point $-1 -18.873477430289661 18.487419864558888 0 #
face $-1 $-1 $46 $2 $-1 $88 forward single #
point $-1 17.326522569710342 -11.512580135441111 5 #
plane-surface $-1 6.8416282506104036 11.10252554545897 0 0 0 1 10 0 0 forward_v I I I I #
face $-1 $89 $90 $2 $-1 $91 forward single #
loop $-1 $-1 $92 $51 #
plane-surface $-1 -27.77347743028966 60.487419864558888 0 0 1 0 0 0 10 forward_v I I I I #
coedge $-1 $93 $94 $95 $96 forward $52 $-1 #
coedge $-1 $75 $75 $97 $98 reversed $54 $-1 #
coedge $-1 $76 $76 $55 $77 forward $99 $-1 #
edge $-1 $100 $100 $76 $101 forward #
coedge $-1 $78 $78 $56 $79 forward $102 $-1 #
edge $-1 $103 $103 $78 $104 forward #
loop $-1 $99 $57 $49 #
vertex $-1 $58 $105 #
ellipse-curve $-1 -15.77347743028966 48.487419864558902 0 0 0 1 3.1000000000000005 0 0 1 I I #
loop $-1 $102 $59 $68 #
vertex $-1 $60 $106 #
ellipse-curve $-1 -15.77347743028966 -11.512580135441111 5 0 0 -1 3.1000000000000005 0 0 1 I I #
point $-1 -18.873477430289661 -11.512580135441111 0 #
point $-1 -12.673477430289658 18.487419864558888 5 #
plane-surface $-1 6.8416282506104045 11.102525545458972 5 0 0 1 10 0 0 forward_v I I I I #
face $-1 $107 $108 $2 $-1 $109 forward single #
loop $-1 $-1 $110 $71 #
plane-surface $-1 -3.7734774302896614 60.487419864558888 0 0.70710678118654779 0.70710678118654735 0 0 0 -10 forward_v I I I I #
coedge $-1 $111 $112 $113 $114 forward $72 $-1 #
coedge $-1 $115 $74 $112 $116 reversed $52 $-1 #
coedge $-1 $74 $115 $117 $118 forward $52 $-1 #
coedge $-1 $119 $113 $74 $96 reversed $120 $-1 #
edge $-1 $121 $122 $74 $123 forward #
coedge $-1 $97 $97 $75 $98 forward $124 $-1 #
edge $-1 $125 $125 $97 $126 forward #
loop $-1 $127 $76 $49 #
vertex $-1 $77 $128 #
ellipse-curve $-1 44.22652256971034 -11.512580135441111 0 0 0 1 3.1000000000000005 0 0 1 I I #
loop $-1 $124 $78 $68 #
vertex $-1 $79 $129 #
ellipse-curve $-1 -15.77347743028966 48.487419864558902 5 0 0 -1 3.1000000000000005 0 0 1 I I #
point $-1 -18.873477430289661 48.487419864558902 0 #
point $-1 -12.673477430289658 -11.512580135441111 5 #
face $-1 $49 $130 $2 $-1 $131 forward single #
loop $-1 $-1 $132 $89 #
plane-surface $-1 56.226522569710305 0.48741986455889119 0 1 0 0 0 0 -10 forward_v I I I I #
coedge $-1 $133 $134 $135 $136 forward $90 $-1 #
coedge $-1 $137 $92 $134 $138 reversed $72 $-1 #
coedge $-1 $92 $137 $93 $116 forward $72 $-1 #
coedge $-1 $95 $135 $92 $114 reversed $120 $-1 #
edge $-1 $122 $139 $92 $140 forward #
coedge $-1 $94 $93 $141 $142 forward $52 $-1 #
edge $-1 $143 $122 $112 $144 forward #
coedge $-1 $145 $146 $94 $118 reversed $130 $-1 #
edge $-1 $147 $121 $94 $148 forward #
coedge $-1 $149 $95 $146 $150 reversed $120 $-1 #
loop $-1 $-1 $95 $68 #
vertex $-1 $118 $151 #
vertex $-1 $116 $152 #
straight-curve $-1 -27.77347743028966 60.487419864558888 5 0 10 0 F -8.4000000000000004 F 0 #
loop $-1 $120 $97 $68 #
vertex $-1 $98 $153 #
ellipse-curve $-1 44.22652256971034 -11.512580135441111 5 0 0 -1 3.1000000000000005 0 0 1 I I #
loop $-1 $-1 $154 $49 #
point $-1 41.126522569710332 -11.512580135441111 0 #
point $-1 -12.673477430289658 48.487419864558902 5 #
loop $-1 $-1 $146 $107 #
plane-surface $-1 56.226522569710305 -23.512580135441112 0 0 -1 0 0 0 -10 forward_v I I I I #
coedge $-1 $155 $156 $149 $157 forward $108 $-1 #
coedge $-1 $158 $110 $156 $159 reversed $90 $-1 #
coedge $-1 $110 $158 $111 $138 forward $90 $-1 #
coedge $-1 $113 $149 $110 $136 reversed $120 $-1 #
edge $-1 $139 $160 $110 $161 forward #
coedge $-1 $112 $111 $162 $163 forward $72 $-1 #
edge $-1 $164 $139 $134 $165 forward #
vertex $-1 $138 $166 #
straight-curve $-1 -3.7734774302896623 60.487419864558888 5 10 0 0 F -2.3999999999999999 F 0 #
coedge $-1 $162 $154 $115 $142 reversed $127 $-1 #
edge $-1 $143 $147 $115 $167 forward #
vertex $-1 $163 $168 #
straight-curve $-1 -27.77347743028966 60.487419864558888 0 0 0 10 I I #
coedge $-1 $169 $117 $154 $170 forward $130 $-1 #
coedge $-1 $117 $169 $119 $150 forward $130 $-1 #
vertex $-1 $170 $171 #
straight-curve $-1 -27.77347743028966 -23.512580135441112 0 0 0 10 I I #
coedge $-1 $135 $119 $132 $157 reversed $120 $-1 #
edge $-1 $172 $121 $146 $173 forward #
point $-1 -27.77347743028966 -23.512580135441112 5 #
point $-1 -27.77347743028966 60.487419864558888 5 #
point $-1 47.326522569710349 -11.512580135441111 5 #
coedge $-1 $141 $174 $145 $170 reversed $127 $-1 #
coedge $-1 $175 $132 $169 $176 reversed $108 $-1 #
coedge $-1 $132 $175 $133 $159 forward $108 $-1 #
edge $-1 $160 $172 $132 $177 forward #
coedge $-1 $134 $133 $178 $179 forward $90 $-1 #
edge $-1 $180 $160 $156 $181 forward #
vertex $-1 $159 $182 #
straight-curve $-1 56.226522569710305 0.48741986455889119 5 7.0710678118654737 -7.0710678118654782 0 F -8.4852813742385678 F 0 #
coedge $-1 $178 $141 $137 $163 reversed $127 $-1 #
edge $-1 $164 $143 $137 $183 forward #
vertex $-1 $179 $184 #
straight-curve $-1 -3.7734774302896614 60.487419864558888 0 0 0 10 I I #
point $-1 -3.7734774302896614 60.487419864558888 5 #
straight-curve $-1 -27.77347743028966 60.487419864558888 0 0 -10 0 F 0 F 8.4000000000000004 #
point $-1 -27.77347743028966 60.487419864558888 0 #
coedge $-1 $146 $145 $155 $176 forward $130 $-1 #
edge $-1 $147 $185 $145 $186 forward #
point $-1 -27.77347743028966 -23.512580135441112 0 #
vertex $-1 $176 $187 #
straight-curve $-1 -27.77347743028966 -23.512580135441112 5 -10 0 0 F -8.3999999999999968 F 0 #
coedge $-1 $154 $178 $175 $188 reversed $127 $-1 #
coedge $-1 $156 $155 $174 $188 forward $108 $-1 #
edge $-1 $185 $172 $169 $189 forward #
straight-curve $-1 56.226522569710305 -23.512580135441112 5 0 -10 0 F -2.4000000000000004 F 0 #
coedge $-1 $174 $162 $158 $179 reversed $127 $-1 #
edge $-1 $180 $164 $158 $190 forward #
vertex $-1 $188 $191 #
straight-curve $-1 56.226522569710305 0.48741986455889119 0 0 0 10 I I #
point $-1 56.226522569710305 0.48741986455889119 5 #
straight-curve $-1 -3.7734774302896623 60.487419864558888 0 -10 0 0 F 0 F 2.3999999999999999 #
point $-1 -3.7734774302896614 60.487419864558888 0 #
vertex $-1 $170 $192 #
straight-curve $-1 -27.77347743028966 -23.512580135441112 0 10 0 0 F 0 F 8.3999999999999968 #
point $-1 56.226522569710305 -23.512580135441112 5 #
edge $-1 $185 $180 $175 $193 forward #
straight-curve $-1 56.226522569710305 -23.512580135441112 0 0 0 10 I I #
straight-curve $-1 56.226522569710305 0.48741986455889119 0 -7.0710678118654737 7.0710678118654782 0 F 0 F 8.4852813742385678 #
point $-1 56.226522569710305 0.48741986455889119 0 #
point $-1 56.226522569710305 -23.512580135441112 0 #
straight-curve $-1 56.226522569710305 -23.512580135441112 0 0 10 0 F 0 F 2.4000000000000004 #
End-of-ACIS-data 