700 0 1 0           
29 Autodesk Inventor 6.2.0.12000 17 ASM 6.0.1.6021 NT 24 Mon Jan 21 07:29:11 2008 
25.399999999999999 9.9999999999999995e-007 1e-010 
body $-1 -1 $-1 $1 $-1 $-1 #
lump $-1 -1 $-1 $-1 $2 $0 #
shell $-1 -1 $-1 $-1 $-1 $3 $-1 $1 #
face $-1 -1 $-1 $4 $5 $2 $-1 $6 forward single #
face $-1 -1 $-1 $7 $8 $2 $-1 $9 forward single #
loop $-1 -1 $-1 $10 $11 $3 #
cone-surface $-1 -1 $-1 0 0 -0.49999999999999994 0 0 1 0.68249999999999988 0 0 1 I I 0 1 0.68249999999999988 forward I I I I #
face $-1 -1 $-1 $12 $13 $2 $-1 $14 reversed single #
loop $-1 -1 $-1 $15 $16 $4 #
plane-surface $-1 -1 $-1 0 0 -0.43799999999999994 0 0 1 0.39370078740157477 0 0 forward_v I I I I #
loop $-1 -1 $-1 $-1 $17 $3 #
coedge $-1 -1 $-1 $11 $11 $18 $19 forward $5 $-1 #
face $-1 -1 $-1 $20 $21 $2 $-1 $22 forward single #
loop $-1 -1 $-1 $23 $24 $7 #
cone-surface $-1 -1 $-1 0 0 0 0 0 1 -0.49999999999999994 0 0 1 I I 0 1 0.49999999999999994 forward I I I I #
loop $-1 -1 $-1 $-1 $18 $4 #
coedge $-1 -1 $-1 $16 $16 $25 $26 reversed $8 $-1 #
coedge $-1 -1 $-1 $17 $17 $27 $28 forward $10 $-1 #
coedge $-1 -1 $-1 $18 $18 $11 $19 reversed $15 $-1 #
edge $-1 -1 $-1 $29 -3.1415926535897931 $29 3.1415926535897931 $11 $30 forward @7 unknown #
face $-1 -1 $-1 $31 $32 $2 $-1 $33 forward single #
loop $-1 -1 $-1 $34 $27 $12 #
plane-surface $-1 -1 $-1 0 0 -0.49999999999999994 0 0 -1 -0.39370078740157477 0 0 forward_v I I I I #
loop $-1 -1 $-1 $-1 $35 $7 #
coedge $-1 -1 $-1 $24 $24 $36 $37 reversed $13 $-1 #
coedge $-1 -1 $-1 $25 $25 $16 $26 forward $32 $-1 #
edge $-1 -1 $-1 $38 -1.224606353822377e-016 $38 6.2831853071795862 $25 $39 forward @7 unknown #
coedge $-1 -1 $-1 $27 $27 $17 $28 reversed $21 $-1 #
edge $-1 -1 $-1 $40 -3.1415926535897931 $40 3.1415926535897931 $17 $41 forward @7 unknown #
vertex $-1 -1 $-1 $19 $42 #
ellipse-curve $-1 -1 $-1 0 0 -0.43799999999999994 0 0 -1 0.68249999999999988 0 0 1 I I #
face $-1 -1 $-1 $-1 $43 $2 $-1 $44 reversed single #
loop $-1 -1 $-1 $45 $25 $20 #
cone-surface $-1 -1 $-1 0 0 0 0 0 1 -0.56249999999999989 0 0 1 I I 0 1 0.56249999999999989 forward I I I I #
loop $-1 -1 $-1 $-1 $36 $12 #
coedge $-1 -1 $-1 $35 $35 $46 $47 reversed $23 $-1 #
coedge $-1 -1 $-1 $36 $36 $24 $37 forward $34 $-1 #
edge $-1 -1 $-1 $48 -3.1415926535897931 $48 3.1415926535897931 $36 $49 forward @7 unknown #
vertex $-1 -1 $-1 $26 $50 #
ellipse-curve $-1 -1 $-1 0 0 -0.43799999999999994 0 0 1 -0.56249999999999989 0 0 1 I I #
vertex $-1 -1 $-1 $28 $51 #
ellipse-curve $-1 -1 $-1 0 0 -0.49999999999999994 0 0 1 0.68249999999999988 0 0 1 I I #
point $-1 -1 $-1 -0.68249999999999988 8.3579383648377244e-017 -0.43799999999999994 #
loop $-1 -1 $-1 $52 $46 $31 #
plane-surface $-1 -1 $-1 0 0 0.49999999999999994 0 0 -1 -0.39370078740157477 0 0 forward_v I I I I #
loop $-1 -1 $-1 $-1 $53 $20 #
coedge $-1 -1 $-1 $46 $46 $35 $47 forward $43 $-1 #
edge $-1 -1 $-1 $54 -3.1415926535897931 $54 3.1415926535897931 $46 $55 forward @7 unknown #
vertex $-1 -1 $-1 $37 $56 #
ellipse-curve $-1 -1 $-1 0 0 -0.49999999999999994 0 0 1 -0.49999999999999994 0 0 1 I I #
point $-1 -1 $-1 -0.56249999999999989 6.8884107402508708e-017 -0.43799999999999994 #
point $-1 -1 $-1 -0.68249999999999988 8.3579383648377244e-017 -0.49999999999999994 #
loop $-1 -1 $-1 $-1 $57 $31 #
coedge $-1 -1 $-1 $53 $53 $57 $58 forward $45 $-1 #
vertex $-1 -1 $-1 $47 $59 #
ellipse-curve $-1 -1 $-1 0 0 0.49999999999999994 0 0 -1 -0.49999999999999994 0 0 1 I I #
point $-1 -1 $-1 0.49999999999999994 6.1230317691118851e-017 -0.49999999999999994 #
coedge $-1 -1 $-1 $57 $57 $53 $58 reversed $52 $-1 #
edge $-1 -1 $-1 $60 -3.1415926535897931 $60 3.1415926535897931 $53 $61 forward @7 unknown #
point $-1 -1 $-1 0.49999999999999994 6.1230317691118851e-017 0.49999999999999994 #
vertex $-1 -1 $-1 $58 $62 #
ellipse-curve $-1 -1 $-1 0 0 0.49999999999999994 0 0 -1 -0.56249999999999989 0 0 1 I I #
point $-1 -1 $-1 0.56249999999999989 6.8884107402508708e-017 0.49999999999999994 #
End-of-ACIS-data 