700 0 1 0           
29 Autodesk Inventor 6.2.0.12000 17 ASM 6.0.1.6021 NT 24 Sat Dec 20 16:35:00 2008 
25.399999999999999 9.9999999999999995e-007 1e-010 
body $-1 -1 $-1 $1 $-1 $-1 #
lump $-1 -1 $-1 $-1 $2 $0 #
shell $-1 -1 $-1 $-1 $-1 $3 $-1 $1 #
face $-1 -1 $-1 $4 $5 $2 $-1 $6 forward single #
face $-1 -1 $-1 $7 $8 $2 $-1 $9 forward single #
loop $-1 -1 $-1 $10 $11 $3 #
cone-surface $-1 -1 $-1 0 0 -0.4975 0 0 -1 0.11099999999999997 0 0 1 I I -0.70710678118654913 -0.70710678118654602 0.11099999999999997 forward I I I I #
face $-1 -1 $-1 $12 $13 $2 $-1 $14 reversed single #
loop $-1 -1 $-1 $15 $16 $4 #
plane-surface $-1 -1 $-1 0 0 -0.49999999999999994 0 0 -1 -0.39370078740157477 0 0 forward_v I I I I #
loop $-1 -1 $-1 $-1 $17 $3 #
coedge $-1 -1 $-1 $11 $11 $18 $19 forward $5 $-1 #
face $-1 -1 $-1 $20 $21 $2 $-1 $22 forward single #
loop $-1 -1 $-1 $23 $24 $7 #
cone-surface $-1 -1 $-1 0 0 -0.4365 0 0 -1 -0.10849999999999999 0 0 1 I I 0 1 0.10849999999999999 reversed I I I I #
loop $-1 -1 $-1 $-1 $25 $4 #
coedge $-1 -1 $-1 $16 $16 $26 $27 reversed $8 $-1 #
coedge $-1 -1 $-1 $17 $17 $25 $28 forward $10 $-1 #
coedge $-1 -1 $-1 $18 $18 $11 $19 reversed $23 $-1 #
edge $-1 -1 $-1 $29 -3.1415926535897931 $29 3.1415926535897931 $18 $30 forward @7 unknown #
face $-1 -1 $-1 $31 $32 $2 $-1 $33 forward single #
loop $-1 -1 $-1 $34 $26 $12 #
cone-surface $-1 -1 $-1 0 0 -0.4975 0 0 1 0.18499999999999997 0 0 1 I I 0.70710678118654913 0.70710678118654602 0.18499999999999997 forward I I I I #
loop $-1 -1 $-1 $-1 $18 $7 #
coedge $-1 -1 $-1 $24 $24 $35 $36 reversed $13 $-1 #
coedge $-1 -1 $-1 $25 $25 $17 $28 reversed $15 $-1 #
coedge $-1 -1 $-1 $26 $26 $16 $27 forward $21 $-1 #
edge $-1 -1 $-1 $37 -3.1415926535897931 $37 3.1415926535897931 $16 $38 forward @7 unknown #
edge $-1 -1 $-1 $39 -3.1415926535897931 $39 3.1415926535897931 $25 $40 forward @7 unknown #
vertex $-1 -1 $-1 $19 $41 #
ellipse-curve $-1 -1 $-1 0 0 -0.495 0 0 1 0.10849999999999999 0 0 1 I I #
face $-1 -1 $-1 $42 $43 $2 $-1 $44 forward single #
loop $-1 -1 $-1 $45 $46 $20 #
cone-surface $-1 -1 $-1 0 0 -0.49999999999999994 0 0 1 0.1875 0 0 1 I I 0 1 0.1875 forward I I I I #
loop $-1 -1 $-1 $-1 $47 $12 #
coedge $-1 -1 $-1 $35 $35 $24 $36 forward $48 $-1 #
edge $-1 -1 $-1 $49 0 $49 6.2831853071795862 $35 $50 forward @7 unknown #
vertex $-1 -1 $-1 $27 $51 #
ellipse-curve $-1 -1 $-1 0 0 -0.49999999999999994 0 0 1 0.1825 0 0 1 I I #
vertex $-1 -1 $-1 $28 $52 #
ellipse-curve $-1 -1 $-1 0 0 -0.49999999999999994 0 0 -1 0.11349999999999999 0 0 1 I I #
point $-1 -1 $-1 -0.10849999999999999 -1.3286978938972793e-017 -0.495 #
face $-1 -1 $-1 $53 $54 $2 $-1 $55 forward single #
loop $-1 -1 $-1 $56 $57 $31 #
cone-surface $-1 -1 $-1 0 0 -0.28250000000000003 0 0 -1 0.18499999999999997 0 0 1 I I 0.70710678118654591 0.70710678118654902 0.18499999999999997 forward I I I I #
loop $-1 -1 $-1 $-1 $58 $20 #
coedge $-1 -1 $-1 $46 $46 $59 $60 reversed $32 $-1 #
coedge $-1 -1 $-1 $47 $47 $58 $61 forward $34 $-1 #
loop $-1 -1 $-1 $62 $35 $63 #
vertex $-1 -1 $-1 $36 $64 #
ellipse-curve $-1 -1 $-1 0 0 -0.37299999999999994 0 0 -1 -0.10849999999999999 0 0 1 I I #
point $-1 -1 $-1 -0.1825 -2.2349065957258384e-017 -0.49999999999999994 #
point $-1 -1 $-1 -0.11349999999999999 1.3899282115883982e-017 -0.49999999999999994 #
face $-1 -1 $-1 $65 $66 $2 $-1 $67 forward single #
loop $-1 -1 $-1 $68 $69 $42 #
plane-surface $-1 -1 $-1 0 0 -0.27999999999999997 0 0 1 0.39370078740157477 0 0 forward_v I I I I #
loop $-1 -1 $-1 $-1 $59 $31 #
coedge $-1 -1 $-1 $57 $57 $70 $71 forward $43 $-1 #
coedge $-1 -1 $-1 $58 $58 $47 $61 reversed $45 $-1 #
coedge $-1 -1 $-1 $59 $59 $46 $60 forward $56 $-1 #
edge $-1 -1 $-1 $72 -3.1415926535897931 $72 3.1415926535897931 $46 $73 forward @7 unknown #
edge $-1 -1 $-1 $74 -3.1415926535897931 $74 3.1415926535897931 $58 $75 forward @7 unknown #
loop $-1 -1 $-1 $-1 $76 $63 #
face $-1 -1 $-1 $-1 $48 $2 $-1 $77 reversed single #
point $-1 -1 $-1 -0.10849999999999999 0 -0.37299999999999994 #
face $-1 -1 $-1 $78 $79 $2 $-1 $80 reversed single #
loop $-1 -1 $-1 $81 $82 $53 #
cone-surface $-1 -1 $-1 0 0 0.4975 0 0 1 -0.057499999999999989 0 0 1 I I -0.70710678118654913 -0.70710678118654602 0.057499999999999989 forward I I I I #
loop $-1 -1 $-1 $-1 $70 $42 #
coedge $-1 -1 $-1 $69 $69 $83 $84 reversed $54 $-1 #
coedge $-1 -1 $-1 $70 $70 $57 $71 reversed $68 $-1 #
edge $-1 -1 $-1 $85 -3.1415926535897931 $85 3.1415926535897931 $70 $86 forward @7 unknown #
vertex $-1 -1 $-1 $60 $87 #
ellipse-curve $-1 -1 $-1 0 0 -0.28500000000000003 0 0 1 0.1875 0 0 1 I I #
vertex $-1 -1 $-1 $61 $88 #
ellipse-curve $-1 -1 $-1 0 0 -0.495 0 0 -1 0.1875 0 0 1 I I #
coedge $-1 -1 $-1 $76 $76 $89 $90 reversed $62 $-1 #
plane-surface $-1 -1 $-1 0 0 -0.37299999999999994 0 0 1 -0.39370078740157477 0 0 reverse_v I I I I #
face $-1 -1 $-1 $91 $92 $2 $-1 $93 reversed single #
loop $-1 -1 $-1 $94 $95 $65 #
plane-surface $-1 -1 $-1 0 0 0.49999999999999994 0 0 -1 -0.39370078740157477 0 0 forward_v I I I I #
loop $-1 -1 $-1 $-1 $96 $53 #
coedge $-1 -1 $-1 $82 $82 $97 $98 forward $66 $-1 #
coedge $-1 -1 $-1 $83 $83 $69 $84 forward $99 $-1 #
edge $-1 -1 $-1 $100 -1.2246063538223773e-016 $100 6.2831853071795862 $83 $101 forward @7 unknown #
vertex $-1 -1 $-1 $71 $102 #
ellipse-curve $-1 -1 $-1 0 0 -0.27999999999999997 0 0 -1 0.1825 0 0 1 I I #
point $-1 -1 $-1 -0.1875 -2.2961369134169574e-017 -0.28500000000000003 #
point $-1 -1 $-1 -0.1875 2.2961369134169574e-017 -0.495 #
coedge $-1 -1 $-1 $89 $89 $76 $90 forward $92 $-1 #
edge $-1 -1 $-1 $103 -3.1415926535897931 $103 3.1415926535897931 $89 $104 forward @7 unknown #
face $-1 -1 $-1 $105 $106 $2 $-1 $107 forward single #
loop $-1 -1 $-1 $108 $89 $78 #
cone-surface $-1 -1 $-1 0 0 0.63192314226717705 0 0 -1 -0.054999999999999993 0 0 1 I I 0 1 0.054999999999999993 reversed I I I I #
loop $-1 -1 $-1 $-1 $109 $65 #
coedge $-1 -1 $-1 $95 $95 $110 $111 reversed $79 $-1 #
coedge $-1 -1 $-1 $96 $96 $109 $112 forward $81 $-1 #
coedge $-1 -1 $-1 $97 $97 $82 $98 reversed $108 $-1 #
edge $-1 -1 $-1 $113 -3.1415926535897931 $113 3.1415926535897931 $97 $114 forward @7 unknown #
loop $-1 -1 $-1 $115 $83 $105 #
vertex $-1 -1 $-1 $84 $116 #
ellipse-curve $-1 -1 $-1 0 0 -0.27999999999999997 0 0 1 -0.12499999999999999 0 0 1 I I #
point $-1 -1 $-1 -0.1825 2.2349065957258384e-017 -0.27999999999999997 #
vertex $-1 -1 $-1 $90 $117 #
ellipse-curve $-1 -1 $-1 0 0 -0.37300000000000005 0 0 -1 -0.054999999999999993 0 0 1 I I #
face $-1 -1 $-1 $63 $99 $2 $-1 $118 forward single #
loop $-1 -1 $-1 $119 $110 $91 #
cone-surface $-1 -1 $-1 0 0 0.4975 0 0 -1 -0.1225 0 0 1 I I 0.70710678118654913 0.70710678118654602 0.1225 forward I I I I #
loop $-1 -1 $-1 $-1 $97 $78 #
coedge $-1 -1 $-1 $109 $109 $96 $112 reversed $94 $-1 #
coedge $-1 -1 $-1 $110 $110 $95 $111 forward $106 $-1 #
edge $-1 -1 $-1 $120 -3.1415926535897931 $120 3.1415926535897931 $95 $121 forward @7 unknown #
edge $-1 -1 $-1 $122 -3.1415926535897931 $122 3.1415926535897931 $109 $123 forward @7 unknown #
vertex $-1 -1 $-1 $98 $124 #
ellipse-curve $-1 -1 $-1 0 0 0.495 0 0 -1 -0.054999999999999993 0 0 1 I I #
loop $-1 -1 $-1 $-1 $125 $105 #
point $-1 -1 $-1 -0.12499999999999997 1.5307579422779713e-017 -0.27999999999999997 #
point $-1 -1 $-1 0.054999999999999993 -6.7353349460230736e-018 -0.37300000000000005 #
cone-surface $-1 -1 $-1 0 0 0 0 0 1 -0.12499999999999999 0 0 1 I I 0 1 0.12499999999999999 forward I I I I #
loop $-1 -1 $-1 $-1 $126 $91 #
vertex $-1 -1 $-1 $111 $127 #
ellipse-curve $-1 -1 $-1 0 0 0.49999999999999994 0 0 -1 -0.12 0 0 1 I I #
vertex $-1 -1 $-1 $112 $128 #
ellipse-curve $-1 -1 $-1 0 0 0.49999999999999994 0 0 1 -0.059999999999999984 0 0 1 I I #
point $-1 -1 $-1 0.054999999999999993 -6.7353349460230736e-018 0.495 #
coedge $-1 -1 $-1 $125 $125 $126 $129 reversed $115 $-1 #
coedge $-1 -1 $-1 $126 $126 $125 $129 forward $119 $-1 #
point $-1 -1 $-1 0.12 -1.4695276245868526e-017 0.49999999999999994 #
point $-1 -1 $-1 0.059999999999999984 7.3476381229342631e-018 0.49999999999999994 #
edge $-1 -1 $-1 $130 -3.1415926535897931 $130 3.1415926535897931 $125 $131 forward @7 unknown #
vertex $-1 -1 $-1 $129 $132 #
ellipse-curve $-1 -1 $-1 0 0 0.495 0 0 1 -0.12499999999999999 0 0 1 I I #
point $-1 -1 $-1 0.12499999999999999 1.5307579422779713e-017 0.495 #
End-of-ACIS-data 