400 0 1 0           
7 Unknown 11 ACIS 6.0 NT 24 Thu Jan 24 18:05:53 2002 
25.399999999999999 9.9999999999999995e-007 1e-010 
body $-1 $1 $-1 $-1 #
lump $-1 $-1 $2 $0 #
shell $-1 $-1 $-1 $3 $-1 $1 #
face $-1 $4 $5 $2 $-1 $6 forward single #
face $-1 $7 $8 $2 $-1 $9 forward single #
loop $-1 $-1 $10 $3 #
cone-surface $-1 0.30949728960939937 0.74641345407042692 0 0 0 1 0.044194173824159223 0.044194173824159223 0 1 I I 0 1 0.0625 forward I I I I #
face $-1 $11 $12 $2 $-1 $13 forward single #
loop $-1 $-1 $14 $4 #
plane-surface $-1 0.37199728960939943 0.80891345407042692 0 1 -8.7419135797256413e-017 0 0 0 -0.39370078740157477 forward_v I I I I #
coedge $-1 $15 $16 $17 $18 forward $5 $-1 #
face $-1 $19 $20 $2 $-1 $21 forward single #
loop $-1 $22 $23 $7 #
plane-surface $-1 -0.19300271039060041 0.058913454070426842 0.24999999999999997 0 0 1 0.39370078740157477 0 0 forward_v I I I I #
coedge $-1 $24 $25 $15 $26 reversed $8 $-1 #
coedge $-1 $27 $10 $14 $26 forward $5 $-1 #
coedge $-1 $10 $27 $28 $29 forward $5 $-1 #
coedge $-1 $30 $31 $10 $18 reversed $32 $-1 #
edge $-1 $33 $34 $17 $35 forward #
face $-1 $36 $37 $2 $-1 $38 reversed single #
loop $-1 $-1 $39 $11 #
cone-surface $-1 0.30949728960939926 -0.62858654592957319 0 0 0 1 0.044194173824159251 -0.044194173824159182 0 1 I I 0 1 0.062499999999999993 forward I I I I #
loop $-1 $32 $40 $7 #
coedge $-1 $23 $23 $41 $42 forward $12 $-1 #
coedge $-1 $43 $14 $31 $44 forward $8 $-1 #
coedge $-1 $14 $43 $45 $46 forward $8 $-1 #
edge $-1 $34 $47 $14 $48 forward #
coedge $-1 $16 $15 $49 $50 forward $5 $-1 #
coedge $-1 $51 $52 $16 $29 reversed $53 $-1 #
edge $-1 $54 $33 $28 $55 forward #
coedge $-1 $56 $17 $52 $57 reversed $32 $-1 #
coedge $-1 $17 $58 $24 $44 reversed $32 $-1 #
loop $-1 $-1 $17 $7 #
vertex $-1 $18 $59 #
vertex $-1 $44 $60 #
ellipse-curve $-1 0.30949728960939937 0.74641345407042692 0.24999999999999997 0 0 -1 0.044194173824159223 0.044194173824159223 0 1 I I #
face $-1 $61 $62 $2 $-1 $63 forward single #
loop $-1 $64 $49 $19 #
plane-surface $-1 -0.19300271039060041 0.058913454070426863 0 0 0 1 0.39370078740157477 0 0 forward_v I I I I #
coedge $-1 $65 $66 $58 $67 forward $20 $-1 #
coedge $-1 $40 $40 $68 $69 forward $22 $-1 #
coedge $-1 $41 $41 $23 $42 reversed $70 $-1 #
edge $-1 $71 $71 $23 $72 forward #
coedge $-1 $25 $24 $66 $73 reversed $8 $-1 #
edge $-1 $34 $74 $24 $75 forward #
coedge $-1 $76 $49 $25 $46 reversed $37 $-1 #
edge $77 $78 $47 $25 $79 forward #
vertex $-1 $26 $80 #
straight-curve $-1 0.37199728960939943 0.74641345407042692 0 0 0 -0.39370078740157477 F -1.1398259999999998 F 0.49212600000000001 #
coedge $-1 $45 $81 $27 $50 reversed $37 $-1 #
edge $-1 $47 $54 $49 $82 forward #
coedge $-1 $83 $28 $81 $84 forward $53 $-1 #
coedge $-1 $28 $85 $30 $57 forward $53 $-1 #
loop $-1 $-1 $28 $86 #
vertex $-1 $84 $87 #
straight-curve $-1 0.30949728960939937 0.80891345407042692 0 0 0 0.39370078740157477 F -0.49212600000000001 F 1.1398259999999998 #
coedge $-1 $88 $30 $89 $90 forward $32 $-1 #
edge $91 $92 $33 $52 $93 forward #
coedge $-1 $31 $88 $39 $67 reversed $32 $-1 #
point $-1 0.30949728960939937 0.80891345407042692 0.24999999999999997 #
point $-1 0.37199728960939943 0.74641345407042692 0.24999999999999997 #
face $-1 $94 $95 $2 $-1 $96 forward single #
loop $-1 $-1 $97 $36 #
plane-surface $-1 0.37199728960939926 -0.69108654592957308 0 7.7362067077218095e-017 -1 0 0 0 -0.39370078740157477 forward_v I I I I #
loop $-1 $98 $99 $19 #
coedge $-1 $100 $39 $97 $101 forward $20 $-1 #
coedge $-1 $39 $100 $43 $73 forward $20 $-1 #
edge $-1 $74 $102 $58 $103 forward #
coedge $-1 $68 $68 $40 $69 reversed $104 $-1 #
edge $-1 $105 $105 $40 $106 forward #
loop $-1 $107 $41 $108 #
vertex $-1 $42 $109 #
ellipse-curve $-1 -0.06800271039060031 -0.44108654592957308 0.24999999999999997 0 0 -1 -0.12999999999999998 0 0 1 I I #
edge $-1 $78 $74 $43 $110 forward #
vertex $-1 $67 $111 #
straight-curve $-1 0.37199728960939926 -0.69108654592957308 0.24999999999999997 -3.4416982597345042e-017 -0.39370078740157477 0 F -3.8100000000000005 F 0 #
coedge $-1 $112 $45 $100 $113 reversed $37 $-1 #
convexity-sys-attrib $-1 $-1 $-1 $46 #
vertex $-1 $46 $114 #
straight-curve $-1 0.37199728960939926 -0.69108654592957308 0 3.4416982597345042e-017 0.39370078740157477 0 F 0 F 3.8100000000000005 #
point $-1 0.37199728960939943 0.74641345407042692 0 #
coedge $-1 $49 $115 $51 $84 reversed $37 $-1 #
ellipse-curve $-1 0.30949728960939937 0.74641345407042692 0 0 0 1 0.044194173824159223 0.044194173824159223 0 1 I I #
coedge $-1 $116 $51 $117 $118 forward $53 $-1 #
edge $-1 $54 $119 $51 $120 forward #
coedge $-1 $52 $121 $122 $123 reversed $53 $-1 #
face $-1 $-1 $53 $2 $-1 $124 forward single #
point $-1 0.30949728960939937 0.80891345407042692 0 #
coedge $-1 $58 $56 $125 $126 reversed $32 $-1 #
coedge $-1 $122 $127 $56 $90 reversed $128 $-1 #
edge $-1 $92 $129 $56 $130 forward #
convexity-sys-attrib $-1 $-1 $-1 $57 #
vertex $-1 $57 $131 #
straight-curve $-1 0.37199728960939937 0.80891345407042692 0.24999999999999997 0.39370078740157477 6.0915013446628412e-017 0 F -2.8701999999999992 F 0 #
face $-1 $132 $133 $2 $-1 $134 forward single #
loop $-1 $-1 $135 $61 #
cone-surface $-1 -0.7580027103906003 -0.29611363832294502 1.3699999999999999 1 1.5472413415443616e-016 0 0 0.18043876028994091 0.33442765104732186 1 I I 0 1 0.38000000000000006 forward I I I I #
coedge $-1 $125 $136 $65 $101 reversed $62 $-1 #
loop $-1 $-1 $137 $19 #
coedge $-1 $99 $99 $138 $139 forward $64 $-1 #
coedge $-1 $66 $65 $76 $113 forward $20 $-1 #
edge $-1 $102 $140 $97 $141 forward #
vertex $-1 $126 $142 #
ellipse-curve $-1 0.30949728960939926 -0.62858654592957319 0.24999999999999997 0 0 -1 0.044194173824159251 -0.044194173824159182 0 1 I I #
loop $-1 $143 $68 $144 #
vertex $-1 $69 $145 #
ellipse-curve $-1 -0.068002710390600282 0.55891345407042692 0.24999999999999997 0 0 -1 -0.12999999999999998 0 0 1 I I #
loop $-1 $-1 $146 $108 #
face $-1 $144 $70 $2 $-1 $147 reversed single #
point $-1 0.061997289609399674 -0.44108654592957308 0.24999999999999997 #
straight-curve $-1 0.37199728960939926 -0.62858654592957319 0 0 0 0.39370078740157477 F -0.49212600000000001 F 3.654426 #
point $-1 0.37199728960939926 -0.62858654592957319 0.24999999999999997 #
coedge $-1 $115 $76 $136 $148 reversed $37 $-1 #
edge $-1 $140 $78 $76 $149 forward #
point $-1 0.37199728960939926 -0.62858654592957319 0 #
coedge $-1 $81 $112 $150 $151 forward $37 $-1 #
coedge $-1 $152 $83 $153 $154 forward $53 $-1 #
coedge $-1 $150 $155 $83 $118 reversed $156 $-1 #
edge $-1 $119 $157 $83 $158 forward #
vertex $-1 $151 $159 #
straight-curve $-1 0.37199728960939937 0.80891345407042692 0 -0.39370078740157477 -6.0915013446628412e-017 0 F 0 F 2.8701999999999992 #
coedge $-1 $85 $152 $160 $161 forward $53 $-1 #
coedge $-1 $162 $89 $85 $123 forward $128 $-1 #
edge $-1 $92 $163 $122 $164 forward #
plane-surface $-1 -0.75800271039060019 0.80891345407042681 0 -1.5472413415443619e-016 1 0 0 0 0.39370078740157477 forward_v I I I I #
coedge $-1 $165 $97 $88 $126 forward $62 $-1 #
edge $-1 $102 $129 $125 $166 forward #
coedge $-1 $89 $162 $165 $167 reversed $128 $-1 #
loop $-1 $-1 $162 $168 #
vertex $-1 $167 $169 #
straight-curve $-1 -0.47800271039060038 -0.31608654592957308 0.24999999999999997 -2.2944655064896702e-017 -0.39370078740157477 0 I I #
point $-1 -0.47800271039060033 0.80891345407042659 0.24999999999999997 #
face $-1 $170 $171 $2 $-1 $172 forward single #
loop $-1 $173 $174 $94 #
plane-surface $-1 -0.5080027103906003 0.058913454070426578 0.99999999999999978 1 -6.0888950306546793e-017 6.0888950306546793e-017 2.3972027679742829e-017 0 -0.39370078740157477 forward_v I I I I #
coedge $-1 $175 $176 $177 $178 forward $95 $-1 #
coedge $-1 $97 $179 $112 $148 forward $62 $-1 #
coedge $-1 $137 $137 $146 $180 forward $98 $-1 #
coedge $-1 $138 $138 $99 $139 reversed $143 $-1 #
edge $-1 $181 $181 $99 $182 forward #
vertex $-1 $101 $183 #
straight-curve $-1 0.30949728960939926 -0.69108654592957308 0 0 0 -0.39370078740157477 F -3.654426 F 0.49212600000000001 #
point $-1 0.30949728960939932 -0.69108654592957308 0.24999999999999997 #
loop $-1 $-1 $138 $144 #
face $-1 $86 $104 $2 $-1 $184 reversed single #
point $-1 0.061997289609399708 0.55891345407042692 0.24999999999999997 #
coedge $-1 $146 $146 $137 $180 reversed $107 $-1 #
cone-surface $-1 -0.06800271039060031 -0.44108654592957308 0 0 0 1 -0.12999999999999998 0 0 1 I I 0 1 0.12999999999999998 forward I I I I #
edge $185 $186 $140 $136 $187 forward #
ellipse-curve $-1 0.30949728960939926 -0.62858654592957319 0 0 0 1 0.044194173824159251 -0.044194173824159182 0 1 I I #
coedge $-1 $188 $117 $115 $151 reversed $156 $-1 #
edge $-1 $186 $119 $115 $189 forward #
coedge $-1 $121 $116 $190 $191 reversed $53 $-1 #
coedge $-1 $192 $193 $116 $154 reversed $194 $-1 #
edge $195 $157 $196 $116 $197 forward #
coedge $-1 $117 $188 $192 $198 reversed $156 $-1 #
loop $-1 $-1 $155 $199 #
vertex $-1 $154 $200 #
ellipse-curve $-1 -0.47800271039059999 0.80891345407042659 0.27999999999999997 5.8279423864837625e-017 1 0 -3.4967654318902565e-016 0 -0.27999999999999997 1 F 0 F 1.5707963267948966 #
point $-1 -0.47800271039060033 0.80891345407042659 0 #
coedge $-1 $201 $202 $121 $161 reversed $173 $-1 #
edge $-1 $203 $163 $121 $204 forward #
coedge $-1 $127 $122 $202 $205 reversed $128 $-1 #
vertex $-1 $205 $206 #
ellipse-curve $-1 -0.47800271039059999 0.80891345407042659 0.27999999999999997 5.8279423864837625e-017 1 0 -3.7465343913109912e-017 0 -0.030000000000000016 1 F 1.0407039975863852e-014 F 1.5707963267949057 #
coedge $-1 $207 $125 $127 $167 forward $62 $-1 #
straight-curve $-1 -0.7580027103906003 -0.69108654592957319 0.24999999999999997 -0.39370078740157477 -3.0457506723314206e-017 0 F -2.8701999999999992 F 0 #
edge $-1 $129 $208 $165 $209 forward #
face $-1 $199 $128 $2 $-1 $210 forward single #
point $-1 -0.47800271039060038 -0.69108654592957297 0.24999999999999997 #
face $-1 $211 $212 $2 $-1 $213 forward single #
loop $-1 $-1 $214 $132 #
plane-surface $-1 -0.75800271039060041 -0.6910865459295733 1.75 0 0 1 0.39370078740157477 0 0 forward_v I I I I #
loop $-1 $-1 $177 $94 #
coedge $-1 $174 $174 $215 $216 forward $133 $-1 #
coedge $-1 $217 $135 $218 $219 forward $95 $-1 #
coedge $-1 $135 $217 $214 $220 forward $95 $-1 #
coedge $-1 $221 $201 $135 $178 reversed $173 $-1 #
edge $-1 $222 $223 $177 $224 forward #
coedge $-1 $136 $225 $188 $226 reversed $62 $-1 #
edge $-1 $227 $227 $137 $228 forward #
vertex $-1 $139 $229 #
ellipse-curve $-1 -0.068002710390600282 0.55891345407042692 0 0 0 1 -0.12999999999999998 0 0 1 I I #
point $-1 0.30949728960939932 -0.69108654592957308 0 #
cone-surface $-1 -0.068002710390600282 0.55891345407042692 0 0 0 1 -0.12999999999999998 0 0 1 I I 0 1 0.12999999999999998 forward I I I I #
convexity-sys-attrib $-1 $-1 $-1 $148 #
vertex $-1 $148 $230 #
straight-curve $-1 -0.7580027103906003 -0.69108654592957319 0 0.39370078740157477 3.0457506723314206e-017 0 F 0 F 2.8701999999999992 #
coedge $-1 $155 $150 $179 $226 forward $156 $-1 #
straight-curve $-1 -0.47800271039060038 -0.31608654592957303 0 2.2944655064896702e-017 0.39370078740157477 0 I I #
coedge $-1 $231 $232 $152 $191 forward $212 $-1 #
edge $-1 $203 $196 $152 $233 forward #
coedge $-1 $234 $153 $155 $198 forward $194 $-1 #
coedge $-1 $153 $235 $231 $236 reversed $194 $-1 #
loop $-1 $237 $235 $211 #
convexity-sys-attrib $-1 $-1 $-1 $154 #
vertex $-1 $236 $238 #
straight-curve $-1 -0.75800271039060019 0.80891345407042659 0.24999999999999997 -2.410642428784207e-017 1.4049085189367646e-033 0.39370078740157477 F 0 F 3.8100000000000005 #
edge $-1 $157 $239 $192 $240 forward #
face $-1 $108 $156 $2 $-1 $241 forward single #
point $-1 -0.75800271039060019 0.80891345407042659 0.27999999999999997 #
coedge $-1 $177 $160 $232 $242 reversed $173 $-1 #
coedge $-1 $160 $243 $162 $205 forward $173 $-1 #
vertex $-1 $161 $244 #
straight-curve $-1 -0.5080027103906003 0.80891345407042659 0.24999999999999997 2.410642428784207e-017 -1.4049085189367646e-033 -0.39370078740157477 F -3.8100000000000005 F 0 #
edge $-1 $208 $163 $202 $245 forward #
point $-1 -0.50800271039059985 0.80891345407042659 0.27999999999999997 #
coedge $-1 $246 $165 $243 $247 forward $62 $-1 #
vertex $-1 $247 $248 #
ellipse-curve $-1 -0.47800271039060005 -0.69108654592957297 0.27999999999999997 5.8279423864837625e-017 1 0 -3.7465343913109912e-017 0 -0.030000000000000016 1 F 1.0407039975863852e-014 F 1.5707963267949085 #
cone-surface $-1 -0.47800271039059999 0.058913454070426821 0.27999999999999997 5.8279423864837625e-017 1 0 -3.7465343913109912e-017 0 -0.030000000000000016 1 I I 0 -1 0.030000000000000016 forward I I I I #
face $-1 $249 $194 $2 $-1 $250 reversed single #
loop $-1 $-1 $218 $170 #
plane-surface $-1 -0.75800271039060041 0.35891345407042669 1.0649999999999999 -1.2931618281527573e-016 0.83578546761295958 0.54905614660705371 0.39370078740157477 0 9.272618713542325e-017 forward_v I I I I #
coedge $-1 $251 $252 $176 $220 reversed $171 $-1 #
coedge $-1 $215 $215 $174 $216 reversed $253 $-1 #
edge $-1 $254 $254 $174 $255 forward #
coedge $-1 $176 $175 $235 $256 forward $95 $-1 #
coedge $-1 $232 $231 $175 $219 reversed $212 $-1 #
edge $-1 $223 $257 $218 $258 forward #
edge $-1 $259 $222 $214 $260 forward #
coedge $-1 $261 $177 $252 $262 reversed $173 $-1 #
vertex $-1 $220 $263 #
vertex $-1 $242 $264 #
ellipse-curve $-1 -0.5080027103906003 -0.29611363832294496 1.3699999999999999 -1 6.0888950306546793e-017 -6.0888950306546793e-017 0 0.18043876028994091 0.33442765104732186 1 I I #
coedge $-1 $179 $246 $234 $265 forward $62 $-1 #
edge $-1 $186 $239 $188 $266 forward #
vertex $-1 $180 $267 #
ellipse-curve $-1 -0.06800271039060031 -0.44108654592957308 0 0 0 1 -0.12999999999999998 0 0 1 I I #
point $-1 0.061997289609399708 0.55891345407042692 0 #
point $-1 -0.47800271039060038 -0.69108654592957297 0 #
coedge $-1 $218 $190 $193 $236 forward $212 $-1 #
coedge $-1 $190 $218 $201 $242 forward $212 $-1 #
straight-curve $-1 -0.75800271039060052 0.80891345407042681 0.37999999999999989 -0.39370078740157477 -6.0915013446628412e-017 0 F -11.422381000000001 F 10.787381 #
coedge $-1 $268 $192 $225 $265 reversed $194 $-1 #
coedge $-1 $193 $269 $217 $256 reversed $194 $-1 #
edge $270 $196 $257 $193 $271 forward #
loop $-1 $-1 $272 $211 #
point $-1 -0.75800271039060019 0.80891345407042659 0.37999999999999989 #
vertex $-1 $226 $273 #
straight-curve $-1 -0.75800271039060019 -0.3160865459295733 0.27999999999999997 -2.3972027679742835e-017 -0.39370078740157477 0 I I #
cone-surface $-1 -0.47800271039059999 0.058913454070426821 0.27999999999999997 5.8279423864837625e-017 1 0 -3.4967654318902565e-016 0 -0.27999999999999997 1 I I 0 1 0.27999999999999997 forward I I I I #
edge $-1 $223 $203 $201 $274 forward #
coedge $-1 $202 $261 $207 $247 reversed $173 $-1 #
point $-1 -0.5080027103906003 0.80891345407042659 0.37999999999999989 #
straight-curve $-1 -0.5080027103906003 -0.3160865459295733 0.28000000000000003 2.3972027679742829e-017 0.39370078740157477 0 I I #
coedge $-1 $225 $207 $275 $276 reversed $62 $-1 #
edge $277 $208 $278 $207 $279 forward #
point $-1 -0.50800271039059997 -0.69108654592957319 0.27999999999999997 #
face $-1 $280 $281 $2 $-1 $282 forward single #
plane-surface $-1 -0.75800271039060019 0.058913454070426599 0.99999999999999989 1 -6.0888950306546806e-017 6.0888950306546793e-017 2.3972027679742829e-017 0 -0.39370078740157477 forward_v I I I I #
coedge $-1 $283 $214 $269 $284 forward $171 $-1 #
coedge $-1 $214 $283 $221 $262 forward $171 $-1 #
loop $-1 $-1 $215 $280 #
vertex $-1 $216 $285 #
ellipse-curve $-1 -0.50800271039060041 -0.31108654592957324 1.3699999999999999 -1 6.0888950306546793e-017 -6.0888950306546793e-017 1.1568900558243891e-017 -6.7422885928405221e-034 -0.19 1 I I #
edge $-1 $257 $259 $235 $286 forward #
vertex $-1 $256 $287 #
straight-curve $-1 -0.75800271039060041 0.02148483936997965 1.5786413357106801 -0.39370078740157477 -6.0915013446628412e-017 0 F -3.6271209999999998 F 2.9921210000000009 #
vertex $-1 $284 $288 #
straight-curve $-1 -0.7580027103906003 -0.29611363832294502 1.75 0.39370078740157477 6.0915013446628412e-017 0 F -2.9921210000000009 F 3.6271209999999998 #
coedge $-1 $243 $221 $289 $290 reversed $173 $-1 #
edge $291 $292 $222 $252 $293 forward #
point $-1 -0.50800271039060041 -0.29611363832294502 1.75 #
point $-1 -0.5080027103906003 0.021484839369979778 1.5786413357106801 #
edge $-1 $294 $239 $225 $295 forward #
ellipse-curve $-1 -0.47800271039060005 -0.69108654592957297 0.27999999999999997 5.8279423864837625e-017 1 0 -3.4967654318902565e-016 0 -0.27999999999999997 1 F 0 F 1.5707963267948968 #
point $-1 0.061997289609399674 -0.44108654592957308 0 #
coedge $-1 $269 $234 $296 $297 reversed $194 $-1 #
coedge $-1 $235 $268 $251 $284 reversed $194 $-1 #
convexity-sys-attrib $-1 $-1 $-1 $236 #
straight-curve $-1 -0.75800271039060019 0.32860808356910548 1.111131508429789 -3.3197461508141903e-017 -0.21616383724687152 0.32904939669801553 I I #
coedge $-1 $272 $272 $298 $299 forward $237 $-1 #
point $-1 -0.75800271039060019 -0.69108654592957319 0.27999999999999997 #
straight-curve $-1 -0.5080027103906003 0.32860808356910548 1.1111315084297888 3.3197461508141903e-017 0.21616383724687152 -0.32904939669801553 I I #
coedge $-1 $289 $296 $246 $276 forward $281 $-1 #
edge $-1 $294 $278 $246 $300 forward #
convexity-sys-attrib $-1 $-1 $-1 $247 #
vertex $-1 $276 $301 #
straight-curve $-1 -0.50800271039060041 -0.6910865459295733 1.75 -2.410642428784207e-017 -2.294465506489669e-017 0.39370078740157477 F -3.8100000000000005 F 0 #
face $-1 $168 $302 $2 $-1 $303 reversed single #
loop $-1 $-1 $289 $249 #
cone-surface $-1 -0.1930027103906006 -0.31108654592957319 1.3699999999999999 1 7.7362067077218095e-017 0 0 -0.26870057685088805 0.26870057685088805 1 I I 0 1 0.38 forward I I I I #
coedge $-1 $252 $251 $304 $305 reversed $171 $-1 #
edge $-1 $259 $306 $251 $307 forward #
point $-1 -0.5080027103906003 -0.31108654592957324 1.1799999999999999 #
ellipse-curve $-1 -0.75800271039060019 -0.29611363832294502 1.3699999999999999 1 -6.0888950306546806e-017 6.0888950306546793e-017 0 0.18043876028994091 0.33442765104732186 1 I I #
point $-1 -0.7580027103906003 0.021484839369979823 1.5786413357106801 #
point $-1 -0.75800271039060041 -0.29611363832294502 1.75 #
coedge $-1 $304 $275 $261 $290 forward $281 $-1 #
edge $-1 $278 $292 $261 $308 forward #
convexity-sys-attrib $-1 $-1 $-1 $262 #
vertex $-1 $262 $309 #
straight-curve $-1 -0.5080027103906003 0.80891345407042659 1.75 2.2944655064896696e-017 0.39370078740157477 0 F -3.8099999999999996 F 0 #
vertex $-1 $265 $310 #
straight-curve $-1 -0.75800271039060041 -0.6910865459295733 1.75 2.410642428784207e-017 2.294465506489669e-017 -0.39370078740157477 F 0 F 3.8100000000000005 #
coedge $-1 $275 $304 $268 $297 forward $281 $-1 #
edge $-1 $306 $294 $268 $311 forward #
coedge $-1 $298 $298 $272 $299 reversed $302 $-1 #
edge $-1 $312 $312 $272 $313 forward #
straight-curve $-1 -0.19300271039060057 -0.69108654592957308 1.3699999999999999 0.39370078740157477 3.0457506723314206e-017 0 F -4.4272210000000003 F 2.4968210000000002 #
point $-1 -0.50800271039060041 -0.6910865459295733 1.3699999999999999 #
loop $-1 $253 $298 $280 #
cone-surface $-1 -3.0749853749210798 -0.31108654592957308 1.3699999999999997 1 -6.0888950306546793e-017 6.0888950306546793e-017 1.1568900558243891e-017 -6.7422885928405221e-034 -0.19 1 I I 0 1 0.19 reversed I I I I #
coedge $-1 $296 $289 $283 $305 forward $281 $-1 #
edge $-1 $292 $306 $283 $314 forward #
vertex $-1 $297 $315 #
straight-curve $-1 -0.7580027103906003 0.80891345407042659 1.75 -2.2944655064896696e-017 -0.39370078740157477 0 F 0 F 3.8099999999999996 #
ellipse-curve $-1 -0.5080027103906003 -0.31108654592957324 1.3699999999999999 -1 6.0888950306546793e-017 -6.0888950306546793e-017 0 -0.26870057685088805 0.26870057685088805 1 I I #
point $-1 -0.50800271039060041 -0.31108654592957324 1.75 #
point $-1 -0.75800271039060041 -0.6910865459295733 1.3699999999999999 #
ellipse-curve $-1 -0.75800271039060019 -0.31108654592957324 1.3699999999999999 1 -6.0888950306546806e-017 6.0888950306546793e-017 0 -0.26870057685088805 0.26870057685088805 1 I I #
vertex $-1 $299 $316 #
ellipse-curve $-1 -0.7580027103906003 -0.31108654592957319 1.3699999999999999 1 -6.0888950306546806e-017 6.0888950306546793e-017 1.1568900558243891e-017 -6.7422885928405221e-034 -0.19 1 I I #
straight-curve $-1 -0.1930027103906006 -0.31108654592957319 1.75 -0.39370078740157477 -3.0457506723314206e-017 0 F -2.4968210000000002 F 4.4272210000000003 #
point $-1 -0.75800271039060041 -0.31108654592957324 1.75 #
point $-1 -0.7580027103906003 -0.31108654592957319 1.5599999999999998 #
End-of-ACIS-data 