700 0 1 0           
29 Autodesk Inventor 6.2.0.12000 17 ASM 6.0.1.6021 NT 24 Thu Jan 03 17:50:19 2008 
25.399999999999999 9.9999999999999995e-007 1e-010 
body $-1 -1 $-1 $1 $-1 $-1 #
lump $-1 -1 $-1 $-1 $2 $0 #
shell $-1 -1 $-1 $-1 $-1 $3 $-1 $1 #
face $-1 -1 $-1 $4 $5 $2 $-1 $6 reversed single #
face $-1 -1 $-1 $7 $8 $2 $-1 $6 reversed single #
loop $-1 -1 $-1 $9 $10 $3 #
cone-surface $-1 -1 $-1 0.59999999999999987 -1.2801438774457838 0 0 1 0 0.099999999999999992 0 0 1 I I 0 1 0.099999999999999992 reversed I I I I #
face $-1 -1 $-1 $11 $12 $2 $-1 $13 reversed single #
loop $-1 -1 $-1 $14 $15 $4 #
loop $-1 -1 $-1 $-1 $16 $3 #
coedge $-1 -1 $-1 $10 $10 $17 $18 reversed $5 $-1 #
face $-1 -1 $-1 $19 $20 $2 $-1 $21 forward single #
loop $-1 -1 $-1 $-1 $22 $7 #
plane-surface $-1 -1 $-1 0.24561968418033295 0.18655228658902626 -0.24999999999999997 0 0 1 0.39370078740157477 0 0 forward_v I I I I #
loop $-1 -1 $-1 $-1 $23 $4 #
coedge $-1 -1 $-1 $15 $15 $24 $25 reversed $8 $-1 #
coedge $-1 -1 $-1 $16 $16 $26 $27 reversed $9 $-1 #
coedge $-1 -1 $-1 $17 $17 $10 $18 forward $28 $-1 #
edge $-1 -1 $-1 $29 -3.1415926535897931 $29 3.1415926535897931 $17 $30 forward @7 unknown #
face $-1 -1 $-1 $31 $32 $2 $-1 $33 forward single #
loop $-1 -1 $-1 $34 $26 $11 #
plane-surface $-1 -1 $-1 0.84999999999999987 6.1056802658396273e-016 0 7.1831532539289746e-016 -1 0 0 0 -0.39370078740157477 forward_v I I I I #
coedge $-1 -1 $-1 $35 $36 $37 $38 reversed $12 $-1 #
coedge $-1 -1 $-1 $23 $23 $39 $40 reversed $14 $-1 #
coedge $-1 -1 $-1 $24 $24 $15 $25 forward $41 $-1 #
edge $-1 -1 $-1 $42 -3.1415926535897931 $42 3.1415926535897931 $24 $43 forward @7 unknown #
coedge $-1 -1 $-1 $26 $26 $16 $27 forward $20 $-1 #
edge $-1 -1 $-1 $44 -3.1415926535897931 $44 3.1415926535897931 $26 $45 forward @7 unknown #
loop $-1 -1 $-1 $46 $17 $47 #
vertex $-1 -1 $-1 $18 $48 #
ellipse-curve $-1 -1 $-1 0.59999999999999987 0.049999999999999906 0 7.0706653953663287e-016 -1 0 0.099999999999999992 0 0 1 I I #
face $-1 -1 $-1 $49 $50 $2 $-1 $51 forward single #
loop $-1 -1 $-1 $-1 $52 $19 #
cone-surface $-1 -1 $-1 0.59999999999999987 0.11827614329451341 0 0 -1 0 0.17677669529663689 0 0.17677669529663681 1 I I 0 1 0.24999999999999997 forward I I I I #
loop $-1 -1 $-1 $-1 $53 $11 #
coedge $-1 -1 $-1 $54 $22 $55 $56 reversed $12 $-1 #
coedge $-1 -1 $-1 $22 $57 $58 $59 reversed $12 $-1 #
coedge $-1 -1 $-1 $60 $52 $22 $38 forward $32 $-1 #
edge $-1 -1 $-1 $61 -0.30042140396806294 $62 -0.17342140396806308 $22 $63 forward @7 unknown #
coedge $-1 -1 $-1 $39 $39 $23 $40 forward $64 $-1 #
edge $-1 -1 $-1 $65 0 $65 6.2831853071795862 $39 $66 forward @7 unknown #
loop $-1 -1 $-1 $67 $24 $68 #
vertex $-1 -1 $-1 $25 $69 #
ellipse-curve $-1 -1 $-1 0.59999999999999987 0.060000000000000553 0 -4.7872383888973746e-016 1 0 0.099999999999999992 0 0 1 I I #
vertex $-1 -1 $-1 $27 $70 #
ellipse-curve $-1 -1 $-1 0.59999999999999987 5.2451481478353848e-016 0 -7.1831532539289746e-016 1 0 0.099999999999999992 0 0 1 I I #
loop $-1 -1 $-1 $-1 $71 $47 #
face $-1 -1 $-1 $72 $28 $2 $-1 $73 forward single #
point $-1 -1 $-1 0.49999999999999989 0.049999999999999906 -1.2246063538223773e-017 #
face $-1 -1 $-1 $74 $64 $2 $-1 $75 forward single #
loop $-1 -1 $-1 $-1 $76 $31 #
plane-surface $-1 -1 $-1 0.24561968418033295 0.18655228658902626 0.24999999999999997 0 0 1 0.39370078740157477 0 0 forward_v I I I I #
coedge $-1 -1 $-1 $37 $77 $53 $78 forward $32 $-1 #
coedge $-1 -1 $-1 $79 $55 $52 $78 reversed $34 $-1 #
coedge $-1 -1 $-1 $80 $35 $81 $82 reversed $12 $-1 #
coedge $-1 -1 $-1 $53 $83 $35 $56 forward $34 $-1 #
edge $-1 -1 $-1 $84 -2.1589999999999998 $61 -0.63500000000000001 $55 $85 forward @7 unknown #
coedge $-1 -1 $-1 $36 $86 $87 $88 reversed $12 $-1 #
coedge $-1 -1 $-1 $89 $71 $36 $59 forward $46 $-1 #
edge $-1 -1 $-1 $62 -1.5239999999999998 $90 0 $58 $91 forward @7 unknown #
coedge $-1 -1 $-1 $77 $37 $71 $92 forward $32 $-1 #
vertex $-1 -1 $-1 $78 $93 #
vertex $-1 -1 $-1 $59 $94 #
straight-curve $-1 -1 $-1 0.59999999999999987 0.1182761432945134 -0.24999999999999997 0 0.39370078740157477 0 F -2.2689224039680624 F 1.9220795960319363 #
loop $-1 -1 $-1 $95 $39 $49 #
vertex $-1 -1 $-1 $40 $96 #
ellipse-curve $-1 -1 $-1 0.59999999999999987 0.11000000000000046 0 0 -1 0 0.099999999999999992 0 0 1 I I #
loop $-1 -1 $-1 $-1 $97 $68 #
face $-1 -1 $-1 $98 $41 $2 $-1 $99 forward single #
point $-1 -1 $-1 0.49999999999999989 0.060000000000000553 1.2246063538223773e-017 #
point $-1 -1 $-1 0.49999999999999989 5.2451481478353848e-016 1.2246063538223773e-017 #
coedge $-1 -1 $-1 $58 $100 $60 $92 reversed $46 $-1 #
face $-1 -1 $-1 $-1 $101 $2 $-1 $102 forward single #
plane-surface $-1 -1 $-1 0 0.049999999999999954 0 -7.0706653953663287e-016 1 0 0 0 0.39370078740157477 forward_v I I I I #
face $-1 -1 $-1 $103 $104 $2 $-1 $105 forward single #
plane-surface $-1 -1 $-1 0.34999999999999976 0.11000000000000044 0 0 1 0 0 0 0.39370078740157477 forward_v I I I I #
coedge $-1 -1 $-1 $106 $107 $77 $108 reversed $50 $-1 #
coedge $-1 -1 $-1 $52 $60 $76 $108 forward $32 $-1 #
edge $-1 -1 $-1 $109 -2.3561944901923448 $61 0.7853981633974485 $53 $110 forward @7 unknown #
coedge $-1 -1 $-1 $83 $53 $107 $111 forward $34 $-1 #
coedge $-1 -1 $-1 $112 $54 $113 $114 reversed $12 $-1 #
coedge $-1 -1 $-1 $115 $116 $54 $82 forward $101 $-1 #
edge $-1 -1 $-1 $117 -3.1415926535897931 $84 1.5707963267948972 $81 $118 forward @7 unknown #
coedge $-1 -1 $-1 $55 $79 $115 $119 reversed $34 $-1 #
vertex $-1 -1 $-1 $119 $120 #
straight-curve $-1 -1 $-1 0.84999999999999987 6.1056802658396273e-016 -0.24999999999999997 0.39370078740157477 2.8280130920980211e-016 0 F -2.1589999999999998 F 0 #
coedge $-1 -1 $-1 $57 $121 $122 $123 reversed $12 $-1 #
coedge $-1 -1 $-1 $124 $125 $57 $88 forward $126 $-1 #
edge $-1 -1 $-1 $90 -4.7123889803846897 $127 0 $87 $128 forward @7 unknown #
coedge $-1 -1 $-1 $100 $58 $125 $129 reversed $46 $-1 #
vertex $-1 -1 $-1 $129 $130 #
straight-curve $-1 -1 $-1 0 0.049999999999999954 -0.24999999999999997 -0.39370078740157477 -2.7837265336087907e-016 0 F -2.1589999999999998 F 0 #
edge $-1 -1 $-1 $62 -0.7853981633974485 $131 2.3561944901923448 $71 $132 forward @7 unknown #
point $-1 -1 $-1 0.59999999999999987 4.3098919523573839e-016 -0.24999999999999997 #
point $-1 -1 $-1 0.59999999999999987 0.050000000000000377 -0.24999999999999997 #
loop $-1 -1 $-1 $-1 $133 $49 #
point $-1 -1 $-1 0.69999999999999984 0.11000000000000044 0 #
coedge $-1 -1 $-1 $134 $135 $136 $137 reversed $67 $-1 #
face $-1 -1 $-1 $138 $139 $2 $-1 $140 forward single #
plane-surface $-1 -1 $-1 0.84999999999999987 0.060000000000000525 0 4.7872383888973746e-016 -1 0 0 0 -0.39370078740157477 forward_v I I I I #
coedge $-1 -1 $-1 $71 $89 $106 $141 forward $46 $-1 #
loop $-1 -1 $-1 $-1 $142 $72 #
cone-surface $-1 -1 $-1 -2.2042914368802792e-016 0.29999999999999999 0 0 0 1 -0.29999999999999999 -4.3709567898628219e-017 0 1 I I 0 1 0.29999999999999999 forward I I I I #
face $-1 -1 $-1 $143 $144 $2 $-1 $145 forward single #
loop $-1 -1 $-1 $-1 $146 $74 #
cone-surface $-1 -1 $-1 0.59999999999999987 0.14827614329451336 0 0 -1 0 0.17677669529663689 0 0.17677669529663681 1 I I 0 1 0.24999999999999997 forward I I I I #
coedge $-1 -1 $-1 $147 $76 $100 $141 reversed $50 $-1 #
coedge $-1 -1 $-1 $76 $148 $79 $111 reversed $50 $-1 #
edge $-1 -1 $-1 $131 0.17342140396806313 $109 0.30042140396806299 $76 $149 forward @7 unknown #
vertex $-1 -1 $-1 $111 $150 #
ellipse-curve $-1 -1 $-1 0.59999999999999987 6.1193395058079484e-016 0 -7.1831532539289746e-016 1 0 0.17677669529663689 0 -0.17677669529663681 1 I I #
edge $-1 -1 $-1 $109 0.63500000000000001 $151 2.1589999999999998 $79 $152 forward @7 unknown #
coedge $-1 -1 $-1 $153 $80 $154 $155 reversed $12 $-1 #
coedge $-1 -1 $-1 $156 $157 $80 $114 forward $144 $-1 #
edge $-1 -1 $-1 $158 -0.35559999999999903 $117 0 $113 $159 forward @7 unknown #
coedge $-1 -1 $-1 $142 $81 $83 $119 forward $101 $-1 #
coedge $-1 -1 $-1 $81 $142 $156 $160 forward $101 $-1 #
vertex $-1 -1 $-1 $160 $161 #
ellipse-curve $-1 -1 $-1 -2.2042914368802792e-016 0.29999999999999999 -0.24999999999999997 0 0 1 -0.29999999999999999 -4.3709567898628219e-017 0 1 F -3.1415926535897931 F 1.5707963267948968 #
edge $-1 -1 $-1 $84 -0.63500000000000001 $151 0.63500000000000001 $115 $162 forward @7 unknown #
point $-1 -1 $-1 0 0 -0.24999999999999997 #
coedge $-1 -1 $-1 $86 $163 $164 $165 reversed $12 $-1 #
coedge $-1 -1 $-1 $166 $167 $86 $123 forward $168 $-1 #
edge $-1 -1 $-1 $127 -0.41909999999999953 $169 0 $122 $170 forward @7 unknown #
coedge $-1 -1 $-1 $171 $87 $167 $172 reversed $126 $-1 #
coedge $-1 -1 $-1 $87 $171 $89 $129 forward $126 $-1 #
loop $-1 -1 $-1 $-1 $171 $173 #
vertex $-1 -1 $-1 $172 $174 #
ellipse-curve $-1 -1 $-1 -2.2042914368802792e-016 0.29999999999999999 -0.24999999999999997 0 0 -1 0.24999999999999994 8.7419135797256401e-017 0 1 F -4.7123889803846897 F -6.1136842428313284e-032 #
edge $-1 -1 $-1 $175 -0.63500000000000001 $90 0.63500000000000001 $125 $176 forward @7 unknown #
point $-1 -1 $-1 0 0.049999999999999954 -0.24999999999999997 #
vertex $-1 -1 $-1 $108 $177 #
ellipse-curve $-1 -1 $-1 0.59999999999999987 0.049999999999999954 0 7.0706653953663287e-016 -1 0 0.17677669529663689 0 -0.17677669529663681 1 I I #
coedge $-1 -1 $-1 $178 $179 $146 $180 reversed $95 $-1 #
coedge $-1 -1 $-1 $181 $97 $182 $183 forward $67 $-1 #
coedge $-1 -1 $-1 $97 $181 $163 $184 forward $67 $-1 #
coedge $-1 -1 $-1 $185 $186 $97 $137 forward $104 $-1 #
edge $-1 -1 $-1 $187 -2.3561944901923448 $188 0.7853981633974485 $97 $189 forward @7 unknown #
face $-1 -1 $-1 $173 $168 $2 $-1 $190 forward single #
loop $-1 -1 $-1 $-1 $191 $98 #
cone-surface $-1 -1 $-1 0.32499999999999962 0.13500000000000015 0 0 0 1 0.0749999999999999 -1.0927391974657052e-016 0 1 I I 0 1 0.0749999999999999 forward I I I I #
edge $-1 -1 $-1 $175 0 $131 1.5239999999999998 $100 $192 forward @7 unknown #
coedge $-1 -1 $-1 $116 $115 $148 $193 forward $101 $-1 #
face $-1 -1 $-1 $68 $194 $2 $-1 $195 forward single #
loop $-1 -1 $-1 $-1 $196 $103 #
plane-surface $-1 -1 $-1 0.29999999999999971 0.30000000000000004 0 1 3.1221119927591663e-016 0 0 0 -0.39370078740157477 forward_v I I I I #
coedge $-1 -1 $-1 $186 $185 $133 $180 forward $104 $-1 #
coedge $-1 -1 $-1 $197 $106 $171 $198 reversed $50 $-1 #
coedge $-1 -1 $-1 $107 $199 $142 $193 reversed $50 $-1 #
straight-curve $-1 -1 $-1 0.59999999999999987 0.11827614329451341 0.24999999999999997 0 -0.39370078740157477 0 F -1.9220795960319361 F 2.2689224039680624 #
point $-1 -1 $-1 0.59999999999999987 4.3098919523573839e-016 0.24999999999999997 #
vertex $-1 -1 $-1 $119 $200 #
straight-curve $-1 -1 $-1 0.84999999999999987 6.1056802658396273e-016 0.24999999999999997 -0.39370078740157477 -2.8280130920980211e-016 0 F 0 F 2.1589999999999998 #
coedge $-1 -1 $-1 $201 $112 $178 $202 reversed $12 $-1 #
coedge $-1 -1 $-1 $203 $204 $112 $155 forward $194 $-1 #
edge $-1 -1 $-1 $205 -1.5707963267948961 $158 0 $154 $206 forward @7 unknown #
coedge $-1 -1 $-1 $196 $113 $116 $160 reversed $144 $-1 #
coedge $-1 -1 $-1 $113 $196 $203 $207 forward $144 $-1 #
vertex $-1 -1 $-1 $207 $208 #
straight-curve $-1 -1 $-1 0.29999999999999971 0.30000000000000004 -0.24999999999999997 -1.2291779499051835e-016 0.39370078740157477 0 F -0.35559999999999903 F 0 #
edge $-1 -1 $-1 $209 -0.63500000000000001 $117 0.63500000000000001 $116 $210 forward @7 unknown #
point $-1 -1 $-1 0.29999999999999971 0.30000000000000004 -0.24999999999999997 #
straight-curve $-1 -1 $-1 0 0 0 0 0 0.39370078740157477 I I #
coedge $-1 -1 $-1 $121 $201 $135 $184 reversed $12 $-1 #
coedge $-1 -1 $-1 $211 $212 $121 $165 forward $139 $-1 #
edge $-1 -1 $-1 $169 -3.1415926535897931 $213 -1.5707963267948928 $164 $214 forward @7 unknown #
coedge $-1 -1 $-1 $215 $122 $212 $216 reversed $168 $-1 #
coedge $-1 -1 $-1 $122 $215 $124 $172 forward $168 $-1 #
loop $-1 -1 $-1 $-1 $215 $138 #
vertex $-1 -1 $-1 $216 $217 #
straight-curve $-1 -1 $-1 0.24999999999999972 0.13500000000000026 -0.24999999999999997 -1.0429388665862147e-016 -0.39370078740157477 0 F -0.41909999999999953 F 0 #
coedge $-1 -1 $-1 $125 $124 $147 $198 forward $126 $-1 #
edge $-1 -1 $-1 $218 -0.63500000000000001 $127 0.63500000000000001 $167 $219 forward @7 unknown #
face $-1 -1 $-1 $47 $126 $2 $-1 $220 forward single #
point $-1 -1 $-1 0.24999999999999975 0.30000000000000004 -0.24999999999999997 #
vertex $-1 -1 $-1 $129 $221 #
straight-curve $-1 -1 $-1 0 0.049999999999999954 0 0 0 -0.39370078740157477 I I #
point $-1 -1 $-1 0.59999999999999987 0.050000000000000377 0.24999999999999997 #
coedge $-1 -1 $-1 $222 $133 $153 $202 forward $95 $-1 #
coedge $-1 -1 $-1 $133 $222 $223 $224 forward $95 $-1 #
edge $-1 -1 $-1 $225 -0.7853981633974485 $226 2.3561944901923448 $133 $227 forward @7 unknown #
coedge $-1 -1 $-1 $135 $134 $211 $228 forward $67 $-1 #
coedge $-1 -1 $-1 $229 $230 $134 $183 reversed $50 $-1 #
edge $-1 -1 $-1 $187 0.63500000000000001 $231 1.3335000000000004 $134 $232 forward @7 unknown #
edge $-1 -1 $-1 $213 -1.3335000000000004 $188 -0.63500000000000001 $135 $233 forward @7 unknown #
coedge $-1 -1 $-1 $146 $136 $201 $234 forward $104 $-1 #
coedge $-1 -1 $-1 $136 $146 $229 $235 forward $104 $-1 #
vertex $-1 -1 $-1 $183 $236 #
vertex $-1 -1 $-1 $234 $237 #
ellipse-curve $-1 -1 $-1 0.59999999999999987 0.060000000000000525 0 -4.7872383888973746e-016 1 0 0.17677669529663689 0 -0.17677669529663681 1 I I #
plane-surface $-1 -1 $-1 0.24999999999999972 0.13500000000000026 0 -1 2.6490647211289855e-016 0 0 0 0.39370078740157477 forward_v I I I I #
coedge $-1 -1 $-1 $212 $211 $230 $238 forward $139 $-1 #
straight-curve $-1 -1 $-1 0 0.049999999999999954 0.24999999999999997 0.39370078740157477 2.7837265336087907e-016 0 F 0 F 2.1589999999999998 #
edge $-1 -1 $-1 $151 -1.5707963267948972 $209 3.1415926535897931 $142 $239 forward @7 unknown #
loop $-1 -1 $-1 $-1 $240 $143 #
cone-surface $-1 -1 $-1 0.34999999999999976 0.16000000000000045 0 0 0 1 -0.049999999999999996 -2.1854783949314103e-017 0 1 I I 0 -1 0.049999999999999996 forward I I I I #
coedge $-1 -1 $-1 $157 $156 $199 $241 forward $144 $-1 #
coedge $-1 -1 $-1 $230 $147 $215 $242 reversed $50 $-1 #
edge $-1 -1 $-1 $218 0 $175 4.7123889803846897 $171 $243 forward @7 unknown #
coedge $-1 -1 $-1 $148 $244 $196 $241 reversed $50 $-1 #
point $-1 -1 $-1 0 0 0.24999999999999997 #
coedge $-1 -1 $-1 $163 $153 $185 $234 reversed $12 $-1 #
edge $-1 -1 $-1 $225 -0.63500000000000034 $205 0 $178 $245 forward @7 unknown #
coedge $-1 -1 $-1 $240 $154 $157 $207 reversed $194 $-1 #
coedge $-1 -1 $-1 $154 $240 $222 $246 forward $194 $-1 #
vertex $-1 -1 $-1 $246 $247 #
ellipse-curve $-1 -1 $-1 0.34999999999999976 0.16000000000000045 -0.24999999999999997 0 0 -1 -0.049999999999999996 -2.1854783949314103e-017 0 1 F -1.5707963267948952 F 0 #
edge $-1 -1 $-1 $248 -0.63500000000000001 $158 0.63500000000000001 $157 $249 forward @7 unknown #
point $-1 -1 $-1 0.29999999999999977 0.16000000000000042 -0.24999999999999997 #
vertex $-1 -1 $-1 $160 $250 #
straight-curve $-1 -1 $-1 0.29999999999999971 0.30000000000000004 0 0 0 -0.39370078740157477 I I #
coedge $-1 -1 $-1 $191 $164 $181 $228 reversed $139 $-1 #
coedge $-1 -1 $-1 $164 $191 $166 $216 forward $139 $-1 #
vertex $-1 -1 $-1 $228 $251 #
ellipse-curve $-1 -1 $-1 0.32499999999999962 0.13500000000000015 -0.24999999999999997 0 0 1 0.0749999999999999 -1.0927391974657052e-016 0 1 F -3.1415926535897931 F -1.5707963267948923 #
coedge $-1 -1 $-1 $167 $166 $197 $242 forward $168 $-1 #
edge $-1 -1 $-1 $252 -0.63500000000000001 $169 0.63500000000000001 $212 $253 forward @7 unknown #
point $-1 -1 $-1 0.24999999999999972 0.13500000000000026 -0.24999999999999997 #
vertex $-1 -1 $-1 $172 $254 #
straight-curve $-1 -1 $-1 0.24999999999999975 0.30000000000000004 0 0 0 -0.39370078740157477 I I #
cone-surface $-1 -1 $-1 -2.2042914368802792e-016 0.29999999999999999 0 0 0 1 0.24999999999999994 8.7419135797256401e-017 0 1 I I 0 -1 0.24999999999999994 forward I I I I #
point $-1 -1 $-1 0 0.049999999999999954 0.24999999999999997 #
coedge $-1 -1 $-1 $179 $178 $204 $246 reversed $95 $-1 #
coedge $-1 -1 $-1 $244 $229 $179 $224 reversed $50 $-1 #
edge $-1 -1 $-1 $255 0 $226 0.63500000000000034 $179 $256 forward @7 unknown #
vertex $-1 -1 $-1 $202 $257 #
vertex $-1 -1 $-1 $180 $258 #
ellipse-curve $-1 -1 $-1 0.59999999999999987 0.11000000000000044 0 0 -1 0 0.17677669529663689 0 -0.17677669529663681 1 I I #
edge $-1 -1 $-1 $231 -0.63500000000000001 $213 0.63500000000000001 $181 $259 forward @7 unknown #
coedge $-1 -1 $-1 $223 $182 $186 $235 reversed $50 $-1 #
coedge $-1 -1 $-1 $182 $197 $191 $238 reversed $50 $-1 #
vertex $-1 -1 $-1 $228 $260 #
straight-curve $-1 -1 $-1 0.84999999999999987 0.060000000000000525 0.24999999999999997 -0.39370078740157477 -1.8847395231879425e-016 0 F 0 F 1.3335000000000004 #
straight-curve $-1 -1 $-1 0.84999999999999987 0.060000000000000525 -0.24999999999999997 0.39370078740157477 1.8847395231879425e-016 0 F -1.3335000000000004 F 0 #
edge $-1 -1 $-1 $188 -0.22422140396806289 $225 -0.097221403968062781 $201 $261 forward @7 unknown #
edge $-1 -1 $-1 $226 0.097221403968062836 $187 0.22422140396806295 $229 $262 forward @7 unknown #
point $-1 -1 $-1 0.59999999999999987 0.0600000000000004 0.24999999999999997 #
point $-1 -1 $-1 0.59999999999999987 0.0600000000000004 -0.24999999999999997 #
edge $-1 -1 $-1 $231 1.5707963267948928 $252 3.1415926535897931 $191 $263 forward @7 unknown #
ellipse-curve $-1 -1 $-1 -2.2042914368802792e-016 0.29999999999999999 0.24999999999999997 0 0 -1 -0.29999999999999999 -4.3709567898628219e-017 0 1 F -1.5707963267948968 F 3.1415926535897931 #
coedge $-1 -1 $-1 $204 $203 $244 $264 forward $194 $-1 #
edge $-1 -1 $-1 $209 0 $248 0.35559999999999903 $196 $265 forward @7 unknown #
edge $-1 -1 $-1 $252 0 $218 0.41909999999999953 $215 $266 forward @7 unknown #
ellipse-curve $-1 -1 $-1 -2.2042914368802792e-016 0.29999999999999999 0.24999999999999997 0 0 1 0.24999999999999994 8.7419135797256401e-017 0 1 F 6.1136842428313284e-032 F 4.7123889803846897 #
coedge $-1 -1 $-1 $199 $223 $240 $264 reversed $50 $-1 #
straight-curve $-1 -1 $-1 0.34999999999999976 0.11000000000000044 -0.24999999999999997 -0.39370078740157477 0 0 F -1.2700000000000005 F 0 #
edge $-1 -1 $-1 $255 -0.63500000000000001 $205 0.63500000000000001 $204 $267 forward @7 unknown #
point $-1 -1 $-1 0.34999999999999976 0.11000000000000044 -0.24999999999999997 #
vertex $-1 -1 $-1 $207 $268 #
straight-curve $-1 -1 $-1 0.29999999999999977 0.16000000000000042 0 0 0 -0.39370078740157477 I I #
point $-1 -1 $-1 0.29999999999999971 0.30000000000000004 0.24999999999999997 #
point $-1 -1 $-1 0.32499999999999979 0.060000000000000268 -0.24999999999999997 #
vertex $-1 -1 $-1 $216 $269 #
straight-curve $-1 -1 $-1 0.24999999999999972 0.13500000000000026 0 0 0 -0.39370078740157477 I I #
point $-1 -1 $-1 0.24999999999999975 0.30000000000000004 0.24999999999999997 #
vertex $-1 -1 $-1 $246 $270 #
straight-curve $-1 -1 $-1 0.34999999999999976 0.11000000000000044 0.24999999999999997 0.39370078740157477 0 0 F 0 F 1.2700000000000005 #
point $-1 -1 $-1 0.59999999999999987 0.11000000000000044 -0.24999999999999997 #
point $-1 -1 $-1 0.59999999999999987 0.11000000000000044 0.24999999999999997 #
straight-curve $-1 -1 $-1 0.32499999999999979 0.060000000000000268 0 0 0 -0.39370078740157477 I I #
point $-1 -1 $-1 0.32499999999999979 0.060000000000000268 0.24999999999999997 #
straight-curve $-1 -1 $-1 0.59999999999999987 0.14827614329451336 -0.24999999999999997 0 0.39370078740157477 0 F -2.1927224039680624 F 1.8712795960319375 #
straight-curve $-1 -1 $-1 0.59999999999999987 0.14827614329451336 0.24999999999999997 0 -0.39370078740157477 0 F -1.8712795960319375 F 2.1927224039680624 #
ellipse-curve $-1 -1 $-1 0.32499999999999962 0.13500000000000015 0.24999999999999997 0 0 -1 0.0749999999999999 -1.0927391974657052e-016 0 1 F 1.5707963267948923 F 3.1415926535897931 #
edge $-1 -1 $-1 $248 0 $255 1.5707963267948961 $240 $271 forward @7 unknown #
straight-curve $-1 -1 $-1 0.29999999999999971 0.30000000000000004 0.24999999999999997 1.2291779499051835e-016 -0.39370078740157477 0 F 0 F 0.35559999999999903 #
straight-curve $-1 -1 $-1 0.24999999999999972 0.13500000000000026 0.24999999999999997 1.0429388665862147e-016 0.39370078740157477 0 F 0 F 0.41909999999999953 #
straight-curve $-1 -1 $-1 0.34999999999999976 0.11000000000000044 0 0 0 -0.39370078740157477 I I #
point $-1 -1 $-1 0.29999999999999977 0.16000000000000042 0.24999999999999997 #
point $-1 -1 $-1 0.24999999999999972 0.13500000000000026 0.24999999999999997 #
point $-1 -1 $-1 0.34999999999999976 0.11000000000000044 0.24999999999999997 #
ellipse-curve $-1 -1 $-1 0.34999999999999976 0.16000000000000045 0.24999999999999997 0 0 1 -0.049999999999999996 -2.1854783949314103e-017 0 1 F 0 F 1.5707963267948952 #
End-of-ACIS-data 