400 0 1 0           
7 Unknown 11 ACIS 6.0 NT 24 Tue Jan 01 14:24:43 2002 
25.399999999999999 9.9999999999999995e-007 1e-010 
body $-1 $1 $-1 $-1 #
lump $-1 $-1 $2 $0 #
shell $-1 $-1 $-1 $3 $-1 $1 #
face $-1 $4 $5 $2 $-1 $6 reversed single #
face $-1 $7 $8 $2 $-1 $9 reversed single #
loop $-1 $10 $11 $3 #
cone-surface $-1 0 0 0.49999999999999994 0 0 1 0.49999999999999994 0 0 1 I I 0 1 0.49999999999999994 reversed I I I I #
face $-1 $12 $13 $2 $-1 $14 forward single #
loop $-1 $-1 $15 $4 #
plane-surface $-1 0 0 0 0 0 -1 0.39370078740157477 0 0 reverse_v I I I I #
loop $-1 $-1 $16 $3 #
coedge $-1 $11 $11 $17 $18 reversed $5 $-1 #
face $-1 $19 $20 $2 $-1 $21 forward single #
loop $-1 $22 $23 $7 #
plane-surface $-1 0 0.41499999999999998 0 0 0 1 0.39370078740157477 0 0 forward_v I I I I #
coedge $-1 $15 $15 $16 $24 forward $8 $-1 #
coedge $-1 $16 $16 $15 $24 reversed $10 $-1 #
coedge $-1 $17 $17 $11 $18 forward $25 $-1 #
edge $-1 $26 $26 $17 $27 forward #
face $-1 $28 $29 $2 $-1 $30 forward single #
loop $-1 $31 $32 $12 #
cone-surface $-1 0 0 -0.012499999999999999 0 0 -1 0 0.82999999999999996 0 1 I I 0 1 0.82999999999999996 forward I I I I #
loop $-1 $-1 $33 $7 #
coedge $-1 $23 $23 $34 $35 reversed $13 $-1 #
edge $-1 $36 $36 $15 $37 forward #
loop $-1 $38 $17 $39 #
vertex $-1 $18 $40 #
ellipse-curve $-1 0 0 0.99999999999999989 0 0 -1 0.49999999999999994 0 0 1 I I #
face $-1 $41 $42 $2 $-1 $43 forward single #
loop $-1 $44 $45 $19 #
torus-surface $-1 0 0 0.21116174842269095 0 0 -1 0.58790890320844336 0.33820181927925991 -1 0 0 forward_v I I I I #
loop $-1 $-1 $34 $12 #
coedge $-1 $32 $32 $46 $47 reversed $20 $-1 #
coedge $-1 $33 $33 $48 $49 forward $22 $-1 #
coedge $-1 $34 $34 $23 $35 forward $31 $-1 #
edge $-1 $50 $50 $34 $51 forward #
vertex $-1 $24 $52 #
ellipse-curve $-1 0 0 0 0 0 1 0.49999999999999994 0 0 1 I I #
loop $-1 $-1 $53 $39 #
face $-1 $-1 $25 $2 $-1 $54 forward single #
point $-1 0.49999999999999994 0 0.99999999999999989 #
face $-1 $39 $55 $2 $-1 $56 forward single #
loop $-1 $-1 $57 $28 #
plane-surface $-1 0 0.31249999999999994 -0.12499999999999999 0 0 -1 -0.39370078740157477 0 0 forward_v I I I I #
loop $-1 $-1 $46 $19 #
coedge $-1 $45 $45 $57 $58 reversed $29 $-1 #
coedge $-1 $46 $46 $32 $47 forward $44 $-1 #
edge $-1 $59 $59 $46 $60 forward #
coedge $-1 $48 $48 $33 $49 reversed $61 $-1 #
edge $-1 $62 $62 $48 $63 forward #
vertex $-1 $35 $64 #
ellipse-curve $-1 0 0 0 0 0 -1 0 0.82999999999999996 0 1 I I #
point $-1 0.49999999999999994 0 0 #
coedge $-1 $53 $53 $65 $66 reversed $38 $-1 #
plane-surface $-1 0.056818181818181768 3.5762373735241262e-017 0.99999999999999989 0 0 1 0.39370078740157477 0 0 forward_v I I I I #
loop $-1 $61 $65 $41 #
cone-surface $-1 0 0 0 0 0 1 -0.62499999999999989 0 0 1 I I 0 1 0.62499999999999989 forward I I I I #
coedge $-1 $57 $57 $45 $58 forward $42 $-1 #
edge $-1 $67 $67 $57 $68 forward #
vertex $-1 $47 $69 #
ellipse-curve $-1 0 0 -0.024999999999999998 0 0 -1 0 0.82999999999999996 0 1 I I #
loop $-1 $-1 $48 $41 #
vertex $-1 $49 $70 #
ellipse-curve $-1 0 0 0 0 0 -1 -0.62499999999999989 0 0 1 I I #
point $-1 0 0.82999999999999996 0 #
coedge $-1 $65 $65 $53 $66 forward $55 $-1 #
edge $-1 $71 $71 $65 $72 forward #
vertex $-1 $58 $73 #
ellipse-curve $-1 0 0 -0.12499999999999999 0 0 -1 0 0.62499999999999989 0 1 I I #
point $-1 0 0.82999999999999996 -0.024999999999999998 #
point $-1 0.62499999999999989 7.6537897113898566e-017 0 #
vertex $-1 $66 $74 #
ellipse-curve $-1 0 0 0.99999999999999989 0 0 -1 -0.62499999999999989 0 0 1 I I #
point $-1 0 0.62499999999999989 -0.12499999999999999 #
point $-1 0.62499999999999989 7.6537897113898566e-017 0.99999999999999989 #
End-of-ACIS-data 