400 0 1 0           
7 Unknown 11 ACIS 6.0 NT 24 Sun Jan 27 14:07:46 2002 
25.399999999999999 9.9999999999999995e-007 1e-010 
body $-1 $1 $-1 $-1 #
lump $-1 $-1 $2 $0 #
shell $-1 $-1 $-1 $3 $-1 $1 #
face $-1 $4 $5 $2 $-1 $6 forward single #
face $-1 $7 $8 $2 $-1 $9 forward single #
loop $-1 $-1 $10 $3 #
cone-surface $-1 0.2142499020681482 -0.038664526370592076 0.062499999999999993 0 1 0 0.044194173824159216 0 -0.044194173824159223 1 I I 0 1 0.062499999999999993 forward I I I I #
face $-1 $11 $12 $2 $-1 $13 forward single #
loop $-1 $-1 $14 $4 #
plane-surface $-1 0.27674990206814815 -0.13366452637059206 0 1 0 0 0 0 -0.39370078740157477 forward_v I I I I #
coedge $-1 $15 $16 $17 $18 forward $5 $-1 #
face $-1 $19 $20 $2 $-1 $21 forward single #
loop $-1 $22 $23 $7 #
plane-surface $-1 -0.66325009793185163 -0.13366452637059206 0 0 1 0 0 0 0.39370078740157477 forward_v I I I I #
coedge $-1 $24 $25 $16 $26 reversed $8 $-1 #
coedge $-1 $27 $10 $28 $29 forward $5 $-1 #
coedge $-1 $10 $27 $14 $26 forward $5 $-1 #
coedge $-1 $30 $31 $10 $18 reversed $32 $-1 #
edge $-1 $33 $34 $17 $35 forward #
face $-1 $36 $32 $2 $-1 $37 forward single #
loop $-1 $-1 $38 $11 #
cone-surface $-1 0.2142499020681482 -0.038664526370592076 0.6875 0 -1 0 0.044194173824159223 0 0.044194173824159223 1 I I 0 1 0.0625 forward I I I I #
loop $-1 $-1 $39 $7 #
coedge $-1 $23 $23 $40 $41 forward $12 $-1 #
coedge $-1 $42 $14 $43 $44 forward $8 $-1 #
coedge $-1 $14 $42 $30 $45 reversed $8 $-1 #
edge $-1 $46 $33 $14 $47 forward #
coedge $-1 $16 $15 $39 $48 forward $5 $-1 #
coedge $-1 $49 $50 $15 $29 reversed $51 $-1 #
edge $-1 $34 $52 $28 $53 forward #
coedge $-1 $54 $17 $25 $45 forward $32 $-1 #
coedge $-1 $17 $55 $49 $56 forward $32 $-1 #
loop $-1 $57 $17 $19 #
vertex $-1 $45 $58 #
vertex $-1 $29 $59 #
ellipse-curve $-1 0.2142499020681482 -0.31866452637059206 0.062499999999999993 0 1 0 0.044194173824159216 0 -0.044194173824159223 1 I I #
face $-1 $60 $61 $2 $-1 $62 forward single #
plane-surface $-1 0.27674990206814815 -0.31866452637059206 0 0 -1 0 0 0 -0.39370078740157477 forward_v I I I I #
coedge $-1 $63 $64 $54 $65 forward $20 $-1 #
coedge $-1 $66 $43 $27 $48 reversed $22 $-1 #
coedge $-1 $40 $40 $23 $41 reversed $67 $-1 #
edge $-1 $68 $68 $23 $69 forward #
coedge $-1 $25 $24 $63 $70 reversed $8 $-1 #
coedge $-1 $39 $71 $24 $44 reversed $22 $-1 #
edge $-1 $46 $72 $24 $73 forward #
edge $-1 $33 $74 $30 $75 forward #
vertex $-1 $44 $76 #
straight-curve $-1 0.27674990206814815 -0.038664526370592076 0.062499999999999993 0 -0.39370078740157477 0 F -1.3684259999999999 F 1.2033260000000001 #
edge $-1 $52 $46 $39 $77 forward #
coedge $-1 $78 $28 $31 $56 reversed $51 $-1 #
coedge $-1 $28 $79 $66 $80 reversed $51 $-1 #
loop $-1 $-1 $28 $81 #
vertex $-1 $80 $82 #
straight-curve $-1 0.2142499020681482 -0.038664526370592076 0 0 0.39370078740157477 0 F -1.2033260000000001 F 1.3684259999999999 #
coedge $-1 $83 $30 $38 $65 reversed $32 $-1 #
coedge $-1 $31 $83 $84 $85 reversed $32 $-1 #
edge $86 $87 $34 $31 $88 forward #
loop $-1 $-1 $89 $19 #
point $-1 0.27674990206814815 -0.31866452637059206 0.062499999999999993 #
point $-1 0.21424990206814812 -0.31866452637059206 0 #
face $-1 $90 $91 $2 $-1 $92 forward single #
loop $-1 $-1 $93 $36 #
plane-surface $-1 -0.51680039378983988 0.056335473629407919 0.75 0 0 1 0.39370078740157477 0 0 forward_v I I I I #
coedge $-1 $94 $38 $42 $70 forward $20 $-1 #
coedge $-1 $38 $94 $93 $95 forward $20 $-1 #
edge $-1 $96 $74 $54 $97 forward #
coedge $-1 $98 $39 $50 $80 forward $22 $-1 #
loop $-1 $-1 $40 $99 #
vertex $-1 $41 $100 #
ellipse-curve $-1 -0.10325009793185165 -0.13366452637059217 0.37499999999999994 0 -1 0 0.1875 0 0 1 I I #
edge $-1 $74 $72 $42 $101 forward #
coedge $-1 $43 $102 $94 $103 reversed $22 $-1 #
vertex $-1 $103 $104 #
straight-curve $-1 0.27674990206814815 -0.13366452637059206 0 0 0 0.39370078740157477 I I #
vertex $-1 $65 $105 #
straight-curve $-1 0.27674990206814815 -0.31866452637059206 0 0 0 0.39370078740157477 I I #
point $-1 0.27674990206814815 -0.13366452637059206 0.062499999999999993 #
ellipse-curve $-1 0.2142499020681482 -0.13366452637059206 0.062499999999999993 0 -1 0 0.044194173824159216 0 -0.044194173824159223 1 I I #
coedge $-1 $106 $49 $107 $108 reversed $51 $-1 #
coedge $-1 $50 $109 $110 $111 reversed $51 $-1 #
edge $-1 $52 $112 $66 $113 forward #
face $-1 $-1 $51 $2 $-1 $114 reversed single #
point $-1 0.2142499020681482 -0.13366452637059206 0 #
coedge $-1 $55 $54 $115 $116 forward $32 $-1 #
coedge $-1 $117 $107 $55 $85 forward $118 $-1 #
edge $-1 $87 $119 $84 $120 forward #
convexity-sys-attrib $-1 $-1 $-1 $56 #
vertex $-1 $108 $121 #
straight-curve $-1 -1.4132500979318516 -0.31866452637059206 0 0.39370078740157477 0 0 F 0 F 4.2926000000000002 #
coedge $-1 $89 $89 $122 $123 forward $57 $-1 #
face $-1 $124 $125 $2 $-1 $126 forward single #
loop $-1 $-1 $127 $60 #
cone-surface $-1 0.21424990206814837 0.24383547362940794 0.062499999999999993 0 1 0 0.044194173824159216 0 -0.044194173824159223 1 I I 0 1 0.062499999999999993 forward I I I I #
coedge $-1 $128 $115 $64 $95 reversed $61 $-1 #
coedge $-1 $64 $63 $71 $103 forward $20 $-1 #
edge $-1 $129 $96 $93 $130 forward #
vertex $-1 $116 $131 #
ellipse-curve $-1 0.2142499020681482 -0.31866452637059206 0.6875 0 1 0 0.044194173824159223 0 0.044194173824159223 1 I I #
coedge $-1 $132 $66 $133 $134 forward $22 $-1 #
face $-1 $135 $136 $2 $-1 $137 reversed single #
point $-1 -0.29075009793185164 -0.13366452637059217 0.37499999999999994 #
straight-curve $-1 0.27674990206814815 -0.038664526370592076 0.6875 0 0.39370078740157477 0 F -1.2033260000000001 F 1.3684259999999999 #
coedge $-1 $71 $138 $128 $139 forward $22 $-1 #
edge $-1 $72 $129 $71 $140 forward #
point $-1 0.27674990206814815 -0.13366452637059206 0.6875 #
point $-1 0.27674990206814815 -0.31866452637059206 0.6875 #
coedge $-1 $141 $78 $142 $143 reversed $51 $-1 #
coedge $-1 $84 $144 $78 $108 forward $118 $-1 #
edge $145 $146 $87 $107 $147 forward #
coedge $-1 $79 $141 $148 $149 reversed $51 $-1 #
coedge $-1 $150 $133 $79 $111 forward $151 $-1 #
edge $-1 $112 $152 $110 $153 forward #
vertex $-1 $80 $154 #
straight-curve $-1 0.27674990206814826 -0.13366452637059206 0 -0.39370078740157477 0 0 F 0 F 2.3875999999999999 #
plane-surface $-1 -0.51680039378984 0.056335473629407933 0 0 0 1 0.39370078740157477 0 0 forward_v I I I I #
coedge $-1 $93 $155 $83 $116 reversed $61 $-1 #
edge $-1 $96 $119 $83 $156 forward #
coedge $-1 $144 $84 $155 $157 forward $118 $-1 #
loop $-1 $-1 $117 $158 #
vertex $-1 $85 $159 #
straight-curve $-1 -1.4132500979318516 -0.31866452637059206 0 0 0 0.39370078740157477 I I #
point $-1 -1.4132500979318516 -0.31866452637059206 0 #
coedge $-1 $122 $122 $89 $123 reversed $136 $-1 #
edge $-1 $160 $160 $89 $161 forward #
face $-1 $162 $163 $2 $-1 $164 forward single #
loop $-1 $-1 $165 $90 #
plane-surface $-1 0.27674990206814837 0.43133547362940788 0 1 0 0 0 0 -0.39370078740157477 forward_v I I I I #
coedge $-1 $166 $167 $168 $169 forward $91 $-1 #
coedge $-1 $170 $93 $102 $139 reversed $61 $-1 #
vertex $-1 $95 $171 #
straight-curve $-1 0.2142499020681482 -0.038664526370592076 0.75 0 -0.39370078740157477 0 F -1.3684259999999999 F 1.2033260000000001 #
point $-1 0.21424990206814812 -0.31866452637059206 0.75 #
coedge $-1 $138 $98 $172 $173 forward $22 $-1 #
coedge $-1 $110 $174 $98 $134 reversed $151 $-1 #
edge $-1 $112 $175 $98 $176 forward #
face $-1 $177 $178 $2 $-1 $137 reversed single #
loop $-1 $67 $122 $99 #
cone-surface $-1 -0.10325009793185165 -1.5639339317392003 0.37499999999999994 0 1 0 0.1875 0 0 1 I I 0 1 0.1875 reversed I I I I #
coedge $-1 $102 $132 $179 $180 forward $22 $-1 #
edge $181 $182 $129 $102 $183 forward #
ellipse-curve $-1 0.2142499020681482 -0.13366452637059206 0.6875 0 -1 0 0.044194173824159223 0 0.044194173824159223 1 I I #
coedge $-1 $109 $106 $167 $184 reversed $51 $-1 #
coedge $-1 $185 $168 $106 $143 forward $186 $-1 #
edge $187 $188 $146 $142 $189 forward #
coedge $-1 $107 $117 $185 $190 reversed $118 $-1 #
convexity-sys-attrib $-1 $-1 $-1 $108 #
vertex $-1 $108 $191 #
straight-curve $-1 -1.4132500979318516 0.43133547362940788 0 0 -0.39370078740157477 0 F 0 F 1.905 #
coedge $-1 $192 $193 $109 $149 forward $194 $-1 #
edge $195 $152 $196 $148 $197 forward #
coedge $-1 $174 $110 $193 $198 forward $151 $-1 #
loop $-1 $-1 $174 $199 #
vertex $-1 $111 $200 #
straight-curve $-1 -0.66325009793185163 -0.13366452637059206 0 0 0.39370078740157477 0 F 0 F 0.96520000000000006 #
point $-1 -0.66325009793185163 -0.13366452637059206 0 #
coedge $-1 $115 $201 $117 $157 reversed $61 $-1 #
straight-curve $-1 -1.4132500979318516 -0.31866452637059206 0.75 -0.39370078740157477 0 0 F -4.2926000000000002 F 0 #
edge $202 $119 $203 $117 $204 forward #
face $-1 $81 $205 $2 $-1 $206 forward single #
point $-1 -1.4132500979318516 -0.31866452637059206 0.75 #
vertex $-1 $123 $207 #
ellipse-curve $-1 -0.10325009793185165 -0.31866452637059212 0.37499999999999994 0 1 0 0.1875 0 0 1 I I #
face $-1 $208 $209 $2 $-1 $210 forward single #
loop $-1 $186 $211 $124 #
plane-surface $-1 -1.4132500979318516 0.43133547362940788 0 0 1 0 0 0 0.39370078740157477 forward_v I I I I #
coedge $-1 $212 $213 $166 $214 reversed $125 $-1 #
coedge $-1 $215 $127 $165 $214 forward $91 $-1 #
coedge $-1 $127 $215 $141 $184 forward $91 $-1 #
coedge $-1 $142 $216 $127 $169 reversed $186 $-1 #
edge $217 $188 $218 $168 $219 forward #
coedge $-1 $220 $128 $221 $222 reversed $61 $-1 #
point $-1 0.2142499020681482 -0.13366452637059206 0.75 #
coedge $-1 $223 $223 $132 $173 reversed $224 $-1 #
edge $-1 $175 $225 $132 $226 forward #
coedge $-1 $133 $150 $227 $228 forward $151 $-1 #
vertex $-1 $173 $229 #
straight-curve $-1 -0.66325009793185163 -0.13366452637059206 0 0 0 0.39370078740157477 I I #
face $-1 $158 $194 $2 $-1 $230 forward single #
loop $-1 $231 $232 $135 #
coedge $-1 $233 $221 $138 $180 reversed $234 $-1 #
edge $-1 $225 $182 $138 $176 forward #
convexity-sys-attrib $-1 $-1 $-1 $139 #
vertex $-1 $180 $235 #
straight-curve $-1 0.27674990206814826 -0.13366452637059206 0.75 0.39370078740157477 0 0 F -2.3875999999999999 F 0 #
edge $236 $196 $188 $141 $237 forward #
coedge $-1 $238 $142 $144 $190 forward $186 $-1 #
loop $-1 $-1 $168 $124 #
convexity-sys-attrib $-1 $-1 $-1 $143 #
vertex $-1 $143 $239 #
straight-curve $-1 0.27674990206814826 0.43133547362940788 0 -0.39370078740157477 0 0 F 0 F 4.2926000000000002 #
edge $240 $146 $203 $185 $241 forward #
point $-1 -1.4132500979318516 0.43133547362940788 0 #
coedge $-1 $242 $148 $215 $243 reversed $194 $-1 #
coedge $-1 $148 $244 $150 $198 reversed $194 $-1 #
loop $-1 $245 $192 $177 #
convexity-sys-attrib $-1 $-1 $-1 $149 #
vertex $-1 $184 $246 #
straight-curve $-1 -0.66325009793185152 0.24633547362940791 0 0.39370078740157477 0 0 F 0 F 2.3875999999999999 #
edge $-1 $152 $247 $150 $248 forward #
face $-1 $99 $151 $2 $-1 $249 forward single #
point $-1 -0.66325009793185163 0.24633547362940791 0 #
coedge $-1 $155 $250 $238 $251 reversed $61 $-1 #
convexity-sys-attrib $-1 $-1 $-1 $157 #
vertex $-1 $190 $252 #
straight-curve $-1 -1.4132500979318516 0.43133547362940788 0.75 0 0.39370078740157477 0 F -1.905 F 0 #
loop $-1 $118 $253 $158 #
plane-surface $-1 -1.4132500979318516 -0.31866452637059206 0 -1 0 0 0 0 0.39370078740157477 forward_v I I I I #
point $-1 -0.29075009793185164 -0.31866452637059212 0.37499999999999994 #
face $-1 $254 $224 $2 $-1 $255 reversed single #
loop $-1 $-1 $256 $162 #
cone-surface $-1 0.21424990206814837 0.24383547362940788 0.6875 0 -1 0 0.044194173824159223 0 0.044194173824159223 1 I I 0 1 0.0625 forward I I I I #
coedge $-1 $211 $211 $257 $258 forward $163 $-1 #
coedge $-1 $259 $165 $216 $260 forward $125 $-1 #
coedge $-1 $165 $259 $242 $261 reversed $125 $-1 #
edge $262 $218 $263 $165 $264 forward #
coedge $-1 $167 $166 $192 $243 forward $91 $-1 #
coedge $-1 $168 $265 $212 $260 reversed $186 $-1 #
convexity-sys-attrib $-1 $-1 $-1 $169 #
vertex $-1 $260 $266 #
ellipse-curve $-1 0.21424990206814837 0.43133547362940788 0.062499999999999993 0 -1 0 0.044194173824159216 0 -0.044194173824159223 1 I I #
coedge $-1 $250 $170 $267 $268 reversed $61 $-1 #
coedge $-1 $179 $269 $170 $222 forward $234 $-1 #
edge $-1 $270 $182 $221 $271 forward #
coedge $-1 $172 $172 $272 $273 forward $224 $-1 #
loop $-1 $-1 $172 $208 #
vertex $-1 $180 $274 #
intcurve-curve $-1 forward { exactcur nurbs 2 open 2 
	0 2 0.60154934196458754 2 
	-0.66325009793185163 -0.13366452637059206 0.25825669184060263 1 
	-0.62652754467298788 -0.13366452637059206 0.37499999999999994 1.1736842105263152 
	-0.66325009793185163 -0.13366452637059206 0.49174330815939721 1 
	0 
	null_surface 
	null_surface 
	nullbs 
	nullbs 
	I I 
	0 
	0 
	0 
	F 1 F 0 } I I #
coedge $-1 $275 $272 $174 $228 reversed $276 $-1 #
edge $-1 $247 $175 $174 $277 forward #
point $-1 -0.66325009793185163 -0.13366452637059206 0.25825669184060263 #
plane-surface $-1 0.27674990206814837 0.24633547362940791 0 0 -1 0 0 0 -0.39370078740157477 forward_v I I I I #
loop $-1 $-1 $257 $135 #
coedge $-1 $232 $232 $278 $279 reversed $178 $-1 #
coedge $-1 $269 $179 $280 $281 forward $234 $-1 #
loop $-1 $-1 $233 $282 #
point $-1 -0.66325009793185163 -0.13366452637059206 0.75 #
convexity-sys-attrib $-1 $-1 $-1 $184 #
straight-curve $-1 0.21424990206814837 0.24383547362940794 0 0 0.39370078740157477 0 F -1.6033760000000001 F 0.96837599999999979 #
coedge $-1 $265 $185 $201 $251 forward $186 $-1 #
point $-1 0.21424990206814837 0.43133547362940788 0 #
convexity-sys-attrib $-1 $-1 $-1 $190 #
straight-curve $-1 -1.4132500979318516 0.43133547362940788 0 0 0 0.39370078740157477 I I #
coedge $-1 $283 $192 $213 $261 forward $194 $-1 #
edge $-1 $263 $196 $192 $284 forward #
coedge $-1 $193 $285 $286 $287 forward $194 $-1 #
loop $-1 $-1 $278 $177 #
point $-1 0.21424990206814837 0.24633547362940791 0 #
vertex $-1 $228 $288 #
straight-curve $-1 -0.66325009793185163 0.24633547362940791 0 0 0 0.39370078740157477 I I #
plane-surface $-1 -0.66325009793185163 0.24633547362940791 0 1 0 0 0 0 -0.39370078740157477 forward_v I I I I #
coedge $-1 $201 $220 $289 $290 reversed $61 $-1 #
edge $291 $203 $292 $238 $293 forward #
point $-1 -1.4132500979318516 0.43133547362940788 0.75 #
coedge $-1 $253 $253 $294 $295 forward $205 $-1 #
face $-1 $296 $297 $2 $-1 $255 reversed single #
cone-surface $-1 -0.59625413891027867 0.056335473629407919 0.37499999999999994 -1 0 0 0 0 0.1115 1 I I 0.85716730070211233 0.51503807491005416 0.1115 reversed I I I I #
coedge $-1 $289 $298 $265 $299 forward $209 $-1 #
coedge $-1 $257 $257 $211 $258 reversed $231 $-1 #
edge $-1 $300 $300 $211 $301 forward #
coedge $-1 $213 $212 $298 $302 reversed $125 $-1 #
edge $303 $218 $304 $212 $305 forward #
edge $-1 $263 $306 $242 $307 forward #
convexity-sys-attrib $-1 $-1 $-1 $214 #
vertex $-1 $261 $308 #
straight-curve $-1 0.27674990206814837 0.24383547362940794 0.062499999999999993 0 -0.39370078740157477 0 F -0.96837599999999979 F 1.6033760000000001 #
coedge $-1 $216 $238 $256 $299 reversed $186 $-1 #
point $-1 0.27674990206814837 0.43133547362940788 0.062499999999999993 #
coedge $-1 $285 $283 $220 $268 forward $194 $-1 #
edge $-1 $309 $270 $267 $310 forward #
coedge $-1 $221 $233 $285 $311 forward $234 $-1 #
vertex $-1 $311 $312 #
straight-curve $-1 -0.66325009793185163 -0.13366452637059206 0.75 0 -0.39370078740157477 0 F -0.96520000000000006 F 0 #
coedge $-1 $227 $280 $223 $273 reversed $276 $-1 #
edge $-1 $175 $225 $272 $313 forward #
point $-1 -0.66325009793185163 -0.13366452637059206 0.49174330815939721 #
coedge $-1 $280 $227 $314 $315 reversed $276 $-1 #
loop $-1 $-1 $280 $296 #
ellipse-curve $-1 -0.66325009793185163 0.056335473629407919 0.37499999999999994 -1 0 0 0 0 0.223 1 I I #
coedge $-1 $278 $278 $232 $279 forward $245 $-1 #
edge $-1 $316 $316 $278 $317 forward #
coedge $-1 $272 $275 $233 $281 reversed $276 $-1 #
edge $-1 $225 $318 $233 $277 forward #
face $-1 $199 $234 $2 $-1 $249 forward single #
coedge $-1 $267 $242 $319 $320 reversed $194 $-1 #
ellipse-curve $-1 0.21424990206814837 0.24633547362940791 0.062499999999999993 0 1 0 0.044194173824159216 0 -0.044194173824159223 1 I I #
coedge $-1 $244 $267 $269 $311 reversed $194 $-1 #
coedge $-1 $314 $314 $244 $287 reversed $297 $-1 #
edge $-1 $318 $247 $244 $321 forward #
point $-1 -0.66325009793185175 0.24633547362940791 0.25825669184060263 #
coedge $-1 $319 $256 $250 $290 forward $209 $-1 #
edge $322 $292 $309 $250 $323 forward #
convexity-sys-attrib $-1 $-1 $-1 $251 #
vertex $-1 $299 $324 #
straight-curve $-1 0.27674990206814826 0.43133547362940788 0.75 0.39370078740157477 0 0 F -4.2926000000000002 F 0 #
coedge $-1 $294 $294 $253 $295 reversed $325 $-1 #
edge $-1 $326 $326 $253 $327 forward #
face $-1 $282 $325 $2 $-1 $328 reversed single #
loop $-1 $-1 $286 $254 #
coedge $-1 $256 $319 $259 $302 forward $209 $-1 #
edge $329 $304 $292 $265 $330 forward #
vertex $-1 $258 $331 #
ellipse-curve $-1 -0.10325009793185165 0.43133547362940788 0.37499999999999994 0 -1 0 0.1875 0 0 1 I I #
edge $332 $306 $304 $259 $333 forward #
convexity-sys-attrib $-1 $-1 $-1 $260 #
vertex $-1 $299 $334 #
straight-curve $-1 0.27674990206814837 0.43133547362940788 0 0 0 0.39370078740157477 I I #
vertex $-1 $302 $335 #
straight-curve $-1 0.27674990206814837 0.24633547362940791 0 0 0 0.39370078740157477 I I #
point $-1 0.27674990206814837 0.24633547362940791 0.062499999999999993 #
vertex $-1 $268 $336 #
straight-curve $-1 -0.66325009793185152 0.24633547362940791 0.75 -0.39370078740157477 0 0 F -2.3875999999999999 F 0 #
edge $-1 $318 $270 $269 $248 forward #
point $-1 -0.66325009793185163 0.24633547362940791 0.75 #
ellipse-curve $-1 -0.66325009793185175 0.056335473629407919 0.37499999999999994 -1 0 0 0 0 0.223 1 I I #
coedge $-1 $286 $286 $275 $315 forward $297 $-1 #
edge $-1 $318 $247 $275 $313 forward #
vertex $-1 $279 $337 #
ellipse-curve $-1 -0.10325009793185165 0.24633547362940791 0.37499999999999994 0 1 0 0.1875 0 0 1 I I #
vertex $-1 $311 $338 #
coedge $-1 $298 $289 $283 $320 forward $209 $-1 #
edge $-1 $309 $306 $283 $339 forward #
intcurve-curve $-1 forward { exactcur nurbs 2 open 2 
	0 2 0.60154934196458754 2 
	-0.66325009793185163 0.24633547362940791 0.49174330815939721 1 
	-0.62652754467298788 0.24633547362940791 0.37499999999999994 1.1736842105263152 
	-0.66325009793185163 0.24633547362940791 0.25825669184060263 1 
	0 
	null_surface 
	null_surface 
	nullbs 
	nullbs 
	I I 
	0 
	0 
	0 
	F 1 F 0 } I I #
convexity-sys-attrib $-1 $-1 $-1 $290 #
straight-curve $-1 0.21424990206814837 0.24383547362940788 0.75 0 -0.39370078740157477 0 F -0.9683759999999999 F 1.6033759999999999 #
point $-1 0.21424990206814837 0.43133547362940788 0.75 #
loop $-1 $276 $294 $296 #
vertex $-1 $295 $340 #
ellipse-curve $-1 -1.4132500979318516 0.056335473629407919 0.37499999999999994 1 0 0 0 0 0.223 1 I I #
cone-surface $-1 -1.0382500979318516 0.056335473629407919 0.37499999999999994 -1 0 0 0 0 0.223 1 I I 0 1 0.223 reversed I I I I #
convexity-sys-attrib $-1 $-1 $-1 $299 #
ellipse-curve $-1 0.21424990206814837 0.43133547362940788 0.6875 0 -1 0 0.044194173824159223 0 0.044194173824159223 1 I I #
point $-1 0.08424990206814828 0.43133547362940788 0.37499999999999994 #
convexity-sys-attrib $-1 $-1 $-1 $302 #
straight-curve $-1 0.27674990206814837 0.24383547362940788 0.6875 0 0.39370078740157477 0 F -1.6033759999999999 F 0.9683759999999999 #
point $-1 0.27674990206814837 0.43133547362940788 0.6875 #
point $-1 0.27674990206814837 0.24633547362940791 0.6875 #
point $-1 0.21424990206814837 0.24633547362940791 0.75 #
point $-1 -0.29075009793185164 0.24633547362940791 0.37499999999999994 #
point $-1 -0.66325009793185175 0.24633547362940791 0.49174330815939721 #
ellipse-curve $-1 0.21424990206814837 0.24633547362940791 0.6875 0 1 0 0.044194173824159223 0 0.044194173824159223 1 I I #
point $-1 -1.4132500979318516 0.056335473629407919 0.59799999999999998 #
End-of-ACIS-data 