400 0 1 0           
7 Unknown 11 ACIS 6.0 NT 24 Fri Jan 11 21:45:45 2002 
25.399999999999999 9.9999999999999995e-007 1e-010 
body $-1 $1 $-1 $-1 #
lump $-1 $-1 $2 $0 #
shell $-1 $-1 $-1 $3 $-1 $1 #
face $-1 $4 $5 $2 $-1 $6 forward single #
face $-1 $7 $8 $2 $-1 $9 reversed single #
loop $-1 $10 $11 $3 #
cone-surface $-1 0.51937325412539914 0.22711088866055909 0.99218499999999998 0 0 1 -0.32031499999999996 0 0 1 I I -0.70710678118655146 -0.70710678118654358 0.32031499999999996 forward I I I I #
face $-1 $12 $13 $2 $-1 $14 forward single #
loop $-1 $15 $16 $4 #
cone-surface $-1 0.51937325412539914 0.22711088866055909 -1.9685855217594792 0 0 1 0.31249999999999994 0 0 1 I I 0 1 0.31249999999999994 reversed I I I I #
loop $-1 $-1 $17 $3 #
coedge $-1 $11 $11 $18 $19 forward $5 $-1 #
face $-1 $20 $21 $2 $-1 $22 forward single #
loop $-1 $23 $24 $7 #
plane-surface $-1 0.51937325412539925 0.060444221993892454 0.99999999999999989 0 0 1 0.39370078740157477 0 0 forward_v I I I I #
loop $-1 $25 $26 $4 #
coedge $-1 $16 $16 $27 $28 reversed $8 $-1 #
coedge $-1 $17 $17 $29 $30 forward $10 $-1 #
coedge $-1 $18 $18 $11 $19 reversed $25 $-1 #
edge $-1 $31 $31 $18 $32 forward #
face $-1 $33 $34 $2 $-1 $35 reversed single #
loop $-1 $-1 $36 $12 #
spline-surface $-1 forward { srfsrfblndsur 11 blendsupsur cone 0.51937325412539914 0.60211088866055906 0.49999999999999994 0 1 0 0.064999999999999988 0 0 1 I I 0 -1 0.064999999999999988 reversed I I I I null_curve nullbs 0 0 0 
	11 blendsupsur cone 0.51937325412539914 0.22711088866055912 0 0 0 1 -0.44194173824159211 0.44194173824159211 0 1 I I 0 1 0.62499999999999978 forward I I I I null_curve nullbs 0 0 0 
	intcurve forward { exactcur nubs 3 periodic 15 
	0 3 0.053220015927193776 1 0.10644003185438755 1 0.21382258932163525 1 0.32516569808519158 1 
	0.43650880684874749 1 0.54389136431599472 1 0.65033139617038305 1 0.75677142802477126 1 0.8641539854920175 1 
	0.97549709425557474 1 1.0868402030191309 1 1.194222760486378 1 1.2474427764135725 1 1.3006627923407668 3 
	0.51937325412539914 0.83476128692573093 0.58234960173482786 
	0.5240157204972532 0.83476128692573093 0.58234960173482786 
	0.53334176224277285 0.83476128692573093 0.58234960173482786 
	0.56191257111708703 0.83368321105688969 0.57487322424820431 
	0.59366027242050201 0.8303358799406767 0.54381784470646166 
	0.60582259352518442 0.82855441714419853 0.5 
	0.59367814964193555 0.83033587994067692 0.45618215529353862 
	0.56184426941310195 0.83368321105688936 0.42512677575179542 
	0.51937325412539925 0.83529794879193031 0.41392868738160138 
	0.47690223883769645 0.83368321105688969 0.42512677575179519 
	0.44506835860886268 0.83033587994067659 0.45618215529353845 
	0.43292391472561387 0.82855441714419886 0.49999999999999972 
	0.44508623583029616 0.83033587994067626 0.54381784470646133 
	0.47683393713371097 0.83368321105688981 0.57487322424820475 
	0.50540474600802521 0.83476128692573093 0.58234960173482786 
	0.51473078775354497 0.83476128692573093 0.58234960173482786 
	0.51937325412539914 0.83476128692573093 0.58234960173482786 
	0 
	null_surface 
	null_surface 
	nullbs 
	nullbs 
	I I 
	0 
	0 
	0 
	F 1 F 0 } I I 0 0 
	two_radii two_ends calibrated 0 1.3006627923407668 0.017349601734827892 0.017349601734827892 two_ends calibrated 0 1.3006627923407668 0.017349601734827892 0.017349601734827892 rounded_chamfer radius two_ends calibrated 0 1.3006627923407668 0 0 
	F 0 F 1 F 0 F 1 F 0 F 1.3006627923407668 0 2 
	I I 
	1 -1 0.0011448551167794183 
	1 
	null_curve 
	convex 
	rb_snapshot 
	} I I I I #
loop $-1 $-1 $29 $7 #
coedge $-1 $37 $38 $39 $40 reversed $13 $-1 #
loop $-1 $-1 $18 $4 #
coedge $-1 $26 $26 $41 $42 forward $15 $-1 #
coedge $-1 $27 $27 $16 $28 forward $43 $-1 #
edge $-1 $44 $44 $16 $45 forward #
coedge $-1 $29 $29 $17 $30 reversed $23 $-1 #
edge $-1 $46 $46 $29 $47 forward #
vertex $-1 $19 $48 #
ellipse-curve $-1 0.51937325412539914 0.22711088866055909 0.98437000000000008 0 0 -1 -0.31249999999999994 0 0 1 I I #
face $-1 $49 $50 $2 $-1 $51 forward single #
loop $-1 $52 $41 $20 #
cone-surface $-1 0.51937325412539914 0.60211088866055906 0.49999999999999994 0 1 0 0.064999999999999988 0 0 1 I I 0 1 0.064999999999999988 reversed I I I I #
coedge $-1 $53 $54 $55 $56 forward $21 $57 #
coedge $-1 $58 $24 $59 $60 reversed $13 $-1 #
coedge $-1 $24 $61 $62 $63 reversed $13 $-1 #
coedge $-1 $64 $65 $24 $40 forward $50 $-1 #
edge $-1 $66 $67 $24 $68 forward #
coedge $-1 $41 $41 $26 $42 reversed $34 $-1 #
edge $-1 $69 $69 $26 $70 forward #
loop $-1 $71 $27 $49 #
vertex $-1 $28 $72 #
ellipse-curve $-1 0.51937325412539914 0.22711088866055909 0.015630000000000158 0 0 1 0.31249999999999994 0 0 1 I I #
vertex $-1 $30 $73 #
ellipse-curve $-1 0.51937325412539914 0.22711088866055909 0.99999999999999989 0 0 1 -0.32812999999999992 0 0 1 I I #
point $-1 0.83187325412539914 0.22711088866055909 0.98437000000000008 #
face $-1 $74 $43 $2 $-1 $75 forward single #
loop $-1 $76 $39 $33 #
cone-surface $-1 0.51937325412539914 0.22711088866055912 0 0 0 1 -0.44194173824159211 0.44194173824159211 0 1 I I 0 1 0.62499999999999978 forward I I I I #
loop $-1 $-1 $77 $20 #
coedge $-1 $55 $36 $78 $79 forward $21 $80 #
coedge $-1 $36 $55 $77 $81 forward $21 $82 #
coedge $-1 $54 $53 $36 $56 reversed $21 $83 #
edge $-1 $84 $85 $36 $86 forward #
pcurve $-1 1 $87 0 0 #
coedge $-1 $88 $37 $89 $90 reversed $13 $-1 #
coedge $-1 $91 $92 $37 $60 forward $93 $-1 #
edge $-1 $94 $66 $59 $95 forward #
coedge $-1 $38 $96 $97 $98 reversed $13 $-1 #
coedge $-1 $99 $100 $38 $63 forward $101 $-1 #
edge $-1 $67 $102 $62 $103 forward #
coedge $-1 $104 $39 $100 $105 reversed $50 $-1 #
coedge $-1 $39 $104 $91 $106 reversed $50 $-1 #
vertex $-1 $40 $107 #
vertex $-1 $40 $108 #
ellipse-curve $-1 0.51937325412539925 0.22711088866055912 0.99999999999999989 0 0 -1 0.44194173824159211 0.44194173824159227 0 1 I I #
vertex $-1 $42 $109 #
intcurve-curve $-1 forward { surfintcur nubs 3 periodic 17 
	0 3 0.062389411454029944 2 0.12477882290805989 2 0.1871641317142185 2 0.24954944052037711 2 
	0.3119347493265357 2 0.37432005813269431 2 0.43670946958672424 2 0.49909888104075417 2 0.56148829249478416 2 
	0.62387770394881414 2 0.68626301275497259 2 0.74864832156113104 2 0.81103363036728948 2 0.87341893917344793 2 
	0.93580835062747791 2 0.9981977620815079 3 
	0.45437325412539914 0.53277614674528151 0.49999999999999978 
	0.45437325412539903 0.53277614674528151 0.50818758680499065 
	0.45601445313223338 0.53313925329753664 0.5169039942601853 
	0.46265522890319827 0.53443931725737759 0.53291122235125732 
	0.46765355414944371 0.53535625751643445 0.54020418157829531 
	0.47916869392422529 0.53706850458479116 0.551719321353077 
	0.48646181348976925 0.5379767101368591 0.5567179429867839 
	0.50246960047617995 0.53925666930848248 0.56335893397706616 
	0.51118620572564077 0.53961088866055895 0.56499999999999972 
	0.5275603025251574 0.53961088866055895 0.56499999999999972 
	0.53627690777461823 0.53925666930848248 0.56335893397706616 
	0.55228469476102893 0.5379767101368591 0.5567179429867839 
	0.55957781432657294 0.53706850458479116 0.551719321353077 
	0.57109295410135452 0.53535625751643445 0.54020418157829531 
	0.57609127934759996 0.53443931725737759 0.53291122235125732 
	0.58273205511856485 0.53313925329753664 0.5169039942601853 
	0.5843732541253992 0.53277614674528151 0.50818758680499065 
	0.58437325412539909 0.53277614674528151 0.4918124131950089 
	0.58273205511856463 0.53313925329753664 0.48309600573981437 
	0.57609127934759974 0.5344393172573777 0.46708877764874251 
	0.57109295410135452 0.53535625751643445 0.45979581842170425 
	0.55957781432657283 0.53706850458479116 0.44828067864692261 
	0.5522846947610287 0.5379767101368591 0.44328205701321588 
	0.53627690777461789 0.53925666930848248 0.43664106602293373 
	0.5275603025251574 0.53961088866055895 0.43499999999999989 
	0.51118620572564077 0.53961088866055895 0.43499999999999989 
	0.50246960047618039 0.53925666930848248 0.43664106602293373 
	0.48646181348976952 0.5379767101368591 0.44328205701321588 
	0.4791686939242254 0.53706850458479116 0.44828067864692261 
	0.46765355414944376 0.53535625751643445 0.45979581842170425 
	0.46265522890319855 0.5344393172573777 0.46708877764874251 
	0.45601445313223365 0.53313925329753664 0.48309600573981437 
	0.4543732541253992 0.53277614674528151 0.4918124131950089 
	0.45437325412539914 0.53277614674528151 0.49999999999999978 
	5.7100107030080483e-005 
	cone 0.51937325412539914 0.60211088866055906 0.49999999999999994 0 1 0 0.064999999999999988 0 0 1 I I 0 1 0.064999999999999988 reversed I I I I 
	cone 0.51937325412539914 0.22711088866055909 -1.9685855217594792 0 0 1 0.31249999999999994 0 0 1 I I 0 -1 0.31249999999999994 reversed I I I I 
	nullbs 
	nullbs 
	I I 
	0 
	0 
	0 
	} I I #
loop $-1 $-1 $110 $49 #
point $-1 0.20687325412539917 0.22711088866055909 0.015630000000000158 #
point $-1 0.84750325412539895 0.22711088866055909 0.99999999999999989 #
face $-1 $111 $112 $2 $-1 $113 reversed single #
cone-surface $-1 0.51937325412539914 0.22711088866055909 0.0078150000000000788 0 0 -1 0.32031499999999996 0 0 1 I I -0.70710678118654346 -0.70710678118655146 0.32031499999999996 forward I I I I #
loop $-1 $-1 $78 $33 #
coedge $-1 $77 $77 $54 $81 reversed $52 $-1 #
coedge $-1 $78 $78 $53 $79 reversed $76 $-1 #
edge $-1 $85 $85 $78 $114 forward #
pcurve $-1 0 forward { exppc nubs 1 periodic 17 
	0 1 0.081291424521297923 1 0.16258284904259585 1 0.24387427356389377 1 0.32516569808519169 1 
	0.40645712260648958 1 0.48774854712778754 1 0.56903997164908549 1 0.65033139617038338 1 0.73162282069168127 1 
	0.81291424521297917 1 0.89420566973427706 1 0.97549709425557496 1 1.0567885187768731 1 1.1177570871678464 1 
	1.2092099397543066 1 1.3006627923407668 1 
	1 0 
	1 0.081291424521297923 
	1 0.16258284904259585 
	1 0.24387427356389377 
	1 0.32516569808519169 
	1 0.40645712260648958 
	1 0.48774854712778754 
	1 0.56903997164908549 
	1 0.65033139617038338 
	1 0.73162282069168127 
	1 0.81291424521297917 
	1 0.89420566973427706 
	1 0.97549709425557496 
	1 1.0567885187768731 
	1 1.1177570871678464 
	1 1.2092099397543066 
	1 1.3006627923407668 
	0.00039335964409891301 
	spline forward { ref 0 } I I I I 
	} 0 0 #
edge $-1 $84 $84 $77 $115 forward #
pcurve $-1 0 reversed { exppc nubs 1 periodic 17 
	0 1 0.081291424521297923 1 0.16258284904259585 1 0.24387427356389377 1 0.32516569808519169 1 
	0.40645712260648958 1 0.48774854712778754 1 0.56903997164908549 1 0.65033139617038338 1 0.73162282069168127 1 
	0.81291424521297917 1 0.89420566973427706 1 0.97549709425557496 1 1.0567885187768731 1 1.1177570871678464 1 
	1.2092099397543066 1 1.3006627923407668 1 
	0 0 
	0 0.081291424521297923 
	0 0.16258284904259585 
	0 0.24387427356389377 
	0 0.32516569808519169 
	0 0.40645712260648958 
	0 0.48774854712778754 
	0 0.56903997164908549 
	0 0.65033139617038338 
	0 0.73162282069168127 
	0 0.81291424521297917 
	0 0.89420566973427706 
	0 0.97549709425557496 
	0 1.0567885187768731 
	0 1.1177570871678464 
	0 1.2092099397543066 
	0 1.3006627923407668 
	0.00030187633933514589 
	spline forward { ref 0 } I I I I 
	} 0 0 #
pcurve $-1 -1 $116 0 1.3006627923407668 #
vertex $-1 $81 $117 #
vertex $-1 $79 $118 #
intcurve-curve $-1 forward { parcur nurbs 1 open 2 
	0 1 1 1 
	0.51937325412539914 0.83476128692573093 0.56499999999999995 1 
	0.51937325412539903 0.85211088866055906 0.58234960173482786 1 
	0 
	spline forward { ref 0 } I I I I 
	null_surface 
	nubs 1 open 2 
	0 1 1 1 
	0 0 
	1 0 
	
	nullbs 
	I I 
	0 
	0 
	0 
	surf1 } I I #
intcurve-curve $-1 forward { ref 5 } I I #
coedge $-1 $119 $58 $120 $121 reversed $13 $-1 #
coedge $-1 $122 $123 $58 $90 forward $124 $-1 #
edge $125 $126 $94 $89 $127 forward #
coedge $-1 $128 $59 $65 $106 forward $93 $-1 #
coedge $-1 $59 $129 $122 $130 forward $93 $-1 #
loop $-1 $-1 $129 $131 #
vertex $-1 $90 $132 #
ellipse-curve $-1 -0.4806267458746008 0.22711088866055903 0.99999999999999989 0 0 1 0.26516504294495535 -0.2651650429449553 0 1 I I #
coedge $-1 $61 $119 $133 $134 reversed $13 $-1 #
coedge $-1 $135 $136 $61 $98 forward $137 $-1 #
edge $-1 $102 $138 $97 $139 forward #
coedge $-1 $140 $62 $136 $141 forward $101 $-1 #
coedge $-1 $62 $142 $64 $105 forward $101 $-1 #
loop $-1 $-1 $140 $143 #
vertex $-1 $98 $144 #
ellipse-curve $-1 1.5193732541253993 0.22711088866055931 0.99999999999999989 0 0 1 -0.26516504294495519 -0.26516504294495535 0 1 I I #
coedge $-1 $65 $64 $145 $146 forward $50 $-1 #
edge $-1 $147 $67 $100 $148 forward #
edge $-1 $66 $149 $91 $150 forward #
point $-1 -0.10562674587460079 0.22711088866055903 0.99999999999999989 #
point $-1 1.1443732541253993 0.2271108886605592 0.99999999999999989 #
point $-1 0.45437325412539914 0.53277614674528151 0.49999999999999978 #
coedge $-1 $110 $110 $151 $152 forward $71 $-1 #
face $-1 $153 $154 $2 $-1 $155 forward single #
loop $-1 $156 $145 $74 #
plane-surface $-1 0.51937325412539925 0.060444221993892454 0 0 0 1 0.39370078740157477 0 0 forward_v I I I I #
intcurve-curve $-1 forward { blndsprngcur nubs 3 periodic 17 
	0 3 0.081291424521297923 2 0.16258284904259585 2 0.24387427356389377 2 0.32516569808519169 2 
	0.40645712260648958 2 0.48774854712778754 2 0.56903997164908549 2 0.65033139617038338 2 0.73162282069168127 2 
	0.81291424521297917 2 0.89420566973427706 2 0.97549709425557496 2 1.0567885187768731 2 1.1177570871678464 2 
	1.2092099397543066 2 1.3006627923407668 3 
	0.51937325412539903 0.85211088866055906 0.58234960173482786 
	0.52666690096589353 0.85211088866055906 0.58234960173482786 
	0.53473114479890205 0.85200986947711488 0.58168551024695658 
	0.55565137485196958 0.85114494140772923 0.57517596909852731 
	0.56677176166181154 0.85038201456953522 0.56934323894546945 
	0.58551045699297322 0.84867294131932258 0.55289093478923113 
	0.59283551338025464 0.84779547230629015 0.54253730276437073 
	0.60194108028241788 0.84664991890321151 0.52159774878395671 
	0.60407409729312966 0.84634490514114236 0.51079173624930529 
	0.60407409729312966 0.84634490514114236 0.48920826375069432 
	0.60186023673456313 0.8466585267420258 0.47840623930039966 
	0.59335372303461931 0.84773176195782474 0.45847394008775039 
	0.58707827219599773 0.84848270645533774 0.44936073806588156 
	0.57141464427186373 0.84999017000900068 0.43414175104071057 
	0.5620403829504933 0.85073712088998532 0.42805000283657552 
	0.54155835748250536 0.85180119801062559 0.4197978496135909 
	0.53046135973635034 0.85211088866055906 0.41765039826517208 
	0.50828514851444773 0.85211088866055906 0.41765039826517208 
	0.49718815076829065 0.85180119801062548 0.41979784961358574 
	0.47670612530030271 0.8507371208899851 0.42805000283657035 
	0.4673318639789345 0.84999017000900068 0.43414175104071068 
	0.4516682360548005 0.84848270645533774 0.44936073806588184 
	0.44539278521617892 0.84773176195782474 0.45847394008775083 
	0.43688627151623527 0.8466585267420258 0.47840623930039994 
	0.43467241095766856 0.84634490514114236 0.48920826375069471 
	0.43467241095766856 0.84634490514114236 0.51079173624930541 
	0.43680542796838018 0.84664991890321151 0.52159774878395682 
	0.44477279900777306 0.84765227813090538 0.53991985851681901 
	0.44966331079753202 0.8482431690278448 0.54767380733952065 
	0.4653508978698388 0.84984365905965631 0.56491177478423882 
	0.47764076664152144 0.85083091263366906 0.57272810431264132 
	0.50155257321960778 0.85197142681980542 0.58145819994978731 
	0.51116790142984281 0.85211088866055906 0.58234960173482786 
	0.51937325412539903 0.85211088866055906 0.58234960173482786 
	0.00039335964409891301 
	spline forward { ref 0 } I I I I 
	cone 0.51937325412539914 0.22711088866055912 0 0 0 1 -0.44194173824159211 0.44194173824159211 0 1 I I 0 1 0.62499999999999978 forward I I I I 
	nubs 1 periodic 17 
	0 1 0.081291424521297923 1 0.16258284904259585 1 0.24387427356389377 1 0.32516569808519169 1 
	0.40645712260648958 1 0.48774854712778754 1 0.56903997164908549 1 0.65033139617038338 1 0.73162282069168127 1 
	0.81291424521297917 1 0.89420566973427706 1 0.97549709425557496 1 1.0567885187768731 1 1.1177570871678464 1 
	1.2092099397543066 1 1.3006627923407668 1 
	1 0 
	1 0.081291424521297923 
	1 0.16258284904259585 
	1 0.24387427356389377 
	1 0.32516569808519169 
	1 0.40645712260648958 
	1 0.48774854712778754 
	1 0.56903997164908549 
	1 0.65033139617038338 
	1 0.73162282069168127 
	1 0.81291424521297917 
	1 0.89420566973427706 
	1 0.97549709425557496 
	1 1.0567885187768731 
	1 1.1177570871678464 
	1 1.2092099397543066 
	1 1.3006627923407668 
	
	nullbs 
	I I 
	0 
	0 
	0 
	right } I I #
intcurve-curve $-1 reversed { blndsprngcur nubs 3 periodic 17 
	0 3 0.081291424521297923 2 0.16258284904259585 2 0.24387427356389377 2 0.32516569808519169 2 
	0.40645712260648958 2 0.48774854712778754 2 0.56903997164908549 2 0.65033139617038338 2 0.73162282069168127 2 
	0.81291424521297917 2 0.89420566973427706 2 0.97549709425557496 2 1.0567885187768731 2 1.1177570871678464 2 
	1.2092099397543066 2 1.3006627923407668 3 
	0.51937325412539914 0.83476128692573093 0.56499999999999995 
	0.52497044804817172 0.83476128692573093 0.56499999999999995 
	0.53115900331564758 0.83466307197044765 0.56447582081997949 
	0.54721332937184264 0.83382215375311508 0.55933772463330467 
	0.5557471894328172 0.83308040527779337 0.55473384735932796 
	0.57012739098657872 0.8314187748119436 0.54174775213085247 
	0.57574868880802355 0.83056566377956853 0.53357544689271674 
	0.58273636244273075 0.82945191020898523 0.51704748585764515 
	0.58437325412539909 0.82915536343458907 0.50851810866631275 
	0.58437325412539909 0.82915536343458907 0.49148189133368686 
	0.58267432255724605 0.8294602790996789 0.48295566200801182 
	0.57614636640217687 0.83050372198977873 0.46722274501110711 
	0.57133054297875896 0.83123382074656083 0.46002953315649603 
	0.55931016895423447 0.83269943807256674 0.44801691699568535 
	0.55211629740454049 0.83342565407307212 0.44320859218411512 
	0.53639825251114048 0.83446019309089947 0.43669502140545829 
	0.52788234137597823 0.83476128692573115 0.43499999999999994 
	0.51086416687482006 0.83476128692573115 0.43499999999999994 
	0.50234825573965758 0.83446019309089914 0.43669502140545835 
	0.48663021084625763 0.83342565407307179 0.44320859218411518 
	0.47943633929656371 0.83269943807256686 0.44801691699568535 
	0.46741596527203921 0.83123382074656105 0.4600295331564962 
	0.4626001418486213 0.83050372198977906 0.4672227450111075 
	0.45607218569355212 0.82946027909967923 0.48295566200801204 
	0.45437325412539914 0.82915536343458884 0.49148189133368719 
	0.45437325412539914 0.82915536343458884 0.50851810866631286 
	0.45601014580806754 0.82945191020898557 0.51704748585764515 
	0.46212436023843623 0.83042644458324599 0.53150945176333286 
	0.46587737206894964 0.83100093272565057 0.5376297809786037 
	0.47791613250585191 0.83255699417405016 0.55123601416373413 
	0.48734746093413328 0.83351684221771893 0.5574055815770621 
	0.50569754305194348 0.83462569645681162 0.5642964007730279 
	0.51307641096227996 0.83476128692573093 0.56499999999999995 
	0.51937325412539914 0.83476128692573093 0.56499999999999995 
	0.00030187633933514589 
	spline forward { ref 0 } I I I I 
	cone 0.51937325412539914 0.60211088866055906 0.49999999999999994 0 1 0 0.064999999999999988 0 0 1 I I 0 -1 0.064999999999999988 reversed I I I I 
	nubs 1 periodic 17 
	0 1 0.081291424521297923 1 0.16258284904259585 1 0.24387427356389377 1 0.32516569808519169 1 
	0.40645712260648958 1 0.48774854712778754 1 0.56903997164908549 1 0.65033139617038338 1 0.73162282069168127 1 
	0.81291424521297917 1 0.89420566973427706 1 0.97549709425557496 1 1.0567885187768731 1 1.1177570871678464 1 
	1.2092099397543066 1 1.3006627923407668 1 
	0 0 
	0 0.081291424521297923 
	0 0.16258284904259585 
	0 0.24387427356389377 
	0 0.32516569808519169 
	0 0.40645712260648958 
	0 0.48774854712778754 
	0 0.56903997164908549 
	0 0.65033139617038338 
	0 0.73162282069168127 
	0 0.81291424521297917 
	0 0.89420566973427706 
	0 0.97549709425557496 
	0 1.0567885187768731 
	0 1.1177570871678464 
	0 1.2092099397543066 
	0 1.3006627923407668 
	
	nullbs 
	I I 
	0 
	0 
	0 
	left } I I #
intcurve-curve $-1 forward { ref 5 } I I #
point $-1 0.51937325412539914 0.83476128692573093 0.56499999999999995 #
point $-1 0.51937325412539903 0.85211088866055906 0.58234960173482786 #
coedge $-1 $96 $88 $157 $158 reversed $13 $-1 #
coedge $-1 $159 $160 $88 $121 forward $161 $-1 #
edge $-1 $162 $126 $120 $163 forward #
coedge $-1 $164 $89 $92 $130 reversed $124 $-1 #
coedge $-1 $89 $165 $159 $166 forward $124 $-1 #
loop $-1 $167 $168 $169 #
convexity-sys-attrib $-1 $-1 $-1 $90 #
vertex $-1 $166 $170 #
straight-curve $-1 -0.10562674587460079 -0.14788911133944094 0.99999999999999989 0.39370078740157477 -2.7533586077876041e-017 0 F -1.5874999999999999 F 0 #
coedge $-1 $171 $91 $172 $173 forward $93 $-1 #
coedge $-1 $92 $171 $174 $175 forward $93 $-1 #
edge $-1 $176 $94 $122 $177 forward #
face $-1 $178 $93 $2 $-1 $179 forward single #
point $-1 -0.4806267458746008 -0.14788911133944091 0.99999999999999989 #
coedge $-1 $180 $181 $96 $134 forward $182 $-1 #
edge $-1 $138 $183 $133 $184 forward #
coedge $-1 $185 $97 $181 $186 reversed $137 $-1 #
coedge $-1 $97 $187 $99 $141 reversed $137 $-1 #
loop $-1 $188 $187 $153 #
vertex $-1 $186 $189 #
straight-curve $-1 1.769373254125399 -0.14788911133944063 0.99999999999999989 0.39370078740157477 1.6520151646725626e-016 0 F -1.5874999999999995 F 0 #
coedge $-1 $190 $99 $191 $192 forward $101 $-1 #
edge $-1 $102 $193 $136 $194 forward #
coedge $-1 $100 $190 $195 $196 forward $101 $-1 #
face $-1 $131 $101 $2 $-1 $197 forward single #
point $-1 1.5193732541253995 -0.14788911133944074 0.99999999999999989 #
coedge $-1 $195 $172 $104 $146 reversed $112 $-1 #
edge $-1 $147 $149 $145 $198 forward #
vertex $-1 $146 $199 #
straight-curve $-1 1.1443732541253993 0.2271108886605592 0 0 0 0.39370078740157477 F -2.9527510000000001 F 5.492751000000001 #
vertex $-1 $146 $200 #
straight-curve $-1 -0.10562674587460079 0.22711088866055903 0 0 0 -0.39370078740157477 F -5.492751000000001 F 2.9527510000000001 #
coedge $-1 $151 $151 $110 $152 reversed $156 $-1 #
edge $-1 $201 $201 $151 $202 forward #
face $-1 $203 $137 $2 $-1 $204 forward single #
loop $-1 $205 $206 $111 #
cone-surface $-1 1.4568732541253988 -0.1557041113394409 0.49999999999999994 0 1 0 -0.13281499999999999 -3.6061442545997844e-017 8.0454097781258417e-064 1 I I -0.70710678118654002 -0.7071067811865529 0.13281499999999999 forward I I I I #
loop $-1 $-1 $151 $74 #
coedge $-1 $207 $208 $119 $158 forward $209 $-1 #
edge $-1 $183 $162 $157 $210 forward #
coedge $-1 $211 $120 $123 $166 reversed $161 $-1 #
coedge $-1 $120 $212 $207 $213 forward $161 $-1 #
loop $-1 $-1 $120 $178 #
vertex $-1 $213 $214 #
straight-curve $-1 -0.73062674587460075 -0.14788911133944088 0.99999999999999989 0 0.39370078740157477 0 F -0.63500000000000023 F 0 #
coedge $-1 $168 $122 $215 $216 reversed $124 $-1 #
coedge $-1 $123 $168 $217 $218 forward $124 $-1 #
edge $-1 $219 $126 $123 $220 forward #
loop $-1 $-1 $221 $169 #
coedge $-1 $165 $164 $171 $222 reversed $124 $-1 #
face $-1 $223 $124 $2 $-1 $224 forward single #
point $-1 -0.73062674587460075 -0.14788911133944088 0.99999999999999989 #
coedge $-1 $129 $128 $168 $222 forward $93 $-1 #
coedge $-1 $145 $217 $128 $173 reversed $112 $-1 #
edge $-1 $149 $225 $128 $226 forward #
coedge $-1 $215 $215 $129 $175 reversed $227 $-1 #
edge $-1 $228 $176 $129 $229 forward #
vertex $-1 $130 $230 #
straight-curve $-1 -0.4806267458746008 -0.14788911133944088 0 0 0 0.39370078740157477 F -2.9527510000000001 F 5.492751000000001 #
face $-1 $231 $161 $2 $-1 $232 forward single #
cone-surface $-1 -0.4806267458746008 0.22711088866055903 0 0 0 1 0.26516504294495535 -0.2651650429449553 0 1 I I 0 -1 0.375 forward I I I I #
coedge $-1 $233 $133 $208 $234 reversed $182 $-1 #
coedge $-1 $133 $235 $135 $186 forward $182 $-1 #
loop $-1 $-1 $133 $231 #
vertex $-1 $234 $236 #
straight-curve $-1 1.769373254125399 -0.39788911133944072 0.99999999999999989 0 -0.39370078740157477 0 F -0.63500000000000023 F 0 #
coedge $-1 $237 $135 $238 $239 forward $137 $-1 #
edge $-1 $240 $138 $181 $241 forward #
coedge $-1 $136 $237 $242 $243 reversed $137 $-1 #
loop $-1 $-1 $244 $153 #
point $-1 1.769373254125399 -0.14788911133944063 0.99999999999999989 #
coedge $-1 $142 $140 $237 $245 forward $101 $-1 #
coedge $-1 $242 $242 $140 $192 reversed $246 $-1 #
edge $-1 $193 $247 $140 $248 forward #
vertex $-1 $141 $249 #
straight-curve $-1 1.5193732541253995 -0.14788911133944072 0 0 0 -0.39370078740157477 F -5.492751000000001 F 2.9527510000000001 #
coedge $-1 $238 $145 $142 $196 reversed $112 $-1 #
edge $-1 $250 $147 $142 $251 forward #
cone-surface $-1 1.5193732541253993 0.22711088866055931 0 0 0 1 -0.26516504294495519 -0.26516504294495535 0 1 I I 0 -1 0.37499999999999994 forward I I I I #
ellipse-curve $-1 0.51937325412539914 0.22711088866055912 0 0 0 1 -0.44194173824159211 0.44194173824159211 0 1 I I #
point $-1 1.1443732541253993 0.2271108886605592 0 #
point $-1 -0.10562674587460079 0.22711088866055903 0 #
vertex $-1 $152 $252 #
ellipse-curve $-1 0.51937325412539914 0.22711088866055909 0 0 0 -1 0.32812999999999992 0 0 1 I I #
face $-1 $253 $254 $2 $-1 $255 reversed single #
plane-surface $-1 1.1443732541253993 -0.14788911133944088 0 -4.1961185182683096e-016 1 0 0 0 0.39370078740157477 forward_v I I I I #
loop $-1 $-1 $256 $111 #
coedge $-1 $206 $206 $257 $258 forward $154 $-1 #
coedge $-1 $259 $157 $160 $213 reversed $209 $-1 #
coedge $-1 $157 $260 $180 $234 forward $209 $-1 #
loop $-1 $-1 $259 $261 #
straight-curve $-1 -0.73062674587460075 -0.39788911133944094 0.99999999999999989 -0.39370078740157477 -4.130037911681406e-017 0 F -6.3499999999999996 F 0 #
coedge $-1 $262 $159 $263 $264 forward $161 $-1 #
coedge $-1 $160 $265 $266 $267 reversed $161 $-1 #
edge $-1 $268 $162 $160 $269 forward #
point $-1 -0.73062674587460075 -0.39788911133944094 0.99999999999999989 #
coedge $-1 $174 $174 $164 $216 forward $227 $-1 #
edge $-1 $228 $176 $164 $270 forward #
coedge $-1 $172 $263 $165 $218 reversed $112 $-1 #
edge $-1 $225 $219 $165 $271 forward #
vertex $-1 $218 $272 #
straight-curve $-1 -0.73062674587460075 -0.14788911133944088 0 0 0 0.39370078740157477 I I #
coedge $-1 $221 $221 $273 $274 reversed $167 $-1 #
edge $-1 $225 $228 $168 $177 forward #
face $-1 $275 $276 $2 $-1 $277 reversed single #
plane-surface $-1 -0.73062674587460075 -0.14788911133944088 0 6.9935308637805148e-017 1 0 0 0 0.39370078740157477 forward_v I I I I #
vertex $-1 $218 $278 #
ellipse-curve $-1 -0.4806267458746008 0.22711088866055903 0 0 0 -1 0.26516504294495535 -0.2651650429449553 0 1 I I #
loop $-1 $-1 $174 $275 #
vertex $-1 $222 $279 #
intcurve-curve $-1 forward { surfintcur nubs 3 open 13 
	0.84016441409066855 3 0.99723392964167323 2 1.2719658668932823 2 1.5466978041448911 2 1.8162355174431415 2 
	1.9510043740922667 2 2.0857732307413919 2 2.2205420873905171 2 2.3553109440396423 2 2.6248486573378926 2 
	2.8995805945895015 2 3.1743125318411107 2 3.3313820473921152 3 
	-0.4806267458746008 -0.14788911133944088 0.2518440390092111 
	-0.45975466891256256 -0.14788911133944088 0.24658724483461611 
	-0.4384512381207194 -0.14607956400256775 0.24409448818897636 
	-0.38257696329047913 -0.13663508778203812 0.24409448818897636 
	-0.34661034668815083 -0.1249087667332414 0.25185181429994258 
	-0.28310187852892704 -0.093610408011362431 0.27986277153434119 
	-0.25548248715678817 -0.074125255581694721 0.30003750439113558 
	-0.21304914078537876 -0.037095673129853603 0.34396882354426728 
	-0.19477548784579346 -0.016507934418232676 0.37088733627991566 
	-0.17581463127373675 0.008424833354477388 0.41609809845915785 
	-0.17084661796400505 0.015688494284533505 0.43198802361741773 
	-0.16405136292727357 0.026005982100137014 0.46508882236251159 
	-0.16222123406357708 0.029012604850829831 0.4823137983400097 
	-0.16222123406357708 0.029012604850829831 0.51768620165999024 
	-0.1640513629272736 0.026005982100136993 0.53491117763748841 
	-0.17084661796400505 0.015688494284533505 0.56801197638258216 
	-0.17581463127373675 0.0084248333544773898 0.58390190154084209 
	-0.1947754878457934 -0.016507934418232648 0.62911266372008423 
	-0.21304914078537876 -0.037095673129853554 0.6560311764557325 
	-0.25548248715678812 -0.07412525558169468 0.69996249560886425 
	-0.28310187852892699 -0.093610408011362375 0.72013722846565864 
	-0.34661034668815072 -0.12490876673324136 0.74814818570005737 
	-0.38257696329047913 -0.13663508778203809 0.7559055118110235 
	-0.43845123812071934 -0.14607956400256775 0.75590551181102339 
	-0.45975466891256256 -0.14788911133944088 0.75341275516538386 
	-0.4806267458746008 -0.14788911133944088 0.74815596099078885 
	0.00014769071251314301 
	cone -0.41812674587460047 2.8530482422219423 0.49999999999999994 6.9935308637805148e-017 1 0 0.25590551181102361 -1.7896830950619428e-017 0 1 I I 0 1 0.25590551181102361 forward I I I I 
	cone -0.4806267458746008 0.22711088866055903 0 0 0 1 0.26516504294495535 -0.2651650429449553 0 1 I I 0 -1 0.375 forward I I I I 
	nullbs 
	nullbs 
	I I 
	0 
	0 
	0 
	} I I #
point $-1 -0.4806267458746008 -0.14788911133944088 0.74815596099078885 #
face $-1 $-1 $182 $2 $-1 $280 forward single #
plane-surface $-1 -0.73062674587460075 -0.39788911133944094 0 -1 0 0 0 0 0.39370078740157477 forward_v I I I I #
coedge $-1 $281 $180 $282 $283 forward $182 $-1 #
edge $-1 $284 $183 $208 $285 forward #
coedge $-1 $181 $286 $287 $288 forward $182 $-1 #
point $-1 1.769373254125399 -0.39788911133944072 0.99999999999999989 #
coedge $-1 $187 $185 $190 $245 reversed $137 $-1 #
coedge $-1 $287 $195 $185 $239 reversed $112 $-1 #
edge $289 $240 $250 $185 $290 forward #
vertex $-1 $288 $291 #
straight-curve $-1 1.769373254125399 -0.14788911133944063 0 0 0 0.39370078740157477 I I #
coedge $-1 $191 $191 $187 $243 forward $246 $-1 #
edge $-1 $193 $247 $187 $292 forward #
coedge $-1 $244 $244 $256 $293 reversed $188 $-1 #
edge $-1 $247 $250 $237 $194 forward #
loop $-1 $-1 $191 $294 #
vertex $-1 $245 $295 #
intcurve-curve $-1 forward { surfintcur nubs 3 open 13 
	-1.2456088166507235 3 -1.0885393010997184 2 -0.81380736384810959 2 -0.53907542659650076 2 -0.26953771329825038 2 
	-0.13476885664912519 2 0 3 0.13476885664912527 2 0.26953771329825055 2 0.53907542659650109 2 
	0.81380736384811025 2 1.0885393010997193 2 1.2456088166507244 3 
	1.5193732541253995 -0.14788911133944088 0.74815596099078874 
	1.498501177163361 -0.14788911133944088 0.75341275516538386 
	1.4771977463715178 -0.14607956400256736 0.75590551181102339 
	1.4213234715412773 -0.1366350877820377 0.75590551181102339 
	1.385356854938949 -0.12490876673324101 0.74814818570005726 
	1.3218483867797253 -0.093610408011362001 0.72013722846565864 
	1.2942289954075863 -0.074125255581694222 0.69996249560886425 
	1.251795649036177 -0.037095673129853041 0.6560311764557325 
	1.2335219960965917 -0.016507934418232183 0.62911266372008434 
	1.214561139524535 0.0084248333544779206 0.58390190154084209 
	1.2095931262148034 0.015688494284533946 0.56801197638258227 
	1.2027978711780718 0.026005982100137506 0.53491117763748841 
	1.2009677423143752 0.029012604850830532 0.51768620165999024 
	1.2009677423143752 0.029012604850830532 0.49999999999999994 
	1.2009677423143752 0.029012604850830532 0.4823137983400097 
	1.2027978711780718 0.026005982100137506 0.46508882236251148 
	1.2095931262148034 0.015688494284533946 0.43198802361741767 
	1.214561139524535 0.0084248333544779206 0.41609809845915785 
	1.2335219960965917 -0.016507934418232183 0.3708873362799156 
	1.251795649036177 -0.037095673129853041 0.34396882354426739 
	1.2942289954075863 -0.074125255581694249 0.30003750439113563 
	1.3218483867797253 -0.093610408011362015 0.27986277153434125 
	1.385356854938949 -0.12490876673324101 0.25185181429994258 
	1.4213234715412773 -0.1366350877820377 0.24409448818897636 
	1.4771977463715178 -0.14607956400256736 0.24409448818897636 
	1.498501177163361 -0.14788911133944088 0.24658724483461616 
	1.5193732541253995 -0.14788911133944088 0.25184403900921115 
	0.00014769071251335001 
	cone 1.4568732541253977 2.8530482422219428 0.49999999999999994 -4.1961185182683096e-016 1 0 0.25590551181102361 1.0738098570371659e-016 0 1 I I 0 1 0.25590551181102361 forward I I I I 
	cone 1.5193732541253993 0.22711088866055931 0 0 0 1 -0.26516504294495519 -0.26516504294495535 0 1 I I 0 -1 0.37499999999999994 forward I I I I 
	nullbs 
	nullbs 
	I I 
	0 
	0 
	0 
	} I I #
point $-1 1.5193732541253995 -0.14788911133944088 0.74815596099078874 #
vertex $-1 $239 $296 #
ellipse-curve $-1 1.5193732541253993 0.22711088866055931 0 0 0 -1 -0.26516504294495519 -0.26516504294495535 0 1 I I #
point $-1 0.19124325412539919 0.22711088866055909 0 #
face $-1 $169 $297 $2 $-1 $298 forward single #
loop $-1 $299 $300 $203 #
cone-surface $-1 1.4568732541253986 2.5280482422219426 0.49999999999999994 1.0490296295670768e-016 -1 -1.6381713566406672e-031 0.12499999999999999 1.311287036958846e-017 -7.5720078475001342e-064 1 I I 0 1 0.12499999999999999 reversed I I I I #
coedge $-1 $256 $256 $244 $293 forward $205 $-1 #
coedge $-1 $257 $257 $206 $258 reversed $299 $-1 #
edge $-1 $301 $301 $257 $302 forward #
coedge $-1 $303 $207 $304 $305 forward $209 $-1 #
coedge $-1 $208 $303 $306 $307 forward $209 $-1 #
face $-1 $308 $209 $2 $-1 $309 forward single #
coedge $-1 $310 $211 $311 $312 forward $161 $-1 #
coedge $-1 $217 $313 $211 $264 reversed $112 $-1 #
edge $-1 $219 $314 $211 $315 forward #
coedge $-1 $212 $310 $316 $317 forward $161 $-1 #
coedge $-1 $318 $304 $212 $267 forward $319 $-1 #
edge $-1 $268 $320 $266 $321 forward #
vertex $-1 $213 $322 #
straight-curve $-1 -0.73062674587460075 -0.39788911133944094 0 0 0 0.39370078740157477 I I #
ellipse-curve $-1 -0.41812674587460075 -0.14788911133944091 0.49999999999999994 -6.9935308637805148e-017 -1 0 0.25590551181102361 -1.7896830950619428e-017 0 1 I I #
straight-curve $-1 -0.10562674587460079 -0.14788911133944094 0 -0.39370078740157477 2.7533586077876041e-017 0 F 0 F 1.5874999999999999 #
point $-1 -0.73062674587460075 -0.14788911133944088 0 #
coedge $-1 $273 $273 $221 $274 forward $323 $-1 #
edge $-1 $324 $324 $221 $325 forward #
face $-1 $294 $227 $2 $-1 $326 reversed single #
loop $-1 $327 $328 $223 #
cone-surface $-1 -0.41812674587460102 2.5280482422219421 0.49999999999999994 1.0490296295670768e-016 -1 -1.6381713566406672e-031 0.12499999999999999 1.311287036958846e-017 -7.5720078475001342e-064 1 I I 0 1 0.12499999999999999 reversed I I I I #
point $-1 -0.4806267458746008 -0.14788911133944091 0 #
point $-1 -0.4806267458746008 -0.14788911133944088 0.2518440390092111 #
plane-surface $-1 1.769373254125399 -0.14788911133944063 0 1 0 0 0 0 -0.39370078740157477 forward_v I I I I #
coedge $-1 $329 $233 $330 $331 forward $182 $-1 #
coedge $-1 $306 $332 $233 $283 reversed $333 $-1 #
edge $-1 $284 $334 $233 $335 forward #
vertex $-1 $234 $336 #
straight-curve $-1 1.769373254125399 -0.39788911133944072 0 0 0 0.39370078740157477 I I #
coedge $-1 $235 $329 $337 $338 reversed $182 $-1 #
coedge $-1 $313 $238 $235 $288 reversed $112 $-1 #
edge $-1 $339 $240 $235 $340 forward #
convexity-sys-attrib $-1 $-1 $-1 $239 #
straight-curve $-1 1.769373254125399 -0.14788911133944063 0 -0.39370078740157477 -1.6520151646725626e-016 0 F 0 F 1.5874999999999995 #
point $-1 1.769373254125399 -0.14788911133944063 0 #
ellipse-curve $-1 1.4568732541253988 -0.14788911133944077 0.49999999999999994 4.1961185182683096e-016 -1 0 0.25590551181102361 1.0738098570371659e-016 0 1 I I #
edge $-1 $341 $341 $244 $342 forward #
face $-1 $343 $246 $2 $-1 $344 reversed single #
point $-1 1.5193732541253995 -0.14788911133944088 0.25184403900921115 #
point $-1 1.5193732541253995 -0.14788911133944074 0 #
loop $-1 $323 $345 $253 #
cone-surface $-1 -0.41812674587460075 -0.15570411133944098 0.49999999999999994 0 1 0 0.13281499999999999 1.6389339579269608e-018 -8.0454097781258417e-064 1 I I -0.70710678118654358 -0.70710678118655046 0.13281499999999999 forward I I I I #
loop $-1 $-1 $257 $203 #
coedge $-1 $346 $347 $348 $349 reversed $254 $-1 #
vertex $-1 $258 $350 #
ellipse-curve $-1 1.4568732541253988 -0.16351911133944105 0.49999999999999994 4.1961185182683096e-016 -1 0 -0.12499999999999999 -1.311287036958846e-017 7.5720078475001342e-064 1 I I #
coedge $-1 $260 $259 $351 $352 forward $209 $-1 #
coedge $-1 $266 $353 $259 $305 reversed $319 $-1 #
edge $-1 $268 $354 $259 $355 forward #
coedge $-1 $356 $282 $260 $307 reversed $333 $-1 #
edge $-1 $357 $284 $260 $355 forward #
face $-1 $143 $358 $2 $-1 $309 forward single #
plane-surface $-1 1.769373254125399 -0.39788911133944072 0 1.0490296295670772e-016 -1 0 0 0 -0.39370078740157477 forward_v I I I I #
coedge $-1 $265 $262 $359 $360 forward $161 $-1 #
coedge $-1 $361 $362 $262 $312 reversed $358 $-1 #
edge $-1 $314 $363 $262 $269 forward #
coedge $-1 $263 $287 $361 $364 reversed $112 $-1 #
vertex $-1 $264 $365 #
straight-curve $-1 -0.73062674587460075 -0.14788911133944088 0 0 -0.39370078740157477 0 F 0 F 0.63500000000000023 #
coedge $-1 $366 $367 $265 $317 reversed $368 $-1 #
edge $-1 $369 $320 $265 $370 forward #
coedge $-1 $353 $266 $367 $371 forward $319 $-1 #
loop $-1 $-1 $353 $372 #
vertex $-1 $267 $373 #
straight-curve $-1 -0.73062674587460075 -0.39788911133944094 0.62499999999999989 0 -0.39370078740157477 0 I I #
point $-1 -0.73062674587460075 -0.39788911133944094 0.62499999999999989 #
loop $-1 $-1 $273 $253 #
vertex $-1 $274 $374 #
ellipse-curve $-1 -0.41812674587460075 -0.14788911133944091 0.49999999999999994 6.9935308637805148e-017 1 0 0.14062999999999998 -9.8350024537345374e-018 -8.5188117087515491e-064 1 I I #
cone-surface $-1 -0.41812674587460047 2.8530482422219423 0.49999999999999994 6.9935308637805148e-017 1 0 0.25590551181102361 -1.7896830950619428e-017 0 1 I I 0 1 0.25590551181102361 forward I I I I #
loop $-1 $-1 $375 $223 #
coedge $-1 $376 $377 $378 $379 reversed $276 $-1 #
coedge $-1 $286 $281 $380 $381 reversed $182 $-1 #
coedge $-1 $382 $383 $281 $331 reversed $384 $-1 #
edge $-1 $334 $385 $281 $386 forward #
coedge $-1 $282 $356 $382 $387 forward $333 $-1 #
loop $-1 $-1 $356 $343 #
vertex $-1 $283 $388 #
straight-curve $-1 1.769373254125399 -0.39788911133944072 0.62499999999999989 0 -0.39370078740157477 0 I I #
point $-1 1.769373254125399 -0.39788911133944072 0.62499999999999989 #
coedge $-1 $389 $361 $286 $338 forward $358 $-1 #
edge $-1 $339 $390 $337 $285 forward #
vertex $-1 $288 $391 #
straight-curve $-1 1.769373254125399 -0.39788911133944072 0 0 0.39370078740157477 0 F 0 F 0.63500000000000023 #
vertex $-1 $293 $392 #
ellipse-curve $-1 1.4568732541253988 -0.14788911133944077 0.49999999999999994 -4.1961185182683096e-016 1 0 -0.14063000000000001 -5.9010014722407237e-017 8.5188117087515505e-064 1 I I #
face $-1 $393 $333 $2 $-1 $394 forward single #
cone-surface $-1 1.4568732541253977 2.8530482422219428 0.49999999999999994 -4.1961185182683096e-016 1 0 0.25590551181102361 1.0738098570371659e-016 0 1 I I 0 1 0.25590551181102361 forward I I I I #
coedge $-1 $345 $345 $375 $395 forward $297 $-1 #
coedge $-1 $396 $300 $356 $397 reversed $254 $-1 #
coedge $-1 $300 $398 $398 $399 forward $254 $-1 #
coedge $-1 $383 $382 $300 $349 forward $384 $-1 #
edge $-1 $400 $401 $348 $402 forward #
point $-1 1.5818732541253988 -0.16351911133944103 0.49999999999999994 #
coedge $-1 $403 $404 $303 $352 reversed $405 $-1 #
edge $-1 $354 $357 $303 $355 forward #
coedge $-1 $304 $318 $406 $407 reversed $319 $-1 #
vertex $-1 $352 $408 #
straight-curve $-1 0.51937325412539914 -0.39788911133944077 0.62499999999999989 0.39370078740157477 4.130037911681406e-017 0 I I #
coedge $-1 $332 $306 $404 $397 forward $333 $-1 #
vertex $-1 $307 $409 #
loop $-1 $-1 $389 $308 #
coedge $-1 $410 $411 $310 $360 reversed $412 $-1 #
edge $-1 $363 $369 $310 $413 forward #
coedge $-1 $337 $311 $313 $364 forward $358 $-1 #
coedge $-1 $311 $414 $410 $415 forward $358 $-1 #
vertex $-1 $360 $416 #
edge $-1 $314 $339 $361 $417 forward #
point $-1 -0.73062674587460075 -0.39788911133944094 0 #
coedge $-1 $418 $316 $411 $419 reversed $368 $-1 #
coedge $-1 $316 $418 $318 $371 reversed $368 $-1 #
loop $-1 $-1 $418 $420 #
vertex $-1 $360 $421 #
straight-curve $-1 -0.73062674587460075 -0.472889111339441 0.62499999999999989 -7.231927286352624e-017 -7.5865060022585298e-033 0.39370078740157477 F -0.63500000000000001 F 0 #
edge $-1 $320 $422 $318 $423 forward #
face $-1 $424 $319 $2 $-1 $394 forward single #
point $-1 -0.73062674587460075 -0.472889111339441 0.62499999999999989 #
point $-1 -0.55875674587460078 -0.14788911133944091 0.49999999999999994 #
coedge $-1 $375 $375 $345 $395 reversed $327 $-1 #
coedge $-1 $406 $328 $403 $407 reversed $276 $-1 #
coedge $-1 $328 $425 $425 $426 forward $276 $-1 #
coedge $-1 $427 $428 $328 $379 forward $429 $-1 #
edge $-1 $422 $430 $378 $431 forward #
coedge $-1 $432 $433 $329 $381 forward $434 $-1 #
edge $-1 $390 $385 $380 $435 forward #
coedge $-1 $348 $330 $332 $387 reversed $384 $-1 #
coedge $-1 $330 $348 $432 $436 reversed $384 $-1 #
loop $-1 $-1 $348 $437 #
vertex $-1 $381 $438 #
straight-curve $-1 1.769373254125399 -0.47288911133944073 0.37500000000000028 0 0 -0.39370078740157477 F -0.63499999999999912 F 0 #
edge $-1 $400 $334 $332 $423 forward #
point $-1 1.769373254125399 -0.47288911133944067 0.62499999999999989 #
coedge $-1 $414 $337 $433 $439 forward $358 $-1 #
vertex $-1 $338 $440 #
point $-1 1.769373254125399 -0.39788911133944072 0 #
point $-1 1.5975032541253991 -0.14788911133944069 0.49999999999999994 #
face $-1 $437 $405 $2 $-1 $394 forward single #
plane-surface $-1 -0.73062674587460075 -0.39788911133944094 0.62499999999999989 0 0 1 0.39370078740157477 0 0 forward_v I I I I #
edge $-1 $441 $441 $375 $442 forward #
coedge $-1 $443 $346 $346 $397 forward $254 $-1 #
edge $-1 $357 $400 $356 $444 forward #
coedge $-1 $347 $443 $445 $399 reversed $254 $-1 #
edge $-1 $446 $401 $445 $447 forward #
vertex $-1 $387 $448 #
vertex $-1 $449 $450 #
ellipse-curve $-1 1.4568732541253988 -0.47288911133944084 0.49999999999999994 -1.0490296295670768e-016 1 1.6381713566406672e-031 0.12499999999999999 1.311287036958846e-017 -7.5720078475001342e-064 1 I I #
coedge $-1 $451 $351 $353 $407 forward $405 $-1 #
coedge $-1 $351 $451 $396 $397 reversed $405 $-1 #
loop $-1 $-1 $403 $393 #
coedge $-1 $452 $376 $376 $407 forward $276 $-1 #
edge $-1 $354 $422 $403 $453 forward #
point $-1 -0.41812674587460064 -0.39788911133944077 0.62499999999999989 #
point $-1 1.4568732541253988 -0.39788911133944044 0.62499999999999989 #
coedge $-1 $454 $359 $362 $415 reversed $412 $-1 #
coedge $-1 $359 $454 $366 $419 forward $412 $-1 #
loop $-1 $-1 $454 $424 #
straight-curve $-1 -0.73062674587460075 -0.39788911133944094 0.37499999999999994 0 -0.39370078740157477 0 I I #
coedge $-1 $362 $389 $455 $456 forward $358 $-1 #
edge $-1 $457 $363 $362 $458 forward #
point $-1 -0.73062674587460075 -0.39788911133944094 0.37499999999999994 #
straight-curve $-1 -0.73062674587460075 -0.39788911133944094 0 0.39370078740157477 4.130037911681406e-017 0 F 0 F 6.3499999999999996 #
coedge $-1 $367 $366 $452 $459 forward $368 $-1 #
edge $-1 $430 $369 $411 $460 forward #
face $-1 $461 $368 $2 $-1 $462 reversed single #
point $-1 -0.73062674587460075 -0.472889111339441 0.37499999999999994 #
vertex $-1 $463 $464 #
straight-curve $-1 1.769373254125399 -0.47288911133944073 0.62499999999999989 0.39370078740157477 4.130037911681406e-017 0 F -6.3499999999999996 F 0 #
face $-1 $261 $412 $2 $-1 $465 forward single #
coedge $-1 $377 $452 $454 $426 reversed $276 $-1 #
edge $-1 $457 $430 $454 $466 forward #
coedge $-1 $467 $378 $468 $449 reversed $429 $-1 #
coedge $-1 $378 $467 $451 $463 reversed $429 $-1 #
loop $-1 $-1 $378 $461 #
vertex $-1 $419 $469 #
ellipse-curve $-1 -0.41812674587460064 -0.47288911133944084 0.49999999999999994 -1.0490296295670768e-016 1 1.6381713566406672e-031 0.12499999999999999 1.311287036958846e-017 -7.5720078475001342e-064 1 I I #
coedge $-1 $470 $380 $383 $436 forward $434 $-1 #
coedge $-1 $380 $470 $389 $439 reversed $434 $-1 #
loop $-1 $-1 $470 $471 #
straight-curve $-1 1.769373254125399 -0.39788911133944072 0.37500000000000028 0 -0.39370078740157477 0 I I #
edge $-1 $385 $401 $432 $460 forward #
face $-1 $420 $384 $2 $-1 $462 reversed single #
point $-1 1.769373254125399 -0.47288911133944067 0.37500000000000028 #
edge $-1 $390 $446 $389 $458 forward #
point $-1 1.769373254125399 -0.39788911133944072 0.37500000000000028 #
vertex $-1 $395 $472 #
ellipse-curve $-1 -0.41812674587460075 -0.16351911133944105 0.49999999999999994 -6.9935308637805148e-017 -1 0 0.12499999999999999 1.311287036958846e-017 -7.5720078475001342e-064 1 I I #
coedge $-1 $398 $396 $467 $473 reversed $254 $-1 #
straight-curve $-1 1.4568732541253986 2.5280482422219426 0.62499999999999989 4.1300379116814041e-017 -0.39370078740157477 -6.4494935300813667e-032 I I #
coedge $-1 $468 $455 $470 $399 forward $474 $-1 #
vertex $-1 $456 $475 #
straight-curve $-1 1.4568732541253986 2.5280482422219426 0.37500000000000028 4.1300379116814041e-017 -0.39370078740157477 -6.4494935300813667e-032 I I #
point $-1 1.4568732541253988 -0.47288911133944073 0.62499999999999989 #
edge $-1 $401 $430 $468 $460 forward #
point $-1 1.4568732541253988 -0.47288911133944073 0.37500000000000028 #
coedge $-1 $404 $403 $428 $463 forward $405 $-1 #
coedge $-1 $425 $406 $418 $459 reversed $276 $-1 #
straight-curve $-1 -0.41812674587460102 2.5280482422219421 0.62499999999999989 4.1300379116814041e-017 -0.39370078740157477 -6.4494935300813667e-032 I I #
coedge $-1 $411 $410 $476 $426 forward $412 $-1 #
coedge $-1 $445 $476 $414 $456 reversed $474 $-1 #
edge $-1 $446 $457 $414 $458 forward #
vertex $-1 $415 $477 #
straight-curve $-1 1.769373254125399 -0.39788911133944072 0.37500000000000028 -0.39370078740157477 -4.130037911681406e-017 -5.5067172155752081e-017 I I #
edge $-1 $430 $422 $418 $431 forward #
straight-curve $-1 -0.73062674587460075 -0.472889111339441 0.37499999999999994 -0.39370078740157477 -4.130037911681406e-017 -5.5067172155752081e-017 F -6.3499999999999996 F 0 #
face $-1 $471 $429 $2 $-1 $462 reversed single #
plane-surface $-1 0.51937325412539903 -0.47288911133944084 0.49999999999999994 -1.0490296295670768e-016 1 1.6381713566406672e-031 0 -6.4494935300813667e-032 0.39370078740157477 forward_v I I I I #
edge $-1 $422 $400 $451 $423 forward #
point $-1 -0.41812674587460075 -0.472889111339441 0.62499999999999989 #
plane-surface $-1 1.769373254125399 -0.39788911133944072 0.37500000000000028 1.398706172756103e-016 0 -1 -0.39370078740157477 0 -5.5067172155752081e-017 forward_v I I I I #
straight-curve $-1 -0.41812674587460102 2.5280482422219421 0.37499999999999994 4.1300379116814041e-017 -0.39370078740157477 -6.4494935300813667e-032 I I #
coedge $-1 $428 $427 $443 $473 forward $429 $-1 #
coedge $-1 $476 $445 $427 $449 forward $474 $-1 #
point $-1 -0.41812674587460075 -0.47288911133944089 0.37499999999999994 #
coedge $-1 $433 $432 $347 $399 reversed $434 $-1 #
face $-1 $478 $434 $2 $-1 $465 forward single #
point $-1 -0.54312674587460075 -0.16351911133944108 0.49999999999999994 #
edge $-1 $401 $400 $467 $402 forward #
loop $-1 $-1 $476 $478 #
point $-1 1.4568732541253988 -0.39788911133944044 0.37500000000000028 #
coedge $-1 $455 $468 $377 $426 reversed $474 $-1 #
point $-1 -0.41812674587460064 -0.39788911133944116 0.37499999999999994 #
face $-1 $372 $474 $2 $-1 $465 forward single #
End-of-ACIS-data 