700 0 2 0           
28 Autodesk Inventor 6.0.0.9000 16 ASM 6.0.0.192 NT 24 Fri Jan 12 19:52:27 2007 
25.399999999999999 9.9999999999999995e-007 1e-010 
body $-1 -1 $-1 $2 $-1 $-1 #
body $-1 -1 $-1 $3 $-1 $-1 #
lump $-1 -1 $-1 $-1 $4 $0 #
lump $-1 -1 $-1 $-1 $5 $1 #
shell $-1 -1 $-1 $-1 $-1 $6 $-1 $2 #
shell $-1 -1 $-1 $-1 $-1 $7 $-1 $3 #
face $-1 -1 $-1 $8 $9 $4 $-1 $10 forward single #
face $-1 -1 $-1 $11 $12 $5 $-1 $13 forward single #
face $-1 -1 $-1 $14 $15 $4 $-1 $16 forward single #
loop $-1 -1 $-1 $-1 $17 $6 #
plane-surface $-1 -1 $-1 0 0 -6.1023622047244093 0 0 -1 -0.39370078740157477 0 0 forward_v I I I I #
face $-1 -1 $-1 $18 $19 $5 $-1 $20 forward single #
loop $-1 -1 $-1 $21 $22 $7 #
cone-surface $-1 -1 $-1 0 0 -0.68870049326311589 0 0 1 -0.39210629921259843 0 0 1 I I 0.70710678118654746 0.70710678118654746 0.39210629921259843 forward I I I I #
face $-1 -1 $-1 $-1 $23 $4 $-1 $24 reversed single #
loop $-1 -1 $-1 $25 $26 $8 #
cone-surface $-1 -1 $-1 0 0 0 0 0 1 -0.24999999999999997 0 0 1 I I 0 1 0.24999999999999997 forward I I I I #
coedge $-1 -1 $-1 $17 $17 $26 $27 reversed $9 $-1 #
face $-1 -1 $-1 $28 $29 $5 $-1 $30 forward single #
loop $-1 -1 $-1 $31 $32 $11 #
plane-surface $-1 -1 $-1 0 0 -0.69620049326311584 0 0 -1 -0.39370078740157477 0 0 forward_v I I I I #
loop $-1 -1 $-1 $-1 $33 $7 #
coedge $-1 -1 $-1 $22 $22 $34 $35 forward $12 $-1 #
loop $-1 -1 $-1 $-1 $36 $14 #
plane-surface $-1 -1 $-1 0 0 6.1023622047244093 0 0 -1 -0.39370078740157477 0 0 forward_v I I I I #
loop $-1 -1 $-1 $-1 $37 $8 #
coedge $-1 -1 $-1 $26 $26 $17 $27 forward $15 $-1 #
edge $-1 -1 $-1 $38 -3.1415926535897931 $38 3.1415926535897931 $26 $39 forward @7 unknown #
face $-1 -1 $-1 $40 $41 $5 $-1 $42 reversed single #
loop $-1 -1 $-1 $43 $44 $18 #
cone-surface $-1 -1 $-1 0 0 0.16879950673688399 0 0 1 -0.39960629921259844 0 0 1 I I 0 1 0.39960629921259844 forward I I I I #
loop $-1 -1 $-1 $-1 $34 $11 #
coedge $-1 -1 $-1 $32 $32 $45 $46 forward $19 $-1 #
coedge $-1 -1 $-1 $33 $33 $47 $48 forward $21 $-1 #
coedge $-1 -1 $-1 $34 $34 $22 $35 reversed $31 $-1 #
edge $-1 -1 $-1 $49 -3.1415926535897931 $49 3.1415926535897931 $34 $50 forward @7 unknown #
coedge $-1 -1 $-1 $36 $36 $37 $51 reversed $23 $-1 #
coedge $-1 -1 $-1 $37 $37 $36 $51 forward $25 $-1 #
vertex $-1 -1 $-1 $27 $52 #
ellipse-curve $-1 -1 $-1 0 0 -6.1023622047244093 0 0 1 -0.24999999999999997 0 0 1 I I #
face $-1 -1 $-1 $53 $54 $5 $-1 $55 forward single #
loop $-1 -1 $-1 $56 $57 $28 #
cone-surface $-1 -1 $-1 0 0 1.9252923338951449 0 0 -1 -0.20500000000000002 0 0 1 I I 0 1 0.20500000000000002 reversed I I I I #
loop $-1 -1 $-1 $-1 $47 $18 #
coedge $-1 -1 $-1 $44 $44 $58 $59 forward $29 $-1 #
coedge $-1 -1 $-1 $45 $45 $32 $46 reversed $56 $-1 #
edge $-1 -1 $-1 $60 0 $60 6.2831853071795862 $32 $61 forward @7 unknown #
coedge $-1 -1 $-1 $47 $47 $33 $48 reversed $43 $-1 #
edge $-1 -1 $-1 $62 -3.1415926535897931 $62 3.1415926535897931 $47 $63 forward @7 unknown #
vertex $-1 -1 $-1 $35 $64 #
ellipse-curve $-1 -1 $-1 0 0 -0.69620049326311584 0 0 1 -0.38460629921259842 0 0 1 I I #
edge $-1 -1 $-1 $65 -3.1415926535897931 $65 3.1415926535897931 $37 $66 forward @7 unknown #
point $-1 -1 $-1 0.24999999999999997 3.0615158845559425e-017 -6.1023622047244093 #
face $-1 -1 $-1 $67 $68 $5 $-1 $69 forward single #
loop $-1 -1 $-1 $-1 $70 $40 #
cone-surface $-1 -1 $-1 6.556435184794231e-017 0.59425239242460737 1.0337995067368839 0 0 1 -8.7419135797256438e-017 0.15748031496062992 0 1 I I 0 1 0.15748031496062992 forward I I I I #
loop $-1 -1 $-1 $-1 $45 $28 #
coedge $-1 -1 $-1 $57 $57 $71 $72 reversed $41 $-1 #
coedge $-1 -1 $-1 $58 $58 $44 $59 reversed $73 $-1 #
edge $-1 -1 $-1 $74 -3.1415926535897931 $74 3.1415926535897931 $44 $75 forward @7 unknown #
vertex $-1 -1 $-1 $46 $76 #
ellipse-curve $-1 -1 $-1 0 0 -0.69620049326311584 0 0 1 -0.20500000000000002 0 0 1 I I #
vertex $-1 -1 $-1 $48 $77 #
ellipse-curve $-1 -1 $-1 0 0 -0.68120049326311582 0 0 -1 -0.39960629921259844 0 0 1 I I #
point $-1 -1 $-1 0.38460629921259842 4.7099131773585841e-017 -0.69620049326311584 #
vertex $-1 -1 $-1 $51 $78 #
ellipse-curve $-1 -1 $-1 0 0 6.1023622047244093 0 0 -1 -0.24999999999999997 0 0 1 I I #
face $-1 -1 $-1 $79 $73 $5 $-1 $80 reversed single #
loop $-1 -1 $-1 $-1 $81 $53 #
plane-surface $-1 -1 $-1 -0.7874015748031491 -0.45460651117293388 1.0337995067368839 -0.86602540378443882 0.49999999999999972 0 0 0 0.39370078740157477 forward_v I I I I #
coedge $-1 -1 $-1 $82 $83 $84 $85 forward $54 $-1 #
coedge $-1 -1 $-1 $71 $71 $57 $72 forward $86 $-1 #
edge $-1 -1 $-1 $87 -3.1415926535897931 $87 3.1415926535897931 $71 $88 forward @7 unknown #
loop $-1 -1 $-1 $89 $58 $67 #
vertex $-1 -1 $-1 $59 $90 #
ellipse-curve $-1 -1 $-1 0 0 1.0337995067368839 0 0 -1 -0.39960629921259844 0 0 1 I I #
point $-1 -1 $-1 -0.20500000000000002 0 -0.69620049326311584 #
point $-1 -1 $-1 0.39960629921259844 -4.8936041304319407e-017 -0.68120049326311582 #
point $-1 -1 $-1 0.24999999999999997 3.0615158845559425e-017 6.1023622047244093 #
face $-1 -1 $-1 $91 $92 $5 $-1 $93 forward single #
plane-surface $-1 -1 $-1 1.3112870369588462e-016 3.2782175923971155e-017 1.0337995067368837 -9.4580322021393025e-033 4.8815650075557677e-033 1 0.39370078740157477 0 3.7236347252516936e-033 forward_v I I I I #
coedge $-1 -1 $-1 $94 $95 $83 $96 reversed $68 $-1 #
coedge $-1 -1 $-1 $97 $70 $98 $99 forward $54 $-1 #
coedge $-1 -1 $-1 $70 $97 $81 $96 forward $54 $-1 #
coedge $-1 -1 $-1 $100 $101 $70 $85 reversed $102 $-1 #
edge $-1 -1 $-1 $103 -1.0471975511965981 $104 1.0471975511965983 $84 $105 forward @7 unknown #
loop $-1 -1 $-1 $102 $71 $106 #
vertex $-1 -1 $-1 $72 $107 #
ellipse-curve $-1 -1 $-1 0 0 1.2037995067368834 -1.4644695022667317e-032 2.4407825037778825e-032 -1 -0.20500000000000002 0 0 1 I I #
loop $-1 -1 $-1 $108 $109 $67 #
point $-1 -1 $-1 0.39960629921259844 4.8936041304319407e-017 1.0337995067368839 #
face $-1 -1 $-1 $110 $111 $5 $-1 $112 forward single #
loop $-1 -1 $-1 $-1 $113 $79 #
cone-surface $-1 -1 $-1 0.51463766809938916 -0.29712619621230352 1.0337995067368839 0 0 1 0.13638195335188022 -0.078740157480314751 0 1 I I 0 1 0.15748031496062992 forward I I I I #
coedge $-1 -1 $-1 $114 $81 $115 $116 reversed $68 $-1 #
coedge $-1 -1 $-1 $81 $114 $100 $117 forward $68 $-1 #
edge $-1 -1 $-1 $118 0 $103 0.43179999999999996 $81 $119 forward @7 unknown #
coedge $-1 -1 $-1 $83 $82 $109 $120 forward $54 $-1 #
coedge $-1 -1 $-1 $121 $122 $82 $99 reversed $123 $-1 #
edge $-1 -1 $-1 $104 -0.43179999999999996 $124 0 $98 $125 forward @7 unknown #
coedge $-1 -1 $-1 $126 $84 $95 $117 reversed $102 $-1 #
coedge $-1 -1 $-1 $84 $127 $121 $128 reversed $102 $-1 #
loop $-1 -1 $-1 $129 $84 $106 #
vertex $-1 -1 $-1 $96 $130 #
vertex $-1 -1 $-1 $128 $131 #
ellipse-curve $-1 -1 $-1 6.556435184794231e-017 0.59425239242460737 1.2037995067368834 -1.4644695022667317e-032 2.4407825037778825e-032 -1 -8.7419135797256438e-017 0.15748031496062992 0 1 I I #
face $-1 -1 $-1 $-1 $86 $5 $-1 $132 forward single #
point $-1 -1 $-1 0.20500000000000002 -2.5104430253358735e-017 1.2037995067368834 #
loop $-1 -1 $-1 $133 $134 $67 #
coedge $-1 -1 $-1 $135 $115 $97 $120 reversed $89 $-1 #
face $-1 -1 $-1 $136 $137 $5 $-1 $138 forward single #
loop $-1 -1 $-1 $-1 $139 $91 #
plane-surface $-1 -1 $-1 0.78740157480314954 -0.45460651117293333 1.0337995067368839 3.3306690738754706e-016 -1 0 0 0 -0.39370078740157477 forward_v I I I I #
coedge $-1 -1 $-1 $140 $141 $127 $142 forward $92 $-1 #
coedge $-1 -1 $-1 $95 $94 $143 $144 reversed $68 $-1 #
coedge $-1 -1 $-1 $109 $145 $94 $116 forward $89 $-1 #
edge $-1 -1 $-1 $146 0.69282032302755114 $118 3.3071796769724484 $115 $147 forward @7 unknown #
edge $-1 -1 $-1 $148 0.69282032302755114 $103 3.3071796769724484 $95 $149 forward @7 unknown #
vertex $-1 -1 $-1 $120 $150 #
straight-curve $-1 -1 $-1 -0.13638195335188008 0.6729925499049223 1.0337995067368839 0 0 0.39370078740157477 F -1.2400010000000001 F 1.671800999999999 #
edge $-1 -1 $-1 $124 -1.0471975511965983 $118 1.0471975511965981 $109 $151 forward @7 unknown #
coedge $-1 -1 $-1 $152 $98 $101 $128 forward $123 $-1 #
coedge $-1 -1 $-1 $98 $152 $135 $153 reversed $123 $-1 #
loop $-1 -1 $-1 $-1 $98 $154 #
vertex $-1 -1 $-1 $153 $155 #
straight-curve $-1 -1 $-1 0.13638195335188014 0.6729925499049223 1.0337995067368839 0 0 -0.39370078740157477 F -1.671800999999999 F 1.2400010000000001 #
coedge $-1 -1 $-1 $156 $100 $157 $158 reversed $102 $-1 #
coedge $-1 -1 $-1 $101 $156 $113 $142 reversed $102 $-1 #
edge $-1 -1 $-1 $104 0.69282032302755103 $159 3.3071796769724484 $121 $160 forward @7 unknown #
loop $-1 -1 $-1 $161 $162 $106 #
point $-1 -1 $-1 -0.13638195335188014 0.67299254990492219 1.2037995067368839 #
point $-1 -1 $-1 0.13638195335188014 0.6729925499049223 1.2037995067368839 #
plane-surface $-1 -1 $-1 1.238437757127799e-016 4.3709567898628207e-017 1.2037995067368834 1.4644695022667317e-032 -2.4407825037778825e-032 1 0.39370078740157477 0 -5.7656279616800456e-033 forward_v I I I I #
loop $-1 -1 $-1 $163 $164 $67 #
coedge $-1 -1 $-1 $134 $134 $165 $166 forward $108 $-1 #
coedge $-1 -1 $-1 $167 $109 $122 $153 forward $89 $-1 #
face $-1 -1 $-1 $168 $169 $5 $-1 $170 reversed single #
loop $-1 -1 $-1 $-1 $157 $110 #
cone-surface $-1 -1 $-1 -0.51463766809938893 -0.29712619621230385 1.0337995067368839 0 0 1 -0.13638195335188005 -0.078740157480315029 0 1 I I 0 1 0.15748031496062992 forward I I I I #
coedge $-1 -1 $-1 $171 $172 $140 $173 reversed $111 $-1 #
coedge $-1 -1 $-1 $174 $113 $139 $173 forward $92 $-1 #
coedge $-1 -1 $-1 $113 $174 $152 $175 forward $92 $-1 #
edge $-1 -1 $-1 $159 -1.0471975511965956 $176 1.0471975511965987 $127 $177 forward @7 unknown #
coedge $-1 -1 $-1 $178 $157 $114 $144 forward $137 $-1 #
edge $-1 -1 $-1 $148 -0.43179999999999996 $146 0 $114 $179 forward @7 unknown #
coedge $-1 -1 $-1 $115 $180 $178 $181 reversed $89 $-1 #
vertex $-1 -1 $-1 $116 $182 #
straight-curve $-1 -1 $-1 -0.7874015748031491 -0.45460651117293388 1.0337995067368839 0.19685039370078727 0.34095488337970031 0 F 0 F 4 #
vertex $-1 -1 $-1 $117 $183 #
straight-curve $-1 -1 $-1 -0.7874015748031491 -0.45460651117293388 1.2037995067368839 0.19685039370078727 0.34095488337970031 0 F 0 F 4 #
point $-1 -1 $-1 -0.13638195335188014 0.67299254990492219 1.0337995067368839 #
ellipse-curve $-1 -1 $-1 6.556435184794231e-017 0.59425239242460737 1.0337995067368837 -9.4580322021393025e-033 4.8815650075557677e-033 1 -8.7419135797256438e-017 0.15748031496062992 0 1 I I #
coedge $-1 -1 $-1 $122 $121 $141 $175 reversed $123 $-1 #
edge $-1 -1 $-1 $124 0.69282032302755103 $184 3.3071796769724484 $135 $185 forward @7 unknown #
face $-1 -1 $-1 $106 $123 $5 $-1 $186 forward single #
point $-1 -1 $-1 0.13638195335188014 0.6729925499049223 1.0337995067368839 #
coedge $-1 -1 $-1 $127 $126 $171 $187 reversed $102 $-1 #
coedge $-1 -1 $-1 $143 $188 $126 $158 forward $137 $-1 #
edge $-1 -1 $-1 $189 -1.0471975511965983 $148 1.0471975511965981 $126 $190 forward @7 unknown #
vertex $-1 -1 $-1 $142 $191 #
straight-curve $-1 -1 $-1 0 0.90921302234586721 1.2037995067368839 0.19685039370078744 -0.3409548833797002 0 F 0 F 3.9999999999999991 #
loop $-1 -1 $-1 $192 $193 $106 #
coedge $-1 -1 $-1 $162 $162 $194 $195 forward $129 $-1 #
loop $-1 -1 $-1 $-1 $196 $67 #
coedge $-1 -1 $-1 $164 $164 $197 $198 forward $133 $-1 #
coedge $-1 -1 $-1 $165 $165 $134 $166 reversed $199 $-1 #
edge $-1 -1 $-1 $200 -3.1415926535897931 $200 3.1415926535897931 $134 $201 forward @7 unknown #
coedge $-1 -1 $-1 $180 $135 $174 $202 reversed $89 $-1 #
face $-1 -1 $-1 $203 $204 $5 $-1 $205 reversed single #
loop $-1 -1 $-1 $206 $207 $136 #
cone-surface $-1 -1 $-1 -0.48713928962874664 -0.28125000000000017 -1.6157764684794889 1.4644695022667317e-032 -2.4407825037778825e-032 1 0.098425196850393692 3.5181609630402973e-065 -1.4414069904200114e-033 1 I I 0 1 0.098425196850393692 reversed I I I I #
coedge $-1 -1 $-1 $208 $139 $156 $187 forward $111 $-1 #
coedge $-1 -1 $-1 $139 $208 $180 $209 reversed $111 $-1 #
edge $-1 -1 $-1 $176 -0.43179999999999996 $210 0 $139 $211 forward @7 unknown #
coedge $-1 -1 $-1 $141 $140 $167 $202 forward $92 $-1 #
edge $-1 -1 $-1 $184 0 $159 0.43179999999999996 $152 $212 forward @7 unknown #
vertex $-1 -1 $-1 $187 $213 #
ellipse-curve $-1 -1 $-1 0.51463766809938916 -0.29712619621230352 1.2037995067368834 -1.4644695022667317e-032 2.4407825037778825e-032 -1 0.13638195335188022 -0.078740157480314751 0 1 I I #
coedge $-1 -1 $-1 $188 $143 $145 $181 forward $137 $-1 #
straight-curve $-1 -1 $-1 -0.65101962145126901 -0.21838603873198889 1.0337995067368839 0 0 -0.39370078740157477 F -1.671800999999999 F 1.2400010000000001 #
coedge $-1 -1 $-1 $145 $167 $172 $209 forward $89 $-1 #
edge $-1 -1 $-1 $146 -1.0471975511965981 $214 1.0471975511965983 $145 $215 forward @7 unknown #
point $-1 -1 $-1 -0.65101962145126901 -0.21838603873198889 1.0337995067368839 #
point $-1 -1 $-1 -0.65101962145126901 -0.21838603873198889 1.2037995067368839 #
vertex $-1 -1 $-1 $202 $216 #
straight-curve $-1 -1 $-1 0 0.90921302234586721 1.0337995067368839 0.19685039370078744 -0.3409548833797002 0 F 0 F 3.9999999999999991 #
plane-surface $-1 -1 $-1 0 0.90921302234586721 1.0337995067368839 0.8660254037844386 0.50000000000000011 0 0 0 -0.39370078740157477 forward_v I I I I #
edge $-1 -1 $-1 $176 0.69282032302755114 $189 3.3071796769724475 $171 $217 forward @7 unknown #
coedge $-1 -1 $-1 $157 $178 $208 $218 forward $137 $-1 #
vertex $-1 -1 $-1 $218 $219 #
ellipse-curve $-1 -1 $-1 -0.51463766809938893 -0.29712619621230385 1.2037995067368834 -1.4644695022667317e-032 2.4407825037778825e-032 -1 -0.13638195335188005 -0.078740157480315029 0 1 I I #
point $-1 -1 $-1 0.65101962145126946 -0.21838603873198853 1.2037995067368839 #
loop $-1 -1 $-1 $-1 $220 $106 #
coedge $-1 -1 $-1 $193 $193 $221 $222 forward $161 $-1 #
coedge $-1 -1 $-1 $194 $194 $162 $195 reversed $206 $-1 #
edge $-1 -1 $-1 $223 0 $223 6.2831853071795862 $162 $224 forward @7 unknown #
coedge $-1 -1 $-1 $196 $196 $207 $225 forward $163 $-1 #
coedge $-1 -1 $-1 $197 $197 $164 $198 reversed $204 $-1 #
edge $-1 -1 $-1 $226 -3.1415926535897931 $226 3.1415926535897931 $164 $227 forward @7 unknown #
loop $-1 -1 $-1 $228 $165 $203 #
vertex $-1 -1 $-1 $166 $229 #
ellipse-curve $-1 -1 $-1 0.48713928962874686 -0.28124999999999978 1.0337995067368835 -9.4580322021393025e-033 4.8815650075557677e-033 1 0.098425196850393692 3.5181609630402973e-065 -1.4414069904200114e-033 1 I I #
edge $-1 -1 $-1 $210 -1.0471975511965987 $184 1.0471975511965956 $167 $230 forward @7 unknown #
face $-1 -1 $-1 $154 $199 $5 $-1 $231 reversed single #
loop $-1 -1 $-1 $232 $197 $168 #
cone-surface $-1 -1 $-1 -1.6224997666361328e-016 0.56249999999999989 -1.6157764684794889 1.4644695022667317e-032 -2.4407825037778825e-032 1 0.098425196850393692 3.5181609630402973e-065 -1.4414069904200114e-033 1 I I 0 1 0.098425196850393692 reversed I I I I #
loop $-1 -1 $-1 $-1 $194 $136 #
coedge $-1 -1 $-1 $207 $207 $196 $225 reversed $169 $-1 #
coedge $-1 -1 $-1 $172 $171 $188 $218 reversed $111 $-1 #
edge $-1 -1 $-1 $210 0.69282032302755114 $214 3.3071796769724475 $180 $233 forward @7 unknown #
vertex $-1 -1 $-1 $209 $234 #
straight-curve $-1 -1 $-1 0.51463766809938927 -0.45460651117293344 1.0337995067368839 0 0 -0.39370078740157477 F -1.671800999999999 F 1.2400010000000001 #
straight-curve $-1 -1 $-1 0.65101962145126946 -0.21838603873198845 1.0337995067368839 0 0 0.39370078740157477 F -1.2400010000000001 F 1.671800999999999 #
point $-1 -1 $-1 0.51463766809938927 -0.45460651117293344 1.2037995067368839 #
vertex $-1 -1 $-1 $181 $235 #
ellipse-curve $-1 -1 $-1 -0.51463766809938893 -0.29712619621230385 1.0337995067368837 -9.4580322021393025e-033 4.8815650075557677e-033 1 -0.13638195335188005 -0.078740157480315029 0 1 I I #
point $-1 -1 $-1 0.65101962145126946 -0.21838603873198853 1.0337995067368839 #
straight-curve $-1 -1 $-1 0.78740157480314954 -0.45460651117293333 1.2037995067368839 -0.39370078740157477 -1.3112870369588467e-016 0 F 0 F 3.9999999999999991 #
edge $-1 -1 $-1 $214 0 $189 0.43179999999999996 $208 $236 forward @7 unknown #
point $-1 -1 $-1 -0.51463766809938871 -0.45460651117293377 1.2037995067368839 #
coedge $-1 -1 $-1 $220 $220 $237 $238 forward $192 $-1 #
coedge $-1 -1 $-1 $221 $221 $193 $222 reversed $232 $-1 #
edge $-1 -1 $-1 $239 0 $239 6.2831853071795862 $193 $240 forward @7 unknown #
vertex $-1 -1 $-1 $195 $241 #
ellipse-curve $-1 -1 $-1 -0.48713928962874664 -0.28125000000000017 1.2037995067368834 -1.4644695022667317e-032 2.4407825037778825e-032 -1 0.098425196850393692 3.5181609630402973e-065 -1.4414069904200114e-033 1 I I #
edge $-1 -1 $-1 $242 -3.1415926535897931 $242 3.1415926535897931 $196 $243 forward @7 unknown #
vertex $-1 -1 $-1 $198 $244 #
ellipse-curve $-1 -1 $-1 -1.6224997666361326e-016 0.56249999999999989 1.0337995067368835 -9.4580322021393025e-033 4.8815650075557677e-033 1 0.098425196850393692 3.5181609630402973e-065 -1.4414069904200114e-033 1 I I #
loop $-1 -1 $-1 $-1 $237 $203 #
point $-1 -1 $-1 0.38871409277835317 -0.28124999999999978 1.0337995067368835 #
ellipse-curve $-1 -1 $-1 0.51463766809938916 -0.29712619621230352 1.0337995067368837 -9.4580322021393025e-033 4.8815650075557677e-033 1 0.13638195335188022 -0.078740157480314751 0 1 I I #
cone-surface $-1 -1 $-1 0.48713928962874686 -0.28124999999999978 -1.6157764684794889 1.4644695022667317e-032 -2.4407825037778825e-032 1 0.098425196850393692 3.5181609630402973e-065 -1.4414069904200114e-033 1 I I 0 1 0.098425196850393692 reversed I I I I #
loop $-1 -1 $-1 $-1 $221 $168 #
straight-curve $-1 -1 $-1 0.78740157480314954 -0.45460651117293333 1.0337995067368839 -0.39370078740157477 -1.3112870369588467e-016 0 F 0 F 3.9999999999999991 #
point $-1 -1 $-1 0.51463766809938927 -0.45460651117293344 1.0337995067368839 #
point $-1 -1 $-1 -0.51463766809938871 -0.45460651117293377 1.0337995067368839 #
straight-curve $-1 -1 $-1 -0.51463766809938882 -0.45460651117293377 1.0337995067368839 0 0 0.39370078740157477 F -1.2400010000000001 F 1.671800999999999 #
coedge $-1 -1 $-1 $237 $237 $220 $238 reversed $228 $-1 #
edge $-1 -1 $-1 $245 0 $245 6.2831853071795862 $220 $246 forward @7 unknown #
vertex $-1 -1 $-1 $222 $247 #
ellipse-curve $-1 -1 $-1 -1.6224997666361326e-016 0.56249999999999989 1.2037995067368834 -1.4644695022667317e-032 2.4407825037778825e-032 -1 0.098425196850393692 3.5181609630402973e-065 -1.4414069904200114e-033 1 I I #
point $-1 -1 $-1 -0.38871409277835295 -0.28125000000000017 1.2037995067368834 #
vertex $-1 -1 $-1 $225 $248 #
ellipse-curve $-1 -1 $-1 -0.48713928962874664 -0.28125000000000017 1.0337995067368835 -9.4580322021393025e-033 4.8815650075557677e-033 1 0.098425196850393692 3.5181609630402973e-065 -1.4414069904200114e-033 1 I I #
point $-1 -1 $-1 -0.098425196850393845 0.56249999999999989 1.0337995067368835 #
vertex $-1 -1 $-1 $238 $249 #
ellipse-curve $-1 -1 $-1 0.48713928962874686 -0.28124999999999978 1.2037995067368834 -1.4644695022667317e-032 2.4407825037778825e-032 -1 0.098425196850393692 3.5181609630402973e-065 -1.4414069904200114e-033 1 I I #
point $-1 -1 $-1 0.098425196850393526 0.56249999999999989 1.2037995067368834 #
point $-1 -1 $-1 -0.58556448647914028 -0.28125000000000017 1.0337995067368835 #
point $-1 -1 $-1 0.58556448647914061 -0.28124999999999978 1.2037995067368834 #
End-of-ACIS-data 