700 0 1 0           
28 Autodesk Inventor 6.0.0.9000 16 ASM 6.0.0.192 NT 24 Sun Nov 05 14:28:29 2006 
25.399999999999999 9.9999999999999995e-007 1e-010 
body $-1 -1 $-1 $1 $-1 $-1 #
lump $-1 -1 $-1 $-1 $2 $0 #
shell $-1 -1 $-1 $-1 $-1 $3 $-1 $1 #
face $-1 -1 $-1 $4 $5 $2 $-1 $6 forward single #
face $-1 -1 $-1 $7 $8 $2 $-1 $9 forward single #
loop $-1 -1 $-1 $-1 $10 $3 #
plane-surface $-1 -1 $-1 -0.27499999999999991 -0.28224999999999995 0.010000000000000012 -1.4639929274938437e-016 5.4636959873285255e-016 1 0.39370078740157477 0 5.7637516830466289e-017 reverse_v I I I I #
face $-1 -1 $-1 $11 $12 $2 $-1 $13 forward single #
loop $-1 -1 $-1 $-1 $14 $4 #
plane-surface $-1 -1 $-1 -0.27499999999999991 -0.26224999999999998 0.010000000000000002 -0.25881904510252068 0.96592582628906831 0 0 0 -0.39370078740157477 reverse_v I I I I #
coedge $-1 -1 $-1 $15 $16 $17 $18 reversed $5 $-1 #
face $-1 -1 $-1 $19 $20 $2 $-1 $21 forward single #
loop $-1 -1 $-1 $-1 $22 $7 #
plane-surface $-1 -1 $-1 -0.27499999999999991 -0.26224999999999998 -0.0099999999999999898 0 0 -1 -0.39370078740157477 0 0 reverse_v I I I I #
coedge $-1 -1 $-1 $23 $24 $25 $26 reversed $8 $-1 #
coedge $-1 -1 $-1 $27 $10 $28 $29 reversed $5 $-1 #
coedge $-1 -1 $-1 $10 $27 $23 $30 forward $5 $-1 #
coedge $-1 -1 $-1 $25 $31 $10 $18 forward $32 $-1 #
edge $-1 -1 $-1 $33 0 $34 0.050799999999999956 $10 $35 forward @7 unknown #
face $-1 -1 $-1 $36 $32 $2 $-1 $37 reversed single #
loop $-1 -1 $-1 $-1 $38 $11 #
plane-surface $-1 -1 $-1 -0.27499999999999991 -0.28224999999999995 -0.0099999999999999898 0.25881904510252068 -0.96592582628906831 0 0 0 0.39370078740157477 reverse_v I I I I #
coedge $-1 -1 $-1 $39 $40 $41 $42 reversed $12 $-1 #
coedge $-1 -1 $-1 $43 $14 $16 $30 reversed $8 $-1 #
coedge $-1 -1 $-1 $14 $43 $39 $44 forward $8 $-1 #
coedge $-1 -1 $-1 $41 $17 $14 $26 forward $32 $-1 #
edge $-1 -1 $-1 $34 0 $45 0.050799999999999984 $14 $46 forward @7 unknown #
coedge $-1 -1 $-1 $16 $15 $47 $48 reversed $5 $-1 #
coedge $-1 -1 $-1 $38 $49 $15 $29 forward $20 $-1 #
edge $-1 -1 $-1 $50 0 $33 1.7779999999999998 $15 $51 forward @7 unknown #
edge $-1 -1 $-1 $52 0 $34 1.7779999999999998 $23 $53 forward @7 unknown #
coedge $-1 -1 $-1 $17 $41 $38 $54 forward $32 $-1 #
loop $-1 -1 $-1 $-1 $17 $19 #
vertex $-1 -1 $-1 $29 $55 #
vertex $-1 -1 $-1 $30 $56 #
straight-curve $-1 -1 $-1 -0.95114807840234761 -0.46342333157176441 0.010000000000000012 0 0.39370078740157477 -2.151061412334065e-016 F 0 F 0.050799999999999956 #
face $-1 -1 $-1 $57 $58 $2 $-1 $59 forward single #
plane-surface $-1 -1 $-1 -0.95114807840234761 -0.45342333157176445 8.1955439809927887e-018 1 3.4218381956145519e-028 -3.4753044174209381e-030 -1.3682300855987944e-030 0 -0.39370078740157477 reverse_v I I I I #
coedge $-1 -1 $-1 $60 $28 $31 $54 reversed $20 $-1 #
coedge $-1 -1 $-1 $61 $22 $24 $44 reversed $12 $-1 #
coedge $-1 -1 $-1 $22 $61 $60 $62 forward $12 $-1 #
coedge $-1 -1 $-1 $31 $25 $22 $42 forward $32 $-1 #
edge $-1 -1 $-1 $45 0 $63 0.050799999999999956 $22 $64 forward @7 unknown #
coedge $-1 -1 $-1 $24 $23 $65 $66 reversed $8 $-1 #
edge $-1 -1 $-1 $67 0 $45 1.7779999999999998 $39 $68 forward @7 unknown #
vertex $-1 -1 $-1 $44 $69 #
straight-curve $-1 -1 $-1 -0.95114807840234761 -0.44342333157176439 0.010000000000000002 0 0 -0.39370078740157477 F 0 F 0.050799999999999984 #
coedge $-1 -1 $-1 $70 $65 $27 $48 forward $71 $-1 #
edge $-1 -1 $-1 $52 -0.13874750000000002 $50 -0.087947500000000067 $47 $72 forward @7 unknown #
coedge $-1 -1 $-1 $28 $60 $70 $73 reversed $20 $-1 #
vertex $-1 -1 $-1 $48 $74 #
straight-curve $-1 -1 $-1 -0.27499999999999991 -0.28224999999999995 0.010000000000000012 -0.3802857583815229 -0.10189726185138609 0 I I #
vertex $-1 -1 $-1 $48 $75 #
straight-curve $-1 -1 $-1 -0.27499999999999991 -0.26224999999999998 0.010000000000000002 -0.3802857583815229 -0.10189726185138609 0 I I #
edge $-1 -1 $-1 $63 0 $33 0.050800000000000012 $38 $76 forward @7 unknown #
point $-1 -1 $-1 -0.95114807840234761 -0.46342333157176441 0.010000000000000012 #
point $-1 -1 $-1 -0.95114807840234761 -0.44342333157176439 0.010000000000000002 #
face $-1 -1 $-1 $77 $78 $2 $-1 $79 forward single #
loop $-1 -1 $-1 $-1 $80 $36 #
plane-surface $-1 -1 $-1 -0.27499999999999991 -0.20224999999999999 0.010000000000000012 -1.4639929274938437e-016 5.4636959873285255e-016 1 0.39370078740157477 0 5.7637516830466289e-017 reverse_v I I I I #
coedge $-1 -1 $-1 $49 $38 $40 $62 reversed $20 $-1 #
coedge $-1 -1 $-1 $40 $39 $81 $82 reversed $12 $-1 #
edge $-1 -1 $-1 $83 0 $63 1.7779999999999998 $60 $84 forward @7 unknown #
vertex $-1 -1 $-1 $62 $85 #
straight-curve $-1 -1 $-1 -0.95114807840234761 -0.44342333157176439 -0.0099999999999999898 0 -0.39370078740157477 0 F 0 F 0.050799999999999956 #
coedge $-1 -1 $-1 $47 $81 $43 $66 forward $71 $-1 #
edge $-1 -1 $-1 $67 -0.038099999999999981 $52 0.012700000000000003 $65 $86 forward @7 unknown #
vertex $-1 -1 $-1 $66 $87 #
straight-curve $-1 -1 $-1 -0.27499999999999991 -0.26224999999999998 -0.0099999999999999898 -0.3802857583815229 -0.10189726185138609 0 I I #
point $-1 -1 $-1 -0.95114807840234761 -0.44342333157176439 -0.0099999999999999898 #
coedge $-1 -1 $-1 $81 $47 $49 $73 forward $71 $-1 #
loop $-1 -1 $-1 $88 $47 $89 #
straight-curve $-1 -1 $-1 -0.27499999999999991 -0.31687499999999996 0.010000000000000031 0 -0.39370078740157477 2.151061412334065e-016 I I #
edge $-1 -1 $-1 $50 -0.038100000000000023 $83 0.012699999999999989 $70 $90 forward @7 unknown #
point $-1 -1 $-1 -0.27499999999999991 -0.28224999999999995 0.010000000000000012 #
point $-1 -1 $-1 -0.27499999999999991 -0.26224999999999998 0.010000000000000002 #
straight-curve $-1 -1 $-1 -0.95114807840234761 -0.46342333157176441 -0.0099999999999999898 0 0 0.39370078740157477 F 0 F 0.050800000000000012 #
face $-1 -1 $-1 $91 $92 $2 $-1 $93 forward single #
loop $-1 -1 $-1 $-1 $94 $57 #
plane-surface $-1 -1 $-1 -0.27499999999999991 -0.18225 0.010000000000000002 -0.25881904510252068 0.96592582628906831 0 0 0 -0.39370078740157477 reverse_v I I I I #
coedge $-1 -1 $-1 $95 $96 $97 $98 reversed $58 $-1 #
coedge $-1 -1 $-1 $65 $70 $61 $82 forward $71 $-1 #
edge $-1 -1 $-1 $83 0.062547499999999978 $67 0.11334749999999993 $81 $99 forward @7 unknown #
vertex $-1 -1 $-1 $82 $100 #
straight-curve $-1 -1 $-1 -0.27499999999999991 -0.28224999999999995 -0.0099999999999999898 -0.3802857583815229 -0.10189726185138609 0 I I #
point $-1 -1 $-1 -0.95114807840234761 -0.46342333157176441 -0.0099999999999999898 #
straight-curve $-1 -1 $-1 -0.27499999999999991 -0.26224999999999993 0.005000000000000001 0 0 0.39370078740157477 I I #
point $-1 -1 $-1 -0.27499999999999991 -0.26224999999999998 -0.0099999999999999898 #
loop $-1 -1 $-1 $101 $102 $89 #
face $-1 -1 $-1 $103 $71 $2 $-1 $104 forward single #
straight-curve $-1 -1 $-1 -0.27499999999999991 -0.28224999999999995 -0.0049999999999999949 0 0 -0.39370078740157477 I I #
face $-1 -1 $-1 $105 $106 $2 $-1 $107 forward single #
loop $-1 -1 $-1 $-1 $108 $77 #
plane-surface $-1 -1 $-1 -0.27499999999999991 -0.18225 -0.0099999999999999898 0 0 -1 -0.39370078740157477 0 0 reverse_v I I I I #
coedge $-1 -1 $-1 $109 $110 $111 $112 reversed $78 $-1 #
coedge $-1 -1 $-1 $113 $80 $114 $115 reversed $58 $-1 #
coedge $-1 -1 $-1 $80 $113 $109 $116 forward $58 $-1 #
coedge $-1 -1 $-1 $111 $117 $80 $98 forward $118 $-1 #
edge $-1 -1 $-1 $119 -1.1102230246251565e-016 $120 0.050799999999999956 $80 $121 forward @7 unknown #
straight-curve $-1 -1 $-1 -0.27499999999999991 -0.30687499999999995 -0.0099999999999999898 0 0.39370078740157477 0 I I #
point $-1 -1 $-1 -0.27499999999999991 -0.28224999999999995 -0.0099999999999999898 #
loop $-1 -1 $-1 $-1 $122 $89 #
coedge $-1 -1 $-1 $123 $124 $113 $125 forward $88 $-1 #
face $-1 -1 $-1 $126 $127 $2 $-1 $128 forward single #
plane-surface $-1 -1 $-1 -0.27499999999999991 -0.35149999999999998 0 -1 0 0 0 0 0.39370078740157477 forward_v I I I I #
face $-1 -1 $-1 $129 $118 $2 $-1 $130 reversed single #
loop $-1 -1 $-1 $-1 $131 $91 #
plane-surface $-1 -1 $-1 -0.27499999999999991 -0.20224999999999999 -0.0099999999999999898 0.25881904510252068 -0.96592582628906831 0 0 0 0.39370078740157477 reverse_v I I I I #
coedge $-1 -1 $-1 $132 $133 $134 $135 reversed $92 $-1 #
coedge $-1 -1 $-1 $136 $94 $96 $116 reversed $78 $-1 #
coedge $-1 -1 $-1 $94 $136 $132 $137 forward $78 $-1 #
coedge $-1 -1 $-1 $134 $97 $94 $112 forward $118 $-1 #
edge $-1 -1 $-1 $120 0 $138 0.050799999999999984 $94 $139 forward @7 unknown #
coedge $-1 -1 $-1 $96 $95 $102 $125 reversed $58 $-1 #
coedge $-1 -1 $-1 $131 $140 $95 $115 forward $106 $-1 #
edge $-1 -1 $-1 $141 0 $119 1.7779999999999998 $95 $142 forward @7 unknown #
edge $-1 -1 $-1 $143 0 $120 1.7779999999999998 $109 $144 forward @7 unknown #
coedge $-1 -1 $-1 $97 $134 $131 $145 forward $118 $-1 #
loop $-1 -1 $-1 $-1 $97 $105 #
vertex $-1 -1 $-1 $115 $146 #
vertex $-1 -1 $-1 $116 $147 #
straight-curve $-1 -1 $-1 -0.95114807840234761 -0.38342333157176445 0.010000000000000012 0 0.39370078740157477 -2.151061412334065e-016 F 0 F 0.050800000000000012 #
coedge $-1 -1 $-1 $148 $149 $150 $151 forward $101 $-1 #
coedge $-1 -1 $-1 $152 $102 $140 $153 forward $88 $-1 #
coedge $-1 -1 $-1 $102 $152 $136 $154 forward $88 $-1 #
edge $-1 -1 $-1 $143 -0.24034749999999999 $141 -0.18954749999999998 $102 $155 forward @7 unknown #
face $-1 -1 $-1 $156 $157 $2 $-1 $158 forward single #
loop $-1 -1 $-1 $-1 $159 $103 #
plane-surface $-1 -1 $-1 -0.27499999999999991 -0.11300000000000002 0 0 -1 0 0 0 -0.39370078740157477 forward_v I I I I #
face $-1 -1 $-1 $160 $161 $2 $-1 $162 forward single #
plane-surface $-1 -1 $-1 -0.95114807840234761 -0.37342333157176444 8.1955439809927887e-018 1 2.0103299399235458e-028 -3.4753044174209829e-030 -1.3682300855988121e-030 0 -0.39370078740157477 reverse_v I I I I #
coedge $-1 -1 $-1 $163 $114 $117 $145 reversed $106 $-1 #
coedge $-1 -1 $-1 $164 $108 $110 $137 reversed $92 $-1 #
coedge $-1 -1 $-1 $108 $164 $163 $165 forward $92 $-1 #
coedge $-1 -1 $-1 $117 $111 $108 $135 forward $118 $-1 #
edge $-1 -1 $-1 $138 1.1102230246251565e-016 $166 0.050800000000000178 $108 $167 forward @7 unknown #
coedge $-1 -1 $-1 $110 $109 $124 $154 reversed $78 $-1 #
edge $-1 -1 $-1 $168 0 $138 1.7779999999999998 $132 $169 forward @7 unknown #
vertex $-1 -1 $-1 $137 $170 #
straight-curve $-1 -1 $-1 -0.95114807840234761 -0.36342333157176443 0.010000000000000002 0 0 -0.39370078740157477 F 0 F 0.050799999999999984 #
coedge $-1 -1 $-1 $114 $163 $123 $153 reversed $106 $-1 #
vertex $-1 -1 $-1 $125 $171 #
straight-curve $-1 -1 $-1 -0.27499999999999991 -0.20224999999999999 0.010000000000000012 -0.3802857583815229 -0.10189726185138609 0 I I #
vertex $-1 -1 $-1 $125 $172 #
straight-curve $-1 -1 $-1 -0.27499999999999991 -0.18225 0.010000000000000002 -0.3802857583815229 -0.10189726185138609 0 I I #
edge $-1 -1 $-1 $166 0 $119 0.050800000000000012 $131 $173 forward @7 unknown #
point $-1 -1 $-1 -0.95114807840234761 -0.38342333157176445 0.010000000000000012 #
point $-1 -1 $-1 -0.95114807840234761 -0.36342333157176443 0.010000000000000002 #
coedge $-1 -1 $-1 $174 $122 $175 $176 reversed $101 $-1 #
coedge $-1 -1 $-1 $122 $174 $177 $178 forward $101 $-1 #
coedge $-1 -1 $-1 $179 $180 $122 $151 reversed $181 $-1 #
edge $-1 -1 $-1 $182 -0.60578999999999994 $183 0 $122 $184 forward @7 unknown #
coedge $-1 -1 $-1 $124 $123 $164 $185 forward $88 $-1 #
edge $-1 -1 $-1 $141 -0.038100000000000023 $186 0.012699999999999989 $123 $187 forward @7 unknown #
edge $-1 -1 $-1 $168 -0.038099999999999981 $143 0.012700000000000003 $124 $188 forward @7 unknown #
straight-curve $-1 -1 $-1 -0.27499999999999991 -0.27687499999999998 0.010000000000000054 0 -0.39370078740157477 2.151061412334065e-016 I I #
face $-1 -1 $-1 $189 $190 $2 $-1 $191 forward single #
loop $-1 -1 $-1 $-1 $192 $126 #
plane-surface $-1 -1 $-1 -0.57499999999999996 -0.11300000000000002 0 -1 0 0 0 0 0.39370078740157477 forward_v I I I I #
coedge $-1 -1 $-1 $193 $175 $180 $194 forward $127 $-1 #
face $-1 -1 $-1 $195 $196 $2 $-1 $197 forward single #
loop $-1 -1 $-1 $-1 $198 $129 #
plane-surface $-1 -1 $-1 -0.27499999999999991 0.28224999999999995 0.010000000000000012 -1.4639929274938437e-016 -5.4636959873285255e-016 1 0.39370078740157477 0 5.7637516830466289e-017 forward_v I I I I #
coedge $-1 -1 $-1 $140 $131 $133 $165 reversed $106 $-1 #
coedge $-1 -1 $-1 $133 $132 $152 $185 reversed $92 $-1 #
edge $-1 -1 $-1 $186 0 $166 1.7779999999999998 $163 $199 forward @7 unknown #
vertex $-1 -1 $-1 $165 $200 #
straight-curve $-1 -1 $-1 -0.95114807840234761 -0.36342333157176443 -0.0099999999999999898 0 -0.39370078740157477 0 F 0 F 0.050800000000000012 #
vertex $-1 -1 $-1 $154 $201 #
straight-curve $-1 -1 $-1 -0.27499999999999991 -0.18225 -0.0099999999999999898 -0.3802857583815229 -0.10189726185138609 0 I I #
point $-1 -1 $-1 -0.95114807840234761 -0.36342333157176443 -0.0099999999999999898 #
point $-1 -1 $-1 -0.27499999999999991 -0.20224999999999999 0.010000000000000012 #
point $-1 -1 $-1 -0.27499999999999991 -0.18225 0.010000000000000002 #
straight-curve $-1 -1 $-1 -0.95114807840234761 -0.38342333157176445 -0.0099999999999999898 0 0 0.39370078740157477 F 0 F 0.050800000000000012 #
coedge $-1 -1 $-1 $149 $148 $202 $203 forward $101 $-1 #
coedge $-1 -1 $-1 $159 $204 $148 $176 forward $127 $-1 #
edge $-1 -1 $-1 $205 -0.26669999999999999 $183 0.26669999999999999 $175 $206 forward @7 unknown #
coedge $-1 -1 $-1 $207 $208 $149 $178 reversed $209 $-1 #
edge $-1 -1 $-1 $210 -0.26669999999999999 $182 0.26669999999999999 $149 $211 forward @7 unknown #
coedge $-1 -1 $-1 $212 $150 $208 $213 reversed $181 $-1 #
coedge $-1 -1 $-1 $150 $214 $159 $194 reversed $181 $-1 #
loop $-1 -1 $-1 $-1 $215 $216 #
vertex $-1 -1 $-1 $178 $217 #
vertex $-1 -1 $-1 $176 $218 #
straight-curve $-1 -1 $-1 -0.27499999999999991 -0.11300000000000002 0.10499999999999998 0 0.39370078740157477 0 F -0.60578999999999994 F 0 #
edge $-1 -1 $-1 $186 0.1641475 $168 0.21494750000000001 $152 $219 forward @7 unknown #
vertex $-1 -1 $-1 $185 $220 #
straight-curve $-1 -1 $-1 -0.27499999999999991 -0.20224999999999999 -0.0049999999999999949 0 0 -0.39370078740157477 I I #
straight-curve $-1 -1 $-1 -0.27499999999999991 -0.18225000000000002 0.005000000000000001 0 0 0.39370078740157477 I I #
face $-1 -1 $-1 $216 $221 $2 $-1 $222 forward single #
loop $-1 -1 $-1 $-1 $223 $156 #
plane-surface $-1 -1 $-1 -0.57499999999999996 0.11299999999999999 0 0 1 0 0 0 0.39370078740157477 forward_v I I I I #
coedge $-1 -1 $-1 $224 $225 $214 $226 forward $157 $-1 #
coedge $-1 -1 $-1 $204 $159 $225 $227 reversed $127 $-1 #
edge $-1 -1 $-1 $183 -0.76200000000000001 $228 0 $159 $229 forward @7 unknown #
face $-1 -1 $-1 $230 $231 $2 $-1 $232 forward single #
loop $-1 -1 $-1 $-1 $233 $160 #
plane-surface $-1 -1 $-1 -0.27499999999999991 0.26224999999999998 0.010000000000000002 -0.25881904510252068 -0.96592582628906831 0 0 0 -0.39370078740157477 forward_v I I I I #
coedge $-1 -1 $-1 $234 $235 $236 $237 forward $161 $-1 #
straight-curve $-1 -1 $-1 -0.27499999999999991 -0.20224999999999999 -0.0099999999999999898 -0.3802857583815229 -0.10189726185138609 0 I I #
point $-1 -1 $-1 -0.95114807840234761 -0.38342333157176445 -0.0099999999999999898 #
point $-1 -1 $-1 -0.27499999999999991 -0.18225 -0.0099999999999999898 #
coedge $-1 -1 $-1 $238 $239 $174 $203 reversed $240 $-1 #
edge $-1 -1 $-1 $205 0 $210 0.60578999999999994 $174 $241 forward @7 unknown #
coedge $-1 -1 $-1 $175 $193 $238 $242 forward $127 $-1 #
vertex $-1 -1 $-1 $176 $243 #
straight-curve $-1 -1 $-1 -0.27499999999999991 -0.11300000000000002 0 0 0 0.39370078740157477 I I #
coedge $-1 -1 $-1 $244 $177 $239 $245 forward $209 $-1 #
coedge $-1 -1 $-1 $177 $244 $179 $213 forward $209 $-1 #
loop $-1 -1 $-1 $-1 $208 $246 #
vertex $-1 -1 $-1 $178 $247 #
straight-curve $-1 -1 $-1 -0.27499999999999991 -0.35149999999999998 0 0 0 0.39370078740157477 I I #
coedge $-1 -1 $-1 $248 $179 $249 $250 reversed $181 $-1 #
edge $-1 -1 $-1 $251 -0.54823392542759875 $182 0 $208 $252 forward @7 unknown #
coedge $-1 -1 $-1 $180 $253 $192 $226 reversed $181 $-1 #
coedge $-1 -1 $-1 $254 $255 $256 $257 reversed $181 $-1 #
face $-1 -1 $-1 $-1 $258 $2 $-1 $259 forward single #
point $-1 -1 $-1 -0.27499999999999991 -0.35149999999999998 0.10499999999999998 #
point $-1 -1 $-1 -0.27499999999999991 -0.11300000000000002 0.10499999999999998 #
straight-curve $-1 -1 $-1 -0.27499999999999991 -0.26687499999999997 -0.0099999999999999898 0 0.39370078740157477 0 I I #
point $-1 -1 $-1 -0.27499999999999991 -0.20224999999999999 -0.0099999999999999898 #
loop $-1 -1 $-1 $260 $261 $189 #
plane-surface $-1 -1 $-1 -0.27499999999999991 0.11299999999999999 0 -1 0 0 0 0 0.39370078740157477 forward_v I I I I #
coedge $-1 -1 $-1 $262 $263 $253 $264 forward $190 $-1 #
coedge $-1 -1 $-1 $265 $192 $263 $266 reversed $157 $-1 #
coedge $-1 -1 $-1 $192 $265 $193 $227 forward $157 $-1 #
edge $-1 -1 $-1 $228 -0.57404000000000011 $267 -5.5511151231257827e-017 $192 $268 forward @7 unknown #
edge $-1 -1 $-1 $269 -0.26669999999999999 $228 0.26669999999999999 $225 $270 forward @7 unknown #
vertex $-1 -1 $-1 $227 $271 #
straight-curve $-1 -1 $-1 -0.57499999999999996 -0.11300000000000002 0.10499999999999998 -0.39370078740157477 0 0 F -0.76200000000000001 F 0 #
face $-1 -1 $-1 $272 $273 $2 $-1 $274 forward single #
loop $-1 -1 $-1 $-1 $275 $195 #
plane-surface $-1 -1 $-1 -0.27499999999999991 0.26224999999999998 -0.0099999999999999898 0 0 -1 -0.39370078740157477 0 0 forward_v I I I I #
coedge $-1 -1 $-1 $276 $277 $278 $279 forward $196 $-1 #
coedge $-1 -1 $-1 $280 $198 $277 $281 reversed $161 $-1 #
coedge $-1 -1 $-1 $198 $280 $282 $283 forward $161 $-1 #
coedge $-1 -1 $-1 $284 $278 $198 $237 reversed $285 $-1 #
edge $-1 -1 $-1 $286 0 $287 0.050799999999999956 $198 $288 forward @7 unknown #
coedge $-1 -1 $-1 $289 $202 $204 $242 reversed $240 $-1 #
coedge $-1 -1 $-1 $202 $290 $207 $245 reversed $240 $-1 #
loop $-1 -1 $-1 $-1 $291 $292 #
straight-curve $-1 -1 $-1 -0.27499999999999991 -0.11300000000000002 -0.10499999999999998 0 -0.39370078740157477 0 F 0 F 0.60578999999999994 #
edge $-1 -1 $-1 $269 0 $205 0.76200000000000001 $204 $293 forward @7 unknown #
point $-1 -1 $-1 -0.27499999999999991 -0.11300000000000002 -0.10499999999999998 #
coedge $-1 -1 $-1 $208 $207 $294 $295 forward $209 $-1 #
edge $-1 -1 $-1 $210 0 $296 0.54823392542759875 $207 $297 forward @7 unknown #
face $-1 -1 $-1 $89 $209 $2 $-1 $298 forward single #
point $-1 -1 $-1 -0.27499999999999991 -0.35149999999999998 -0.10499999999999998 #
coedge $-1 -1 $-1 $255 $212 $299 $300 reversed $181 $-1 #
coedge $-1 -1 $-1 $294 $301 $212 $250 forward $302 $-1 #
edge $-1 -1 $-1 $303 -1.0689681855242077 $251 5.1066901563147939e-017 $249 $304 forward @7 unknown #
vertex $-1 -1 $-1 $295 $305 #
straight-curve $-1 -1 $-1 -0.27499999999999991 -0.35149999999999998 0.10499999999999998 -0.39370078740157477 0 0 F -0.54823392542759875 F 0 #
coedge $-1 -1 $-1 $214 $254 $223 $264 reversed $181 $-1 #
coedge $-1 -1 $-1 $253 $215 $306 $307 reversed $181 $-1 #
coedge $-1 -1 $-1 $215 $248 $308 $309 reversed $181 $-1 #
coedge $-1 -1 $-1 $310 $311 $215 $257 forward $312 $-1 #
edge $-1 -1 $-1 $313 -0.54823392542759875 $314 -5.5511151231257827e-017 $256 $315 forward @7 unknown #
loop $-1 -1 $-1 $181 $316 $216 #
plane-surface $-1 -1 $-1 -0.11960577263687602 -1.0927391974657052e-017 0.10499999999999998 0 0 1 0.39370078740157477 0 0 forward_v I I I I #
loop $-1 -1 $-1 $317 $318 $189 #
coedge $-1 -1 $-1 $319 $320 $280 $321 forward $221 $-1 #
coedge $-1 -1 $-1 $322 $223 $323 $324 reversed $190 $-1 #
coedge $-1 -1 $-1 $223 $322 $224 $266 forward $190 $-1 #
edge $-1 -1 $-1 $267 -0.76200000000000001 $325 0 $223 $326 forward @7 unknown #
coedge $-1 -1 $-1 $225 $224 $289 $327 forward $157 $-1 #
edge $-1 -1 $-1 $328 -0.26669999999999999 $267 0.26669999999999999 $263 $329 forward @7 unknown #
vertex $-1 -1 $-1 $266 $330 #
straight-curve $-1 -1 $-1 -0.57499999999999996 0.11300000000000002 0.10499999999999998 0 0.39370078740157477 0 F -0.57404000000000011 F 0 #
vertex $-1 -1 $-1 $227 $331 #
straight-curve $-1 -1 $-1 -0.57499999999999996 -0.11300000000000002 0 0 0 0.39370078740157477 I I #
point $-1 -1 $-1 -0.57499999999999996 -0.11300000000000002 0.10499999999999998 #
face $-1 -1 $-1 $332 $285 $2 $-1 $333 reversed single #
loop $-1 -1 $-1 $-1 $334 $230 #
plane-surface $-1 -1 $-1 -0.27499999999999991 0.28224999999999995 -0.0099999999999999898 0.25881904510252068 0.96592582628906831 0 0 0 0.39370078740157477 forward_v I I I I #
coedge $-1 -1 $-1 $335 $336 $337 $338 forward $231 $-1 #
coedge $-1 -1 $-1 $339 $233 $336 $340 reversed $196 $-1 #
coedge $-1 -1 $-1 $233 $339 $234 $281 forward $196 $-1 #
coedge $-1 -1 $-1 $236 $337 $233 $279 reversed $285 $-1 #
edge $-1 -1 $-1 $287 0 $341 0.050799999999999984 $233 $342 forward @7 unknown #
coedge $-1 -1 $-1 $235 $234 $261 $321 reversed $161 $-1 #
edge $-1 -1 $-1 $343 0 $287 1.7779999999999998 $277 $344 forward @7 unknown #
coedge $-1 -1 $-1 $345 $334 $235 $283 reversed $273 $-1 #
edge $-1 -1 $-1 $346 0 $286 1.7779999999999998 $235 $347 forward @7 unknown #
coedge $-1 -1 $-1 $337 $236 $334 $348 reversed $285 $-1 #
loop $-1 -1 $-1 $-1 $236 $272 #
vertex $-1 -1 $-1 $283 $349 #
vertex $-1 -1 $-1 $281 $350 #
straight-curve $-1 -1 $-1 -0.95114807840234761 0.46342333157176441 0.010000000000000012 0 -0.39370078740157477 -2.151061412334065e-016 F 0 F 0.050799999999999956 #
coedge $-1 -1 $-1 $291 $238 $265 $327 reversed $240 $-1 #
coedge $-1 -1 $-1 $239 $351 $352 $353 reversed $240 $-1 #
coedge $-1 -1 $-1 $354 $289 $322 $355 reversed $240 $-1 #
face $-1 -1 $-1 $356 $357 $2 $-1 $358 reversed single #
straight-curve $-1 -1 $-1 -0.57499999999999996 -0.11300000000000002 -0.10499999999999998 0.39370078740157477 0 0 F 0 F 0.76200000000000001 #
coedge $-1 -1 $-1 $352 $249 $244 $295 reversed $302 $-1 #
edge $-1 -1 $-1 $296 -0.26669999999999999 $251 0.26669999999999999 $244 $359 forward @7 unknown #
vertex $-1 -1 $-1 $295 $360 #
straight-curve $-1 -1 $-1 -0.27499999999999991 -0.35149999999999998 -0.10499999999999998 0.39370078740157477 0 0 F 0 F 0.54823392542759875 #
plane-surface $-1 -1 $-1 -0.05915987187889811 -0.35149999999999998 0 0 -1 0 0 0 -0.39370078740157477 forward_v I I I I #
coedge $-1 -1 $-1 $361 $362 $248 $300 forward $363 $-1 #
edge $-1 -1 $-1 $364 -0.94742000000000004 $303 0 $299 $365 forward @7 unknown #
coedge $-1 -1 $-1 $249 $352 $361 $366 forward $302 $-1 #
loop $-1 -1 $-1 $-1 $249 $367 #
vertex $-1 -1 $-1 $366 $368 #
straight-curve $-1 -1 $-1 -0.059159871878898089 -0.35149999999999998 0.10499999999999998 -0.36218091157599808 -0.15435445342003906 0 F -1.0689681855242072 F 0 #
point $-1 -1 $-1 -0.05915987187889811 -0.35149999999999998 0.10499999999999998 #
coedge $-1 -1 $-1 $369 $323 $254 $307 forward $317 $-1 #
edge $-1 -1 $-1 $325 -0.60579000000000005 $313 -1.1102230246251565e-016 $306 $370 forward @7 unknown #
coedge $-1 -1 $-1 $371 $372 $255 $309 forward $373 $-1 #
edge $-1 -1 $-1 $314 -1.0689681855242077 $364 0 $308 $374 forward @7 unknown #
coedge $-1 -1 $-1 $375 $256 $372 $376 reversed $312 $-1 #
coedge $-1 -1 $-1 $256 $375 $369 $377 reversed $312 $-1 #
loop $-1 -1 $-1 $-1 $256 $356 #
vertex $-1 -1 $-1 $377 $378 #
vertex $-1 -1 $-1 $376 $379 #
straight-curve $-1 -1 $-1 -0.059159871878898089 0.35149999999999998 0.10499999999999998 0.39370078740157477 0 0 F -0.54823392542759875 F 0 #
coedge $-1 -1 $-1 $380 $381 $382 $383 forward $258 $-1 #
loop $-1 -1 $-1 $-1 $306 $189 #
coedge $-1 -1 $-1 $384 $385 $386 $387 forward $260 $-1 #
coedge $-1 -1 $-1 $388 $261 $339 $389 forward $221 $-1 #
coedge $-1 -1 $-1 $261 $388 $345 $390 forward $221 $-1 #
edge $-1 -1 $-1 $346 -0.21494749999999996 $343 -0.1641475 $261 $391 forward @7 unknown #
coedge $-1 -1 $-1 $263 $262 $291 $355 forward $190 $-1 #
coedge $-1 -1 $-1 $306 $392 $262 $324 forward $317 $-1 #
edge $-1 -1 $-1 $393 -0.26669999999999999 $325 0.26669999999999999 $323 $394 forward @7 unknown #
vertex $-1 -1 $-1 $324 $395 #
straight-curve $-1 -1 $-1 -0.27499999999999991 0.11299999999999999 0.10499999999999998 0.39370078740157477 0 0 F -0.76200000000000001 F 0 #
edge $-1 -1 $-1 $328 5.5511151231257827e-017 $269 0.57404000000000011 $265 $396 forward @7 unknown #
vertex $-1 -1 $-1 $266 $397 #
straight-curve $-1 -1 $-1 -0.57499999999999996 0.11299999999999999 0 0 0 0.39370078740157477 I I #
point $-1 -1 $-1 -0.57499999999999996 0.11299999999999999 0.10499999999999998 #
point $-1 -1 $-1 -0.57499999999999996 -0.11300000000000002 -0.10499999999999998 #
face $-1 -1 $-1 $398 $399 $2 $-1 $400 forward single #
plane-surface $-1 -1 $-1 -0.95114807840234761 0.45342333157176445 8.1955439809927887e-018 1 -3.4218381956145519e-028 -3.4753044174209381e-030 -1.3682300855987944e-030 0 -0.39370078740157477 forward_v I I I I #
coedge $-1 -1 $-1 $282 $401 $284 $348 forward $273 $-1 #
coedge $-1 -1 $-1 $402 $275 $401 $403 reversed $231 $-1 #
coedge $-1 -1 $-1 $275 $402 $276 $340 forward $231 $-1 #
coedge $-1 -1 $-1 $278 $284 $275 $338 reversed $285 $-1 #
edge $-1 -1 $-1 $341 0 $404 0.050799999999999956 $275 $405 forward @7 unknown #
coedge $-1 -1 $-1 $277 $276 $319 $389 reversed $196 $-1 #
edge $-1 -1 $-1 $406 0 $341 1.7779999999999998 $336 $407 forward @7 unknown #
vertex $-1 -1 $-1 $340 $408 #
straight-curve $-1 -1 $-1 -0.95114807840234761 0.44342333157176439 0.010000000000000002 0 0 -0.39370078740157477 F 0 F 0.050799999999999984 #
vertex $-1 -1 $-1 $321 $409 #
straight-curve $-1 -1 $-1 -0.27499999999999991 0.26224999999999998 0.010000000000000002 -0.3802857583815229 0.10189726185138609 0 I I #
coedge $-1 -1 $-1 $401 $282 $320 $390 reversed $273 $-1 #
vertex $-1 -1 $-1 $321 $410 #
straight-curve $-1 -1 $-1 -0.27499999999999991 0.28224999999999995 0.010000000000000012 -0.3802857583815229 0.10189726185138609 0 I I #
edge $-1 -1 $-1 $404 0 $286 0.050800000000000012 $334 $411 forward @7 unknown #
point $-1 -1 $-1 -0.95114807840234761 0.46342333157176441 0.010000000000000012 #
point $-1 -1 $-1 -0.95114807840234761 0.44342333157176439 0.010000000000000002 #
coedge $-1 -1 $-1 $290 $412 $413 $414 reversed $240 $-1 #
coedge $-1 -1 $-1 $301 $294 $290 $353 forward $302 $-1 #
edge $-1 -1 $-1 $296 -5.1066901563147939e-017 $415 1.0689681855242077 $352 $416 forward @7 unknown #
coedge $-1 -1 $-1 $417 $291 $392 $418 reversed $240 $-1 #
edge $-1 -1 $-1 $393 0 $328 0.76200000000000001 $322 $419 forward @7 unknown #
face $-1 -1 $-1 $420 $312 $2 $-1 $421 forward single #
loop $-1 -1 $-1 $240 $422 $292 #
plane-surface $-1 -1 $-1 -0.11960577263687601 -8.1955439809927887e-018 -0.10499999999999998 0 0 1 0.39370078740157477 0 0 forward_v I I I I #
straight-curve $-1 -1 $-1 -0.05915987187889811 -0.35149999999999998 0 0 0 0.39370078740157477 I I #
point $-1 -1 $-1 -0.05915987187889811 -0.35149999999999998 -0.10499999999999998 #
coedge $-1 -1 $-1 $413 $299 $301 $366 reversed $363 $-1 #
coedge $-1 -1 $-1 $299 $413 $371 $423 forward $363 $-1 #
loop $-1 -1 $-1 $-1 $299 $424 #
vertex $-1 -1 $-1 $423 $425 #
straight-curve $-1 -1 $-1 0.32800000000000001 -0.1865 0.10499999999999998 0 -0.39370078740157477 0 F -0.94742000000000004 F 0 #
edge $-1 -1 $-1 $415 -0.26669999999999999 $303 0.26669999999999999 $301 $426 forward @7 unknown #
face $-1 -1 $-1 $246 $302 $2 $-1 $427 forward single #
point $-1 -1 $-1 0.32800000000000001 -0.1865 0.10499999999999998 #
coedge $-1 -1 $-1 $392 $306 $311 $377 forward $317 $-1 #
straight-curve $-1 -1 $-1 -0.27499999999999991 0.35150000000000003 0.10499999999999998 0 0.39370078740157477 0 F -0.60579000000000005 F 0 #
coedge $-1 -1 $-1 $428 $308 $362 $423 reversed $373 $-1 #
coedge $-1 -1 $-1 $308 $428 $310 $376 forward $373 $-1 #
loop $-1 -1 $-1 $-1 $308 $420 #
straight-curve $-1 -1 $-1 0.32800000000000001 0.1865 0.10499999999999998 0.36218091157599808 -0.15435445342003906 0 F -1.0689681855242072 F 0 #
coedge $-1 -1 $-1 $311 $310 $417 $429 forward $312 $-1 #
edge $-1 -1 $-1 $430 -0.26669999999999999 $314 0.26669999999999999 $372 $431 forward @7 unknown #
edge $-1 -1 $-1 $313 -0.26669999999999999 $432 0.26669999999999999 $369 $433 forward @7 unknown #
point $-1 -1 $-1 -0.27499999999999991 0.35149999999999998 0.10499999999999998 #
point $-1 -1 $-1 -0.05915987187889811 0.35149999999999998 0.10499999999999998 #
coedge $-1 -1 $-1 $434 $316 $435 $436 forward $258 $-1 #
coedge $-1 -1 $-1 $316 $434 $437 $438 forward $258 $-1 #
coedge $-1 -1 $-1 $439 $440 $316 $383 reversed $441 $-1 #
edge $-1 -1 $-1 $442 -0.68529933124883258 $443 0.38150066875116739 $316 $444 forward @7 unknown #
coedge $-1 -1 $-1 $445 $318 $446 $447 forward $260 $-1 #
coedge $-1 -1 $-1 $318 $445 $448 $449 forward $260 $-1 #
coedge $-1 -1 $-1 $450 $451 $318 $387 reversed $399 $-1 #
edge $-1 -1 $-1 $452 -0.11334750000000005 $453 -0.062547500000000034 $318 $454 forward @7 unknown #
coedge $-1 -1 $-1 $320 $319 $402 $455 forward $221 $-1 #
edge $-1 -1 $-1 $343 -0.012700000000000003 $406 0.038099999999999981 $319 $456 forward @7 unknown #
edge $-1 -1 $-1 $457 -0.012699999999999989 $346 0.038100000000000023 $320 $458 forward @7 unknown #
straight-curve $-1 -1 $-1 -0.27499999999999991 0.197625 0.0099999999999999655 0 -0.39370078740157477 -2.151061412334065e-016 I I #
coedge $-1 -1 $-1 $323 $369 $354 $418 forward $317 $-1 #
vertex $-1 -1 $-1 $324 $459 #
straight-curve $-1 -1 $-1 -0.27499999999999991 0.11299999999999999 0 0 0 0.39370078740157477 I I #
point $-1 -1 $-1 -0.27499999999999991 0.11299999999999999 0.10499999999999998 #
straight-curve $-1 -1 $-1 -0.57499999999999996 0.11300000000000002 -0.10499999999999998 0 -0.39370078740157477 0 F 0 F 0.57404000000000011 #
point $-1 -1 $-1 -0.57499999999999996 0.11299999999999999 -0.10499999999999998 #
face $-1 -1 $-1 $460 $461 $2 $-1 $462 forward single #
loop $-1 -1 $-1 $-1 $463 $332 #
plane-surface $-1 -1 $-1 -0.27499999999999991 0.20224999999999999 0.010000000000000012 -1.4639929274938437e-016 -5.4636959873285255e-016 1 0.39370078740157477 0 5.7637516830466289e-017 forward_v I I I I #
coedge $-1 -1 $-1 $334 $345 $335 $403 forward $273 $-1 #
coedge $-1 -1 $-1 $336 $335 $388 $455 reversed $231 $-1 #
edge $-1 -1 $-1 $457 0 $404 1.7779999999999998 $401 $464 forward @7 unknown #
vertex $-1 -1 $-1 $403 $465 #
straight-curve $-1 -1 $-1 -0.95114807840234761 0.44342333157176439 -0.0099999999999999898 0 0.39370078740157477 0 F 0 F 0.050799999999999956 #
vertex $-1 -1 $-1 $389 $466 #
straight-curve $-1 -1 $-1 -0.27499999999999991 0.26224999999999998 -0.0099999999999999898 -0.3802857583815229 0.10189726185138609 0 I I #
point $-1 -1 $-1 -0.95114807840234761 0.44342333157176439 -0.0099999999999999898 #
point $-1 -1 $-1 -0.27499999999999991 0.26224999999999998 0.010000000000000002 #
point $-1 -1 $-1 -0.27499999999999991 0.28224999999999995 0.010000000000000012 #
straight-curve $-1 -1 $-1 -0.95114807840234761 0.46342333157176441 -0.0099999999999999898 0 0 0.39370078740157477 F 0 F 0.050800000000000012 #
coedge $-1 -1 $-1 $351 $417 $428 $467 reversed $240 $-1 #
coedge $-1 -1 $-1 $362 $361 $351 $414 forward $363 $-1 #
edge $-1 -1 $-1 $415 0 $468 0.94742000000000004 $413 $469 forward @7 unknown #
vertex $-1 -1 $-1 $366 $470 #
straight-curve $-1 -1 $-1 -0.059159871878898089 -0.35149999999999998 -0.10499999999999998 0.36218091157599808 0.15435445342003906 0 F 0 F 1.0689681855242072 #
coedge $-1 -1 $-1 $412 $354 $375 $429 reversed $240 $-1 #
edge $-1 -1 $-1 $432 1.1102230246251565e-016 $393 0.60579000000000005 $392 $471 forward @7 unknown #
straight-curve $-1 -1 $-1 -0.27499999999999991 0.11299999999999999 -0.10499999999999998 -0.39370078740157477 0 0 F 0 F 0.76200000000000001 #
face $-1 -1 $-1 $424 $373 $2 $-1 $472 forward single #
plane-surface $-1 -1 $-1 -0.27499999999999991 0.35149999999999998 0 0 1 0 0 0 0.39370078740157477 forward_v I I I I #
coedge $-1 -1 $-1 $473 $474 $475 $476 forward $357 $-1 #
edge $-1 -1 $-1 $468 -0.26669999999999999 $364 0.26669999999999999 $362 $477 forward @7 unknown #
face $-1 -1 $-1 $367 $478 $2 $-1 $479 forward single #
point $-1 -1 $-1 0.32800000000000001 0.1865 0.10499999999999998 #
straight-curve $-1 -1 $-1 0.32800000000000001 -0.1865 0 0 0 0.39370078740157477 I I #
plane-surface $-1 -1 $-1 0.32800000000000001 -0.1865 0 0.39206031168689931 -0.91993951540303531 0 0 0 -0.39370078740157477 forward_v I I I I #
coedge $-1 -1 $-1 $372 $371 $412 $467 forward $373 $-1 #
edge $-1 -1 $-1 $430 5.5511151231257827e-017 $432 0.54823392542759875 $375 $480 forward @7 unknown #
vertex $-1 -1 $-1 $376 $481 #
straight-curve $-1 -1 $-1 -0.05915987187889811 0.35149999999999998 0 0 0 0.39370078740157477 I I #
vertex $-1 -1 $-1 $377 $482 #
straight-curve $-1 -1 $-1 -0.27499999999999991 0.35149999999999998 0 0 0 -0.39370078740157477 I I #
coedge $-1 -1 $-1 $381 $380 $483 $484 forward $258 $-1 #
coedge $-1 -1 $-1 $485 $486 $380 $436 reversed $487 $-1 #
edge $-1 -1 $-1 $443 -3.1415926535897931 $488 0 $380 $489 forward @7 unknown #
coedge $-1 -1 $-1 $490 $491 $381 $438 reversed $492 $-1 #
edge $-1 -1 $-1 $493 -3.1415926535897931 $442 0 $381 $494 forward @7 unknown #
coedge $-1 -1 $-1 $475 $382 $491 $495 forward $441 $-1 #
coedge $-1 -1 $-1 $382 $475 $485 $496 reversed $441 $-1 #
loop $-1 -1 $-1 $-1 $475 $497 #
vertex $-1 -1 $-1 $383 $498 #
vertex $-1 -1 $-1 $383 $499 #
straight-curve $-1 -1 $-1 -0.26980288631843802 -0.062500000000000014 0.10499999999999998 -0.39370078740157477 2.0486299165086337e-017 0 I I #
coedge $-1 -1 $-1 $385 $384 $500 $501 forward $260 $-1 #
coedge $-1 -1 $-1 $502 $503 $384 $447 reversed $461 $-1 #
edge $-1 -1 $-1 $453 -0.012700000000000003 $504 0.038099999999999981 $384 $505 forward @7 unknown #
coedge $-1 -1 $-1 $506 $507 $385 $449 reversed $508 $-1 #
edge $-1 -1 $-1 $509 -0.012699999999999989 $452 0.038100000000000023 $385 $510 forward @7 unknown #
coedge $-1 -1 $-1 $463 $386 $507 $511 forward $399 $-1 #
coedge $-1 -1 $-1 $386 $463 $502 $512 reversed $399 $-1 #
vertex $-1 -1 $-1 $387 $513 #
vertex $-1 -1 $-1 $387 $514 #
straight-curve $-1 -1 $-1 -0.27499999999999991 0.15762499999999999 0.0099999999999999881 0 -0.39370078740157477 -2.151061412334065e-016 I I #
edge $-1 -1 $-1 $406 0.18954749999999998 $457 0.24034749999999994 $388 $515 forward @7 unknown #
straight-curve $-1 -1 $-1 -0.27499999999999991 0.26225000000000004 0.005000000000000001 0 0 -0.39370078740157477 I I #
vertex $-1 -1 $-1 $455 $516 #
straight-curve $-1 -1 $-1 -0.27499999999999991 0.28224999999999995 -0.0049999999999999949 0 0 0.39370078740157477 I I #
point $-1 -1 $-1 -0.27499999999999991 0.11299999999999999 -0.10499999999999998 #
face $-1 -1 $-1 $517 $518 $2 $-1 $519 forward single #
loop $-1 -1 $-1 $-1 $520 $398 #
plane-surface $-1 -1 $-1 -0.27499999999999991 0.18225 0.010000000000000002 -0.25881904510252068 -0.96592582628906831 0 0 0 -0.39370078740157477 forward_v I I I I #
coedge $-1 -1 $-1 $451 $450 $521 $522 forward $399 $-1 #
straight-curve $-1 -1 $-1 -0.27499999999999991 0.28224999999999995 -0.0099999999999999898 -0.3802857583815229 0.10189726185138609 0 I I #
point $-1 -1 $-1 -0.95114807840234761 0.46342333157176441 -0.0099999999999999898 #
point $-1 -1 $-1 -0.27499999999999991 0.26224999999999998 -0.0099999999999999898 #
edge $-1 -1 $-1 $468 0 $430 1.0689681855242077 $428 $523 forward @7 unknown #
vertex $-1 -1 $-1 $423 $524 #
straight-curve $-1 -1 $-1 0.32800000000000001 -0.1865 -0.10499999999999998 0 0.39370078740157477 0 F 0 F 0.94742000000000004 #
point $-1 -1 $-1 0.32800000000000001 -0.1865 -0.10499999999999998 #
straight-curve $-1 -1 $-1 -0.27499999999999991 0.35150000000000003 -0.10499999999999998 0 -0.39370078740157477 0 F 0 F 0.60579000000000005 #
plane-surface $-1 -1 $-1 -0.05915987187889811 0.35149999999999998 0 0.39206031168689931 0.91993951540303531 0 0 0 0.39370078740157477 forward_v I I I I #
coedge $-1 -1 $-1 $525 $422 $526 $527 forward $357 $-1 #
coedge $-1 -1 $-1 $422 $525 $528 $529 forward $357 $-1 #
coedge $-1 -1 $-1 $440 $439 $422 $476 reversed $441 $-1 #
edge $-1 -1 $-1 $530 -0.3815006687511675 $531 0.68529933124883247 $422 $532 forward @7 unknown #
straight-curve $-1 -1 $-1 0.32800000000000001 0.1865 0 0 0 0.39370078740157477 I I #
loop $-1 -1 $-1 $533 $534 $424 #
plane-surface $-1 -1 $-1 0.32800000000000001 0.1865 0 1 0 0 0 0 -0.39370078740157477 forward_v I I I I #
straight-curve $-1 -1 $-1 -0.059159871878898089 0.35149999999999998 -0.10499999999999998 -0.39370078740157477 0 0 F 0 F 0.54823392542759875 #
point $-1 -1 $-1 -0.05915987187889811 0.35149999999999998 -0.10499999999999998 #
point $-1 -1 $-1 -0.27499999999999991 0.35149999999999998 -0.10499999999999998 #
coedge $-1 -1 $-1 $535 $536 $434 $484 reversed $537 $-1 #
edge $-1 -1 $-1 $488 -0.91490066875116738 $493 0.15189933124883259 $434 $538 forward @7 unknown #
coedge $-1 -1 $-1 $528 $435 $440 $496 forward $487 $-1 #
coedge $-1 -1 $-1 $435 $528 $535 $539 reversed $487 $-1 #
loop $-1 -1 $-1 $-1 $528 $540 #
vertex $-1 -1 $-1 $484 $541 #
ellipse-curve $-1 -1 $-1 -0.41999999999999993 0 0.10499999999999998 0 0 -1 0 0.062499999999999993 0 1 I I #
coedge $-1 -1 $-1 $526 $437 $536 $542 forward $492 $-1 #
coedge $-1 -1 $-1 $437 $526 $439 $495 reversed $492 $-1 #
loop $-1 -1 $-1 $-1 $526 $543 #
vertex $-1 -1 $-1 $438 $544 #
ellipse-curve $-1 -1 $-1 0 0 0.10499999999999998 0 0 -1 0 -0.062499999999999993 0 1 I I #
edge $-1 -1 $-1 $442 0 $531 0.53339999999999999 $491 $545 forward @7 unknown #
edge $-1 -1 $-1 $443 0 $530 0.53339999999999999 $440 $546 forward @7 unknown #
face $-1 -1 $-1 $543 $441 $2 $-1 $547 reversed single #
point $-1 -1 $-1 0 -0.062500000000000014 0.10499999999999998 #
point $-1 -1 $-1 -0.41999999999999993 -0.0625 0.10499999999999998 #
coedge $-1 -1 $-1 $548 $549 $445 $501 reversed $518 $-1 #
edge $-1 -1 $-1 $504 0.087947500000000012 $509 0.13874750000000002 $445 $550 forward @7 unknown #
coedge $-1 -1 $-1 $520 $446 $451 $512 forward $461 $-1 #
coedge $-1 -1 $-1 $446 $520 $548 $551 reversed $461 $-1 #
vertex $-1 -1 $-1 $447 $552 #
straight-curve $-1 -1 $-1 -0.27499999999999991 0.18225 0.005000000000000001 0 0 -0.39370078740157477 I I #
coedge $-1 -1 $-1 $553 $448 $549 $554 forward $508 $-1 #
coedge $-1 -1 $-1 $448 $553 $450 $511 reversed $508 $-1 #
loop $-1 -1 $-1 $-1 $553 $517 #
vertex $-1 -1 $-1 $501 $555 #
straight-curve $-1 -1 $-1 -0.27499999999999991 0.20224999999999999 -0.0049999999999999949 0 0 0.39370078740157477 I I #
edge $-1 -1 $-1 $452 0 $556 1.7779999999999998 $450 $557 forward @7 unknown #
edge $-1 -1 $-1 $453 0 $558 1.7779999999999998 $502 $559 forward @7 unknown #
point $-1 -1 $-1 -0.27499999999999991 0.20224999999999999 0.010000000000000012 #
point $-1 -1 $-1 -0.27499999999999991 0.18225 0.010000000000000002 #
straight-curve $-1 -1 $-1 -0.27499999999999991 0.18762499999999999 -0.0099999999999999898 0 0.39370078740157477 0 I I #
point $-1 -1 $-1 -0.27499999999999991 0.28224999999999995 -0.0099999999999999898 #
face $-1 -1 $-1 $560 $508 $2 $-1 $561 forward single #
loop $-1 -1 $-1 $-1 $562 $460 #
plane-surface $-1 -1 $-1 -0.27499999999999991 0.18225 -0.0099999999999999898 0 0 -1 -0.39370078740157477 0 0 forward_v I I I I #
coedge $-1 -1 $-1 $503 $502 $563 $564 forward $461 $-1 #
coedge $-1 -1 $-1 $565 $563 $463 $522 reversed $566 $-1 #
edge $-1 -1 $-1 $556 -1.1102230246251565e-016 $558 0.050799999999999956 $463 $567 forward @7 unknown #
straight-curve $-1 -1 $-1 0.32800000000000001 0.1865 -0.10499999999999998 -0.36218091157599808 0.15435445342003906 0 F 0 F 1.0689681855242072 #
point $-1 -1 $-1 0.32800000000000001 0.1865 -0.10499999999999998 #
coedge $-1 -1 $-1 $474 $473 $568 $569 forward $357 $-1 #
coedge $-1 -1 $-1 $491 $490 $473 $527 reversed $492 $-1 #
edge $-1 -1 $-1 $531 0 $570 3.1415926535897931 $473 $571 forward @7 unknown #
coedge $-1 -1 $-1 $486 $485 $474 $529 reversed $487 $-1 #
edge $-1 -1 $-1 $572 0 $530 3.1415926535897931 $474 $573 forward @7 unknown #
vertex $-1 -1 $-1 $476 $574 #
vertex $-1 -1 $-1 $476 $575 #
straight-curve $-1 -1 $-1 -0.26980288631843796 -0.062500000000000014 -0.10499999999999998 0.39370078740157477 -2.0486299165086337e-017 0 I I #
loop $-1 -1 $-1 $363 $576 $424 #
coedge $-1 -1 $-1 $577 $578 $579 $580 forward $478 $-1 #
coedge $-1 -1 $-1 $568 $483 $486 $539 forward $537 $-1 #
coedge $-1 -1 $-1 $483 $568 $490 $542 reversed $537 $-1 #
loop $-1 -1 $-1 $-1 $568 $581 #
straight-curve $-1 -1 $-1 -0.059802886318438032 0.062500000000000056 0.10499999999999998 0.39370078740157477 8.1945196660345347e-017 0 I I #
edge $-1 -1 $-1 $488 0 $572 0.53339999999999999 $486 $582 forward @7 unknown #
face $-1 -1 $-1 $497 $487 $2 $-1 $583 reversed single #
point $-1 -1 $-1 -0.41999999999999993 0.062499999999999986 0.10499999999999998 #
edge $-1 -1 $-1 $493 0 $570 0.53339999999999999 $536 $584 forward @7 unknown #
face $-1 -1 $-1 $292 $492 $2 $-1 $585 reversed single #
point $-1 -1 $-1 -1.0927391974657052e-017 0.062500000000000069 0.10499999999999998 #
straight-curve $-1 -1 $-1 0 -0.062500000000000014 0.10499999999999998 0 0 -0.39370078740157477 I I #
straight-curve $-1 -1 $-1 -0.41999999999999993 -0.0625 0.10499999999999998 0 0 -0.39370078740157477 I I #
plane-surface $-1 -1 $-1 -0.41999999999999993 -0.0625 0.10499999999999998 -5.2035199879319299e-017 -1 0 0 0 -0.39370078740157477 forward_v I I I I #
coedge $-1 -1 $-1 $562 $500 $503 $551 forward $518 $-1 #
coedge $-1 -1 $-1 $500 $562 $506 $554 reversed $518 $-1 #
straight-curve $-1 -1 $-1 -0.27499999999999991 0.14762499999999998 -0.0099999999999999898 0 0.39370078740157477 0 I I #
edge $-1 -1 $-1 $504 0 $586 1.7779999999999998 $548 $587 forward @7 unknown #
point $-1 -1 $-1 -0.27499999999999991 0.18225 -0.0099999999999999898 #
coedge $-1 -1 $-1 $507 $506 $565 $588 forward $508 $-1 #
edge $-1 -1 $-1 $509 0 $589 1.7779999999999998 $506 $590 forward @7 unknown #
point $-1 -1 $-1 -0.27499999999999991 0.20224999999999999 -0.0099999999999999898 #
vertex $-1 -1 $-1 $511 $591 #
straight-curve $-1 -1 $-1 -0.27499999999999991 0.20224999999999999 0.010000000000000012 -0.3802857583815229 0.10189726185138609 0 I I #
vertex $-1 -1 $-1 $512 $592 #
straight-curve $-1 -1 $-1 -0.27499999999999991 0.18225 0.010000000000000002 -0.3802857583815229 0.10189726185138609 0 I I #
face $-1 -1 $-1 $593 $566 $2 $-1 $594 reversed single #
plane-surface $-1 -1 $-1 -0.27499999999999991 0.20224999999999999 -0.0099999999999999898 0.25881904510252068 0.96592582628906831 0 0 0 0.39370078740157477 forward_v I I I I #
coedge $-1 -1 $-1 $549 $548 $595 $596 forward $518 $-1 #
coedge $-1 -1 $-1 $521 $595 $520 $564 reversed $566 $-1 #
edge $-1 -1 $-1 $558 0 $586 0.050799999999999984 $520 $597 forward @7 unknown #
coedge $-1 -1 $-1 $595 $521 $553 $588 reversed $566 $-1 #
loop $-1 -1 $-1 $-1 $521 $560 #
straight-curve $-1 -1 $-1 -0.95114807840234761 0.38342333157176445 0.010000000000000012 0 -0.39370078740157477 -2.151061412334065e-016 F 0 F 0.050800000000000012 #
coedge $-1 -1 $-1 $536 $535 $525 $569 reversed $537 $-1 #
edge $-1 -1 $-1 $570 -0.15189933124883254 $572 0.91490066875116738 $525 $598 forward @7 unknown #
vertex $-1 -1 $-1 $527 $599 #
ellipse-curve $-1 -1 $-1 0 0 -0.10499999999999998 0 0 1 0 -0.062499999999999993 0 1 I I #
vertex $-1 -1 $-1 $569 $600 #
ellipse-curve $-1 -1 $-1 -0.41999999999999993 0 -0.10499999999999998 0 0 1 0 0.062499999999999993 0 1 I I #
point $-1 -1 $-1 -0.41999999999999993 -0.0625 -0.10499999999999998 #
point $-1 -1 $-1 0 -0.062500000000000014 -0.10499999999999998 #
coedge $-1 -1 $-1 $601 $602 $603 $604 forward $533 $-1 #
coedge $-1 -1 $-1 $605 $534 $606 $607 forward $478 $-1 #
coedge $-1 -1 $-1 $534 $605 $608 $609 forward $478 $-1 #
coedge $-1 -1 $-1 $610 $611 $534 $580 reversed $612 $-1 #
edge $-1 -1 $-1 $613 -0.211455 $614 0.106045 $534 $615 forward @7 unknown #
face $-1 -1 $-1 $540 $537 $2 $-1 $616 reversed single #
straight-curve $-1 -1 $-1 -0.41999999999999993 0.062499999999999986 0.10499999999999998 0 0 -0.39370078740157477 I I #
cone-surface $-1 -1 $-1 -0.41999999999999993 0 0.10499999999999998 0 0 -1 0 0.062499999999999993 0 1 I I 0 1 0.062499999999999993 forward I I I I #
straight-curve $-1 -1 $-1 -1.0927391974657052e-017 0.062500000000000069 0.10499999999999998 0 0 -0.39370078740157477 I I #
cone-surface $-1 -1 $-1 0 0 0.10499999999999998 0 0 -1 0 -0.062499999999999993 0 1 I I 0 1 0.062499999999999993 forward I I I I #
vertex $-1 -1 $-1 $551 $617 #
straight-curve $-1 -1 $-1 -0.27499999999999991 0.18225 -0.0099999999999999898 -0.3802857583815229 0.10189726185138609 0 I I #
edge $-1 -1 $-1 $589 0 $556 0.050800000000000012 $553 $618 forward @7 unknown #
vertex $-1 -1 $-1 $554 $619 #
straight-curve $-1 -1 $-1 -0.27499999999999991 0.20224999999999999 -0.0099999999999999898 -0.3802857583815229 0.10189726185138609 0 I I #
point $-1 -1 $-1 -0.95114807840234761 0.38342333157176445 0.010000000000000012 #
point $-1 -1 $-1 -0.95114807840234761 0.36342333157176443 0.010000000000000002 #
face $-1 -1 $-1 $620 $612 $2 $-1 $621 reversed single #
plane-surface $-1 -1 $-1 -0.95114807840234761 0.37342333157176444 8.1955439809927887e-018 1 -2.0103299399235458e-028 -3.4753044174209829e-030 -1.3682300855988121e-030 0 -0.39370078740157477 forward_v I I I I #
coedge $-1 -1 $-1 $563 $565 $562 $596 reversed $566 $-1 #
edge $-1 -1 $-1 $586 1.1102230246251565e-016 $589 0.050800000000000178 $562 $622 forward @7 unknown #
straight-curve $-1 -1 $-1 -0.95114807840234761 0.36342333157176443 0.010000000000000002 0 0 -0.39370078740157477 F 0 F 0.050799999999999984 #
straight-curve $-1 -1 $-1 -0.059802886318438012 0.062500000000000056 -0.10499999999999998 -0.39370078740157477 -8.1945196660345347e-017 0 I I #
point $-1 -1 $-1 -1.0927391974657052e-017 0.062500000000000069 -0.10499999999999998 #
point $-1 -1 $-1 -0.41999999999999993 0.062499999999999986 -0.10499999999999998 #
coedge $-1 -1 $-1 $623 $576 $624 $625 forward $533 $-1 #
coedge $-1 -1 $-1 $576 $623 $626 $627 forward $533 $-1 #
coedge $-1 -1 $-1 $628 $629 $576 $604 reversed $630 $-1 #
edge $-1 -1 $-1 $631 -0.57975500000000002 $632 -0.26225500000000002 $576 $633 forward @7 unknown #
coedge $-1 -1 $-1 $578 $577 $634 $635 forward $478 $-1 #
coedge $-1 -1 $-1 $636 $637 $577 $607 reversed $638 $-1 #
edge $-1 -1 $-1 $614 -0.079375000000000001 $639 0.238125 $577 $640 forward @7 unknown #
coedge $-1 -1 $-1 $641 $642 $578 $609 reversed $643 $-1 #
edge $-1 -1 $-1 $644 -0.079375000000000001 $613 0.238125 $578 $645 forward @7 unknown #
coedge $-1 -1 $-1 $646 $579 $642 $647 forward $612 $-1 #
coedge $-1 -1 $-1 $579 $646 $636 $648 reversed $612 $-1 #
loop $-1 -1 $-1 $-1 $646 $593 #
vertex $-1 -1 $-1 $580 $649 #
vertex $-1 -1 $-1 $580 $650 #
straight-curve $-1 -1 $-1 0.32800000000000001 0.10324999999999999 0.062499999999999993 0 0.39370078740157477 0 I I #
plane-surface $-1 -1 $-1 -1.0927391974657052e-017 0.062500000000000069 0.10499999999999998 -2.081407995172772e-016 1 0 0 0 0.39370078740157477 forward_v I I I I #
point $-1 -1 $-1 -0.95114807840234761 0.36342333157176443 -0.0099999999999999898 #
straight-curve $-1 -1 $-1 -0.95114807840234761 0.38342333157176445 -0.0099999999999999898 0 0 0.39370078740157477 F 0 F 0.050800000000000012 #
point $-1 -1 $-1 -0.95114807840234761 0.38342333157176445 -0.0099999999999999898 #
face $-1 -1 $-1 $651 $638 $2 $-1 $652 reversed single #
plane-surface $-1 -1 $-1 0.32800000000000001 0.020000000000000004 0.062499999999999993 0 0 1 0.39370078740157477 0 0 reverse_v I I I I #
straight-curve $-1 -1 $-1 -0.95114807840234761 0.36342333157176443 -0.0099999999999999898 0 0.39370078740157477 0 F 0 F 0.050800000000000012 #
coedge $-1 -1 $-1 $602 $601 $653 $654 forward $533 $-1 #
coedge $-1 -1 $-1 $655 $656 $601 $625 reversed $657 $-1 #
edge $-1 -1 $-1 $632 -0.238125 $658 0.079375000000000001 $601 $659 forward @7 unknown #
coedge $-1 -1 $-1 $660 $661 $602 $627 reversed $662 $-1 #
edge $-1 -1 $-1 $663 -0.238125 $631 0.079375000000000001 $602 $664 forward @7 unknown #
coedge $-1 -1 $-1 $665 $603 $661 $666 forward $630 $-1 #
coedge $-1 -1 $-1 $603 $665 $655 $667 reversed $630 $-1 #
loop $-1 -1 $-1 $-1 $665 $668 #
vertex $-1 -1 $-1 $604 $669 #
vertex $-1 -1 $-1 $604 $670 #
straight-curve $-1 -1 $-1 0.32800000000000001 0.083249999999999991 0.062499999999999993 0 0.39370078740157477 0 I I #
coedge $-1 -1 $-1 $671 $672 $605 $635 reversed $673 $-1 #
edge $-1 -1 $-1 $639 0.052705000000000002 $644 0.37020500000000001 $605 $674 forward @7 unknown #
coedge $-1 -1 $-1 $675 $606 $611 $648 forward $638 $-1 #
coedge $-1 -1 $-1 $606 $675 $671 $676 reversed $638 $-1 #
loop $-1 -1 $-1 $-1 $675 $620 #
vertex $-1 -1 $-1 $607 $677 #
straight-curve $-1 -1 $-1 0.32800000000000001 0.14499999999999999 0.031249999999999997 0 0 -0.39370078740157477 I I #
coedge $-1 -1 $-1 $678 $608 $672 $679 forward $643 $-1 #
coedge $-1 -1 $-1 $608 $678 $610 $647 reversed $643 $-1 #
loop $-1 -1 $-1 $-1 $678 $680 #
vertex $-1 -1 $-1 $635 $681 #
straight-curve $-1 -1 $-1 0.32800000000000001 0.020000000000000004 -0.031249999999999997 0 0 0.39370078740157477 I I #
coedge $-1 -1 $-1 $611 $610 $682 $683 forward $612 $-1 #
edge $-1 -1 $-1 $613 0 $684 0.025400000000000089 $610 $685 forward @7 unknown #
edge $-1 -1 $-1 $614 0 $686 0.025400000000000089 $636 $687 forward @7 unknown #
point $-1 -1 $-1 0.32800000000000001 0.020000000000000004 0.062499999999999993 #
point $-1 -1 $-1 0.32800000000000001 0.14499999999999999 0.062499999999999993 #
face $-1 -1 $-1 $680 $673 $2 $-1 $688 reversed single #
plane-surface $-1 -1 $-1 0.32800000000000001 0.14499999999999999 0.062499999999999993 0 1 0 0 0 -0.39370078740157477 reverse_v I I I I #
coedge $-1 -1 $-1 $689 $690 $623 $654 reversed $691 $-1 #
edge $-1 -1 $-1 $658 0.10350500000000001 $663 0.42100500000000002 $623 $692 forward @7 unknown #
coedge $-1 -1 $-1 $693 $624 $629 $667 forward $657 $-1 #
coedge $-1 -1 $-1 $624 $693 $689 $694 reversed $657 $-1 #
loop $-1 -1 $-1 $-1 $693 $695 #
vertex $-1 -1 $-1 $654 $696 #
straight-curve $-1 -1 $-1 0.32800000000000001 -0.020000000000000004 -0.031249999999999997 0 0 -0.39370078740157477 I I #
coedge $-1 -1 $-1 $697 $626 $690 $698 forward $662 $-1 #
coedge $-1 -1 $-1 $626 $697 $628 $666 reversed $662 $-1 #
loop $-1 -1 $-1 $-1 $697 $699 #
vertex $-1 -1 $-1 $627 $700 #
straight-curve $-1 -1 $-1 0.32800000000000001 -0.14499999999999999 0.031249999999999997 0 0 0.39370078740157477 I I #
coedge $-1 -1 $-1 $629 $628 $701 $702 reversed $630 $-1 #
edge $-1 -1 $-1 $631 0 $703 0.025400000000000089 $661 $704 forward @7 unknown #
edge $-1 -1 $-1 $632 0 $705 0.025400000000000089 $629 $706 forward @7 unknown #
face $-1 -1 $-1 $699 $630 $2 $-1 $707 reversed single #
point $-1 -1 $-1 0.32800000000000001 -0.14499999999999999 0.062499999999999993 #
point $-1 -1 $-1 0.32800000000000001 -0.020000000000000004 0.062499999999999993 #
coedge $-1 -1 $-1 $708 $634 $637 $676 forward $673 $-1 #
coedge $-1 -1 $-1 $634 $708 $641 $679 reversed $673 $-1 #
loop $-1 -1 $-1 $-1 $708 $651 #
straight-curve $-1 -1 $-1 0.32800000000000001 0.16574999999999998 -0.062499999999999993 0 -0.39370078740157477 0 I I #
coedge $-1 -1 $-1 $637 $636 $709 $710 forward $638 $-1 #
edge $-1 -1 $-1 $639 0 $711 0.025400000000000089 $671 $712 forward @7 unknown #
point $-1 -1 $-1 0.32800000000000001 0.14499999999999999 -0.062499999999999993 #
coedge $-1 -1 $-1 $642 $641 $713 $714 forward $643 $-1 #
edge $-1 -1 $-1 $644 0 $715 0.025400000000000089 $641 $716 forward @7 unknown #
face $-1 -1 $-1 $717 $643 $2 $-1 $718 reversed single #
point $-1 -1 $-1 0.32800000000000001 0.020000000000000004 -0.062499999999999993 #
coedge $-1 -1 $-1 $713 $709 $646 $683 reversed $719 $-1 #
edge $-1 -1 $-1 $684 -0.3175 $686 0 $646 $720 forward @7 unknown #
vertex $-1 -1 $-1 $647 $721 #
straight-curve $-1 -1 $-1 0.32800000000000001 0.020000000000000004 0.062499999999999993 -0.39370078740157477 0 0 I I #
vertex $-1 -1 $-1 $648 $722 #
straight-curve $-1 -1 $-1 0.32800000000000001 0.14499999999999999 0.062499999999999993 -0.39370078740157477 0 0 I I #
plane-surface $-1 -1 $-1 0.32800000000000001 0.14499999999999999 -0.062499999999999993 0 0 -1 -0.39370078740157477 0 0 reverse_v I I I I #
coedge $-1 -1 $-1 $723 $653 $656 $694 forward $691 $-1 #
coedge $-1 -1 $-1 $653 $723 $660 $698 reversed $691 $-1 #
loop $-1 -1 $-1 $-1 $723 $724 #
straight-curve $-1 -1 $-1 0.32800000000000001 0.020749999999999998 -0.062499999999999993 0 -0.39370078740157477 0 I I #
coedge $-1 -1 $-1 $656 $655 $725 $726 reversed $657 $-1 #
edge $-1 -1 $-1 $658 0 $727 0.025400000000000089 $656 $728 forward @7 unknown #
face $-1 -1 $-1 $729 $657 $2 $-1 $730 reversed single #
point $-1 -1 $-1 0.32800000000000001 -0.020000000000000004 -0.062499999999999993 #
coedge $-1 -1 $-1 $661 $660 $731 $732 reversed $662 $-1 #
edge $-1 -1 $-1 $663 0 $733 0.025400000000000089 $690 $734 forward @7 unknown #
face $-1 -1 $-1 $724 $662 $2 $-1 $735 reversed single #
point $-1 -1 $-1 0.32800000000000001 -0.14499999999999999 -0.062499999999999993 #
coedge $-1 -1 $-1 $731 $725 $665 $702 forward $736 $-1 #
edge $-1 -1 $-1 $705 -0.3175 $703 0 $665 $737 forward @7 unknown #
vertex $-1 -1 $-1 $666 $738 #
straight-curve $-1 -1 $-1 0.32800000000000001 -0.14499999999999999 0.062499999999999993 -0.39370078740157477 0 0 I I #
vertex $-1 -1 $-1 $667 $739 #
straight-curve $-1 -1 $-1 0.32800000000000001 -0.020000000000000004 0.062499999999999993 -0.39370078740157477 0 0 I I #
plane-surface $-1 -1 $-1 0.32800000000000001 -0.020000000000000004 0.062499999999999993 0 0 1 0.39370078740157477 0 0 forward_v I I I I #
coedge $-1 -1 $-1 $672 $671 $740 $741 forward $673 $-1 #
coedge $-1 -1 $-1 $682 $740 $675 $710 reversed $719 $-1 #
edge $-1 -1 $-1 $686 -0.3175 $711 0 $675 $742 forward @7 unknown #
vertex $-1 -1 $-1 $676 $743 #
straight-curve $-1 -1 $-1 0.32800000000000001 0.14499999999999999 -0.062499999999999993 -0.39370078740157477 0 0 I I #
coedge $-1 -1 $-1 $740 $682 $678 $714 reversed $719 $-1 #
edge $-1 -1 $-1 $715 -0.3175 $684 0 $678 $744 forward @7 unknown #
vertex $-1 -1 $-1 $679 $745 #
straight-curve $-1 -1 $-1 0.32800000000000001 0.020000000000000004 -0.062499999999999993 -0.39370078740157477 0 0 I I #
face $-1 -1 $-1 $668 $719 $2 $-1 $746 forward single #
plane-surface $-1 -1 $-1 0.32800000000000001 0.020000000000000004 -0.062499999999999993 0 -1 0 0 0 0.39370078740157477 reverse_v I I I I #
loop $-1 -1 $-1 $-1 $682 $717 #
straight-curve $-1 -1 $-1 0.318 0.14499999999999999 0.062499999999999993 0 0.39370078740157477 0 F -0.3175 F 0 #
point $-1 -1 $-1 0.31799999999999995 0.020000000000000004 0.062499999999999993 #
point $-1 -1 $-1 0.31799999999999995 0.14499999999999999 0.062499999999999993 #
coedge $-1 -1 $-1 $690 $689 $747 $748 reversed $691 $-1 #
face $-1 -1 $-1 $695 $691 $2 $-1 $749 reversed single #
coedge $-1 -1 $-1 $701 $747 $693 $726 forward $736 $-1 #
edge $-1 -1 $-1 $727 -0.3175 $705 0 $693 $750 forward @7 unknown #
vertex $-1 -1 $-1 $694 $751 #
straight-curve $-1 -1 $-1 0.32800000000000001 -0.020000000000000004 -0.062499999999999993 -0.39370078740157477 0 0 I I #
face $-1 -1 $-1 $581 $736 $2 $-1 $752 forward single #
plane-surface $-1 -1 $-1 0.32800000000000001 -0.020000000000000004 -0.062499999999999993 0 1 0 0 0 0.39370078740157477 forward_v I I I I #
coedge $-1 -1 $-1 $747 $701 $697 $732 forward $736 $-1 #
edge $-1 -1 $-1 $703 -0.3175 $733 0 $697 $753 forward @7 unknown #
vertex $-1 -1 $-1 $698 $754 #
straight-curve $-1 -1 $-1 0.32800000000000001 -0.14499999999999999 -0.062499999999999993 -0.39370078740157477 0 0 I I #
plane-surface $-1 -1 $-1 0.32800000000000001 -0.14499999999999999 0.062499999999999993 0 -1 0 0 0 -0.39370078740157477 forward_v I I I I #
loop $-1 -1 $-1 $-1 $701 $729 #
straight-curve $-1 -1 $-1 0.318 -0.14499999999999999 0.062499999999999993 0 -0.39370078740157477 0 F -0.3175 F 0 #
point $-1 -1 $-1 0.31799999999999995 -0.14499999999999999 0.062499999999999993 #
point $-1 -1 $-1 0.31799999999999995 -0.020000000000000004 0.062499999999999993 #
coedge $-1 -1 $-1 $709 $713 $708 $741 reversed $719 $-1 #
edge $-1 -1 $-1 $711 -0.3175 $715 0 $708 $755 forward @7 unknown #
straight-curve $-1 -1 $-1 0.318 0.14499999999999999 -0.062499999999999993 0 0 -0.39370078740157477 F -0.3175 F 0 #
point $-1 -1 $-1 0.31799999999999995 0.14499999999999999 -0.062499999999999993 #
straight-curve $-1 -1 $-1 0.318 0.020000000000000004 0.062499999999999993 0 0 0.39370078740157477 F -0.3175 F 0 #
point $-1 -1 $-1 0.31799999999999995 0.020000000000000004 -0.062499999999999993 #
plane-surface $-1 -1 $-1 0.31799999999999995 0.082500000000000004 0 1 1.7337313524447046e-030 -1.0949882225966546e-031 -4.3109772543175377e-032 0 -0.39370078740157477 reverse_v I I I I #
coedge $-1 -1 $-1 $725 $731 $723 $748 forward $736 $-1 #
edge $-1 -1 $-1 $733 -0.3175 $727 0 $723 $756 forward @7 unknown #
plane-surface $-1 -1 $-1 0.32800000000000001 -0.14499999999999999 -0.062499999999999993 0 0 -1 -0.39370078740157477 0 0 forward_v I I I I #
straight-curve $-1 -1 $-1 0.318 -0.020000000000000004 0.062499999999999993 0 0 0.39370078740157477 F -0.3175 F 0 #
point $-1 -1 $-1 0.31799999999999995 -0.020000000000000004 -0.062499999999999993 #
plane-surface $-1 -1 $-1 0.31799999999999995 -0.082500000000000004 0 1 -1.7337313524447046e-030 -1.0949882225966546e-031 -4.3109772543175377e-032 0 -0.39370078740157477 forward_v I I I I #
straight-curve $-1 -1 $-1 0.318 -0.14499999999999999 -0.062499999999999993 0 0 -0.39370078740157477 F -0.3175 F 0 #
point $-1 -1 $-1 0.31799999999999995 -0.14499999999999999 -0.062499999999999993 #
straight-curve $-1 -1 $-1 0.318 0.020000000000000004 -0.062499999999999993 0 -0.39370078740157477 0 F -0.3175 F 0 #
straight-curve $-1 -1 $-1 0.318 -0.020000000000000004 -0.062499999999999993 0 0.39370078740157477 0 F -0.3175 F 0 #
End-of-ACIS-data 