700 0 1 0           
29 Autodesk Inventor 6.2.0.12000 17 ASM 6.0.1.6021 NT 24 Thu Jan 03 17:47:38 2008 
25.399999999999999 9.9999999999999995e-007 1e-010 
body $-1 -1 $-1 $1 $-1 $-1 #
lump $-1 -1 $-1 $-1 $2 $0 #
shell $-1 -1 $-1 $-1 $-1 $3 $-1 $1 #
face $-1 -1 $-1 $4 $5 $2 $-1 $6 reversed single #
face $-1 -1 $-1 $7 $8 $2 $-1 $6 reversed single #
loop $-1 -1 $-1 $9 $10 $3 #
cone-surface $-1 -1 $-1 0.51250000000000095 -1.032694184810617 0 -5.5907586847082583e-016 1 0 0.099999999999999992 5.5907586847082578e-017 0 1 I I 0 1 0.099999999999999992 reversed I I I I #
face $-1 -1 $-1 $11 $12 $2 $-1 $13 reversed single #
loop $-1 -1 $-1 $14 $15 $4 #
loop $-1 -1 $-1 $-1 $16 $3 #
coedge $-1 -1 $-1 $10 $10 $17 $18 reversed $5 $-1 #
face $-1 -1 $-1 $19 $20 $2 $-1 $21 forward single #
loop $-1 -1 $-1 $-1 $22 $7 #
plane-surface $-1 -1 $-1 0.21809861765427432 0.14767823105068617 -0.20499999999999996 0 0 1 0.39370078740157477 0 0 forward_v I I I I #
loop $-1 -1 $-1 $-1 $23 $4 #
coedge $-1 -1 $-1 $15 $15 $24 $25 reversed $8 $-1 #
coedge $-1 -1 $-1 $16 $16 $26 $27 reversed $9 $-1 #
coedge $-1 -1 $-1 $17 $17 $10 $18 forward $28 $-1 #
edge $-1 -1 $-1 $29 -3.1415926535897931 $29 3.1415926535897931 $17 $30 forward @7 unknown #
face $-1 -1 $-1 $31 $32 $2 $-1 $33 forward single #
loop $-1 -1 $-1 $34 $26 $11 #
plane-surface $-1 -1 $-1 0.71750000000000014 0 0 0 -1 0 0 0 -0.39370078740157477 forward_v I I I I #
coedge $-1 -1 $-1 $35 $36 $37 $38 reversed $12 $-1 #
coedge $-1 -1 $-1 $23 $23 $39 $40 reversed $14 $-1 #
coedge $-1 -1 $-1 $24 $24 $15 $25 forward $41 $-1 #
edge $-1 -1 $-1 $42 -3.1415926535897931 $42 3.1415926535897931 $24 $43 forward @7 unknown #
coedge $-1 -1 $-1 $26 $26 $16 $27 forward $20 $-1 #
edge $-1 -1 $-1 $44 -3.1415926535897931 $44 3.1415926535897931 $26 $45 forward @7 unknown #
loop $-1 -1 $-1 $46 $17 $47 #
vertex $-1 -1 $-1 $18 $48 #
ellipse-curve $-1 -1 $-1 0.51250000000000029 0.05000000000000026 0 1.2183851679060127e-016 -1 0 0.099999999999999992 5.5907586847082578e-017 0 1 I I #
face $-1 -1 $-1 $49 $50 $2 $-1 $51 forward single #
loop $-1 -1 $-1 $-1 $52 $19 #
cone-surface $-1 -1 $-1 0.51250000000000007 0.098839115525343177 0 1.7483827159451269e-015 -1 0 0.14495689014324217 2.4725865491083076e-016 0.14495689014324223 1 I I 0 1 0.2049999999999999 forward I I I I #
loop $-1 -1 $-1 $-1 $53 $11 #
coedge $-1 -1 $-1 $54 $22 $55 $56 reversed $12 $-1 #
coedge $-1 -1 $-1 $22 $57 $58 $59 reversed $12 $-1 #
coedge $-1 -1 $-1 $60 $52 $22 $38 forward $32 $-1 #
edge $-1 -1 $-1 $61 -0.25105135343437174 $62 -0.12405135343437168 $22 $63 forward @7 unknown #
coedge $-1 -1 $-1 $39 $39 $23 $40 forward $64 $-1 #
edge $-1 -1 $-1 $65 0 $65 6.2831853071795862 $39 $66 forward @7 unknown #
loop $-1 -1 $-1 $67 $24 $68 #
vertex $-1 -1 $-1 $25 $69 #
ellipse-curve $-1 -1 $-1 0.51250000000000029 0.059999999999999859 0 -2.4016246098147361e-016 1 0 0.099999999999999992 5.5907586847082578e-017 0 1 I I #
vertex $-1 -1 $-1 $27 $70 #
ellipse-curve $-1 -1 $-1 0.51250000000000029 -1.7483827159451283e-016 0 0 1 0 0.099999999999999992 5.5907586847082578e-017 0 1 I I #
loop $-1 -1 $-1 $-1 $71 $47 #
face $-1 -1 $-1 $72 $28 $2 $-1 $73 forward single #
point $-1 -1 $-1 0.41250000000000031 0.050000000000000204 -1.2246063538223773e-017 #
face $-1 -1 $-1 $74 $64 $2 $-1 $75 forward single #
loop $-1 -1 $-1 $-1 $76 $31 #
plane-surface $-1 -1 $-1 0.21809861765427432 0.14767823105068614 0.20499999999999996 0 0 1 0.39370078740157477 0 0 forward_v I I I I #
coedge $-1 -1 $-1 $37 $77 $53 $78 forward $32 $-1 #
coedge $-1 -1 $-1 $79 $55 $52 $78 reversed $34 $-1 #
coedge $-1 -1 $-1 $80 $35 $81 $82 reversed $12 $-1 #
coedge $-1 -1 $-1 $53 $83 $35 $56 forward $34 $-1 #
edge $-1 -1 $-1 $84 -1.8224500000000006 $61 -0.52069999999999994 $55 $85 forward @7 unknown #
coedge $-1 -1 $-1 $36 $86 $87 $88 reversed $12 $-1 #
coedge $-1 -1 $-1 $89 $71 $36 $59 forward $46 $-1 #
edge $-1 -1 $-1 $62 -1.3017500000000004 $90 0 $58 $91 forward @7 unknown #
coedge $-1 -1 $-1 $77 $37 $71 $92 forward $32 $-1 #
vertex $-1 -1 $-1 $78 $93 #
vertex $-1 -1 $-1 $59 $94 #
straight-curve $-1 -1 $-1 0.51250000000000007 0.098839115525343191 -0.20499999999999996 -6.8833965194690026e-016 0.39370078740157477 0 F -1.8652223534343715 F 1.5282196465656284 #
loop $-1 -1 $-1 $95 $39 $49 #
vertex $-1 -1 $-1 $40 $96 #
ellipse-curve $-1 -1 $-1 0.51250000000000029 0.11000000000000011 0 5.5907586847082583e-016 -1 0 0.099999999999999992 5.5907586847082578e-017 0 1 I I #
loop $-1 -1 $-1 $-1 $97 $68 #
face $-1 -1 $-1 $98 $41 $2 $-1 $99 forward single #
point $-1 -1 $-1 0.41250000000000031 0.059999999999999803 1.2246063538223773e-017 #
point $-1 -1 $-1 0.41250000000000031 -2.3074585844159538e-016 1.2246063538223773e-017 #
coedge $-1 -1 $-1 $58 $100 $60 $92 reversed $46 $-1 #
face $-1 -1 $-1 $-1 $101 $2 $-1 $102 forward single #
plane-surface $-1 -1 $-1 0 0.049999999999999954 0 -1.2183851679060127e-016 1 0 0 0 0.39370078740157477 forward_v I I I I #
face $-1 -1 $-1 $103 $104 $2 $-1 $105 forward single #
plane-surface $-1 -1 $-1 0.28750000000000009 0.10999999999999985 0 -5.5907586847082583e-016 1 0 0 0 0.39370078740157477 forward_v I I I I #
coedge $-1 -1 $-1 $106 $107 $77 $108 reversed $50 $-1 #
coedge $-1 -1 $-1 $52 $60 $76 $108 forward $32 $-1 #
edge $-1 -1 $-1 $109 -2.3561944901923453 $61 0.78539816339744817 $53 $110 forward @7 unknown #
coedge $-1 -1 $-1 $83 $53 $107 $111 forward $34 $-1 #
coedge $-1 -1 $-1 $112 $54 $113 $114 reversed $12 $-1 #
coedge $-1 -1 $-1 $115 $116 $54 $82 forward $101 $-1 #
edge $-1 -1 $-1 $117 -3.1415926535897931 $84 1.5707963267948963 $81 $118 forward @7 unknown #
coedge $-1 -1 $-1 $55 $79 $115 $119 reversed $34 $-1 #
vertex $-1 -1 $-1 $119 $120 #
straight-curve $-1 -1 $-1 0.71750000000000014 0 -0.20499999999999996 0.39370078740157477 0 0 F -1.8224500000000006 F 0 #
coedge $-1 -1 $-1 $57 $121 $122 $123 reversed $12 $-1 #
coedge $-1 -1 $-1 $124 $125 $57 $88 forward $126 $-1 #
edge $-1 -1 $-1 $90 -4.7123889803846897 $127 5.4343859936278469e-032 $87 $128 forward @7 unknown #
coedge $-1 -1 $-1 $100 $58 $125 $129 reversed $46 $-1 #
vertex $-1 -1 $-1 $129 $130 #
straight-curve $-1 -1 $-1 0 0.049999999999999954 -0.20499999999999996 -0.39370078740157477 -4.7967919996299711e-017 0 F -1.8224500000000003 F 0 #
edge $-1 -1 $-1 $62 -0.78539816339744817 $131 2.3561944901923453 $71 $132 forward @7 unknown #
point $-1 -1 $-1 0.51250000000000018 0 -0.20499999999999996 #
point $-1 -1 $-1 0.51250000000000007 0.050000000000000017 -0.20499999999999996 #
loop $-1 -1 $-1 $-1 $133 $49 #
point $-1 -1 $-1 0.61250000000000016 0.11 0 #
coedge $-1 -1 $-1 $134 $135 $136 $137 reversed $67 $-1 #
face $-1 -1 $-1 $138 $139 $2 $-1 $140 forward single #
plane-surface $-1 -1 $-1 0.71750000000000014 0.060000000000000074 0 2.4016246098147361e-016 -1 0 0 0 -0.39370078740157477 forward_v I I I I #
coedge $-1 -1 $-1 $71 $89 $106 $141 forward $46 $-1 #
loop $-1 -1 $-1 $-1 $142 $72 #
cone-surface $-1 -1 $-1 0 0.23750000000000002 0 0 0 1 -0.23750000000000002 -8.7419135797256388e-017 0 1 I I 0 1 0.23750000000000002 forward I I I I #
face $-1 -1 $-1 $143 $144 $2 $-1 $145 forward single #
loop $-1 -1 $-1 $-1 $146 $74 #
cone-surface $-1 -1 $-1 0.51250000000000018 0.12883911552534313 0 0 -1 0 0.14495689014324217 0 0.14495689014324223 1 I I 0 1 0.2049999999999999 forward I I I I #
coedge $-1 -1 $-1 $147 $76 $100 $141 reversed $50 $-1 #
coedge $-1 -1 $-1 $76 $148 $79 $111 reversed $50 $-1 #
edge $-1 -1 $-1 $131 0.12405135343437163 $109 0.25105135343437168 $76 $149 forward @7 unknown #
vertex $-1 -1 $-1 $111 $150 #
ellipse-curve $-1 -1 $-1 0.51250000000000018 -3.4967654318902565e-016 0 0 1 0 0.14495689014324217 2.4725865491083076e-016 -0.14495689014324223 1 I I #
edge $-1 -1 $-1 $109 0.52069999999999994 $151 1.8224500000000006 $79 $152 forward @7 unknown #
coedge $-1 -1 $-1 $153 $80 $154 $155 reversed $12 $-1 #
coedge $-1 -1 $-1 $156 $157 $80 $114 forward $144 $-1 #
edge $-1 -1 $-1 $158 -0.19685000000000069 $117 0 $113 $159 forward @7 unknown #
coedge $-1 -1 $-1 $142 $81 $83 $119 forward $101 $-1 #
coedge $-1 -1 $-1 $81 $142 $156 $160 forward $101 $-1 #
vertex $-1 -1 $-1 $160 $161 #
ellipse-curve $-1 -1 $-1 0 0.23750000000000002 -0.20499999999999996 0 0 1 -0.23750000000000002 -8.7419135797256388e-017 0 1 F -3.1415926535897931 F 1.5707963267948968 #
edge $-1 -1 $-1 $84 -0.52069999999999994 $151 0.52069999999999994 $115 $162 forward @7 unknown #
point $-1 -1 $-1 0 0 -0.20499999999999996 #
coedge $-1 -1 $-1 $86 $163 $164 $165 reversed $12 $-1 #
coedge $-1 -1 $-1 $166 $167 $86 $123 forward $168 $-1 #
edge $-1 -1 $-1 $127 -0.26035000000000047 $169 0 $122 $170 forward @7 unknown #
coedge $-1 -1 $-1 $171 $87 $167 $172 reversed $126 $-1 #
coedge $-1 -1 $-1 $87 $171 $89 $129 forward $126 $-1 #
loop $-1 -1 $-1 $-1 $171 $173 #
vertex $-1 -1 $-1 $172 $174 #
ellipse-curve $-1 -1 $-1 0 0.23750000000000002 -0.20499999999999996 0 0 -1 0.18749999999999997 8.7419135797256401e-017 0 1 F -4.7123889803846897 F -5.434385993627848e-032 #
edge $-1 -1 $-1 $175 -0.52069999999999994 $90 0.52069999999999994 $125 $176 forward @7 unknown #
point $-1 -1 $-1 0 0.049999999999999954 -0.20499999999999996 #
vertex $-1 -1 $-1 $108 $177 #
ellipse-curve $-1 -1 $-1 0.51250000000000007 0.050000000000000849 0 1.2183851679060127e-016 -1 0 0.14495689014324217 2.4725865491083076e-016 -0.14495689014324223 1 I I #
coedge $-1 -1 $-1 $178 $179 $146 $180 reversed $95 $-1 #
coedge $-1 -1 $-1 $181 $97 $182 $183 forward $67 $-1 #
coedge $-1 -1 $-1 $97 $181 $163 $184 forward $67 $-1 #
coedge $-1 -1 $-1 $185 $186 $97 $137 forward $104 $-1 #
edge $-1 -1 $-1 $187 -2.3561944901923453 $188 0.78539816339744817 $97 $189 forward @7 unknown #
face $-1 -1 $-1 $173 $168 $2 $-1 $190 forward single #
loop $-1 -1 $-1 $-1 $191 $98 #
cone-surface $-1 -1 $-1 0.26250000000000007 0.13499999999999993 0 0 0 1 0.0749999999999999 2.1854783949314076e-017 0 1 I I 0 1 0.0749999999999999 forward I I I I #
edge $-1 -1 $-1 $175 0 $131 1.3017500000000004 $100 $192 forward @7 unknown #
coedge $-1 -1 $-1 $116 $115 $148 $193 forward $101 $-1 #
face $-1 -1 $-1 $68 $194 $2 $-1 $195 forward single #
loop $-1 -1 $-1 $-1 $196 $103 #
plane-surface $-1 -1 $-1 0.23750000000000004 0.2375000000000001 0 1 5.6399442449842657e-016 0 0 0 -0.39370078740157477 forward_v I I I I #
coedge $-1 -1 $-1 $186 $185 $133 $180 forward $104 $-1 #
coedge $-1 -1 $-1 $197 $106 $171 $198 reversed $50 $-1 #
coedge $-1 -1 $-1 $107 $199 $142 $193 reversed $50 $-1 #
straight-curve $-1 -1 $-1 0.51250000000000007 0.098839115525343177 0.20499999999999996 6.8833965194690026e-016 -0.39370078740157477 0 F -1.5282196465656284 F 1.8652223534343715 #
point $-1 -1 $-1 0.51250000000000018 0 0.20499999999999996 #
vertex $-1 -1 $-1 $119 $200 #
straight-curve $-1 -1 $-1 0.71750000000000014 0 0.20499999999999996 -0.39370078740157477 0 0 F 0 F 1.8224500000000006 #
coedge $-1 -1 $-1 $201 $112 $178 $202 reversed $12 $-1 #
coedge $-1 -1 $-1 $203 $204 $112 $155 forward $194 $-1 #
edge $-1 -1 $-1 $205 -1.5707963267948979 $158 0 $154 $206 forward @7 unknown #
coedge $-1 -1 $-1 $196 $113 $116 $160 reversed $144 $-1 #
coedge $-1 -1 $-1 $113 $196 $203 $207 forward $144 $-1 #
vertex $-1 -1 $-1 $207 $208 #
straight-curve $-1 -1 $-1 0.23750000000000004 0.2375000000000001 -0.20499999999999996 -2.2204504901512854e-016 0.39370078740157477 0 F -0.19685000000000069 F 0 #
edge $-1 -1 $-1 $209 -0.52069999999999994 $117 0.52069999999999994 $116 $210 forward @7 unknown #
point $-1 -1 $-1 0.23750000000000004 0.2375000000000001 -0.20499999999999996 #
straight-curve $-1 -1 $-1 0 0 0 0 0 0.39370078740157477 I I #
coedge $-1 -1 $-1 $121 $201 $135 $184 reversed $12 $-1 #
coedge $-1 -1 $-1 $211 $212 $121 $165 forward $139 $-1 #
edge $-1 -1 $-1 $169 -3.1415926535897931 $213 -1.570796326794897 $164 $214 forward @7 unknown #
coedge $-1 -1 $-1 $215 $122 $212 $216 reversed $168 $-1 #
coedge $-1 -1 $-1 $122 $215 $124 $172 forward $168 $-1 #
loop $-1 -1 $-1 $-1 $215 $138 #
vertex $-1 -1 $-1 $216 $217 #
straight-curve $-1 -1 $-1 0.18750000000000006 0.13499999999999993 -0.20499999999999996 1.678877199870487e-016 -0.39370078740157477 0 F -0.26035000000000047 F 0 #
coedge $-1 -1 $-1 $125 $124 $147 $198 forward $126 $-1 #
edge $-1 -1 $-1 $218 -0.52069999999999994 $127 0.52069999999999994 $167 $219 forward @7 unknown #
face $-1 -1 $-1 $47 $126 $2 $-1 $220 forward single #
point $-1 -1 $-1 0.1875 0.2375000000000001 -0.20499999999999996 #
vertex $-1 -1 $-1 $129 $221 #
straight-curve $-1 -1 $-1 0 0.049999999999999954 0 0 0 -0.39370078740157477 I I #
point $-1 -1 $-1 0.51250000000000007 0.050000000000000017 0.20499999999999996 #
coedge $-1 -1 $-1 $222 $133 $153 $202 forward $95 $-1 #
coedge $-1 -1 $-1 $133 $222 $223 $224 forward $95 $-1 #
edge $-1 -1 $-1 $225 -0.78539816339744817 $226 2.3561944901923453 $133 $227 forward @7 unknown #
coedge $-1 -1 $-1 $135 $134 $211 $228 forward $67 $-1 #
coedge $-1 -1 $-1 $229 $230 $134 $183 reversed $50 $-1 #
edge $-1 -1 $-1 $187 0.52069999999999994 $231 1.1557000000000004 $134 $232 forward @7 unknown #
edge $-1 -1 $-1 $213 -1.1557000000000004 $188 -0.52069999999999994 $135 $233 forward @7 unknown #
coedge $-1 -1 $-1 $146 $136 $201 $234 forward $104 $-1 #
coedge $-1 -1 $-1 $136 $146 $229 $235 forward $104 $-1 #
vertex $-1 -1 $-1 $183 $236 #
vertex $-1 -1 $-1 $234 $237 #
ellipse-curve $-1 -1 $-1 0.51250000000000018 0.060000000000000074 0 -2.4016246098147361e-016 1 0 0.14495689014324217 0 -0.14495689014324223 1 I I #
plane-surface $-1 -1 $-1 0.18750000000000006 0.13499999999999993 0 -1 -4.2643480876710372e-016 0 0 0 0.39370078740157477 forward_v I I I I #
coedge $-1 -1 $-1 $212 $211 $230 $238 forward $139 $-1 #
straight-curve $-1 -1 $-1 0 0.049999999999999954 0.20499999999999996 0.39370078740157477 4.7967919996299711e-017 0 F 0 F 1.8224500000000003 #
edge $-1 -1 $-1 $151 -1.5707963267948963 $209 3.1415926535897931 $142 $239 forward @7 unknown #
loop $-1 -1 $-1 $-1 $240 $143 #
cone-surface $-1 -1 $-1 0.28749999999999998 0.15999999999999984 0 0 0 1 -0.049999999999999996 -2.1854783949314143e-017 0 1 I I 0 -1 0.049999999999999996 forward I I I I #
coedge $-1 -1 $-1 $157 $156 $199 $241 forward $144 $-1 #
coedge $-1 -1 $-1 $230 $147 $215 $242 reversed $50 $-1 #
edge $-1 -1 $-1 $218 -5.4343859936278469e-032 $175 4.7123889803846897 $171 $243 forward @7 unknown #
coedge $-1 -1 $-1 $148 $244 $196 $241 reversed $50 $-1 #
point $-1 -1 $-1 0 0 0.20499999999999996 #
coedge $-1 -1 $-1 $163 $153 $185 $234 reversed $12 $-1 #
edge $-1 -1 $-1 $225 -0.57150000000000034 $205 0 $178 $245 forward @7 unknown #
coedge $-1 -1 $-1 $240 $154 $157 $207 reversed $194 $-1 #
coedge $-1 -1 $-1 $154 $240 $222 $246 forward $194 $-1 #
vertex $-1 -1 $-1 $246 $247 #
ellipse-curve $-1 -1 $-1 0.28749999999999998 0.15999999999999984 -0.20499999999999996 0 0 -1 -0.049999999999999996 -2.1854783949314143e-017 0 1 F -1.5707963267948979 F 7.642105303539158e-031 #
edge $-1 -1 $-1 $248 -0.52069999999999994 $158 0.52069999999999994 $157 $249 forward @7 unknown #
point $-1 -1 $-1 0.2375000000000001 0.15999999999999984 -0.20499999999999996 #
vertex $-1 -1 $-1 $160 $250 #
straight-curve $-1 -1 $-1 0.23750000000000004 0.2375000000000001 0 0 0 -0.39370078740157477 I I #
coedge $-1 -1 $-1 $191 $164 $181 $228 reversed $139 $-1 #
coedge $-1 -1 $-1 $164 $191 $166 $216 forward $139 $-1 #
vertex $-1 -1 $-1 $228 $251 #
ellipse-curve $-1 -1 $-1 0.26250000000000007 0.13499999999999993 -0.20499999999999996 0 0 1 0.0749999999999999 2.1854783949314076e-017 0 1 F -3.1415926535897931 F -1.570796326794897 #
coedge $-1 -1 $-1 $167 $166 $197 $242 forward $168 $-1 #
edge $-1 -1 $-1 $252 -0.52069999999999994 $169 0.52069999999999994 $212 $253 forward @7 unknown #
point $-1 -1 $-1 0.18750000000000006 0.13499999999999993 -0.20499999999999996 #
vertex $-1 -1 $-1 $172 $254 #
straight-curve $-1 -1 $-1 0.1875 0.2375000000000001 0 0 0 -0.39370078740157477 I I #
cone-surface $-1 -1 $-1 0 0.23750000000000002 0 0 0 1 0.18749999999999997 8.7419135797256401e-017 0 1 I I 0 -1 0.18749999999999997 forward I I I I #
point $-1 -1 $-1 0 0.049999999999999954 0.20499999999999996 #
coedge $-1 -1 $-1 $179 $178 $204 $246 reversed $95 $-1 #
coedge $-1 -1 $-1 $244 $229 $179 $224 reversed $50 $-1 #
edge $-1 -1 $-1 $255 0 $226 0.57150000000000034 $179 $256 forward @7 unknown #
vertex $-1 -1 $-1 $202 $257 #
vertex $-1 -1 $-1 $180 $258 #
ellipse-curve $-1 -1 $-1 0.51250000000000018 0.10999999999999985 0 5.5907586847082583e-016 -1 0 0.14495689014324217 0 -0.14495689014324223 1 I I #
edge $-1 -1 $-1 $231 -0.52069999999999994 $213 0.52069999999999994 $181 $259 forward @7 unknown #
coedge $-1 -1 $-1 $223 $182 $186 $235 reversed $50 $-1 #
coedge $-1 -1 $-1 $182 $197 $191 $238 reversed $50 $-1 #
vertex $-1 -1 $-1 $228 $260 #
straight-curve $-1 -1 $-1 0.71750000000000014 0.060000000000000074 0.20499999999999996 -0.39370078740157477 -9.4552149992706141e-017 0 F 0 F 1.1557000000000004 #
straight-curve $-1 -1 $-1 0.71750000000000014 0.060000000000000074 -0.20499999999999996 0.39370078740157477 9.4552149992706141e-017 0 F -1.1557000000000004 F 0 #
edge $-1 -1 $-1 $188 -0.17485135343437155 $225 -0.047851353434371635 $201 $261 forward @7 unknown #
edge $-1 -1 $-1 $226 0.04785135343437158 $187 0.1748513534343715 $229 $262 forward @7 unknown #
point $-1 -1 $-1 0.51250000000000018 0.060000000000000019 0.20499999999999996 #
point $-1 -1 $-1 0.51250000000000018 0.060000000000000019 -0.20499999999999996 #
edge $-1 -1 $-1 $231 1.570796326794897 $252 3.1415926535897931 $191 $263 forward @7 unknown #
ellipse-curve $-1 -1 $-1 0 0.23750000000000002 0.20499999999999996 0 0 -1 -0.23750000000000002 -8.7419135797256388e-017 0 1 F -1.5707963267948968 F 3.1415926535897931 #
coedge $-1 -1 $-1 $204 $203 $244 $264 forward $194 $-1 #
edge $-1 -1 $-1 $209 0 $248 0.19685000000000069 $196 $265 forward @7 unknown #
edge $-1 -1 $-1 $252 0 $218 0.26035000000000047 $215 $266 forward @7 unknown #
ellipse-curve $-1 -1 $-1 0 0.23750000000000002 0.20499999999999996 0 0 1 0.18749999999999997 8.7419135797256401e-017 0 1 F 5.434385993627848e-032 F 4.7123889803846897 #
coedge $-1 -1 $-1 $199 $223 $240 $264 reversed $50 $-1 #
straight-curve $-1 -1 $-1 0.28750000000000009 0.10999999999999985 -0.20499999999999996 -0.39370078740157477 -2.2010860963418338e-016 0 F -1.0922000000000003 F 0 #
edge $-1 -1 $-1 $255 -0.52069999999999994 $205 0.52069999999999994 $204 $267 forward @7 unknown #
point $-1 -1 $-1 0.28750000000000009 0.10999999999999985 -0.20499999999999996 #
vertex $-1 -1 $-1 $207 $268 #
straight-curve $-1 -1 $-1 0.2375000000000001 0.15999999999999984 0 0 0 -0.39370078740157477 I I #
point $-1 -1 $-1 0.23750000000000004 0.2375000000000001 0.20499999999999996 #
point $-1 -1 $-1 0.26250000000000007 0.059999999999999963 -0.20499999999999996 #
vertex $-1 -1 $-1 $216 $269 #
straight-curve $-1 -1 $-1 0.18750000000000006 0.13499999999999993 0 0 0 -0.39370078740157477 I I #
point $-1 -1 $-1 0.1875 0.2375000000000001 0.20499999999999996 #
vertex $-1 -1 $-1 $246 $270 #
straight-curve $-1 -1 $-1 0.28750000000000009 0.10999999999999985 0.20499999999999996 0.39370078740157477 2.2010860963418338e-016 0 F 0 F 1.0922000000000003 #
point $-1 -1 $-1 0.51250000000000018 0.10999999999999999 -0.20499999999999996 #
point $-1 -1 $-1 0.51250000000000018 0.10999999999999999 0.20499999999999996 #
straight-curve $-1 -1 $-1 0.26250000000000007 0.059999999999999963 0 0 0 -0.39370078740157477 I I #
point $-1 -1 $-1 0.26250000000000007 0.059999999999999963 0.20499999999999996 #
straight-curve $-1 -1 $-1 0.51250000000000018 0.12883911552534313 -0.20499999999999996 0 0.39370078740157477 0 F -1.7890223534343712 F 1.5663196465656286 #
straight-curve $-1 -1 $-1 0.51250000000000018 0.12883911552534313 0.20499999999999996 0 -0.39370078740157477 0 F -1.5663196465656286 F 1.789022353434371 #
ellipse-curve $-1 -1 $-1 0.26250000000000007 0.13499999999999993 0.20499999999999996 0 0 -1 0.0749999999999999 2.1854783949314076e-017 0 1 F 1.570796326794897 F 3.1415926535897931 #
edge $-1 -1 $-1 $248 0 $255 1.5707963267948979 $240 $271 forward @7 unknown #
straight-curve $-1 -1 $-1 0.23750000000000004 0.2375000000000001 0.20499999999999996 2.2204504901512854e-016 -0.39370078740157477 0 F 0 F 0.19685000000000069 #
straight-curve $-1 -1 $-1 0.18750000000000006 0.13499999999999993 0.20499999999999996 -1.678877199870487e-016 0.39370078740157477 0 F 0 F 0.26035000000000047 #
straight-curve $-1 -1 $-1 0.28750000000000009 0.10999999999999985 0 0 0 -0.39370078740157477 I I #
point $-1 -1 $-1 0.2375000000000001 0.15999999999999984 0.20499999999999996 #
point $-1 -1 $-1 0.18750000000000006 0.13499999999999993 0.20499999999999996 #
point $-1 -1 $-1 0.28750000000000009 0.10999999999999985 0.20499999999999996 #
ellipse-curve $-1 -1 $-1 0.28749999999999998 0.15999999999999984 0.20499999999999996 0 0 1 -0.049999999999999996 -2.1854783949314143e-017 0 1 F -7.642105303539158e-031 F 1.5707963267948979 #
End-of-ACIS-data 