700 0 1 0           
28 Autodesk Inventor 6.0.0.9000 16 ASM 6.0.0.192 NT 24 Thu Jan 11 21:37:17 2007 
25.399999999999999 9.9999999999999995e-007 1e-010 
body $-1 -1 $-1 $1 $-1 $-1 #
lump $-1 -1 $-1 $-1 $2 $0 #
shell $-1 -1 $-1 $-1 $-1 $3 $-1 $1 #
face $-1 -1 $-1 $4 $5 $2 $-1 $6 forward single #
face $-1 -1 $-1 $7 $8 $2 $-1 $9 forward single #
loop $-1 -1 $-1 $-1 $10 $3 #
plane-surface $-1 -1 $-1 2.6749999999999998 -0.89949999999999997 0.92499999999999993 0.70710678118654757 4.3296372853596783e-017 0.70710678118654757 0.27838849653013681 0 -0.27838849653013681 forward_v I I I I #
face $-1 -1 $-1 $11 $12 $2 $-1 $13 reversed single #
loop $-1 -1 $-1 $-1 $14 $4 #
plane-surface $-1 -1 $-1 2.75 -0.89949999999999997 0 1 0 0 0 0 -0.39370078740157477 forward_v I I I I #
coedge $-1 -1 $-1 $15 $16 $17 $18 forward $5 $-1 #
face $-1 -1 $-1 $19 $20 $2 $-1 $21 forward single #
loop $-1 -1 $-1 $-1 $22 $7 #
plane-surface $-1 -1 $-1 0 -0.89949999999999997 0.49999999999999994 0 1 0 0 0 0.39370078740157477 forward_v I I I I #
coedge $-1 -1 $-1 $23 $24 $16 $25 reversed $8 $-1 #
coedge $-1 -1 $-1 $26 $10 $27 $28 forward $5 $-1 #
coedge $-1 -1 $-1 $10 $26 $14 $25 forward $5 $-1 #
coedge $-1 -1 $-1 $29 $30 $10 $18 reversed $31 $-1 #
edge $-1 -1 $-1 $32 -2.2899653108726343 $33 -1.7511499436084847 $17 $34 forward @7 unknown #
face $-1 -1 $-1 $35 $36 $2 $-1 $37 forward single #
loop $-1 -1 $-1 $-1 $38 $11 #
plane-surface $-1 -1 $-1 2.6749999999999998 0.8244999999999999 0 0.70710678118654757 0.70710678118654757 0 0 0 -0.39370078740157477 forward_v I I I I #
coedge $-1 -1 $-1 $39 $40 $26 $41 reversed $12 $-1 #
coedge $-1 -1 $-1 $42 $14 $40 $43 reversed $8 $-1 #
coedge $-1 -1 $-1 $14 $44 $29 $45 forward $8 $-1 #
edge $-1 -1 $-1 $46 0 $32 0.30480000000000018 $14 $47 forward @7 unknown #
coedge $-1 -1 $-1 $16 $15 $22 $41 forward $5 $-1 #
coedge $-1 -1 $-1 $48 $49 $15 $28 reversed $50 $-1 #
edge $-1 -1 $-1 $33 -0.30479999999999996 $51 0 $27 $52 forward @7 unknown #
coedge $-1 -1 $-1 $53 $17 $24 $45 reversed $31 $-1 #
coedge $-1 -1 $-1 $17 $54 $48 $55 reversed $31 $-1 #
loop $-1 -1 $-1 $-1 $17 $56 #
vertex $-1 -1 $-1 $25 $57 #
vertex $-1 -1 $-1 $55 $58 #
straight-curve $-1 -1 $-1 2.1124999999999998 -0.77949999999999997 1.4874999999999998 -0.27838849653013681 0 0.27838849653013681 I I #
face $-1 -1 $-1 $59 $60 $2 $-1 $61 reversed single #
loop $-1 -1 $-1 $-1 $62 $19 #
plane-surface $-1 -1 $-1 -2.75 0.89949999999999997 0 0 1 0 0 0 0.39370078740157477 forward_v I I I I #
coedge $-1 -1 $-1 $63 $64 $65 $66 forward $20 $-1 #
coedge $-1 -1 $-1 $67 $22 $49 $68 forward $12 $-1 #
coedge $-1 -1 $-1 $22 $69 $23 $43 forward $12 $-1 #
edge $-1 -1 $-1 $51 1.7511499436084847 $46 2.2899653108726343 $22 $70 forward @7 unknown #
coedge $-1 -1 $-1 $71 $23 $72 $73 reversed $8 $-1 #
edge $-1 -1 $-1 $74 0.45720000000000005 $46 2.1589999999999998 $40 $75 forward @7 unknown #
coedge $-1 -1 $-1 $24 $76 $77 $78 forward $8 $-1 #
edge $-1 -1 $-1 $79 0.45720000000000005 $32 2.1589999999999998 $24 $80 forward @7 unknown #
vertex $-1 -1 $-1 $41 $81 #
straight-curve $-1 -1 $-1 2.75 -0.89949999999999997 0.84999999999999987 0 0.39370078740157477 -2.4106424287842076e-017 F -1.1811010000000008 F 4.6075610000000005 #
coedge $-1 -1 $-1 $82 $27 $30 $55 forward $50 $-1 #
coedge $-1 -1 $-1 $27 $82 $39 $68 reversed $50 $-1 #
loop $-1 -1 $-1 $-1 $27 $83 #
vertex $-1 -1 $-1 $68 $84 #
straight-curve $-1 -1 $-1 2.5999999999999996 -0.89949999999999997 0.99999999999999989 0 -0.39370078740157477 2.4106424287842076e-017 F -4.6075610000000005 F 1.1811010000000008 #
coedge $-1 -1 $-1 $85 $29 $86 $87 forward $31 $-1 #
coedge $-1 -1 $-1 $30 $85 $88 $89 reversed $31 $-1 #
edge $-1 -1 $-1 $33 0.38100000000000023 $90 13.589 $48 $91 forward @7 unknown #
face $-1 -1 $-1 $-1 $31 $2 $-1 $92 forward single #
point $-1 -1 $-1 2.75 -0.77949999999999997 0.84999999999999987 #
point $-1 -1 $-1 2.5999999999999996 -0.77949999999999997 0.99999999999999989 #
face $-1 -1 $-1 $93 $94 $2 $-1 $95 forward single #
loop $-1 -1 $-1 $96 $97 $35 #
plane-surface $-1 -1 $-1 0 0 0 0 0 1 0.39370078740157477 0 0 forward_v I I I I #
coedge $-1 -1 $-1 $98 $99 $64 $100 reversed $36 $-1 #
coedge $-1 -1 $-1 $101 $38 $102 $103 forward $20 $-1 #
coedge $-1 -1 $-1 $38 $101 $62 $100 forward $20 $-1 #
coedge $-1 -1 $-1 $104 $105 $38 $66 reversed $106 $-1 #
edge $-1 -1 $-1 $107 1.3923887115717717 $108 1.9312040788359215 $65 $109 forward @7 unknown #
coedge $-1 -1 $-1 $110 $39 $111 $112 reversed $12 $-1 #
edge $-1 -1 $-1 $51 0.38100000000000023 $113 13.589 $39 $114 forward @7 unknown #
coedge $-1 -1 $-1 $40 $110 $115 $116 forward $12 $-1 #
straight-curve $-1 -1 $-1 2.1124999999999998 -0.89949999999999997 1.4874999999999998 0.27838849653013681 0 -0.27838849653013681 I I #
coedge $-1 -1 $-1 $102 $42 $117 $118 reversed $8 $-1 #
coedge $-1 -1 $-1 $115 $119 $42 $73 forward $120 $-1 #
edge $-1 -1 $-1 $121 0 $74 1.5707963267948966 $72 $122 forward @7 unknown #
vertex $-1 -1 $-1 $43 $123 #
straight-curve $-1 -1 $-1 2.75 -0.89949999999999997 0 0 2.410642428784207e-017 0.39370078740157477 F 0 F 2.54 #
coedge $-1 -1 $-1 $44 $102 $105 $124 forward $8 $-1 #
coedge $-1 -1 $-1 $125 $86 $44 $78 reversed $126 $-1 #
edge $-1 -1 $-1 $127 0 $79 1.5707963267948966 $44 $128 forward @7 unknown #
vertex $-1 -1 $-1 $45 $129 #
straight-curve $-1 -1 $-1 2.75 -0.77949999999999997 -7.3476381229342631e-018 0 2.410642428784207e-017 0.39370078740157477 F 0 F 2.54 #
point $-1 -1 $-1 2.75 -0.89949999999999997 0.84999999999999987 #
coedge $-1 -1 $-1 $49 $48 $130 $131 reversed $50 $-1 #
face $-1 -1 $-1 $56 $50 $2 $-1 $132 forward single #
point $-1 -1 $-1 2.5999999999999996 -0.89949999999999997 0.99999999999999989 #
coedge $-1 -1 $-1 $54 $53 $133 $134 reversed $31 $-1 #
coedge $-1 -1 $-1 $77 $135 $53 $87 reversed $126 $-1 #
edge $-1 -1 $-1 $79 -3.4925000000000002 $136 10.477499999999999 $53 $137 forward @7 unknown #
coedge $-1 -1 $-1 $138 $130 $54 $89 forward $139 $-1 #
edge $-1 -1 $-1 $90 1.7511499436084847 $140 2.2899653108726343 $54 $141 forward @7 unknown #
vertex $-1 -1 $-1 $89 $142 #
straight-curve $-1 -1 $-1 2.75 -0.77949999999999997 0.99999999999999989 -0.39370078740157477 0 0 F 0 F 13.970000000000001 #
plane-surface $-1 -1 $-1 0 -0.77949999999999997 0.49999999999999994 0 1 0 0 0 0.39370078740157477 forward_v I I I I #
face $-1 -1 $-1 $143 $106 $2 $-1 $144 forward single #
loop $-1 -1 $-1 $-1 $145 $59 #
plane-surface $-1 -1 $-1 -2.6749999999999998 0.8244999999999999 0.49999999999999994 -0.70710678118654757 0.70710678118654757 0 0 0 0.39370078740157477 forward_v I I I I #
loop $-1 -1 $-1 $146 $147 $35 #
coedge $-1 -1 $-1 $97 $97 $148 $149 forward $60 $-1 #
coedge $-1 -1 $-1 $150 $62 $151 $152 reversed $36 $-1 #
coedge $-1 -1 $-1 $62 $150 $104 $153 forward $36 $-1 #
edge $-1 -1 $-1 $154 0 $107 0.30480000000000002 $62 $155 forward @7 unknown #
coedge $-1 -1 $-1 $64 $63 $156 $157 forward $20 $-1 #
coedge $-1 -1 $-1 $76 $71 $63 $103 reversed $8 $-1 #
edge $-1 -1 $-1 $108 -0.30480000000000002 $158 0 $102 $159 forward @7 unknown #
coedge $-1 -1 $-1 $160 $65 $99 $153 reversed $106 $-1 #
coedge $-1 -1 $-1 $65 $161 $76 $124 reversed $106 $-1 #
loop $-1 -1 $-1 $162 $65 $93 #
vertex $-1 -1 $-1 $100 $163 #
vertex $-1 -1 $-1 $124 $164 #
straight-curve $-1 -1 $-1 2.2123749999999998 1.2871249999999996 0.12 0.27838849653013681 -0.27838849653013681 0 I I #
coedge $-1 -1 $-1 $69 $67 $165 $166 forward $12 $-1 #
coedge $-1 -1 $-1 $130 $138 $67 $112 forward $139 $-1 #
edge $-1 -1 $-1 $167 -2.2899653108726343 $113 -1.7511499436084847 $67 $168 forward @7 unknown #
vertex $-1 -1 $-1 $112 $169 #
straight-curve $-1 -1 $-1 2.75 -0.89949999999999997 0.99999999999999989 -0.39370078740157477 0 0 F 0 F 13.970000000000001 #
coedge $-1 -1 $-1 $170 $72 $69 $116 reversed $120 $-1 #
edge $-1 -1 $-1 $171 -10.477499999999999 $74 3.4925000000000002 $69 $172 forward @7 unknown #
coedge $-1 -1 $-1 $173 $156 $71 $118 forward $174 $-1 #
edge $-1 -1 $-1 $158 0.38100000000000023 $121 4.11226 $117 $175 forward @7 unknown #
coedge $-1 -1 $-1 $72 $170 $173 $176 reversed $120 $-1 #
loop $-1 -1 $-1 $-1 $115 $177 #
vertex $-1 -1 $-1 $176 $178 #
ellipse-curve $-1 -1 $-1 2.75 -0.71950000000000003 0.17999999999999999 -1 0 0 1.0490296295670768e-015 0 -0.17999999999999999 1 F 0 F 1.5707963267948957 #
point $-1 -1 $-1 2.75 -0.89949999999999997 0.17999999999999999 #
edge $-1 -1 $-1 $108 0.38100000000000023 $127 4.11226 $76 $179 forward @7 unknown #
coedge $-1 -1 $-1 $135 $77 $161 $180 reversed $126 $-1 #
loop $-1 -1 $-1 $-1 $86 $181 #
vertex $-1 -1 $-1 $180 $182 #
ellipse-curve $-1 -1 $-1 2.75 -0.71950000000000003 0.17999999999999999 -1 0 0 3.4967654318902565e-016 0 -0.060000000000000012 1 F 0 F 1.5707963267948941 #
point $-1 -1 $-1 2.75 -0.77949999999999997 0.17999999999999999 #
coedge $-1 -1 $-1 $88 $111 $82 $131 forward $139 $-1 #
edge $-1 -1 $-1 $113 0 $90 0.30479999999999996 $82 $183 forward @7 unknown #
plane-surface $-1 -1 $-1 2.75 -0.89949999999999997 0.99999999999999989 0 6.1230317691118875e-017 1 0.39370078740157477 0 0 forward_v I I I I #
coedge $-1 -1 $-1 $184 $185 $85 $134 forward $186 $-1 #
edge $-1 -1 $-1 $140 0.38100000000000023 $136 2.0827999999999998 $133 $187 forward @7 unknown #
coedge $-1 -1 $-1 $86 $125 $184 $188 forward $126 $-1 #
vertex $-1 -1 $-1 $87 $189 #
straight-curve $-1 -1 $-1 1.375 -0.77949999999999997 0.17999999999999999 -0.39370078740157477 0 0 I I #
coedge $-1 -1 $-1 $111 $88 $185 $190 forward $139 $-1 #
loop $-1 -1 $-1 $-1 $88 $191 #
vertex $-1 -1 $-1 $134 $192 #
straight-curve $-1 -1 $-1 -2.1124999999999998 -0.77949999999999997 1.4874999999999998 -0.27838849653013681 0 -0.27838849653013681 I I #
point $-1 -1 $-1 -2.5999999999999996 -0.77949999999999997 0.99999999999999989 #
face $-1 -1 $-1 $191 $186 $2 $-1 $193 forward single #
plane-surface $-1 -1 $-1 0 0 0.12 0 0 1 0.39370078740157477 0 0 forward_v I I I I #
coedge $-1 -1 $-1 $194 $195 $160 $196 forward $94 $-1 #
loop $-1 -1 $-1 $197 $198 $35 #
coedge $-1 -1 $-1 $147 $147 $199 $200 forward $96 $-1 #
coedge $-1 -1 $-1 $148 $148 $97 $149 reversed $201 $-1 #
edge $-1 -1 $-1 $202 -3.1415926535897931 $202 3.1415926535897931 $97 $203 forward @7 unknown #
coedge $-1 -1 $-1 $99 $98 $194 $204 reversed $36 $-1 #
coedge $-1 -1 $-1 $156 $205 $98 $152 forward $174 $-1 #
edge $-1 -1 $-1 $206 0.38100000000000023 $154 13.589 $151 $207 forward @7 unknown #
edge $-1 -1 $-1 $208 0.38100000000000023 $107 13.589 $99 $209 forward @7 unknown #
vertex $-1 -1 $-1 $157 $210 #
straight-curve $-1 -1 $-1 2.5999999999999996 0.89949999999999997 0 0 0 0.39370078740157477 F -1.1811010000000006 F 2.9591010000000004 #
coedge $-1 -1 $-1 $117 $151 $101 $157 reversed $174 $-1 #
edge $-1 -1 $-1 $158 -1.9312040788359215 $154 -1.3923887115717717 $156 $211 forward @7 unknown #
vertex $-1 -1 $-1 $118 $212 #
straight-curve $-1 -1 $-1 2.75 0.74949999999999994 0 0 0 -0.39370078740157477 F -2.9591010000000004 F 1.1811010000000006 #
coedge $-1 -1 $-1 $213 $104 $145 $196 reversed $106 $-1 #
coedge $-1 -1 $-1 $105 $213 $125 $180 forward $106 $-1 #
loop $-1 -1 $-1 $214 $215 $93 #
point $-1 -1 $-1 2.5999999999999996 0.89949999999999997 0.12 #
point $-1 -1 $-1 2.75 0.74949999999999994 0.12 #
coedge $-1 -1 $-1 $185 $216 $110 $166 reversed $186 $-1 #
edge $-1 -1 $-1 $167 0.38100000000000023 $171 2.0827999999999998 $110 $217 forward @7 unknown #
vertex $-1 -1 $-1 $166 $218 #
straight-curve $-1 -1 $-1 -2.1124999999999998 -0.89949999999999997 1.4874999999999998 0.27838849653013681 0 0.27838849653013681 I I #
point $-1 -1 $-1 -2.5999999999999996 -0.89949999999999997 0.99999999999999989 #
coedge $-1 -1 $-1 $119 $115 $216 $219 reversed $120 $-1 #
vertex $-1 -1 $-1 $116 $220 #
straight-curve $-1 -1 $-1 1.375 -0.89949999999999997 0.17999999999999999 0.39370078740157477 0 0 I I #
coedge $-1 -1 $-1 $221 $117 $119 $176 forward $174 $-1 #
loop $-1 -1 $-1 $-1 $156 $35 #
straight-curve $-1 -1 $-1 2.75 0.89949999999999997 0 0 -0.39370078740157477 0 F 0 F 4.5694600000000003 #
edge $-1 -1 $-1 $121 -10.477499999999999 $222 3.4924999999999993 $173 $223 forward @7 unknown #
face $-1 -1 $-1 $181 $120 $2 $-1 $224 forward single #
point $-1 -1 $-1 2.75 -0.71950000000000003 0 #
straight-curve $-1 -1 $-1 2.75 0.89949999999999997 0.12 0 -0.39370078740157477 0 F 0 F 4.5694600000000003 #
edge $-1 -1 $-1 $225 -3.4924999999999993 $127 10.477499999999999 $161 $226 forward @7 unknown #
face $-1 -1 $-1 $83 $126 $2 $-1 $227 forward single #
point $-1 -1 $-1 2.75 -0.71950000000000003 0.12 #
straight-curve $-1 -1 $-1 -2.5999999999999996 -0.89949999999999997 0.99999999999999989 0 0.39370078740157477 -2.4106424287842076e-017 F -1.1811010000000008 F 4.9885610000000007 #
coedge $-1 -1 $-1 $228 $133 $135 $188 reversed $186 $-1 #
coedge $-1 -1 $-1 $133 $165 $138 $190 reversed $186 $-1 #
loop $-1 -1 $-1 $-1 $229 $143 #
straight-curve $-1 -1 $-1 -2.75 -0.77949999999999997 0.99999999999999989 0 -2.410642428784207e-017 -0.39370078740157477 F 0 F 2.54 #
edge $-1 -1 $-1 $225 0 $136 1.5707963267948966 $135 $230 forward @7 unknown #
point $-1 -1 $-1 -2.7499999999999991 -0.77949999999999997 0.17999999999999999 #
edge $-1 -1 $-1 $140 -0.30479999999999996 $167 0 $185 $231 forward @7 unknown #
face $-1 -1 $-1 $232 $139 $2 $-1 $233 forward single #
point $-1 -1 $-1 -2.75 -0.77949999999999997 0.84999999999999987 #
plane-surface $-1 -1 $-1 -2.75 -0.89949999999999997 0.99999999999999989 -1 0 0 0 0 0.39370078740157477 forward_v I I I I #
coedge $-1 -1 $-1 $234 $145 $150 $204 forward $94 $-1 #
coedge $-1 -1 $-1 $145 $234 $229 $235 forward $94 $-1 #
edge $-1 -1 $-1 $236 -1.9312040788359215 $208 -1.3923887115717717 $160 $237 forward @7 unknown #
loop $-1 -1 $-1 $238 $239 $35 #
coedge $-1 -1 $-1 $198 $198 $240 $241 forward $146 $-1 #
coedge $-1 -1 $-1 $199 $199 $147 $200 reversed $242 $-1 #
edge $-1 -1 $-1 $243 -3.1415926535897931 $243 3.1415926535897931 $147 $244 forward @7 unknown #
loop $-1 -1 $-1 $245 $148 $246 #
vertex $-1 -1 $-1 $149 $247 #
ellipse-curve $-1 -1 $-1 -2.5 0.58700000000000008 0 0 0 1 0.14149999999999996 0 0 1 I I #
edge $-1 -1 $-1 $208 0.96520000000000006 $206 1.27 $150 $248 forward @7 unknown #
coedge $-1 -1 $-1 $151 $221 $234 $249 reversed $174 $-1 #
vertex $-1 -1 $-1 $152 $250 #
straight-curve $-1 -1 $-1 -2.75 0.89949999999999997 0 0.39370078740157477 0 0 F 0 F 13.970000000000001 #
vertex $-1 -1 $-1 $153 $251 #
straight-curve $-1 -1 $-1 -2.75 0.89949999999999997 0.12 0.39370078740157477 0 0 F 0 F 13.970000000000001 #
point $-1 -1 $-1 2.5999999999999996 0.89949999999999997 0 #
straight-curve $-1 -1 $-1 2.2123749999999998 1.2871249999999996 0 -0.27838849653013681 0.27838849653013681 0 I I #
point $-1 -1 $-1 2.75 0.74949999999999994 0 #
coedge $-1 -1 $-1 $161 $160 $228 $252 reversed $106 $-1 #
loop $-1 -1 $-1 $253 $254 $93 #
coedge $-1 -1 $-1 $215 $215 $255 $256 forward $162 $-1 #
coedge $-1 -1 $-1 $165 $257 $170 $219 forward $186 $-1 #
straight-curve $-1 -1 $-1 -2.75 -0.89949999999999997 0.99999999999999989 0 -2.410642428784207e-017 -0.39370078740157477 F 0 F 2.54 #
point $-1 -1 $-1 -2.75 -0.89949999999999997 0.84999999999999987 #
edge $-1 -1 $-1 $222 0 $171 1.5707963267948966 $216 $258 forward @7 unknown #
point $-1 -1 $-1 -2.7499999999999991 -0.89949999999999997 0.17999999999999999 #
coedge $-1 -1 $-1 $205 $173 $257 $259 forward $174 $-1 #
vertex $-1 -1 $-1 $259 $260 #
straight-curve $-1 -1 $-1 -1.3749999999999996 -0.71950000000000003 0 -0.39370078740157477 0 0 I I #
cone-surface $-1 -1 $-1 3.4967654318902565e-016 -0.71950000000000003 0.17999999999999999 -1 0 0 1.0490296295670768e-015 0 -0.17999999999999999 1 I I 0 1 0.17999999999999999 forward I I I I #
vertex $-1 -1 $-1 $252 $261 #
straight-curve $-1 -1 $-1 -1.3749999999999996 -0.71950000000000003 0.12 0.39370078740157477 0 0 I I #
cone-surface $-1 -1 $-1 3.4967654318902565e-016 -0.71950000000000003 0.17999999999999999 -1 0 0 3.4967654318902565e-016 0 -0.060000000000000012 1 I I 0 -1 0.060000000000000012 forward I I I I #
coedge $-1 -1 $-1 $229 $184 $213 $252 forward $186 $-1 #
coedge $-1 -1 $-1 $257 $228 $195 $235 reversed $186 $-1 #
ellipse-curve $-1 -1 $-1 -2.7499999999999991 -0.71950000000000003 0.17999999999999999 -1 0 0 3.4967654318902565e-016 0 -0.060000000000000012 1 F 0 F 1.5707963267943601 #
straight-curve $-1 -1 $-1 -2.75 -0.89949999999999997 0.84999999999999987 0 -0.39370078740157477 2.4106424287842076e-017 F -4.9885610000000007 F 1.1811010000000008 #
face $-1 -1 $-1 $262 $263 $2 $-1 $264 reversed single #
plane-surface $-1 -1 $-1 -2.6749999999999998 -0.89949999999999997 0.92499999999999993 -0.70710678118654757 4.3296372853596783e-017 0.70710678118654757 0.27838849653013681 0 0.27838849653013681 forward_v I I I I #
coedge $-1 -1 $-1 $195 $194 $205 $249 forward $94 $-1 #
edge $-1 -1 $-1 $265 -1.27 $236 -0.96520000000000006 $229 $266 forward @7 unknown #
vertex $-1 -1 $-1 $235 $267 #
straight-curve $-1 -1 $-1 -2.2123749999999998 1.2871249999999996 0.11999999999999997 0.27838849653013681 0.27838849653013681 0 I I #
loop $-1 -1 $-1 $268 $269 $35 #
coedge $-1 -1 $-1 $239 $239 $270 $271 forward $197 $-1 #
coedge $-1 -1 $-1 $240 $240 $198 $241 reversed $272 $-1 #
edge $-1 -1 $-1 $273 -3.1415926535897931 $273 3.1415926535897931 $198 $274 forward @7 unknown #
loop $-1 -1 $-1 $275 $199 $276 #
vertex $-1 -1 $-1 $200 $277 #
ellipse-curve $-1 -1 $-1 2.4999999999999991 -0.41299999999999992 0 0 0 1 0.14149999999999996 0 0 1 I I #
loop $-1 -1 $-1 $-1 $255 $246 #
face $-1 -1 $-1 $177 $201 $2 $-1 $278 reversed single #
point $-1 -1 $-1 -2.6414999999999997 0.58700000000000008 0 #
straight-curve $-1 -1 $-1 -2.5999999999999996 0.89949999999999997 0.49999999999999994 0 0 -0.39370078740157477 F -1.3081010000000002 F 2.4511010000000004 #
edge $-1 -1 $-1 $206 1.3923887115717717 $265 1.9312040788359215 $205 $279 forward @7 unknown #
point $-1 -1 $-1 -2.5999999999999996 0.89949999999999997 0 #
point $-1 -1 $-1 -2.5999999999999996 0.89949999999999997 0.12 #
edge $-1 -1 $-1 $225 0.45720000000000005 $236 4.1884600000000001 $228 $280 forward @7 unknown #
loop $-1 -1 $-1 $281 $282 $93 #
coedge $-1 -1 $-1 $254 $254 $283 $284 forward $214 $-1 #
coedge $-1 -1 $-1 $255 $255 $215 $256 reversed $245 $-1 #
edge $-1 -1 $-1 $285 0 $285 6.2831853071795862 $215 $286 forward @7 unknown #
coedge $-1 -1 $-1 $216 $229 $221 $259 reversed $186 $-1 #
ellipse-curve $-1 -1 $-1 -2.7499999999999991 -0.71950000000000003 0.17999999999999999 -1 0 0 1.0490296295670768e-015 0 -0.17999999999999999 1 F 0 F 1.5707963267947178 #
edge $-1 -1 $-1 $222 0.45720000000000005 $265 4.1884600000000001 $221 $287 forward @7 unknown #
point $-1 -1 $-1 -2.7499999999999991 -0.71950000000000003 0 #
point $-1 -1 $-1 -2.7499999999999991 -0.71950000000000003 0.12 #
face $-1 -1 $-1 $288 $289 $2 $-1 $290 reversed single #
loop $-1 -1 $-1 $291 $292 $232 #
cone-surface $-1 -1 $-1 1.9999999999999996 -0.41299999999999992 -5.7525123243804277 0 0 1 0.14149999999999996 0 0 1 I I 0 1 0.14149999999999996 reversed I I I I #
vertex $-1 -1 $-1 $235 $293 #
straight-curve $-1 -1 $-1 -2.75 0.74949999999999994 0.49999999999999994 0 0 0.39370078740157477 F -2.4511010000000004 F 1.3081010000000002 #
point $-1 -1 $-1 -2.75 0.74949999999999994 0.12 #
loop $-1 -1 $-1 $294 $295 $35 #
coedge $-1 -1 $-1 $269 $269 $296 $297 forward $238 $-1 #
coedge $-1 -1 $-1 $270 $270 $239 $271 reversed $298 $-1 #
edge $-1 -1 $-1 $299 -3.1415926535897931 $299 3.1415926535897931 $239 $300 forward @7 unknown #
loop $-1 -1 $-1 $301 $240 $302 #
vertex $-1 -1 $-1 $241 $303 #
ellipse-curve $-1 -1 $-1 -1.9999999999999998 0.58700000000000008 0 0 0 1 0.14149999999999996 0 0 1 I I #
loop $-1 -1 $-1 $-1 $283 $276 #
face $-1 -1 $-1 $246 $242 $2 $-1 $304 reversed single #
point $-1 -1 $-1 2.3584999999999994 -0.41299999999999992 0 #
cone-surface $-1 -1 $-1 -2.5 0.58700000000000008 -5.7525123243804277 0 0 1 0.14149999999999996 0 0 1 I I 0 1 0.14149999999999996 reversed I I I I #
straight-curve $-1 -1 $-1 -2.2123749999999998 1.2871249999999996 0 -0.27838849653013681 -0.27838849653013681 0 I I #
straight-curve $-1 -1 $-1 -2.75 -0.89949999999999997 0.12 0 0.39370078740157477 0 F 0 F 4.5694600000000003 #
loop $-1 -1 $-1 $305 $306 $93 #
coedge $-1 -1 $-1 $282 $282 $307 $308 forward $253 $-1 #
coedge $-1 -1 $-1 $283 $283 $254 $284 reversed $275 $-1 #
edge $-1 -1 $-1 $309 0 $309 6.2831853071795862 $254 $310 forward @7 unknown #
vertex $-1 -1 $-1 $256 $311 #
ellipse-curve $-1 -1 $-1 -2.5 0.58700000000000008 0.12000000000000006 0 0 -1 0.14149999999999996 0 0 1 I I #
straight-curve $-1 -1 $-1 -2.75 -0.89949999999999997 0 0 0.39370078740157477 0 F 0 F 4.5694600000000003 #
face $-1 -1 $-1 $312 $313 $2 $-1 $314 reversed single #
loop $-1 -1 $-1 $315 $316 $262 #
cone-surface $-1 -1 $-1 1.4999999999999998 -0.41299999999999992 -5.7525123243804277 0 0 1 0.14149999999999996 0 0 1 I I 0 1 0.14149999999999996 reversed I I I I #
loop $-1 -1 $-1 $-1 $317 $232 #
coedge $-1 -1 $-1 $292 $292 $318 $319 reversed $263 $-1 #
point $-1 -1 $-1 -2.75 0.74949999999999994 0 #
loop $-1 -1 $-1 $320 $321 $35 #
coedge $-1 -1 $-1 $295 $295 $322 $323 forward $268 $-1 #
coedge $-1 -1 $-1 $296 $296 $269 $297 reversed $324 $-1 #
edge $-1 -1 $-1 $325 -3.1415926535897931 $325 3.1415926535897931 $269 $326 forward @7 unknown #
loop $-1 -1 $-1 $327 $270 $328 #
vertex $-1 -1 $-1 $271 $329 #
ellipse-curve $-1 -1 $-1 -1.5 0.58700000000000008 0 0 0 1 0.14149999999999996 0 0 1 I I #
loop $-1 -1 $-1 $-1 $307 $302 #
face $-1 -1 $-1 $276 $272 $2 $-1 $330 reversed single #
point $-1 -1 $-1 -2.1415000000000002 0.58700000000000008 0 #
cone-surface $-1 -1 $-1 2.4999999999999991 -0.41299999999999992 -5.7525123243804277 0 0 1 0.14149999999999996 0 0 1 I I 0 1 0.14149999999999996 reversed I I I I #
loop $-1 -1 $-1 $331 $332 $93 #
coedge $-1 -1 $-1 $306 $306 $333 $334 forward $281 $-1 #
coedge $-1 -1 $-1 $307 $307 $282 $308 reversed $301 $-1 #
edge $-1 -1 $-1 $335 0 $335 6.2831853071795862 $282 $336 forward @7 unknown #
vertex $-1 -1 $-1 $284 $337 #
ellipse-curve $-1 -1 $-1 2.4999999999999991 -0.41299999999999992 0.12000000000000006 0 0 -1 0.14149999999999996 0 0 1 I I #
point $-1 -1 $-1 -2.3584999999999998 0.58700000000000008 0.12 #
face $-1 -1 $-1 $338 $339 $2 $-1 $340 reversed single #
loop $-1 -1 $-1 $341 $342 $288 #
cone-surface $-1 -1 $-1 0.99999999999999989 -0.41299999999999992 -5.7525123243804277 0 0 1 0.14149999999999996 0 0 1 I I 0 1 0.14149999999999996 reversed I I I I #
loop $-1 -1 $-1 $-1 $343 $262 #
coedge $-1 -1 $-1 $316 $316 $344 $345 reversed $289 $-1 #
coedge $-1 -1 $-1 $317 $317 $346 $347 reversed $291 $-1 #
coedge $-1 -1 $-1 $318 $318 $292 $319 forward $348 $-1 #
edge $-1 -1 $-1 $349 -3.1415926535897931 $349 3.1415926535897931 $318 $350 forward @7 unknown #
loop $-1 -1 $-1 $351 $352 $35 #
coedge $-1 -1 $-1 $321 $321 $353 $354 forward $294 $-1 #
coedge $-1 -1 $-1 $322 $322 $295 $323 reversed $355 $-1 #
edge $-1 -1 $-1 $356 -3.1415926535897931 $356 3.1415926535897931 $295 $357 forward @7 unknown #
loop $-1 -1 $-1 $358 $296 $359 #
vertex $-1 -1 $-1 $297 $360 #
ellipse-curve $-1 -1 $-1 -1 0.58700000000000008 0 0 0 1 0.14149999999999996 0 0 1 I I #
loop $-1 -1 $-1 $-1 $333 $328 #
face $-1 -1 $-1 $302 $298 $2 $-1 $361 reversed single #
point $-1 -1 $-1 -1.6415 0.58700000000000008 0 #
cone-surface $-1 -1 $-1 -1.9999999999999998 0.58700000000000008 -5.7525123243804277 0 0 1 0.14149999999999996 0 0 1 I I 0 1 0.14149999999999996 reversed I I I I #
loop $-1 -1 $-1 $362 $363 $93 #
coedge $-1 -1 $-1 $332 $332 $364 $365 forward $305 $-1 #
coedge $-1 -1 $-1 $333 $333 $306 $334 reversed $327 $-1 #
edge $-1 -1 $-1 $366 0 $366 6.2831853071795862 $306 $367 forward @7 unknown #
vertex $-1 -1 $-1 $308 $368 #
ellipse-curve $-1 -1 $-1 -1.9999999999999998 0.58700000000000008 0.12000000000000006 0 0 -1 0.14149999999999996 0 0 1 I I #
point $-1 -1 $-1 2.6414999999999993 -0.41299999999999992 0.12 #
face $-1 -1 $-1 $369 $370 $2 $-1 $371 reversed single #
loop $-1 -1 $-1 $372 $373 $312 #
cone-surface $-1 -1 $-1 0.49999999999999978 -0.41299999999999992 -5.7525123243804277 0 0 1 0.14149999999999996 0 0 1 I I 0 1 0.14149999999999996 reversed I I I I #
loop $-1 -1 $-1 $-1 $374 $288 #
coedge $-1 -1 $-1 $342 $342 $375 $376 reversed $313 $-1 #
coedge $-1 -1 $-1 $343 $343 $377 $378 reversed $315 $-1 #
coedge $-1 -1 $-1 $344 $344 $316 $345 forward $379 $-1 #
edge $-1 -1 $-1 $380 -3.1415926535897931 $380 3.1415926535897931 $344 $381 forward @7 unknown #
coedge $-1 -1 $-1 $346 $346 $317 $347 forward $382 $-1 #
edge $-1 -1 $-1 $383 0 $383 6.2831853071795862 $346 $384 forward @7 unknown #
loop $-1 -1 $-1 $174 $318 $35 #
vertex $-1 -1 $-1 $319 $385 #
ellipse-curve $-1 -1 $-1 1.9999999999999996 -0.41299999999999992 0 0 0 1 0.14149999999999996 0 0 1 I I #
loop $-1 -1 $-1 $386 $387 $35 #
coedge $-1 -1 $-1 $352 $352 $388 $389 forward $320 $-1 #
coedge $-1 -1 $-1 $353 $353 $321 $354 reversed $390 $-1 #
edge $-1 -1 $-1 $391 -3.1415926535897931 $391 3.1415926535897931 $321 $392 forward @7 unknown #
loop $-1 -1 $-1 $393 $322 $394 #
vertex $-1 -1 $-1 $323 $395 #
ellipse-curve $-1 -1 $-1 -0.50000000000000011 0.58700000000000008 0 0 0 1 0.14149999999999996 0 0 1 I I #
loop $-1 -1 $-1 $-1 $364 $359 #
face $-1 -1 $-1 $328 $324 $2 $-1 $396 reversed single #
point $-1 -1 $-1 -1.1415 0.58700000000000008 0 #
cone-surface $-1 -1 $-1 -1.5 0.58700000000000008 -5.7525123243804277 0 0 1 0.14149999999999996 0 0 1 I I 0 1 0.14149999999999996 reversed I I I I #
loop $-1 -1 $-1 $397 $398 $93 #
coedge $-1 -1 $-1 $363 $363 $399 $400 forward $331 $-1 #
coedge $-1 -1 $-1 $364 $364 $332 $365 reversed $358 $-1 #
edge $-1 -1 $-1 $401 0 $401 6.2831853071795862 $332 $402 forward @7 unknown #
vertex $-1 -1 $-1 $334 $403 #
ellipse-curve $-1 -1 $-1 -1.5 0.58700000000000008 0.12000000000000006 0 0 -1 0.14149999999999996 0 0 1 I I #
point $-1 -1 $-1 -1.8584999999999996 0.58700000000000008 0.12 #
face $-1 -1 $-1 $404 $405 $2 $-1 $406 reversed single #
loop $-1 -1 $-1 $407 $408 $338 #
cone-surface $-1 -1 $-1 -3.4967654318902565e-016 -0.41299999999999992 -5.7525123243804277 0 0 1 0.14149999999999996 0 0 1 I I 0 1 0.14149999999999996 reversed I I I I #
loop $-1 -1 $-1 $-1 $409 $312 #
coedge $-1 -1 $-1 $373 $373 $410 $411 reversed $339 $-1 #
coedge $-1 -1 $-1 $374 $374 $412 $413 reversed $341 $-1 #
coedge $-1 -1 $-1 $375 $375 $342 $376 forward $414 $-1 #
edge $-1 -1 $-1 $415 -3.1415926535897931 $415 3.1415926535897931 $375 $416 forward @7 unknown #
coedge $-1 -1 $-1 $377 $377 $343 $378 forward $417 $-1 #
edge $-1 -1 $-1 $418 0 $418 6.2831853071795862 $377 $419 forward @7 unknown #
loop $-1 -1 $-1 $348 $344 $35 #
vertex $-1 -1 $-1 $345 $420 #
ellipse-curve $-1 -1 $-1 1.4999999999999998 -0.41299999999999992 0 0 0 1 0.14149999999999996 0 0 1 I I #
loop $-1 -1 $-1 $-1 $346 $93 #
vertex $-1 -1 $-1 $347 $421 #
ellipse-curve $-1 -1 $-1 1.9999999999999996 -0.41299999999999992 0.12000000000000006 0 0 -1 0.14149999999999996 0 0 1 I I #
point $-1 -1 $-1 1.8584999999999996 -0.41299999999999992 0 #
loop $-1 -1 $-1 $422 $423 $35 #
coedge $-1 -1 $-1 $387 $387 $424 $425 forward $351 $-1 #
coedge $-1 -1 $-1 $388 $388 $352 $389 reversed $426 $-1 #
edge $-1 -1 $-1 $427 -3.1415926535897931 $427 3.1415926535897931 $352 $428 forward @7 unknown #
loop $-1 -1 $-1 $429 $353 $430 #
vertex $-1 -1 $-1 $354 $431 #
ellipse-curve $-1 -1 $-1 -3.4967654318902565e-016 0.58700000000000008 0 0 0 1 0.14149999999999996 0 0 1 I I #
loop $-1 -1 $-1 $-1 $399 $394 #
face $-1 -1 $-1 $359 $355 $2 $-1 $432 reversed single #
point $-1 -1 $-1 -0.64149999999999996 0.58700000000000008 0 #
cone-surface $-1 -1 $-1 -1 0.58700000000000008 -5.7525123243804277 0 0 1 0.14149999999999996 0 0 1 I I 0 1 0.14149999999999996 reversed I I I I #
loop $-1 -1 $-1 $433 $434 $93 #
coedge $-1 -1 $-1 $398 $398 $435 $436 forward $362 $-1 #
coedge $-1 -1 $-1 $399 $399 $363 $400 reversed $393 $-1 #
edge $-1 -1 $-1 $437 0 $437 6.2831853071795862 $363 $438 forward @7 unknown #
vertex $-1 -1 $-1 $365 $439 #
ellipse-curve $-1 -1 $-1 -1 0.58700000000000008 0.12000000000000006 0 0 -1 0.14149999999999996 0 0 1 I I #
point $-1 -1 $-1 -1.3584999999999998 0.58700000000000008 0.12 #
face $-1 -1 $-1 $440 $441 $2 $-1 $442 reversed single #
loop $-1 -1 $-1 $443 $444 $369 #
cone-surface $-1 -1 $-1 -0.50000000000000011 -0.41299999999999992 -5.7525123243804277 0 0 1 0.14149999999999996 0 0 1 I I 0 1 0.14149999999999996 reversed I I I I #
loop $-1 -1 $-1 $-1 $445 $338 #
coedge $-1 -1 $-1 $408 $408 $446 $447 reversed $370 $-1 #
coedge $-1 -1 $-1 $409 $409 $448 $449 reversed $372 $-1 #
coedge $-1 -1 $-1 $410 $410 $373 $411 forward $450 $-1 #
edge $-1 -1 $-1 $451 -3.1415926535897931 $451 3.1415926535897931 $410 $452 forward @7 unknown #
coedge $-1 -1 $-1 $412 $412 $374 $413 forward $453 $-1 #
edge $-1 -1 $-1 $454 0 $454 6.2831853071795862 $412 $455 forward @7 unknown #
loop $-1 -1 $-1 $379 $375 $35 #
vertex $-1 -1 $-1 $376 $456 #
ellipse-curve $-1 -1 $-1 0.99999999999999989 -0.41299999999999992 0 0 0 1 0.14149999999999996 0 0 1 I I #
loop $-1 -1 $-1 $382 $377 $93 #
vertex $-1 -1 $-1 $378 $457 #
ellipse-curve $-1 -1 $-1 1.4999999999999998 -0.41299999999999992 0.12000000000000006 0 0 -1 0.14149999999999996 0 0 1 I I #
point $-1 -1 $-1 1.3584999999999998 -0.41299999999999992 0 #
point $-1 -1 $-1 2.1414999999999997 -0.41299999999999992 0.12 #
loop $-1 -1 $-1 $458 $459 $35 #
coedge $-1 -1 $-1 $423 $423 $460 $461 forward $386 $-1 #
coedge $-1 -1 $-1 $424 $424 $387 $425 reversed $462 $-1 #
edge $-1 -1 $-1 $463 -3.1415926535897931 $463 3.1415926535897931 $387 $464 forward @7 unknown #
loop $-1 -1 $-1 $465 $388 $466 #
vertex $-1 -1 $-1 $389 $467 #
ellipse-curve $-1 -1 $-1 0.49999999999999978 0.58700000000000008 0 0 0 1 0.14149999999999996 0 0 1 I I #
loop $-1 -1 $-1 $-1 $435 $430 #
face $-1 -1 $-1 $394 $390 $2 $-1 $468 reversed single #
point $-1 -1 $-1 -0.14150000000000015 0.58700000000000008 0 #
cone-surface $-1 -1 $-1 -0.50000000000000011 0.58700000000000008 -5.7525123243804277 0 0 1 0.14149999999999996 0 0 1 I I 0 1 0.14149999999999996 reversed I I I I #
loop $-1 -1 $-1 $469 $470 $93 #
coedge $-1 -1 $-1 $434 $434 $471 $472 forward $397 $-1 #
coedge $-1 -1 $-1 $435 $435 $398 $436 reversed $429 $-1 #
edge $-1 -1 $-1 $473 0 $473 6.2831853071795862 $398 $474 forward @7 unknown #
vertex $-1 -1 $-1 $400 $475 #
ellipse-curve $-1 -1 $-1 -0.50000000000000011 0.58700000000000008 0.12000000000000006 0 0 -1 0.14149999999999996 0 0 1 I I #
point $-1 -1 $-1 -0.85849999999999993 0.58700000000000008 0.12 #
face $-1 -1 $-1 $476 $477 $2 $-1 $478 reversed single #
loop $-1 -1 $-1 $479 $480 $404 #
cone-surface $-1 -1 $-1 -1 -0.41299999999999992 -5.7525123243804277 0 0 1 0.14149999999999996 0 0 1 I I 0 1 0.14149999999999996 reversed I I I I #
loop $-1 -1 $-1 $-1 $481 $369 #
coedge $-1 -1 $-1 $444 $444 $482 $483 reversed $405 $-1 #
coedge $-1 -1 $-1 $445 $445 $484 $485 reversed $407 $-1 #
coedge $-1 -1 $-1 $446 $446 $408 $447 forward $486 $-1 #
edge $-1 -1 $-1 $487 -3.1415926535897931 $487 3.1415926535897931 $446 $488 forward @7 unknown #
coedge $-1 -1 $-1 $448 $448 $409 $449 forward $489 $-1 #
edge $-1 -1 $-1 $490 0 $490 6.2831853071795862 $448 $491 forward @7 unknown #
loop $-1 -1 $-1 $414 $410 $35 #
vertex $-1 -1 $-1 $411 $492 #
ellipse-curve $-1 -1 $-1 0.49999999999999978 -0.41299999999999992 0 0 0 1 0.14149999999999996 0 0 1 I I #
loop $-1 -1 $-1 $417 $412 $93 #
vertex $-1 -1 $-1 $413 $493 #
ellipse-curve $-1 -1 $-1 0.99999999999999989 -0.41299999999999992 0.12000000000000006 0 0 -1 0.14149999999999996 0 0 1 I I #
point $-1 -1 $-1 0.85850000000000015 -0.41299999999999992 0 #
point $-1 -1 $-1 1.6415 -0.41299999999999992 0.12 #
loop $-1 -1 $-1 $494 $495 $35 #
coedge $-1 -1 $-1 $459 $459 $496 $497 forward $422 $-1 #
coedge $-1 -1 $-1 $460 $460 $423 $461 reversed $498 $-1 #
edge $-1 -1 $-1 $499 -3.1415926535897931 $499 3.1415926535897931 $423 $500 forward @7 unknown #
loop $-1 -1 $-1 $501 $424 $502 #
vertex $-1 -1 $-1 $425 $503 #
ellipse-curve $-1 -1 $-1 0.99999999999999989 0.58700000000000008 0 0 0 1 0.14149999999999996 0 0 1 I I #
loop $-1 -1 $-1 $-1 $471 $466 #
face $-1 -1 $-1 $430 $426 $2 $-1 $504 reversed single #
point $-1 -1 $-1 0.35849999999999999 0.58700000000000008 0 #
cone-surface $-1 -1 $-1 -3.4967654318902565e-016 0.58700000000000008 -5.7525123243804277 0 0 1 0.14149999999999996 0 0 1 I I 0 1 0.14149999999999996 reversed I I I I #
loop $-1 -1 $-1 $505 $506 $93 #
coedge $-1 -1 $-1 $470 $470 $507 $508 forward $433 $-1 #
coedge $-1 -1 $-1 $471 $471 $434 $472 reversed $465 $-1 #
edge $-1 -1 $-1 $509 0 $509 6.2831853071795862 $434 $510 forward @7 unknown #
vertex $-1 -1 $-1 $436 $511 #
ellipse-curve $-1 -1 $-1 -3.4967654318902565e-016 0.58700000000000008 0.12000000000000006 0 0 -1 0.14149999999999996 0 0 1 I I #
point $-1 -1 $-1 -0.35849999999999999 0.58700000000000008 0.12 #
face $-1 -1 $-1 $512 $513 $2 $-1 $514 reversed single #
loop $-1 -1 $-1 $515 $516 $440 #
cone-surface $-1 -1 $-1 -1.5 -0.41299999999999992 -5.7525123243804277 0 0 1 0.14149999999999996 0 0 1 I I 0 1 0.14149999999999996 reversed I I I I #
loop $-1 -1 $-1 $-1 $517 $404 #
coedge $-1 -1 $-1 $480 $480 $518 $519 reversed $441 $-1 #
coedge $-1 -1 $-1 $481 $481 $520 $521 reversed $443 $-1 #
coedge $-1 -1 $-1 $482 $482 $444 $483 forward $522 $-1 #
edge $-1 -1 $-1 $523 -3.1415926535897931 $523 3.1415926535897931 $482 $524 forward @7 unknown #
coedge $-1 -1 $-1 $484 $484 $445 $485 forward $525 $-1 #
edge $-1 -1 $-1 $526 0 $526 6.2831853071795862 $484 $527 forward @7 unknown #
loop $-1 -1 $-1 $450 $446 $35 #
vertex $-1 -1 $-1 $447 $528 #
ellipse-curve $-1 -1 $-1 -3.4967654318902565e-016 -0.41299999999999992 0 0 0 1 0.14149999999999996 0 0 1 I I #
loop $-1 -1 $-1 $453 $448 $93 #
vertex $-1 -1 $-1 $449 $529 #
ellipse-curve $-1 -1 $-1 0.49999999999999978 -0.41299999999999992 0.12000000000000006 0 0 -1 0.14149999999999996 0 0 1 I I #
point $-1 -1 $-1 0.35849999999999999 -0.41299999999999992 0 #
point $-1 -1 $-1 1.1415000000000002 -0.41299999999999992 0.12 #
loop $-1 -1 $-1 $530 $531 $35 #
coedge $-1 -1 $-1 $495 $495 $532 $533 forward $458 $-1 #
coedge $-1 -1 $-1 $496 $496 $459 $497 reversed $534 $-1 #
edge $-1 -1 $-1 $535 -3.1415926535897931 $535 3.1415926535897931 $459 $536 forward @7 unknown #
loop $-1 -1 $-1 $537 $460 $538 #
vertex $-1 -1 $-1 $461 $539 #
ellipse-curve $-1 -1 $-1 1.4999999999999998 0.58700000000000008 0 0 0 1 0.14149999999999996 0 0 1 I I #
loop $-1 -1 $-1 $-1 $507 $502 #
face $-1 -1 $-1 $466 $462 $2 $-1 $540 reversed single #
point $-1 -1 $-1 0.85850000000000015 0.58700000000000008 0 #
cone-surface $-1 -1 $-1 0.49999999999999978 0.58700000000000008 -5.7525123243804277 0 0 1 0.14149999999999996 0 0 1 I I 0 1 0.14149999999999996 reversed I I I I #
loop $-1 -1 $-1 $541 $542 $93 #
coedge $-1 -1 $-1 $506 $506 $543 $544 forward $469 $-1 #
coedge $-1 -1 $-1 $507 $507 $470 $508 reversed $501 $-1 #
edge $-1 -1 $-1 $545 0 $545 6.2831853071795862 $470 $546 forward @7 unknown #
vertex $-1 -1 $-1 $472 $547 #
ellipse-curve $-1 -1 $-1 0.49999999999999978 0.58700000000000008 0.12000000000000006 0 0 -1 0.14149999999999996 0 0 1 I I #
point $-1 -1 $-1 0.14149999999999982 0.58700000000000008 0.12 #
face $-1 -1 $-1 $548 $549 $2 $-1 $550 reversed single #
loop $-1 -1 $-1 $551 $552 $476 #
cone-surface $-1 -1 $-1 -1.9999999999999998 -0.41299999999999992 -5.7525123243804277 0 0 1 0.14149999999999996 0 0 1 I I 0 1 0.14149999999999996 reversed I I I I #
loop $-1 -1 $-1 $-1 $553 $440 #
coedge $-1 -1 $-1 $516 $516 $554 $555 reversed $477 $-1 #
coedge $-1 -1 $-1 $517 $517 $556 $557 reversed $479 $-1 #
coedge $-1 -1 $-1 $518 $518 $480 $519 forward $558 $-1 #
edge $-1 -1 $-1 $559 -3.1415926535897931 $559 3.1415926535897931 $518 $560 forward @7 unknown #
coedge $-1 -1 $-1 $520 $520 $481 $521 forward $561 $-1 #
edge $-1 -1 $-1 $562 0 $562 6.2831853071795862 $520 $563 forward @7 unknown #
loop $-1 -1 $-1 $486 $482 $35 #
vertex $-1 -1 $-1 $483 $564 #
ellipse-curve $-1 -1 $-1 -0.50000000000000011 -0.41299999999999992 0 0 0 1 0.14149999999999996 0 0 1 I I #
loop $-1 -1 $-1 $489 $484 $93 #
vertex $-1 -1 $-1 $485 $565 #
ellipse-curve $-1 -1 $-1 -3.4967654318902565e-016 -0.41299999999999992 0.12000000000000006 0 0 -1 0.14149999999999996 0 0 1 I I #
point $-1 -1 $-1 -0.14150000000000015 -0.41299999999999992 0 #
point $-1 -1 $-1 0.64149999999999996 -0.41299999999999992 0.12 #
loop $-1 -1 $-1 $566 $567 $35 #
coedge $-1 -1 $-1 $531 $531 $568 $569 forward $494 $-1 #
coedge $-1 -1 $-1 $532 $532 $495 $533 reversed $570 $-1 #
edge $-1 -1 $-1 $571 -3.1415926535897931 $571 3.1415926535897931 $495 $572 forward @7 unknown #
loop $-1 -1 $-1 $573 $496 $574 #
vertex $-1 -1 $-1 $497 $575 #
ellipse-curve $-1 -1 $-1 1.9999999999999996 0.58700000000000008 0 0 0 1 0.14149999999999996 0 0 1 I I #
loop $-1 -1 $-1 $-1 $543 $538 #
face $-1 -1 $-1 $502 $498 $2 $-1 $576 reversed single #
point $-1 -1 $-1 1.3584999999999998 0.58700000000000008 0 #
cone-surface $-1 -1 $-1 0.99999999999999989 0.58700000000000008 -5.7525123243804277 0 0 1 0.14149999999999996 0 0 1 I I 0 1 0.14149999999999996 reversed I I I I #
loop $-1 -1 $-1 $577 $578 $93 #
coedge $-1 -1 $-1 $542 $542 $579 $580 forward $505 $-1 #
coedge $-1 -1 $-1 $543 $543 $506 $544 reversed $537 $-1 #
edge $-1 -1 $-1 $581 0 $581 6.2831853071795862 $506 $582 forward @7 unknown #
vertex $-1 -1 $-1 $508 $583 #
ellipse-curve $-1 -1 $-1 0.99999999999999989 0.58700000000000008 0.12000000000000006 0 0 -1 0.14149999999999996 0 0 1 I I #
point $-1 -1 $-1 0.64149999999999996 0.58700000000000008 0.12 #
face $-1 -1 $-1 $574 $570 $2 $-1 $584 reversed single #
loop $-1 -1 $-1 $585 $568 $512 #
cone-surface $-1 -1 $-1 -2.5 -0.41299999999999992 -5.7525123243804277 0 0 1 0.14149999999999996 0 0 1 I I 0 1 0.14149999999999996 reversed I I I I #
loop $-1 -1 $-1 $-1 $586 $476 #
coedge $-1 -1 $-1 $552 $552 $567 $587 reversed $513 $-1 #
coedge $-1 -1 $-1 $553 $553 $588 $589 reversed $515 $-1 #
coedge $-1 -1 $-1 $554 $554 $516 $555 forward $566 $-1 #
edge $-1 -1 $-1 $590 -3.1415926535897931 $590 3.1415926535897931 $554 $591 forward @7 unknown #
coedge $-1 -1 $-1 $556 $556 $517 $557 forward $592 $-1 #
edge $-1 -1 $-1 $593 0 $593 6.2831853071795862 $556 $594 forward @7 unknown #
loop $-1 -1 $-1 $522 $518 $35 #
vertex $-1 -1 $-1 $519 $595 #
ellipse-curve $-1 -1 $-1 -1 -0.41299999999999992 0 0 0 1 0.14149999999999996 0 0 1 I I #
loop $-1 -1 $-1 $525 $520 $93 #
vertex $-1 -1 $-1 $521 $596 #
ellipse-curve $-1 -1 $-1 -0.50000000000000011 -0.41299999999999992 0.12000000000000006 0 0 -1 0.14149999999999996 0 0 1 I I #
point $-1 -1 $-1 -0.64149999999999996 -0.41299999999999992 0 #
point $-1 -1 $-1 0.14149999999999982 -0.41299999999999992 0.12 #
loop $-1 -1 $-1 $558 $554 $35 #
coedge $-1 -1 $-1 $567 $567 $552 $587 forward $530 $-1 #
coedge $-1 -1 $-1 $568 $568 $531 $569 reversed $549 $-1 #
edge $-1 -1 $-1 $597 -3.1415926535897931 $597 3.1415926535897931 $531 $598 forward @7 unknown #
loop $-1 -1 $-1 $599 $532 $548 #
vertex $-1 -1 $-1 $533 $600 #
ellipse-curve $-1 -1 $-1 2.4999999999999991 0.58700000000000008 0 0 0 1 0.14149999999999996 0 0 1 I I #
loop $-1 -1 $-1 $-1 $579 $574 #
face $-1 -1 $-1 $538 $534 $2 $-1 $601 reversed single #
point $-1 -1 $-1 1.8584999999999996 0.58700000000000008 0 #
cone-surface $-1 -1 $-1 1.4999999999999998 0.58700000000000008 -5.7525123243804277 0 0 1 0.14149999999999996 0 0 1 I I 0 1 0.14149999999999996 reversed I I I I #
loop $-1 -1 $-1 $602 $603 $93 #
coedge $-1 -1 $-1 $578 $578 $604 $605 forward $541 $-1 #
coedge $-1 -1 $-1 $579 $579 $542 $580 reversed $573 $-1 #
edge $-1 -1 $-1 $606 0 $606 6.2831853071795862 $542 $607 forward @7 unknown #
vertex $-1 -1 $-1 $544 $608 #
ellipse-curve $-1 -1 $-1 1.4999999999999998 0.58700000000000008 0.12000000000000006 0 0 -1 0.14149999999999996 0 0 1 I I #
point $-1 -1 $-1 1.1415000000000002 0.58700000000000008 0.12 #
cone-surface $-1 -1 $-1 2.4999999999999991 0.58700000000000008 -5.7525123243804277 0 0 1 0.14149999999999996 0 0 1 I I 0 1 0.14149999999999996 reversed I I I I #
loop $-1 -1 $-1 $-1 $609 $512 #
coedge $-1 -1 $-1 $586 $586 $610 $611 reversed $551 $-1 #
edge $-1 -1 $-1 $612 -3.1415926535897931 $612 3.1415926535897931 $567 $613 forward @7 unknown #
coedge $-1 -1 $-1 $588 $588 $553 $589 forward $614 $-1 #
edge $-1 -1 $-1 $615 0 $615 6.2831853071795862 $588 $616 forward @7 unknown #
vertex $-1 -1 $-1 $555 $617 #
ellipse-curve $-1 -1 $-1 -1.5 -0.41299999999999992 0 0 0 1 0.14149999999999996 0 0 1 I I #
loop $-1 -1 $-1 $561 $556 $93 #
vertex $-1 -1 $-1 $557 $618 #
ellipse-curve $-1 -1 $-1 -1 -0.41299999999999992 0.12000000000000006 0 0 -1 0.14149999999999996 0 0 1 I I #
point $-1 -1 $-1 -1.1415 -0.41299999999999992 0 #
point $-1 -1 $-1 -0.35849999999999999 -0.41299999999999992 0.12 #
vertex $-1 -1 $-1 $569 $619 #
ellipse-curve $-1 -1 $-1 -2.5 -0.41299999999999992 0 0 0 1 0.14149999999999996 0 0 1 I I #
loop $-1 -1 $-1 $-1 $604 $548 #
point $-1 -1 $-1 2.3584999999999994 0.58700000000000008 0 #
cone-surface $-1 -1 $-1 1.9999999999999996 0.58700000000000008 -5.7525123243804277 0 0 1 0.14149999999999996 0 0 1 I I 0 1 0.14149999999999996 reversed I I I I #
loop $-1 -1 $-1 $614 $610 $93 #
coedge $-1 -1 $-1 $603 $603 $609 $620 forward $577 $-1 #
coedge $-1 -1 $-1 $604 $604 $578 $605 reversed $599 $-1 #
edge $-1 -1 $-1 $621 0 $621 6.2831853071795862 $578 $622 forward @7 unknown #
vertex $-1 -1 $-1 $580 $623 #
ellipse-curve $-1 -1 $-1 1.9999999999999996 0.58700000000000008 0.12000000000000006 0 0 -1 0.14149999999999996 0 0 1 I I #
point $-1 -1 $-1 1.6415 0.58700000000000008 0.12 #
coedge $-1 -1 $-1 $609 $609 $603 $620 reversed $585 $-1 #
coedge $-1 -1 $-1 $610 $610 $586 $611 forward $602 $-1 #
edge $-1 -1 $-1 $624 0 $624 6.2831853071795862 $610 $625 forward @7 unknown #
vertex $-1 -1 $-1 $587 $626 #
ellipse-curve $-1 -1 $-1 -1.9999999999999998 -0.41299999999999992 0 0 0 1 0.14149999999999996 0 0 1 I I #
loop $-1 -1 $-1 $592 $588 $93 #
vertex $-1 -1 $-1 $589 $627 #
ellipse-curve $-1 -1 $-1 -1.5 -0.41299999999999992 0.12000000000000006 0 0 -1 0.14149999999999996 0 0 1 I I #
point $-1 -1 $-1 -1.6415 -0.41299999999999992 0 #
point $-1 -1 $-1 -0.85849999999999993 -0.41299999999999992 0.12 #
point $-1 -1 $-1 -2.6414999999999997 -0.41299999999999992 0 #
edge $-1 -1 $-1 $628 0 $628 6.2831853071795862 $603 $629 forward @7 unknown #
vertex $-1 -1 $-1 $605 $630 #
ellipse-curve $-1 -1 $-1 2.4999999999999991 0.58700000000000008 0.12000000000000006 0 0 -1 0.14149999999999996 0 0 1 I I #
point $-1 -1 $-1 2.1414999999999997 0.58700000000000008 0.12 #
vertex $-1 -1 $-1 $611 $631 #
ellipse-curve $-1 -1 $-1 -1.9999999999999998 -0.41299999999999992 0.12000000000000006 0 0 -1 0.14149999999999996 0 0 1 I I #
point $-1 -1 $-1 -2.1415000000000002 -0.41299999999999992 0 #
point $-1 -1 $-1 -1.3584999999999998 -0.41299999999999992 0.12 #
vertex $-1 -1 $-1 $620 $632 #
ellipse-curve $-1 -1 $-1 -2.5 -0.41299999999999992 0.12000000000000006 0 0 -1 0.14149999999999996 0 0 1 I I #
point $-1 -1 $-1 2.6414999999999993 0.58700000000000008 0.12 #
point $-1 -1 $-1 -1.8584999999999996 -0.41299999999999992 0.12 #
point $-1 -1 $-1 -2.3584999999999998 -0.41299999999999992 0.12 #
End-of-ACIS-data 