400 0 1 0           
7 Unknown 11 ACIS 6.0 NT 24 Tue Dec 18 20:55:47 2001 
25.399999999999999 9.9999999999999995e-007 1e-010 
body $-1 $1 $-1 $-1 #
lump $-1 $-1 $2 $0 #
shell $-1 $-1 $-1 $3 $-1 $1 #
face $-1 $4 $5 $2 $-1 $6 reversed single #
face $-1 $7 $8 $2 $-1 $9 reversed single #
loop $-1 $10 $11 $3 #
cone-surface $-1 1.3443248054107273 4.4044276702251688 -3.0596697529039742e-016 9.7909432092927214e-016 -1 0 0.054499999999999993 5.3360640490645329e-017 0 1 I I 0 1 0.054499999999999993 reversed I I I I #
face $-1 $12 $13 $2 $-1 $14 reversed single #
loop $-1 $-1 $15 $4 #
plane-surface $-1 1.3443248054107315 0.096005685321647091 -0.18750000000000031 4.7608532029588266e-016 0 -1 -0.39370078740157477 0 -1.8743516547081992e-016 forward_v I I I I #
loop $-1 $-1 $16 $3 #
coedge $-1 $11 $11 $17 $18 reversed $5 $-1 #
face $-1 $19 $20 $2 $-1 $21 reversed single #
loop $-1 $-1 $22 $7 #
plane-surface $-1 2.1247129234636817 0.096005685321647841 0.18750000000000006 0 0 1 0.39370078740157477 0 0 forward_v I I I I #
coedge $-1 $23 $24 $25 $26 reversed $8 $-1 #
coedge $-1 $16 $16 $27 $28 reversed $10 $-1 #
coedge $-1 $17 $17 $11 $18 forward $29 $-1 #
edge $-1 $30 $30 $17 $31 forward #
face $-1 $32 $29 $2 $-1 $33 reversed single #
loop $-1 $-1 $34 $12 #
cone-surface $-1 1.3443248054107315 0.096005685321647091 -3.0596697529039742e-016 0 1 0 0 0 0.1875 1 I I 0 1 0.1875 forward I I I I #
coedge $-1 $35 $36 $37 $38 reversed $13 $-1 #
coedge $-1 $39 $15 $40 $41 reversed $8 $-1 #
coedge $-1 $15 $42 $43 $44 reversed $8 $-1 #
coedge $-1 $45 $46 $15 $26 forward $47 $-1 #
edge $-1 $48 $49 $25 $50 forward #
coedge $-1 $27 $27 $16 $28 forward $51 $-1 #
edge $-1 $52 $52 $27 $53 forward #
loop $-1 $54 $17 $19 #
vertex $-1 $18 $55 #
ellipse-curve $-1 1.3443248054107315 0.2520056853216473 -3.0596697529039742e-016 -9.709585394697679e-016 1 -2.0520923896069874e-018 0.054499999999999993 5.3360640490645329e-017 0 1 I I #
face $-1 $56 $57 $2 $-1 $58 forward single #
plane-surface $-1 1.6763309218489864 0.25200568532164735 -8.7419135797256413e-017 -9.709585394697679e-016 1 -2.0520923896069874e-018 0 8.079103896090501e-019 0.39370078740157477 forward_v I I I I #
coedge $-1 $59 $60 $61 $62 reversed $20 $-1 #
coedge $-1 $63 $22 $64 $65 reversed $13 $-1 #
coedge $-1 $22 $66 $67 $68 reversed $13 $-1 #
coedge $-1 $46 $45 $22 $38 forward $47 $-1 #
edge $-1 $69 $70 $37 $71 forward #
coedge $-1 $72 $23 $60 $73 reversed $8 $-1 #
coedge $-1 $74 $61 $23 $41 forward $54 $-1 #
edge $-1 $75 $48 $23 $76 forward #
coedge $-1 $24 $72 $77 $78 reversed $8 $-1 #
coedge $-1 $79 $80 $24 $44 forward $57 $-1 #
edge $-1 $49 $81 $43 $82 forward #
coedge $-1 $37 $25 $80 $83 forward $47 $-1 #
coedge $-1 $25 $37 $74 $84 forward $47 $-1 #
loop $-1 $85 $25 $86 #
vertex $-1 $26 $87 #
vertex $-1 $83 $88 #
straight-curve $-1 1.6695440867846538 0.25225568532164777 -0.18750000000000014 3.8547020509026461e-016 -0.39370078740157477 0 I I #
loop $-1 $89 $27 $90 #
vertex $-1 $28 $91 #
ellipse-curve $-1 1.3443248054107313 0.40850568532164749 -3.0596697529039742e-016 9.7909432092927214e-016 -1 0 0.054499999999999993 5.3360640490645329e-017 0 1 I I #
loop $-1 $-1 $74 $19 #
point $-1 1.2898248054107313 0.25200568532164724 -3.0596697529039742e-016 #
face $-1 $92 $93 $2 $-1 $94 forward single #
loop $-1 $-1 $43 $32 #
plane-surface $-1 -1.2244251945892688 0.1740056853216449 0 -9.7909432092927214e-016 1 0 0 0 0.39370078740157477 forward_v I I I I #
coedge $-1 $95 $34 $66 $96 reversed $20 $-1 #
coedge $-1 $34 $95 $39 $73 forward $20 $-1 #
coedge $-1 $40 $67 $34 $62 forward $54 $-1 #
edge $-1 $97 $75 $34 $98 forward #
coedge $-1 $99 $35 $100 $101 reversed $13 $-1 #
coedge $-1 $80 $79 $35 $65 forward $57 $-1 #
edge $-1 $102 $69 $64 $103 forward #
coedge $-1 $36 $99 $59 $96 forward $13 $-1 #
coedge $-1 $61 $74 $36 $68 forward $54 $-1 #
edge $-1 $70 $97 $36 $104 forward #
vertex $-1 $65 $105 #
vertex $-1 $38 $106 #
straight-curve $-1 1.6695440867846538 0.25225568532164777 0.18750000000000006 -3.8547020509026461e-016 0.39370078740157477 0 I I #
coedge $-1 $42 $39 $107 $108 reversed $8 $-1 #
edge $-1 $109 $75 $39 $110 forward #
coedge $-1 $67 $40 $46 $84 reversed $54 $-1 #
vertex $-1 $73 $111 #
straight-curve $-1 1.3443248054107317 0.25200568532164702 -0.18750000000000031 0.39370078740157477 3.8547020509026461e-016 1.8743516547081992e-016 F 0 F 1.982185819854493 #
coedge $-1 $112 $113 $42 $78 forward $93 $-1 #
edge $-1 $81 $114 $77 $115 forward #
coedge $-1 $64 $43 $113 $116 forward $57 $-1 #
coedge $-1 $43 $64 $45 $83 reversed $57 $-1 #
vertex $-1 $116 $117 #
straight-curve $-1 0.059949805410731374 0.17400568532164618 -0.18750000000000092 0.39370078740157477 3.8547020509026461e-016 1.8743516547081992e-016 I I #
edge $-1 $49 $69 $45 $118 forward #
edge $-1 $70 $48 $46 $119 forward #
loop $-1 $-1 $120 $86 #
face $-1 $121 $47 $2 $-1 $122 forward single #
point $-1 1.6695440867846538 0.25200568532164735 -0.18750000000000014 #
point $-1 1.6695440867846543 0.17400568532164767 -0.18750000000000014 #
loop $-1 $123 $124 $90 #
face $-1 $-1 $51 $2 $-1 $125 forward single #
point $-1 1.2898248054107313 0.40850568532164738 -3.0596697529039742e-016 #
face $-1 $126 $127 $2 $-1 $128 forward single #
loop $-1 $-1 $77 $56 #
cone-surface $-1 0.24432480541073145 0.13500568532164639 0 -9.7909432092927214e-016 1 0 -1.5000000000000002 0 0 1 I I 0 1 1.5000000000000002 forward I I I I #
coedge $-1 $60 $59 $129 $130 reversed $20 $-1 #
edge $-1 $131 $97 $59 $132 forward #
vertex $-1 $96 $133 #
ellipse-curve $-1 1.3443248054107315 0.25200568532164708 -3.0596697529039742e-016 9.7909432092927214e-016 -1 0 0 0 0.1875 1 F 0 F 3.1415926535897931 #
coedge $-1 $66 $63 $134 $135 reversed $13 $-1 #
coedge $-1 $113 $112 $63 $101 forward $93 $-1 #
edge $-1 $136 $102 $100 $137 forward #
vertex $-1 $101 $138 #
straight-curve $-1 0.45014386443720644 0.17400568532164656 0.18750000000000006 -0.39370078740157477 -3.8547020509026461e-016 0 I I #
straight-curve $-1 2.1247129234636817 0.2520056853216478 0.18750000000000006 -0.39370078740157477 -3.8547020509026461e-016 0 F 0 F 1.982185819854493 #
point $-1 1.6695440867846543 0.1740056853216477 0.18750000000000006 #
point $-1 1.6695440867846538 0.25200568532164735 0.18750000000000006 #
coedge $-1 $129 $139 $72 $108 forward $127 $-1 #
edge $-1 $114 $109 $107 $140 forward #
vertex $-1 $130 $141 #
straight-curve $-1 1.3443248054107315 0.096005685321647091 -0.18750000000000031 0 0.39370078740157477 0 I I #
point $-1 1.3443248054107315 0.25200568532164708 -0.18750000000000031 #
coedge $-1 $100 $77 $139 $142 forward $93 $-1 #
coedge $-1 $77 $100 $79 $116 reversed $93 $-1 #
vertex $-1 $142 $143 #
straight-curve $-1 1.7325599178845639 0.13500568532164783 -0.18750000000000011 3.8547020509026461e-016 -0.39370078740157477 0 I I #
edge $-1 $81 $102 $79 $144 forward #
point $-1 1.7325599178845634 0.17400568532164784 -0.18750000000000011 #
ellipse-curve $-1 0.2443248054107314 0.17400568532164631 0 -9.7909432092927214e-016 1 0 -1.4375000000000002 0 0 1 I I #
ellipse-curve $-1 0.24432480541073132 0.25200568532164597 0 -9.709585394697679e-016 1 -2.0520923896069874e-018 -1.4375 0 0 1 I I #
coedge $-1 $120 $120 $145 $146 reversed $85 $-1 #
face $-1 $147 $148 $2 $-1 $149 forward single #
cone-surface $-1 0.24432480541073132 0.25225568532164638 0 -9.7909432092927214e-016 1 0 -1.4375 0 0 1 I I 0 1 1.4375 forward I I I I #
loop $-1 $150 $151 $90 #
coedge $-1 $124 $124 $152 $153 forward $89 $-1 #
plane-surface $-1 -0.50567519458926879 0.40850568532164527 0 -9.7909432092927214e-016 1 0 0 0 0.39370078740157477 forward_v I I I I #
face $-1 $154 $155 $2 $-1 $156 reversed single #
loop $-1 $157 $107 $92 #
plane-surface $-1 -0.50567519458926868 0.096005685321645273 0 9.7909432092927214e-016 -1 0 0 0 -0.39370078740157477 forward_v I I I I #
coedge $-1 $134 $107 $95 $130 forward $127 $-1 #
edge $-1 $109 $131 $129 $158 forward #
vertex $-1 $135 $159 #
straight-curve $-1 1.3443248054107315 0.096005685321647091 0.18750000000000006 0 0.39370078740157477 0 I I #
point $-1 1.3443248054107315 0.25200568532164708 0.18750000000000006 #
coedge $-1 $139 $129 $99 $135 forward $127 $-1 #
edge $-1 $131 $136 $134 $160 forward #
vertex $-1 $135 $161 #
straight-curve $-1 1.7325599178845639 0.13500568532164786 0.18750000000000006 -3.8547020509026461e-016 0.39370078740157477 0 I I #
point $-1 1.7325599178845634 0.17400568532164787 0.18750000000000006 #
coedge $-1 $107 $134 $112 $142 reversed $127 $-1 #
straight-curve $-1 0.41932480541073158 0.096005685321646175 -0.18750000000000072 -0.39370078740157477 -3.8547020509026461e-016 -1.8743516547081992e-016 I I #
point $-1 1.3443248054107315 0.096005685321647091 -0.18750000000000031 #
edge $-1 $114 $136 $112 $162 forward #
point $-1 1.7325599178845639 0.096005685321647827 -0.18750000000000011 #
ellipse-curve $-1 0.2443248054107314 0.1740056853216464 0 -9.7909432092927214e-016 1 0 -1.5 0 0 1 I I #
coedge $-1 $145 $145 $120 $146 forward $163 $-1 #
edge $-1 $164 $164 $145 $165 forward #
face $-1 $90 $166 $2 $-1 $167 forward single #
loop $-1 $163 $168 $121 #
plane-surface $-1 -1.2244251945892688 0.33050568532164504 0 9.7909432092927214e-016 -1 0 0 0 -0.39370078740157477 forward_v I I I I #
loop $-1 $169 $170 $90 #
coedge $-1 $151 $151 $171 $172 forward $123 $-1 #
coedge $-1 $152 $152 $124 $153 reversed $173 $-1 #
edge $-1 $174 $174 $124 $175 forward #
face $-1 $176 $177 $2 $-1 $178 reversed single #
loop $-1 $173 $179 $126 #
cone-surface $-1 -0.62170059837370262 -3.8999162995818772 -0.50000000000000044 -1.0163786727031502e-015 1 2.1526130533209115e-017 -0.093750000000000056 -9.8780908544721416e-017 0.1623797632095822 1 I I 0 1 0.1875 reversed I I I I #
loop $-1 $180 $181 $92 #
ellipse-curve $-1 1.3443248054107315 0.096005685321645273 -3.0596697529039742e-016 -9.7909432092927214e-016 1 0 0 0 0.1875 1 I I #
point $-1 1.3443248054107315 0.096005685321647091 0.18750000000000006 #
straight-curve $-1 0.80951886443720644 0.096005685321646564 0.18750000000000006 0.39370078740157477 3.8547020509026461e-016 0 I I #
point $-1 1.7325599178845639 0.096005685321647827 0.18750000000000006 #
ellipse-curve $-1 0.24432480541073148 0.09600568532164637 0 -9.7909432092927214e-016 1 0 -1.5000000000000002 0 0 1 I I #
loop $-1 $-1 $145 $121 #
vertex $-1 $146 $182 #
ellipse-curve $-1 0.24432480541073126 0.33050568532164643 0 -9.7909432092927214e-016 1 0 -1.4375 0 0 1 I I #
loop $-1 $183 $184 $147 #
cone-surface $-1 0.24432480541073123 0.36950568532164652 0 -9.7909432092927214e-016 1 0 -1.5 0 0 1 I I 0 1 1.5 forward I I I I #
coedge $-1 $168 $168 $185 $186 reversed $148 $-1 #
loop $-1 $187 $188 $90 #
coedge $-1 $170 $170 $189 $190 forward $150 $-1 #
coedge $-1 $171 $171 $151 $172 reversed $191 $-1 #
edge $-1 $192 $192 $151 $193 forward #
loop $-1 $-1 $152 $126 #
vertex $-1 $153 $194 #
ellipse-curve $-1 -0.62170059837370695 0.40850568532164538 -0.50000000000000033 9.7909432092927214e-016 -1 0 -0.093750000000000056 -9.8780908544721416e-017 0.1623797632095822 1 I I #
face $-1 $195 $196 $2 $-1 $197 reversed single #
loop $-1 $191 $198 $154 #
cone-surface $-1 0.24432480541073578 -3.8999162995818768 -0.99999999999999989 -1.0288067899611092e-015 1 3.2338309294411164e-032 -0.1875 -1.92901273117708e-016 -2.2961369134169574e-017 1 I I 0 1 0.1875 reversed I I I I #
coedge $-1 $179 $179 $199 $200 reversed $155 $-1 #
loop $-1 $201 $202 $92 #
coedge $-1 $181 $181 $203 $204 forward $157 $-1 #
point $-1 -1.1931751945892688 0.33050568532164504 0 #
loop $-1 $-1 $185 $147 #
coedge $-1 $184 $184 $205 $206 reversed $166 $-1 #
coedge $-1 $185 $185 $168 $186 forward $183 $-1 #
edge $-1 $207 $207 $185 $208 forward #
loop $-1 $209 $210 $90 #
coedge $-1 $188 $188 $211 $212 forward $169 $-1 #
coedge $-1 $189 $189 $170 $190 reversed $213 $-1 #
edge $-1 $214 $214 $170 $215 forward #
loop $-1 $-1 $171 $154 #
vertex $-1 $172 $216 #
ellipse-curve $-1 0.24432480541073134 0.40850568532164605 -0.99999999999999989 9.7909432092927214e-016 -1 0 -0.1875 -1.92901273117708e-016 -2.2961369134169574e-017 1 I I #
point $-1 -0.71545059837370717 0.40850568532164538 -0.33762023679041803 #
face $-1 $217 $218 $2 $-1 $219 reversed single #
loop $-1 $213 $220 $176 #
cone-surface $-1 1.1103502091951745 -3.899916299581875 -0.49999999999999961 -1.01637867270315e-015 1 -2.1526130533209016e-017 -0.093749999999999944 -9.8780908544721305e-017 -0.16237976320958228 1 I I 0 1 0.1875 reversed I I I I #
coedge $-1 $198 $198 $221 $222 reversed $177 $-1 #
coedge $-1 $199 $199 $179 $200 forward $223 $-1 #
edge $-1 $224 $224 $199 $225 forward #
loop $-1 $226 $227 $92 #
coedge $-1 $202 $202 $228 $229 forward $180 $-1 #
coedge $-1 $203 $203 $181 $204 reversed $230 $-1 #
edge $-1 $231 $231 $181 $232 forward #
coedge $-1 $205 $205 $184 $206 forward $233 $-1 #
edge $-1 $234 $234 $205 $235 forward #
vertex $-1 $186 $236 #
ellipse-curve $-1 0.24432480541073126 0.33050568532164648 0 -9.7909432092927214e-016 1 0 -1.5 0 0 1 I I #
loop $-1 $237 $238 $90 #
coedge $-1 $210 $210 $239 $240 forward $187 $-1 #
coedge $-1 $211 $211 $188 $212 reversed $241 $-1 #
edge $-1 $242 $242 $188 $243 forward #
loop $-1 $-1 $189 $176 #
vertex $-1 $190 $244 #
ellipse-curve $-1 1.11035020919517 0.40850568532164677 -0.49999999999999972 9.7909432092927214e-016 -1 0 -0.093749999999999944 -9.8780908544721305e-017 -0.16237976320958228 1 I I #
point $-1 0.056824805410731302 0.40850568532164599 -0.99999999999999989 #
face $-1 $245 $246 $2 $-1 $247 reversed single #
loop $-1 $241 $248 $195 #
cone-surface $-1 1.110350209195174 -3.8999162995818759 0.50000000000000011 -9.915224381872315e-016 1 -2.1526130533208819e-017 0.093750000000000014 8.9459820601251933e-017 -0.16237976320958222 1 I I 0 1 0.1875 reversed I I I I #
coedge $-1 $220 $220 $249 $250 reversed $196 $-1 #
coedge $-1 $221 $221 $198 $222 forward $251 $-1 #
edge $-1 $252 $252 $221 $253 forward #
loop $-1 $-1 $199 $92 #
vertex $-1 $200 $254 #
ellipse-curve $-1 -0.62170059837370661 0.096005685321644982 -0.50000000000000033 -9.7909432092927214e-016 1 0 -0.093750000000000056 -9.8780908544721416e-017 0.1623797632095822 1 I I #
loop $-1 $255 $256 $92 #
coedge $-1 $227 $227 $257 $258 forward $201 $-1 #
coedge $-1 $228 $228 $202 $229 reversed $259 $-1 #
edge $-1 $260 $260 $202 $261 forward #
loop $-1 $262 $203 $263 #
vertex $-1 $204 $264 #
ellipse-curve $-1 0.24432480541073157 0.096005685321645676 -1.3268332337415188e-032 -9.7909432092927214e-016 1 0 0.4375 4.3922836800727093e-016 0 1 I I #
loop $-1 $-1 $205 $90 #
vertex $-1 $206 $265 #
ellipse-curve $-1 0.24432480541073118 0.40850568532164649 0 -9.7909432092927214e-016 1 0 -1.5 0 0 1 I I #
point $-1 -1.2556751945892688 0.33050568532164504 0 #
loop $-1 $233 $266 $90 #
coedge $-1 $238 $238 $267 $268 forward $209 $-1 #
coedge $-1 $239 $239 $210 $240 reversed $269 $-1 #
edge $-1 $270 $270 $210 $271 forward #
loop $-1 $-1 $211 $195 #
vertex $-1 $212 $272 #
ellipse-curve $-1 1.1103502091951698 0.40850568532164677 0.5 9.7909432092927214e-016 -1 0 0.093750000000000014 8.9459820601251933e-017 -0.16237976320958222 1 I I #
point $-1 1.0166002091951702 0.40850568532164711 -0.66237976320958203 #
face $-1 $263 $259 $2 $-1 $273 reversed single #
loop $-1 $269 $257 $217 #
cone-surface $-1 -0.62170059837370339 -3.8999162995818772 0.49999999999999917 -9.915224381872315e-016 1 2.1526130533209115e-017 0.093749999999999875 8.9459820601251772e-017 0.16237976320958231 1 I I 0 1 0.1875 reversed I I I I #
coedge $-1 $248 $248 $256 $274 reversed $218 $-1 #
coedge $-1 $249 $249 $220 $250 forward $255 $-1 #
edge $-1 $275 $275 $249 $276 forward #
loop $-1 $223 $221 $92 #
vertex $-1 $222 $277 #
ellipse-curve $-1 0.24432480541073168 0.096005685321645676 -0.99999999999999989 -9.7909432092927214e-016 1 0 -0.1875 -1.92901273117708e-016 -2.2961369134169574e-017 1 I I #
point $-1 -0.52795059837370673 0.096005685321645232 -0.66237976320958247 #
loop $-1 $251 $249 $92 #
coedge $-1 $256 $256 $248 $274 forward $226 $-1 #
coedge $-1 $257 $257 $227 $258 reversed $246 $-1 #
edge $-1 $278 $278 $227 $279 forward #
loop $-1 $280 $228 $245 #
vertex $-1 $229 $281 #
ellipse-curve $-1 0.24432480541073157 0.096005685321645676 0.99999999999999989 -9.7909432092927214e-016 1 0 0.1875 1.835801851742385e-016 0 1 I I #
loop $-1 $-1 $282 $263 #
face $-1 $283 $230 $2 $-1 $284 reversed single #
point $-1 -0.19317519458926841 0.096005685321645232 -1.3268332337415188e-032 #
point $-1 -1.2556751945892688 0.408505685321645 0 #
coedge $-1 $266 $266 $285 $286 forward $237 $-1 #
coedge $-1 $267 $267 $238 $268 reversed $280 $-1 #
edge $-1 $287 $287 $238 $288 forward #
loop $-1 $-1 $239 $217 #
vertex $-1 $240 $289 #
ellipse-curve $-1 -0.62170059837370772 0.40850568532164538 0.49999999999999928 9.7909432092927214e-016 -1 0 0.093749999999999875 8.9459820601251772e-017 0.16237976320958231 1 I I #
point $-1 1.2041002091951698 0.40850568532164677 0.33762023679041775 #
cone-surface $-1 0.24432480541073551 -3.8999162995818768 0.99999999999999989 -9.7909432092927214e-016 1 0 0.1875 1.835801851742385e-016 0 1 I I 0 1 0.1875 reversed I I I I #
edge $-1 $290 $290 $256 $291 forward #
vertex $-1 $250 $292 #
ellipse-curve $-1 1.1103502091951705 0.09600568532164637 -0.49999999999999972 -9.7909432092927214e-016 1 0 -0.093749999999999944 -9.8780908544721305e-017 -0.16237976320958228 1 I I #
point $-1 0.43182480541073165 0.096005685321646078 -0.99999999999999989 #
vertex $-1 $258 $293 #
ellipse-curve $-1 -0.62170059837370728 0.096005685321644982 0.49999999999999928 -9.7909432092927214e-016 1 0 0.093749999999999875 8.9459820601251772e-017 0.16237976320958231 1 I I #
loop $-1 $-1 $267 $245 #
point $-1 0.056824805410731587 0.096005685321645495 0.99999999999999989 #
coedge $-1 $282 $282 $294 $295 reversed $262 $-1 #
face $-1 $296 $297 $2 $-1 $298 forward single #
cone-surface $-1 0.24432480541073517 -3.4624162995818759 -7.6220766327367844e-032 -1.0039505554451907e-015 1 1.7691109783220235e-032 0.4375 4.3922836800727093e-016 0 1 I I 0 1 0.4375 reversed I I I I #
coedge $-1 $285 $285 $266 $286 reversed $299 $-1 #
edge $-1 $300 $300 $266 $301 forward #
vertex $-1 $268 $302 #
ellipse-curve $-1 0.24432480541073126 0.40850568532164605 0.99999999999999989 9.7909432092927214e-016 -1 0 0.1875 1.835801851742385e-016 0 1 I I #
point $-1 -0.52795059837370772 0.40850568532164511 0.66237976320958158 #
vertex $-1 $274 $303 #
ellipse-curve $-1 1.11035020919517 0.09600568532164637 0.5 -9.7909432092927214e-016 1 0 0.093750000000000014 8.9459820601251933e-017 -0.16237976320958222 1 I I #
point $-1 1.2041002091951702 0.09600568532164698 -0.33762023679041747 #
point $-1 -0.71545059837370706 0.096005685321644593 0.33762023679041697 #
coedge $-1 $294 $294 $282 $295 forward $304 $-1 #
edge $-1 $305 $305 $294 $306 forward #
face $-1 $86 $304 $2 $-1 $307 forward single #
loop $-1 $299 $308 $283 #
cone-surface $-1 0.24432480541073118 0.40850568532164599 0 -7.9926067014634432e-016 1 0 -0.62499999999999989 -4.9953791884146518e-016 0 1 I I 0 1 0.62499999999999989 forward I I I I #
loop $-1 $-1 $285 $283 #
vertex $-1 $286 $309 #
ellipse-curve $-1 0.24432480541073118 0.40850568532164588 0 9.7909432092927214e-016 -1 0 -0.62499999999999989 -4.9953791884146518e-016 0 1 I I #
point $-1 0.43182480541073132 0.40850568532164616 0.99999999999999989 #
point $-1 1.0166002091951702 0.096005685321646328 0.66237976320958225 #
loop $-1 $310 $294 $296 #
vertex $-1 $295 $311 #
ellipse-curve $-1 0.24432480541073084 0.84600568532164611 0 1.0039505554451907e-015 -1 -1.7691109783220235e-032 0.4375 4.3922836800727093e-016 0 1 I I #
plane-surface $-1 0.30114298722891264 0.84600568532164611 -3.5762373735241262e-017 -1.0039505554451907e-015 1 1.7691109783220235e-032 0 -6.9650038516615085e-033 0.39370078740157477 forward_v I I I I #
coedge $-1 $308 $308 $312 $313 forward $297 $-1 #
point $-1 0.86932480541073109 0.40850568532164661 -7.6537897113898566e-017 #
loop $-1 $-1 $312 $296 #
point $-1 0.68182480541073076 0.84600568532164655 7.7632561330015116e-064 #
coedge $-1 $312 $312 $308 $313 reversed $310 $-1 #
edge $-1 $314 $314 $308 $315 forward #
vertex $-1 $313 $316 #
ellipse-curve $-1 0.24432480541073084 0.84600568532164611 0 9.7909432092927214e-016 -1 0 -0.62499999999999989 -6.1193395058079494e-016 0 1 I I #
point $-1 0.86932480541073065 0.84600568532164677 -7.6537897113898566e-017 #
End-of-ACIS-data 