400 0 1 0           
7 Unknown 11 ACIS 6.0 NT 24 Sun Jan 27 10:11:43 2002 
25.399999999999999 9.9999999999999995e-007 1e-010 
body $-1 $1 $-1 $-1 #
lump $-1 $-1 $2 $0 #
shell $-1 $-1 $-1 $3 $-1 $1 #
face $-1 $4 $5 $2 $-1 $6 forward single #
face $-1 $7 $8 $2 $-1 $9 forward single #
loop $-1 $10 $11 $3 #
cone-surface $-1 0.094091705013547536 0.35089587591366472 0 0 1 0 0.48999999999999999 0 0 1 I I -0.70710678118654746 0.70710678118654746 0.48999999999999999 forward I I I I #
face $-1 $12 $13 $2 $-1 $14 forward single #
loop $-1 $15 $16 $4 #
cone-surface $-1 0.094091705013547536 0.28338603339397966 0 0 1 0 -0.49999999999999994 0 0 1 I I 0 1 0.49999999999999994 forward I I I I #
loop $-1 $-1 $17 $3 #
coedge $-1 $11 $11 $18 $19 forward $5 $-1 #
face $-1 $20 $21 $2 $-1 $22 forward single #
loop $-1 $23 $24 $7 #
plane-surface $-1 -0.15590829498645245 0.36089587591366473 0 0 1 0 0 0 0.39370078740157477 forward_v I I I I #
loop $-1 $-1 $18 $4 #
coedge $-1 $16 $16 $25 $26 forward $8 $-1 #
coedge $-1 $17 $17 $27 $28 forward $10 $-1 #
coedge $-1 $18 $18 $11 $19 reversed $15 $-1 #
edge $-1 $29 $29 $18 $30 forward #
face $-1 $31 $32 $2 $-1 $33 forward single #
loop $-1 $34 $35 $12 #
cone-surface $-1 0.094091705013547536 -0.2541041240863352 0 0 1 0 0.48999999999999999 0 0 1 I I 0.70710678118654746 0.70710678118654746 0.48999999999999999 forward I I I I #
loop $-1 $-1 $27 $7 #
coedge $-1 $24 $24 $36 $37 forward $13 $-1 #
coedge $-1 $25 $25 $16 $26 reversed $38 $-1 #
edge $-1 $39 $39 $16 $40 forward #
coedge $-1 $27 $27 $17 $28 reversed $23 $-1 #
edge $-1 $41 $41 $27 $42 forward #
vertex $-1 $19 $43 #
ellipse-curve $-1 0.094091705013547536 0.34089587591366471 0 0 1 0 0.49999999999999994 0 0 1 I I #
face $-1 $44 $45 $2 $-1 $46 forward single #
loop $-1 $47 $48 $20 #
plane-surface $-1 -0.15590829498645245 -0.26410412408633521 0 0 -1 0 0 0 -0.39370078740157477 forward_v I I I I #
loop $-1 $-1 $49 $12 #
coedge $-1 $35 $35 $50 $51 forward $21 $-1 #
coedge $-1 $36 $36 $24 $37 reversed $52 $-1 #
edge $-1 $53 $53 $24 $54 forward #
loop $-1 $55 $25 $56 #
vertex $-1 $26 $57 #
ellipse-curve $-1 0.094091705013547536 0.20587619087429468 0 0 1 0 -0.49999999999999994 0 0 1 I I #
vertex $-1 $28 $58 #
ellipse-curve $-1 0.094091705013547536 0.36089587591366473 0 0 -1 0 0.47999999999999998 0 0 1 I I #
point $-1 -0.40590829498645242 0.34089587591366471 0 #
face $-1 $59 $60 $2 $-1 $61 forward single #
loop $-1 $62 $63 $31 #
cone-surface $-1 0.094091705013547536 -0.1865942815666502 0 0 1 0 -0.49999999999999994 0 0 1 I I 0 1 0.49999999999999994 forward I I I I #
loop $-1 $-1 $50 $20 #
coedge $-1 $48 $48 $64 $65 forward $32 $-1 #
coedge $-1 $49 $49 $66 $67 forward $34 $-1 #
coedge $-1 $50 $50 $35 $51 reversed $47 $-1 #
edge $-1 $68 $68 $50 $69 forward #
loop $-1 $-1 $36 $70 #
vertex $-1 $37 $71 #
ellipse-curve $-1 0.094091705013547536 0.36089587591366468 0 0 -1 0 0.31249999999999994 0 0 1 I I #
loop $-1 $-1 $72 $56 #
face $-1 $70 $38 $2 $-1 $73 forward single #
point $-1 -0.40590829498645242 0.20587619087429468 0 #
point $-1 -0.38590829498645246 0.36089587591366473 0 #
face $-1 $74 $75 $2 $-1 $76 forward single #
loop $-1 $77 $78 $44 #
cone-surface $-1 0.094091705013547536 -0.099084439046965164 0 0 1 0 0.73999999999999988 0 0 1 I I 0.70710678118654946 0.70710678118654557 0.73999999999999988 forward I I I I #
loop $-1 $-1 $66 $31 #
coedge $-1 $63 $63 $79 $80 reversed $45 $-1 #
coedge $-1 $64 $64 $48 $65 reversed $81 $-1 #
edge $-1 $82 $82 $48 $83 forward #
coedge $-1 $66 $66 $49 $67 reversed $62 $-1 #
edge $-1 $84 $84 $66 $85 forward #
vertex $-1 $51 $86 #
ellipse-curve $-1 0.094091705013547536 -0.26410412408633521 0 0 1 0 0.47999999999999998 0 0 1 I I #
face $-1 $-1 $81 $2 $-1 $87 reversed single #
point $-1 0.40659170501354747 0.36089587591366473 0 #
coedge $-1 $72 $72 $88 $89 reversed $55 $-1 #
plane-surface $-1 -0.53090829498645242 0.20587619087429468 0 0 1 0 0 0 0.39370078740157477 forward_v I I I I #
face $-1 $90 $91 $2 $-1 $92 forward single #
loop $-1 $93 $94 $59 #
cone-surface $-1 0.094091705013547536 0.048395875913664767 0 0 1 0 -0.75 0 0 1 I I 0 1 0.75 forward I I I I #
loop $-1 $-1 $95 $44 #
coedge $-1 $78 $78 $96 $97 forward $60 $-1 #
coedge $-1 $79 $79 $63 $80 forward $91 $-1 #
edge $-1 $98 $98 $79 $99 forward #
loop $-1 $52 $64 $70 #
vertex $-1 $65 $100 #
ellipse-curve $-1 0.094091705013547536 -0.26410412408633505 0 0 1 0 0.31249999999999994 0 0 1 I I #
vertex $-1 $67 $101 #
ellipse-curve $-1 0.094091705013547536 -0.24410412408633522 0 0 -1 0 0.49999999999999994 0 0 1 I I #
point $-1 -0.38590829498645246 -0.26410412408633521 0 #
cone-surface $-1 0.094091705013547536 -1.8505798757056018 0 0 1 0 0.31249999999999994 0 0 1 I I 0 1 0.31249999999999994 reversed I I I I #
coedge $-1 $88 $88 $72 $89 forward $102 $-1 #
edge $-1 $103 $103 $72 $104 forward #
face $-1 $56 $105 $2 $-1 $106 forward single #
loop $-1 $107 $79 $74 #
plane-surface $-1 -0.53090829498645242 -0.10908443904696516 0 0 -1 0 0 0 -0.39370078740157477 forward_v I I I I #
loop $-1 $-1 $108 $59 #
coedge $-1 $94 $94 $109 $110 reversed $75 $-1 #
coedge $-1 $95 $95 $108 $111 forward $77 $-1 #
coedge $-1 $96 $96 $78 $97 reversed $107 $-1 #
edge $-1 $112 $112 $96 $113 forward #
vertex $-1 $80 $114 #
ellipse-curve $-1 0.094091705013547536 -0.1090844390469652 0 0 1 0 -0.49999999999999994 0 0 1 I I #
point $-1 -0.21840829498645242 -0.26410412408633505 0 #
point $-1 -0.40590829498645242 -0.24410412408633522 0 #
loop $-1 $-1 $88 $90 #
vertex $-1 $89 $115 #
ellipse-curve $-1 0.094091705013547536 0.20587619087429468 0 0 -1 0 0.72999999999999987 0 0 1 I I #
loop $-1 $102 $109 $90 #
cone-surface $-1 0.094091705013547536 0.1958761908742947 0 0 1 0 0.73999999999999988 0 0 1 I I -0.70710678118654868 0.70710678118654635 0.73999999999999988 forward I I I I #
loop $-1 $-1 $96 $74 #
coedge $-1 $108 $108 $95 $111 reversed $93 $-1 #
coedge $-1 $109 $109 $94 $110 forward $105 $-1 #
edge $-1 $116 $116 $94 $117 forward #
edge $-1 $118 $118 $108 $119 forward #
vertex $-1 $97 $120 #
ellipse-curve $-1 0.094091705013547536 -0.10908443904696516 0 0 1 0 0.72999999999999987 0 0 1 I I #
point $-1 -0.40590829498645242 -0.10908443904696516 0 #
point $-1 -0.63590829498645229 0.20587619087429468 0 #
vertex $-1 $110 $121 #
ellipse-curve $-1 0.094091705013547536 0.18587619087429469 0 0 1 0 0.75 0 0 1 I I #
vertex $-1 $111 $122 #
ellipse-curve $-1 0.094091705013547536 -0.089084439046965197 0 0 -1 0 0.75 0 0 1 I I #
point $-1 -0.63590829498645229 -0.10908443904696516 0 #
point $-1 -0.65590829498645242 0.18587619087429469 0 #
point $-1 -0.65590829498645242 -0.089084439046965197 0 #
End-of-ACIS-data 