700 0 1 0           
29 Autodesk Inventor 6.2.0.12000 17 ASM 6.0.1.6021 NT 24 Thu Jan 03 17:52:43 2008 
25.399999999999999 9.9999999999999995e-007 1e-010 
body $-1 -1 $-1 $1 $-1 $-1 #
lump $-1 -1 $-1 $-1 $2 $0 #
shell $-1 -1 $-1 $-1 $-1 $3 $-1 $1 #
face $-1 -1 $-1 $4 $5 $2 $-1 $6 reversed single #
face $-1 -1 $-1 $7 $8 $2 $-1 $9 reversed single #
loop $-1 -1 $-1 $10 $11 $3 #
cone-surface $-1 -1 $-1 0.21875 0 0.010000000000000012 1 0 0 0 0.077999999999999986 0 1 I I 0 1 0.077999999999999986 reversed I I I I #
face $-1 -1 $-1 $12 $13 $2 $-1 $14 reversed single #
loop $-1 -1 $-1 $15 $16 $4 #
cone-surface $-1 -1 $-1 0.22097086912079614 -0.22097086912079605 -1.1580100540985749 0 0 1 -0.048999999999999995 6.0005711337296487e-018 0 1 I I 0 1 0.048999999999999995 reversed I I I I #
loop $-1 -1 $-1 $-1 $17 $3 #
coedge $-1 -1 $-1 $18 $18 $19 $20 reversed $5 $-1 #
face $-1 -1 $-1 $21 $22 $2 $-1 $23 reversed single #
loop $-1 -1 $-1 $24 $25 $7 #
cone-surface $-1 -1 $-1 -0.22097086912079605 -0.22097086912079614 -1.1580100540985749 0 0 1 1.0880185641326533e-017 0.048999999999999995 0 1 I I 0 1 0.048999999999999995 reversed I I I I #
loop $-1 -1 $-1 $-1 $26 $4 #
coedge $-1 -1 $-1 $16 $16 $27 $28 reversed $8 $-1 #
coedge $-1 -1 $-1 $17 $17 $29 $30 reversed $10 $-1 #
coedge $-1 -1 $-1 $11 $11 $31 $32 reversed $5 $-1 #
coedge $-1 -1 $-1 $31 $31 $11 $20 forward $33 $-1 #
edge $-1 -1 $-1 $34 0.29920530467497208 $35 0.89761591402491625 $19 $36 forward @7 unknown #
face $-1 -1 $-1 $37 $38 $2 $-1 $39 reversed single #
loop $-1 -1 $-1 $40 $41 $12 #
cone-surface $-1 -1 $-1 0.22097086912079605 0.22097086912079614 -1.1580100540985749 0 0 1 -1.0880185641326533e-017 -0.048999999999999995 0 1 I I 0 1 0.048999999999999995 reversed I I I I #
loop $-1 -1 $-1 $-1 $42 $7 #
coedge $-1 -1 $-1 $25 $25 $43 $44 reversed $13 $-1 #
coedge $-1 -1 $-1 $26 $26 $45 $46 reversed $15 $-1 #
coedge $-1 -1 $-1 $27 $27 $16 $28 forward $47 $-1 #
edge $-1 -1 $-1 $48 -3.1415926535897931 $48 3.1415926535897931 $27 $49 forward @7 unknown #
coedge $-1 -1 $-1 $29 $29 $17 $30 forward $50 $-1 #
edge $-1 -1 $-1 $51 0 $51 1.2358086830430848 $29 $52 forward @7 unknown #
coedge $-1 -1 $-1 $19 $19 $18 $32 forward $33 $-1 #
edge $-1 -1 $-1 $35 0.89761591402491625 $34 1.4960265233748604 $31 $53 forward @7 unknown #
loop $-1 -1 $-1 $54 $19 $55 #
vertex $-1 -1 $-1 $20 $56 #
vertex $-1 -1 $-1 $20 $57 #
intcurve-curve $-1 -1 $-1 forward { surfintcur full nubs 3 open 9 
	0.29920530467497208 3 0.37400531781733959 2 0.44880533095970704 2 0.52360797015482563 2 0.59841060934994417 2 
	0.6732132485450627 2 0.74801588774018124 2 0.82281590088254875 2 0.89761591402491625 3 
	0.4375 0 -0.067999999999999977 
	0.4375 -0.0098162746905994108 -0.067999999999999977 
	0.43713610342260134 -0.020272642882835777 -0.066033925924574549 
	0.43582101148656655 -0.03948416032367761 -0.05806716522513887 
	0.43488805290897631 -0.048241030099800679 -0.052067627765300717 
	0.43313092525569635 -0.062067870474982939 -0.038240787390118464 
	0.43219140768029218 -0.068067217622659007 -0.029484021434821338 
	0.43086124721696528 -0.076033840231875219 -0.010272862061595476 
	0.43049070837824133 -0.077999999999999986 0.00018338068305532614 
	0.43049070837824133 -0.077999999999999986 0.0198166193169447 
	0.43086124721696528 -0.076033840231875219 0.030272862061595518 
	0.43219140768029218 -0.068067217622658993 0.049484021434821369 
	0.43313092525569635 -0.062067870474982939 0.058240787390118488 
	0.43488805290897631 -0.048241030099800686 0.072067627765300735 
	0.43582101148656655 -0.03948416032367761 0.078067165225138901 
	0.43713610342260134 -0.020272642882835784 0.086033925924574581 
	0.4375 -0.0098162746905994039 0.088000000000000009 
	0.4375 0 0.088000000000000009 
	6.0633387225326071e-005 
	cone 0.21875 0 0.010000000000000012 1 0 0 0 0.077999999999999986 0 1 I I 0 1 0.077999999999999986 reversed I I I I 
	cone 0 0 0 0 0 1 -0.4375 0 0 1 I I 0 1 0.4375 forward I I I I 
	nullbs 
	nullbs 
	I I 
	0 
	0 
	0 
	} I I #
face $-1 -1 $-1 $58 $50 $2 $-1 $59 reversed single #
loop $-1 -1 $-1 $60 $61 $21 #
cone-surface $-1 -1 $-1 -0.22097086912079617 0.220970869120796 -1.1580100540985749 0 0 1 0.048999999999999995 0 0 1 I I 0 1 0.048999999999999995 reversed I I I I #
loop $-1 -1 $-1 $-1 $62 $12 #
coedge $-1 -1 $-1 $41 $41 $63 $64 reversed $22 $-1 #
coedge $-1 -1 $-1 $42 $42 $65 $66 reversed $24 $-1 #
coedge $-1 -1 $-1 $43 $43 $25 $44 forward $67 $-1 #
edge $-1 -1 $-1 $68 -3.1415926535897931 $68 3.1415926535897931 $43 $69 forward @7 unknown #
coedge $-1 -1 $-1 $45 $45 $26 $46 forward $70 $-1 #
edge $-1 -1 $-1 $71 7.6957136254895045e-016 $71 6.2831853071795871 $45 $72 forward @7 unknown #
loop $-1 -1 $-1 $67 $27 $73 #
vertex $-1 -1 $-1 $28 $74 #
ellipse-curve $-1 -1 $-1 0.22097086912079614 -0.22097086912079605 -0.13500000000000006 0 0 1 -0.048999999999999995 6.0005711337296487e-018 0 1 I I #
loop $-1 -1 $-1 $75 $29 $37 #
vertex $-1 -1 $-1 $30 $76 #
intcurve-curve $-1 -1 $-1 forward { surfintcur full nubs 3 periodic 17 
	0 3 0.077541979744329304 2 0.15508395948865861 2 0.23201806512471507 2 0.30895217076077153 2 
	0.38588627639682799 2 0.46282038203288445 2 0.54036236177721375 2 0.61790434152154305 2 0.69544632126587214 2 
	0.77298830101020133 2 0.84992240664625762 2 0.92685651228231403 2 1.0037906179183702 2 1.0807247235544266 2 
	1.1582667032987557 2 1.2358086830430848 3 
	0.097678042568429879 0.077999999999999986 0.0099999999999999464 
	0.097678042568429865 0.078 0.020176112827339748 
	0.099434463207459994 0.075906839167197426 0.030716671297847331 
	0.10507673921038499 0.067881783768352258 0.049788137720374499 
	0.10883221114367424 0.061950868731697924 0.058357789133403545 
	0.11548953587305584 0.048411069183556643 0.071897588681544833 
	0.11889544788983485 0.039827743579181528 0.07786498633084947 
	0.1236720420653004 0.020678560364006379 0.08592300754602103 
	0.12499999999999999 0.010096339322317108 0.08800000000000005 
	0.12499999999999999 -0.010096339322317134 0.08800000000000005 
	0.1236720420653004 -0.020678560364006397 0.085923007546021016 
	0.11889544788983485 -0.039827743579181528 0.07786498633084947 
	0.11548953587305584 -0.048411069183556636 0.071897588681544833 
	0.10883221114367424 -0.06195086873169791 0.058357789133403545 
	0.105076739210385 -0.067881783768352244 0.049788137720374492 
	0.099434463207460022 -0.075906839167197399 0.030716671297847328 
	0.097678042568429865 -0.078 0.020176112827339752 
	0.097678042568429893 -0.077999999999999972 -0.00017611282733982496 
	0.099434463207460022 -0.075906839167197371 -0.010716671297847379 
	0.105076739210385 -0.067881783768352216 -0.029788137720374527 
	0.10883221114367428 -0.061950868731697827 -0.0383577891334035 
	0.11548953587305588 -0.04841106918355656 -0.051897588681544739 
	0.11889544788983485 -0.0398277435791815 -0.057864986330849473 
	0.12367204206530036 -0.020678560364006379 -0.065923007546020998 
	0.12499999999999999 -0.010096339322317105 -0.067999999999999991 
	0.12499999999999999 0.010096339322317096 -0.067999999999999991 
	0.12367204206530037 0.020678560364006362 -0.065923007546020998 
	0.11889544788983486 0.039827743579181493 -0.057864986330849473 
	0.11548953587305585 0.048411069183556581 -0.05189758868154476 
	0.10883221114367425 0.061950868731697847 -0.0383577891334035 
	0.105076739210385 0.067881783768352216 -0.029788137720374513 
	0.099434463207460022 0.075906839167197371 -0.01071667129784739 
	0.097678042568429893 0.077999999999999972 -0.0001761128273398304 
	0.097678042568429879 0.077999999999999986 0.0099999999999999464 
	7.3670342701628066e-005 
	cone 0.21875 0 0.010000000000000012 1 0 0 0 0.077999999999999986 0 1 I I 0 1 0.077999999999999986 reversed I I I I 
	cone 0 0 -1.0530100540985752 0 0 1 0.12499999999999999 0 0 1 I I 0 -1 0.12499999999999999 reversed I I I I 
	nullbs 
	nullbs 
	I I 
	0 
	0 
	0 
	} I I #
intcurve-curve $-1 -1 $-1 forward { surfintcur full nubs 3 open 9 
	0.89761591402491625 3 0.97241592716728376 2 1.0472159403096513 2 1.1220185795047697 2 1.1968212186998883 3 
	1.271623857895007 2 1.3464264970901254 2 1.421226510232493 2 1.4960265233748604 3 
	0.4375 0 0.088000000000000009 
	0.4375 0.0098162746905994039 0.088000000000000009 
	0.43713610342260134 0.020272642882835763 0.086033925924574595 
	0.43582101148656655 0.039484160323677596 0.078067165225138915 
	0.43488805290897631 0.048241030099800665 0.072067627765300735 
	0.43313092525569635 0.062067870474982911 0.058240787390118495 
	0.43219140768029218 0.068067217622658979 0.049484021434821397 
	0.43086124721696528 0.076033840231875219 0.030272862061595549 
	0.43049070837824133 0.077999999999999986 0.019816619316944711 
	0.43049070837824133 0.077999999999999986 0.010000000000000012 
	0.43049070837824133 0.077999999999999986 0.00018338068305532204 
	0.43086124721696528 0.076033840231875219 -0.01027286206159549 
	0.43219140768029218 0.068067217622658993 -0.029484021434821355 
	0.43313092525569635 0.062067870474982925 -0.038240787390118464 
	0.43488805290897631 0.048241030099800679 -0.052067627765300717 
	0.43582101148656655 0.03948416032367761 -0.058067165225138877 
	0.43713610342260134 0.020272642882835788 -0.066033925924574563 
	0.4375 0.0098162746905994108 -0.067999999999999977 
	0.4375 0 -0.067999999999999977 
	6.0633387225326071e-005 
	cone 0.21875 0 0.010000000000000012 1 0 0 0 0.077999999999999986 0 1 I I 0 1 0.077999999999999986 reversed I I I I 
	cone 0 0 0 0 0 1 -0.4375 0 0 1 I I 0 1 0.4375 forward I I I I 
	nullbs 
	nullbs 
	I I 
	0 
	0 
	0 
	} I I #
loop $-1 -1 $-1 $77 $78 $55 #
face $-1 -1 $-1 $79 $33 $2 $-1 $80 forward single #
point $-1 -1 $-1 0.4375 0 -0.067999999999999977 #
point $-1 -1 $-1 0.4375 0 0.088000000000000009 #
face $-1 -1 $-1 $81 $82 $2 $-1 $83 forward single #
cone-surface $-1 -1 $-1 0 0 -1.0530100540985752 0 0 1 0.12499999999999999 0 0 1 I I 0 1 0.12499999999999999 reversed I I I I #
loop $-1 -1 $-1 $-1 $84 $21 #
coedge $-1 -1 $-1 $61 $61 $85 $86 reversed $38 $-1 #
coedge $-1 -1 $-1 $62 $62 $87 $88 reversed $40 $-1 #
coedge $-1 -1 $-1 $63 $63 $41 $64 forward $89 $-1 #
edge $-1 -1 $-1 $90 -3.1415926535897931 $90 3.1415926535897931 $63 $91 forward @7 unknown #
coedge $-1 -1 $-1 $65 $65 $42 $66 forward $92 $-1 #
edge $-1 -1 $-1 $93 -2.2204460492503131e-016 $93 6.2831853071795862 $65 $94 forward @7 unknown #
loop $-1 -1 $-1 $89 $43 $73 #
vertex $-1 -1 $-1 $44 $95 #
ellipse-curve $-1 -1 $-1 -0.22097086912079605 -0.22097086912079614 -0.13500000000000006 0 0 1 1.0880185641326533e-017 0.048999999999999995 0 1 I I #
loop $-1 -1 $-1 $92 $45 $79 #
vertex $-1 -1 $-1 $46 $96 #
ellipse-curve $-1 -1 $-1 0.22097086912079614 -0.22097086912079605 0.13500000000000006 0 0 -1 -0.048999999999999995 6.0005711337296487e-018 0 1 I I #
face $-1 -1 $-1 $55 $47 $2 $-1 $97 forward single #
point $-1 -1 $-1 0.26997086912079615 -0.22097086912079605 -0.13500000000000006 #
loop $-1 -1 $-1 $98 $99 $37 #
point $-1 -1 $-1 0.097678042568429879 0.077999999999999986 0.0099999999999999464 #
loop $-1 -1 $-1 $-1 $100 $55 #
coedge $-1 -1 $-1 $78 $78 $101 $102 forward $54 $-1 #
face $-1 -1 $-1 $-1 $70 $2 $-1 $103 reversed single #
cone-surface $-1 -1 $-1 0 0 0 0 0 1 -0.4375 0 0 1 I I 0 1 0.4375 forward I I I I #
face $-1 -1 $-1 $73 $104 $2 $-1 $105 reversed single #
loop $-1 -1 $-1 $106 $107 $58 #
cone-surface $-1 -1 $-1 0 0 0.13500000000000001 0 0 1 -0.1875 0 0 1 I I 0 1 0.1875 forward I I I I #
coedge $-1 -1 $-1 $84 $84 $108 $109 reversed $60 $-1 #
coedge $-1 -1 $-1 $85 $85 $61 $86 forward $110 $-1 #
edge $-1 -1 $-1 $111 -3.1415926535897931 $111 3.1415926535897931 $85 $112 forward @7 unknown #
coedge $-1 -1 $-1 $87 $87 $62 $88 forward $113 $-1 #
edge $-1 -1 $-1 $114 -2.2204460492503131e-016 $114 6.2831853071795862 $87 $115 forward @7 unknown #
loop $-1 -1 $-1 $110 $63 $73 #
vertex $-1 -1 $-1 $64 $116 #
ellipse-curve $-1 -1 $-1 0.22097086912079605 0.22097086912079614 -0.13500000000000006 0 0 1 -1.0880185641326533e-017 -0.048999999999999995 0 1 I I #
loop $-1 -1 $-1 $113 $65 $79 #
vertex $-1 -1 $-1 $66 $117 #
ellipse-curve $-1 -1 $-1 -0.22097086912079605 -0.22097086912079614 0.13500000000000006 0 0 -1 1.0880185641326533e-017 0.048999999999999995 0 1 I I #
point $-1 -1 $-1 -0.22097086912079605 -0.26997086912079615 -0.13500000000000006 #
point $-1 -1 $-1 0.17197086912079615 -0.220970869120796 0.13500000000000001 #
plane-surface $-1 -1 $-1 0 0 -0.13500000000000001 0 0 -1 -0.39370078740157477 0 0 forward_v I I I I #
loop $-1 -1 $-1 $-1 $118 $37 #
coedge $-1 -1 $-1 $99 $99 $119 $120 reversed $75 $-1 #
coedge $-1 -1 $-1 $100 $100 $121 $122 forward $77 $-1 #
coedge $-1 -1 $-1 $101 $101 $78 $102 reversed $123 $-1 #
edge $-1 -1 $-1 $124 -3.1415926535897931 $124 3.1415926535897931 $78 $125 forward @7 unknown #
plane-surface $-1 -1 $-1 0 0 0.13500000000000001 0 0 -1 -0.39370078740157477 0 0 forward_v I I I I #
loop $-1 -1 $-1 $126 $127 $81 #
plane-surface $-1 -1 $-1 0 0 0.23999999999999999 0 0 -1 -0.39370078740157477 0 0 forward_v I I I I #
loop $-1 -1 $-1 $-1 $128 $58 #
coedge $-1 -1 $-1 $107 $107 $129 $130 forward $82 $-1 #
coedge $-1 -1 $-1 $108 $108 $84 $109 forward $131 $-1 #
edge $-1 -1 $-1 $132 0 $132 6.2831853071795862 $108 $133 forward @7 unknown #
loop $-1 -1 $-1 $134 $85 $73 #
vertex $-1 -1 $-1 $86 $135 #
ellipse-curve $-1 -1 $-1 -0.22097086912079617 0.220970869120796 -0.13500000000000006 0 0 1 0.048999999999999995 0 0 1 I I #
loop $-1 -1 $-1 $131 $87 $79 #
vertex $-1 -1 $-1 $88 $136 #
ellipse-curve $-1 -1 $-1 0.22097086912079605 0.22097086912079614 0.13500000000000006 0 0 -1 -1.0880185641326533e-017 -0.048999999999999995 0 1 I I #
point $-1 -1 $-1 0.22097086912079605 0.26997086912079615 -0.13500000000000006 #
point $-1 -1 $-1 -0.22097086912079605 -0.17197086912079612 0.13500000000000001 #
coedge $-1 -1 $-1 $118 $118 $127 $137 reversed $98 $-1 #
coedge $-1 -1 $-1 $119 $119 $99 $120 forward $134 $-1 #
edge $-1 -1 $-1 $138 -3.1415926535897931 $138 3.1415926535897931 $119 $139 forward @7 unknown #
coedge $-1 -1 $-1 $121 $121 $100 $122 reversed $140 $-1 #
edge $-1 -1 $-1 $141 -3.1415926535897931 $141 3.1415926535897931 $100 $142 forward @7 unknown #
loop $-1 -1 $-1 $-1 $101 $73 #
vertex $-1 -1 $-1 $102 $143 #
ellipse-curve $-1 -1 $-1 0 0 -0.13500000000000001 0 0 1 -0.4375 0 0 1 I I #
loop $-1 -1 $-1 $-1 $129 $81 #
coedge $-1 -1 $-1 $127 $127 $118 $137 forward $104 $-1 #
coedge $-1 -1 $-1 $128 $128 $144 $145 reversed $106 $-1 #
coedge $-1 -1 $-1 $129 $129 $107 $130 reversed $126 $-1 #
edge $-1 -1 $-1 $146 -3.1415926535897931 $146 3.1415926535897931 $107 $147 forward @7 unknown #
loop $-1 -1 $-1 $148 $108 $79 #
vertex $-1 -1 $-1 $109 $149 #
ellipse-curve $-1 -1 $-1 -0.22097086912079617 0.220970869120796 0.13500000000000006 0 0 -1 0.048999999999999995 0 0 1 I I #
loop $-1 -1 $-1 $123 $119 $73 #
point $-1 -1 $-1 -0.26997086912079615 0.220970869120796 -0.13500000000000006 #
point $-1 -1 $-1 0.22097086912079605 0.17197086912079612 0.13500000000000001 #
edge $-1 -1 $-1 $150 0 $150 6.2831853071795862 $127 $151 forward @7 unknown #
vertex $-1 -1 $-1 $120 $152 #
ellipse-curve $-1 -1 $-1 0 0 -0.13500000000000006 0 0 1 0.12499999999999999 0 0 1 I I #
loop $-1 -1 $-1 $-1 $121 $79 #
vertex $-1 -1 $-1 $122 $153 #
ellipse-curve $-1 -1 $-1 0 0 0.13500000000000001 0 0 -1 -0.4375 0 0 1 I I #
point $-1 -1 $-1 0.4375 5.3576527979729005e-017 -0.13500000000000001 #
coedge $-1 -1 $-1 $144 $144 $128 $145 forward $148 $-1 #
edge $-1 -1 $-1 $154 -3.1415926535897931 $154 3.1415926535897931 $144 $155 forward @7 unknown #
vertex $-1 -1 $-1 $130 $156 #
ellipse-curve $-1 -1 $-1 0 0 0.23999999999999999 0 0 -1 -0.1875 0 0 1 I I #
loop $-1 -1 $-1 $140 $144 $79 #
point $-1 -1 $-1 -0.17197086912079618 0.220970869120796 0.13500000000000001 #
vertex $-1 -1 $-1 $137 $157 #
ellipse-curve $-1 -1 $-1 0 0 0.23999999999999994 0 0 -1 0.12499999999999999 0 0 1 I I #
point $-1 -1 $-1 -0.12499999999999999 -1.5307579422779713e-017 -0.13500000000000006 #
point $-1 -1 $-1 0.4375 5.3576527979729005e-017 0.13500000000000001 #
vertex $-1 -1 $-1 $145 $158 #
ellipse-curve $-1 -1 $-1 0 0 0.13500000000000001 0 0 -1 -0.1875 0 0 1 I I #
point $-1 -1 $-1 0.1875 2.2961369134169574e-017 0.23999999999999999 #
point $-1 -1 $-1 0.12499999999999999 0 0.23999999999999999 #
point $-1 -1 $-1 0.1875 2.2961369134169574e-017 0.13500000000000001 #
End-of-ACIS-data 