400 0 1 0           
7 Unknown 11 ACIS 6.0 NT 24 Thu Jan 24 18:06:40 2002 
25.399999999999999 9.9999999999999995e-007 1e-010 
body $-1 $1 $-1 $-1 #
lump $-1 $-1 $2 $0 #
shell $-1 $-1 $-1 $3 $-1 $1 #
face $-1 $4 $5 $2 $-1 $6 forward single #
face $-1 $7 $8 $2 $-1 $9 forward single #
loop $-1 $-1 $10 $3 #
cone-surface $-1 0.25617782668064548 0.74641672185369812 0 0 0 1 0.044194173824159223 0.044194173824159223 0 1 I I 0 1 0.0625 forward I I I I #
face $-1 $11 $12 $2 $-1 $13 forward single #
loop $-1 $-1 $14 $4 #
plane-surface $-1 0.31867782668064543 0.80891672185369801 0 1 2.9139711932418813e-017 0 0 0 -0.39370078740157477 forward_v I I I I #
coedge $-1 $15 $16 $17 $18 forward $5 $-1 #
face $-1 $19 $20 $2 $-1 $21 forward single #
loop $-1 $-1 $17 $7 #
plane-surface $-1 -0.15660845483101832 0.058916721853698201 0.12 0 0 1 0.39370078740157477 0 0 forward_v I I I I #
coedge $-1 $22 $23 $15 $24 reversed $8 $-1 #
coedge $-1 $25 $10 $14 $24 forward $5 $-1 #
coedge $-1 $10 $25 $26 $27 forward $5 $-1 #
coedge $-1 $28 $29 $10 $18 reversed $12 $-1 #
edge $-1 $30 $31 $17 $32 forward #
face $-1 $33 $34 $2 $-1 $35 forward single #
loop $-1 $-1 $36 $11 #
cone-surface $-1 0.25617782668064554 -0.62858327814630166 0 0 0 1 0.044194173824159223 -0.044194173824159223 0 1 I I 0 1 0.0625 forward I I I I #
coedge $-1 $37 $14 $29 $38 forward $8 $-1 #
coedge $-1 $14 $37 $39 $40 forward $8 $-1 #
edge $-1 $31 $41 $14 $42 forward #
coedge $-1 $16 $15 $43 $44 forward $5 $-1 #
coedge $-1 $45 $46 $16 $27 reversed $47 $-1 #
edge $-1 $48 $30 $26 $49 forward #
coedge $-1 $50 $17 $46 $51 reversed $12 $-1 #
coedge $-1 $17 $52 $22 $38 reversed $12 $-1 #
vertex $-1 $18 $53 #
vertex $-1 $38 $54 #
ellipse-curve $-1 0.25617782668064548 0.74641672185369812 0.12 0 0 -1 0.044194173824159223 0.044194173824159223 0 1 I I #
face $-1 $55 $56 $2 $-1 $57 forward single #
loop $-1 $-1 $58 $19 #
plane-surface $-1 0.31867782668064548 -0.69108327814630166 0 0 -1 0 0 0 -0.39370078740157477 forward_v I I I I #
coedge $-1 $59 $60 $52 $61 forward $20 $-1 #
coedge $-1 $23 $22 $60 $62 reversed $8 $-1 #
edge $-1 $31 $63 $22 $64 forward #
coedge $-1 $65 $43 $23 $40 reversed $66 $-1 #
edge $67 $68 $41 $23 $69 forward #
vertex $-1 $24 $70 #
straight-curve $-1 0.31867782668064543 0.74641672185369812 0 0 0 -0.39370078740157477 F -0.79692600000000013 F 0.49212600000000001 #
coedge $-1 $39 $71 $25 $44 reversed $66 $-1 #
edge $-1 $41 $48 $43 $72 forward #
coedge $-1 $73 $26 $71 $74 forward $47 $-1 #
coedge $-1 $26 $73 $28 $51 forward $47 $-1 #
loop $-1 $-1 $26 $75 #
vertex $-1 $74 $76 #
straight-curve $-1 0.25617782668064548 0.80891672185369801 0 0 0 0.39370078740157477 F -0.49212600000000001 F 0.79692600000000013 #
coedge $-1 $77 $28 $78 $79 reversed $12 $-1 #
edge $80 $81 $30 $46 $82 forward #
coedge $-1 $29 $83 $36 $61 reversed $12 $-1 #
point $-1 0.25617782668064548 0.80891672185369801 0.12 #
point $-1 0.31867782668064543 0.74641672185369812 0.12 #
face $-1 $84 $85 $2 $-1 $86 forward single #
loop $-1 $-1 $87 $33 #
cone-surface $-1 -0.55882217331935458 0.42406906586194137 1.3699999999999999 -1 0 0 0 -0.1872255496937654 0.33067596456632187 1 I I 0 1 0.37999999999999995 forward I I I I #
coedge $-1 $88 $89 $59 $90 reversed $34 $-1 #
coedge $-1 $91 $36 $58 $90 forward $20 $-1 #
coedge $-1 $36 $91 $37 $62 forward $20 $-1 #
edge $-1 $63 $92 $52 $93 forward #
edge $-1 $68 $63 $37 $94 forward #
vertex $-1 $61 $95 #
straight-curve $-1 0.31867782668064548 -0.69108327814630166 0.12 1.1472327532448351e-017 -0.39370078740157477 0 F -3.8099999999999996 F 0 #
coedge $-1 $96 $39 $91 $97 reversed $66 $-1 #
loop $-1 $-1 $43 $98 #
convexity-sys-attrib $-1 $-1 $-1 $40 #
vertex $-1 $40 $99 #
straight-curve $-1 0.31867782668064548 -0.69108327814630166 0 -1.1472327532448351e-017 0.39370078740157477 0 F 0 F 3.8099999999999996 #
point $-1 0.31867782668064543 0.74641672185369812 0 #
coedge $-1 $43 $100 $45 $74 reversed $66 $-1 #
ellipse-curve $-1 0.25617782668064548 0.74641672185369812 0 0 0 1 0.044194173824159223 0.044194173824159223 0 1 I I #
coedge $-1 $46 $45 $101 $102 forward $47 $-1 #
edge $-1 $48 $103 $45 $104 forward #
face $-1 $105 $47 $2 $-1 $106 forward single #
point $-1 0.25617782668064548 0.80891672185369801 0 #
coedge $-1 $107 $50 $108 $109 reversed $12 $-1 #
coedge $-1 $101 $110 $50 $79 forward $111 $-1 #
edge $-1 $112 $81 $78 $113 forward #
convexity-sys-attrib $-1 $-1 $-1 $51 #
vertex $-1 $102 $114 #
straight-curve $-1 0.31867782668064543 0.80891672185369801 0.12 0.39370078740157477 0 0 F -0.63500000000000001 F 0 #
coedge $-1 $52 $115 $88 $116 reversed $12 $-1 #
face $-1 $117 $118 $2 $-1 $119 forward single #
loop $-1 $120 $121 $55 #
plane-surface $-1 -0.56132217331935452 0.05891672185369818 0.93499999999999983 1 4.3492107361819192e-018 6.0035117523983493e-017 2.3635873040938382e-017 0 -0.39370078740157477 forward_v I I I I #
coedge $-1 $122 $123 $124 $125 forward $56 $-1 #
coedge $-1 $126 $58 $83 $116 forward $34 $-1 #
coedge $-1 $58 $126 $96 $127 forward $34 $-1 #
edge $-1 $92 $128 $58 $129 forward #
coedge $-1 $60 $59 $65 $97 forward $20 $-1 #
vertex $-1 $116 $130 #
ellipse-curve $-1 0.25617782668064554 -0.62858327814630166 0.12 0 0 -1 0.044194173824159223 -0.044194173824159223 0 1 I I #
straight-curve $-1 0.31867782668064548 -0.62858327814630166 0 0 0 0.39370078740157477 F -0.49212600000000001 F 0.79692600000000013 #
point $-1 0.31867782668064548 -0.62858327814630166 0.12 #
coedge $-1 $131 $65 $89 $127 reversed $66 $-1 #
edge $-1 $128 $68 $65 $132 forward #
face $-1 $-1 $66 $2 $-1 $133 reversed single #
point $-1 0.31867782668064548 -0.62858327814630166 0 #
coedge $-1 $71 $134 $135 $136 reversed $66 $-1 #
coedge $-1 $135 $78 $73 $102 reversed $111 $-1 #
edge $-1 $103 $81 $73 $137 forward #
vertex $-1 $74 $138 #
straight-curve $-1 0.31867782668064543 0.80891672185369801 0 -0.39370078740157477 0 0 F 0 F 0.63500000000000001 #
face $-1 $139 $140 $2 $-1 $141 forward single #
plane-surface $-1 0.068677826680645468 0.80891672185369801 0 0 1 0 0 0 0.39370078740157477 forward_v I I I I #
coedge $-1 $142 $77 $143 $144 reversed $12 $-1 #
coedge $-1 $145 $146 $77 $109 forward $147 $-1 #
edge $-1 $148 $112 $108 $149 forward #
coedge $-1 $78 $135 $145 $150 forward $111 $-1 #
loop $-1 $-1 $78 $151 #
vertex $-1 $150 $152 #
straight-curve $-1 0.068677826680645468 0.80891672185369801 0.12 -8.6042456493362569e-017 0.39370078740157477 0 F -0.63500000000000023 F 0 #
point $-1 0.068677826680645468 0.80891672185369801 0.12 #
coedge $-1 $83 $153 $154 $155 reversed $12 $-1 #
edge $-1 $92 $156 $88 $157 forward #
face $-1 $158 $159 $2 $-1 $160 reversed single #
loop $-1 $-1 $161 $84 #
plane-surface $-1 -0.43632217331935458 -0.2410832781463017 0.99999999999999989 0 -0.85749292571254421 0.51449575542752657 0.39370078740157477 0 0 forward_v I I I I #
loop $-1 $-1 $162 $55 #
coedge $-1 $121 $121 $163 $164 forward $85 $-1 #
coedge $-1 $165 $87 $161 $166 forward $56 $-1 #
coedge $-1 $87 $165 $167 $168 forward $56 $-1 #
coedge $-1 $169 $170 $87 $125 reversed $159 $-1 #
edge $-1 $171 $172 $124 $173 forward #
coedge $-1 $89 $88 $174 $175 reversed $34 $-1 #
edge $176 $177 $128 $89 $178 forward #
vertex $-1 $90 $179 #
straight-curve $-1 0.25617782668064554 -0.69108327814630166 0 0 0 -0.39370078740157477 F -0.79692600000000013 F 0.49212600000000001 #
point $-1 0.25617782668064554 -0.69108327814630166 0.12 #
coedge $-1 $180 $96 $181 $182 reversed $66 $-1 #
ellipse-curve $-1 0.25617782668064554 -0.62858327814630166 0 0 0 1 0.044194173824159223 -0.044194173824159223 0 1 I I #
plane-surface $-1 -0.15660845483101826 0.058916721853698187 0 0 0 1 0.39370078740157477 0 0 forward_v I I I I #
coedge $-1 $100 $183 $184 $185 reversed $66 $-1 #
coedge $-1 $110 $101 $100 $136 forward $111 $-1 #
edge $-1 $103 $186 $135 $187 forward #
straight-curve $-1 0.068677826680645468 0.80891672185369801 0 0 0 0.39370078740157477 I I #
point $-1 0.068677826680645468 0.80891672185369801 0 #
face $-1 $188 $189 $2 $-1 $190 forward single #
loop $-1 $-1 $154 $105 #
plane-surface $-1 0.068677826680645496 -0.69108327814630166 0 -1 -1.7483827159451278e-016 0 0 0 0.39370078740157477 forward_v I I I I #
coedge $-1 $191 $107 $192 $193 reversed $12 $-1 #
coedge $-1 $194 $195 $107 $144 forward $196 $-1 #
edge $-1 $197 $148 $143 $198 forward #
coedge $-1 $184 $108 $110 $150 reversed $147 $-1 #
coedge $-1 $108 $184 $194 $199 forward $147 $-1 #
loop $-1 $-1 $108 $200 #
vertex $-1 $199 $201 #
ellipse-curve $-1 -0.06132217331935446 0.55891672185369801 0.12 0 0 1 0.12999999999999998 0 0 1 F -3.1415926535897931 F 0 #
edge $-1 $186 $112 $110 $202 forward #
face $-1 $75 $111 $2 $-1 $203 forward single #
point $-1 0.068677826680645523 0.55891672185369801 0.12 #
coedge $-1 $115 $204 $205 $206 reversed $12 $-1 #
coedge $-1 $207 $174 $115 $155 forward $140 $-1 #
edge $-1 $156 $208 $154 $209 forward #
vertex $-1 $175 $210 #
straight-curve $-1 0.06867782668064551 -0.69108327814630166 0.12 -0.39370078740157477 0 0 F -0.63500000000000001 F 0 #
face $-1 $211 $212 $2 $-1 $213 forward single #
loop $-1 $214 $124 $117 #
plane-surface $-1 -0.68132217331935452 0.058916721853698201 0.93499999999999983 1 4.3492107361819084e-018 6.0035117523983493e-017 2.3635873040938382e-017 0 -0.39370078740157477 forward_v I I I I #
coedge $-1 $215 $216 $122 $166 reversed $118 $-1 #
coedge $-1 $217 $218 $165 $219 reversed $120 $-1 #
coedge $-1 $163 $163 $121 $164 reversed $220 $-1 #
edge $-1 $221 $221 $121 $222 forward #
coedge $-1 $123 $122 $162 $219 forward $56 $-1 #
edge $-1 $172 $223 $161 $224 forward #
coedge $-1 $225 $226 $123 $168 reversed $212 $-1 #
edge $-1 $227 $171 $167 $228 forward #
coedge $-1 $229 $124 $226 $230 reversed $159 $-1 #
coedge $-1 $124 $231 $215 $232 reversed $159 $-1 #
vertex $-1 $125 $233 #
vertex $-1 $232 $234 #
ellipse-curve $-1 -0.68132217331935452 0.42406906586194137 1.3699999999999999 1 4.3492107361819084e-018 6.0035117523983493e-017 0 -0.1872255496937654 0.33067596456632187 1 I I #
coedge $-1 $154 $181 $126 $175 forward $140 $-1 #
edge $-1 $177 $156 $174 $235 forward #
convexity-sys-attrib $-1 $-1 $-1 $127 #
vertex $-1 $182 $236 #
straight-curve $-1 0.06867782668064551 -0.69108327814630166 0 0.39370078740157477 0 0 F 0 F 0.63500000000000001 #
point $-1 0.25617782668064554 -0.69108327814630166 0 #
coedge $-1 $237 $131 $238 $239 reversed $66 $-1 #
coedge $-1 $174 $207 $131 $182 forward $140 $-1 #
edge $-1 $240 $177 $181 $241 forward #
coedge $-1 $134 $242 $243 $244 reversed $66 $-1 #
coedge $-1 $146 $145 $134 $185 forward $147 $-1 #
edge $-1 $186 $245 $184 $246 forward #
vertex $-1 $136 $247 #
straight-curve $-1 0.068677826680645468 0.80891672185369801 0 8.6042456493362569e-017 -0.39370078740157477 0 F 0 F 0.63500000000000023 #
face $-1 $248 $249 $2 $-1 $250 forward single #
loop $-1 $-1 $205 $139 #
cone-surface $-1 -0.061322173319354273 -0.44108327814630177 0 0 0 1 -0.12999999999999998 -1.7483827159451317e-016 0 1 I I 0 -1 0.12999999999999998 forward I I I I #
coedge $-1 $251 $142 $252 $253 forward $12 $-1 #
coedge $-1 $254 $255 $142 $193 forward $256 $-1 #
edge $-1 $257 $197 $192 $258 forward #
coedge $-1 $243 $143 $146 $199 reversed $196 $-1 #
coedge $-1 $143 $243 $254 $259 forward $196 $-1 #
loop $-1 $-1 $143 $260 #
vertex $-1 $259 $261 #
straight-curve $-1 -0.1913221733193545 0.55891672185369801 0.12 3.441698259734503e-017 -0.39370078740157477 0 F -0.63500000000000023 F 0 #
edge $-1 $245 $148 $146 $262 forward #
face $-1 $151 $147 $2 $-1 $263 forward single #
point $-1 -0.1913221733193545 0.55891672185369801 0.12 #
straight-curve $-1 0.068677826680645523 0.55891672185369801 0 0 0 0.39370078740157477 I I #
plane-surface $-1 0.068677826680645523 0.55891672185369801 0 -1 -2.1854783949314096e-016 0 0 0 0.39370078740157477 forward_v I I I I #
coedge $-1 $153 $251 $264 $265 reversed $12 $-1 #
coedge $-1 $266 $267 $153 $206 forward $189 $-1 #
edge $-1 $208 $268 $205 $269 forward #
coedge $-1 $181 $154 $267 $270 reversed $140 $-1 #
vertex $-1 $270 $271 #
straight-curve $-1 0.068677826680645454 -0.44108327814630161 0.12 -6.883396519469006e-017 0.39370078740157477 0 F -0.63500000000000023 F 0 #
point $-1 0.068677826680645496 -0.69108327814630166 0.12 #
face $-1 $272 $273 $2 $-1 $274 forward single #
loop $-1 $-1 $167 $158 #
plane-surface $-1 -0.68132217331935452 -0.69108327814630166 1.75 0 0 1 0.39370078740157477 0 0 forward_v I I I I #
loop $-1 $-1 $275 $117 #
coedge $-1 $276 $161 $170 $232 forward $118 $-1 #
coedge $-1 $161 $276 $217 $277 forward $118 $-1 #
coedge $-1 $278 $162 $216 $277 reversed $120 $-1 #
coedge $-1 $162 $279 $225 $280 reversed $120 $-1 #
edge $-1 $223 $227 $162 $281 forward #
loop $-1 $-1 $163 $272 #
vertex $-1 $164 $282 #
ellipse-curve $-1 -0.56132217331935463 0.42891672185369834 1.3700000000000001 -1 -4.3492107361819192e-018 -6.0035117523983493e-017 1.1406672329556862e-017 0 -0.19 1 I I #
vertex $-1 $166 $283 #
straight-curve $-1 -0.55882217331935458 0.098221754091174396 1.56550838706246 0.39370078740157477 0 0 F -3.3032710000000005 F 2.9857710000000002 #
coedge $-1 $284 $167 $218 $280 forward $212 $-1 #
coedge $-1 $167 $284 $169 $230 forward $212 $-1 #
vertex $-1 $280 $285 #
straight-curve $-1 -0.55882217331935458 0.42406906586194137 1.75 -0.39370078740157477 0 0 F -2.9857710000000002 F 3.3032710000000005 #
coedge $-1 $286 $169 $287 $288 reversed $159 $-1 #
edge $289 $290 $171 $226 $291 forward #
coedge $-1 $170 $292 $293 $294 reversed $159 $-1 #
edge $-1 $172 $295 $170 $296 forward #
point $-1 -0.68132217331935452 0.42406906586194137 1.75 #
point $-1 -0.68132217331935452 0.098221754091174451 1.56550838706246 #
straight-curve $-1 0.068677826680645496 -0.69108327814630166 0 0 0 0.39370078740157477 I I #
point $-1 0.068677826680645496 -0.69108327814630166 0 #
coedge $-1 $297 $180 $298 $299 reversed $66 $-1 #
coedge $-1 $267 $266 $180 $239 forward $189 $-1 #
edge $-1 $300 $240 $238 $301 forward #
vertex $-1 $239 $302 #
straight-curve $-1 0.068677826680645454 -0.44108327814630161 0 6.883396519469006e-017 -0.39370078740157477 0 F 0 F 0.63500000000000023 #
coedge $-1 $183 $303 $304 $305 reversed $66 $-1 #
coedge $-1 $195 $194 $183 $244 forward $196 $-1 #
edge $-1 $245 $306 $243 $307 forward #
vertex $-1 $185 $308 #
ellipse-curve $-1 -0.06132217331935446 0.55891672185369801 0 0 0 -1 0.12999999999999998 0 0 1 F 0 F 3.1415926535897931 #
point $-1 0.068677826680645523 0.55891672185369801 0 #
face $-1 $98 $309 $2 $-1 $310 forward single #
loop $-1 $-1 $264 $188 #
plane-surface $-1 -0.19132217331935453 -0.44108327814630161 0 1 8.7419135797256388e-017 0 0 0 -0.39370078740157477 forward_v I I I I #
coedge $-1 $204 $191 $311 $312 reversed $12 $-1 #
coedge $-1 $313 $314 $191 $253 reversed $315 $-1 #
edge $-1 $257 $316 $191 $317 forward #
coedge $-1 $304 $192 $195 $259 reversed $256 $-1 #
coedge $-1 $192 $318 $313 $319 reversed $256 $-1 #
loop $-1 $-1 $320 $321 #
vertex $-1 $193 $322 #
straight-curve $-1 -0.19132217331935455 0.80891672185369801 0.12 0.39370078740157477 0 0 F -1.2445999999999999 F 0 #
edge $-1 $306 $197 $195 $323 forward #
face $-1 $200 $196 $2 $-1 $324 forward single #
point $-1 -0.19132217331935453 0.80891672185369801 0.12 #
straight-curve $-1 -0.1913221733193545 0.55891672185369801 0 0 0 0.39370078740157477 I I #
cone-surface $-1 -0.06132217331935446 0.55891672185369801 0 0 0 1 0.12999999999999998 0 0 1 I I 0 -1 0.12999999999999998 forward I I I I #
coedge $-1 $325 $326 $204 $265 forward $249 $-1 #
edge $-1 $268 $327 $264 $328 forward #
coedge $-1 $238 $205 $326 $329 reversed $189 $-1 #
coedge $-1 $205 $238 $207 $270 forward $189 $-1 #
vertex $-1 $329 $330 #
ellipse-curve $-1 -0.061322173319354273 -0.44108327814630177 0.12 0 0 1 -0.12999999999999998 -1.7483827159451317e-016 0 1 F -3.1415926535897931 F -2.713173480546447e-030 #
edge $-1 $240 $208 $267 $331 forward #
point $-1 0.068677826680645454 -0.44108327814630161 0.12 #
face $-1 $332 $333 $2 $-1 $334 reversed single #
loop $-1 $-1 $335 $211 #
cone-surface $-1 -0.68132217331935452 0.42891672185369795 1.3699999999999999 1 0 0 0 0.26870057685088805 0.26870057685088805 1 I I 0 1 0.38 forward I I I I #
coedge $-1 $275 $275 $336 $337 forward $214 $-1 #
coedge $-1 $216 $215 $338 $339 forward $118 $-1 #
edge $340 $341 $223 $217 $342 forward #
coedge $-1 $343 $217 $344 $345 reversed $120 $-1 #
coedge $-1 $218 $346 $335 $347 reversed $120 $-1 #
edge $-1 $227 $348 $225 $349 forward #
ellipse-curve $-1 -0.56132217331935452 0.42406906586194137 1.3699999999999999 -1 -4.3492107361819192e-018 -6.0035117523983493e-017 0 -0.1872255496937654 0.33067596456632187 1 I I #
point $-1 -0.56132217331935463 0.42891672185369834 1.1799999999999999 #
point $-1 -0.56132217331935452 0.098221754091174451 1.56550838706246 #
coedge $-1 $226 $225 $350 $351 reversed $212 $-1 #
point $-1 -0.56132217331935463 0.42406906586194137 1.75 #
coedge $-1 $292 $229 $352 $353 reversed $159 $-1 #
coedge $-1 $350 $354 $229 $288 forward $273 $-1 #
edge $-1 $355 $290 $229 $356 forward #
convexity-sys-attrib $-1 $-1 $-1 $230 #
vertex $-1 $230 $357 #
straight-curve $-1 -0.68132217331935452 0.80891672185369801 1.75 0 -0.39370078740157477 0 F 0 F 3.8099999999999996 #
coedge $-1 $231 $286 $358 $359 forward $159 $-1 #
coedge $-1 $360 $338 $231 $294 forward $309 $-1 #
edge $-1 $295 $361 $293 $362 forward #
vertex $-1 $294 $363 #
straight-curve $-1 -0.68132217331935452 -0.21571563108747824 1.0422794117647056 2.1148558674945847e-017 -0.20255738402658524 -0.3375956400443087 I I #
coedge $-1 $303 $237 $364 $365 reversed $66 $-1 #
coedge $-1 $326 $325 $237 $299 forward $249 $-1 #
edge $-1 $366 $300 $298 $367 forward #
vertex $-1 $299 $368 #
ellipse-curve $-1 -0.061322173319354273 -0.44108327814630177 0 0 0 -1 -0.12999999999999998 -1.7483827159451317e-016 0 1 F 2.713173480546447e-030 F 3.1415926535897931 #
point $-1 0.068677826680645454 -0.44108327814630161 0 #
coedge $-1 $242 $297 $369 $370 forward $66 $-1 #
coedge $-1 $371 $254 $242 $305 forward $256 $-1 #
edge $-1 $306 $372 $304 $373 forward #
vertex $-1 $244 $374 #
straight-curve $-1 -0.1913221733193545 0.55891672185369801 0 -3.441698259734503e-017 0.39370078740157477 0 F 0 F 0.63500000000000023 #
point $-1 -0.1913221733193545 0.55891672185369801 0 #
loop $-1 $-1 $338 $248 #
plane-surface $-1 -0.1913221733193545 -0.69108327814630166 0 0 -1 0 0 0 -0.39370078740157477 forward_v I I I I #
coedge $-1 $375 $376 $251 $312 forward $309 $-1 #
edge $-1 $327 $316 $311 $377 forward #
coedge $-1 $378 $252 $255 $319 forward $315 $-1 #
coedge $-1 $252 $378 $375 $379 reversed $315 $-1 #
loop $-1 $-1 $378 $332 #
vertex $-1 $379 $380 #
straight-curve $-1 -0.53132217331935438 -0.31608327814630177 0.12 0 -0.39370078740157477 0 I I #
coedge $-1 $255 $320 $346 $381 forward $256 $-1 #
edge $-1 $257 $382 $313 $383 forward #
coedge $-1 $318 $352 $354 $384 reversed $256 $-1 #
face $-1 $260 $256 $2 $-1 $385 forward single #
point $-1 -0.53132217331935438 0.80891672185369801 0.12 #
straight-curve $-1 -0.19132217331935453 0.80891672185369801 0 0 0 0.39370078740157477 I I #
plane-surface $-1 -0.19132217331935453 0.80891672185369801 0 1 8.7419135797256388e-017 0 0 0 -0.39370078740157477 forward_v I I I I #
coedge $-1 $298 $264 $376 $386 reversed $249 $-1 #
coedge $-1 $264 $298 $266 $329 forward $249 $-1 #
vertex $-1 $386 $387 #
straight-curve $-1 -0.1913221733193545 -0.69108327814630166 0.12 3.441698259734503e-017 -0.39370078740157477 0 F -0.63500000000000023 F 0 #
edge $-1 $300 $268 $326 $388 forward #
point $-1 -0.19132217331935453 -0.44108327814630161 0.12 #
straight-curve $-1 0.068677826680645454 -0.44108327814630161 0 0 0 0.39370078740157477 I I #
face $-1 $389 $315 $2 $-1 $390 forward single #
loop $-1 $220 $336 $272 #
cone-surface $-1 -3.073791078599577 0.42891672185369834 1.3699999999999999 1 4.3492107361819192e-018 6.0035117523983493e-017 1.1406672329556862e-017 0 -0.19 1 I I 0 1 0.19 reversed I I I I #
coedge $-1 $354 $350 $279 $347 forward $273 $-1 #
coedge $-1 $336 $336 $275 $337 reversed $333 $-1 #
edge $-1 $391 $391 $275 $392 forward #
coedge $-1 $293 $344 $276 $339 reversed $309 $-1 #
edge $-1 $295 $341 $338 $393 forward #
convexity-sys-attrib $-1 $-1 $-1 $277 #
vertex $-1 $277 $394 #
straight-curve $-1 -0.56132217331935452 -0.21571563108747824 1.0422794117647056 -2.114855867494585e-017 0.20255738402658524 0.3375956400443087 I I #
coedge $-1 $346 $278 $378 $395 forward $120 $-1 #
coedge $-1 $338 $375 $278 $345 forward $309 $-1 #
edge $396 $397 $341 $344 $398 forward #
coedge $-1 $279 $343 $318 $381 reversed $120 $-1 #
edge $-1 $348 $399 $279 $400 forward #
vertex $-1 $351 $401 #
straight-curve $-1 -0.56132217331935463 0.80891672185369801 1.75 0 0.39370078740157477 0 F -3.8099999999999996 F 0 #
coedge $-1 $335 $287 $284 $351 forward $273 $-1 #
edge $-1 $290 $348 $284 $402 forward #
coedge $-1 $320 $371 $286 $353 forward $256 $-1 #
edge $403 $404 $355 $352 $405 forward #
coedge $-1 $287 $335 $320 $384 forward $273 $-1 #
vertex $-1 $288 $406 #
ellipse-curve $-1 -0.68132217331935452 0.42891672185369795 1.3699999999999999 1 4.3492107361819084e-018 6.0035117523983493e-017 0 0.26870057685088805 0.26870057685088805 1 I I #
point $-1 -0.68132217331935452 0.42891672185369795 1.75 #
coedge $-1 $407 $408 $292 $359 reversed $409 $-1 #
edge $-1 $404 $361 $292 $410 forward #
coedge $-1 $364 $293 $408 $411 reversed $309 $-1 #
vertex $-1 $411 $412 #
straight-curve $-1 -0.68132217331935452 -0.69108327814630166 1.75 2.4106424287842076e-017 0 -0.39370078740157477 F 0 F 4.1402000000000001 #
point $-1 -0.68132217331935452 -0.69108327814630166 0.25000000000000006 #
coedge $-1 $376 $360 $297 $365 forward $309 $-1 #
edge $-1 $413 $366 $364 $414 forward #
vertex $-1 $365 $415 #
straight-curve $-1 -0.1913221733193545 -0.69108327814630166 0 -3.441698259734503e-017 0.39370078740157477 0 F 0 F 0.63500000000000023 #
point $-1 -0.19132217331935453 -0.44108327814630161 0 #
coedge $-1 $408 $407 $303 $370 reversed $409 $-1 #
edge $-1 $413 $372 $303 $416 forward #
coedge $-1 $352 $304 $407 $417 forward $256 $-1 #
vertex $-1 $370 $418 #
straight-curve $-1 -0.19132217331935455 0.80891672185369801 0 -0.39370078740157477 0 0 F 0 F 1.2445999999999999 #
point $-1 -0.19132217331935453 0.80891672185369801 0 #
coedge $-1 $344 $311 $314 $379 forward $309 $-1 #
coedge $-1 $311 $364 $325 $386 forward $309 $-1 #
straight-curve $-1 -0.68132217331935452 -0.69108327814630166 0.12 -0.39370078740157477 0 0 F -1.2446000000000002 F 0 #
coedge $-1 $314 $313 $343 $395 reversed $315 $-1 #
edge $-1 $316 $397 $375 $419 forward #
point $-1 -0.53132217331935438 -0.69108327814630166 0.12 #
edge $-1 $399 $382 $318 $420 forward #
vertex $-1 $395 $421 #
ellipse-curve $-1 -0.53132217331935438 0.80891672185369801 0.15000000000000002 0 1 0 0 0 -0.030000000000000016 1 F 0 F 1.5707963267948994 #
edge $-1 $399 $355 $320 $422 forward #
plane-surface $-1 -0.68132217331935452 0.80891672185369801 0 0 1 0 0 0 0.39370078740157477 forward_v I I I I #
edge $-1 $366 $327 $376 $423 forward #
point $-1 -0.1913221733193545 -0.69108327814630166 0.12 #
straight-curve $-1 -0.19132217331935453 -0.44108327814630161 0 0 0 0.39370078740157477 I I #
face $-1 $321 $409 $2 $-1 $424 forward single #
cone-surface $-1 -0.53132217331935438 0.05891672185369818 0.15000000000000002 0 1 0 0 0 -0.030000000000000016 1 I I 0 -1 0.030000000000000016 forward I I I I #
vertex $-1 $337 $425 #
ellipse-curve $-1 -0.68132217331935463 0.42891672185369834 1.3700000000000001 1 4.3492107361819084e-018 6.0035117523983493e-017 1.1406672329556862e-017 0 -0.19 1 I I #
straight-curve $-1 -0.43632217331935458 -0.69108327814630166 0.25000000000000006 0.39370078740157477 0 0 F -12.433301 F 11.493500999999998 #
point $-1 -0.56132217331935452 -0.69108327814630166 0.25000000000000006 #
edge $-1 $397 $382 $343 $426 forward #
convexity-sys-attrib $-1 $-1 $-1 $345 #
vertex $-1 $345 $427 #
straight-curve $-1 -0.56132217331935463 -0.69108327814630166 1.75 -2.4106424287842076e-017 0 0.39370078740157477 F -4.1402000000000001 F 0 #
vertex $-1 $381 $428 #
ellipse-curve $-1 -0.56132217331935452 0.42891672185369795 1.3699999999999999 -1 -4.3492107361819192e-018 -6.0035117523983493e-017 0 0.26870057685088805 0.26870057685088805 1 I I #
point $-1 -0.56132217331935463 0.42891672185369795 1.75 #
straight-curve $-1 -0.68132217331935452 0.42891672185369795 1.75 0.39370078740157477 0 0 F -2.9921210000000005 F 3.2969210000000002 #
convexity-sys-attrib $-1 $-1 $-1 $353 #
vertex $-1 $353 $429 #
straight-curve $-1 -0.68132217331935452 0.80891672185369801 0.12 -2.4106424287842076e-017 0 0.39370078740157477 F 0 F 4.1402000000000001 #
point $-1 -0.68132217331935452 0.80891672185369801 1.3699999999999999 #
coedge $-1 $369 $358 $371 $417 reversed $409 $-1 #
coedge $-1 $358 $369 $360 $411 forward $409 $-1 #
loop $-1 $-1 $358 $389 #
straight-curve $-1 -0.68132217331935441 -0.31608327814630177 0.14999999999999994 1.7122876914102e-018 -0.39370078740157477 0 I I #
edge $-1 $413 $361 $408 $430 forward #
point $-1 -0.68132217331935441 -0.69108327814630166 0.14999999999999999 #
vertex $-1 $365 $431 #
straight-curve $-1 -0.68132217331935452 -0.69108327814630166 0 0.39370078740157477 0 0 F 0 F 1.2446000000000002 #
point $-1 -0.1913221733193545 -0.69108327814630166 0 #
straight-curve $-1 -0.53132217331935438 -0.31608327814630177 0 0 0.39370078740157477 0 I I #
edge $-1 $372 $404 $371 $432 forward #
point $-1 -0.53132217331935438 0.80891672185369801 2.1854783949314103e-017 #
ellipse-curve $-1 -0.53132217331935438 -0.69108327814630166 0.15000000000000002 0 1 0 0 0 -0.030000000000000016 1 F 0 F 1.5707963267948994 #
straight-curve $-1 -0.56132217331935452 0.80891672185369801 0.12 2.4106424287842076e-017 0 -0.39370078740157477 F -4.1402000000000001 F 0 #
point $-1 -0.56132217331935463 0.80891672185369801 0.14999999999999999 #
straight-curve $-1 -0.68132217331935452 0.80891672185369801 1.3699999999999999 -0.39370078740157477 0 0 F -3.2969210000000002 F 2.9921210000000005 #
straight-curve $-1 -0.1913221733193545 -0.69108327814630166 0 0 0 0.39370078740157477 I I #
cone-surface $-1 -0.53132217331935438 0.05891672185369818 0.15000000000000002 0 1 0 0 0 -0.15000000000000002 1 I I 0 1 0.15000000000000002 forward I I I I #
point $-1 -0.68132217331935463 0.42891672185369834 1.5600000000000001 #
straight-curve $-1 -0.56132217331935441 -0.31608327814630177 0.14999999999999994 -1.7122876914102043e-018 0.39370078740157477 0 I I #
point $-1 -0.56132217331935463 -0.69108327814630166 0.14999999999999999 #
point $-1 -0.56132217331935463 0.80891672185369801 1.3699999999999999 #
point $-1 -0.68132217331935441 0.80891672185369801 0.14999999999999999 #
ellipse-curve $-1 -0.53132217331935438 -0.69108327814630166 0.15000000000000002 0 1 0 0 0 -0.15000000000000002 1 F 0 F 1.5707963267948972 #
point $-1 -0.53132217331935438 -0.69108327814630166 2.1854783949314103e-017 #
ellipse-curve $-1 -0.53132217331935438 0.80891672185369801 0.15000000000000002 0 1 0 0 0 -0.15000000000000002 1 F 0 F 1.5707963267948972 #
End-of-ACIS-data 