400 0 1 0           
7 Unknown 11 ACIS 6.0 NT 24 Fri Dec 07 19:56:03 2001 
1 9.9999999999999995e-007 1e-010 
body $-1 $1 $-1 $-1 #
lump $-1 $-1 $2 $0 #
shell $-1 $-1 $-1 $3 $-1 $1 #
face $-1 $4 $5 $2 $-1 $6 forward single #
face $-1 $7 $8 $2 $-1 $9 reversed single #
loop $-1 $10 $11 $3 #
cone-surface $-1 0 0 0.125 0 0 -1 -8.875 0 0 1 I I -0.70710678118654791 0.70710678118654724 8.875 forward I I I I #
face $-1 $12 $13 $2 $-1 $14 forward single #
loop $-1 $15 $16 $4 #
plane-surface $-1 0.81818181818181779 1.0092936587501424e-016 0 0 0 1 10 0 0 forward_v I I I I #
loop $-1 $-1 $17 $3 #
coedge $-1 $11 $11 $18 $19 forward $5 $-1 #
face $-1 $20 $21 $2 $-1 $22 forward single #
loop $-1 $23 $24 $7 #
cone-surface $-1 0 0 0 0 0 1 -9 0 0 1 I I 0 1 9 forward I I I I #
loop $-1 $-1 $25 $4 #
coedge $-1 $16 $16 $26 $27 reversed $8 $-1 #
coedge $-1 $17 $17 $25 $28 forward $10 $-1 #
coedge $-1 $18 $18 $11 $19 reversed $23 $-1 #
edge $-1 $29 $29 $18 $30 forward #
face $-1 $31 $32 $2 $-1 $33 reversed single #
loop $-1 $34 $35 $12 #
cone-surface $-1 -2.2186712959340957e-031 -7.3955709864469868e-032 0.12499999999999956 0 0 -1 6.125 0 -3.4666738998970245e-032 1 I I -0.70710678118654913 -0.70710678118654602 6.125 forward I I I I #
loop $-1 $-1 $18 $7 #
coedge $-1 $24 $24 $36 $37 forward $13 $-1 #
coedge $-1 $25 $25 $17 $28 reversed $15 $-1 #
coedge $-1 $26 $26 $16 $27 forward $34 $-1 #
edge $-1 $38 $38 $16 $39 forward #
edge $-1 $40 $40 $25 $41 forward #
vertex $-1 $19 $42 #
ellipse-curve $-1 0 0 0.25 0 0 -1 -9 0 0 1 I I #
face $-1 $43 $44 $2 $-1 $45 forward single #
loop $-1 $46 $47 $20 #
cone-surface $-1 -3.7019404592290723e-031 -1.2339801530763577e-031 -12.585956361563488 1.1555579666323414e-032 3.8518598887744724e-033 1 6.0000000000000009 0 -6.9333477997940491e-032 1 I I 0 1 6.0000000000000009 reversed I I I I #
loop $-1 $-1 $26 $12 #
coedge $-1 $35 $35 $48 $49 forward $21 $-1 #
coedge $-1 $36 $36 $24 $37 reversed $50 $-1 #
edge $51 $52 $52 $24 $53 forward #
vertex $-1 $27 $54 #
ellipse-curve $-1 -2.2186712959340957e-031 -7.3955709864469868e-032 0 0 0 -1 6.2500000000000009 0 0 1 I I #
vertex $-1 $28 $55 #
ellipse-curve $-1 0 0 0 0 0 1 -8.75 0 0 1 I I #
point $-1 9 0 0.25 #
face $-1 $56 $57 $2 $-1 $58 forward single #
loop $-1 $59 $60 $31 #
cone-surface $-1 -1.4444474582904322e-033 -4.8148248609681059e-034 19.324999999999996 1.1555579666323414e-032 3.8518598887744724e-033 1 -6.125 0 7.0777925456230918e-032 1 I I -0.70710678118654913 -0.70710678118654602 6.125 forward I I I I #
loop $-1 $-1 $48 $20 #
coedge $-1 $47 $47 $60 $61 reversed $32 $-1 #
coedge $-1 $48 $48 $35 $49 reversed $46 $-1 #
edge $-1 $62 $62 $48 $63 forward #
loop $-1 $-1 $36 $64 #
convexity-sys-attrib $-1 $-1 $-1 $37 #
vertex $-1 $37 $65 #
ellipse-curve $-1 0 0 8.25 0 0 -1 -9 0 0 1 I I #
point $-1 -6.2500000000000009 -7.3955709864469868e-032 0 #
point $-1 8.75 0 0 #
face $-1 $66 $67 $2 $-1 $68 forward single #
loop $-1 $69 $70 $43 #
plane-surface $-1 0.72727272727272696 -1.0092936587501424e-016 19.449999999999996 1.1555579666323414e-032 3.8518598887744724e-033 1 10 0 -1.1555579666323413e-031 forward_v I I I I #
loop $-1 $-1 $71 $31 #
coedge $-1 $60 $60 $47 $61 forward $44 $-1 #
edge $-1 $72 $72 $47 $73 forward #
vertex $-1 $49 $74 #
ellipse-curve $-1 -2.2186712959340957e-031 -7.3955709864469868e-032 0.24999999999999911 0 0 1 6.0000000000000009 0 -6.9333477997940491e-032 1 I I #
face $-1 $-1 $75 $2 $-1 $76 forward single #
point $-1 9 1.1021457184401395e-015 8.25 #
face $-1 $64 $77 $2 $-1 $78 forward single #
loop $-1 $79 $80 $56 #
cone-surface $-1 1.4444474582904088e-033 4.8148248609680306e-034 19.324999999999996 -1.1555579666323414e-032 -3.8518598887744724e-033 -1 -7.8750000000000009 1.7247808600696506e-064 4.4777871207003228e-032 1 I I 0.70710678118655235 0.70710678118654291 7.8750000000000009 forward I I I I #
loop $-1 $-1 $81 $43 #
coedge $-1 $70 $70 $80 $82 reversed $57 $-1 #
coedge $-1 $71 $71 $81 $83 forward $59 $-1 #
vertex $-1 $61 $84 #
ellipse-curve $-1 -2.8888949165808538e-033 -9.6296497219361793e-034 19.199999999999996 -1.1555579666323414e-032 -3.8518598887744724e-033 -1 -6.0000000000000009 0 6.9333477997940491e-032 1 I I #
point $-1 -6.0000000000000009 -7.3955709864469868e-032 0.24999999999999911 #
loop $-1 $50 $85 $64 #
plane-surface $-1 0.81818181818181779 1.0092936587501424e-016 8.25 0 0 1 10 0 0 forward_v I I I I #
loop $-1 $86 $87 $66 #
cone-surface $-1 0 0 8.25 0 0 1 -8 0 0 1 I I 0 1 8 forward I I I I #
loop $-1 $-1 $88 $56 #
coedge $-1 $80 $80 $70 $82 forward $67 $-1 #
coedge $-1 $81 $81 $71 $83 reversed $69 $-1 #
edge $-1 $89 $89 $70 $90 forward #
edge $-1 $91 $91 $81 $92 forward #
point $-1 6.0000000000000009 -9.6296497219361793e-034 19.199999999999996 #
coedge $-1 $85 $85 $87 $93 forward $75 $-1 #
loop $-1 $-1 $94 $66 #
coedge $-1 $87 $87 $85 $93 reversed $77 $-1 #
coedge $-1 $88 $88 $94 $95 forward $79 $-1 #
vertex $-1 $82 $96 #
ellipse-curve $-1 2.8888949165808175e-033 9.6296497219360612e-034 19.449999999999996 -1.1555579666323414e-032 -3.8518598887744724e-033 -1 -7.75 3.4495617201393019e-064 8.9555742414006456e-032 1 I I #
vertex $-1 $83 $97 #
ellipse-curve $-1 -1.0691058840368783e-047 -3.2073176521106348e-048 19.449999999999996 1.1555579666323414e-032 3.8518598887744724e-033 1 -6.2500000000000009 0 7.2222372914521344e-032 1 I I #
edge $-1 $98 $98 $85 $99 forward #
coedge $-1 $94 $94 $88 $95 reversed $86 $-1 #
edge $-1 $100 $100 $94 $101 forward #
point $-1 7.75 9.6296497219360612e-034 19.449999999999996 #
point $-1 6.2500000000000009 -3.2073176521106348e-048 19.449999999999996 #
vertex $-1 $93 $102 #
ellipse-curve $-1 0 0 8.25 0 0 -1 -8 0 0 1 I I #
vertex $-1 $95 $103 #
ellipse-curve $-1 0 0 19.199999999999999 1.1555579666323414e-032 3.8518598887744724e-033 1 -8 0 0 1 I I #
point $-1 8 9.7968508305790181e-016 8.25 #
point $-1 8 0 19.199999999999999 #
End-of-ACIS-data 