400 299 1 0         
7 Unknown 13 ACIS 4.0.2 NT 24 Tue Jan 15 17:23:06 2002 
-1 9.9999999999999995e-007 1e-010 
body $1 $2 $-1 $-1 #
ref_vt-eye-attrib $-1 $-1 $-1 $0 $3 $4 #
lump $5 $-1 $6 $0 #
eye_refinement $-1 5 grid  1 3 tri 2 4 surf 0 3 adj 0 4 grad 0 9 postcheck 0 4 stol 0.0067538535222411156 4 ntol 30 4 dsil 0 8 flatness 0 7 pixarea 0 4 hmax 0 6 gridar 0 5 mgrid 300 5 ugrid 0 5 vgrid 0 10 end_fields #
vertex_template $-1 3 0 1 8 #
ref_vt-eye-attrib $-1 $-1 $-1 $2 $3 $4 #
shell $7 $-1 $-1 $8 $-1 $2 #
ref_vt-eye-attrib $-1 $-1 $-1 $6 $3 $4 #
face $9 $10 $11 $6 $-1 $12 reversed single #
color-adesk-attrib $-1 $13 $-1 $8 256 #
face $14 $15 $16 $6 $-1 $17 forward single #
loop $-1 $18 $19 $8 #
cone-surface $-1 0 0.48327790617055721 -0.52682227871504494 1.2246063538223773e-016 1 6.1230317691118863e-017 -0.33067499999999983 4.0494670605021441e-017 0 1 I I 0.99338981839168938 -0.1147896716422106 0.33067499999999983 forward I I I I #
fmesh-eye-attrib $-1 $20 $9 $8 #
color-adesk-attrib $-1 $21 $-1 $10 256 #
face $22 $23 $24 $6 $-1 $25 forward single #
loop $-1 $-1 $26 $10 #
plane-surface $-1 -0.28000000000000003 0.25149999999999917 -0.55682227871504475 -1 0 0 0 -1 6.1230317691118863e-017 forward_v I I I I #
loop $-1 $-1 $27 $8 #
coedge $-1 $28 $29 $30 $31 reversed $11 $-1 #
ref_vt-eye-attrib $-1 $-1 $13 $8 $3 $4 #
fmesh-eye-attrib $-1 $32 $14 $10 #
color-adesk-attrib $-1 $33 $-1 $15 256 #
face $34 $35 $36 $6 $-1 $37 reversed single #
loop $-1 $-1 $38 $15 #
plane-surface $-1 0.28000000000000003 -4.8148248609680896e-035 -0.80682227871504475 0 -6.1230317691118863e-017 -1 0 1 -6.1230317691118863e-017 forward_v I I I I #
coedge $-1 $39 $40 $41 $42 forward $16 $-1 #
coedge $-1 $27 $27 $43 $44 reversed $18 $-1 #
coedge $-1 $41 $19 $38 $45 reversed $11 $-1 #
coedge $-1 $19 $41 $46 $47 reversed $11 $-1 #
coedge $-1 $48 $49 $19 $31 forward $50 $-1 #
edge $51 $52 $53 $30 $54 forward #
ref_vt-eye-attrib $-1 $-1 $21 $10 $3 $4 #
fmesh-eye-attrib $-1 $55 $22 $15 #
color-adesk-attrib $-1 $56 $-1 $23 256 #
face $57 $58 $59 $6 $-1 $60 forward single #
loop $-1 $61 $62 $23 #
cone-surface $-1 0 -0.4832779061705571 -0.52682227871504494 0 -1 6.1230317691118863e-017 0.33067499999999983 0 0 1 I I 0.99338981839168938 -0.1147896716422106 0.33067499999999983 forward I I I I #
coedge $-1 $63 $64 $28 $45 forward $24 $-1 #
coedge $-1 $65 $26 $64 $66 forward $16 $-1 #
coedge $-1 $26 $67 $68 $69 reversed $16 $-1 #
coedge $-1 $29 $28 $26 $42 reversed $11 $-1 #
edge $70 $71 $72 $26 $73 forward #
coedge $-1 $43 $43 $27 $44 forward $74 $-1 #
edge $75 $76 $76 $43 $77 forward #
edge $78 $72 $52 $38 $79 forward #
coedge $-1 $68 $80 $29 $47 forward $81 $-1 #
edge $82 $53 $71 $46 $83 forward #
coedge $-1 $84 $30 $80 $85 forward $50 $-1 #
coedge $-1 $30 $86 $63 $87 reversed $50 $-1 #
loop $-1 $-1 $30 $88 #
color-adesk-attrib $-1 $89 $-1 $31 256 #
vertex $-1 $87 $90 #
vertex $-1 $85 $91 #
intcurve-curve $-1 forward { exactcur nurbs 2 open 2 
	0.092403272809430864 2 0.74091790102598731 2 
	0.28000000000000003 0.47573170817373878 -0.80682227871504475 1.1558777391436368 
	0.28000000000000003 0.49861013418855654 -0.52682227871504494 1.6346579751420824 
	0.28000000000000003 0.47573170817373872 -0.24682227871504514 1.1558777391436372 
	0 
	null_surface 
	null_surface 
	nullbs 
	nullbs 
	I I 
	0 
	0 
	0 
	F 1 F 0 } I I #
ref_vt-eye-attrib $-1 $-1 $33 $15 $3 $4 #
fmesh-eye-attrib $-1 $92 $34 $23 #
color-adesk-attrib $-1 $93 $-1 $35 256 #
face $94 $95 $96 $6 $-1 $97 reversed single #
loop $-1 $-1 $98 $35 #
plane-surface $-1 -0.28000000000000003 -4.8148248609680896e-035 -0.24682227871504508 0 6.1230317691118863e-017 1 0 -1 6.1230317691118863e-017 forward_v I I I I #
loop $-1 $-1 $99 $23 #
coedge $-1 $100 $101 $86 $102 reversed $36 $-1 #
coedge $-1 $103 $38 $49 $87 forward $24 $-1 #
coedge $-1 $38 $103 $39 $66 reversed $24 $-1 #
coedge $-1 $104 $39 $105 $106 forward $16 $-1 #
edge $107 $72 $108 $39 $109 forward #
coedge $-1 $40 $110 $111 $112 forward $16 $-1 #
coedge $-1 $113 $46 $40 $69 forward $81 $-1 #
edge $114 $71 $115 $68 $116 forward #
color-adesk-attrib $-1 $117 $-1 $42 256 #
vertex $-1 $69 $118 #
vertex $-1 $66 $119 #
intcurve-curve $-1 forward { exactcur nurbs 2 open 2 
	0.092403272809431489 2 0.74091790102598876 2 
	-0.28000000000000003 0.47573170817373878 -0.24682227871504508 1.1558777391436375 
	-0.28000000000000003 0.4986101341885566 -0.52682227871504494 1.6346579751420827 
	-0.28000000000000003 0.47573170817373883 -0.80682227871504475 1.1558777391436377 
	0 
	null_surface 
	null_surface 
	nullbs 
	nullbs 
	I I 
	0 
	0 
	0 
	F 1 F 0 } I I #
loop $-1 $120 $43 $121 #
color-adesk-attrib $-1 $122 $-1 $44 256 #
vertex $-1 $44 $123 #
ellipse-curve $-1 0 0.49982227871504531 -0.52682227871504494 0 1 -6.1230317691118863e-017 0.1875 0 0 1 I I #
color-adesk-attrib $-1 $124 $-1 $45 256 #
intcurve-curve $-1 forward { exactcur nurbs 2 open 2 
	0.092403272809431378 2 0.74091790102598876 2 
	-0.28000000000000003 0.47573170817373883 -0.80682227871504475 1.1558777391436375 
	-6.7307270867900115e-016 0.49861013418855665 -0.80682227871504475 1.6346579751420831 
	0.28000000000000003 0.47573170817373878 -0.80682227871504475 1.155877739143637 
	0 
	null_surface 
	null_surface 
	nullbs 
	nullbs 
	I I 
	0 
	0 
	0 
	F 1 F 0 } I I #
coedge $-1 $46 $113 $48 $85 reversed $81 $-1 #
loop $-1 $-1 $46 $125 #
color-adesk-attrib $-1 $126 $-1 $47 256 #
intcurve-curve $-1 forward { exactcur nurbs 2 open 2 
	0.092403272809430226 2 0.74091790102598865 2 
	0.28000000000000003 0.47573170817373872 -0.24682227871504514 1.1558777391436386 
	-5.9674487573602164e-016 0.49861013418855665 -0.24682227871504508 1.6346579751420949 
	-0.28000000000000003 0.47573170817373878 -0.24682227871504508 1.1558777391436394 
	0 
	null_surface 
	null_surface 
	nullbs 
	nullbs 
	I I 
	0 
	0 
	0 
	F 1 F 0 } I I #
coedge $-1 $127 $48 $128 $129 forward $50 $-1 #
edge $130 $53 $131 $48 $132 forward #
coedge $-1 $49 $133 $62 $102 forward $50 $-1 #
edge $134 $52 $135 $63 $136 forward #
face $137 $138 $50 $6 $-1 $139 forward single #
ptlist-eye-attrib $-1 $-1 $51 $31 #
point $-1 0.28000000000000003 0.47573170817373878 -0.80682227871504475 #
point $-1 0.28000000000000003 0.47573170817373872 -0.24682227871504514 #
ref_vt-eye-attrib $-1 $-1 $56 $23 $3 $4 #
fmesh-eye-attrib $-1 $140 $57 $35 #
color-adesk-attrib $-1 $141 $-1 $58 256 #
face $142 $88 $143 $6 $-1 $144 forward single #
loop $-1 $145 $146 $58 #
cone-surface $-1 0 1.4444474582904269e-034 -0.016544372544488095 0 0 1 0.33067499999999983 0 0 1 I I 0.99338981839168938 -0.1147896716422106 0.33067499999999983 forward I I I I #
coedge $-1 $147 $148 $100 $149 forward $59 $-1 #
coedge $-1 $99 $99 $150 $151 reversed $61 $-1 #
coedge $-1 $105 $62 $98 $149 reversed $36 $-1 #
coedge $-1 $62 $105 $103 $152 reversed $36 $-1 #
edge $153 $154 $135 $86 $155 forward #
coedge $-1 $64 $63 $101 $152 forward $24 $-1 #
coedge $-1 $156 $65 $148 $157 reversed $16 $-1 #
coedge $-1 $101 $100 $65 $106 reversed $36 $-1 #
edge $158 $108 $159 $65 $160 forward #
color-adesk-attrib $-1 $161 $-1 $66 256 #
vertex $-1 $152 $162 #
straight-curve $-1 -0.28000000000000003 0.50300000000000011 -0.80682227871504475 0 -1 6.1230317691118863e-017 I I #
coedge $-1 $67 $156 $163 $164 forward $16 $-1 #
coedge $-1 $165 $166 $67 $112 reversed $143 $-1 #
edge $167 $168 $115 $67 $169 forward #
coedge $-1 $80 $68 $166 $170 reversed $81 $-1 #
color-adesk-attrib $-1 $171 $-1 $69 256 #
vertex $-1 $69 $172 #
straight-curve $-1 -0.28000000000000003 -4.8148248609680896e-035 -0.24682227871504508 0 -1 6.1230317691118863e-017 I I #
ptlist-eye-attrib $-1 $-1 $70 $42 #
point $-1 -0.28000000000000003 0.47573170817373878 -0.24682227871504508 #
point $-1 -0.28000000000000003 0.47573170817373883 -0.80682227871504475 #
loop $-1 $173 $150 $121 #
face $174 $125 $74 $6 $-1 $175 reversed single #
ptlist-eye-attrib $-1 $-1 $75 $44 #
point $-1 -0.1875 0.49982227871504531 -0.52682227871504628 #
ptlist-eye-attrib $-1 $-1 $78 $45 #
face $176 $177 $81 $6 $-1 $60 forward single #
ptlist-eye-attrib $-1 $-1 $82 $47 #
coedge $-1 $178 $84 $179 $180 forward $50 $-1 #
coedge $-1 $166 $165 $84 $129 reversed $143 $-1 #
edge $181 $131 $182 $84 $183 forward #
color-adesk-attrib $-1 $184 $-1 $85 256 #
vertex $-1 $129 $185 #
straight-curve $-1 0.28000000000000003 -4.8148248609680896e-035 -0.24682227871504508 0 -1 6.1230317691118863e-017 I I #
coedge $-1 $86 $178 $147 $186 forward $50 $-1 #
color-adesk-attrib $-1 $187 $-1 $87 256 #
vertex $-1 $102 $188 #
straight-curve $-1 0.28000000000000003 -4.8148248609680896e-035 -0.80682227871504475 0 -1 6.1230317691118863e-017 I I #
color-adesk-attrib $-1 $189 $-1 $88 256 #
face $190 $121 $191 $6 $-1 $192 reversed single #
plane-surface $-1 0.28000000000000003 0.25150000000000006 0.0031777212849549152 1 0 0 0 1 -6.1230317691118863e-017 forward_v I I I I #
ref_vt-eye-attrib $-1 $-1 $93 $35 $3 $4 #
fmesh-eye-attrib $-1 $193 $94 $58 #
color-adesk-attrib $-1 $194 $-1 $95 256 #
loop $-1 $-1 $165 $95 #
plane-surface $-1 0 0.25150000000000006 -0.27682227871504445 0 1 -6.1230317691118863e-017 -1 0 0 forward_v I I I I #
loop $-1 $-1 $195 $58 #
coedge $-1 $146 $146 $196 $197 reversed $96 $-1 #
coedge $-1 $198 $98 $133 $186 reversed $59 $-1 #
coedge $-1 $98 $198 $104 $157 forward $59 $-1 #
edge $199 $159 $154 $98 $200 forward #
coedge $-1 $150 $150 $99 $151 forward $120 $-1 #
edge $201 $202 $202 $150 $203 forward #
edge $204 $135 $108 $103 $205 forward #
color-adesk-attrib $-1 $206 $-1 $102 256 #
vertex $-1 $102 $207 #
intcurve-curve $-1 forward { exactcur nurbs 2 open 2 
	0.092403272809430156 2 0.74091790102598742 2 
	0.28000000000000003 -0.47573170817373867 -0.24682227871504503 1.155877739143637 
	0.28000000000000003 -0.49861013418855649 -0.52682227871504494 1.6346579751420889 
	0.28000000000000003 -0.47573170817373867 -0.80682227871504475 1.1558777391436368 
	0 
	null_surface 
	null_surface 
	nullbs 
	nullbs 
	I I 
	0 
	0 
	0 
	F 1 F 0 } I I #
coedge $-1 $110 $104 $208 $209 forward $16 $-1 #
edge $210 $211 $159 $148 $116 forward #
color-adesk-attrib $-1 $212 $-1 $106 256 #
vertex $-1 $149 $213 #
intcurve-curve $-1 forward { exactcur nurbs 2 open 2 
	0.092403272809430226 2 0.74091790102598742 2 
	-0.28000000000000003 -0.47573170817373867 -0.80682227871504475 1.1558777391436375 
	-0.28000000000000003 -0.49861013418855654 -0.52682227871504494 1.6346579751420891 
	-0.28000000000000003 -0.47573170817373867 -0.24682227871504503 1.1558777391436372 
	0 
	null_surface 
	null_surface 
	nullbs 
	nullbs 
	I I 
	0 
	0 
	0 
	F 1 F 0 } I I #
ptlist-eye-attrib $-1 $-1 $107 $66 #
point $-1 -0.28000000000000003 -0.47573170817373867 -0.80682227871504475 #
coedge $-1 $195 $214 $110 $164 reversed $145 $-1 #
edge $215 $216 $168 $110 $217 forward #
coedge $-1 $128 $111 $214 $218 forward $143 $-1 #
coedge $-1 $111 $128 $113 $170 forward $143 $-1 #
color-adesk-attrib $-1 $219 $-1 $112 256 #
vertex $-1 $112 $220 #
straight-curve $-1 -0.28000000000000003 0.25150000000000006 0.0031777212849549152 0 -6.1230317691118863e-017 -1 I I #
edge $221 $131 $115 $166 $222 forward #
ptlist-eye-attrib $-1 $-1 $114 $69 #
point $-1 -0.28000000000000003 0.25150000000000006 -0.24682227871504508 #
loop $-1 $-1 $223 $121 #
color-adesk-attrib $-1 $224 $-1 $121 256 #
cone-surface $-1 0 0.24700000000000077 -0.52682227871504494 0 -1 6.1230317691118863e-017 0.1875 0 0 1 I I 0 1 0.1875 forward I I I I #
color-adesk-attrib $-1 $225 $-1 $125 256 #
face $226 $-1 $227 $6 $-1 $228 reversed single #
coedge $-1 $133 $127 $229 $230 forward $50 $-1 #
coedge $-1 $214 $195 $127 $180 reversed $145 $-1 #
edge $231 $182 $232 $127 $233 forward #
color-adesk-attrib $-1 $234 $-1 $129 256 #
vertex $-1 $180 $235 #
straight-curve $-1 0.28000000000000003 0.25149999999999917 -0.55682227871504475 0 6.1230317691118863e-017 1 I I #
ptlist-eye-attrib $-1 $-1 $130 $85 #
point $-1 0.28000000000000003 0.25149999999999917 -0.24682227871504508 #
edge $236 $237 $154 $133 $132 forward #
ptlist-eye-attrib $-1 $-1 $134 $87 #
point $-1 0.28000000000000003 -0.47573170817373867 -0.80682227871504475 #
fmesh-eye-attrib $-1 $238 $137 $88 #
color-adesk-attrib $-1 $239 $-1 $138 256 #
loop $-1 $240 $196 $138 #
cone-surface $-1 0 -4.8148248609680896e-035 0.22317772128495511 0 0 1 0.1875 0 0 1 I I 0 1 0.1875 forward I I I I #
ref_vt-eye-attrib $-1 $-1 $141 $58 $3 $4 #
fmesh-eye-attrib $-1 $241 $142 $95 #
coedge $-1 $179 $163 $242 $243 reversed $145 $-1 #
coedge $-1 $196 $196 $146 $197 forward $191 $-1 #
edge $244 $245 $245 $196 $246 forward #
coedge $-1 $148 $147 $247 $248 reversed $59 $-1 #
color-adesk-attrib $-1 $249 $-1 $149 256 #
intcurve-curve $-1 forward { exactcur nurbs 2 open 2 
	0.092403272809430739 2 0.74091790102598709 2 
	-0.28000000000000003 -0.47573170817373867 -0.24682227871504503 1.1558777391436355 
	-2.7755575615628914e-017 -0.49861013418855649 -0.24682227871504503 1.6346579751420773 
	0.28000000000000003 -0.47573170817373867 -0.24682227871504503 1.1558777391436355 
	0 
	null_surface 
	null_surface 
	nullbs 
	nullbs 
	I I 
	0 
	0 
	0 
	F 1 F 0 } I I #
color-adesk-attrib $-1 $250 $-1 $151 256 #
vertex $-1 $151 $251 #
ellipse-curve $-1 0 -0.49982227871504514 -0.52682227871504494 0 -1 6.1230317691118863e-017 0.1875 0 0 1 I I #
color-adesk-attrib $-1 $252 $-1 $152 256 #
intcurve-curve $-1 forward { exactcur nurbs 2 open 2 
	0.092403272809430156 2 0.74091790102598754 2 
	0.28000000000000003 -0.47573170817373867 -0.80682227871504475 1.1558777391436372 
	2.4286128663675299e-017 -0.49861013418855649 -0.80682227871504475 1.6346579751420891 
	-0.28000000000000003 -0.47573170817373867 -0.80682227871504475 1.1558777391436375 
	0 
	null_surface 
	null_surface 
	nullbs 
	nullbs 
	I I 
	0 
	0 
	0 
	F 1 F 0 } I I #
ptlist-eye-attrib $-1 $-1 $153 $102 #
point $-1 0.28000000000000003 -0.47573170817373867 -0.24682227871504503 #
coedge $-1 $247 $242 $156 $209 reversed $227 $-1 #
edge $253 $211 $216 $156 $254 forward #
color-adesk-attrib $-1 $255 $-1 $157 256 #
vertex $-1 $209 $256 #
ptlist-eye-attrib $-1 $-1 $158 $106 #
point $-1 -0.28000000000000003 -0.47573170817373867 -0.24682227871504503 #
coedge $-1 $163 $179 $165 $218 reversed $145 $-1 #
color-adesk-attrib $-1 $257 $-1 $164 256 #
vertex $-1 $243 $258 #
intcurve-curve $-1 forward { exactcur nurbs 2 open 2 
	0.11670524389006738 2 0.71661592994534928 2 
	-0.28000000000000003 -0.25150000000000006 -0.021824263282341282 1.1904160208197903 
	-0.28000000000000003 3.4694469519536142e-018 -0.0024043471816747788 1.600119693465923 
	-0.28000000000000003 0.25150000000000006 -0.021824263282341282 1.1904160208197903 
	0 
	null_surface 
	null_surface 
	nullbs 
	nullbs 
	I I 
	0 
	0 
	0 
	F 1 F 0 } I I #
edge $259 $168 $182 $165 $260 forward #
ptlist-eye-attrib $-1 $-1 $167 $112 #
point $-1 -0.28000000000000003 0.25150000000000006 -0.021824263282341282 #
color-adesk-attrib $-1 $261 $-1 $170 256 #
straight-curve $-1 -0.14000000000000001 0.25150000000000006 -0.24682227871504508 -1 0 0 I I #
coedge $-1 $262 $262 $263 $264 forward $173 $-1 #
fmesh-eye-attrib $-1 $265 $174 $121 #
fmesh-eye-attrib $-1 $266 $176 $125 #
color-adesk-attrib $-1 $267 $-1 $177 256 #
loop $-1 $-1 $242 $177 #
plane-surface $-1 -0.28000000000000003 -0.25150000000000006 -0.55682227871504475 0 1 -6.1230317691118863e-017 -1 0 0 forward_v I I I I #
coedge $-1 $242 $247 $178 $230 reversed $227 $-1 #
edge $268 $232 $237 $178 $269 forward #
color-adesk-attrib $-1 $270 $-1 $180 256 #
vertex $-1 $230 $271 #
intcurve-curve $-1 forward { exactcur nurbs 2 open 2 
	0.11670524389006812 2 0.71661592994534939 2 
	0.28000000000000003 0.25149999999999922 -0.021824263282341216 1.1904160208197914 
	0.28000000000000003 -3.0531133177191805e-016 -0.0024043471816747892 1.6001196934659228 
	0.28000000000000003 -0.2515 -0.021824263282341279 1.19041602081979 
	0 
	null_surface 
	null_surface 
	nullbs 
	nullbs 
	I I 
	0 
	0 
	0 
	F 1 F 0 } I I #
ptlist-eye-attrib $-1 $-1 $181 $129 #
point $-1 0.28000000000000003 0.25149999999999922 -0.021824263282341216 #
color-adesk-attrib $-1 $272 $-1 $186 256 #
vertex $-1 $186 $273 #
ref_vt-eye-attrib $-1 $-1 $189 $88 $3 $4 #
fmesh-eye-attrib $-1 $274 $190 $138 #
loop $-1 $-1 $263 $138 #
ref_vt-eye-attrib $-1 $-1 $194 $95 $3 $4 #
coedge $-1 $208 $229 $195 $243 forward $227 $-1 #
edge $275 $232 $216 $242 $276 forward #
color-adesk-attrib $-1 $277 $-1 $197 256 #
vertex $-1 $197 $278 #
ellipse-curve $-1 0 0 0 0 0 1 0.1875 0 0 1 I I #
coedge $-1 $229 $208 $198 $248 forward $227 $-1 #
edge $279 $211 $237 $247 $280 forward #
ptlist-eye-attrib $-1 $-1 $199 $149 #
ptlist-eye-attrib $-1 $-1 $201 $151 #
point $-1 -0.1875 -0.49982227871504514 -0.52682227871504361 #
ptlist-eye-attrib $-1 $-1 $204 $152 #
color-adesk-attrib $-1 $281 $-1 $209 256 #
straight-curve $-1 -0.28000000000000003 -0.25150000000000006 0.0031777212849549152 0 6.1230317691118863e-017 1 I I #
ptlist-eye-attrib $-1 $-1 $210 $157 #
point $-1 -0.28000000000000003 -0.25150000000000006 -0.24682227871504508 #
ptlist-eye-attrib $-1 $-1 $215 $164 #
point $-1 -0.28000000000000003 -0.25150000000000006 -0.021824263282341282 #
color-adesk-attrib $-1 $282 $-1 $218 256 #
intcurve-curve $-1 forward { exactcur nurbs 2 open 2 
	0.098184686236317875 2 0.77114404234237111 2 
	-0.28000000000000003 0.25150000000000006 -0.021824263282341282 1.1990593403214951 
	1.0408340855860843e-017 0.25150000000000006 0.0022463653876626201 1.7943800234956011 
	0.28000000000000003 0.25149999999999922 -0.021824263282341216 1.1990593403214949 
	0 
	null_surface 
	null_surface 
	nullbs 
	nullbs 
	I I 
	0 
	0 
	0 
	F 1 F 0 } I I #
ptlist-eye-attrib $-1 $-1 $221 $170 #
coedge $-1 $223 $223 $283 $284 forward $173 $-1 #
coedge $-1 $283 $283 $223 $264 reversed $240 $-1 #
edge $285 $286 $287 $223 $288 forward #
ref_vt-eye-attrib $-1 $-1 $224 $121 $3 $4 #
ref_vt-eye-attrib $-1 $-1 $225 $125 $3 $4 #
fmesh-eye-attrib $-1 $289 $226 $177 #
color-adesk-attrib $-1 $290 $-1 $230 256 #
straight-curve $-1 0.28000000000000003 -0.25150000000000006 -0.55682227871504475 0 -6.1230317691118863e-017 -1 I I #
ptlist-eye-attrib $-1 $-1 $231 $180 #
point $-1 0.28000000000000003 -0.2515 -0.021824263282341279 #
ptlist-eye-attrib $-1 $-1 $236 $186 #
point $-1 0.28000000000000003 -0.25150000000000006 -0.24682227871504508 #
ref_vt-eye-attrib $-1 $-1 $239 $138 $3 $4 #
color-adesk-attrib $-1 $291 $-1 $243 256 #
intcurve-curve $-1 forward { exactcur nurbs 2 open 2 
	0.098184686236317889 2 0.77114404234237088 2 
	0.28000000000000003 -0.2515 -0.021824263282341279 1.1990593403214951 
	5.5511151231257827e-017 -0.25150000000000006 0.0022463653876626157 1.7943800234956009 
	-0.28000000000000003 -0.25150000000000006 -0.021824263282341282 1.1990593403214953 
	0 
	null_surface 
	null_surface 
	nullbs 
	nullbs 
	I I 
	0 
	0 
	0 
	F 1 F 0 } I I #
ptlist-eye-attrib $-1 $-1 $244 $197 #
point $-1 -0.1875 1.3093062604160183e-015 0 #
color-adesk-attrib $-1 $292 $-1 $248 256 #
straight-curve $-1 -0.28000000000000003 -0.25150000000000006 -0.24682227871504508 1 0 0 I I #
ptlist-eye-attrib $-1 $-1 $253 $209 #
ptlist-eye-attrib $-1 $-1 $259 $218 #
coedge $-1 $263 $263 $262 $284 reversed $240 $-1 #
edge $293 $287 $286 $262 $294 forward #
color-adesk-attrib $-1 $295 $-1 $264 256 #
vertex $-1 $264 $296 #
vertex $-1 $264 $297 #
ellipse-curve $-1 0 -4.8148248609680896e-035 -0.52682227871504494 0 0.70710678118654757 0.70710678118654757 0 0.1875 -0.1875 0.70710678118654757 I I #
ref_vt-eye-attrib $-1 $-1 $267 $177 $3 $4 #
ptlist-eye-attrib $-1 $-1 $268 $230 #
ptlist-eye-attrib $-1 $-1 $275 $243 #
ptlist-eye-attrib $-1 $-1 $279 $248 #
color-adesk-attrib $-1 $298 $-1 $284 256 #
ellipse-curve $-1 0 -4.8148248609680896e-035 -0.52682227871504494 0 -0.70710678118654757 0.70710678118654757 0 0.1875 0.1875 0.70710678118654757 I I #
ptlist-eye-attrib $-1 $-1 $285 $264 #
point $-1 -0.1875 -4.8148248609680896e-035 -0.52682227871504494 #
point $-1 0.1875 -4.8148248609680896e-035 -0.52682227871504494 #
ptlist-eye-attrib $-1 $-1 $293 $284 #
