400 0 1 0           
7 Unknown 11 ACIS 6.0 NT 24 Mon Jan 21 08:36:46 2002 
25.399999999999999 9.9999999999999995e-007 1e-010 
body $-1 $1 $-1 $-1 #
lump $-1 $-1 $2 $0 #
shell $-1 $-1 $-1 $3 $-1 $1 #
face $-1 $4 $5 $2 $-1 $6 forward single #
face $-1 $7 $8 $2 $-1 $9 forward single #
loop $-1 $-1 $10 $3 #
cone-surface $-1 0.51438528084505153 -0.65440441438159169 0 0 0 1 0.0070710678118654129 -0.0070710678118655361 0 1 I I 0 1 0.01 forward I I I I #
face $-1 $11 $12 $2 $-1 $13 forward single #
loop $-1 $14 $15 $4 #
plane-surface $-1 0.14938528084505145 0.085595585618408299 0.99999999999999989 0 0 1 0.39370078740157477 0 0 forward_v I I I I #
coedge $-1 $16 $17 $18 $19 forward $5 $-1 #
face $-1 $20 $21 $2 $-1 $22 forward single #
loop $-1 $-1 $23 $7 #
plane-surface $-1 0.52438528084505143 0.83559558561840808 0 1 1.1655884772967525e-016 0 0 0 -0.39370078740157477 forward_v I I I I #
loop $-1 $-1 $18 $4 #
coedge $-1 $24 $25 $26 $27 forward $8 $-1 #
coedge $-1 $28 $10 $29 $30 forward $5 $-1 #
coedge $-1 $10 $28 $23 $31 forward $5 $-1 #
coedge $-1 $32 $33 $10 $19 reversed $14 $-1 #
edge $-1 $34 $35 $18 $36 forward #
face $-1 $37 $38 $2 $-1 $39 forward single #
loop $-1 $-1 $40 $11 #
cone-surface $-1 0.51438528084505131 0.82559558561840818 0 0 0 1 0.0070710678118654129 0.0070710678118655361 0 1 I I 0 1 0.01 forward I I I I #
coedge $-1 $41 $42 $17 $31 reversed $12 $-1 #
coedge $-1 $43 $15 $44 $45 forward $8 $-1 #
coedge $-1 $15 $43 $46 $47 forward $8 $-1 #
coedge $-1 $48 $49 $15 $27 reversed $50 $-1 #
edge $51 $52 $53 $15 $54 forward #
coedge $-1 $17 $16 $55 $56 forward $5 $-1 #
coedge $-1 $57 $58 $16 $30 reversed $59 $-1 #
edge $-1 $35 $60 $29 $61 forward #
edge $-1 $62 $34 $23 $63 forward #
coedge $-1 $64 $18 $42 $65 reversed $14 $-1 #
coedge $-1 $18 $66 $57 $67 reversed $14 $-1 #
vertex $-1 $31 $68 #
vertex $-1 $67 $69 #
ellipse-curve $-1 0.51438528084505153 -0.65440441438159169 0.99999999999999989 0 0 -1 0.0070710678118654129 -0.0070710678118655361 0 1 I I #
face $-1 $70 $71 $2 $-1 $72 forward single #
loop $-1 $-1 $73 $20 #
cone-surface $-1 -0.21561471915494837 -0.65440441438159158 0 0 0 1 -0.0070710678118654745 -0.0070710678118654745 0 1 I I 0 1 0.0099999999999999985 forward I I I I #
coedge $-1 $74 $75 $64 $76 forward $21 $-1 #
coedge $-1 $77 $23 $78 $79 forward $12 $-1 #
coedge $-1 $23 $77 $32 $65 forward $12 $-1 #
coedge $-1 $25 $24 $80 $81 forward $8 $-1 #
coedge $-1 $82 $83 $24 $45 reversed $84 $-1 #
edge $85 $53 $86 $24 $87 forward #
coedge $-1 $88 $89 $25 $47 reversed $90 $-1 #
edge $91 $92 $52 $25 $93 forward #
coedge $-1 $94 $26 $89 $95 reversed $50 $-1 #
coedge $-1 $26 $94 $82 $96 forward $50 $-1 #
loop $-1 $-1 $26 $97 #
convexity-sys-attrib $-1 $-1 $-1 $27 #
vertex $-1 $27 $98 #
vertex $-1 $27 $99 #
straight-curve $-1 0.024385280845051257 0.71059558561840819 0.99999999999999989 0.39370078740157477 1.3766793038938019e-016 0 I I #
coedge $-1 $100 $78 $28 $56 reversed $101 $-1 #
edge $-1 $60 $62 $55 $102 forward #
coedge $-1 $103 $29 $33 $67 forward $59 $-1 #
coedge $-1 $29 $103 $100 $104 forward $59 $-1 #
loop $-1 $-1 $29 $105 #
vertex $-1 $56 $106 #
straight-curve $-1 0.51438528084505153 -0.6644044143815917 0 0 0 -0.39370078740157477 F -2.6187410000000004 F 0.078741000000000005 #
vertex $-1 $79 $107 #
straight-curve $-1 0.52438528084505154 -0.65440441438159169 0 0 0 0.39370078740157477 F -0.078741000000000005 F 2.6187410000000004 #
coedge $-1 $108 $32 $40 $76 reversed $14 $-1 #
edge $109 $110 $34 $42 $111 forward #
coedge $-1 $33 $112 $73 $113 reversed $14 $-1 #
edge $-1 $35 $114 $57 $115 forward #
point $-1 0.52438528084505154 -0.65440441438159169 0.99999999999999989 #
point $-1 0.51438528084505153 -0.6644044143815917 0.99999999999999989 #
face $-1 $97 $116 $2 $-1 $117 forward single #
loop $-1 $-1 $118 $37 #
plane-surface $-1 -0.22561471915494832 -0.66440441438159159 0 -1 -2.9139711932418813e-016 0 0 0 0.39370078740157477 forward_v I I I I #
coedge $-1 $119 $120 $66 $113 forward $38 $-1 #
coedge $-1 $121 $40 $77 $122 forward $21 $-1 #
coedge $-1 $40 $121 $123 $124 forward $21 $-1 #
edge $-1 $125 $110 $64 $126 forward #
coedge $-1 $42 $41 $74 $122 reversed $12 $-1 #
coedge $-1 $55 $127 $41 $79 reversed $101 $-1 #
edge $-1 $62 $128 $41 $129 forward #
coedge $-1 $130 $131 $43 $81 reversed $132 $-1 #
edge $133 $86 $92 $43 $134 forward #
coedge $-1 $135 $44 $49 $96 reversed $84 $-1 #
coedge $-1 $44 $135 $130 $136 forward $84 $-1 #
loop $-1 $-1 $44 $137 #
convexity-sys-attrib $-1 $-1 $-1 $45 #
vertex $-1 $45 $138 #
straight-curve $-1 0.39938528084505126 0.3980955856184083 0.99999999999999989 5.5067172155752081e-017 -0.39370078740157477 0 I I #
coedge $-1 $139 $46 $131 $140 reversed $90 $-1 #
coedge $-1 $46 $139 $48 $95 forward $90 $-1 #
loop $-1 $-1 $46 $141 #
convexity-sys-attrib $-1 $-1 $-1 $47 #
vertex $-1 $81 $142 #
straight-curve $-1 -0.10061471915494849 -0.22690441438159176 0.99999999999999989 -1.0325094779203514e-016 0.39370078740157477 0 I I #
coedge $-1 $49 $48 $143 $144 reversed $50 $-1 #
edge $145 $146 $52 $48 $147 forward #
edge $148 $149 $53 $82 $150 forward #
face $-1 $137 $50 $2 $-1 $151 reversed single #
point $-1 -0.10061471915494874 0.71059558561840819 0.99999999999999989 #
point $-1 0.39938528084505126 0.7105955856184083 0.99999999999999989 #
coedge $-1 $152 $55 $58 $104 reversed $101 $-1 #
loop $-1 $153 $55 $154 #
ellipse-curve $-1 0.51438528084505153 -0.65440441438159169 0 0 0 1 0.0070710678118654129 -0.0070710678118655361 0 1 I I #
coedge $-1 $58 $57 $120 $155 reversed $59 $-1 #
edge $156 $157 $60 $58 $158 forward #
face $-1 $154 $59 $2 $-1 $159 forward single #
point $-1 0.51438528084505153 -0.6644044143815917 0 #
point $-1 0.52438528084505154 -0.65440441438159169 0 #
coedge $-1 $160 $64 $161 $162 reversed $14 $-1 #
convexity-sys-attrib $-1 $-1 $-1 $65 #
vertex $-1 $65 $163 #
straight-curve $-1 0.52438528084505154 -0.66440441438159159 0.99999999999999989 4.5889310129793404e-017 -0.39370078740157477 0 F -3.8099999999999996 F 0 #
coedge $-1 $66 $160 $164 $165 reversed $14 $-1 #
edge $-1 $114 $166 $66 $167 forward #
vertex $-1 $113 $168 #
straight-curve $-1 -0.22561471915494832 -0.66440441438159159 0.99999999999999989 -0.39370078740157477 4.5889310129793404e-017 0 F -1.9049999999999998 F 0 #
loop $-1 $-1 $169 $70 #
cone-surface $-1 -0.21561471915494876 0.82559558561840818 0 0 0 1 -0.0070710678118654433 0.0070710678118655066 0 1 I I 0 1 0.0099999999999999985 forward I I I I #
coedge $-1 $164 $170 $119 $171 reversed $71 $-1 #
coedge $-1 $172 $73 $118 $171 forward $38 $-1 #
coedge $-1 $73 $172 $103 $155 forward $38 $-1 #
coedge $-1 $75 $74 $127 $173 forward $21 $-1 #
edge $-1 $110 $128 $77 $174 forward #
coedge $-1 $175 $161 $75 $124 reversed $176 $-1 #
edge $-1 $177 $125 $123 $178 forward #
vertex $-1 $76 $179 #
ellipse-curve $-1 0.51438528084505131 0.82559558561840818 0.99999999999999989 0 0 -1 0.0070710678118654129 0.0070710678118655361 0 1 I I #
coedge $-1 $78 $180 $121 $173 reversed $101 $-1 #
vertex $-1 $122 $181 #
straight-curve $-1 0.52438528084505154 -0.66440441438159159 0 -4.5889310129793404e-017 0.39370078740157477 0 F 0 F 3.8099999999999996 #
coedge $-1 $182 $80 $83 $136 reversed $132 $-1 #
coedge $-1 $80 $182 $88 $140 forward $132 $-1 #
loop $-1 $-1 $80 $183 #
convexity-sys-attrib $-1 $-1 $-1 $81 #
straight-curve $-1 0.27438528084505154 -0.53940441438159148 0.99999999999999989 -0.39370078740157477 -1.3766793038938022e-016 0 I I #
coedge $-1 $83 $82 $184 $185 reversed $84 $-1 #
edge $186 $187 $86 $130 $188 forward #
face $-1 $183 $84 $2 $-1 $189 reversed single #
point $-1 0.39938528084505143 -0.53940441438159148 0.99999999999999989 #
coedge $-1 $89 $88 $190 $191 reversed $90 $-1 #
edge $192 $193 $92 $88 $194 forward #
face $-1 $195 $90 $2 $-1 $196 reversed single #
point $-1 -0.10061471915494841 -0.5394044143815917 0.99999999999999989 #
coedge $-1 $190 $184 $94 $144 forward $153 $-1 #
edge $197 $149 $146 $143 $198 forward #
convexity-sys-attrib $-1 $-1 $-1 $95 #
vertex $-1 $144 $199 #
straight-curve $-1 -0.10061471915494874 0.71059558561840819 0 0 0 0.39370078740157477 I I #
convexity-sys-attrib $-1 $-1 $-1 $96 #
vertex $-1 $144 $200 #
straight-curve $-1 0.39938528084505126 0.7105955856184083 0 0 0 0.39370078740157477 I I #
plane-surface $-1 -0.10061471915494874 0.71059558561840819 0 -3.496765431890257e-016 1 0 0 0 0.39370078740157477 forward_v I I I I #
coedge $-1 $201 $100 $172 $202 reversed $101 $-1 #
loop $-1 $-1 $143 $154 #
face $-1 $-1 $101 $2 $-1 $203 reversed single #
edge $-1 $157 $114 $103 $204 forward #
convexity-sys-attrib $-1 $-1 $-1 $104 #
vertex $-1 $104 $205 #
straight-curve $-1 -0.22561471915494832 -0.66440441438159159 0 0.39370078740157477 -4.5889310129793404e-017 0 F 0 F 1.9049999999999998 #
plane-surface $-1 0.52438528084505154 -0.6644044143815917 0 -1.1655884772967525e-016 -1 0 0 0 -0.39370078740157477 forward_v I I I I #
coedge $-1 $112 $108 $169 $206 reversed $14 $-1 #
coedge $-1 $123 $207 $108 $162 forward $176 $-1 #
edge $208 $209 $125 $161 $210 forward #
point $-1 0.52438528084505143 0.82559558561840818 0.99999999999999989 #
coedge $-1 $211 $118 $112 $165 forward $71 $-1 #
edge $-1 $166 $212 $164 $213 forward #
vertex $-1 $165 $214 #
ellipse-curve $-1 -0.21561471915494837 -0.65440441438159158 0.99999999999999989 0 0 -1 -0.0070710678118654745 -0.0070710678118654745 0 1 I I #
point $-1 -0.21561471915494837 -0.66440441438159159 0.99999999999999989 #
coedge $-1 $215 $216 $160 $206 forward $116 $-1 #
coedge $-1 $118 $211 $201 $217 forward $71 $-1 #
edge $-1 $166 $218 $118 $219 forward #
coedge $-1 $120 $119 $152 $202 forward $38 $-1 #
edge $-1 $128 $177 $127 $220 forward #
straight-curve $-1 0.52438528084505143 0.82559558561840818 0 0 0 -0.39370078740157477 F -2.6187410000000004 F 0.078741000000000005 #
coedge $-1 $207 $123 $180 $221 forward $176 $-1 #
loop $-1 $-1 $123 $195 #
vertex $-1 $221 $222 #
straight-curve $-1 0.51438528084505131 0.83559558561840808 0 0 0 0.39370078740157477 F -0.078741000000000005 F 2.6187410000000004 #
point $-1 0.51438528084505131 0.83559558561840808 0.99999999999999989 #
coedge $-1 $127 $223 $175 $221 reversed $101 $-1 #
point $-1 0.52438528084505143 0.82559558561840818 0 #
coedge $-1 $131 $130 $224 $225 reversed $132 $-1 #
face $-1 $141 $132 $2 $-1 $226 reversed single #
coedge $-1 $143 $224 $135 $185 forward $153 $-1 #
edge $227 $187 $149 $184 $228 forward #
convexity-sys-attrib $-1 $-1 $-1 $136 #
vertex $-1 $185 $229 #
straight-curve $-1 0.39938528084505143 -0.53940441438159148 0 0 0 0.39370078740157477 I I #
plane-surface $-1 0.39938528084505126 0.7105955856184083 0 1 1.398706172756103e-016 0 0 0 -0.39370078740157477 forward_v I I I I #
coedge $-1 $224 $143 $139 $191 forward $153 $-1 #
edge $230 $146 $193 $190 $231 forward #
convexity-sys-attrib $-1 $-1 $-1 $140 #
vertex $-1 $225 $232 #
straight-curve $-1 -0.10061471915494841 -0.5394044143815917 0 0 0 0.39370078740157477 I I #
face $-1 $105 $176 $2 $-1 $233 forward single #
plane-surface $-1 -0.10061471915494841 -0.5394044143815917 0 -1 -2.6225740739176929e-016 0 0 0 0.39370078740157477 forward_v I I I I #
convexity-sys-attrib $-1 $-1 $-1 $144 #
straight-curve $-1 0.024385280845051267 0.71059558561840819 0 -0.39370078740157477 -1.3766793038938019e-016 0 I I #
point $-1 -0.10061471915494874 0.71059558561840819 0 #
point $-1 0.39938528084505126 0.7105955856184083 0 #
coedge $-1 $223 $152 $170 $217 reversed $101 $-1 #
edge $-1 $218 $157 $152 $234 forward #
plane-surface $-1 0.14938528084505148 0.085595585618408299 0 0 0 1 0.39370078740157477 0 0 forward_v I I I I #
straight-curve $-1 -0.21561471915494837 -0.66440441438159159 0 0 0 0.39370078740157477 F -0.078741000000000005 F 2.6187410000000004 #
point $-1 -0.21561471915494837 -0.66440441438159159 0 #
edge $-1 $212 $209 $160 $235 forward #
coedge $-1 $161 $175 $215 $236 reversed $176 $-1 #
convexity-sys-attrib $-1 $-1 $-1 $162 #
vertex $-1 $162 $237 #
straight-curve $-1 0.52438528084505143 0.83559558561840808 0.99999999999999989 0.39370078740157477 0 0 F -1.9050000000000005 F 0 #
coedge $-1 $170 $164 $216 $238 reversed $71 $-1 #
vertex $-1 $238 $239 #
straight-curve $-1 -0.22561471915494874 0.83559558561840808 0.99999999999999989 -1.1472327532448351e-016 0.39370078740157477 0 F -3.8099999999999996 F 0 #
point $-1 -0.22561471915494832 -0.65440441438159147 0.99999999999999989 #
coedge $-1 $240 $169 $207 $236 forward $116 $-1 #
coedge $-1 $169 $240 $211 $238 forward $116 $-1 #
edge $241 $242 $218 $170 $243 forward #
vertex $-1 $171 $244 #
straight-curve $-1 -0.22561471915494832 -0.65440441438159158 0 0 0 -0.39370078740157477 F -2.6187410000000004 F 0.078741000000000005 #
ellipse-curve $-1 0.51438528084505131 0.82559558561840818 0 0 0 1 0.0070710678118654129 0.0070710678118655361 0 1 I I #
edge $-1 $177 $245 $175 $246 forward #
point $-1 0.51438528084505131 0.83559558561840808 0 #
coedge $-1 $180 $201 $240 $247 reversed $101 $-1 #
coedge $-1 $184 $190 $182 $225 forward $153 $-1 #
edge $248 $193 $187 $224 $249 forward #
plane-surface $-1 0.39938528084505143 -0.53940441438159148 0 3.496765431890258e-016 -1 0 0 0 -0.39370078740157477 forward_v I I I I #
convexity-sys-attrib $-1 $-1 $-1 $185 #
straight-curve $-1 0.39938528084505132 0.3980955856184083 0 -5.5067172155752081e-017 0.39370078740157477 0 I I #
point $-1 0.39938528084505143 -0.53940441438159148 0 #
convexity-sys-attrib $-1 $-1 $-1 $191 #
straight-curve $-1 -0.10061471915494849 -0.22690441438159176 0 1.0325094779203514e-016 -0.39370078740157477 0 I I #
point $-1 -0.10061471915494841 -0.5394044143815917 0 #
plane-surface $-1 -0.22561471915494874 0.83559558561840808 0 0 1 0 0 0 0.39370078740157477 forward_v I I I I #
ellipse-curve $-1 -0.21561471915494837 -0.65440441438159158 0 0 0 1 -0.0070710678118654745 -0.0070710678118654745 0 1 I I #
ellipse-curve $-1 -0.21561471915494876 0.82559558561840818 0.99999999999999989 0 0 -1 -0.0070710678118654433 0.0070710678118655066 0 1 I I #
edge $-1 $209 $245 $207 $250 forward #
point $-1 -0.2156147191549487 0.83559558561840808 0.99999999999999989 #
edge $-1 $242 $212 $211 $251 forward #
point $-1 -0.22561471915494874 0.82559558561840818 0.99999999999999989 #
coedge $-1 $216 $215 $223 $247 forward $116 $-1 #
convexity-sys-attrib $-1 $-1 $-1 $217 #
vertex $-1 $217 $252 #
straight-curve $-1 -0.22561471915494874 0.83559558561840808 0 1.1472327532448351e-016 -0.39370078740157477 0 F 0 F 3.8099999999999996 #
point $-1 -0.22561471915494832 -0.65440441438159147 0 #
vertex $-1 $247 $253 #
straight-curve $-1 0.52438528084505143 0.83559558561840808 0 -0.39370078740157477 0 0 F 0 F 1.9050000000000005 #
edge $-1 $245 $242 $223 $254 forward #
convexity-sys-attrib $-1 $-1 $-1 $225 #
straight-curve $-1 0.27438528084505159 -0.53940441438159148 0 0.39370078740157477 1.3766793038938022e-016 0 I I #
straight-curve $-1 -0.21561471915494876 0.83559558561840808 0 0 0 -0.39370078740157477 F -2.6187410000000004 F 0.078741000000000005 #
straight-curve $-1 -0.22561471915494874 0.82559558561840818 0 0 0 0.39370078740157477 F -0.078741000000000005 F 2.6187410000000004 #
point $-1 -0.22561471915494874 0.82559558561840818 0 #
point $-1 -0.2156147191549487 0.83559558561840808 0 #
ellipse-curve $-1 -0.21561471915494876 0.82559558561840818 0 0 0 1 -0.0070710678118654433 0.0070710678118655066 0 1 I I #
End-of-ACIS-data 