400 0 1 0           
7 Unknown 11 ACIS 6.0 NT 24 Thu Dec 27 20:38:25 2001 
1 9.9999999999999995e-007 1e-010 
body $-1 $1 $-1 $-1 #
lump $-1 $-1 $2 $0 #
shell $-1 $-1 $-1 $3 $-1 $1 #
face $-1 $4 $5 $2 $-1 $6 reversed single #
face $-1 $7 $8 $2 $-1 $9 reversed single #
loop $-1 $10 $11 $3 #
cone-surface $-1 0 20.032926778453959 -161.78429182629881 0 0 1 3.1000000000000005 0 0 1 I I 0 1 3.1000000000000005 reversed I I I I #
face $-1 $12 $13 $2 $-1 $14 reversed single #
loop $-1 $15 $16 $4 #
cone-surface $-1 -30.681321244779227 -9.9670732215460411 -161.78429182629881 0 0 1 3.1000000000000005 0 0 1 I I 0 1 3.1000000000000005 reversed I I I I #
loop $-1 $-1 $17 $3 #
coedge $-1 $11 $11 $18 $19 reversed $5 $-1 #
face $-1 $20 $21 $2 $-1 $22 reversed single #
loop $-1 $23 $24 $7 #
cone-surface $-1 29.318678755220766 -9.9670732215460411 -161.78429182629881 0 0 1 3.1000000000000005 0 0 1 I I 0 1 3.1000000000000005 reversed I I I I #
loop $-1 $-1 $25 $4 #
coedge $-1 $16 $16 $26 $27 reversed $8 $-1 #
coedge $-1 $17 $17 $28 $29 reversed $10 $-1 #
coedge $-1 $18 $18 $11 $19 forward $30 $-1 #
edge $-1 $31 $31 $18 $32 forward #
face $-1 $33 $34 $2 $-1 $35 reversed single #
loop $-1 $36 $37 $12 #
cone-surface $-1 0 -9.9670732215460411 -161.78429182629881 0 0 1 3.1000000000000005 0 0 1 I I 0 1 3.1000000000000005 reversed I I I I #
loop $-1 $-1 $38 $7 #
coedge $-1 $24 $24 $39 $40 reversed $13 $-1 #
coedge $-1 $25 $25 $41 $42 reversed $15 $-1 #
coedge $-1 $26 $26 $16 $27 forward $43 $-1 #
edge $-1 $44 $44 $26 $45 forward #
coedge $-1 $28 $28 $17 $29 forward $46 $-1 #
edge $-1 $47 $47 $28 $48 forward #
loop $-1 $43 $18 $49 #
vertex $-1 $19 $50 #
ellipse-curve $-1 0 20.032926778453959 0 0 0 1 3.1000000000000005 0 0 1 I I #
face $-1 $51 $52 $2 $-1 $53 reversed single #
loop $-1 $54 $55 $20 #
cone-surface $-1 59.318678755220766 -9.9670732215460411 -161.78429182629881 0 0 1 3.1000000000000005 0 0 1 I I 0 1 3.1000000000000005 reversed I I I I #
loop $-1 $-1 $56 $12 #
coedge $-1 $37 $37 $57 $58 reversed $21 $-1 #
coedge $-1 $38 $38 $59 $60 reversed $23 $-1 #
coedge $-1 $39 $39 $24 $40 forward $61 $-1 #
edge $-1 $62 $62 $39 $63 forward #
coedge $-1 $41 $41 $25 $42 forward $64 $-1 #
edge $-1 $65 $65 $41 $66 forward #
loop $-1 $61 $26 $49 #
vertex $-1 $27 $67 #
ellipse-curve $-1 -30.681321244779227 -9.9670732215460411 0 0 0 1 3.1000000000000005 0 0 1 I I #
loop $-1 $64 $28 $68 #
vertex $-1 $29 $69 #
ellipse-curve $-1 0 20.032926778453959 5 0 0 -1 3.1000000000000005 0 0 1 I I #
face $-1 $68 $30 $2 $-1 $70 reversed single #
point $-1 -3.1000000000000005 20.032926778453959 0 #
face $-1 $71 $72 $2 $-1 $73 reversed single #
loop $-1 $74 $75 $33 #
cone-surface $-1 -60.681321244779241 -9.9670732215460411 -161.78429182629881 0 0 1 3.1000000000000005 0 0 1 I I 0 1 3.1000000000000005 reversed I I I I #
loop $-1 $-1 $76 $20 #
coedge $-1 $55 $55 $77 $78 reversed $34 $-1 #
coedge $-1 $56 $56 $79 $80 reversed $36 $-1 #
coedge $-1 $57 $57 $37 $58 forward $81 $-1 #
edge $-1 $82 $82 $57 $83 forward #
coedge $-1 $59 $59 $38 $60 forward $84 $-1 #
edge $-1 $85 $85 $59 $86 forward #
loop $-1 $81 $39 $49 #
vertex $-1 $40 $87 #
ellipse-curve $-1 29.318678755220766 -9.9670732215460411 0 0 0 1 3.1000000000000005 0 0 1 I I #
loop $-1 $84 $41 $68 #
vertex $-1 $42 $88 #
ellipse-curve $-1 -30.681321244779227 -9.9670732215460411 5 0 0 -1 3.1000000000000005 0 0 1 I I #
point $-1 -33.781321244779228 -9.9670732215460411 0 #
face $-1 $-1 $46 $2 $-1 $89 forward single #
point $-1 3.1000000000000005 20.032926778453959 5 #
plane-surface $-1 -0.68132124477922662 8.512398807007175 0 0 0 1 10 0 0 forward_v I I I I #
face $-1 $90 $91 $2 $-1 $92 forward single #
loop $-1 $93 $94 $51 #
cone-surface $-1 0 50.032926778453955 -161.78429182629881 0 0 1 3.1000000000000005 0 0 1 I I 0 1 3.1000000000000005 reversed I I I I #
loop $-1 $-1 $95 $33 #
coedge $-1 $75 $75 $96 $97 reversed $52 $-1 #
coedge $-1 $76 $76 $98 $99 reversed $54 $-1 #
coedge $-1 $77 $77 $55 $78 forward $100 $-1 #
edge $-1 $101 $101 $77 $102 forward #
coedge $-1 $79 $79 $56 $80 forward $103 $-1 #
edge $-1 $104 $104 $79 $105 forward #
loop $-1 $100 $57 $49 #
vertex $-1 $58 $106 #
ellipse-curve $-1 0 -9.9670732215460411 0 0 0 1 3.1000000000000005 0 0 1 I I #
loop $-1 $103 $59 $68 #
vertex $-1 $60 $107 #
ellipse-curve $-1 29.318678755220766 -9.9670732215460411 5 0 0 -1 3.1000000000000005 0 0 1 I I #
point $-1 26.218678755220765 -9.9670732215460411 0 #
point $-1 -27.581321244779225 -9.9670732215460411 5 #
plane-surface $-1 -0.68132124477922718 8.512398807007175 5 0 0 1 10 0 0 forward_v I I I I #
face $-1 $108 $109 $2 $-1 $110 forward single #
loop $-1 $-1 $111 $71 #
plane-surface $-1 -72.681321244779241 -21.967073221546045 0 -1 0 0 0 0 10 forward_v I I I I #
loop $-1 $-1 $112 $51 #
coedge $-1 $94 $94 $113 $114 reversed $72 $-1 #
coedge $-1 $95 $95 $115 $116 reversed $74 $-1 #
coedge $-1 $96 $96 $75 $97 forward $117 $-1 #
edge $-1 $118 $118 $96 $119 forward #
coedge $-1 $98 $98 $76 $99 forward $120 $-1 #
edge $-1 $121 $121 $98 $122 forward #
loop $-1 $117 $77 $49 #
vertex $-1 $78 $123 #
ellipse-curve $-1 59.318678755220766 -9.9670732215460411 0 0 0 1 3.1000000000000005 0 0 1 I I #
loop $-1 $120 $79 $68 #
vertex $-1 $80 $124 #
ellipse-curve $-1 0 -9.9670732215460411 5 0 0 -1 3.1000000000000005 0 0 1 I I #
point $-1 -3.1000000000000005 -9.9670732215460411 0 #
point $-1 32.418678755220768 -9.9670732215460411 5 #
face $-1 $125 $126 $2 $-1 $127 forward single #
loop $-1 $-1 $128 $90 #
plane-surface $-1 -72.681321244779241 2.0329267784539629 0 -0.70710678118654746 0.70710678118654757 0 0 0 10 forward_v I I I I #
coedge $-1 $129 $130 $131 $132 forward $91 $-1 #
coedge $-1 $112 $112 $133 $134 reversed $93 $-1 #
coedge $-1 $113 $113 $94 $114 forward $135 $-1 #
edge $-1 $136 $136 $113 $137 forward #
coedge $-1 $115 $115 $95 $116 forward $138 $-1 #
edge $-1 $139 $139 $115 $140 forward #
loop $-1 $135 $96 $49 #
vertex $-1 $97 $141 #
ellipse-curve $-1 -60.681321244779241 -9.9670732215460411 0 0 0 1 3.1000000000000005 0 0 1 I I #
loop $-1 $138 $98 $68 #
vertex $-1 $99 $142 #
ellipse-curve $-1 59.318678755220766 -9.9670732215460411 5 0 0 -1 3.1000000000000005 0 0 1 I I #
point $-1 56.218678755220765 -9.9670732215460411 0 #
point $-1 3.1000000000000005 -9.9670732215460411 5 #
face $-1 $143 $144 $2 $-1 $145 forward single #
loop $-1 $-1 $146 $108 #
plane-surface $-1 -12.681321244779236 62.032926778453955 0 0 1 0 0 0 10 forward_v I I I I #
coedge $-1 $147 $148 $149 $150 forward $109 $-1 #
coedge $-1 $151 $111 $148 $152 reversed $91 $-1 #
coedge $-1 $111 $151 $153 $154 forward $91 $-1 #
coedge $-1 $155 $149 $111 $132 reversed $156 $-1 #
edge $-1 $157 $158 $111 $159 forward #
coedge $-1 $133 $133 $112 $134 forward $160 $-1 #
edge $-1 $161 $161 $133 $162 forward #
loop $-1 $163 $113 $49 #
vertex $-1 $114 $164 #
ellipse-curve $-1 0 50.032926778453955 0 0 0 1 3.1000000000000005 0 0 1 I I #
loop $-1 $160 $115 $68 #
vertex $-1 $116 $165 #
ellipse-curve $-1 -60.681321244779241 -9.9670732215460411 5 0 0 -1 3.1000000000000005 0 0 1 I I #
point $-1 -63.781321244779235 -9.9670732215460411 0 #
point $-1 62.418678755220768 -9.9670732215460411 5 #
face $-1 $166 $167 $2 $-1 $168 forward single #
loop $-1 $-1 $169 $125 #
plane-surface $-1 11.318678755220784 62.032926778453955 0 0.70710678118654757 0.70710678118654757 0 0 0 -10 forward_v I I I I #
coedge $-1 $170 $171 $172 $173 forward $126 $-1 #
coedge $-1 $174 $128 $171 $175 reversed $109 $-1 #
coedge $-1 $128 $174 $129 $152 forward $109 $-1 #
coedge $-1 $131 $172 $128 $150 reversed $156 $-1 #
edge $-1 $158 $176 $128 $177 forward #
coedge $-1 $130 $129 $178 $179 forward $91 $-1 #
edge $-1 $180 $158 $148 $181 forward #
coedge $-1 $182 $183 $130 $154 reversed $184 $-1 #
edge $-1 $185 $157 $130 $186 forward #
coedge $-1 $187 $131 $183 $188 reversed $156 $-1 #
loop $-1 $-1 $131 $68 #
vertex $-1 $154 $189 #
vertex $-1 $152 $190 #
straight-curve $-1 -72.681321244779241 2.0329267784539629 5 0 10 0 F -2.4000000000000004 F 0 #
loop $-1 $156 $133 $68 #
vertex $-1 $134 $191 #
ellipse-curve $-1 0 50.032926778453955 5 0 0 -1 3.1000000000000005 0 0 1 I I #
loop $-1 $-1 $192 $49 #
point $-1 -3.1000000000000005 50.032926778453955 0 #
point $-1 -57.581321244779247 -9.9670732215460411 5 #
face $-1 $49 $184 $2 $-1 $193 forward single #
loop $-1 $-1 $194 $143 #
plane-surface $-1 71.318678755220773 2.0329267784539624 0 1 -3.7007434154171881e-016 0 0 0 -10 forward_v I I I I #
coedge $-1 $195 $196 $197 $198 forward $144 $-1 #
coedge $-1 $199 $146 $196 $200 reversed $126 $-1 #
coedge $-1 $146 $199 $147 $175 forward $126 $-1 #
coedge $-1 $149 $197 $146 $173 reversed $156 $-1 #
edge $-1 $176 $201 $146 $202 forward #
coedge $-1 $148 $147 $203 $204 forward $109 $-1 #
edge $-1 $205 $176 $171 $206 forward #
vertex $-1 $175 $207 #
straight-curve $-1 -12.681321244779236 62.032926778453955 5 7.0710678118654755 7.0710678118654746 0 F -8.4852813742385695 F 0 #
coedge $-1 $203 $192 $151 $179 reversed $163 $-1 #
edge $-1 $180 $185 $151 $208 forward #
vertex $-1 $204 $209 #
straight-curve $-1 -72.681321244779241 2.0329267784539629 0 0 0 10 I I #
coedge $-1 $210 $153 $192 $211 forward $184 $-1 #
coedge $-1 $153 $210 $155 $188 forward $184 $-1 #
loop $-1 $-1 $183 $166 #
vertex $-1 $211 $212 #
straight-curve $-1 -72.681321244779241 -21.967073221546045 0 0 0 10 I I #
coedge $-1 $197 $155 $194 $213 reversed $156 $-1 #
edge $-1 $214 $157 $183 $215 forward #
point $-1 -72.681321244779241 -21.967073221546045 5 #
point $-1 -72.681321244779241 2.0329267784539629 5 #
point $-1 3.1000000000000005 50.032926778453955 5 #
coedge $-1 $178 $216 $182 $211 reversed $163 $-1 #
plane-surface $-1 71.318678755220773 -21.967073221546045 0 0 -1 0 0 0 -10 forward_v I I I I #
coedge $-1 $217 $218 $187 $213 forward $167 $-1 #
coedge $-1 $219 $169 $218 $220 reversed $144 $-1 #
coedge $-1 $169 $219 $170 $200 forward $144 $-1 #
coedge $-1 $172 $187 $169 $198 reversed $156 $-1 #
edge $-1 $201 $221 $169 $222 forward #
coedge $-1 $171 $170 $223 $224 forward $126 $-1 #
edge $-1 $225 $201 $196 $226 forward #
vertex $-1 $200 $227 #
straight-curve $-1 11.318678755220784 62.032926778453955 5 10 0 0 F -2.4000000000000021 F 0 #
coedge $-1 $223 $178 $174 $204 reversed $163 $-1 #
edge $-1 $205 $180 $174 $228 forward #
vertex $-1 $224 $229 #
straight-curve $-1 -12.681321244779236 62.032926778453955 0 0 0 10 I I #
point $-1 -12.681321244779236 62.032926778453955 5 #
straight-curve $-1 -72.681321244779241 2.0329267784539629 0 0 -10 0 F 0 F 2.4000000000000004 #
point $-1 -72.681321244779241 2.0329267784539629 0 #
coedge $-1 $183 $182 $217 $230 forward $184 $-1 #
edge $-1 $185 $231 $182 $232 forward #
point $-1 -72.681321244779241 -21.967073221546045 0 #
edge $-1 $221 $214 $194 $233 forward #
vertex $-1 $230 $234 #
straight-curve $-1 -72.681321244779241 -21.967073221546045 5 -10 0 0 F -14.4 F 0 #
coedge $-1 $192 $235 $236 $237 reversed $163 $-1 #
coedge $-1 $236 $194 $210 $230 reversed $167 $-1 #
coedge $-1 $194 $236 $195 $220 forward $167 $-1 #
coedge $-1 $196 $195 $235 $238 forward $144 $-1 #
edge $-1 $239 $221 $218 $240 forward #
vertex $-1 $220 $241 #
straight-curve $-1 71.318678755220773 2.0329267784539624 5 7.0710678118654755 -7.0710678118654755 0 F -8.4852813742385695 F 0 #
coedge $-1 $235 $203 $199 $224 reversed $163 $-1 #
edge $-1 $225 $205 $199 $242 forward #
vertex $-1 $238 $243 #
straight-curve $-1 11.318678755220784 62.032926778453955 0 0 0 10 I I #
point $-1 11.318678755220784 62.032926778453955 5 #
straight-curve $-1 -12.681321244779236 62.032926778453955 0 -7.0710678118654755 -7.0710678118654746 0 F 0 F 8.4852813742385695 #
point $-1 -12.681321244779236 62.032926778453955 0 #
edge $-1 $231 $214 $210 $244 forward #
vertex $-1 $211 $245 #
straight-curve $-1 -72.681321244779241 -21.967073221546045 0 10 0 0 F 0 F 14.4 #
straight-curve $-1 71.318678755220773 -21.967073221546045 5 -3.7007434154171879e-015 -10 0 F -2.4000000000000004 F 0 #
point $-1 71.318678755220773 -21.967073221546045 5 #
coedge $-1 $216 $223 $219 $238 reversed $163 $-1 #
coedge $-1 $218 $217 $216 $237 forward $167 $-1 #
edge $-1 $231 $239 $236 $246 forward #
edge $-1 $239 $225 $219 $247 forward #
vertex $-1 $237 $248 #
straight-curve $-1 71.318678755220773 2.0329267784539624 0 0 0 10 I I #
point $-1 71.318678755220773 2.0329267784539624 5 #
straight-curve $-1 11.318678755220784 62.032926778453955 0 -10 0 0 F 0 F 2.4000000000000021 #
point $-1 11.318678755220784 62.032926778453955 0 #
straight-curve $-1 71.318678755220773 -21.967073221546045 0 0 0 10 I I #
point $-1 71.318678755220773 -21.967073221546045 0 #
straight-curve $-1 71.318678755220773 -21.967073221546045 0 3.7007434154171879e-015 10 0 F 0 F 2.4000000000000004 #
straight-curve $-1 71.318678755220773 2.0329267784539624 0 -7.0710678118654755 7.0710678118654755 0 F 0 F 8.4852813742385695 #
point $-1 71.318678755220773 2.0329267784539624 0 #
End-of-ACIS-data 