400 0 1 0           
7 Unknown 11 ACIS 6.0 NT 24 Mon Jan 21 19:59:08 2002 
25.399999999999999 9.9999999999999995e-007 1e-010 
body $-1 $1 $-1 $-1 #
lump $-1 $-1 $2 $0 #
shell $-1 $-1 $-1 $3 $-1 $1 #
face $-1 $4 $5 $2 $-1 $6 forward single #
face $-1 $7 $8 $2 $-1 $9 forward single #
loop $-1 $-1 $10 $3 #
cone-surface $-1 -0.49142377398846682 0.40402329761237693 0.88 -1 -2.8662011736805408e-016 0 0 -0.14444402816238477 0.27429167455142378 1 I I 0 1 0.31 forward I I I I #
face $-1 $11 $12 $2 $-1 $13 forward single #
loop $-1 $14 $15 $4 #
plane-surface $-1 -0.44767377398846658 0.15577500069061062 0.65500000000000014 1 1.4329096086170758e-016 8.9016556189144318e-017 3.5045888263442641e-017 0 -0.39370078740157477 forward_v I I I I #
coedge $-1 $16 $17 $18 $19 forward $5 $-1 #
face $-1 $20 $21 $2 $-1 $22 reversed single #
loop $-1 $-1 $23 $7 #
plane-surface $-1 -0.41517377398846661 -0.081724999309389396 0.71999999999999997 2.3633361312376857e-016 -0.82455347270787804 0.56578403180487402 0.39370078740157477 0 -1.6445273168892797e-016 forward_v I I I I #
loop $-1 $-1 $24 $4 #
coedge $-1 $15 $15 $25 $26 forward $8 $-1 #
coedge $-1 $27 $10 $23 $28 forward $5 $-1 #
coedge $-1 $10 $27 $29 $30 forward $5 $-1 #
coedge $-1 $31 $32 $10 $19 reversed $21 $-1 #
edge $-1 $33 $34 $18 $35 forward #
face $-1 $36 $37 $2 $-1 $38 forward single #
loop $-1 $39 $18 $11 #
plane-surface $-1 -0.56767377398846652 0.15577500069061062 0.65500000000000014 1 1.4329096086170763e-016 8.9016556189144318e-017 3.5045888263442641e-017 0 -0.39370078740157477 forward_v I I I I #
coedge $-1 $40 $41 $16 $28 reversed $12 $-1 #
coedge $-1 $42 $43 $27 $44 reversed $14 $-1 #
coedge $-1 $25 $25 $15 $26 reversed $45 $-1 #
edge $-1 $46 $46 $15 $47 forward #
coedge $-1 $17 $16 $24 $44 forward $5 $-1 #
edge $-1 $34 $48 $23 $49 forward #
coedge $-1 $50 $51 $17 $30 reversed $37 $-1 #
edge $-1 $52 $33 $29 $53 forward #
coedge $-1 $54 $18 $51 $55 reversed $21 $-1 #
coedge $-1 $18 $56 $40 $57 reversed $21 $-1 #
vertex $-1 $19 $58 #
vertex $-1 $57 $59 #
ellipse-curve $-1 -0.56767377398846663 0.40402329761237693 0.88 1 1.4329096086170763e-016 8.9016556189144318e-017 0 -0.14444402816238477 0.27429167455142378 1 I I #
face $-1 $60 $61 $2 $-1 $62 forward single #
loop $-1 $-1 $29 $20 #
plane-surface $-1 -0.56767377398846652 -0.40422499930938938 1.1899999999999999 0 0 1 0.39370078740157477 0 0 forward_v I I I I #
loop $-1 $-1 $63 $11 #
coedge $-1 $64 $23 $32 $57 forward $12 $-1 #
coedge $-1 $23 $64 $42 $65 forward $12 $-1 #
coedge $-1 $66 $24 $41 $65 reversed $14 $-1 #
coedge $-1 $24 $67 $50 $68 reversed $14 $-1 #
edge $-1 $48 $52 $24 $69 forward #
loop $-1 $-1 $25 $60 #
vertex $-1 $26 $70 #
ellipse-curve $-1 -0.44767377398846653 0.40577500069061079 0.87999999999999989 -1 -1.4329096086170758e-016 -8.9016556189144318e-017 1.1127069523643038e-017 8.6849893010077136e-034 -0.12499999999999999 1 I I #
vertex $-1 $28 $71 #
straight-curve $-1 -0.49142377398846671 0.14841172107293474 1.055393049859511 0.39370078740157477 1.1284256589293467e-016 0 F -2.6346159999999994 F 2.5520660000000008 #
coedge $-1 $72 $29 $43 $68 forward $37 $-1 #
coedge $-1 $29 $72 $31 $55 forward $37 $-1 #
vertex $-1 $68 $73 #
straight-curve $-1 -0.49142377398846682 0.40402329761237693 1.1899999999999999 -0.39370078740157477 -1.1284256589293467e-016 0 F -2.5520660000000008 F 2.6346159999999994 #
coedge $-1 $74 $31 $75 $76 reversed $21 $-1 #
edge $77 $78 $33 $51 $79 forward #
coedge $-1 $32 $80 $81 $82 reversed $21 $-1 #
edge $-1 $34 $83 $32 $84 forward #
point $-1 -0.56767377398846652 0.40402329761237693 1.1899999999999999 #
point $-1 -0.56767377398846663 0.14841172107293474 1.055393049859511 #
face $-1 $85 $86 $2 $-1 $87 reversed single #
loop $-1 $-1 $88 $36 #
cone-surface $-1 -0.56767377398846652 0.40577500069061079 0.88 1 -2.8594238711900782e-016 0 1.2362932745541538e-016 0.21920310216782973 0.21920310216782973 1 I I 0 1 0.31 forward I I I I #
coedge $-1 $63 $63 $89 $90 forward $39 $-1 #
coedge $-1 $41 $40 $91 $92 forward $12 $-1 #
edge $93 $94 $48 $42 $95 forward #
coedge $-1 $96 $42 $97 $98 reversed $14 $-1 #
coedge $-1 $43 $99 $88 $100 reversed $14 $-1 #
edge $-1 $52 $101 $50 $102 forward #
ellipse-curve $-1 -0.44767377398846669 0.40402329761237693 0.88 -1 -1.4329096086170758e-016 -8.9016556189144318e-017 0 -0.14444402816238477 0.27429167455142378 1 I I #
point $-1 -0.44767377398846669 0.40577500069061068 0.75499999999999989 #
point $-1 -0.44767377398846669 0.14841172107293474 1.055393049859511 #
coedge $-1 $51 $50 $103 $104 reversed $37 $-1 #
point $-1 -0.44767377398846658 0.40402329761237693 1.1899999999999999 #
coedge $-1 $80 $54 $105 $106 reversed $21 $-1 #
coedge $-1 $103 $107 $54 $76 forward $61 $-1 #
edge $-1 $108 $78 $54 $109 forward #
convexity-sys-attrib $-1 $-1 $-1 $55 #
vertex $-1 $55 $110 #
straight-curve $-1 -0.56767377398846663 0.71577500069061062 1.1899999999999999 6.1458897495259001e-017 -0.39370078740157477 0 F 0 F 2.8448000000000002 #
coedge $-1 $56 $74 $111 $112 forward $21 $-1 #
coedge $-1 $113 $91 $56 $82 forward $114 $-1 #
edge $-1 $83 $115 $81 $116 forward #
vertex $-1 $82 $117 #
straight-curve $-1 -0.56767377398846652 -0.058873623912640338 0.75330277964797543 6.0815215784167805e-017 -0.22274961882081656 -0.32462735145979449 I I #
face $-1 $118 $119 $2 $-1 $120 forward single #
loop $-1 $45 $89 $60 #
cone-surface $-1 -2.2715707009007304 0.40577500069061051 0.87999999999999967 1 1.4329096086170758e-016 8.9016556189144318e-017 1.1127069523643038e-017 8.6849893010077136e-034 -0.12499999999999999 1 I I 0 1 0.12499999999999999 reversed I I I I #
coedge $-1 $107 $103 $67 $100 forward $61 $-1 #
coedge $-1 $89 $89 $63 $90 reversed $86 $-1 #
edge $-1 $121 $121 $63 $122 forward #
coedge $-1 $81 $97 $64 $92 reversed $114 $-1 #
edge $-1 $83 $94 $91 $123 forward #
convexity-sys-attrib $-1 $-1 $-1 $65 #
vertex $-1 $65 $124 #
straight-curve $-1 -0.44767377398846658 -0.05887362391264029 0.75330277964797543 -6.0815215784167793e-017 0.22274961882081656 0.32462735145979449 I I #
coedge $-1 $99 $66 $125 $126 forward $14 $-1 #
coedge $-1 $91 $127 $66 $98 forward $114 $-1 #
edge $128 $129 $94 $97 $130 forward #
coedge $-1 $67 $96 $131 $132 reversed $14 $-1 #
edge $-1 $101 $133 $67 $134 forward #
vertex $-1 $104 $135 #
straight-curve $-1 -0.44767377398846669 0.71577500069061062 1.1899999999999999 -6.1458897495259001e-017 0.39370078740157477 0 F -2.8448000000000002 F 0 #
coedge $-1 $88 $75 $72 $104 forward $61 $-1 #
edge $-1 $78 $101 $72 $136 forward #
coedge $-1 $137 $138 $74 $106 forward $139 $-1 #
edge $140 $141 $108 $105 $142 forward #
coedge $-1 $75 $88 $137 $143 forward $61 $-1 #
vertex $-1 $76 $144 #
ellipse-curve $-1 -0.56767377398846652 0.40577500069061079 0.88 1 1.4329096086170763e-016 8.9016556189144318e-017 1.2362932745541538e-016 0.21920310216782973 0.21920310216782973 1 I I #
point $-1 -0.56767377398846652 0.40577500069061079 1.1899999999999999 #
coedge $-1 $145 $146 $80 $112 reversed $147 $-1 #
edge $-1 $141 $115 $80 $148 forward #
coedge $-1 $149 $81 $146 $150 reversed $114 $-1 #
loop $-1 $-1 $91 $151 #
vertex $-1 $150 $152 #
straight-curve $-1 -0.56767377398846652 -0.40422499930938938 1.1899999999999999 2.410642428784207e-017 -1.258051906734998e-033 -0.39370078740157477 F 0 F 2.7178 #
point $-1 -0.56767377398846641 -0.40422499930938938 0.25000000000000006 #
face $-1 $153 $147 $2 $-1 $154 forward single #
loop $-1 $-1 $125 $85 #
cone-surface $-1 -0.41767377398846656 0.15577500069061062 0.15000000000000002 -1.5610559963795787e-016 1 0 3.496765431890258e-017 1.748382715945129e-017 -0.030000000000000016 1 I I 0 -1 0.030000000000000016 forward I I I I #
vertex $-1 $90 $155 #
ellipse-curve $-1 -0.56767377398846652 0.40577500069061079 0.87999999999999989 1 1.4329096086170763e-016 8.9016556189144318e-017 1.1127069523643038e-017 8.6849893010077136e-034 -0.12499999999999999 1 I I #
straight-curve $-1 -0.41517377398846655 -0.40422499930938943 0.25000000000000006 0.39370078740157477 1.1284256589293464e-016 0 F -7.7889109999999997 F 7.3190110000000006 #
point $-1 -0.44767377398846642 -0.40422499930938938 0.25000000000000006 #
coedge $-1 $156 $157 $96 $126 reversed $119 $-1 #
edge $-1 $129 $158 $96 $159 forward #
coedge $-1 $97 $160 $156 $161 forward $114 $-1 #
convexity-sys-attrib $-1 $-1 $-1 $98 #
vertex $-1 $98 $162 #
straight-curve $-1 -0.44767377398846653 -0.40422499930938938 1.1899999999999999 -2.410642428784207e-017 1.258051906734998e-033 0.39370078740157477 F -2.7178 F 0 #
coedge $-1 $163 $137 $99 $132 forward $139 $-1 #
edge $-1 $133 $158 $131 $164 forward #
vertex $-1 $132 $165 #
ellipse-curve $-1 -0.44767377398846653 0.40577500069061079 0.88 -1 -1.4329096086170758e-016 -8.9016556189144318e-017 1.2362932745541538e-016 0.21920310216782973 0.21920310216782973 1 I I #
point $-1 -0.44767377398846658 0.40577500069061079 1.1899999999999999 #
straight-curve $-1 -0.56767377398846652 0.40577500069061079 1.1899999999999999 0.39370078740157477 -1.125757429602393e-016 0 F -2.4409410000000005 F 2.7457409999999993 #
coedge $-1 $131 $105 $107 $143 reversed $139 $-1 #
coedge $-1 $105 $166 $145 $167 forward $139 $-1 #
loop $-1 $-1 $137 $168 #
convexity-sys-attrib $-1 $-1 $-1 $106 #
vertex $-1 $106 $169 #
straight-curve $-1 -0.56767377398846652 0.71577500069061062 0.12 -2.410642428784207e-017 -3.7631478185806181e-033 0.39370078740157477 F 0 F 2.7178 #
edge $-1 $133 $108 $137 $170 forward #
point $-1 -0.56767377398846663 0.71577500069061062 0.88 #
coedge $-1 $171 $111 $138 $167 reversed $147 $-1 #
coedge $-1 $111 $171 $113 $150 forward $147 $-1 #
loop $-1 $-1 $111 $118 #
straight-curve $-1 -0.56767377398846652 -0.12422499930938938 0.15000000000000002 5.6413764118782527e-017 -0.39370078740157477 0 I I #
coedge $-1 $172 $113 $173 $174 forward $114 $-1 #
edge $-1 $175 $115 $146 $176 forward #
face $-1 $177 $114 $2 $-1 $178 forward single #
point $-1 -0.56767377398846652 -0.40422499930938938 0.14999999999999999 #
face $-1 $168 $179 $2 $-1 $180 forward single #
cone-surface $-1 -0.41767377398846656 0.15577500069061062 0.15000000000000002 -1.5610559963795787e-016 1 0 1.7483827159451283e-016 8.7419135797256413e-017 -0.15000000000000002 1 I I 0 1 0.15000000000000002 forward I I I I #
point $-1 -0.56767377398846652 0.40577500069061079 1.0049999999999999 #
coedge $-1 $181 $125 $127 $161 reversed $119 $-1 #
coedge $-1 $125 $181 $163 $182 forward $119 $-1 #
vertex $-1 $126 $183 #
straight-curve $-1 -0.44767377398846653 -0.12422499930938938 0.15000000000000002 -5.6413764118782503e-017 0.39370078740157477 0 I I #
coedge $-1 $127 $172 $184 $185 forward $114 $-1 #
edge $-1 $186 $129 $127 $187 forward #
point $-1 -0.44767377398846642 -0.40422499930938938 0.14999999999999999 #
coedge $-1 $188 $131 $157 $182 reversed $139 $-1 #
straight-curve $-1 -0.44767377398846658 0.71577500069061062 0.12 2.410642428784207e-017 3.7631478185806181e-033 -0.39370078740157477 F -2.7178 F 0 #
point $-1 -0.44767377398846669 0.71577500069061062 0.88 #
coedge $-1 $138 $189 $190 $191 forward $139 $-1 #
edge $-1 $192 $141 $138 $193 forward #
face $-1 $194 $139 $2 $-1 $195 forward single #
point $-1 -0.56767377398846652 0.71577500069061062 0.14999999999999999 #
straight-curve $-1 -0.56767377398846641 0.71577500069061073 0.88 -0.39370078740157477 1.125757429602393e-016 0 F -2.7457409999999993 F 2.4409410000000005 #
coedge $-1 $146 $145 $196 $197 reversed $147 $-1 #
coedge $-1 $160 $149 $198 $199 forward $114 $-1 #
coedge $-1 $196 $200 $149 $174 reversed $201 $-1 #
edge $-1 $175 $202 $149 $203 forward #
vertex $-1 $174 $204 #
ellipse-curve $-1 -0.4176737739884665 -0.40422499930938938 0.15000000000000002 -1.5610559963795787e-016 1 0 1.7483827159451283e-016 8.7419135797256413e-017 -0.15000000000000002 1 F 0 F 1.570796326794891 #
face $-1 $-1 $201 $2 $-1 $205 reversed single #
plane-surface $-1 -0.26267377398846664 -0.40422499930938927 0 2.8662011736805403e-016 -1 0 0 0 -0.39370078740157477 forward_v I I I I #
loop $-1 $-1 $206 $153 #
plane-surface $-1 -0.15522396467894456 0.15580088421082136 0.12 0 0 1 0.39370078740157477 0 0 forward_v I I I I #
coedge $-1 $157 $156 $206 $207 reversed $119 $-1 #
edge $-1 $208 $158 $157 $209 forward #
point $-1 -0.44767377398846658 0.71577500069061062 0.14999999999999999 #
coedge $-1 $210 $206 $160 $185 reversed $179 $-1 #
edge $-1 $211 $186 $160 $212 forward #
vertex $-1 $161 $213 #
ellipse-curve $-1 -0.4176737739884665 -0.40422499930938938 0.15000000000000002 -1.5610559963795787e-016 1 0 3.496765431890258e-017 1.748382715945129e-017 -0.030000000000000016 1 F -4.6623539091870053e-015 F 1.5707963267948635 #
coedge $-1 $189 $163 $214 $215 forward $139 $-1 #
coedge $-1 $166 $188 $216 $217 reversed $139 $-1 #
coedge $-1 $218 $196 $166 $191 reversed $201 $-1 #
edge $-1 $219 $192 $166 $220 forward #
vertex $-1 $197 $221 #
ellipse-curve $-1 -0.41767377398846667 0.71577500069061062 0.15000000000000002 -1.5610559963795787e-016 1 0 1.7483827159451283e-016 8.7419135797256413e-017 -0.15000000000000002 1 F 0 F 1.5707963267948966 #
face $-1 $222 $223 $2 $-1 $224 forward single #
plane-surface $-1 -0.56767377398846652 0.71577500069061073 0 2.8594238711900782e-016 1 0 0 0 0.39370078740157477 forward_v I I I I #
coedge $-1 $190 $173 $171 $197 forward $201 $-1 #
edge $-1 $175 $192 $196 $225 forward #
coedge $-1 $226 $227 $172 $199 reversed $228 $-1 #
edge $-1 $202 $211 $172 $229 forward #
coedge $-1 $173 $230 $226 $231 reversed $201 $-1 #
loop $-1 $-1 $196 $177 #
vertex $-1 $174 $232 #
straight-curve $-1 -0.56767377398846641 -0.40422499930938938 0 0.39370078740157477 1.1284256589293464e-016 0 F 0 F 0.7746999999999995 #
point $-1 -0.41767377398846633 -0.40422499930938938 2.1854783949314103e-017 #
plane-surface $-1 -0.15522396467894459 0.15580088421082131 0 0 0 1 0.39370078740157477 0 0 forward_v I I I I #
coedge $-1 $184 $214 $181 $207 forward $179 $-1 #
edge $-1 $208 $186 $206 $233 forward #
vertex $-1 $215 $234 #
ellipse-curve $-1 -0.41767377398846667 0.71577500069061062 0.15000000000000002 -1.5610559963795787e-016 1 0 3.496765431890258e-017 1.748382715945129e-017 -0.030000000000000016 1 F -4.6623539091870053e-015 F 1.5707963267948912 #
coedge $-1 $235 $184 $227 $236 reversed $179 $-1 #
vertex $-1 $199 $237 #
straight-curve $-1 -0.56767377398846641 -0.40422499930938938 0.12 -0.39370078740157477 -1.1284256589293464e-016 0 F -0.7746999999999995 F 0 #
point $-1 -0.41767377398846633 -0.40422499930938938 0.12 #
coedge $-1 $206 $238 $188 $215 reversed $179 $-1 #
edge $-1 $208 $239 $188 $240 forward #
coedge $-1 $241 $242 $189 $217 forward $223 $-1 #
edge $-1 $219 $239 $216 $243 forward #
coedge $-1 $244 $190 $242 $245 reversed $201 $-1 #
vertex $-1 $245 $246 #
straight-curve $-1 -0.26195087407830736 0.71577500069061062 0 -0.39370078740157477 1.125757429602393e-016 0 F 0 F 0.7765361657718044 #
point $-1 -0.4176737739884665 0.71577500069061062 2.1854783949314103e-017 #
face $-1 $247 $248 $2 $-1 $249 forward single #
loop $-1 $-1 $241 $194 #
plane-surface $-1 -0.26195087407830736 0.71577500069061062 0 1 0 0 0 0 -0.39370078740157477 forward_v I I I I #
straight-curve $-1 -0.41767377398846639 -0.12421205754928406 0 -6.1458897495259001e-017 0.39370078740157477 0 I I #
coedge $-1 $250 $198 $200 $231 forward $228 $-1 #
coedge $-1 $198 $250 $210 $236 forward $228 $-1 #
loop $-1 $-1 $227 $251 #
straight-curve $-1 -0.26267377398846664 -0.40422499930938927 0 0 0 0.39370078740157477 I I #
coedge $-1 $200 $252 $253 $254 reversed $201 $-1 #
edge $-1 $202 $255 $226 $256 forward #
point $-1 -0.26267377398846664 -0.40422499930938927 0 #
straight-curve $-1 -0.41767377398846633 -0.12421205754928404 0.12 6.1458897495259001e-017 -0.39370078740157477 0 I I #
point $-1 -0.4176737739884665 0.71577500069061062 0.12 #
coedge $-1 $257 $210 $258 $259 reversed $179 $-1 #
edge $-1 $260 $211 $227 $261 forward #
point $-1 -0.26267377398846664 -0.40422499930938927 0.12 #
coedge $-1 $214 $262 $241 $263 reversed $179 $-1 #
vertex $-1 $217 $264 #
straight-curve $-1 -0.26195087407830736 0.71577500069061062 0.12 0.39370078740157477 -1.125757429602393e-016 0 F -0.7765361657718044 F 0 #
coedge $-1 $265 $216 $238 $263 forward $223 $-1 #
coedge $-1 $216 $265 $218 $245 forward $223 $-1 #
straight-curve $-1 -0.26195087407830736 0.71577500069061062 0 0 0 0.39370078740157477 I I #
coedge $-1 $266 $218 $267 $268 reversed $201 $-1 #
edge $-1 $269 $219 $242 $270 forward #
point $-1 -0.26195087407830736 0.71577500069061062 0 #
face $-1 $271 $272 $2 $-1 $273 forward single #
loop $-1 $-1 $274 $222 #
cone-surface $-1 -0.12767377398846663 0.53077500069061068 0 0 0 1 0.13427710008984073 -0.013952074808532871 0 1 I I 0 -1 0.13500000000000001 forward I I I I #
coedge $-1 $227 $226 $275 $276 forward $228 $-1 #
face $-1 $151 $228 $2 $-1 $277 forward single #
coedge $-1 $230 $278 $279 $280 reversed $201 $-1 #
coedge $-1 $281 $275 $230 $254 forward $282 $-1 #
edge $-1 $255 $283 $253 $284 forward #
vertex $-1 $231 $285 #
straight-curve $-1 -0.26267377398846664 -0.40422499930938927 0 -9.3018871884716362e-017 0.39370078740157477 0 F 0 F 0.46989999999999987 #
coedge $-1 $286 $235 $287 $288 reversed $179 $-1 #
coedge $-1 $275 $281 $235 $259 forward $282 $-1 #
edge $-1 $289 $260 $258 $290 forward #
vertex $-1 $276 $291 #
straight-curve $-1 -0.26267377398846664 -0.40422499930938927 0.12 9.3018871884716362e-017 -0.39370078740157477 0 F -0.46989999999999987 F 0 #
coedge $-1 $238 $292 $274 $293 reversed $179 $-1 #
edge $-1 $239 $294 $241 $295 forward #
point $-1 -0.26195087407830736 0.71577500069061062 0.12 #
coedge $-1 $242 $241 $296 $297 reversed $223 $-1 #
coedge $-1 $298 $244 $299 $300 reversed $201 $-1 #
coedge $-1 $296 $301 $244 $268 forward $248 $-1 #
edge $-1 $302 $269 $267 $303 forward #
vertex $-1 $268 $304 #
straight-curve $-1 -0.26195087407830736 0.51682292588207801 0 0 0.39370078740157477 0 F 0 F 0.50533827001367282 #
face $-1 $305 $306 $2 $-1 $307 forward single #
loop $-1 $-1 $308 $247 #
plane-surface $-1 0.0073262260115333697 0.53077500069061068 0 -1 -1.1813396729358972e-016 0 0 0 0.39370078740157477 forward_v I I I I #
coedge $-1 $301 $296 $262 $293 forward $248 $-1 #
coedge $-1 $253 $258 $250 $276 reversed $282 $-1 #
edge $-1 $255 $260 $250 $309 forward #
plane-surface $-1 -0.26267377398846664 -0.21922499930938935 0 1 2.3626793458717959e-016 0 0 0 -0.39370078740157477 forward_v I I I I #
coedge $-1 $252 $310 $311 $312 reversed $201 $-1 #
coedge $-1 $313 $314 $252 $280 forward $315 $-1 #
edge $-1 $283 $316 $279 $317 forward #
coedge $-1 $258 $253 $314 $318 forward $282 $-1 #
loop $-1 $-1 $258 $319 #
vertex $-1 $254 $320 #
ellipse-curve $-1 -0.12767377398846663 -0.2192249993093893 0 0 0 -1 -0.13500000000000001 -4.3709567898628207e-017 0 1 F -5.2414988364466107e-032 F 3.1415926535897931 #
point $-1 -0.26267377398846664 -0.21922499930938935 0 #
coedge $-1 $321 $257 $322 $323 reversed $179 $-1 #
coedge $-1 $314 $313 $257 $288 forward $315 $-1 #
edge $-1 $324 $289 $287 $325 forward #
vertex $-1 $318 $326 #
ellipse-curve $-1 -0.12767377398846663 -0.2192249993093893 0.12 0 0 1 -0.13500000000000001 -4.3709567898628207e-017 0 1 F -3.1415926535897931 F 5.2414988364466107e-032 #
point $-1 -0.26267377398846664 -0.21922499930938935 0.12 #
coedge $-1 $262 $327 $308 $328 reversed $179 $-1 #
edge $-1 $294 $329 $274 $330 forward #
vertex $-1 $297 $331 #
straight-curve $-1 -0.26195087407830736 0.51682292588207801 0.12 0 -0.39370078740157477 0 F -0.50533827001367282 F 0 #
coedge $-1 $274 $267 $265 $297 forward $248 $-1 #
edge $-1 $269 $294 $296 $332 forward #
coedge $-1 $310 $266 $333 $334 reversed $201 $-1 #
coedge $-1 $335 $336 $266 $300 forward $272 $-1 #
edge $-1 $337 $302 $299 $338 forward #
coedge $-1 $267 $274 $335 $339 reversed $248 $-1 #
vertex $-1 $300 $340 #
ellipse-curve $-1 -0.12767377398846663 0.53077500069061068 0 0 0 -1 0.13427710008984073 -0.013952074808532871 0 1 F -0.10353356934870757 F 3.1415926535897931 #
point $-1 -0.26195087407830736 0.54472707549914356 0 #
face $-1 $341 $342 $2 $-1 $343 forward single #
loop $-1 $-1 $344 $271 #
plane-surface $-1 0.007326226011533348 0.71577500069061073 0 0 1 0 0 0 0.39370078740157477 forward_v I I I I #
coedge $-1 $336 $335 $292 $328 forward $272 $-1 #
straight-curve $-1 -0.26267377398846664 -0.21922499930938935 0 0 0 0.39370078740157477 I I #
coedge $-1 $278 $298 $345 $346 reversed $201 $-1 #
coedge $-1 $347 $348 $278 $312 forward $349 $-1 #
edge $-1 $316 $350 $311 $351 forward #
coedge $-1 $287 $279 $348 $352 forward $315 $-1 #
coedge $-1 $279 $287 $281 $318 reversed $315 $-1 #
loop $-1 $-1 $287 $353 #
vertex $-1 $280 $354 #
straight-curve $-1 0.0073262260115333697 -0.21922499930938927 0 2.3254717971179082e-016 -0.39370078740157477 0 F 0 F 0.4699000000000001 #
edge $-1 $283 $289 $281 $355 forward #
face $-1 $251 $282 $2 $-1 $356 forward single #
point $-1 0.0073262260115333697 -0.21922499930938927 0 #
coedge $-1 $327 $286 $357 $358 reversed $179 $-1 #
coedge $-1 $348 $347 $286 $323 forward $349 $-1 #
edge $-1 $359 $324 $322 $360 forward #
vertex $-1 $352 $361 #
straight-curve $-1 0.0073262260115333697 -0.21922499930938927 0.12 -2.3254717971179082e-016 0.39370078740157477 0 F -0.4699000000000001 F 0 #
point $-1 0.0073262260115333697 -0.21922499930938927 0.12 #
coedge $-1 $292 $321 $344 $362 reversed $179 $-1 #
edge $-1 $329 $363 $308 $364 forward #
vertex $-1 $339 $365 #
ellipse-curve $-1 -0.12767377398846663 0.53077500069061068 0.12 0 0 1 0.13427710008984073 -0.013952074808532871 0 1 F -3.1415926535897931 F 0.10353356934870757 #
point $-1 -0.26195087407830736 0.54472707549914356 0.12 #
straight-curve $-1 -0.26195087407830736 0.54472707549914356 0 0 0 0.39370078740157477 I I #
coedge $-1 $366 $367 $298 $334 forward $306 $-1 #
edge $-1 $368 $337 $333 $369 forward #
coedge $-1 $308 $299 $301 $339 forward $272 $-1 #
coedge $-1 $299 $308 $366 $370 reversed $272 $-1 #
vertex $-1 $334 $371 #
straight-curve $-1 0.007326226011533348 0.71577500069061073 0 4.6509435942358156e-017 -0.39370078740157477 0 F 0 F 0.46990000000000021 #
edge $-1 $302 $329 $335 $372 forward #
point $-1 0.0073262260115333697 0.53077500069061068 0 #
face $-1 $353 $349 $2 $-1 $373 forward single #
loop $-1 $-1 $357 $305 #
plane-surface $-1 0.2423262260115335 0.71577500069061073 0 1 1.5610559963795787e-016 0 0 0 -0.39370078740157477 forward_v I I I I #
coedge $-1 $367 $366 $327 $362 forward $306 $-1 #
coedge $-1 $374 $375 $310 $346 forward $342 $-1 #
edge $-1 $350 $368 $345 $376 forward #
coedge $-1 $322 $311 $375 $377 forward $349 $-1 #
coedge $-1 $311 $322 $313 $352 reversed $349 $-1 #
loop $-1 $-1 $322 $341 #
vertex $-1 $312 $378 #
straight-curve $-1 0.007326226011533479 -0.40422499930938927 0 0.39370078740157477 0 0 F 0 F 0.59690000000000054 #
edge $-1 $316 $324 $313 $379 forward #
face $-1 $319 $315 $2 $-1 $380 forward single #
point $-1 0.007326226011533479 -0.40422499930938927 0 #
straight-curve $-1 0.0073262260115333697 -0.21922499930938927 0 0 0 0.39370078740157477 I I #
cone-surface $-1 -0.12767377398846663 -0.2192249993093893 0 0 0 1 -0.13500000000000001 -4.3709567898628207e-017 0 1 I I 0 -1 0.13500000000000001 forward I I I I #
coedge $-1 $375 $374 $321 $358 forward $342 $-1 #
edge $-1 $381 $359 $357 $382 forward #
vertex $-1 $377 $383 #
straight-curve $-1 0.007326226011533479 -0.40422499930938927 0.12 -0.39370078740157477 0 0 F -0.59690000000000054 F 0 #
point $-1 0.007326226011533479 -0.40422499930938927 0.12 #
edge $-1 $363 $381 $344 $384 forward #
vertex $-1 $370 $385 #
straight-curve $-1 0.007326226011533348 0.71577500069061073 0.12 -4.6509435942358156e-017 0.39370078740157477 0 F -0.46990000000000021 F 0 #
point $-1 0.0073262260115333697 0.53077500069061068 0.12 #
coedge $-1 $344 $333 $336 $370 forward $306 $-1 #
coedge $-1 $333 $344 $374 $386 reversed $306 $-1 #
vertex $-1 $346 $387 #
straight-curve $-1 0.2423262260115335 0.71577500069061073 0 -0.39370078740157477 0 0 F 0 F 0.59690000000000043 #
edge $-1 $337 $363 $366 $388 forward #
point $-1 0.007326226011533348 0.71577500069061073 0 #
straight-curve $-1 0.0073262260115333697 0.53077500069061068 0 0 0 0.39370078740157477 I I #
plane-surface $-1 0.24232622601153367 -0.40422499930938927 0 0 -1 0 0 0 -0.39370078740157477 forward_v I I I I #
coedge $-1 $357 $345 $367 $386 forward $342 $-1 #
coedge $-1 $345 $357 $347 $377 reversed $342 $-1 #
straight-curve $-1 0.24232622601153367 -0.40422499930938927 0 -6.1458897495259001e-017 0.39370078740157477 0 F 0 F 2.8448000000000002 #
edge $-1 $350 $359 $347 $389 forward #
point $-1 0.24232622601153367 -0.40422499930938927 0 #
straight-curve $-1 0.007326226011533479 -0.40422499930938927 0 0 0 0.39370078740157477 I I #
plane-surface $-1 0.007326226011533479 -0.40422499930938927 0 -1 -5.9066983646794868e-016 0 0 0 0.39370078740157477 forward_v I I I I #
vertex $-1 $386 $390 #
straight-curve $-1 0.24232622601153367 -0.40422499930938927 0.12 6.1458897495259001e-017 -0.39370078740157477 0 F -2.8448000000000002 F 0 #
point $-1 0.24232622601153367 -0.40422499930938927 0.12 #
straight-curve $-1 0.2423262260115335 0.71577500069061073 0.12 0.39370078740157477 0 0 F -0.59690000000000043 F 0 #
point $-1 0.007326226011533348 0.71577500069061073 0.12 #
edge $-1 $368 $381 $374 $391 forward #
point $-1 0.2423262260115335 0.71577500069061073 0 #
straight-curve $-1 0.007326226011533348 0.71577500069061073 0 0 0 0.39370078740157477 I I #
straight-curve $-1 0.24232622601153367 -0.40422499930938927 0 0 0 0.39370078740157477 I I #
point $-1 0.2423262260115335 0.71577500069061073 0.12 #
straight-curve $-1 0.2423262260115335 0.71577500069061073 0 0 0 0.39370078740157477 I I #
End-of-ACIS-data 