400 0 1 0           
7 Unknown 11 ACIS 6.0 NT 24 Fri Jan 25 20:45:40 2002 
25.399999999999999 9.9999999999999995e-007 1e-010 
body $-1 $1 $-1 $-1 #
lump $-1 $-1 $2 $0 #
shell $-1 $-1 $-1 $3 $-1 $1 #
face $-1 $4 $5 $2 $-1 $6 forward single #
face $-1 $7 $8 $2 $-1 $9 forward single #
loop $-1 $-1 $10 $3 #
cone-surface $-1 0.024249902068148244 -0.006164526370592077 0.062499999999999993 0 1 0 0.044194173824159223 0 -0.044194173824159202 1 I I 0 1 0.062499999999999993 forward I I I I #
face $-1 $11 $12 $2 $-1 $13 forward single #
loop $-1 $-1 $14 $4 #
plane-surface $-1 0.086749902068148255 -0.068664526370592047 0 1 0 0 0 0 -0.39370078740157477 forward_v I I I I #
coedge $-1 $15 $16 $17 $18 forward $5 $-1 #
face $-1 $19 $20 $2 $-1 $21 forward single #
loop $-1 $22 $23 $7 #
plane-surface $-1 -0.59325009793185179 -0.068664526370592047 0 0 1 0 0 0 0.39370078740157477 forward_v I I I I #
coedge $-1 $24 $25 $16 $26 reversed $8 $-1 #
coedge $-1 $27 $10 $28 $29 forward $5 $-1 #
coedge $-1 $10 $27 $14 $26 forward $5 $-1 #
coedge $-1 $30 $31 $10 $18 reversed $32 $-1 #
edge $-1 $33 $34 $17 $35 forward #
face $-1 $36 $32 $2 $-1 $37 forward single #
loop $-1 $-1 $38 $11 #
cone-surface $-1 0.024249902068148244 -0.006164526370592071 0.4375 0 -1 0 0.04419417382415923 0 0.044194173824159202 1 I I 0 1 0.062499999999999993 forward I I I I #
loop $-1 $-1 $39 $7 #
coedge $-1 $23 $23 $40 $41 forward $12 $-1 #
coedge $-1 $42 $14 $43 $44 forward $8 $-1 #
coedge $-1 $14 $42 $30 $45 reversed $8 $-1 #
edge $-1 $46 $33 $14 $47 forward #
coedge $-1 $16 $15 $39 $48 forward $5 $-1 #
coedge $-1 $49 $50 $15 $29 reversed $51 $-1 #
edge $-1 $34 $52 $28 $53 forward #
coedge $-1 $54 $17 $25 $45 forward $32 $-1 #
coedge $-1 $17 $55 $49 $56 forward $32 $-1 #
loop $-1 $57 $17 $19 #
vertex $-1 $45 $58 #
vertex $-1 $29 $59 #
ellipse-curve $-1 0.024249902068148244 -0.19366452637059203 0.062499999999999993 0 1 0 0.044194173824159223 0 -0.044194173824159202 1 I I #
face $-1 $60 $61 $2 $-1 $62 forward single #
plane-surface $-1 0.086749902068148255 -0.19366452637059203 0 0 -1 0 0 0 -0.39370078740157477 forward_v I I I I #
coedge $-1 $63 $64 $54 $65 forward $20 $-1 #
coedge $-1 $66 $43 $27 $48 reversed $22 $-1 #
coedge $-1 $40 $40 $23 $41 reversed $67 $-1 #
edge $-1 $68 $68 $23 $69 forward #
coedge $-1 $25 $24 $63 $70 reversed $8 $-1 #
coedge $-1 $39 $71 $24 $44 reversed $22 $-1 #
edge $-1 $46 $72 $24 $73 forward #
edge $-1 $33 $74 $30 $75 forward #
vertex $-1 $44 $76 #
straight-curve $-1 0.086749902068148255 -0.006164526370592077 0.062499999999999993 0 -0.39370078740157477 0 F -0.96837600000000013 F 0.96837600000000013 #
edge $-1 $52 $46 $39 $77 forward #
coedge $-1 $78 $28 $31 $56 reversed $51 $-1 #
coedge $-1 $28 $79 $66 $80 reversed $51 $-1 #
loop $-1 $-1 $28 $81 #
vertex $-1 $80 $82 #
straight-curve $-1 0.024249902068148244 -0.006164526370592077 0 0 0.39370078740157477 0 F -0.96837600000000013 F 0.96837600000000013 #
coedge $-1 $83 $30 $38 $65 reversed $32 $-1 #
coedge $-1 $31 $83 $84 $85 reversed $32 $-1 #
edge $86 $87 $34 $31 $88 forward #
loop $-1 $-1 $89 $19 #
point $-1 0.086749902068148255 -0.19366452637059203 0.062499999999999993 #
point $-1 0.024249902068148244 -0.19366452637059203 0 #
face $-1 $90 $91 $2 $-1 $92 forward single #
loop $-1 $-1 $93 $36 #
plane-surface $-1 -0.47095051987278003 0.056335473629407905 0.49999999999999994 0 0 1 0.39370078740157477 0 0 forward_v I I I I #
coedge $-1 $94 $38 $42 $70 forward $20 $-1 #
coedge $-1 $38 $94 $93 $95 forward $20 $-1 #
edge $-1 $96 $74 $54 $97 forward #
coedge $-1 $98 $39 $50 $80 forward $22 $-1 #
loop $-1 $-1 $40 $99 #
vertex $-1 $41 $100 #
ellipse-curve $-1 -0.1632500979318515 -0.068664526370592074 0.24999999999999997 0 -1 0 0.12499999999999999 0 0 1 I I #
edge $-1 $74 $72 $42 $101 forward #
coedge $-1 $43 $102 $94 $103 reversed $22 $-1 #
vertex $-1 $103 $104 #
straight-curve $-1 0.086749902068148255 -0.068664526370592047 0 0 0 0.39370078740157477 I I #
vertex $-1 $65 $105 #
straight-curve $-1 0.086749902068148255 -0.19366452637059203 0 0 0 0.39370078740157477 I I #
point $-1 0.086749902068148255 -0.068664526370592047 0.062499999999999993 #
ellipse-curve $-1 0.024249902068148244 -0.068664526370592047 0.062499999999999993 0 -1 0 0.044194173824159223 0 -0.044194173824159202 1 I I #
coedge $-1 $106 $49 $107 $108 reversed $51 $-1 #
coedge $-1 $50 $109 $110 $111 reversed $51 $-1 #
edge $-1 $52 $112 $66 $113 forward #
face $-1 $-1 $51 $2 $-1 $114 reversed single #
point $-1 0.024249902068148244 -0.068664526370592047 0 #
coedge $-1 $55 $54 $115 $116 forward $32 $-1 #
coedge $-1 $117 $107 $55 $85 forward $118 $-1 #
edge $-1 $87 $119 $84 $120 forward #
convexity-sys-attrib $-1 $-1 $-1 $56 #
vertex $-1 $108 $121 #
straight-curve $-1 -1.1032500979318516 -0.19366452637059203 0 0.39370078740157477 0 0 F 0 F 3.0225999999999997 #
coedge $-1 $89 $89 $122 $123 forward $57 $-1 #
face $-1 $124 $125 $2 $-1 $126 forward single #
loop $-1 $-1 $127 $60 #
cone-surface $-1 0.024249902068148158 0.18133547362940786 0.062499999999999993 1.7483827159451285e-016 1 0 0.044194173824159216 0 -0.044194173824159223 1 I I 0 1 0.062499999999999993 forward I I I I #
coedge $-1 $128 $115 $64 $95 reversed $61 $-1 #
coedge $-1 $64 $63 $71 $103 forward $20 $-1 #
edge $-1 $129 $96 $93 $130 forward #
vertex $-1 $116 $131 #
ellipse-curve $-1 0.024249902068148244 -0.19366452637059203 0.4375 0 1 0 0.04419417382415923 0 0.044194173824159202 1 I I #
coedge $-1 $102 $66 $132 $133 forward $22 $-1 #
face $-1 $134 $135 $2 $-1 $136 reversed single #
point $-1 -0.28825009793185147 -0.068664526370592074 0.24999999999999997 #
straight-curve $-1 0.086749902068148255 -0.006164526370592071 0.4375 0 0.39370078740157477 0 F -0.96837600000000013 F 0.96837600000000001 #
coedge $-1 $71 $98 $128 $137 forward $22 $-1 #
edge $-1 $72 $129 $71 $138 forward #
point $-1 0.086749902068148255 -0.068664526370592047 0.4375 #
point $-1 0.086749902068148255 -0.19366452637059203 0.4375 #
coedge $-1 $139 $78 $140 $141 reversed $51 $-1 #
coedge $-1 $84 $142 $78 $108 forward $118 $-1 #
edge $-1 $143 $87 $107 $144 forward #
coedge $-1 $79 $139 $145 $146 reversed $51 $-1 #
coedge $-1 $147 $132 $79 $111 forward $148 $-1 #
edge $149 $112 $150 $110 $151 forward #
vertex $-1 $80 $152 #
straight-curve $-1 0.086749902068148213 -0.068664526370592047 0 -0.39370078740157477 0 0 F 0 F 1.7272000000000001 #
plane-surface $-1 -0.47095051987277997 0.056335473629407898 0 0 0 1 0.39370078740157477 0 0 forward_v I I I I #
coedge $-1 $93 $153 $83 $116 reversed $61 $-1 #
edge $-1 $96 $119 $83 $154 forward #
coedge $-1 $142 $84 $153 $155 forward $118 $-1 #
loop $-1 $-1 $117 $156 #
vertex $-1 $85 $157 #
straight-curve $-1 -1.1032500979318516 -0.19366452637059203 0 0 0 0.39370078740157477 I I #
point $-1 -1.1032500979318516 -0.19366452637059203 0 #
coedge $-1 $122 $122 $89 $123 reversed $135 $-1 #
edge $-1 $158 $158 $89 $159 forward #
face $-1 $160 $161 $2 $-1 $162 forward single #
loop $-1 $-1 $163 $90 #
plane-surface $-1 0.086749902068148158 0.30633547362940788 0 1 -1.7483827159451285e-016 0 0 0 -0.39370078740157477 forward_v I I I I #
coedge $-1 $164 $165 $166 $167 forward $91 $-1 #
coedge $-1 $168 $93 $102 $137 reversed $61 $-1 #
vertex $-1 $95 $169 #
straight-curve $-1 0.024249902068148244 -0.006164526370592071 0.49999999999999994 0 -0.39370078740157477 0 F -0.96837600000000001 F 0.96837600000000013 #
point $-1 0.024249902068148244 -0.19366452637059203 0.49999999999999994 #
coedge $-1 $110 $170 $98 $133 reversed $148 $-1 #
edge $171 $112 $172 $98 $173 forward #
face $-1 $174 $175 $2 $-1 $136 reversed single #
loop $-1 $67 $122 $99 #
cone-surface $-1 -0.1632500979318515 -1.0778971657777112 0.24999999999999997 0 1 0 0.12499999999999999 0 0 1 I I 0 1 0.12499999999999999 reversed I I I I #
edge $176 $172 $129 $102 $177 forward #
ellipse-curve $-1 0.024249902068148244 -0.068664526370592047 0.4375 0 -1 0 0.04419417382415923 0 0.044194173824159202 1 I I #
coedge $-1 $109 $106 $165 $178 reversed $51 $-1 #
coedge $-1 $179 $166 $106 $141 forward $180 $-1 #
edge $-1 $181 $143 $140 $182 forward #
coedge $-1 $107 $117 $179 $183 reversed $118 $-1 #
vertex $-1 $108 $184 #
straight-curve $-1 -1.1032500979318516 0.30633547362940794 0 0 -0.39370078740157477 0 F 0 F 1.27 #
coedge $-1 $185 $186 $109 $146 forward $187 $-1 #
edge $188 $150 $189 $145 $190 forward #
coedge $-1 $170 $110 $186 $191 forward $148 $-1 #
loop $-1 $-1 $170 $192 #
convexity-sys-attrib $-1 $-1 $-1 $111 #
vertex $-1 $111 $193 #
straight-curve $-1 -0.59325009793185179 -0.068664526370592074 0 0 0.39370078740157477 0 F 0 F 0.63500000000000001 #
point $-1 -0.59325009793185179 -0.068664526370592047 0 #
coedge $-1 $115 $194 $117 $155 reversed $61 $-1 #
straight-curve $-1 -1.1032500979318516 -0.19366452637059203 0.49999999999999994 -0.39370078740157477 0 0 F -3.0225999999999997 F 0 #
edge $-1 $119 $195 $117 $196 forward #
face $-1 $81 $197 $2 $-1 $198 forward single #
point $-1 -1.1032500979318516 -0.19366452637059203 0.49999999999999994 #
vertex $-1 $123 $199 #
ellipse-curve $-1 -0.1632500979318515 -0.19366452637059203 0.24999999999999997 0 1 0 0.12499999999999999 0 0 1 I I #
face $-1 $200 $201 $2 $-1 $202 forward single #
loop $-1 $180 $203 $124 #
plane-surface $-1 -1.1032500979318516 0.30633547362940788 0 0 1 0 0 0 0.39370078740157477 forward_v I I I I #
coedge $-1 $204 $205 $164 $206 reversed $125 $-1 #
coedge $-1 $207 $127 $163 $206 forward $91 $-1 #
coedge $-1 $127 $207 $139 $178 forward $91 $-1 #
coedge $-1 $140 $208 $127 $167 reversed $180 $-1 #
edge $-1 $181 $209 $166 $210 forward #
coedge $-1 $211 $128 $170 $212 reversed $61 $-1 #
point $-1 0.024249902068148244 -0.068664526370592047 0.49999999999999994 #
coedge $-1 $132 $147 $168 $212 forward $148 $-1 #
convexity-sys-attrib $-1 $-1 $-1 $133 #
vertex $-1 $133 $213 #
straight-curve $-1 -0.59325009793185179 -0.068664526370592047 0 0 0 0.39370078740157477 I I #
face $-1 $192 $187 $2 $-1 $214 forward single #
loop $-1 $215 $216 $134 #
convexity-sys-attrib $-1 $-1 $-1 $137 #
straight-curve $-1 0.086749902068148213 -0.068664526370592047 0.49999999999999994 0.39370078740157477 0 0 F -1.7272000000000001 F 0 #
edge $-1 $189 $181 $139 $217 forward #
coedge $-1 $218 $140 $142 $183 forward $180 $-1 #
loop $-1 $-1 $166 $124 #
vertex $-1 $141 $219 #
straight-curve $-1 0.086749902068148213 0.30633547362940788 0 -0.39370078740157477 0 0 F 0 F 3.0225999999999997 #
edge $-1 $143 $195 $179 $220 forward #
point $-1 -1.1032500979318516 0.30633547362940788 0 #
coedge $-1 $221 $145 $207 $222 reversed $187 $-1 #
coedge $-1 $145 $223 $147 $191 reversed $187 $-1 #
loop $-1 $224 $185 $174 #
convexity-sys-attrib $-1 $-1 $-1 $146 #
vertex $-1 $178 $225 #
straight-curve $-1 -0.59325009793185179 0.18133547362940791 0 0.39370078740157477 0 0 F 0 F 1.7271999999999998 #
edge $-1 $150 $226 $147 $227 forward #
face $-1 $156 $228 $2 $-1 $229 forward single #
point $-1 -0.59325009793185179 0.18133547362940791 0 #
coedge $-1 $153 $230 $218 $231 reversed $61 $-1 #
vertex $-1 $183 $232 #
straight-curve $-1 -1.1032500979318516 0.30633547362940794 0.49999999999999994 0 0.39370078740157477 0 F -1.27 F 0 #
loop $-1 $118 $233 $156 #
plane-surface $-1 -1.1032500979318516 -0.19366452637059203 0 -1 0 0 0 0 0.39370078740157477 forward_v I I I I #
point $-1 -0.28825009793185147 -0.19366452637059203 0.24999999999999997 #
face $-1 $99 $234 $2 $-1 $235 reversed single #
loop $-1 $-1 $236 $160 #
cone-surface $-1 0.024249902068148112 0.18133547362940786 0.4375 -1.7483827159451285e-016 -1 0 0.04419417382415923 0 0.044194173824159202 1 I I 0 1 0.062499999999999993 forward I I I I #
coedge $-1 $203 $203 $237 $238 forward $161 $-1 #
coedge $-1 $239 $163 $208 $240 forward $125 $-1 #
coedge $-1 $163 $239 $221 $241 reversed $125 $-1 #
edge $-1 $209 $242 $163 $243 forward #
coedge $-1 $165 $164 $185 $222 forward $91 $-1 #
coedge $-1 $166 $244 $204 $240 reversed $180 $-1 #
vertex $-1 $240 $245 #
ellipse-curve $-1 0.024249902068148178 0.30633547362940766 0.062499999999999993 0 -1 0 0.044194173824159216 0 -0.044194173824159223 1 I I #
coedge $-1 $230 $168 $223 $246 reversed $61 $-1 #
edge $-1 $226 $172 $170 $247 forward #
point $-1 -0.59325009793185179 -0.068664526370592047 0.49999999999999994 #
plane-surface $-1 0.086749902068148144 0.18133547362940791 0 0 -1 0 0 0 -0.39370078740157477 forward_v I I I I #
loop $-1 $-1 $237 $134 #
coedge $-1 $216 $216 $248 $249 reversed $175 $-1 #
straight-curve $-1 0.024249902068148158 0.18133547362940786 0 6.8833965194690097e-017 0.39370078740157477 0 F -1.1271259999999999 F 0.80962600000000007 #
coedge $-1 $244 $179 $194 $231 forward $180 $-1 #
point $-1 0.024249902068148178 0.30633547362940788 0 #
straight-curve $-1 -1.1032500979318516 0.30633547362940788 0 0 0 0.39370078740157477 I I #
coedge $-1 $250 $185 $205 $241 forward $187 $-1 #
edge $-1 $242 $189 $185 $251 forward #
coedge $-1 $186 $250 $211 $246 forward $187 $-1 #
loop $-1 $-1 $248 $174 #
point $-1 0.024249902068148158 0.18133547362940791 0 #
vertex $-1 $191 $252 #
straight-curve $-1 -0.59325009793185179 0.18133547362940791 0 0 0 0.39370078740157477 I I #
loop $-1 $148 $253 $192 #
plane-surface $-1 -0.59325009793185179 0.18133547362940791 0 1 0 0 0 0 -0.39370078740157477 forward_v I I I I #
coedge $-1 $194 $211 $254 $255 reversed $61 $-1 #
edge $256 $195 $257 $218 $258 forward #
point $-1 -1.1032500979318516 0.30633547362940788 0.49999999999999994 #
coedge $-1 $233 $233 $259 $260 forward $197 $-1 #
loop $-1 $261 $262 $200 #
cone-surface $-1 0.28098254147526752 0.056335473629407939 0.24999999999999997 -1 0 0 0 0 0.10549999999999998 1 I I 0 1 0.10549999999999998 reversed I I I I #
coedge $-1 $254 $263 $244 $264 forward $201 $-1 #
coedge $-1 $237 $237 $203 $238 reversed $215 $-1 #
edge $-1 $265 $265 $203 $266 forward #
coedge $-1 $205 $204 $263 $267 reversed $125 $-1 #
edge $-1 $209 $268 $204 $269 forward #
edge $-1 $242 $270 $221 $271 forward #
vertex $-1 $241 $272 #
straight-curve $-1 0.086749902068148144 0.18133547362940786 0.062499999999999993 -6.8833965194690097e-017 -0.39370078740157477 0 F -0.80962600000000007 F 1.1271259999999999 #
coedge $-1 $208 $218 $236 $264 reversed $180 $-1 #
point $-1 0.086749902068148158 0.30633547362940788 0.062499999999999993 #
edge $-1 $273 $226 $223 $274 forward #
straight-curve $-1 -0.59325009793185179 -0.068664526370592074 0.49999999999999994 0 -0.39370078740157477 0 F -0.63500000000000001 F 0 #
coedge $-1 $248 $248 $216 $249 forward $224 $-1 #
edge $275 $276 $276 $248 $277 forward #
coedge $-1 $223 $221 $278 $279 reversed $187 $-1 #
ellipse-curve $-1 0.024249902068148158 0.18133547362940791 0.062499999999999993 0 1 0 0.044194173824159216 0 -0.044194173824159223 1 I I #
point $-1 -0.59325009793185179 0.18133547362940791 0.49999999999999994 #
coedge $-1 $253 $253 $262 $280 forward $228 $-1 #
coedge $-1 $278 $236 $230 $255 forward $201 $-1 #
edge $-1 $257 $273 $230 $281 forward #
convexity-sys-attrib $-1 $-1 $-1 $231 #
vertex $-1 $264 $282 #
straight-curve $-1 0.086749902068148213 0.30633547362940788 0.49999999999999994 0.39370078740157477 0 0 F -3.0225999999999997 F 0 #
coedge $-1 $259 $259 $233 $260 reversed $261 $-1 #
edge $-1 $283 $283 $233 $284 forward #
loop $-1 $-1 $259 $200 #
coedge $-1 $262 $262 $253 $280 reversed $234 $-1 #
coedge $-1 $236 $278 $239 $267 forward $201 $-1 #
edge $-1 $268 $257 $244 $285 forward #
vertex $-1 $238 $286 #
ellipse-curve $-1 -0.1632500979318515 0.30633547362940794 0.24999999999999997 0 -1 0 0.12499999999999999 0 0 1 I I #
edge $-1 $270 $268 $239 $287 forward #
vertex $-1 $264 $288 #
straight-curve $-1 0.086749902068148158 0.30633547362940788 0 0 0 0.39370078740157477 I I #
vertex $-1 $267 $289 #
straight-curve $-1 0.086749902068148144 0.18133547362940791 0 0 0 0.39370078740157477 I I #
point $-1 0.086749902068148144 0.18133547362940791 0.062499999999999993 #
vertex $-1 $246 $290 #
straight-curve $-1 -0.59325009793185179 0.18133547362940791 0.49999999999999994 -0.39370078740157477 0 0 F -1.7271999999999998 F 0 #
convexity-sys-attrib $-1 $-1 $-1 $249 #
vertex $-1 $249 $291 #
ellipse-curve $-1 -0.1632500979318515 0.18133547362940783 0.24999999999999997 0 1 0 0.12499999999999999 0 0 1 I I #
coedge $-1 $263 $254 $250 $279 forward $201 $-1 #
edge $-1 $273 $270 $250 $292 forward #
edge $-1 $293 $293 $253 $294 forward #
straight-curve $-1 0.024249902068148112 0.18133547362940786 0.49999999999999994 -6.8833965194690097e-017 -0.39370078740157477 0 F -0.80962600000000007 F 1.1271259999999999 #
point $-1 0.024249902068148137 0.30633547362940788 0.49999999999999994 #
vertex $-1 $260 $295 #
ellipse-curve $-1 -1.1032500979318516 0.056335473629407939 0.24999999999999997 1 0 0 0 0 0.10549999999999998 1 I I #
ellipse-curve $-1 0.024249902068148137 0.30633547362940766 0.4375 0 -1 0 0.04419417382415923 0 0.044194173824159202 1 I I #
point $-1 -0.038250097931851551 0.30633547362940788 0.24999999999999997 #
straight-curve $-1 0.086749902068148144 0.18133547362940786 0.4375 6.8833965194690097e-017 0.39370078740157477 0 F -1.1271259999999999 F 0.80962600000000007 #
point $-1 0.086749902068148158 0.30633547362940788 0.4375 #
point $-1 0.086749902068148144 0.18133547362940791 0.4375 #
point $-1 0.024249902068148158 0.18133547362940791 0.49999999999999994 #
point $-1 -0.28825009793185147 0.18133547362940783 0.24999999999999997 #
ellipse-curve $-1 0.024249902068148112 0.18133547362940794 0.4375 0 1 0 0.04419417382415923 0 0.044194173824159202 1 I I #
vertex $-1 $280 $296 #
ellipse-curve $-1 -0.59325009793185179 0.056335473629407939 0.24999999999999997 -1 0 0 0 0 0.10549999999999998 1 I I #
point $-1 -1.1032500979318516 0.056335473629407939 0.35549999999999998 #
point $-1 -0.59325009793185179 0.056335473629407939 0.14449999999999999 #
End-of-ACIS-data 