400 0 1 0           
7 Unknown 11 ACIS 6.0 NT 24 Mon Dec 31 17:56:08 2001 
25.399999999999999 9.9999999999999995e-007 1e-010 
body $-1 $1 $-1 $-1 #
lump $-1 $-1 $2 $0 #
shell $-1 $-1 $-1 $3 $-1 $1 #
face $-1 $4 $5 $2 $-1 $6 forward single #
face $-1 $7 $8 $2 $-1 $9 reversed single #
loop $-1 $10 $11 $3 #
torus-surface $-1 -0.13749999999999984 -2.949997747413297e-016 1.2499999999999998 1 2.3311769545935045e-016 0 0.24999999999999997 0.062499999999999993 0 0 -1 forward_v I I I I #
face $-1 $12 $13 $2 $-1 $14 forward single #
loop $-1 $15 $16 $4 #
cone-surface $-1 -5.0138661279323227 -4.3709567898628207e-016 1.2499999999999998 1 2.9139711932418806e-017 0 0 0 -0.1875 1 I I 0 1 0.1875 reversed I I I I #
loop $-1 $-1 $17 $3 #
coedge $-1 $11 $11 $18 $19 forward $5 $-1 #
face $-1 $20 $21 $2 $-1 $22 forward single #
loop $-1 $23 $24 $7 #
plane-surface $-1 -0.19999999999999968 -0.75000000000000022 0.24999999999999997 -1 -2.3311769545935045e-016 0 0 0 0.39370078740157477 forward_v I I I I #
loop $-1 $-1 $18 $4 #
coedge $-1 $16 $16 $25 $26 reversed $8 $-1 #
coedge $-1 $17 $17 $27 $28 forward $10 $-1 #
coedge $-1 $18 $18 $11 $19 reversed $15 $-1 #
edge $-1 $29 $29 $18 $30 forward #
face $-1 $31 $32 $2 $-1 $33 forward single #
loop $-1 $34 $25 $12 #
torus-surface $-1 0.13749999999999984 -2.8698635395991453e-016 1.2499999999999998 -1 -2.9139711932418806e-017 0 0.24999999999999997 0.062499999999999993 0 0 1 forward_v I I I I #
loop $-1 $-1 $27 $7 #
coedge $-1 $35 $36 $37 $38 reversed $13 $-1 #
coedge $-1 $25 $25 $16 $26 forward $21 $-1 #
edge $-1 $39 $39 $16 $40 forward #
coedge $-1 $27 $27 $17 $28 reversed $23 $-1 #
edge $-1 $41 $41 $27 $42 forward #
vertex $-1 $19 $43 #
ellipse-curve $-1 -0.13749999999999984 -2.949997747413297e-016 1.2499999999999998 1 2.3311769545935045e-016 0 0 1.274862397043321e-017 -0.1875 1 I I #
face $-1 $44 $45 $2 $-1 $46 forward single #
loop $-1 $47 $48 $20 #
plane-surface $-1 0.19999999999999996 0.74999999999999967 0.24999999999999997 1 2.9139711932418806e-017 0 0 0 -0.39370078740157477 forward_v I I I I #
loop $-1 $-1 $49 $12 #
coedge $-1 $50 $24 $51 $52 reversed $13 $-1 #
coedge $-1 $24 $53 $54 $55 reversed $13 $-1 #
coedge $-1 $56 $57 $24 $38 forward $58 $-1 #
edge $-1 $59 $60 $24 $61 forward #
vertex $-1 $26 $62 #
ellipse-curve $-1 0.13749999999999984 -2.8698635395991453e-016 1.2499999999999998 -1 -2.9139711932418806e-017 0 0 -2.0017539579457887e-032 0.1875 1 I I #
vertex $-1 $28 $63 #
ellipse-curve $-1 -0.19999999999999984 -3.095696307075391e-016 1.2499999999999998 -1 -2.3311769545935045e-016 0 -3.9625731203536326e-033 1.6998165293910948e-017 -0.24999999999999997 1 I I #
point $-1 -0.13749999999999984 -3.0774839871176289e-016 1.4374999999999998 #
face $-1 $64 $65 $2 $-1 $66 forward single #
loop $-1 $-1 $67 $31 #
torus-surface $-1 -0.13749999999999965 -0.68750000000000022 0.31249999999999994 0 0 1 0.12500000000000006 -0.062499999999999972 1 0 0 forward_v I I I I #
loop $-1 $-1 $68 $20 #
coedge $-1 $69 $70 $71 $72 reversed $32 $-1 #
coedge $-1 $49 $49 $68 $73 forward $34 $-1 #
coedge $-1 $74 $35 $75 $76 reversed $13 $-1 #
coedge $-1 $77 $78 $35 $52 forward $79 $-1 #
edge $-1 $80 $59 $35 $81 forward #
coedge $-1 $36 $74 $82 $83 reversed $13 $-1 #
coedge $-1 $84 $85 $36 $55 forward $86 $-1 #
edge $-1 $60 $87 $36 $88 forward #
coedge $-1 $89 $37 $90 $91 forward $58 $-1 #
coedge $-1 $37 $89 $92 $93 forward $58 $-1 #
loop $-1 $-1 $56 $94 #
vertex $-1 $38 $95 #
vertex $-1 $38 $96 #
straight-curve $-1 -0.19999999999999976 -0.37500000000000006 0.31249999999999994 -9.1778620259586784e-017 0.39370078740157477 0 F -1.1620510000000008 F 3.0670509999999997 #
point $-1 0.13749999999999984 -2.8698635395991448e-016 1.0625 #
point $-1 -0.19999999999999984 -3.2656779600145005e-016 1.4999999999999998 #
face $-1 $97 $98 $2 $-1 $99 forward single #
loop $-1 $-1 $100 $44 #
torus-surface $-1 -0.13750000000000001 0.68749999999999967 0.31249999999999994 0 0 -1 0.12500000000000003 -0.062500000000000014 -1 0 0 forward_v I I I I #
coedge $-1 $101 $92 $102 $103 forward $45 $-1 #
coedge $-1 $68 $68 $49 $73 reversed $47 $-1 #
coedge $-1 $104 $48 $105 $106 reversed $32 $-1 #
coedge $-1 $48 $107 $108 $109 reversed $32 $-1 #
coedge $-1 $110 $111 $48 $72 forward $112 $-1 #
edge $-1 $113 $114 $48 $115 forward #
edge $-1 $116 $116 $68 $117 forward #
coedge $-1 $53 $50 $118 $119 reversed $13 $-1 #
coedge $-1 $120 $121 $50 $76 forward $122 $-1 #
edge $-1 $123 $80 $50 $124 forward #
coedge $-1 $125 $51 $126 $127 forward $79 $-1 #
coedge $-1 $51 $125 $120 $128 forward $79 $-1 #
loop $-1 $-1 $78 $129 #
vertex $-1 $52 $130 #
straight-curve $-1 -0.19999999999999968 -0.68750000000000022 0.24999999999999997 0 0 -0.39370078740157477 F -3.8608010000000004 F 0.20955099999999999 #
coedge $-1 $131 $132 $53 $83 forward $133 $-1 #
edge $-1 $87 $134 $53 $135 forward #
coedge $-1 $136 $54 $132 $137 forward $86 $-1 #
coedge $-1 $54 $136 $100 $138 forward $86 $-1 #
loop $-1 $-1 $84 $139 #
vertex $-1 $55 $140 #
straight-curve $-1 -0.20000000000000004 0.68749999999999967 0.24999999999999997 0 0 0.39370078740157477 F -0.20955099999999999 F 3.8608010000000004 #
coedge $-1 $57 $56 $141 $142 forward $58 $-1 #
coedge $-1 $100 $143 $56 $91 reversed $65 $-1 #
edge $-1 $60 $144 $56 $145 forward #
coedge $-1 $67 $126 $57 $93 reversed $45 $-1 #
edge $-1 $146 $59 $57 $147 forward #
face $-1 $129 $58 $2 $-1 $148 forward single #
point $-1 -0.19999999999999968 -0.68750000000000022 0.31249999999999994 #
point $-1 -0.20000000000000004 0.68749999999999967 0.31249999999999994 #
face $-1 $149 $150 $2 $-1 $151 forward single #
loop $-1 $-1 $152 $64 #
torus-surface $-1 0.13749999999999998 -0.68750000000000011 0.31249999999999994 0 0 1 0.12500000000000003 -0.062499999999999972 1 0 0 forward_v I I I I #
coedge $-1 $153 $90 $85 $138 reversed $65 $-1 #
coedge $-1 $126 $67 $154 $155 reversed $45 $-1 #
coedge $-1 $141 $156 $67 $103 reversed $157 $-1 #
edge $-1 $146 $158 $102 $159 forward #
coedge $-1 $160 $69 $161 $162 reversed $32 $-1 #
coedge $-1 $163 $164 $69 $106 forward $165 $-1 #
edge $-1 $166 $113 $69 $167 forward #
coedge $-1 $70 $160 $168 $169 reversed $32 $-1 #
coedge $-1 $170 $171 $70 $109 forward $172 $-1 #
edge $-1 $114 $173 $70 $174 forward #
coedge $-1 $175 $71 $171 $176 forward $112 $-1 #
coedge $-1 $71 $175 $177 $178 forward $112 $-1 #
loop $-1 $-1 $110 $179 #
vertex $-1 $72 $180 #
vertex $-1 $72 $181 #
straight-curve $-1 0.19999999999999998 -0.68750000000000022 0.24999999999999997 0 0 0.39370078740157477 F -0.20955099999999999 F 3.8608010000000004 #
vertex $-1 $73 $182 #
ellipse-curve $-1 0.19999999999999998 -2.8516512196413832e-016 1.2499999999999998 1 2.9139711932418806e-017 0 7.7774044925492635e-049 -2.669005277261052e-032 0.24999999999999997 1 I I #
coedge $-1 $183 $184 $74 $119 forward $185 $-1 #
edge $-1 $134 $123 $74 $186 forward #
coedge $-1 $187 $75 $78 $128 reversed $122 $-1 #
coedge $-1 $75 $187 $183 $188 forward $122 $-1 #
loop $-1 $-1 $121 $189 #
vertex $-1 $76 $190 #
ellipse-curve $-1 -0.19999999999999976 -0.43750000000000028 1.6874999999999998 1 2.3311769545935045e-016 0 4.1209775818471723e-017 -0.17677669529663662 0.176776695296637 1 F -1.0639878657890978 F 1.0639878657890998 #
coedge $-1 $78 $77 $191 $192 forward $79 $-1 #
coedge $-1 $92 $101 $77 $127 reversed $45 $-1 #
edge $-1 $59 $193 $77 $194 reversed #
edge $-1 $195 $80 $78 $196 forward #
face $-1 $189 $79 $2 $-1 $197 forward single #
point $-1 -0.19999999999999968 -0.68750000000000022 1.6874999999999998 #
coedge $-1 $198 $82 $184 $199 forward $133 $-1 #
coedge $-1 $82 $198 $84 $137 reversed $133 $-1 #
loop $-1 $-1 $131 $200 #
vertex $-1 $83 $201 #
ellipse-curve $-1 -0.19999999999999996 0.43749999999999972 1.6874999999999998 1 2.3311769545935045e-016 0 -4.1209775818471723e-017 0.17677669529663662 0.176776695296637 1 F -1.0639878657890998 F 1.0639878657890978 #
coedge $-1 $85 $84 $202 $203 forward $86 $-1 #
edge $-1 $87 $204 $84 $205 forward #
edge $-1 $206 $60 $85 $207 reversed #
face $-1 $200 $86 $2 $-1 $208 forward single #
point $-1 -0.20000000000000004 0.68749999999999967 1.6874999999999998 #
coedge $-1 $209 $102 $89 $142 reversed $157 $-1 #
edge $-1 $144 $146 $141 $210 forward #
coedge $-1 $90 $153 $209 $211 forward $65 $-1 #
vertex $-1 $211 $212 #
ellipse-curve $-1 -0.26250000000000007 0.68749999999999967 0.31249999999999994 0 1 0 0.062500000000000014 0 0 1 F 0 F 1.5707963267948966 #
vertex $-1 $103 $213 #
ellipse-curve $-1 -0.26249999999999968 -0.68750000000000022 0.31249999999999994 0 -1 0 0 0 -0.062499999999999972 1 F 0 F 1.5707963267948966 #
cone-surface $-1 -0.26249999999999979 -0.37500000000000006 0.31249999999999994 -2.3311769545935045e-016 1 0 0.044194173824159223 0 -0.044194173824159223 1 I I 0 -1 0.0625 forward I I I I #
face $-1 $214 $215 $2 $-1 $216 forward single #
loop $-1 $-1 $217 $97 #
torus-surface $-1 0.13749999999999996 0.68749999999999967 0.31249999999999994 0 0 1 0.12499999999999999 -0.062499999999999972 1 0 0 forward_v I I I I #
coedge $-1 $218 $219 $220 $221 forward $98 $-1 #
coedge $-1 $143 $100 $222 $223 reversed $65 $-1 #
coedge $-1 $224 $225 $101 $155 forward $226 $-1 #
edge $-1 $193 $158 $154 $227 forward #
coedge $-1 $102 $220 $224 $228 reversed $157 $-1 #
loop $-1 $-1 $229 $230 #
vertex $-1 $103 $231 #
ellipse-curve $-1 -0.13749999999999965 -0.68750000000000022 0.24999999999999997 0 0 1 -0.08838834764831853 -0.088388347648318433 0 1 F -0.78539816339744772 F 0.78539816339744895 #
coedge $-1 $107 $104 $232 $233 reversed $32 $-1 #
coedge $-1 $234 $235 $104 $162 forward $236 $-1 #
edge $-1 $237 $166 $104 $238 forward #
coedge $-1 $239 $105 $218 $240 forward $165 $-1 #
coedge $-1 $105 $239 $241 $242 forward $165 $-1 #
loop $-1 $-1 $163 $243 #
vertex $-1 $162 $244 #
straight-curve $-1 0.19999999999999996 0.37499999999999994 0.31249999999999994 1.1472327532448348e-017 -0.39370078740157477 0 F -1.1620509999999997 F 3.0670510000000011 #
coedge $-1 $245 $246 $107 $169 forward $247 $-1 #
edge $-1 $173 $248 $107 $249 forward #
coedge $-1 $250 $108 $246 $251 forward $172 $-1 #
coedge $-1 $108 $250 $110 $176 reversed $172 $-1 #
loop $-1 $-1 $170 $252 #
vertex $-1 $109 $253 #
ellipse-curve $-1 0.19999999999999998 -0.43750000000000028 1.6874999999999998 -1 -2.9139711932418806e-017 0 5.1512219773089654e-018 -0.17677669529663662 0.176776695296637 1 F -1.0639878657890998 F 1.0639878657890978 #
coedge $-1 $111 $110 $254 $255 forward $112 $-1 #
edge $-1 $114 $256 $110 $257 forward #
coedge $-1 $219 $218 $111 $178 reversed $98 $-1 #
edge $-1 $258 $113 $111 $259 reversed #
face $-1 $252 $112 $2 $-1 $260 forward single #
point $-1 0.19999999999999998 -0.68750000000000022 0.31249999999999994 #
point $-1 0.19999999999999998 -0.68750000000000022 1.6874999999999998 #
point $-1 0.19999999999999998 -2.8516512196413827e-016 0.99999999999999989 #
coedge $-1 $261 $118 $121 $188 reversed $185 $-1 #
coedge $-1 $118 $261 $131 $199 reversed $185 $-1 #
loop $-1 $-1 $184 $262 #
straight-curve $-1 -0.19999999999999976 -0.37500000000000017 1.9374999999999998 9.1778620259586784e-017 -0.39370078740157477 -2.3949873635097497e-033 F -2.0637499999999998 F 0.15875000000000017 #
coedge $-1 $121 $120 $263 $264 forward $122 $-1 #
edge $-1 $265 $123 $121 $266 forward #
face $-1 $139 $122 $2 $-1 $267 forward single #
point $-1 -0.19999999999999976 -0.43750000000000028 1.9374999999999998 #
coedge $-1 $268 $269 $125 $192 reversed $270 $-1 #
edge $-1 $193 $195 $191 $271 forward #
vertex $-1 $272 $273 #
ellipse-curve $-1 -0.13749999999999965 -0.68750000000000022 0.31249999999999994 0 0 -1 -0.062500000000000014 0 0 1 F -1.5707963267948966 F 0 #
vertex $-1 $274 $275 #
ellipse-curve $-1 -0.13749999999999965 -0.68750000000000022 1.6874999999999998 0 0 -1 0 -0.062499999999999972 0 1 F 0 F 1.5707963267948966 #
cone-surface $-1 -0.13749999999999965 -0.68750000000000022 0.24999999999999997 0 0 1 -0.04419417382415923 -0.044194173824159202 0 1 I I 0 1 0.062499999999999993 forward I I I I #
coedge $-1 $132 $131 $276 $277 forward $133 $-1 #
edge $-1 $134 $278 $131 $279 forward #
face $-1 $262 $133 $2 $-1 $280 forward single #
point $-1 -0.19999999999999996 0.43749999999999972 1.9374999999999998 #
coedge $-1 $281 $282 $136 $203 reversed $283 $-1 #
edge $-1 $204 $206 $202 $284 forward #
vertex $-1 $277 $285 #
ellipse-curve $-1 -0.13750000000000001 0.68749999999999967 1.6874999999999998 0 0 -1 -0.062500000000000014 0 0 1 F 0 F 1.5707963267948966 #
vertex $-1 $286 $287 #
ellipse-curve $-1 -0.13750000000000001 0.68749999999999967 0.31249999999999994 0 0 -1 0 0.062499999999999972 0 1 F -1.5707963267948966 F 0 #
cone-surface $-1 -0.13750000000000001 0.68749999999999967 0.24999999999999997 0 0 1 -0.04419417382415923 0.044194173824159202 0 1 I I 0 1 0.062499999999999993 forward I I I I #
coedge $-1 $288 $141 $143 $211 reversed $157 $-1 #
straight-curve $-1 -0.26249999999999979 -0.37500000000000006 0.24999999999999997 9.1778620259586784e-017 -0.39370078740157477 0 F -3.0670509999999997 F 1.1620510000000008 #
edge $-1 $289 $144 $209 $290 forward #
point $-1 -0.26250000000000007 0.68749999999999967 0.24999999999999997 #
point $-1 -0.26249999999999968 -0.68750000000000022 0.24999999999999997 #
face $-1 $291 $236 $2 $-1 $292 forward single #
loop $-1 $-1 $293 $149 #
cone-surface $-1 -0.10000000000000007 0.81249999999999967 0.31249999999999994 1 0 0 0 -0.044194173824159223 -0.044194173824159223 1 I I 0 -1 0.0625 forward I I I I #
coedge $-1 $294 $241 $229 $295 forward $150 $-1 #
coedge $-1 $177 $152 $163 $240 reversed $98 $-1 #
coedge $-1 $152 $177 $296 $297 reversed $98 $-1 #
coedge $-1 $156 $298 $152 $221 reversed $157 $-1 #
edge $-1 $299 $300 $220 $301 forward #
coedge $-1 $302 $303 $153 $223 forward $215 $-1 #
edge $-1 $289 $206 $222 $304 forward #
coedge $-1 $296 $154 $156 $228 forward $226 $-1 #
coedge $-1 $154 $296 $268 $272 forward $226 $-1 #
loop $-1 $-1 $154 $305 #
ellipse-curve $-1 -0.13749999999999965 -0.81250000000000022 0.31249999999999994 -1 0 0 0 0.062499999999999972 0 1 F 0 F 1.5707963267948966 #
edge $-1 $158 $299 $156 $306 forward #
coedge $-1 $298 $288 $217 $295 reversed $157 $-1 #
face $-1 $307 $308 $2 $-1 $309 forward single #
point $-1 -0.13749999999999965 -0.81250000000000022 0.24999999999999997 #
coedge $-1 $310 $311 $160 $233 forward $312 $-1 #
edge $-1 $248 $237 $160 $313 forward #
coedge $-1 $314 $161 $315 $316 forward $236 $-1 #
coedge $-1 $161 $314 $310 $317 forward $236 $-1 #
loop $-1 $-1 $235 $214 #
vertex $-1 $162 $318 #
straight-curve $-1 0.19999999999999996 0.68749999999999967 0.24999999999999997 0 0 -0.39370078740157477 F -3.8608010000000004 F 0.20955099999999999 #
coedge $-1 $164 $163 $298 $319 forward $165 $-1 #
edge $-1 $113 $300 $163 $320 forward #
coedge $-1 $217 $315 $164 $242 reversed $150 $-1 #
edge $-1 $321 $166 $164 $322 forward #
face $-1 $305 $165 $2 $-1 $323 forward single #
point $-1 0.19999999999999996 0.68749999999999967 0.31249999999999994 #
coedge $-1 $324 $168 $311 $325 reversed $247 $-1 #
coedge $-1 $168 $324 $170 $251 reversed $247 $-1 #
loop $-1 $-1 $246 $326 #
vertex $-1 $233 $327 #
straight-curve $-1 0.19999999999999996 0.37499999999999978 1.9374999999999998 -1.1472327532448348e-017 0.39370078740157477 2.3949873635097404e-033 F -2.0637500000000002 F 0.15874999999999995 #
coedge $-1 $171 $170 $328 $329 forward $172 $-1 #
edge $-1 $173 $330 $170 $331 forward #
face $-1 $326 $172 $2 $-1 $332 forward single #
point $-1 0.19999999999999998 -0.43750000000000028 1.9374999999999998 #
coedge $-1 $269 $268 $175 $255 reversed $270 $-1 #
edge $-1 $256 $258 $254 $333 forward #
vertex $-1 $255 $334 #
ellipse-curve $-1 0.13749999999999998 -0.68750000000000022 1.6874999999999998 0 0 -1 0.062499999999999993 0 0 1 F 0 F 1.5707963267948966 #
vertex $-1 $255 $335 #
ellipse-curve $-1 0.13749999999999998 -0.68750000000000022 0.31249999999999994 0 0 -1 0 -0.062499999999999972 0 1 F -1.5707963267948966 F 0 #
cone-surface $-1 0.13749999999999998 -0.68750000000000022 0.24999999999999997 0 0 1 0.04419417382415923 -0.044194173824159202 0 1 I I 0 1 0.062499999999999993 forward I I I I #
coedge $-1 $184 $183 $336 $337 forward $185 $-1 #
face $-1 $338 $185 $2 $-1 $339 forward single #
coedge $-1 $340 $341 $187 $264 reversed $342 $-1 #
edge $-1 $195 $265 $263 $343 forward #
vertex $-1 $264 $344 #
ellipse-curve $-1 -0.13749999999999971 -0.43750000000000028 1.9374999999999998 0 -1 0 0 0 0.062500000000000153 1 F 0 F 1.5707963267948966 #
torus-surface $-1 -0.13749999999999971 -0.43750000000000028 1.6874999999999998 1 2.3311769545935045e-016 0 0.24999999999999989 0.062499999999999993 0 0 -1 forward_v I I I I #
coedge $-1 $254 $191 $225 $272 reversed $270 $-1 #
coedge $-1 $191 $254 $340 $274 reversed $270 $-1 #
loop $-1 $-1 $191 $345 #
straight-curve $-1 -0.13749999999999965 -0.75000000000000022 0.24999999999999997 0 0 0.39370078740157477 F -0.20955099999999999 F 3.8608010000000004 #
edge $-1 $258 $193 $268 $346 forward #
point $-1 -0.13749999999999965 -0.75000000000000022 0.31249999999999994 #
edge $-1 $195 $256 $269 $347 forward #
point $-1 -0.13749999999999965 -0.75000000000000022 1.6874999999999998 #
coedge $-1 $348 $349 $198 $277 reversed $350 $-1 #
edge $-1 $278 $204 $276 $351 forward #
vertex $-1 $352 $353 #
ellipse-curve $-1 -0.13749999999999968 0.43749999999999972 1.9374999999999998 0 1 0 -0.062500000000000264 0 0 1 F 0 F 1.5707963267948966 #
torus-surface $-1 -0.13749999999999968 0.43749999999999972 1.6874999999999998 1 2.3311769545935045e-016 0 0.24999999999999989 0.062499999999999993 0 0 -1 forward_v I I I I #
coedge $-1 $354 $202 $349 $355 reversed $283 $-1 #
coedge $-1 $202 $354 $302 $286 reversed $283 $-1 #
loop $-1 $-1 $202 $307 #
straight-curve $-1 -0.13750000000000001 0.74999999999999967 0.24999999999999997 0 0 -0.39370078740157477 F -3.8608010000000004 F 0.20955099999999999 #
point $-1 -0.13750000000000001 0.74999999999999967 1.6874999999999998 #
edge $-1 $206 $356 $282 $357 forward #
point $-1 -0.13750000000000001 0.74999999999999967 0.31249999999999994 #
coedge $-1 $229 $209 $303 $358 reversed $157 $-1 #
vertex $-1 $211 $359 #
ellipse-curve $-1 -0.13750000000000001 0.68749999999999967 0.24999999999999997 0 0 1 -0.088388347648318447 0.088388347648318377 0 1 F -0.78539816339744872 F 0.78539816339744795 #
face $-1 $179 $312 $2 $-1 $360 forward single #
cone-surface $-1 0.13749999999999996 0.68749999999999967 0.24999999999999997 0 0 1 0.044194173824159223 0.044194173824159223 0 1 I I 0 1 0.0625 forward I I I I #
coedge $-1 $303 $302 $294 $361 forward $215 $-1 #
coedge $-1 $315 $217 $293 $361 reversed $150 $-1 #
edge $-1 $321 $362 $229 $363 forward #
coedge $-1 $225 $224 $219 $297 forward $226 $-1 #
edge $-1 $299 $258 $296 $364 forward #
coedge $-1 $220 $229 $239 $319 reversed $157 $-1 #
vertex $-1 $221 $365 #
vertex $-1 $221 $366 #
ellipse-curve $-1 0.13749999999999998 -0.68750000000000011 0.24999999999999997 0 0 1 0.088388347648318433 -0.088388347648318502 0 1 F -0.78539816339744795 F 0.78539816339744883 #
coedge $-1 $293 $222 $282 $286 forward $215 $-1 #
coedge $-1 $222 $293 $288 $358 forward $215 $-1 #
ellipse-curve $-1 -0.13750000000000001 0.81249999999999967 0.31249999999999994 -1 0 0 0 0 -0.062499999999999972 1 F 0 F 1.5707963267948966 #
face $-1 $94 $226 $2 $-1 $367 forward single #
straight-curve $-1 0.099999999999999922 -0.81250000000000022 0.24999999999999997 0.39370078740157477 0 0 F -0.97155099999999917 F 0.46355100000000021 #
face $-1 $368 $283 $2 $-1 $369 forward single #
loop $-1 $370 $371 $230 #
plane-surface $-1 -1.4222737140682158e-016 1.3112870369588462e-016 0.24999999999999997 0 0 1 0.39370078740157477 0 0 forward_v I I I I #
coedge $-1 $372 $232 $235 $317 reversed $312 $-1 #
coedge $-1 $232 $372 $245 $325 forward $312 $-1 #
loop $-1 $-1 $311 $291 #
ellipse-curve $-1 0.19999999999999996 0.43749999999999972 1.6874999999999998 -1 -2.9139711932418806e-017 0 -5.1512219773089654e-018 0.17677669529663662 0.176776695296637 1 F -1.0639878657890978 F 1.0639878657890998 #
coedge $-1 $235 $234 $354 $373 forward $236 $-1 #
coedge $-1 $241 $294 $234 $316 reversed $150 $-1 #
edge $-1 $166 $356 $234 $374 reversed #
edge $-1 $375 $237 $235 $376 forward #
point $-1 0.19999999999999996 0.68749999999999967 1.6874999999999998 #
edge $-1 $300 $321 $298 $377 forward #
ellipse-curve $-1 0.26250000000000001 -0.68750000000000011 0.31249999999999994 0 -1 0 -0.062500000000000014 0 0 1 F 0 F 1.5707963267948966 #
vertex $-1 $295 $378 #
ellipse-curve $-1 0.26249999999999996 0.68749999999999967 0.31249999999999994 0 1 0 0 0 -0.062499999999999972 1 F 0 F 1.5707963267948966 #
cone-surface $-1 0.26249999999999996 0.37499999999999994 0.31249999999999994 2.9139711932418806e-017 -1 0 -0.044194173824159223 0 -0.044194173824159223 1 I I 0 -1 0.0625 forward I I I I #
coedge $-1 $246 $245 $379 $380 forward $247 $-1 #
edge $-1 $381 $248 $311 $382 forward #
face $-1 $243 $247 $2 $-1 $383 forward single #
point $-1 0.19999999999999996 0.43749999999999972 1.9374999999999998 #
coedge $-1 $341 $340 $250 $329 reversed $342 $-1 #
edge $-1 $330 $256 $328 $384 forward #
vertex $-1 $385 $386 #
ellipse-curve $-1 0.13749999999999996 -0.43750000000000028 1.9374999999999998 0 -1 0 0.062500000000000042 0 0 1 F 0 F 1.5707963267948966 #
torus-surface $-1 0.13749999999999996 -0.43750000000000028 1.6874999999999998 -1 -2.9139711932418806e-017 0 0.24999999999999989 0.062499999999999993 0 0 1 forward_v I I I I #
straight-curve $-1 0.13749999999999998 -0.75000000000000022 0.24999999999999997 0 0 -0.39370078740157477 F -3.8608010000000004 F 0.20955099999999999 #
point $-1 0.13749999999999998 -0.75000000000000022 1.6874999999999998 #
point $-1 0.13749999999999998 -0.75000000000000022 0.31249999999999994 #
coedge $-1 $387 $388 $261 $337 reversed $389 $-1 #
edge $-1 $265 $278 $336 $390 forward #
face $-1 $345 $350 $2 $-1 $391 forward single #
cone-surface $-1 -0.13749999999999976 -0.37500000000000017 1.9374999999999998 -2.3311769545935045e-016 1 6.0832679033147644e-033 -0.0441941738241593 0 0.044194173824159147 1 I I 0 1 0.062499999999999993 forward I I I I #
coedge $-1 $328 $263 $269 $274 forward $342 $-1 #
coedge $-1 $263 $328 $387 $385 forward $342 $-1 #
loop $-1 $-1 $263 $392 #
ellipse-curve $-1 -0.13749999999999971 -0.43750000000000028 1.6874999999999998 -1 -2.3311769545935045e-016 0 5.4636959873285258e-017 -0.22097086912079583 0.22097086912079625 1 F -1.0639878657890998 F 1.0639878657890978 #
point $-1 -0.13749999999999971 -0.43750000000000028 1.9999999999999998 #
face $-1 $393 $270 $2 $-1 $394 forward single #
straight-curve $-1 0.099999999999999922 -0.75000000000000022 0.31249999999999994 -0.39370078740157477 0 0 F -0.46355100000000021 F 0.97155099999999917 #
straight-curve $-1 0.10000000000000003 -0.75000000000000022 1.6874999999999998 0.39370078740157477 0 -4.4906013065807738e-032 F -3.2226259999999991 F 2.714626 #
coedge $-1 $395 $276 $388 $352 forward $350 $-1 #
coedge $-1 $276 $395 $281 $355 forward $350 $-1 #
loop $-1 $-1 $276 $338 #
ellipse-curve $-1 -0.13749999999999968 0.43749999999999972 1.6874999999999998 -1 -2.3311769545935045e-016 0 -5.4636959873285258e-017 0.22097086912079583 0.22097086912079625 1 F -1.0639878657890978 F 1.0639878657890998 #
edge $-1 $278 $381 $388 $396 forward #
point $-1 -0.13749999999999968 0.43749999999999972 1.9999999999999998 #
coedge $-1 $282 $281 $314 $373 reversed $283 $-1 #
edge $-1 $375 $204 $281 $397 forward #
vertex $-1 $286 $398 #
straight-curve $-1 -0.10000000000000007 0.74999999999999967 0.31249999999999994 0.39370078740157477 0 0 F -0.46355099999999994 F 0.97155100000000016 #
edge $-1 $362 $289 $288 $399 forward #
point $-1 -0.13750000000000001 0.81249999999999967 0.24999999999999997 #
torus-surface $-1 0.13749999999999996 0.43749999999999972 1.6874999999999998 -1 -2.9139711932418806e-017 0 0.24999999999999989 0.062499999999999993 0 0 1 forward_v I I I I #
edge $-1 $356 $362 $293 $400 forward #
vertex $-1 $295 $401 #
ellipse-curve $-1 0.13749999999999996 0.68749999999999967 0.24999999999999997 0 0 1 0.08838834764831846 0.088388347648318405 0 1 F -0.78539816339744806 F 0.78539816339744861 #
ellipse-curve $-1 0.13749999999999998 -0.81250000000000022 0.31249999999999994 1 0 0 0 0 -0.062499999999999972 1 F 0 F 1.5707963267948966 #
point $-1 0.13749999999999998 -0.81250000000000022 0.24999999999999997 #
point $-1 0.26250000000000001 -0.68750000000000011 0.24999999999999997 #
cone-surface $-1 0.099999999999999922 -0.81250000000000022 0.31249999999999994 -1 0 0 0 0.044194173824159223 -0.044194173824159223 1 I I 0 -1 0.0625 forward I I I I #
face $-1 $402 $403 $2 $-1 $404 forward single #
plane-surface $-1 -0.20000000000000004 0.74999999999999967 0.24999999999999997 0 1 0 0 0 0.39370078740157477 forward_v I I I I #
loop $-1 $405 $406 $230 #
coedge $-1 $371 $371 $407 $408 reversed $308 $-1 #
coedge $-1 $311 $310 $395 $409 forward $312 $-1 #
edge $-1 $356 $375 $354 $410 forward #
ellipse-curve $-1 0.13749999999999996 0.68749999999999967 0.31249999999999994 0 0 -1 0.062499999999999972 0 0 1 F -1.5707963267948966 F 0 #
vertex $-1 $355 $411 #
ellipse-curve $-1 0.13749999999999996 0.68749999999999967 1.6874999999999998 0 0 -1 -2.1854783949314103e-017 0.062499999999999972 0 1 F 0 F 1.570796326794897 #
straight-curve $-1 0.26249999999999996 0.37499999999999994 0.24999999999999997 -1.1472327532448348e-017 0.39370078740157477 0 F -3.0670510000000011 F 1.1620509999999997 #
point $-1 0.26249999999999996 0.68749999999999967 0.24999999999999997 #
coedge $-1 $388 $387 $324 $380 reversed $389 $-1 #
edge $-1 $381 $330 $379 $412 forward #
vertex $-1 $380 $413 #
ellipse-curve $-1 0.13749999999999996 0.43749999999999972 1.9374999999999998 0 1 0 0 0 0.062500000000000153 1 F 0 F 1.5707963267948966 #
cone-surface $-1 0.13749999999999996 0.37499999999999978 1.9374999999999998 2.9139711932418806e-017 -1 -6.0832679033147411e-033 0.044194173824159279 0 0.044194173824159154 1 I I 0 1 0.062499999999999993 forward I I I I #
ellipse-curve $-1 0.13749999999999996 -0.43750000000000028 1.6874999999999998 1 2.9139711932418806e-017 0 1.0927391974657052e-017 -0.22097086912079583 0.22097086912079625 1 F -1.0639878657890978 F 1.0639878657890998 #
edge $-1 $330 $265 $387 $414 forward #
point $-1 0.13749999999999996 -0.43750000000000028 1.9999999999999998 #
coedge $-1 $379 $336 $341 $385 reversed $389 $-1 #
coedge $-1 $336 $379 $348 $352 reversed $389 $-1 #
loop $-1 $-1 $336 $393 #
straight-curve $-1 -0.13749999999999976 -0.37500000000000017 1.9999999999999998 -9.1778620259586784e-017 0.39370078740157477 2.3949873635097497e-033 F -0.15875000000000017 F 2.0637499999999998 #
cone-surface $-1 -0.099999999999999978 0.43749999999999972 1.6874999999999998 1 0 -1.1406127318715166e-031 0 0.22097086912079586 0.22097086912079622 1 I I 0 1 0.31249999999999989 forward I I I I #
face $-1 $230 $342 $2 $-1 $415 forward single #
face $-1 $392 $389 $2 $-1 $416 forward single #
plane-surface $-1 0.19999999999999998 -0.75000000000000022 0.24999999999999997 0 -1 0 0 0 -0.39370078740157477 forward_v I I I I #
coedge $-1 $349 $348 $372 $409 reversed $350 $-1 #
straight-curve $-1 -0.099999999999999978 0.43749999999999972 1.9999999999999998 0.39370078740157477 0 -4.4906013065807738e-032 F -2.714626 F 3.222626 #
straight-curve $-1 -0.099999999999999978 0.74999999999999967 1.6874999999999998 -0.39370078740157477 0 4.4906013065807738e-032 F -3.222626 F 2.714626 #
point $-1 0.13749999999999996 0.74999999999999967 0.31249999999999994 #
straight-curve $-1 -0.10000000000000007 0.81249999999999967 0.24999999999999997 -0.39370078740157477 0 0 F -0.97155100000000016 F 0.46355099999999994 #
ellipse-curve $-1 0.13749999999999996 0.81249999999999967 0.31249999999999994 1 0 0 0 -0.062499999999999972 0 1 F 0 F 1.5707963267948966 #
point $-1 0.13749999999999996 0.81249999999999967 0.24999999999999997 #
face $-1 $417 $418 $2 $-1 $419 reversed single #
loop $-1 $420 $421 $368 #
torus-surface $-1 5.7703266949685716e-016 -1.655 0.18750000000000008 0 0 -1 0.28124999999999994 0.062499999999999993 -1 0 0 forward_v I I I I #
loop $-1 $157 $422 $230 #
coedge $-1 $406 $406 $423 $424 reversed $370 $-1 #
coedge $-1 $407 $407 $371 $408 forward $420 $-1 #
edge $-1 $425 $425 $371 $426 forward #
edge $-1 $375 $381 $395 $427 forward #
straight-curve $-1 0.13749999999999996 0.74999999999999967 0.24999999999999997 0 0 0.39370078740157477 F -0.20955099999999999 F 3.8608010000000004 #
point $-1 0.13749999999999996 0.74999999999999967 1.6874999999999998 #
straight-curve $-1 0.13749999999999996 0.37499999999999978 1.9999999999999998 1.1472327532448348e-017 -0.39370078740157477 -2.3949873635097404e-033 F -0.15874999999999995 F 2.0637500000000002 #
point $-1 0.13749999999999996 0.43749999999999972 1.9999999999999998 #
straight-curve $-1 0.10000000000000003 -0.43750000000000028 1.9999999999999998 -0.39370078740157477 0 4.4906013065807738e-032 F -2.714626 F 3.2226259999999991 #
cone-surface $-1 0.10000000000000003 -0.43750000000000028 1.6874999999999998 -1 0 1.1406127318715166e-031 0 -0.22097086912079586 0.22097086912079622 1 I I 0 1 0.31249999999999989 forward I I I I #
plane-surface $-1 8.4909495535134211e-017 -1.9669305554382694e-016 1.9999999999999998 1.1406127318715166e-031 -6.0832679033147377e-033 1 0.39370078740157477 0 -4.4906013065807738e-032 forward_v I I I I #
face $-1 $428 $429 $2 $-1 $430 forward single #
loop $-1 $431 $432 $402 #
cone-surface $-1 5.7703266949685716e-016 -1.655 -4.5715039147552288 0 0 1 0.21875 0 0 1 I I 0 1 0.21875 reversed I I I I #
loop $-1 $-1 $407 $368 #
coedge $-1 $421 $421 $433 $434 forward $403 $-1 #
coedge $-1 $435 $436 $437 $438 reversed $405 $-1 #
coedge $-1 $423 $423 $406 $424 forward $439 $-1 #
edge $-1 $440 $440 $406 $441 forward #
vertex $-1 $408 $442 #
ellipse-curve $-1 5.7703266949685716e-016 -1.655 0.24999999999999997 0 0 1 -0.28124999999999994 0 0 1 I I #
ellipse-curve $-1 0.13749999999999996 0.43749999999999972 1.6874999999999998 1 2.9139711932418806e-017 0 -1.0927391974657052e-017 0.22097086912079583 0.22097086912079625 1 F -1.0639878657890998 F 1.0639878657890978 #
face $-1 $443 $444 $2 $-1 $445 forward single #
loop $-1 $-1 $446 $417 #
torus-surface $-1 0.74999999999999956 -1.9399999999999997 0.1875 0 0 -1 0.1875 0.062499999999999993 -1 0 0 forward_v I I I I #
loop $-1 $-1 $433 $402 #
coedge $-1 $432 $432 $447 $448 reversed $418 $-1 #
coedge $-1 $433 $433 $421 $434 reversed $431 $-1 #
edge $-1 $449 $449 $433 $450 forward #
coedge $-1 $451 $422 $452 $453 reversed $405 $-1 #
coedge $-1 $422 $454 $455 $456 reversed $405 $-1 #
coedge $-1 $457 $446 $422 $438 forward $429 $-1 #
edge $-1 $458 $459 $422 $460 forward #
loop $-1 $-1 $423 $461 #
vertex $-1 $424 $462 #
ellipse-curve $-1 -2.2735612630783151e-016 1.6549999999999996 0.24999999999999997 0 0 1 -0.28124999999999994 0 0 1 I I #
point $-1 0.28125000000000056 -1.655 0.24999999999999997 #
face $-1 $463 $464 $2 $-1 $465 forward single #
loop $-1 $-1 $466 $428 #
cone-surface $-1 0.93749999999999956 1.0949999999999998 0.1875 0 -1 0 0.044194173824159258 0 0.044194173824159175 1 I I 0 1 0.062499999999999993 forward I I I I #
coedge $-1 $437 $467 $468 $469 forward $429 $-1 #
coedge $-1 $447 $447 $432 $448 forward $470 $-1 #
edge $471 $472 $472 $447 $473 forward #
vertex $-1 $434 $474 #
ellipse-curve $-1 5.7703266949685716e-016 -1.655 0.18750000000000008 0 0 -1 -0.21875 0 0 1 I I #
coedge $-1 $475 $435 $476 $477 reversed $405 $-1 #
coedge $-1 $468 $466 $435 $453 forward $444 $-1 #
edge $-1 $478 $458 $435 $479 forward #
coedge $-1 $436 $480 $481 $482 reversed $405 $-1 #
coedge $-1 $483 $484 $436 $456 forward $464 $-1 #
edge $-1 $459 $485 $436 $486 forward #
coedge $-1 $467 $437 $484 $487 forward $429 $-1 #
vertex $-1 $438 $488 #
vertex $-1 $438 $489 #
ellipse-curve $-1 0.74999999999999956 -1.9399999999999997 0.24999999999999997 0 0 -1 0.13258252147247768 -0.13258252147247762 0 1 F -1.1608217713784872 F 1.1608217713784883 #
face $-1 $490 $491 $2 $-1 $492 forward single #
point $-1 0.28124999999999978 1.6549999999999996 0.24999999999999997 #
face $-1 $493 $494 $2 $-1 $495 forward single #
loop $-1 $-1 $483 $443 #
cone-surface $-1 0.49999999999999972 -2.1274999999999995 0.1875 -1 0 0 0 -0.044194173824159147 0.0441941738241593 1 I I 0 1 0.062499999999999993 forward I I I I #
coedge $-1 $452 $496 $497 $498 forward $444 $-1 #
coedge $-1 $446 $457 $499 $500 forward $429 $-1 #
coedge $-1 $496 $452 $446 $469 reversed $444 $-1 #
edge $-1 $501 $458 $446 $502 forward #
loop $-1 $503 $447 $504 #
convexity-sys-attrib $-1 $-1 $-1 $448 #
vertex $-1 $448 $505 #
ellipse-curve $-1 5.7703266949685716e-016 -1.655 0 0 0 1 0.21875 0 0 1 I I #
point $-1 0.21875000000000056 -1.655 0.18750000000000008 #
coedge $-1 $506 $451 $507 $508 reversed $405 $-1 #
coedge $-1 $497 $509 $451 $477 forward $494 $-1 #
edge $-1 $510 $478 $451 $511 forward #
vertex $-1 $453 $512 #
straight-curve $-1 0.93749999999999956 1.0949999999999998 0.24999999999999997 0 -0.39370078740157477 0 F -2.320926 F 7.8835259999999998 #
coedge $-1 $454 $506 $513 $514 reversed $405 $-1 #
coedge $-1 $515 $516 $454 $482 forward $517 $-1 #
edge $-1 $485 $518 $454 $519 forward #
coedge $-1 $520 $455 $516 $521 forward $464 $-1 #
coedge $-1 $455 $520 $457 $487 reversed $464 $-1 #
vertex $-1 $456 $522 #
straight-curve $-1 0.49999999999999972 -2.1274999999999995 0.24999999999999997 -0.39370078740157477 0 0 F -0.80962599999999996 F 3.349625999999998 #
edge $-1 $459 $523 $457 $524 forward #
point $-1 0.93749999999999944 -1.9399999999999997 0.24999999999999997 #
point $-1 0.74999999999999956 -2.1274999999999999 0.24999999999999997 #
face $-1 $525 $526 $2 $-1 $527 reversed single #
loop $-1 $439 $528 $461 #
torus-surface $-1 -2.2735612630783151e-016 1.6549999999999996 0.18750000000000008 0 0 -1 0.28124999999999994 0.062499999999999993 -1 0 0 forward_v I I I I #
face $-1 $529 $517 $2 $-1 $530 forward single #
loop $-1 $-1 $509 $463 #
torus-surface $-1 0.74999999999999967 1.9399999999999997 0.1875 0 0 -1 0.1875 0.062499999999999993 -1 0 0 forward_v I I I I #
coedge $-1 $466 $468 $531 $532 forward $444 $-1 #
coedge $-1 $533 $476 $466 $498 reversed $494 $-1 #
edge $-1 $534 $478 $466 $535 forward #
coedge $-1 $536 $537 $467 $500 reversed $538 $-1 #
edge $-1 $523 $501 $499 $539 forward #
vertex $-1 $500 $540 #
ellipse-curve $-1 0.93749999999999944 -1.9399999999999997 0.1875 0 -1 0 0.062500000000000153 0 0 1 F 0 F 1.5707963267948966 #
loop $-1 $-1 $541 $504 #
face $-1 $-1 $542 $2 $-1 $543 reversed single #
point $-1 -0.21874999999999942 -1.655 0 #
coedge $-1 $480 $475 $544 $545 reversed $405 $-1 #
coedge $-1 $546 $547 $475 $508 forward $548 $-1 #
edge $-1 $549 $510 $475 $550 forward #
coedge $-1 $476 $533 $546 $551 forward $494 $-1 #
vertex $-1 $477 $552 #
ellipse-curve $-1 0.74999999999999967 1.9399999999999997 0.24999999999999997 0 0 -1 0.13258252147247768 0.13258252147247768 0 1 F -1.1608217713784879 F 1.1608217713784872 #
point $-1 0.93749999999999956 1.9399999999999997 0.24999999999999997 #
coedge $-1 $553 $554 $480 $514 forward $555 $-1 #
edge $-1 $518 $556 $480 $557 forward #
coedge $-1 $558 $481 $554 $559 forward $517 $-1 #
coedge $-1 $481 $558 $483 $521 reversed $517 $-1 #
loop $-1 $-1 $515 $493 #
vertex $-1 $482 $560 #
ellipse-curve $-1 -0.74999999999999933 -1.9399999999999997 0.24999999999999997 0 0 -1 -0.13258252147247768 -0.13258252147247768 0 1 F -1.1608217713784879 F 1.1608217713784872 #
coedge $-1 $484 $483 $561 $562 forward $464 $-1 #
edge $-1 $485 $563 $483 $564 forward #
point $-1 -0.74999999999999944 -2.1274999999999995 0.24999999999999997 #
vertex $-1 $565 $566 #
ellipse-curve $-1 0.74999999999999956 -2.1274999999999999 0.1875 1 0 0 0 0 0.062499999999999993 1 F 0 F 1.5707963267948966 #
face $-1 $567 $568 $2 $-1 $569 forward single #
loop $-1 $570 $571 $490 #
cone-surface $-1 -2.2735612630783151e-016 1.6549999999999996 -4.5715039147552288 0 0 1 0.21875 0 0 1 I I 0 1 0.21875 reversed I I I I #
coedge $-1 $528 $528 $572 $573 forward $491 $-1 #
face $-1 $574 $548 $2 $-1 $575 forward single #
torus-surface $-1 -0.74999999999999933 -1.9399999999999997 0.1875 0 0 -1 0.1875 0.062499999999999993 -1 0 0 forward_v I I I I #
coedge $-1 $576 $577 $496 $532 reversed $578 $-1 #
edge $-1 $501 $534 $531 $579 forward #
coedge $-1 $509 $497 $580 $581 forward $494 $-1 #
vertex $-1 $582 $583 #
ellipse-curve $-1 0.93749999999999956 1.9399999999999997 0.1875 0 -1 0 0.062499999999999972 0 0 1 F 0 F 1.5707963267948966 #
coedge $-1 $584 $499 $585 $565 forward $538 $-1 #
coedge $-1 $499 $584 $576 $586 forward $538 $-1 #
loop $-1 $-1 $499 $587 #
ellipse-curve $-1 0.74999999999999956 -1.9399999999999997 0.1875 0 0 1 0.17677669529663689 -0.17677669529663681 0 1 F -1.1608217713784883 F 1.1608217713784872 #
point $-1 0.99999999999999956 -1.9399999999999997 0.1875 #
coedge $-1 $588 $589 $584 $590 reversed $503 $-1 #
loop $-1 $470 $591 $504 #
plane-surface $-1 -1.2116356994869096e-016 1.3112870369588462e-016 0 0 0 1 0.39370078740157477 0 0 forward_v I I I I #
coedge $-1 $592 $593 $506 $545 forward $594 $-1 #
edge $-1 $556 $549 $506 $595 forward #
coedge $-1 $596 $507 $509 $551 reversed $548 $-1 #
coedge $-1 $507 $596 $592 $597 forward $548 $-1 #
loop $-1 $-1 $547 $529 #
vertex $-1 $508 $598 #
straight-curve $-1 -0.50000000000000022 2.1274999999999995 0.24999999999999997 0.39370078740157477 0 0 F -0.8096260000000004 F 3.3496259999999998 #
edge $-1 $599 $510 $509 $600 forward #
point $-1 0.74999999999999978 2.1274999999999999 0.24999999999999997 #
coedge $-1 $601 $513 $593 $602 forward $555 $-1 #
coedge $-1 $513 $601 $515 $559 reversed $555 $-1 #
loop $-1 $-1 $553 $574 #
vertex $-1 $514 $603 #
straight-curve $-1 -0.93749999999999978 -1.095 0.24999999999999997 -7.8577585838687323e-017 0.39370078740157477 0 F -2.3209259999999996 F 7.8835259999999998 #
coedge $-1 $516 $515 $604 $605 forward $517 $-1 #
edge $-1 $518 $606 $515 $607 forward #
point $-1 -0.93749999999999944 -1.9399999999999997 0.24999999999999997 #
coedge $-1 $608 $585 $520 $562 reversed $609 $-1 #
edge $-1 $563 $523 $561 $610 forward #
vertex $-1 $562 $611 #
ellipse-curve $-1 -0.74999999999999944 -2.1274999999999995 0.1875 1 1.3987061727560993e-015 0 0 0 0.062499999999999993 1 F 0 F 1.5707963267948966 #
edge $-1 $523 $612 $585 $613 forward #
point $-1 0.74999999999999956 -2.1899999999999995 0.1875 #
face $-1 $614 $615 $2 $-1 $616 forward single #
loop $-1 $-1 $604 $525 #
cone-surface $-1 -0.74999999999999933 -1.9399999999999997 0 0 0 1 -0.17677669529663689 -0.17677669529663689 0 1 I I 0 1 0.25 forward I I I I #
loop $-1 $-1 $572 $490 #
coedge $-1 $571 $571 $591 $617 reversed $526 $-1 #
coedge $-1 $572 $572 $528 $573 reversed $570 $-1 #
edge $-1 $618 $618 $572 $619 forward #
face $-1 $620 $555 $2 $-1 $621 forward single #
cone-surface $-1 -0.50000000000000022 2.1274999999999995 0.1875 1 0 0 0 0.044194173824159147 0.0441941738241593 1 I I 0 1 0.062499999999999993 forward I I I I #
coedge $-1 $622 $531 $537 $586 reversed $578 $-1 #
coedge $-1 $531 $622 $623 $582 reversed $578 $-1 #
loop $-1 $-1 $531 $624 #
straight-curve $-1 0.99999999999999956 1.0949999999999998 0.1875 0 0.39370078740157477 0 F -7.8835259999999998 F 2.320926 #
coedge $-1 $623 $625 $533 $581 reversed $626 $-1 #
edge $-1 $534 $599 $580 $627 forward #
edge $-1 $534 $628 $577 $629 forward #
point $-1 0.99999999999999956 1.9399999999999997 0.1875 #
coedge $-1 $537 $536 $541 $590 forward $538 $-1 #
coedge $-1 $561 $630 $536 $565 reversed $609 $-1 #
edge $631 $632 $501 $576 $633 forward #
face $-1 $461 $538 $2 $-1 $634 forward single #
coedge $-1 $635 $541 $630 $636 reversed $503 $-1 #
coedge $-1 $541 $637 $622 $638 reversed $503 $-1 #
edge $639 $612 $632 $541 $640 forward #
coedge $-1 $591 $591 $571 $617 forward $542 $-1 #
coedge $-1 $641 $544 $547 $597 reversed $594 $-1 #
coedge $-1 $544 $641 $553 $602 reversed $594 $-1 #
loop $-1 $-1 $592 $620 #
ellipse-curve $-1 -0.75000000000000022 1.9399999999999997 0.24999999999999997 0 0 -1 -0.13258252147247773 0.13258252147247759 0 1 F -0.78539816339744783 F 0.78539816339744883 #
coedge $-1 $547 $546 $642 $643 forward $548 $-1 #
edge $-1 $644 $549 $547 $645 forward #
point $-1 -0.75000000000000022 2.1274999999999995 0.24999999999999997 #
vertex $-1 $581 $646 #
ellipse-curve $-1 0.74999999999999978 2.1274999999999999 0.1875 1 1.3987061727561071e-015 0 -8.7419135797256413e-017 0.062499999999999799 0 1 F 0 F 1.5707963267948966 #
coedge $-1 $554 $553 $647 $648 forward $555 $-1 #
edge $-1 $556 $649 $553 $650 forward #
point $-1 -0.93750000000000033 1.9399999999999997 0.24999999999999997 #
coedge $-1 $651 $652 $558 $605 reversed $568 $-1 #
edge $-1 $606 $563 $604 $653 forward #
vertex $-1 $654 $655 #
ellipse-curve $-1 -0.93749999999999944 -1.9399999999999997 0.1875 0 -1 0 0 0 0.062499999999999993 1 F 0 F 1.5707963267948966 #
coedge $-1 $630 $561 $652 $656 reversed $609 $-1 #
loop $-1 $-1 $561 $657 #
straight-curve $-1 0.49999999999999972 -2.1899999999999995 0.1875 0.39370078740157477 0 0 F -3.349625999999998 F 0.80962599999999996 #
point $-1 -0.74999999999999933 -2.1899999999999995 0.1875 #
vertex $-1 $590 $658 #
straight-curve $-1 0.74999999999999956 -2.1899999999999995 0 0 0 -0.39370078740157477 F -2.6035010000000005 F 1.9685010000000001 #
face $-1 $657 $659 $2 $-1 $660 forward single #
loop $-1 $-1 $647 $567 #
plane-surface $-1 -0.99999999999999944 -2.1899999999999995 0 -1 -1.9958706803026581e-016 0 0 0 0.39370078740157477 forward_v I I I I #
edge $661 $662 $662 $591 $663 forward #
vertex $-1 $573 $664 #
ellipse-curve $-1 -2.2735612630783151e-016 1.6549999999999996 0.18750000000000008 0 0 -1 -0.21875 0 0 1 I I #
face $-1 $665 $594 $2 $-1 $666 forward single #
cone-surface $-1 -0.93749999999999978 -1.095 0.1875 -1.9958706803026581e-016 1 0 -0.044194173824159147 0 0.0441941738241593 1 I I 0 1 0.062499999999999993 forward I I I I #
coedge $-1 $577 $576 $589 $638 forward $578 $-1 #
coedge $-1 $667 $580 $577 $582 forward $626 $-1 #
face $-1 $587 $578 $2 $-1 $668 forward single #
coedge $-1 $580 $667 $669 $670 forward $626 $-1 #
loop $-1 $-1 $580 $671 #
ellipse-curve $-1 0.74999999999999967 1.9399999999999997 0.1875 0 0 1 0.17677669529663689 0.17677669529663689 0 1 F -1.1608217713784872 F 1.1608217713784879 #
vertex $-1 $582 $672 #
straight-curve $-1 0.99999999999999956 1.9399999999999997 0 0 0 -0.39370078740157477 F -2.6035010000000005 F 1.9685010000000001 #
coedge $-1 $585 $608 $588 $636 forward $609 $-1 #
convexity-sys-attrib $-1 $-1 $-1 $586 #
vertex $-1 $638 $673 #
straight-curve $-1 0.99999999999999956 -1.9399999999999997 0 0 0 0.39370078740157477 F -1.9685010000000001 F 2.6035010000000005 #
cone-surface $-1 0.74999999999999956 -1.9399999999999997 0 0 0 1 0.17677669529663692 -0.17677669529663681 0 1 I I 0 1 0.24999999999999997 forward I I I I #
coedge $-1 $674 $588 $675 $676 reversed $503 $-1 #
edge $677 $678 $612 $630 $679 forward #
coedge $-1 $589 $680 $667 $681 reversed $503 $-1 #
edge $682 $632 $628 $622 $683 forward #
convexity-sys-attrib $-1 $-1 $-1 $590 #
ellipse-curve $-1 0.74999999999999956 -1.9399999999999997 0 0 0 1 0.17677669529663692 -0.17677669529663681 0 1 I I #
coedge $-1 $593 $592 $684 $685 forward $594 $-1 #
coedge $-1 $669 $686 $596 $643 reversed $687 $-1 #
edge $-1 $599 $644 $642 $688 forward #
vertex $-1 $689 $690 #
ellipse-curve $-1 -0.75000000000000022 2.1274999999999995 0.1875 1 0 0 0 0.062500000000000153 0 1 F 0 F 1.5707963267948966 #
point $-1 0.74999999999999967 2.1899999999999995 0.1875 #
coedge $-1 $691 $692 $601 $648 reversed $615 $-1 #
edge $-1 $649 $606 $647 $693 forward #
vertex $-1 $648 $694 #
ellipse-curve $-1 -0.93750000000000033 1.9399999999999997 0.1875 0 -1 0 0 0 0.062499999999999993 1 F 0 F 1.5707963267948966 #
coedge $-1 $675 $604 $692 $654 forward $568 $-1 #
coedge $-1 $604 $675 $608 $656 forward $568 $-1 #
ellipse-curve $-1 -0.74999999999999933 -1.9399999999999997 0.1875 0 0 1 -0.17677669529663689 -0.17677669529663689 0 1 F -1.1608217713784872 F 1.1608217713784879 #
edge $-1 $606 $695 $692 $696 forward #
point $-1 -0.99999999999999944 -1.9399999999999997 0.1875 #
edge $697 $678 $563 $608 $698 forward #
face $-1 $504 $609 $2 $-1 $699 forward single #
point $-1 0.74999999999999967 -2.1899999999999995 0 #
loop $-1 $-1 $684 $614 #
cone-surface $-1 -0.75000000000000022 1.9399999999999997 0 0 0 1 -0.176776695296637 0.17677669529663673 0 1 I I 0 1 0.24999999999999997 forward I I I I #
convexity-sys-attrib $-1 $-1 $-1 $617 #
vertex $-1 $617 $700 #
ellipse-curve $-1 -2.2735612630783151e-016 1.6549999999999996 0 0 0 1 0.21875 0 0 1 I I #
point $-1 0.21874999999999978 1.6549999999999996 0.18750000000000008 #
face $-1 $671 $687 $2 $-1 $701 forward single #
torus-surface $-1 -0.75000000000000022 1.9399999999999997 0.1875 0 0 -1 0.1875 0.062499999999999993 -1 0 0 forward_v I I I I #
coedge $-1 $625 $623 $637 $681 forward $626 $-1 #
plane-surface $-1 0.99999999999999956 2.1899999999999995 0 1 0 0 0 0 -0.39370078740157477 forward_v I I I I #
coedge $-1 $702 $642 $625 $670 reversed $687 $-1 #
edge $703 $704 $599 $669 $705 forward #
face $-1 $624 $626 $2 $-1 $706 forward single #
point $-1 0.99999999999999956 1.9399999999999997 0 #
point $-1 0.99999999999999956 -1.9399999999999997 0 #
coedge $-1 $707 $635 $708 $709 reversed $503 $-1 #
coedge $-1 $652 $651 $635 $676 forward $568 $-1 #
edge $710 $695 $678 $635 $711 forward #
convexity-sys-attrib $-1 $-1 $-1 $636 #
vertex $-1 $636 $712 #
straight-curve $-1 -0.99999999999999956 -2.1899999999999995 0 0.39370078740157477 0 0 F 0 F 5.0799999999999983 #
coedge $-1 $637 $707 $702 $713 reversed $503 $-1 #
edge $714 $628 $704 $637 $715 forward #
convexity-sys-attrib $-1 $-1 $-1 $638 #
straight-curve $-1 0.99999999999999956 -2.1899999999999995 0 0 0.39370078740157477 0 F 0 F 11.1252 #
coedge $-1 $716 $717 $641 $685 reversed $659 $-1 #
edge $-1 $644 $649 $684 $718 forward #
coedge $-1 $642 $702 $716 $689 reversed $687 $-1 #
loop $-1 $-1 $642 $665 #
straight-curve $-1 -0.50000000000000022 2.1899999999999995 0.1875 -0.39370078740157477 0 0 F -3.3496259999999998 F 0.8096260000000004 #
edge $-1 $644 $719 $686 $720 forward #
point $-1 -0.75000000000000022 2.1899999999999995 0.1875 #
coedge $-1 $708 $647 $717 $721 reversed $615 $-1 #
coedge $-1 $647 $708 $651 $654 reversed $615 $-1 #
straight-curve $-1 -0.99999999999999956 -1.095 0.1875 7.8577585838687323e-017 -0.39370078740157477 0 F -7.8835259999999998 F 2.3209259999999996 #
point $-1 -1.0000000000000002 1.9399999999999997 0.1875 #
vertex $-1 $654 $722 #
straight-curve $-1 -0.99999999999999944 -1.9399999999999997 0 0 0 -0.39370078740157477 F -2.6035010000000005 F 1.9685010000000001 #
convexity-sys-attrib $-1 $-1 $-1 $656 #
straight-curve $-1 -0.74999999999999933 -2.1899999999999995 0 0 0 0.39370078740157477 F -1.9685010000000001 F 2.6035010000000005 #
plane-surface $-1 0.99999999999999956 -2.1899999999999995 0 0 -1 0 0 0 -0.39370078740157477 forward_v I I I I #
point $-1 -0.21875000000000022 1.6549999999999996 0 #
plane-surface $-1 -1.0000000000000002 2.1899999999999995 0 0 1 0 0 0 0.39370078740157477 forward_v I I I I #
coedge $-1 $686 $669 $680 $713 forward $687 $-1 #
convexity-sys-attrib $-1 $-1 $-1 $670 #
vertex $-1 $713 $723 #
straight-curve $-1 0.74999999999999967 2.1899999999999995 0 0 0 0.39370078740157477 F -1.9685010000000001 F 2.6035010000000005 #
cone-surface $-1 0.74999999999999967 1.9399999999999997 0 0 0 1 0.17677669529663689 0.17677669529663689 0 1 I I 0 1 0.25 forward I I I I #
coedge $-1 $680 $674 $724 $725 reversed $503 $-1 #
coedge $-1 $692 $691 $674 $709 forward $615 $-1 #
edge $726 $727 $695 $708 $728 forward #
convexity-sys-attrib $-1 $-1 $-1 $676 #
ellipse-curve $-1 -0.74999999999999933 -1.9399999999999997 0 0 0 1 -0.17677669529663689 -0.17677669529663689 0 1 I I #
point $-1 -0.74999999999999933 -2.1899999999999995 0 #
edge $729 $704 $719 $702 $730 forward #
convexity-sys-attrib $-1 $-1 $-1 $681 #
ellipse-curve $-1 0.74999999999999967 1.9399999999999997 0 0 0 1 0.17677669529663689 0.17677669529663689 0 1 I I #
coedge $-1 $724 $684 $686 $689 forward $659 $-1 #
coedge $-1 $684 $724 $691 $721 forward $659 $-1 #
ellipse-curve $-1 -0.75000000000000022 1.9399999999999997 0.1875 0 0 1 -0.17677669529663698 0.17677669529663678 0 1 F -0.78539816339744883 F 0.78539816339744783 #
vertex $-1 $725 $731 #
straight-curve $-1 -0.75000000000000022 2.1899999999999995 0 0 0 -0.39370078740157477 F -2.6035010000000005 F 1.9685010000000001 #
edge $732 $727 $649 $691 $733 forward #
point $-1 -0.99999999999999944 -1.9399999999999997 0 #
point $-1 0.74999999999999967 2.1899999999999995 0 #
coedge $-1 $717 $716 $707 $725 forward $659 $-1 #
edge $734 $719 $727 $707 $735 forward #
convexity-sys-attrib $-1 $-1 $-1 $709 #
vertex $-1 $709 $736 #
straight-curve $-1 -1.0000000000000002 2.1899999999999995 0 7.8577585838687323e-017 -0.39370078740157477 0 F 0 F 11.1252 #
convexity-sys-attrib $-1 $-1 $-1 $713 #
straight-curve $-1 0.99999999999999956 2.1899999999999995 0 -0.39370078740157477 0 0 F 0 F 5.0800000000000001 #
point $-1 -0.75000000000000033 2.1899999999999995 0 #
convexity-sys-attrib $-1 $-1 $-1 $721 #
straight-curve $-1 -1.0000000000000002 1.9399999999999997 0 0 0 0.39370078740157477 F -1.9685010000000001 F 2.6035010000000005 #
convexity-sys-attrib $-1 $-1 $-1 $725 #
ellipse-curve $-1 -0.75000000000000022 1.9399999999999997 0 0 0 1 -0.176776695296637 0.17677669529663673 0 1 I I #
point $-1 -1.0000000000000002 1.9399999999999997 0 #
End-of-ACIS-data 