400 0 1 0           
8 Inventor 11 ACIS 6.0 NT 24 Fri Jan 16 18:54:58 2004 
25.399999999999999 9.9999999999999995e-007 1e-010 
body $-1 $1 $-1 $-1 #
lump $-1 $-1 $2 $0 #
shell $-1 $-1 $-1 $3 $-1 $1 #
face $-1 $4 $5 $2 $-1 $6 reversed single #
face $-1 $7 $8 $2 $-1 $9 reversed single #
loop $-1 $10 $11 $3 #
cone-surface $-1 0 0 0.89180203883970866 0 0 1 -0.53607435744786758 0 0 1 I I 0.86602540378443915 -0.49999999999999906 0.53607435744786758 forward I I I I #
face $-1 $12 $13 $2 $-1 $14 forward single #
loop $-1 $15 $16 $4 #
cone-surface $-1 0 0 1.1284816861562239 0 0 1 -0.3248031496062993 0 0 1 I I 0 -1 0.3248031496062993 forward I I I I #
loop $-1 $-1 $17 $3 #
coedge $-1 $18 $19 $20 $21 reversed $5 $-1 #
face $-1 $22 $23 $2 $-1 $24 forward single #
loop $-1 $-1 $25 $7 #
plane-surface $-1 -0.28867513459481287 0.49999999999999994 0 0 1 0 0 0 0.39370078740157477 forward_v I I I I #
loop $-1 $-1 $26 $4 #
coedge $-1 $16 $16 $27 $28 reversed $8 $-1 #
coedge $-1 $17 $17 $26 $29 reversed $10 $-1 #
coedge $-1 $30 $11 $31 $32 reversed $5 $-1 #
coedge $-1 $11 $33 $34 $35 reversed $5 $-1 #
coedge $-1 $36 $37 $11 $21 forward $38 $-1 #
edge $-1 $39 $40 $20 $41 forward #
face $-1 $42 $43 $2 $-1 $44 forward single #
loop $-1 $-1 $45 $12 #
plane-surface $-1 0.2886751345948127 0.49999999999999994 0 0.8660254037844386 0.50000000000000011 0 0 0 -0.39370078740157477 forward_v I I I I #
coedge $-1 $46 $47 $48 $49 forward $13 $-1 #
coedge $-1 $26 $26 $17 $29 forward $15 $-1 #
coedge $-1 $27 $27 $16 $28 forward $50 $-1 #
edge $-1 $51 $51 $27 $52 forward #
edge $-1 $53 $53 $17 $54 forward #
coedge $-1 $48 $18 $45 $55 reversed $5 $-1 #
coedge $-1 $56 $57 $18 $32 forward $43 $-1 #
edge $-1 $58 $39 $31 $59 forward #
coedge $-1 $19 $48 $60 $61 reversed $5 $-1 #
coedge $-1 $62 $63 $19 $35 forward $64 $-1 #
edge $-1 $40 $65 $34 $66 forward #
coedge $-1 $67 $20 $63 $68 reversed $38 $-1 #
coedge $-1 $20 $67 $56 $69 forward $38 $-1 #
loop $-1 $-1 $20 $70 #
vertex $-1 $21 $71 #
vertex $-1 $21 $72 #
intcurve-curve $-1 forward { exactcur nurbs 2 open 2 
	0.58018631708569401 2 2.333266406084503 2 
	0.28867513459481281 -0.5 0.86797138008455732 1.1577901829714845 
	-2.1854783949314103e-017 -0.5 0.95130471341789036 1.3369009476073848 
	-0.28867513459481303 -0.49999999999999994 0.86797138008455732 1.1577901829714849 
	0 
	null_surface 
	null_surface 
	nullbs 
	nullbs 
	I I 
	0 
	0 
	0 
	F 1 F 0 } I I #
face $-1 $73 $74 $2 $-1 $75 reversed single #
loop $-1 $-1 $31 $22 #
plane-surface $-1 0.57735026918962573 -1.5913014563094331e-016 0 0.8660254037844386 -0.50000000000000033 0 0 0 -0.39370078740157477 forward_v I I I I #
coedge $-1 $76 $77 $30 $55 forward $23 $-1 #
coedge $-1 $78 $25 $77 $79 reversed $13 $-1 #
coedge $-1 $25 $78 $80 $81 forward $13 $-1 #
coedge $-1 $33 $30 $25 $49 reversed $5 $-1 #
edge $-1 $82 $83 $25 $84 forward #
loop $-1 $85 $27 $86 #
vertex $-1 $28 $87 #
ellipse-curve $-1 0 0 1.1318897637795275 0 0 1 -0.3248031496062993 0 0 1 I I #
vertex $-1 $29 $88 #
ellipse-curve $-1 0 0 1.0137795275590551 0 0 1 -0.32480314960629936 0 0 1 I I #
edge $-1 $83 $58 $45 $89 forward #
coedge $-1 $90 $31 $37 $69 reversed $43 $-1 #
coedge $-1 $31 $90 $76 $91 forward $43 $-1 #
vertex $-1 $32 $92 #
intcurve-curve $-1 forward { exactcur nurbs 2 open 2 
	0.58018631708569435 2 2.333266406084503 2 
	0.57735026918962573 -1.5913014563094333e-016 0.86797138008455732 1.1577901829714847 
	0.43301270189221935 -0.24999999999999997 0.95130471341789036 1.336900947607385 
	0.28867513459481281 -0.5 0.86797138008455732 1.1577901829714852 
	0 
	null_surface 
	null_surface 
	nullbs 
	nullbs 
	I I 
	0 
	0 
	0 
	F 1 F 0 } I I #
coedge $-1 $80 $93 $33 $61 forward $94 $-1 #
edge $-1 $65 $82 $60 $95 forward #
coedge $-1 $96 $34 $93 $97 reversed $64 $-1 #
coedge $-1 $34 $96 $36 $68 forward $64 $-1 #
loop $-1 $-1 $34 $98 #
vertex $-1 $35 $99 #
intcurve-curve $-1 forward { exactcur nurbs 2 open 2 
	0.58018631708569379 2 2.3332664060845061 2 
	-0.28867513459481303 -0.49999999999999994 0.86797138008455732 1.1577901829714858 
	-0.43301270189221946 -0.24999999999999972 0.95130471341789036 1.3369009476073879 
	-0.57735026918962573 8.4687287803592155e-017 0.86797138008455732 1.1577901829714858 
	0 
	null_surface 
	null_surface 
	nullbs 
	nullbs 
	I I 
	0 
	0 
	0 
	F 1 F 0 } I I #
coedge $-1 $37 $36 $100 $101 reversed $38 $-1 #
edge $-1 $102 $40 $63 $103 forward #
edge $-1 $104 $39 $37 $105 forward #
face $-1 $98 $38 $2 $-1 $106 forward single #
point $-1 0.28867513459481281 -0.5 0.86797138008455732 #
point $-1 -0.28867513459481303 -0.49999999999999994 0.86797138008455732 #
face $-1 $107 $108 $2 $-1 $109 reversed single #
loop $-1 $110 $111 $42 #
cone-surface $-1 0 0 0.31489380475795448 0 0 1 0.1115 0 0 1 I I 0.85716730070211233 0.51503807491005416 0.1115 reversed I I I I #
coedge $-1 $112 $45 $57 $91 reversed $23 $-1 #
coedge $-1 $45 $112 $46 $79 forward $23 $-1 #
coedge $-1 $47 $46 $113 $114 reversed $13 $-1 #
edge $-1 $115 $83 $77 $116 forward #
coedge $-1 $117 $60 $47 $81 reversed $94 $-1 #
edge $-1 $118 $82 $47 $119 forward #
vertex $-1 $61 $120 #
vertex $-1 $55 $121 #
intcurve-curve $-1 forward { exactcur nurbs 2 open 2 
	0.58018631708569457 2 2.3332664060845034 2 
	-0.28867513459481287 0.49999999999999994 0.86797138008455732 1.1577901829714849 
	-1.3112870369588462e-016 0.49999999999999994 0.95130471341789036 1.3369009476073852 
	0.28867513459481275 0.49999999999999994 0.86797138008455732 1.1577901829714849 
	0 
	null_surface 
	null_surface 
	nullbs 
	nullbs 
	I I 
	0 
	0 
	0 
	F 1 F 0 } I I #
loop $-1 $-1 $122 $86 #
face $-1 $123 $50 $2 $-1 $124 forward single #
point $-1 0.3248031496062993 3.9775600074939431e-017 1.1318897637795275 #
point $-1 -0.32480314960629936 0 1.0137795275590551 #
intcurve-curve $-1 forward { exactcur nurbs 2 open 2 
	0.58018631708569457 2 2.3332664060845052 2 
	0.28867513459481275 0.49999999999999994 0.86797138008455732 1.1577901829714845 
	0.43301270189221919 0.24999999999999989 0.95130471341789036 1.336900947607385 
	0.57735026918962573 -1.5913014563094333e-016 0.86797138008455732 1.1577901829714845 
	0 
	null_surface 
	null_surface 
	nullbs 
	nullbs 
	I I 
	0 
	0 
	0 
	F 1 F 0 } I I #
coedge $-1 $57 $56 $125 $126 reversed $43 $-1 #
edge $-1 $127 $58 $57 $128 forward #
point $-1 0.57735026918962573 -1.5913014563094333e-016 0.86797138008455732 #
coedge $-1 $60 $117 $62 $97 forward $94 $-1 #
loop $-1 $-1 $60 $129 #
intcurve-curve $-1 forward { exactcur nurbs 2 open 2 
	0.58018631708569435 2 2.3332664060845056 2 
	-0.57735026918962573 8.4687287803592155e-017 0.86797138008455732 1.1577901829714845 
	-0.4330127018922193 0.25000000000000011 0.95130471341789036 1.3369009476073852 
	-0.28867513459481287 0.49999999999999994 0.86797138008455732 1.1577901829714847 
	0 
	null_surface 
	null_surface 
	nullbs 
	nullbs 
	I I 
	0 
	0 
	0 
	F 1 F 0 } I I #
coedge $-1 $63 $62 $130 $131 reversed $64 $-1 #
edge $-1 $132 $65 $93 $133 forward #
face $-1 $129 $64 $2 $-1 $134 forward single #
point $-1 -0.57735026918962573 8.4687287803592155e-017 0.86797138008455732 #
coedge $-1 $130 $125 $67 $101 forward $135 $-1 #
edge $-1 $104 $102 $100 $136 forward #
vertex $-1 $101 $137 #
straight-curve $-1 -0.28867513459481303 -0.49999999999999994 0 0 0 0.39370078740157477 I I #
vertex $-1 $126 $138 #
straight-curve $-1 0.28867513459481281 -0.5 0 0 0 0.39370078740157477 I I #
plane-surface $-1 0.28867513459481281 -0.5 0 -1.5141438475461133e-016 -1 0 0 0 -0.39370078740157477 forward_v I I I I #
face $-1 $139 $140 $2 $-1 $141 reversed single #
loop $-1 $142 $143 $73 #
cone-surface $-1 0 0 0.75688976377952744 0 0 1 0.223 0 0 1 I I 0 1 0.223 reversed I I I I #
loop $-1 $-1 $144 $42 #
coedge $-1 $111 $111 $145 $146 reversed $74 $-1 #
coedge $-1 $77 $76 $147 $148 reversed $23 $-1 #
coedge $-1 $147 $149 $78 $114 forward $135 $-1 #
edge $-1 $118 $115 $113 $150 forward #
vertex $-1 $114 $151 #
straight-curve $-1 0.2886751345948127 0.49999999999999994 0 0 0 0.39370078740157477 I I #
coedge $-1 $93 $80 $149 $152 reversed $94 $-1 #
vertex $-1 $152 $153 #
straight-curve $-1 -0.28867513459481287 0.49999999999999994 0 0 0 0.39370078740157477 I I #
point $-1 -0.28867513459481287 0.49999999999999994 0.86797138008455732 #
point $-1 0.28867513459481275 0.49999999999999994 0.86797138008455732 #
coedge $-1 $122 $122 $143 $154 forward $85 $-1 #
face $-1 $-1 $155 $2 $-1 $156 reversed single #
plane-surface $-1 -4.8676564250745045e-017 -3.2782175923971155e-017 1.1318897637795275 0 0 1 0.39370078740157477 0 0 forward_v I I I I #
coedge $-1 $100 $147 $90 $126 forward $135 $-1 #
edge $-1 $127 $104 $125 $157 forward #
vertex $-1 $126 $158 #
straight-curve $-1 0.57735026918962573 -1.5913014563094331e-016 0 0 0 0.39370078740157477 I I #
face $-1 $86 $94 $2 $-1 $159 forward single #
coedge $-1 $149 $100 $96 $131 forward $135 $-1 #
edge $-1 $102 $132 $130 $160 forward #
vertex $-1 $131 $161 #
straight-curve $-1 -0.57735026918962573 8.4687287803592155e-017 0 0 0 0.39370078740157477 I I #
plane-surface $-1 -0.28867513459481303 -0.49999999999999994 0 -0.86602540378443882 -0.49999999999999983 0 0 0 0.39370078740157477 forward_v I I I I #
loop $-1 $-1 $125 $123 #
straight-curve $-1 0.28867513459481281 -0.5 0 -0.39370078740157477 5.9611962501815478e-017 0 F 0 F 1.4664696837416495 #
point $-1 -0.28867513459481303 -0.49999999999999994 0 #
point $-1 0.28867513459481281 -0.5 0 #
face $-1 $70 $162 $2 $-1 $163 reversed single #
loop $-1 $164 $165 $107 #
cone-surface $-1 0 0 0.071898025451313088 0 0 -1 -0.1875 0 0 1 I I 0.65605902899050728 0.75470958022277201 0.1875 reversed I I I I #
loop $-1 $-1 $166 $73 #
coedge $-1 $143 $143 $122 $154 reversed $108 $-1 #
coedge $-1 $144 $144 $166 $167 forward $110 $-1 #
coedge $-1 $145 $145 $111 $146 forward $162 $-1 #
edge $-1 $168 $168 $145 $169 forward #
coedge $-1 $125 $113 $112 $148 forward $135 $-1 #
edge $-1 $115 $127 $147 $170 forward #
coedge $-1 $113 $130 $117 $152 forward $135 $-1 #
straight-curve $-1 -0.28867513459481287 0.49999999999999994 0 0.39370078740157477 0 0 F 0 F 1.4664696837416491 #
point $-1 0.2886751345948127 0.49999999999999994 0 #
edge $-1 $132 $118 $149 $171 forward #
point $-1 -0.28867513459481287 0.49999999999999994 0 #
edge $-1 $172 $172 $122 $173 forward #
loop $-1 $135 $174 $123 #
plane-surface $-1 -4.3709567898628207e-017 -3.2782175923971155e-017 0 0 0 1 0.39370078740157477 0 0 forward_v I I I I #
straight-curve $-1 0.57735026918962573 -1.5913014563094331e-016 0 -0.19685039370078755 -0.3409548833797002 0 F 0 F 1.4664696837416495 #
point $-1 0.57735026918962573 -1.5913014563094331e-016 0 #
plane-surface $-1 -0.57735026918962573 8.4687287803592155e-017 0 -0.86602540378443871 0.50000000000000011 0 0 0 0.39370078740157477 forward_v I I I I #
straight-curve $-1 -0.28867513459481303 -0.49999999999999994 0 -0.19685039370078733 0.34095488337970031 0 F 0 F 1.4664696837416495 #
point $-1 -0.57735026918962573 8.4687287803592155e-017 0 #
loop $-1 $175 $145 $139 #
cone-surface $-1 0 0 1.901185885357402 0 0 -1 -0.12499999999999999 0 0 1 I I 0 1 0.12499999999999999 reversed I I I I #
loop $-1 $-1 $176 $107 #
coedge $-1 $165 $165 $174 $177 reversed $140 $-1 #
coedge $-1 $166 $166 $144 $167 reversed $142 $-1 #
edge $-1 $178 $178 $166 $179 forward #
vertex $-1 $146 $180 #
ellipse-curve $-1 0 0 0.32300542311482661 0 0 1 -0.12499999999999999 0 0 1 I I #
straight-curve $-1 0.2886751345948127 0.49999999999999994 0 0.19685039370078744 -0.3409548833797002 0 F 0 F 1.4664696837416502 #
straight-curve $-1 -0.57735026918962573 8.4687287803592155e-017 0 0.19685039370078747 0.34095488337970026 0 F 0 F 1.4664696837416495 #
vertex $-1 $154 $181 #
ellipse-curve $-1 0 0 1.1318897637795275 0 0 -1 0.223 0 0 1 I I #
coedge $-1 $174 $174 $165 $177 forward $155 $-1 #
loop $-1 $-1 $182 $139 #
coedge $-1 $176 $176 $182 $183 reversed $164 $-1 #
edge $-1 $184 $184 $174 $185 forward #
vertex $-1 $167 $186 #
ellipse-curve $-1 0 0 0.38188976377952749 0 0 1 0.223 0 0 1 I I #
point $-1 0.12499999999999999 1.5307579422779713e-017 0.32300542311482661 #
point $-1 0.223 0 1.1318897637795275 #
coedge $-1 $182 $182 $176 $183 forward $175 $-1 #
edge $-1 $187 $187 $182 $188 forward #
vertex $-1 $177 $189 #
ellipse-curve $-1 0 0 0 0 0 1 -0.24999999999999997 0 0 1 I I #
point $-1 0.223 0 0.38188976377952749 #
vertex $-1 $183 $190 #
ellipse-curve $-1 0 0 0.14379605090262573 0 0 -1 -0.12499999999999999 0 0 1 I I #
point $-1 -0.24999999999999997 0 0 #
point $-1 -0.12499999999999999 0 0.14379605090262618 #
End-of-ACIS-data 