700 0 1 0           
29 Autodesk Inventor 6.2.0.12000 17 ASM 6.0.1.6021 NT 24 Sat Dec 31 14:05:47 2005 
25.399999999999999 9.9999999999999995e-007 1e-010 
body $-1 -1 $-1 $1 $-1 $-1 #
lump $-1 -1 $-1 $-1 $2 $0 #
shell $-1 -1 $-1 $-1 $-1 $3 $-1 $1 #
face $-1 -1 $-1 $4 $5 $2 $-1 $6 reversed single #
face $-1 -1 $-1 $7 $8 $2 $-1 $9 reversed single #
loop $-1 -1 $-1 $10 $11 $3 #
cone-surface $-1 -1 $-1 0.0021953202715563149 0.39062593026383835 0 0 0 1 -0.24999999999999997 0 0 1 I I 0 1 0.24999999999999997 forward I I I I #
face $-1 -1 $-1 $12 $13 $2 $-1 $14 forward single #
loop $-1 -1 $-1 $15 $16 $4 #
plane-surface $-1 -1 $-1 0.041968047544283571 0.39062593026383835 -0.75 0 0 1 0.39370078740157477 0 0 forward_v I I I I #
loop $-1 -1 $-1 $-1 $17 $3 #
coedge $-1 -1 $-1 $11 $11 $16 $18 reversed $5 $-1 #
face $-1 -1 $-1 $19 $20 $2 $-1 $21 reversed single #
loop $-1 -1 $-1 $22 $23 $7 #
plane-surface $-1 -1 $-1 0.041968047544283571 0.39062593026383835 0.75 0 0 1 0.39370078740157477 0 0 forward_v I I I I #
loop $-1 -1 $-1 $-1 $24 $4 #
coedge $-1 -1 $-1 $16 $16 $11 $18 forward $8 $-1 #
coedge $-1 -1 $-1 $17 $17 $23 $25 reversed $10 $-1 #
edge $-1 -1 $-1 $26 -3.1415926535897931 $26 3.1415926535897931 $16 $27 forward @7 unknown #
face $-1 -1 $-1 $28 $29 $2 $-1 $30 reversed single #
loop $-1 -1 $-1 $31 $32 $12 #
cone-surface $-1 -1 $-1 0.0021953202715563154 0.39062593026383835 0 0 0 1 -0.4375 0 0 1 I I 0 1 0.4375 forward I I I I #
loop $-1 -1 $-1 $-1 $33 $7 #
coedge $-1 -1 $-1 $23 $23 $17 $25 forward $13 $-1 #
coedge $-1 -1 $-1 $24 $24 $34 $35 reversed $15 $-1 #
edge $36 -1 $-1 $37 -3.1415926535897931 $37 3.1415926535897931 $23 $38 forward @7 unknown #
vertex $-1 -1 $-1 $18 $39 #
ellipse-curve $-1 -1 $-1 0.0021953202715563149 0.39062593026383835 -0.75 0 0 1 -0.24999999999999997 0 0 1 I I #
face $-1 -1 $-1 $40 $41 $2 $-1 $42 reversed single #
loop $-1 -1 $-1 $43 $44 $19 #
cone-surface $-1 -1 $-1 0.84469532027155625 2.5975153760460472 -0.49999999999999994 7.817879107496863e-017 -1 0 0.075999999999999984 5.9415881216976147e-018 0 1 I I 0 1 0.075999999999999984 reversed I I I I #
loop $-1 -1 $-1 $-1 $45 $12 #
coedge $-1 -1 $-1 $32 $32 $46 $47 reversed $20 $-1 #
coedge $-1 -1 $-1 $33 $33 $45 $48 reversed $22 $-1 #
coedge $-1 -1 $-1 $34 $34 $24 $35 forward $49 $-1 #
edge $-1 -1 $-1 $50 -3.1415926535897931 $50 3.1415926535897931 $34 $51 forward @7 unknown #
convexity-sys-attrib $-1 -1 $-1 $-1 $25 #
vertex $-1 -1 $-1 $25 $52 #
ellipse-curve $-1 -1 $-1 0.0021953202715563149 0.39062593026383835 0.75 0 0 -1 -0.24999999999999997 0 0 1 I I #
point $-1 -1 $-1 0.25219532027155633 0.39062593026383835 -0.75 #
face $-1 -1 $-1 $53 $54 $2 $-1 $55 reversed single #
loop $-1 -1 $-1 $56 $57 $28 #
cone-surface $-1 -1 $-1 -0.84030467972844369 2.5975153760460472 0.49999999999999994 7.817879107496863e-017 -1 0 0.075999999999999984 5.9415881216976147e-018 0 1 I I 0 1 0.075999999999999984 reversed I I I I #
loop $-1 -1 $-1 $-1 $58 $19 #
coedge $-1 -1 $-1 $44 $44 $59 $60 reversed $29 $-1 #
coedge $-1 -1 $-1 $45 $45 $33 $48 forward $31 $-1 #
coedge $-1 -1 $-1 $46 $46 $32 $47 forward $61 $-1 #
edge $62 -1 $-1 $63 -3.1415926535897931 $63 3.1415926535897931 $46 $64 forward @7 unknown #
edge $65 -1 $-1 $66 -3.1415926535897931 $66 3.1415926535897931 $45 $67 forward @7 unknown #
loop $-1 -1 $-1 $68 $34 $69 #
vertex $-1 -1 $-1 $35 $70 #
ellipse-curve $-1 -1 $-1 0.0021953202715563154 0.39062593026383835 -0.75 0 0 1 -0.4375 0 0 1 I I #
point $-1 -1 $-1 0.25219532027155633 0.39062593026383835 0.75 #
face $-1 -1 $-1 $69 $71 $2 $-1 $72 reversed single #
loop $-1 -1 $-1 $73 $74 $40 #
cone-surface $-1 -1 $-1 -0.84030467972844369 2.5975153760460472 -0.49999999999999994 7.817879107496863e-017 -1 0 0.075999999999999984 5.9415881216976147e-018 0 1 I I 0 1 0.075999999999999984 reversed I I I I #
loop $-1 -1 $-1 $-1 $75 $28 #
coedge $-1 -1 $-1 $57 $57 $76 $77 reversed $41 $-1 #
coedge $-1 -1 $-1 $58 $58 $78 $79 reversed $43 $-1 #
coedge $-1 -1 $-1 $59 $59 $44 $60 forward $80 $-1 #
edge $-1 -1 $-1 $81 -3.1415926535897931 $81 3.1415926535897931 $59 $82 forward @7 unknown #
loop $-1 -1 $-1 $83 $46 $84 #
convexity-sys-attrib $-1 -1 $-1 $-1 $47 #
vertex $-1 -1 $-1 $47 $85 #
ellipse-curve $-1 -1 $-1 0.0021953202715563154 0.39062593026383835 0.84499999999999997 0 0 -1 -0.4375 0 0 1 I I #
convexity-sys-attrib $-1 -1 $-1 $-1 $48 #
vertex $-1 -1 $-1 $48 $86 #
ellipse-curve $-1 -1 $-1 0.0021953202715563154 0.39062593026383835 0.75 0 0 -1 -0.4375 0 0 1 I I #
loop $-1 -1 $-1 $-1 $87 $69 #
face $-1 -1 $-1 $88 $49 $2 $-1 $21 reversed single #
point $-1 -1 $-1 0.43969532027155628 0.39062593026383835 -0.75 #
loop $-1 -1 $-1 $89 $90 $53 #
cone-surface $-1 -1 $-1 0.84469532027155625 2.5975153760460472 0.49999999999999994 7.817879107496863e-017 -1 0 0.075999999999999984 5.9415881216976147e-018 0 1 I I 0 1 0.075999999999999984 reversed I I I I #
loop $-1 -1 $-1 $-1 $91 $40 #
coedge $-1 -1 $-1 $74 $74 $92 $93 reversed $54 $-1 #
coedge $-1 -1 $-1 $75 $75 $94 $95 reversed $56 $-1 #
coedge $-1 -1 $-1 $76 $76 $57 $77 forward $96 $-1 #
edge $-1 -1 $-1 $97 -3.1415926535897931 $97 3.1415926535897931 $76 $98 forward @7 unknown #
coedge $-1 -1 $-1 $78 $78 $58 $79 forward $99 $-1 #
edge $-1 -1 $-1 $100 0 $100 6.2831853071795862 $78 $101 forward @7 unknown #
loop $-1 -1 $-1 $102 $59 $103 #
vertex $-1 -1 $-1 $60 $104 #
ellipse-curve $-1 -1 $-1 0.84469532027155636 -0.059374069736161598 -0.49999999999999994 0 -1 0 0.075999999999999984 5.9415881216976147e-018 0 1 I I #
loop $-1 -1 $-1 $-1 $105 $84 #
face $-1 -1 $-1 $-1 $61 $2 $-1 $106 forward single #
point $-1 -1 $-1 0.43969532027155628 0.39062593026383835 0.84499999999999997 #
point $-1 -1 $-1 0.43969532027155628 0.39062593026383835 0.75 #
coedge $-1 -1 $-1 $87 $87 $107 $108 reversed $68 $-1 #
face $-1 -1 $-1 $109 $110 $2 $-1 $111 reversed single #
loop $-1 -1 $-1 $-1 $112 $53 #
coedge $-1 -1 $-1 $90 $90 $113 $114 reversed $71 $-1 #
coedge $-1 -1 $-1 $91 $91 $115 $116 reversed $73 $-1 #
coedge $-1 -1 $-1 $92 $92 $74 $93 forward $117 $-1 #
edge $-1 -1 $-1 $118 -3.1415926535897931 $118 3.1415926535897931 $92 $119 forward @7 unknown #
coedge $-1 -1 $-1 $94 $94 $75 $95 forward $120 $-1 #
edge $-1 -1 $-1 $121 0 $121 6.2831853071795862 $94 $122 forward @7 unknown #
loop $-1 -1 $-1 $117 $76 $123 #
vertex $-1 -1 $-1 $77 $124 #
ellipse-curve $-1 -1 $-1 -0.84030467972844347 -0.059374069736161598 0.49999999999999994 0 -1 0 0.075999999999999984 5.9415881216976147e-018 0 1 I I #
loop $-1 -1 $-1 $125 $78 $126 #
vertex $-1 -1 $-1 $79 $127 #
ellipse-curve $-1 -1 $-1 0.84469532027155636 -0.30937406973616149 -0.49999999999999994 0 1 0 0.075999999999999984 5.9415881216976147e-018 0 1 I I #
loop $-1 -1 $-1 $128 $113 $103 #
face $-1 -1 $-1 $129 $80 $2 $-1 $130 forward single #
point $-1 -1 $-1 0.7686953202715564 -0.059374069736161612 -0.49999999999999994 #
coedge $-1 -1 $-1 $131 $132 $133 $134 reversed $83 $-1 #
plane-surface $-1 -1 $-1 0.0021215001348422638 0.17900274102944427 0.84499999999999997 0 0 1 0.39370078740157477 0 0 forward_v I I I I #
coedge $-1 -1 $-1 $107 $107 $87 $108 forward $110 $-1 #
edge $-1 -1 $-1 $135 -3.1415926535897931 $135 3.1415926535897931 $107 $136 forward @7 unknown #
face $-1 -1 $-1 $137 $138 $2 $-1 $139 forward single #
loop $-1 -1 $-1 $140 $107 $88 #
plane-surface $-1 -1 $-1 0.0021215001348422803 0.17900274102944425 -0.84499999999999997 0 0 1 0.39370078740157477 0 0 forward_v I I I I #
coedge $-1 -1 $-1 $112 $112 $141 $142 reversed $89 $-1 #
coedge $-1 -1 $-1 $113 $113 $90 $114 forward $102 $-1 #
edge $-1 -1 $-1 $143 -3.1415926535897931 $143 3.1415926535897931 $113 $144 forward @7 unknown #
coedge $-1 -1 $-1 $115 $115 $91 $116 forward $145 $-1 #
edge $-1 -1 $-1 $146 0 $146 6.2831853071795862 $115 $147 forward @7 unknown #
loop $-1 -1 $-1 $148 $92 $123 #
vertex $-1 -1 $-1 $93 $149 #
ellipse-curve $-1 -1 $-1 -0.84030467972844347 -0.059374069736161598 -0.49999999999999994 0 -1 0 0.075999999999999984 5.9415881216976147e-018 0 1 I I #
loop $-1 -1 $-1 $145 $94 $150 #
vertex $-1 -1 $-1 $95 $151 #
ellipse-curve $-1 -1 $-1 -0.84030467972844347 -0.30937406973616149 0.49999999999999994 -7.817879107496863e-017 1 0 0.075999999999999984 5.9415881216976147e-018 0 1 I I #
face $-1 -1 $-1 $84 $96 $2 $-1 $152 forward single #
point $-1 -1 $-1 -0.91630467972844343 -0.059374069736161612 0.49999999999999994 #
loop $-1 -1 $-1 $153 $141 $126 #
face $-1 -1 $-1 $154 $99 $2 $-1 $155 forward single #
point $-1 -1 $-1 0.92069532027155654 -0.30937406973616138 -0.49999999999999994 #
loop $-1 -1 $-1 $-1 $156 $103 #
face $-1 -1 $-1 $126 $157 $2 $-1 $158 forward single #
plane-surface $-1 -1 $-1 0.67719532027155638 -0.059374069736161564 0 0 1 0 0 0 0.39370078740157477 forward_v I I I I #
coedge $-1 -1 $-1 $159 $105 $160 $161 reversed $83 $-1 #
coedge $-1 -1 $-1 $105 $162 $163 $164 reversed $83 $-1 #
coedge $-1 -1 $-1 $165 $166 $105 $134 forward $138 $-1 #
edge $167 -1 $-1 $168 -2.2225000000000001 $169 0 $133 $170 forward @7 unknown #
vertex $-1 -1 $-1 $108 $171 #
ellipse-curve $-1 -1 $-1 0.0021953202715563154 0.39062593026383835 -0.84499999999999997 0 0 1 -0.4375 0 0 1 I I #
face $-1 -1 $-1 $172 $173 $2 $-1 $174 forward single #
loop $-1 -1 $-1 $-1 $133 $109 #
plane-surface $-1 -1 $-1 -0.67280467972844371 -0.059374069736161557 0 -1 0 0 0 0 0.39370078740157477 forward_v I I I I #
loop $-1 -1 $-1 $-1 $175 $88 #
coedge $-1 -1 $-1 $141 $141 $112 $142 forward $125 $-1 #
edge $-1 -1 $-1 $176 0 $176 6.2831853071795862 $141 $177 forward @7 unknown #
vertex $-1 -1 $-1 $114 $178 #
ellipse-curve $-1 -1 $-1 0.84469532027155636 -0.059374069736161598 0.49999999999999994 0 -1 0 0.075999999999999984 5.9415881216976147e-018 0 1 I I #
loop $-1 -1 $-1 $179 $115 $150 #
vertex $-1 -1 $-1 $116 $180 #
ellipse-curve $-1 -1 $-1 -0.84030467972844347 -0.30937406973616149 -0.49999999999999994 -7.817879107496863e-017 1 0 0.075999999999999984 5.9415881216976147e-018 0 1 I I #
loop $-1 -1 $-1 $-1 $160 $123 #
point $-1 -1 $-1 -0.91630467972844343 -0.059374069736161612 -0.49999999999999994 #
face $-1 -1 $-1 $181 $120 $2 $-1 $182 forward single #
point $-1 -1 $-1 -0.76430467972844351 -0.30937406973616149 0.49999999999999994 #
plane-surface $-1 -1 $-1 -0.99780467972844356 -0.059374069736161557 0 0 1 0 0 0 0.39370078740157477 forward_v I I I I #
loop $-1 -1 $-1 $-1 $183 $126 #
face $-1 -1 $-1 $184 $185 $2 $-1 $186 forward single #
plane-surface $-1 -1 $-1 1.0021953202715563 -0.30937406973616149 0 0 -1 0 0 0 -0.39370078740157477 forward_v I I I I #
coedge $-1 -1 $-1 $187 $188 $189 $190 forward $128 $-1 #
loop $-1 -1 $-1 $-1 $191 $129 #
plane-surface $-1 -1 $-1 1.0021953202715563 -0.059374069736161564 0 1 0 0 0 0 -0.39370078740157477 forward_v I I I I #
coedge $-1 -1 $-1 $192 $131 $193 $194 reversed $83 $-1 #
coedge $-1 -1 $-1 $195 $196 $131 $161 forward $148 $-1 #
edge $197 -1 $-1 $198 -0.82549999999999968 $168 0 $160 $199 forward @7 unknown #
coedge $-1 -1 $-1 $132 $200 $201 $202 reversed $83 $-1 #
coedge $-1 -1 $-1 $203 $204 $132 $164 forward $173 $-1 #
edge $205 -1 $-1 $169 -0.7785479112155208 $206 0 $163 $207 forward @7 unknown #
coedge $-1 -1 $-1 $208 $133 $204 $209 reversed $138 $-1 #
coedge $-1 -1 $-1 $133 $208 $195 $210 reversed $138 $-1 #
convexity-sys-attrib $-1 -1 $-1 $-1 $134 #
vertex $-1 -1 $-1 $210 $211 #
vertex $-1 -1 $-1 $209 $212 #
straight-curve $-1 -1 $-1 -0.67280467972844371 0.81562593026383834 0.84499999999999997 0 0.39370078740157477 0 F -2.2225000000000001 F 0 #
point $-1 -1 $-1 0.43969532027155628 0.39062593026383835 -0.84499999999999997 #
face $-1 -1 $-1 $213 $214 $2 $-1 $215 forward single #
loop $-1 -1 $-1 $-1 $163 $137 #
plane-surface $-1 -1 $-1 -0.67280467972844371 0.81562593026383834 0 0 1 0 0 0 0.39370078740157477 forward_v I I I I #
coedge $-1 -1 $-1 $216 $217 $218 $219 reversed $140 $-1 #
vertex $-1 -1 $-1 $142 $220 #
ellipse-curve $-1 -1 $-1 0.84469532027155636 -0.30937406973616149 0.49999999999999994 0 1 0 0.075999999999999984 5.9415881216976147e-018 0 1 I I #
point $-1 -1 $-1 0.7686953202715564 -0.059374069736161612 0.49999999999999994 #
loop $-1 -1 $-1 $-1 $221 $150 #
point $-1 -1 $-1 -0.76430467972844351 -0.30937406973616149 -0.49999999999999994 #
face $-1 -1 $-1 $123 $222 $2 $-1 $223 forward single #
plane-surface $-1 -1 $-1 -0.43870716366793766 -0.30937406973616149 0 7.817879107496863e-017 -1 0 0 0 -0.39370078740157477 forward_v I I I I #
coedge $-1 -1 $-1 $224 $225 $226 $227 forward $153 $-1 #
face $-1 -1 $-1 $228 $229 $2 $-1 $230 forward single #
loop $-1 -1 $-1 $-1 $231 $154 #
plane-surface $-1 -1 $-1 0.43129283633206239 -0.30937406973616149 0 -1 0 0 0 0 0.39370078740157477 forward_v I I I I #
coedge $-1 -1 $-1 $232 $156 $233 $234 reversed $128 $-1 #
coedge $-1 -1 $-1 $156 $232 $235 $236 forward $128 $-1 #
coedge $-1 -1 $-1 $237 $238 $156 $190 reversed $83 $-1 #
edge $-1 -1 $-1 $239 -0.8254999999999999 $240 0 $156 $241 forward @7 unknown #
coedge $-1 -1 $-1 $242 $233 $238 $243 forward $157 $-1 #
coedge $-1 -1 $-1 $244 $159 $221 $245 reversed $83 $-1 #
coedge $-1 -1 $-1 $246 $247 $159 $194 forward $222 $-1 #
edge $248 -1 $-1 $249 -0.63500000000000001 $198 0 $193 $250 forward @7 unknown #
coedge $-1 -1 $-1 $251 $160 $166 $210 forward $148 $-1 #
coedge $-1 -1 $-1 $160 $251 $246 $252 forward $148 $-1 #
convexity-sys-attrib $-1 -1 $-1 $-1 $161 #
vertex $-1 -1 $-1 $252 $253 #
straight-curve $-1 -1 $-1 -0.67280467972844371 -0.059374069736161557 0.84499999999999997 0.39370078740157477 0 0 F -0.82549999999999968 F 0 #
coedge $-1 -1 $-1 $162 $237 $254 $255 reversed $83 $-1 #
coedge $-1 -1 $-1 $256 $257 $162 $202 forward $214 $-1 #
edge $258 -1 $-1 $206 -1.4285891092645107 $259 0 $201 $260 forward @7 unknown #
coedge $-1 -1 $-1 $261 $163 $257 $262 reversed $173 $-1 #
coedge $-1 -1 $-1 $163 $261 $165 $209 forward $173 $-1 #
convexity-sys-attrib $-1 -1 $-1 $-1 $164 #
vertex $-1 -1 $-1 $262 $263 #
straight-curve $-1 -1 $-1 -0.36628975405304187 0.81562593026383834 0.84499999999999997 0.39370078740157477 0 0 F -0.7785479112155208 F 0 #
coedge $-1 -1 $-1 $166 $165 $264 $265 forward $138 $-1 #
edge $266 -1 $-1 $267 -2.1463000000000001 $169 2.1463000000000001 $204 $268 forward @7 unknown #
edge $269 -1 $-1 $168 -2.1463000000000001 $270 2.1463000000000001 $195 $271 forward @7 unknown #
point $-1 -1 $-1 -0.67280467972844371 -0.059374069736161557 0.84499999999999997 #
point $-1 -1 $-1 -0.67280467972844371 0.81562593026383834 0.84499999999999997 #
face $-1 -1 $-1 $272 $273 $2 $-1 $274 forward single #
loop $-1 -1 $-1 $-1 $201 $172 #
cone-surface $-1 -1 $-1 0.0021953202715563154 0.39062593026383835 0 0 0 1 0.36848507432459549 0.42499999999999688 0 1 I I 0 1 0.56249999999999989 forward I I I I #
coedge $-1 -1 $-1 $264 $175 $251 $275 reversed $140 $-1 #
coedge $-1 -1 $-1 $175 $276 $277 $278 reversed $140 $-1 #
coedge $-1 -1 $-1 $247 $246 $175 $219 forward $222 $-1 #
edge $279 -1 $-1 $280 0 $281 0.63500000000000001 $218 $282 forward @7 unknown #
point $-1 -1 $-1 0.92069532027155654 -0.30937406973616138 0.49999999999999994 #
coedge $-1 -1 $-1 $283 $284 $192 $245 forward $179 $-1 #
loop $-1 -1 $-1 $-1 $193 $181 #
plane-surface $-1 -1 $-1 -0.99780467972844356 -0.30937406973616155 0 -1 0 0 0 0 0.39370078740157477 forward_v I I I I #
coedge $-1 -1 $-1 $285 $183 $286 $287 reversed $153 $-1 #
coedge $-1 -1 $-1 $183 $285 $242 $288 forward $153 $-1 #
coedge $-1 -1 $-1 $238 $289 $183 $227 reversed $83 $-1 #
edge $-1 -1 $-1 $290 -1.4500923092063147 $291 0 $183 $292 forward @7 unknown #
face $-1 -1 $-1 $150 $293 $2 $-1 $294 forward single #
loop $-1 -1 $-1 $-1 $295 $184 #
plane-surface $-1 -1 $-1 0.43129283633206239 -0.26937406973616151 0 0 -1 0 0 0 -0.39370078740157477 forward_v I I I I #
coedge $-1 -1 $-1 $296 $286 $289 $297 forward $185 $-1 #
coedge $-1 -1 $-1 $188 $187 $298 $299 forward $128 $-1 #
coedge $-1 -1 $-1 $191 $300 $187 $234 forward $157 $-1 #
edge $-1 -1 $-1 $301 -2.1463000000000001 $240 2.1463000000000001 $233 $302 forward @7 unknown #
coedge $-1 -1 $-1 $303 $304 $188 $236 reversed $305 $-1 #
edge $-1 -1 $-1 $306 -2.1463000000000001 $239 2.1463000000000001 $188 $307 forward @7 unknown #
coedge $-1 -1 $-1 $200 $189 $304 $308 reversed $83 $-1 #
coedge $-1 -1 $-1 $189 $226 $191 $243 reversed $83 $-1 #
vertex $-1 -1 $-1 $236 $309 #
vertex $-1 -1 $-1 $234 $310 #
straight-curve $-1 -1 $-1 1.0021953202715563 -0.059374069736161564 0.84499999999999997 0.39370078740157477 0 0 F -0.8254999999999999 F 0 #
coedge $-1 -1 $-1 $300 $191 $225 $288 reversed $157 $-1 #
edge $-1 -1 $-1 $240 -0.6349999999999999 $290 0 $191 $311 forward @7 unknown #
coedge $-1 -1 $-1 $312 $192 $313 $314 reversed $83 $-1 #
edge $315 -1 $-1 $316 -1.4201076907936852 $249 0 $221 $317 forward @7 unknown #
coedge $-1 -1 $-1 $218 $193 $196 $252 reversed $222 $-1 #
coedge $-1 -1 $-1 $193 $218 $283 $318 forward $222 $-1 #
convexity-sys-attrib $-1 -1 $-1 $-1 $194 #
vertex $-1 -1 $-1 $318 $319 #
straight-curve $-1 -1 $-1 -0.99780467972844356 -0.059374069736161557 0.84499999999999997 0 0.39370078740157477 0 F -0.63500000000000001 F 0 #
coedge $-1 -1 $-1 $196 $195 $216 $275 forward $148 $-1 #
edge $-1 -1 $-1 $280 -2.1463000000000001 $198 2.1463000000000001 $196 $320 forward @7 unknown #
point $-1 -1 $-1 -0.99780467972844356 -0.059374069736161557 0.84499999999999997 #
coedge $-1 -1 $-1 $321 $322 $200 $255 forward $273 $-1 #
edge $323 -1 $-1 $259 -0.77854791121552069 $324 0 $254 $325 forward @7 unknown #
coedge $-1 -1 $-1 $326 $201 $322 $327 reversed $214 $-1 #
coedge $-1 -1 $-1 $201 $326 $203 $262 forward $214 $-1 #
convexity-sys-attrib $-1 -1 $-1 $-1 $202 #
vertex $-1 -1 $-1 $327 $328 #
ellipse-curve $-1 -1 $-1 0.0021953202715563154 0.39062593026383835 0.84499999999999997 0 0 -1 0.36848507432459549 0.42499999999999688 0 1 F -1.4285891092645104 F -1.0877466104839913e-016 #
coedge $-1 -1 $-1 $204 $203 $329 $330 forward $173 $-1 #
edge $331 -1 $-1 $332 -2.1463000000000001 $206 2.1463000000000001 $257 $333 forward @7 unknown #
point $-1 -1 $-1 -0.36628975405304187 0.81562593026383834 0.84499999999999997 #
coedge $-1 -1 $-1 $329 $216 $208 $265 reversed $140 $-1 #
edge $334 -1 $-1 $267 0 $270 2.2225000000000001 $208 $335 forward @7 unknown #
convexity-sys-attrib $-1 -1 $-1 $-1 $209 #
vertex $-1 -1 $-1 $209 $336 #
straight-curve $-1 -1 $-1 -0.67280467972844371 0.81562593026383834 0 0 0 0.39370078740157477 I I #
convexity-sys-attrib $-1 -1 $-1 $-1 $210 #
vertex $-1 -1 $-1 $210 $337 #
straight-curve $-1 -1 $-1 -0.67280467972844371 -0.059374069736161557 0 0 0 -0.39370078740157477 I I #
face $-1 -1 $-1 $103 $305 $2 $-1 $338 forward single #
loop $-1 -1 $-1 $-1 $254 $213 #
plane-surface $-1 -1 $-1 0.37068039459615454 0.81562593026383834 0 0 1 0 0 0 0.39370078740157477 forward_v I I I I #
edge $339 -1 $-1 $270 0 $280 0.82549999999999968 $251 $340 forward @7 unknown #
coedge $-1 -1 $-1 $217 $341 $342 $343 reversed $140 $-1 #
coedge $-1 -1 $-1 $284 $283 $217 $278 forward $179 $-1 #
edge $344 -1 $-1 $281 0 $345 1.4201076907936852 $277 $346 forward @7 unknown #
convexity-sys-attrib $-1 -1 $-1 $-1 $219 #
vertex $-1 -1 $-1 $252 $347 #
vertex $-1 -1 $-1 $318 $348 #
straight-curve $-1 -1 $-1 -0.99780467972844356 -0.059374069736161557 -0.84499999999999997 0 -0.39370078740157477 0 F 0 F 0.63500000000000001 #
coedge $-1 -1 $-1 $277 $221 $247 $318 reversed $179 $-1 #
coedge $-1 -1 $-1 $221 $277 $349 $350 forward $179 $-1 #
coedge $-1 -1 $-1 $225 $224 $351 $352 forward $153 $-1 #
coedge $-1 -1 $-1 $231 $353 $224 $287 forward $185 $-1 #
edge $-1 -1 $-1 $354 -2.1463000000000001 $291 2.1463000000000001 $286 $355 forward @7 unknown #
edge $-1 -1 $-1 $356 -2.1463000000000001 $290 2.1463000000000001 $225 $357 forward @7 unknown #
coedge $-1 -1 $-1 $226 $312 $231 $297 reversed $83 $-1 #
vertex $-1 -1 $-1 $288 $358 #
vertex $-1 -1 $-1 $287 $359 #
straight-curve $-1 -1 $-1 0.43129283633206239 -0.30937406973616149 0.84499999999999997 -0.39370078740157477 0 0 F -1.4500923092063147 F 0 #
loop $-1 -1 $-1 $-1 $313 $228 #
plane-surface $-1 -1 $-1 -0.43870716366793766 -0.26937406973616151 0 1 0 0 0 0 -0.39370078740157477 forward_v I I I I #
coedge $-1 -1 $-1 $360 $361 $312 $362 forward $229 $-1 #
coedge $-1 -1 $-1 $353 $231 $361 $363 reversed $185 $-1 #
edge $-1 -1 $-1 $291 -0.10159999999999991 $364 0 $231 $365 forward @7 unknown #
coedge $-1 -1 $-1 $366 $367 $232 $299 reversed $140 $-1 #
edge $-1 -1 $-1 $301 0 $306 0.8254999999999999 $232 $368 forward @7 unknown #
coedge $-1 -1 $-1 $233 $242 $366 $369 forward $157 $-1 #
vertex $-1 -1 $-1 $234 $370 #
straight-curve $-1 -1 $-1 1.0021953202715563 -0.059374069736161564 0 0 0 0.39370078740157477 I I #
coedge $-1 -1 $-1 $371 $235 $367 $372 forward $305 $-1 #
coedge $-1 -1 $-1 $235 $371 $237 $308 forward $305 $-1 #
loop $-1 -1 $-1 $-1 $304 $272 #
vertex $-1 -1 $-1 $236 $373 #
straight-curve $-1 -1 $-1 0.67719532027155638 -0.059374069736161564 0 0 0 0.39370078740157477 I I #
edge $-1 -1 $-1 $324 -2.2225000000000001 $239 0 $304 $374 forward @7 unknown #
point $-1 -1 $-1 0.67719532027155638 -0.059374069736161564 0.84499999999999997 #
point $-1 -1 $-1 1.0021953202715563 -0.059374069736161564 0.84499999999999997 #
straight-curve $-1 -1 $-1 1.0021953202715563 -0.30937406973616149 0.84499999999999997 0 -0.39370078740157477 0 F -0.6349999999999999 F 0 #
coedge $-1 -1 $-1 $289 $244 $295 $362 reversed $83 $-1 #
coedge $-1 -1 $-1 $349 $375 $244 $314 forward $293 $-1 #
edge $-1 -1 $-1 $376 -0.10159999999999991 $316 0 $313 $377 forward @7 unknown #
convexity-sys-attrib $-1 -1 $-1 $-1 $245 #
vertex $-1 -1 $-1 $350 $378 #
straight-curve $-1 -1 $-1 -0.99780467972844356 -0.30937406973616155 0.84499999999999997 -0.39370078740157477 -3.0779051604318357e-017 0 F -1.4201076907936852 F 0 #
edge $379 -1 $-1 $281 -2.1463000000000001 $249 2.1463000000000001 $247 $380 forward @7 unknown #
point $-1 -1 $-1 -0.99780467972844356 -0.30937406973616155 0.84499999999999997 #
straight-curve $-1 -1 $-1 -0.99780467972844356 -0.059374069736161557 0 0 0 0.39370078740157477 I I #
coedge $-1 -1 $-1 $381 $254 $371 $382 reversed $273 $-1 #
coedge $-1 -1 $-1 $254 $381 $256 $327 forward $273 $-1 #
convexity-sys-attrib $-1 -1 $-1 $-1 $255 #
vertex $-1 -1 $-1 $382 $383 #
straight-curve $-1 -1 $-1 0.67719532027155638 0.81562593026383834 0.84499999999999997 0.39370078740157477 0 0 F -0.77854791121552069 F 0 #
coedge $-1 -1 $-1 $257 $256 $384 $385 forward $214 $-1 #
edge $386 -1 $-1 $387 -2.1463000000000001 $259 2.1463000000000001 $322 $388 forward @7 unknown #
point $-1 -1 $-1 0.37068039459615454 0.81562593026383834 0.84499999999999997 #
coedge $-1 -1 $-1 $384 $264 $261 $330 reversed $140 $-1 #
edge $389 -1 $-1 $332 0 $267 0.7785479112155208 $261 $390 forward @7 unknown #
convexity-sys-attrib $-1 -1 $-1 $-1 $262 #
vertex $-1 -1 $-1 $262 $391 #
straight-curve $-1 -1 $-1 -0.36628975405304187 0.81562593026383834 0 0 0 0.39370078740157477 I I #
convexity-sys-attrib $-1 -1 $-1 $-1 $265 #
straight-curve $-1 -1 $-1 -0.67280467972844371 0.81562593026383834 -0.84499999999999997 0 -0.39370078740157477 0 F 0 F 2.2225000000000001 #
point $-1 -1 $-1 -0.67280467972844371 0.81562593026383834 -0.84499999999999997 #
point $-1 -1 $-1 -0.67280467972844371 -0.059374069736161557 -0.84499999999999997 #
plane-surface $-1 -1 $-1 0.67719532027155638 0.81562593026383834 0 1 0 0 0 0 -0.39370078740157477 forward_v I I I I #
convexity-sys-attrib $-1 -1 $-1 $-1 $275 #
straight-curve $-1 -1 $-1 -0.67280467972844371 -0.059374069736161557 -0.84499999999999997 -0.39370078740157477 0 0 F 0 F 0.82549999999999968 #
coedge $-1 -1 $-1 $276 $392 $393 $394 reversed $140 $-1 #
coedge $-1 -1 $-1 $375 $349 $276 $343 forward $293 $-1 #
edge $-1 -1 $-1 $345 0 $395 0.10159999999999991 $342 $396 forward @7 unknown #
convexity-sys-attrib $-1 -1 $-1 $-1 $278 #
vertex $-1 -1 $-1 $350 $397 #
straight-curve $-1 -1 $-1 -0.99780467972844356 -0.30937406973616155 -0.84499999999999997 0.39370078740157477 3.0779051604318357e-017 0 F 0 F 1.4201076907936852 #
point $-1 -1 $-1 -0.99780467972844356 -0.059374069736161557 -0.84499999999999997 #
point $-1 -1 $-1 -0.99780467972844356 -0.30937406973616155 -0.84499999999999997 #
coedge $-1 -1 $-1 $342 $313 $284 $350 reversed $293 $-1 #
edge $-1 -1 $-1 $345 -2.1463000000000001 $316 2.1463000000000001 $284 $398 forward @7 unknown #
coedge $-1 -1 $-1 $392 $366 $285 $352 reversed $140 $-1 #
edge $-1 -1 $-1 $354 0 $356 1.4500923092063147 $285 $399 forward @7 unknown #
coedge $-1 -1 $-1 $286 $296 $392 $400 forward $185 $-1 #
vertex $-1 -1 $-1 $287 $401 #
straight-curve $-1 -1 $-1 0.43129283633206239 -0.30937406973616149 0 0 0 0.39370078740157477 I I #
vertex $-1 -1 $-1 $288 $402 #
straight-curve $-1 -1 $-1 1.0021953202715563 -0.30937406973616149 0 0 0 0.39370078740157477 I I #
point $-1 -1 $-1 1.0021953202715563 -0.30937406973616149 0.84499999999999997 #
point $-1 -1 $-1 0.43129283633206239 -0.30937406973616149 0.84499999999999997 #
coedge $-1 -1 $-1 $393 $295 $375 $403 reversed $229 $-1 #
coedge $-1 -1 $-1 $295 $393 $296 $363 forward $229 $-1 #
edge $-1 -1 $-1 $364 -2.2098000000000004 $376 0 $295 $404 forward @7 unknown #
edge $-1 -1 $-1 $405 -2.1463000000000001 $364 2.1463000000000001 $361 $406 forward @7 unknown #
vertex $-1 -1 $-1 $363 $407 #
straight-curve $-1 -1 $-1 0.43129283633206239 -0.26937406973616151 0.84499999999999997 0 0.39370078740157477 0 F -0.10159999999999991 F 0 #
coedge $-1 -1 $-1 $351 $298 $300 $369 reversed $140 $-1 #
coedge $-1 -1 $-1 $298 $408 $303 $372 reversed $140 $-1 #
straight-curve $-1 -1 $-1 1.0021953202715563 -0.059374069736161564 -0.84499999999999997 -0.39370078740157477 0 0 F 0 F 0.8254999999999999 #
edge $-1 -1 $-1 $356 0 $301 0.6349999999999999 $300 $409 forward @7 unknown #
point $-1 -1 $-1 1.0021953202715563 -0.059374069736161564 -0.84499999999999997 #
coedge $-1 -1 $-1 $304 $303 $321 $382 forward $305 $-1 #
edge $-1 -1 $-1 $306 0 $410 2.2225000000000001 $303 $411 forward @7 unknown #
point $-1 -1 $-1 0.67719532027155638 -0.059374069736161564 -0.84499999999999997 #
straight-curve $-1 -1 $-1 0.67719532027155638 -0.059374069736161564 0.84499999999999997 0 -0.39370078740157477 0 F -2.2225000000000001 F 0 #
coedge $-1 -1 $-1 $313 $342 $360 $403 forward $293 $-1 #
vertex $-1 -1 $-1 $403 $412 #
straight-curve $-1 -1 $-1 -0.43870716366793766 -0.30937406973616149 0.84499999999999997 0 -0.39370078740157477 0 F -0.10159999999999991 F 0 #
point $-1 -1 $-1 -0.43870716366793766 -0.30937406973616149 0.84499999999999997 #
convexity-sys-attrib $-1 -1 $-1 $-1 $318 #
straight-curve $-1 -1 $-1 -0.99780467972844356 -0.30937406973616155 0 0 0 0.39370078740157477 I I #
coedge $-1 -1 $-1 $322 $321 $408 $413 forward $273 $-1 #
edge $-1 -1 $-1 $410 -2.1463000000000001 $324 2.1463000000000001 $371 $414 forward @7 unknown #
point $-1 -1 $-1 0.67719532027155638 0.81562593026383834 0.84499999999999997 #
coedge $-1 -1 $-1 $408 $329 $326 $385 reversed $140 $-1 #
edge $415 -1 $-1 $387 0 $332 1.4285891092645107 $326 $416 forward @7 unknown #
convexity-sys-attrib $-1 -1 $-1 $-1 $327 #
vertex $-1 -1 $-1 $327 $417 #
straight-curve $-1 -1 $-1 0.37068039459615454 0.81562593026383834 0 0 0 0.39370078740157477 I I #
convexity-sys-attrib $-1 -1 $-1 $-1 $330 #
straight-curve $-1 -1 $-1 -0.36628975405304187 0.81562593026383834 -0.84499999999999997 -0.39370078740157477 0 0 F 0 F 0.7785479112155208 #
point $-1 -1 $-1 -0.36628975405304187 0.81562593026383834 -0.84499999999999997 #
coedge $-1 -1 $-1 $341 $351 $353 $400 reversed $140 $-1 #
coedge $-1 -1 $-1 $361 $360 $341 $394 forward $229 $-1 #
edge $-1 -1 $-1 $395 0 $405 2.2098000000000004 $393 $418 forward @7 unknown #
vertex $-1 -1 $-1 $403 $419 #
straight-curve $-1 -1 $-1 -0.43870716366793766 -0.30937406973616149 -0.84499999999999997 0 0.39370078740157477 0 F 0 F 0.10159999999999991 #
point $-1 -1 $-1 -0.43870716366793766 -0.30937406973616149 -0.84499999999999997 #
straight-curve $-1 -1 $-1 -0.43870716366793766 -0.30937406973616149 0 0 0 0.39370078740157477 I I #
straight-curve $-1 -1 $-1 0.43129283633206239 -0.30937406973616149 -0.84499999999999997 0.39370078740157477 0 0 F 0 F 1.4500923092063147 #
edge $-1 -1 $-1 $405 0 $354 0.10159999999999991 $353 $420 forward @7 unknown #
point $-1 -1 $-1 0.43129283633206239 -0.30937406973616149 -0.84499999999999997 #
point $-1 -1 $-1 1.0021953202715563 -0.30937406973616149 -0.84499999999999997 #
edge $-1 -1 $-1 $395 -2.1463000000000001 $376 2.1463000000000001 $375 $421 forward @7 unknown #
straight-curve $-1 -1 $-1 -0.43870716366793766 -0.26937406973616151 0.84499999999999997 -0.39370078740157477 0 0 F -2.2098000000000004 F 0 #
vertex $-1 -1 $-1 $363 $422 #
straight-curve $-1 -1 $-1 0.43129283633206239 -0.26937406973616151 0 0 0 0.39370078740157477 I I #
point $-1 -1 $-1 0.43129283633206239 -0.26937406973616151 0.84499999999999997 #
coedge $-1 -1 $-1 $367 $384 $381 $413 reversed $140 $-1 #
straight-curve $-1 -1 $-1 1.0021953202715563 -0.30937406973616149 -0.84499999999999997 0 0.39370078740157477 0 F 0 F 0.6349999999999999 #
vertex $-1 -1 $-1 $382 $423 #
straight-curve $-1 -1 $-1 0.67719532027155638 -0.059374069736161564 -0.84499999999999997 0 0.39370078740157477 0 F 0 F 2.2225000000000001 #
point $-1 -1 $-1 -0.43870716366793766 -0.26937406973616151 0.84499999999999997 #
edge $-1 -1 $-1 $410 0 $387 0.77854791121552069 $381 $424 forward @7 unknown #
straight-curve $-1 -1 $-1 0.67719532027155638 0.81562593026383834 0 0 0 0.39370078740157477 I I #
convexity-sys-attrib $-1 -1 $-1 $-1 $385 #
ellipse-curve $-1 -1 $-1 0.0021953202715563154 0.39062593026383835 -0.84499999999999997 0 0 1 0.36848507432459549 0.42499999999999688 0 1 F 1.0877466104839913e-016 F 1.4285891092645104 #
point $-1 -1 $-1 0.37068039459615454 0.81562593026383834 -0.84499999999999997 #
straight-curve $-1 -1 $-1 -0.43870716366793766 -0.26937406973616151 -0.84499999999999997 0.39370078740157477 0 0 F 0 F 2.2098000000000004 #
point $-1 -1 $-1 -0.43870716366793766 -0.26937406973616151 -0.84499999999999997 #
straight-curve $-1 -1 $-1 0.43129283633206239 -0.26937406973616151 -0.84499999999999997 0 -0.39370078740157477 0 F 0 F 0.10159999999999991 #
straight-curve $-1 -1 $-1 -0.43870716366793766 -0.26937406973616151 0 0 0 0.39370078740157477 I I #
point $-1 -1 $-1 0.43129283633206239 -0.26937406973616151 -0.84499999999999997 #
point $-1 -1 $-1 0.67719532027155638 0.81562593026383834 -0.84499999999999997 #
straight-curve $-1 -1 $-1 0.67719532027155638 0.81562593026383834 -0.84499999999999997 -0.39370078740157477 0 0 F 0 F 0.77854791121552069 #
End-of-ACIS-data 