400 0 1 0           
7 Unknown 11 ACIS 6.0 NT 24 Mon Dec 31 17:56:57 2001 
25.399999999999999 9.9999999999999995e-007 1e-010 
body $-1 $1 $-1 $-1 #
lump $-1 $-1 $2 $0 #
shell $-1 $-1 $-1 $3 $-1 $1 #
face $-1 $4 $5 $2 $-1 $6 reversed single #
face $-1 $7 $8 $2 $-1 $9 reversed single #
loop $-1 $10 $11 $3 #
cone-surface $-1 1.0624279387327875 1.0624279387327873 -0.765603181414658 3.0568421214156635e-033 -1.5284210607078319e-033 1 -0.1875 2.2961369134169574e-017 5.7315789776543696e-034 1 I I 0.64278760968653925 0.76604444311897801 0.1875 reversed I I I I #
face $-1 $12 $13 $2 $-1 $14 reversed single #
loop $-1 $15 $16 $4 #
cone-surface $-1 1.0624279387327875 1.0624279387327873 -6.6911185818775198 3.0568421214156635e-033 -1.5284210607078319e-033 1 -0.12499999999999999 1.5307579422779713e-017 3.8210526517695799e-034 1 I I 0 1 0.12499999999999999 reversed I I I I #
loop $-1 $-1 $17 $3 #
coedge $-1 $11 $11 $18 $19 reversed $5 $-1 #
face $-1 $20 $21 $2 $-1 $22 reversed single #
loop $-1 $23 $24 $7 #
cone-surface $-1 1.0624279387327873 -1.0624279387327875 -0.765603181414658 -1.5284210607078323e-033 -3.0568421214156635e-033 1 4.163336342344337e-017 0.1875 5.7315789776543696e-034 1 I I 0.64278760968653925 0.76604444311897801 0.1875 reversed I I I I #
loop $-1 $-1 $25 $4 #
coedge $-1 $16 $16 $26 $27 reversed $8 $-1 #
coedge $-1 $17 $17 $25 $28 reversed $10 $-1 #
coedge $-1 $18 $18 $11 $19 forward $29 $-1 #
edge $-1 $30 $30 $18 $31 forward #
face $-1 $32 $33 $2 $-1 $34 reversed single #
loop $-1 $35 $36 $12 #
cone-surface $-1 1.0624279387327873 -1.0624279387327875 -6.6911185818775198 -1.5284210607078323e-033 -3.0568421214156635e-033 1 2.775557561562891e-017 0.12499999999999999 3.8210526517695799e-034 1 I I 0 1 0.12499999999999999 reversed I I I I #
loop $-1 $-1 $37 $7 #
coedge $-1 $24 $24 $38 $39 reversed $13 $-1 #
coedge $-1 $25 $25 $17 $28 forward $15 $-1 #
coedge $-1 $26 $26 $16 $27 forward $40 $-1 #
edge $-1 $41 $41 $26 $42 forward #
edge $-1 $43 $43 $25 $44 forward #
loop $-1 $45 $18 $46 #
vertex $-1 $19 $47 #
ellipse-curve $-1 1.0624279387327875 1.0624279387327873 -0.69111858187751984 3.0568421214156639e-033 -1.5284210607078316e-033 -1 -0.25 3.0615158845559438e-017 7.6421053035391597e-034 1 I I #
face $-1 $48 $49 $2 $-1 $50 reversed single #
loop $-1 $51 $52 $20 #
cone-surface $-1 -1.0624279387327873 1.0624279387327875 -0.765603181414658 1.5284210607078323e-033 3.0568421214156635e-033 1 -4.163336342344337e-017 -0.1875 5.7315789776543696e-034 1 I I 0.64278760968653925 0.76604444311897801 0.1875 reversed I I I I #
loop $-1 $-1 $53 $12 #
coedge $-1 $36 $36 $54 $55 reversed $21 $-1 #
coedge $-1 $37 $37 $53 $56 reversed $23 $-1 #
coedge $-1 $38 $38 $24 $39 forward $45 $-1 #
edge $-1 $57 $57 $38 $58 forward #
loop $-1 $59 $26 $60 #
vertex $-1 $27 $61 #
ellipse-curve $-1 1.0624279387327875 1.0624279387327873 -0.94111858187751996 -3.0568421214156639e-033 1.5284210607078316e-033 1 -0.12499999999999999 1.5307579422779713e-017 3.8210526517695799e-034 1 I I #
vertex $-1 $28 $62 #
ellipse-curve $-1 1.0624279387327875 1.0624279387327873 -0.84008778095179604 3.0568421214156635e-033 -1.5284210607078319e-033 1 -0.12499999999999999 1.5307579422779713e-017 3.8210526517695799e-034 1 I I #
loop $-1 $63 $38 $46 #
face $-1 $64 $29 $2 $-1 $65 forward single #
point $-1 0.81242793873278762 1.0624279387327873 -0.69111858187751984 #
face $-1 $66 $67 $2 $-1 $68 reversed single #
loop $-1 $69 $70 $32 #
cone-surface $-1 -1.0624279387327873 1.0624279387327875 -6.6911185818775198 1.5284210607078323e-033 3.0568421214156635e-033 1 -2.775557561562891e-017 -0.12499999999999999 3.8210526517695799e-034 1 I I 0 1 0.12499999999999999 reversed I I I I #
loop $-1 $-1 $71 $20 #
coedge $-1 $52 $52 $72 $73 reversed $33 $-1 #
coedge $-1 $53 $53 $37 $56 forward $35 $-1 #
coedge $-1 $54 $54 $36 $55 forward $59 $-1 #
edge $-1 $74 $74 $54 $75 forward #
edge $-1 $76 $76 $53 $77 forward #
vertex $-1 $39 $78 #
ellipse-curve $-1 1.0624279387327873 -1.0624279387327875 -0.69111858187751984 3.0568421214156639e-033 -1.5284210607078316e-033 -1 5.5511151231257827e-017 0.25 7.6421053035391597e-034 1 I I #
loop $-1 $79 $54 $60 #
face $-1 $-1 $40 $2 $-1 $80 reversed single #
point $-1 1.1874279387327875 1.0624279387327873 -0.94111858187751996 #
point $-1 0.93742793873278762 1.0624279387327873 -0.84008778095179604 #
loop $-1 $81 $72 $46 #
face $-1 $82 $83 $2 $-1 $84 forward single #
plane-surface $-1 0.18181818181818185 -1.5894388326773893e-017 -0.69111858187751984 -3.0568421214156639e-033 1.5284210607078316e-033 1 0.39370078740157477 0 1.2034811501636471e-033 forward_v I I I I #
face $-1 $85 $86 $2 $-1 $87 reversed single #
loop $-1 $88 $89 $48 #
cone-surface $-1 -1.0624279387327873 -1.0624279387327875 -0.765603181414658 -3.0568421214156639e-033 1.5284210607078316e-033 1 0.1875 0 5.7315789776543696e-034 1 I I 0.64278760968653925 0.76604444311897801 0.1875 reversed I I I I #
loop $-1 $-1 $90 $32 #
coedge $-1 $70 $70 $91 $92 reversed $49 $-1 #
coedge $-1 $71 $71 $90 $93 reversed $51 $-1 #
coedge $-1 $72 $72 $52 $73 forward $63 $-1 #
edge $-1 $94 $94 $72 $95 forward #
vertex $-1 $55 $96 #
ellipse-curve $-1 1.0624279387327873 -1.0624279387327875 -0.94111858187751996 -3.0568421214156639e-033 1.5284210607078316e-033 1 2.775557561562891e-017 0.12499999999999999 3.8210526517695799e-034 1 I I #
vertex $-1 $56 $97 #
ellipse-curve $-1 1.0624279387327873 -1.0624279387327875 -0.84008778095179604 -1.5284210607078323e-033 -3.0568421214156635e-033 1 2.775557561562891e-017 0.12499999999999999 3.8210526517695799e-034 1 I I #
point $-1 1.0624279387327873 -0.81242793873278762 -0.69111858187751984 #
loop $-1 $98 $91 $60 #
plane-surface $-1 0.18181818181818185 -1.5894388326773893e-017 -0.94111858187751973 -3.0568421214156639e-033 1.5284210607078316e-033 1 0.39370078740157477 0 1.2034811501636471e-033 forward_v I I I I #
loop $-1 $99 $100 $46 #
face $-1 $101 $102 $2 $-1 $103 forward single #
loop $-1 $-1 $104 $64 #
cone-surface $-1 0.875 -1.0198899176346581e-016 0.30888141812248021 1 0 0 0 0.35355339059327379 0.35355339059327379 1 I I 0 1 0.5 forward I I I I #
face $-1 $105 $106 $2 $-1 $107 forward single #
loop $-1 $108 $109 $66 #
cone-surface $-1 -1.0624279387327873 -1.0624279387327875 -6.6911185818775198 -3.0568421214156639e-033 1.5284210607078316e-033 1 0.12499999999999999 0 3.8210526517695799e-034 1 I I 0 1 0.12499999999999999 reversed I I I I #
loop $-1 $-1 $110 $48 #
coedge $-1 $89 $89 $100 $111 reversed $67 $-1 #
coedge $-1 $90 $90 $71 $93 forward $69 $-1 #
coedge $-1 $91 $91 $70 $92 forward $79 $-1 #
edge $-1 $112 $112 $91 $113 forward #
edge $-1 $114 $114 $90 $115 forward #
vertex $-1 $73 $116 #
ellipse-curve $-1 -1.0624279387327873 1.0624279387327875 -0.69111858187751984 3.0568421214156639e-033 -1.5284210607078316e-033 -1 -5.5511151231257827e-017 -0.25 7.6421053035391597e-034 1 I I #
point $-1 1.0624279387327873 -1.1874279387327875 -0.94111858187751996 #
point $-1 1.0624279387327873 -0.93742793873278762 -0.84008778095179604 #
loop $-1 $117 $118 $60 #
loop $-1 $119 $120 $46 #
coedge $-1 $100 $100 $89 $111 forward $81 $-1 #
face $-1 $121 $122 $2 $-1 $123 forward single #
loop $-1 $124 $125 $82 #
torus-surface $-1 0 0 -0.81611858187751984 3.0568421214156639e-033 -1.5284210607078316e-033 -1 1.875 0.12499999999999999 -1 0 -3.0568421214156639e-033 forward_v I I I I #
coedge $-1 $126 $127 $128 $129 reversed $83 $-1 #
face $-1 $130 $131 $2 $-1 $132 forward single #
loop $-1 $133 $134 $85 #
torus-surface $-1 0 0 0.99638141812248049 1.0831163779687333e-032 -5.4155818898436657e-033 -1 0.99999999999999989 0.062499999999999993 -1 0 -1.0831163779687333e-032 forward_v I I I I #
loop $-1 $-1 $135 $66 #
coedge $-1 $109 $109 $118 $136 reversed $86 $-1 #
coedge $-1 $110 $110 $135 $137 reversed $88 $-1 #
edge $-1 $138 $138 $100 $139 forward #
vertex $-1 $92 $140 #
ellipse-curve $-1 -1.0624279387327873 1.0624279387327875 -0.94111858187751996 -3.0568421214156639e-033 1.5284210607078316e-033 1 -2.775557561562891e-017 -0.12499999999999999 3.8210526517695799e-034 1 I I #
vertex $-1 $93 $141 #
ellipse-curve $-1 -1.0624279387327873 1.0624279387327875 -0.84008778095179604 1.5284210607078323e-033 3.0568421214156635e-033 1 -2.775557561562891e-017 -0.12499999999999999 3.8210526517695799e-034 1 I I #
point $-1 -1.0624279387327873 0.81242793873278762 -0.69111858187751984 #
loop $-1 $-1 $142 $60 #
coedge $-1 $118 $118 $109 $136 forward $98 $-1 #
loop $-1 $-1 $143 $46 #
coedge $-1 $120 $120 $125 $144 reversed $99 $-1 #
face $-1 $145 $146 $2 $-1 $147 forward single #
loop $-1 $148 $149 $101 #
cone-surface $-1 0 0 -0.94111858187751962 0 0 1 -1.9999999999999998 0 0 1 I I 0 1 1.9999999999999998 forward I I I I #
loop $-1 $-1 $150 $82 #
coedge $-1 $125 $125 $120 $144 forward $102 $-1 #
coedge $-1 $151 $104 $152 $153 forward $83 $-1 #
coedge $-1 $104 $151 $154 $155 forward $83 $-1 #
coedge $-1 $156 $157 $104 $129 forward $158 $159 #
edge $-1 $160 $161 $104 $162 forward #
face $-1 $163 $164 $2 $-1 $165 forward single #
loop $-1 $166 $167 $105 #
cone-surface $-1 0 0 -0.69111858187751973 0 0 1 -1.0625 0 0 1 I I 0 1 1.0625 forward I I I I #
loop $-1 $-1 $168 $85 #
coedge $-1 $134 $134 $169 $170 forward $106 $-1 #
coedge $-1 $135 $135 $110 $137 forward $108 $-1 #
edge $-1 $171 $171 $118 $172 forward #
edge $-1 $173 $173 $135 $174 forward #
vertex $-1 $111 $175 #
ellipse-curve $-1 -1.0624279387327873 -1.0624279387327875 -0.69111858187751984 3.0568421214156639e-033 -1.5284210607078316e-033 -1 0.25 0 7.6421053035391597e-034 1 I I #
point $-1 -1.0624279387327873 1.1874279387327875 -0.94111858187751996 #
point $-1 -1.0624279387327873 0.93742793873278762 -0.84008778095179604 #
coedge $-1 $142 $142 $149 $176 forward $117 $-1 #
coedge $-1 $177 $178 $179 $180 reversed $119 $-1 #
edge $181 $182 $182 $120 $183 forward #
face $-1 $184 $185 $2 $-1 $186 forward single #
loop $-1 $-1 $187 $121 #
torus-surface $-1 0 0 -0.56611858187751973 3.0568421214156639e-033 -1.5284210607078316e-033 -1 1.1874999999999998 -0.12499999999999999 -1 0 -3.0568421214156639e-033 forward_v I I I I #
loop $-1 $-1 $188 $101 #
coedge $-1 $149 $149 $142 $176 reversed $122 $-1 #
coedge $-1 $150 $150 $188 $189 forward $124 $-1 #
coedge $-1 $127 $126 $190 $191 forward $83 $-1 #
coedge $-1 $192 $193 $126 $153 reversed $194 $-1 #
edge $-1 $160 $195 $152 $196 forward #
coedge $-1 $197 $198 $127 $155 reversed $185 $-1 #
edge $199 $200 $161 $154 $201 forward #
coedge $-1 $202 $128 $203 $204 reversed $158 $205 #
coedge $-1 $128 $202 $206 $207 reversed $158 $208 #
loop $-1 $-1 $157 $209 #
pcurve $-1 0 reversed { exppc nubs 1 open 2 
	0 1 5.0619120695076454 1 
	0 1.110223024625157e-016 
	0 5.0619120695076454 
	0.0052123127993816366 
	spline forward { rbblnsur 11 blendsupsur cone 0.875 -1.0198899176346581e-016 0.30888141812248021 1 0 0 0 0.35355339059327379 0.35355339059327379 1 I I 0 1 0.5 forward I I I I null_curve nullbs 0 0 0 
	11 blendsupsur cone 0 0 -0.69111858187751973 0 0 1 -1.0625 0 0 1 I I 0 1 1.0625 forward I I I I null_curve nullbs 0 0 0 
	intcurve forward { offintcur nubs 3 open 11 
	0 3 0.53236358473209688 2 1.1542803862418256 2 1.8091341911369505 2 2.2585900096394713 2 
	2.624556421050376 2 3.0186018995880888 2 3.5744092741995557 2 4.1708855773488276 2 4.6290229232098508 2 
	5.0619120695076454 3 
	1.0097184013377192 0.62500000000000011 0.30888141812248021 
	1.0097184013377192 0.62500000000000011 0.3787454056201307 
	1.0175078643175848 0.61279007644669137 0.44968943639013231 
	1.0455610350805624 0.56381133989213439 0.59026114105602845 
	1.0678452058787216 0.52251799114110642 0.66068241285316875 
	1.113624025001968 0.41653784535170996 0.78212067985078593 
	1.1378945070725539 0.34841312890968457 0.834523978621317 
	1.1679980564725119 0.22086591869691805 0.89639499835035497 
	1.1775288851941588 0.16419863969098392 0.91478223965735594 
	1.1869696525641498 0.059158175030488952 0.93291183302982572 
	1.1884216494464845 0.010418227328132709 0.93563557245496742 
	1.1852777864429525 -0.089091716131436557 0.92965443675305171 
	1.1801749654889451 -0.14063317465483965 0.91999478938288204 
	1.1612115247446433 -0.25804533546639968 0.88267127880651175 
	1.1442749441707853 -0.3229338750469769 0.84860642943491293 
	1.1051608682285876 -0.43909121578212618 0.76003699503475097 
	1.0821097327887867 -0.49110731204818014 0.70279479805824108 
	1.0468252594883072 -0.56168323118964159 0.5890898694724982 
	1.033047540825951 -0.58592924168279048 0.53435493185579397 
	1.014761977132534 -0.61702637806853688 0.42312615108421325 
	1.0097184013377192 -0.62500000000000022 0.36569101737415938 
	1.0097184013377192 -0.62500000000000022 0.30888141812248021 
	1000 
	cone 0 0 -0.69111858187751973 0 0 1 -1.0625 0 0 1 I I 0 1 1.0625 forward I I I I 
	cone 0.875 -1.0198899176346581e-016 0.30888141812248021 1 0 0 0 0.35355339059327379 0.35355339059327379 1 I I 0 1 0.5 forward I I I I 
	nullbs 
	nullbs 
	I I 
	0 
	0 
	0 
	0.12499999999999999 0.12499999999999999 } I I 0.12499999999999999 0.12499999999999999 
	no_radius 
	F 0 F 1 F 0 F 1 F 1.110223024625157e-016 F 5.0619120695076454 0 0 
	I I 
	1 0.03175 0.0052123127993816366 
	1 
	} I I I I 
	} 0 0 #
vertex $-1 $153 $210 #
vertex $-1 $211 $212 #
intcurve-curve $-1 reversed { bldcur nubs 3 open 6 
	1.110223024625157e-016 3 0.37666656338204724 2 0.97933306479332272 2 1.9435994670513637 2 3.4864257106642293 2 
	5.0619120695076454 3 
	1.0097184013377192 0.49999999999999989 0.30888141812248027 
	1.0097184013377192 0.49999999999999989 0.3484264641468422 
	1.013493361481741 0.49520634957965276 0.38843528305012964 
	1.0315010621043481 0.4710031749046788 0.48817130410988996 
	1.0504094677229525 0.44483518100647423 0.54532191212233994 
	1.1051922260839679 0.35310868504370785 0.67630122833205819 
	1.1434514160940312 0.27342979473121032 0.73930275035216664 
	1.2020422496852574 0.030545037544161824 0.83303265865078269 
	1.1847167056641736 -0.151097584922634 0.81088592952618122 
	1.0826485347774442 -0.41441408768198301 0.63162394623207518 
	1.0097184013377194 -0.50000000000000011 0.47428681012703855 
	1.0097184013377194 -0.50000000000000011 0.30888141812248027 
	0.0052123127993816366 
	spline forward { ref 1 } I I I I 
	null_surface 
	nubs 1 open 2 
	1.110223024625157e-016 1 5.0619120695076454 1 
	0 1.110223024625157e-016 
	0 5.0619120695076454 
	
	nullbs 
	I I 
	0 
	0 
	0 
	surf1 } I I #
face $-1 $213 $214 $2 $-1 $215 forward single #
loop $-1 $216 $217 $130 #
plane-surface $-1 0.096590909090909033 1.5894388326773893e-017 1.0588814181224806 -1.0831163779687333e-032 5.4155818898436657e-033 1 0.39370078740157477 0 4.2642377085383198e-033 forward_v I I I I #
loop $-1 $-1 $218 $105 #
coedge $-1 $219 $220 $221 $222 reversed $131 $-1 #
coedge $-1 $168 $168 $218 $223 forward $133 $-1 #
coedge $-1 $169 $169 $134 $170 reversed $216 $-1 #
edge $-1 $224 $224 $169 $225 forward #
vertex $-1 $136 $226 #
ellipse-curve $-1 -1.0624279387327873 -1.0624279387327875 -0.94111858187751996 -3.0568421214156639e-033 1.5284210607078316e-033 1 0.12499999999999999 0 3.8210526517695799e-034 1 I I #
vertex $-1 $137 $227 #
ellipse-curve $-1 -1.0624279387327873 -1.0624279387327875 -0.84008778095179604 -3.0568421214156639e-033 1.5284210607078316e-033 1 0.12499999999999999 0 3.8210526517695799e-034 1 I I #
point $-1 -0.81242793873278751 -1.0624279387327875 -0.69111858187751984 #
edge $-1 $228 $228 $142 $229 forward #
coedge $-1 $230 $143 $231 $232 reversed $119 $-1 #
coedge $-1 $143 $230 $233 $234 reversed $119 $-1 #
coedge $-1 $235 $236 $143 $180 forward $237 $-1 #
edge $-1 $238 $239 $143 $240 forward #
convexity-sys-attrib $-1 $-1 $-1 $144 #
vertex $-1 $144 $241 #
ellipse-curve $-1 -3.8210526517695811e-034 1.9105263258847899e-034 -0.69111858187751984 3.0568421214156639e-033 -1.5284210607078316e-033 -1 -1.875 -1.7911184305169931e-034 -5.7315789776543691e-033 1 I I #
face $-1 $242 $243 $2 $-1 $244 reversed single #
loop $-1 $-1 $198 $145 #
plane-surface $-1 0.875 0.49999999999999978 0.80888141812248016 0 1 1.1655884772967525e-016 0 -4.5889310129793404e-017 0.39370078740157477 forward_v I I I I #
coedge $-1 $233 $245 $246 $247 reversed $146 $-1 #
coedge $-1 $188 $188 $150 $189 reversed $148 $-1 #
edge $-1 $248 $248 $188 $249 forward #
coedge $-1 $250 $251 $151 $191 reversed $252 $-1 #
edge $-1 $195 $200 $190 $253 forward #
coedge $-1 $254 $152 $255 $256 reversed $194 $-1 #
coedge $-1 $152 $254 $250 $257 forward $194 $-1 #
loop $-1 $-1 $192 $258 #
vertex $-1 $153 $259 #
straight-curve $-1 0.875 -0.50000000000000011 0.30888141812248021 0.39370078740157477 0 0 F -3.778251 F 5.2070010000000009 #
coedge $-1 $260 $154 $251 $261 forward $185 $-1 #
coedge $-1 $154 $260 $262 $211 reversed $185 $-1 #
convexity-sys-attrib $-1 $-1 $-1 $155 #
vertex $-1 $261 $263 #
straight-curve $-1 0.875 0.49999999999999989 0.30888141812248027 -0.39370078740157477 0 0 F -5.2070010000000009 F 3.778251 #
coedge $-1 $157 $156 $220 $264 forward $158 $265 #
coedge $-1 $262 $221 $156 $204 forward $266 $-1 #
edge $-1 $267 $161 $203 $268 forward #
pcurve $-1 0 forward { exppc nubs 1 open 2 
	-1.0165344923425685 1 0 1 
	0 1.110223024625157e-016 
	1 1.110223024625157e-016 
	0 
	spline forward { ref 1 } I I I I 
	} 0 0 #
coedge $-1 $269 $255 $157 $207 forward $270 $-1 #
edge $-1 $160 $271 $206 $272 forward #
pcurve $-1 0 forward { exppc nubs 1 open 2 
	-1.0165344923425679 1 0 1 
	1 5.0619120695076454 
	0 5.0619120695076454 
	0 
	spline forward { ref 1 } I I I I 
	} 0 0 #
face $-1 $273 $158 $2 $-1 $274 forward single #
point $-1 1.0097184013377192 -0.50000000000000011 0.30888141812248021 #
edge $-1 $161 $275 $198 $276 forward #
point $-1 1.0097184013377192 0.49999999999999989 0.30888141812248027 #
face $-1 $277 $237 $2 $-1 $278 forward single #
loop $-1 $-1 $279 $163 #
cone-surface $-1 0.52840909090909094 -0.62500000000000022 -0.56611858187751973 -1 -3.5630199536374576e-049 -3.0568421214156639e-033 0 0.088388347648318447 -0.088388347648318447 1 I I 0 -1 0.125 forward I I I I #
loop $-1 $-1 $169 $130 #
coedge $-1 $217 $217 $280 $281 forward $164 $-1 #
coedge $-1 $218 $218 $168 $223 reversed $166 $-1 #
coedge $-1 $282 $167 $245 $283 reversed $131 $-1 #
coedge $-1 $167 $282 $202 $264 reversed $131 $-1 #
coedge $-1 $203 $284 $167 $222 forward $266 $-1 #
edge $-1 $285 $267 $167 $286 forward #
edge $-1 $287 $287 $218 $288 forward #
vertex $-1 $170 $289 #
ellipse-curve $-1 -6.7694773623045984e-034 3.3847386811522992e-034 1.0588814181224806 1.0831163779687333e-032 -5.4155818898436657e-033 -1 -0.99999999999999989 -3.1856364057903818e-034 -1.0831163779687331e-032 1 I I #
point $-1 -1.1874279387327873 -1.0624279387327875 -0.94111858187751996 #
point $-1 -0.9374279387327874 -1.0624279387327875 -0.84008778095179604 #
vertex $-1 $176 $290 #
ellipse-curve $-1 0 0 -0.94111858187751962 0 0 -1 -1.9999999999999998 0 0 1 I I #
coedge $-1 $178 $177 $291 $292 reversed $119 $-1 #
coedge $-1 $293 $294 $177 $232 forward $295 $-1 #
edge $-1 $296 $238 $177 $297 forward #
coedge $-1 $298 $187 $178 $234 forward $146 $-1 #
edge $-1 $239 $299 $178 $300 forward #
coedge $-1 $301 $179 $302 $303 forward $237 $-1 #
coedge $-1 $179 $301 $293 $304 forward $237 $-1 #
loop $-1 $-1 $235 $213 #
vertex $-1 $180 $305 #
vertex $-1 $234 $306 #
straight-curve $-1 0.52840909090909094 0.62499999999999989 -0.69111858187751984 -0.39370078740157477 1.4027637612745897e-049 -1.2034811501636471e-033 F -3.7695919090909098 F 6.4539100909090923 #
point $-1 1.875 3.7016447564017828e-034 -0.69111858187751984 #
face $-1 $307 $308 $2 $-1 $309 reversed single #
loop $-1 $310 $311 $184 #
cone-surface $-1 1.0625 -1.0017998727742692e-016 0.18388141812248027 1 -1.2774862596960975e-031 -4.8666143226518039e-032 -1.5208169758286885e-032 0 -0.31249999999999994 1 I I 0 1 0.31249999999999994 reversed I I I I #
coedge $-1 $187 $298 $219 $283 forward $146 $-1 #
coedge $-1 $312 $302 $187 $247 forward $313 $-1 #
edge $-1 $239 $285 $187 $314 forward #
vertex $-1 $189 $315 #
ellipse-curve $-1 0 0 -0.81611858187751984 -3.0568421214156639e-033 1.5284210607078316e-033 1 -1.9999999999999998 -1.9105263258847925e-034 0 1 I I #
coedge $-1 $316 $190 $193 $257 reversed $252 $-1 #
coedge $-1 $190 $316 $197 $261 reversed $252 $-1 #
loop $-1 $-1 $316 $317 #
ellipse-curve $-1 1.375 -1.0198899176346581e-016 0.30888141812248021 -1 1.2774862596960975e-031 4.8666143226518039e-032 0 0.35355339059327379 0.35355339059327379 1 I I #
coedge $-1 $193 $192 $318 $319 reversed $194 $-1 #
coedge $-1 $206 $320 $192 $256 forward $270 $-1 #
edge $-1 $321 $160 $192 $322 forward #
edge $-1 $323 $195 $193 $324 forward #
face $-1 $317 $194 $2 $-1 $325 forward single #
point $-1 1.375 -0.50000000000000011 0.30888141812248021 #
coedge $-1 $198 $197 $301 $326 reversed $185 $-1 #
edge $327 $200 $328 $197 $329 forward #
coedge $-1 $284 $203 $198 $211 forward $266 $-1 #
point $-1 1.375 0.49999999999999989 0.30888141812248021 #
edge $-1 $267 $271 $220 $330 forward #
pcurve $-1 0 forward { exppc nubs 1 open 2 
	0 1 5.0619120695076454 1 
	1 1.110223024625157e-016 
	1 5.0619120695076454 
	0.0052123127993816366 
	spline forward { ref 1 } I I I I 
	} 0 0 #
loop $-1 $-1 $203 $331 #
vertex $-1 $222 $332 #
ellipse-curve $-1 1.0097184013377192 0.625 0.30888141812248021 -2.1644434646689509e-016 3.4967654318902531e-016 1 -0.10628614750923357 -0.065789473684210481 0 1 F 0 F 1.0165344923425685 #
coedge $-1 $320 $206 $282 $333 forward $270 $-1 #
loop $-1 $-1 $320 $334 #
vertex $-1 $333 $335 #
ellipse-curve $-1 1.0097184013377192 -0.62500000000000044 0.30888141812248021 0 0 1 0 0.12500000000000031 0 1 F 0 F 1.0165344923425679 #
face $-1 $336 $313 $2 $-1 $337 forward single #
spline-surface $-1 forward { ref 1 } I I I I #
vertex $-1 $326 $338 #
straight-curve $-1 1.0097184013377192 0.49999999999999994 -0.69111858187751973 0 4.5889310129793404e-017 -0.39370078740157477 F -2.8892509999999998 F 0.031751000000000085 #
face $-1 $331 $295 $2 $-1 $339 forward single #
cone-surface $-1 0.52840909090909094 0.62499999999999989 -0.56611858187751973 1 -3.5630199536374584e-049 3.0568421214156639e-033 0 -0.088388347648318447 -0.088388347648318447 1 I I 0 -1 0.125 forward I I I I #
coedge $-1 $291 $318 $340 $341 forward $214 $-1 #
coedge $-1 $280 $280 $217 $281 reversed $342 $-1 #
edge $-1 $343 $343 $217 $344 forward #
coedge $-1 $220 $219 $269 $333 reversed $131 $-1 #
edge $-1 $345 $285 $219 $346 forward #
coedge $-1 $221 $262 $312 $347 forward $266 $-1 #
vertex $-1 $222 $348 #
straight-curve $-1 0.90343225382848569 0.55921052631578949 -0.69111858187751973 0 0 0.39370078740157477 F -0.031751000000000085 F 2.8892509999999998 #
vertex $-1 $223 $349 #
ellipse-curve $-1 0 0 0.99638141812248049 -1.0831163779687333e-032 5.4155818898436657e-033 1 -1.0625 -3.3847386811522804e-034 0 1 I I #
point $-1 0.99999999999999989 6.5703750869426806e-034 1.0588814181224806 #
point $-1 1.9999999999999998 2.449212707644754e-016 -0.94111858187751962 #
coedge $-1 $350 $279 $230 $292 forward $214 $-1 #
edge $-1 $299 $296 $230 $351 forward #
coedge $-1 $352 $231 $236 $304 reversed $295 $-1 #
coedge $-1 $231 $352 $350 $353 reversed $295 $-1 #
loop $-1 $-1 $352 $277 #
vertex $-1 $292 $354 #
straight-curve $-1 1.5 -9.5366329960643426e-017 -0.69111858187751984 5.0294734633704623e-032 0.39370078740157477 -6.0174057508182339e-034 F -5.1117510000000008 F 5.1117510000000008 #
coedge $-1 $245 $233 $355 $356 reversed $146 $-1 #
vertex $-1 $356 $357 #
ellipse-curve $-1 3.8210526517695811e-034 -1.9105263258847899e-034 -0.69111858187751984 -3.0568421214156639e-033 1.5284210607078316e-033 1 -1.1874999999999998 2.1352941289300592e-034 -3.6300000191811002e-033 1 I I #
coedge $-1 $236 $235 $260 $326 forward $237 $-1 #
coedge $-1 $246 $312 $235 $303 reversed $313 $-1 #
edge $-1 $239 $275 $235 $358 forward #
edge $359 $328 $238 $236 $360 forward #
point $-1 1.4999999999999998 0.62499999999999989 -0.69111858187751973 #
point $-1 1.0097184013377194 0.62499999999999989 -0.69111858187751984 #
face $-1 $60 $361 $2 $-1 $362 reversed single #
loop $-1 $342 $363 $242 #
cone-surface $-1 9.4772683072264094e-033 -4.7386341536132047e-033 0.18388141812248063 -1.0831163779687333e-032 5.4155818898436657e-033 1 0.86999999999999988 0 9.4231124883279789e-033 1 I I 0 1 0.86999999999999988 reversed I I I I #
loop $-1 $-1 $364 $184 #
coedge $-1 $311 $311 $363 $365 reversed $243 $-1 #
coedge $-1 $302 $246 $284 $347 reversed $313 $-1 #
loop $-1 $-1 $312 $273 #
ellipse-curve $-1 1.0097184013377194 0.62499999999999989 -0.56611858187751973 -0.52631578947368418 0.85028918007386911 -2.9084641649461924e-033 -0.10628614750923364 -0.065789473684210523 0 1 I I #
point $-1 1.9999999999999998 1.9105263258847925e-034 -0.81611858187751984 #
coedge $-1 $251 $250 $352 $366 reversed $252 $-1 #
face $-1 $46 $367 $2 $-1 $368 forward single #
coedge $-1 $279 $350 $254 $319 forward $214 $-1 #
edge $-1 $323 $321 $254 $369 forward #
coedge $-1 $255 $269 $370 $371 forward $270 $-1 #
vertex $-1 $319 $372 #
straight-curve $-1 1.0097184013377192 -0.50000000000000022 -0.69111858187751973 0 4.5889310129793392e-017 0.39370078740157477 F -0.031751000000000085 F 2.8892509999999998 #
vertex $-1 $257 $373 #
straight-curve $-1 1.375 -0.5 0.80888141812248016 0 4.5889310129793392e-017 0.39370078740157477 F -3.8100000000000001 F 0 #
plane-surface $-1 0.875 -0.50000000000000022 -0.69111858187751973 0 -1 1.1655884772967523e-016 0 -4.5889310129793392e-017 -0.39370078740157477 forward_v I I I I #
edge $-1 $275 $328 $260 $374 forward #
convexity-sys-attrib $-1 $-1 $-1 $261 #
vertex $-1 $326 $375 #
straight-curve $-1 1.375 0.49999999999999994 -0.69111858187751951 0 4.5889310129793404e-017 -0.39370078740157477 F -3.8099999999999996 F 0 #
intcurve-curve $-1 forward { bldcur nubs 3 open 6 
	1.110223024625157e-016 3 0.37666656338204724 2 0.97933306479332272 2 1.9435994670513637 2 3.4864257106642293 2 
	5.0619120695076454 3 
	0.90343225382848535 0.55921052631578938 0.30888141812248027 
	0.90343225382848535 0.55921052631578938 0.35831272565293265 
	0.906809849746821 0.55384920676671689 0.40832374928204196 
	0.92292200293546944 0.52677986666970655 0.53299377560674233 
	0.93984005006790472 0.49751303138882003 0.60443203562230507 
	0.98885620228565541 0.3949241872199365 0.76815618088445292 
	1.0230881091367647 0.30580963884411683 0.84690808340958812 
	1.0755114865604933 0.034162213042812639 0.96407046878285829 
	1.0600096840153133 -0.1689907199792616 0.93638705737710659 
	0.96868553111666067 -0.46348944017063887 0.71230957825947394 
	0.9034322538284858 -0.5592105263157896 0.51563815812817815 
	0.9034322538284858 -0.5592105263157896 0.30888141812248027 
	0.0052123127993816366 
	spline forward { ref 1 } I I I I 
	null_surface 
	nubs 1 open 2 
	1.110223024625157e-016 1 5.0619120695076454 1 
	1 1.110223024625157e-016 
	1 5.0619120695076454 
	
	nullbs 
	I I 
	0 
	0 
	0 
	surf1 } I I #
face $-1 $334 $266 $2 $-1 $376 forward single #
point $-1 0.90343225382848569 0.55921052631578949 0.30888141812248021 #
edge $-1 $271 $345 $282 $377 forward #
face $-1 $209 $270 $2 $-1 $378 forward single #
point $-1 0.90343225382848558 -0.55921052631578982 0.30888141812248021 #
face $-1 $258 $379 $2 $-1 $380 forward single #
sphere-surface $-1 1.0097184013377194 0.62499999999999989 -0.56611858187751973 -0.12499999999999999 1 0 0 0 0 1 forward_v I I I I #
point $-1 1.0097184013377194 0.49999999999999994 -0.56611858187751973 #
cone-surface $-1 1.5 -9.5366329960643426e-017 -0.56611858187751973 -1.2774862596960975e-031 -1 1.5284210607078316e-033 -0.088388347648318447 0 -0.088388347648318447 1 I I 0 -1 0.125 forward I I I I #
coedge $-1 $370 $355 $279 $341 reversed $379 $-1 #
edge $-1 $321 $299 $279 $381 forward #
loop $-1 $382 $280 $242 #
vertex $-1 $281 $383 #
ellipse-curve $-1 -6.4651442436245861e-048 3.232572121812293e-048 1.0588814181224806 1.0831163779687333e-032 -5.4155818898436657e-033 -1 0.86999999999999988 0 9.4231124883279789e-033 1 I I #
vertex $-1 $283 $384 #
ellipse-curve $-1 0 0 -0.56611858187751973 3.0568421214156639e-033 -1.5284210607078316e-033 -1 -1.0625 1.9105263258847899e-034 0 1 I I #
edge $-1 $275 $285 $284 $385 forward #
point $-1 0.90343225382848569 0.55921052631578949 -0.56611858187751973 #
point $-1 1.0625 3.3847386811522804e-034 0.99638141812248049 #
coedge $-1 $318 $291 $294 $353 forward $214 $-1 #
straight-curve $-1 0.52840909090909094 -0.62500000000000022 -0.69111858187751984 0.39370078740157477 1.4027637612745896e-049 1.2034811501636471e-033 F -6.4539100909090923 F 3.7695919090909098 #
coedge $-1 $294 $293 $316 $366 forward $295 $-1 #
edge $386 $296 $323 $350 $387 forward #
point $-1 1.5 -0.62500000000000022 -0.69111858187751973 #
coedge $-1 $340 $370 $298 $356 forward $379 $-1 #
edge $-1 $345 $299 $298 $388 forward #
point $-1 1.0097184013377192 -0.62500000000000022 -0.69111858187751984 #
ellipse-curve $-1 1.0097184013377194 0.62499999999999989 -0.56611858187751973 -1 0 0 0 0 -0.12500000000000003 1 F 0 F 1.5707963267948966 #
convexity-sys-attrib $-1 $-1 $-1 $304 #
intcurve-curve $-1 forward { surfintcur nubs 3 open 7 
	0 3 0.089065178618565888 2 0.19065786722480976 2 0.32588879263460091 2 0.46092480823763071 2 
	0.60226964386490711 2 0.60336513937427727 3 
	1.375 0.49999999999999994 -0.56611858187751973 
	1.375 0.49999999999999994 -0.57780692552825019 
	1.3766378410284166 0.50163784102834996 -0.58923100458096589 
	1.3832052031866651 0.50820520318659468 -0.6124839051976555 
	1.388439525490835 0.51343952549083494 -0.62371771522358943 
	1.4032486171710206 0.52824861717102045 -0.64679939381611173 
	1.4136226762492949 0.53862267624929483 -0.65754518878154555 
	1.4359032941433458 0.56090329414334572 -0.67433557446652748 
	1.4479580341007463 0.57295803410074631 -0.6805078397769484 
	1.4731300489275856 0.59813004892758537 -0.68894921488551153 
	1.4864522124177397 0.61145221241729897 -0.69108559543310222 
	1.4997947669264493 0.62479476692646352 -0.69111845551572426 
	1.499897383482645 0.62489738348264523 -0.69111858187751973 
	1.4999999999999998 0.62499999999999989 -0.69111858187751973 
	2.0048794154829757e-006 
	cone 0.52840909090909094 0.62499999999999989 -0.56611858187751973 1 -3.5630199536374584e-049 3.0568421214156639e-033 0 -0.088388347648318447 -0.088388347648318447 1 I I 0 -1 0.125 forward I I I I 
	cone 1.5 -9.5366329960643426e-017 -0.56611858187751973 -1.2774862596960975e-031 -1 1.5284210607078316e-033 -0.088388347648318447 0 -0.088388347648318447 1 I I 0 -1 0.125 forward I I I I 
	nullbs 
	nullbs 
	I F 0.60226964386490711 
	0 
	1 0.60226964386490711 
	0 
	} I I #
loop $-1 $-1 $389 $307 #
plane-surface $-1 1.8954536614452827e-032 -9.4772683072264121e-033 -0.6911185818775194 1.0831163779687333e-032 -5.4155818898436657e-033 -1 0.39370078740157477 0 4.2642377085383198e-033 reverse_v I I I I #
coedge $-1 $363 $363 $311 $365 forward $308 $-1 #
coedge $-1 $364 $364 $390 $391 reversed $310 $-1 #
edge $-1 $392 $392 $363 $393 forward #
edge $-1 $328 $323 $316 $394 forward #
loop $-1 $252 $390 $317 #
plane-surface $-1 1.375 -1.7483827159451283e-016 0.058881418122480246 1 -1.2774862596960975e-031 -4.8666143226518039e-032 -1.9159898908077967e-032 0 -0.39370078740157477 forward_v I I I I #
straight-curve $-1 0.52840909090909094 -0.50000000000000022 -0.56611858187751973 -0.39370078740157477 -1.4027637612745896e-049 -1.2034811501636471e-033 F -3.7695919090909098 F 6.4539100909090923 #
coedge $-1 $355 $340 $320 $371 reversed $379 $-1 #
edge $-1 $345 $321 $320 $395 forward #
point $-1 1.0097184013377192 -0.50000000000000022 -0.56611858187751973 #
point $-1 1.375 -0.50000000000000022 -0.56611858187751973 #
straight-curve $-1 0.52840909090909094 0.49999999999999994 -0.56611858187751973 0.39370078740157477 -1.4027637612745897e-049 1.2034811501636471e-033 F -6.4539100909090923 F 3.7695919090909098 #
point $-1 1.375 0.49999999999999994 -0.56611858187751973 #
cone-surface $-1 1.0097184013377192 0.625 -0.69111858187751973 0 0 -1 -0.060833032924035919 -0.10919863600459101 0 1 I I 0 -1 0.12499999999999999 forward I I I I #
straight-curve $-1 0.90343225382848558 -0.55921052631578982 -0.69111858187751973 0 0 -0.39370078740157477 F -2.8892509999999998 F 0.031751000000000085 #
cone-surface $-1 1.0097184013377192 -0.62500000000000044 -0.69111858187751973 0 0 1 -0.060833032924035836 0.10919863600459105 0 1 I I 0 -1 0.12499999999999999 forward I I I I #
loop $-1 $-1 $340 $336 #
sphere-surface $-1 1.0097184013377192 -0.62500000000000022 -0.56611858187751973 -0.12499999999999999 1 0 0 0 0 1 forward_v I I I I #
ellipse-curve $-1 1.0097184013377192 -0.62500000000000022 -0.56611858187751973 -1 0 0 0 0.12500000000000003 0 1 F 0 F 1.5707963267948966 #
loop $-1 $-1 $396 $242 #
point $-1 0.86999999999999988 2.8405529318964355e-048 1.0588814181224806 #
point $-1 0.90343225382848558 -0.55921052631578982 -0.56611858187751973 #
ellipse-curve $-1 1.0097184013377192 0.625 -0.56611858187751973 0 0 -1 0 -0.12500000000000003 0 1 F 0 F 1.0165344923425685 #
convexity-sys-attrib $-1 $-1 $-1 $353 #
intcurve-curve $-1 forward { surfintcur nubs 3 open 7 
	-0.0011058271297161065 3 0 2 0.1426778590555694 2 0.27898739959257757 2 0.41549368813112458 2 
	0.51804449758737614 2 0.60794965008412394 3 
	1.5 -0.62500000000000022 -0.69111858187751973 
	1.4998973834826452 -0.62489738348264556 -0.69111858187751973 
	1.4997947669264495 -0.62479476692646374 -0.69111845551572426 
	1.4864522124177404 -0.61145221241730796 -0.69108559543310222 
	1.4731300489275863 -0.59813004892758659 -0.68894921488551175 
	1.447958034100747 -0.57295803410074719 -0.68050783977694851 
	1.4359032941433458 -0.56090329414334639 -0.6743355744665277 
	1.4136226762492947 -0.53862267624929494 -0.65754518878154544 
	1.4032486171710206 -0.52824861717102078 -0.64679939381611173 
	1.3884395254908346 -0.51343952549083471 -0.62371771522358843 
	1.3832052031866653 -0.5082052031865949 -0.61248390519765494 
	1.3766378410284172 -0.50163784102835074 -0.589231004580967 
	1.375 -0.50000000000000033 -0.57780692552825075 
	1.375 -0.50000000000000033 -0.56611858187751973 
	2.0048794154665797e-006 
	cone 0.52840909090909094 -0.62500000000000022 -0.56611858187751973 -1 -3.5630199536374576e-049 -3.0568421214156639e-033 0 0.088388347648318447 -0.088388347648318447 1 I I 0 -1 0.125 forward I I I I 
	cone 1.5 -9.5366329960643426e-017 -0.56611858187751973 -1.2774862596960975e-031 -1 1.5284210607078316e-033 -0.088388347648318447 0 -0.088388347648318447 1 I I 0 -1 0.125 forward I I I I 
	nullbs 
	nullbs 
	F 0 I 
	0 
	1 0 
	0 
	} I I #
ellipse-curve $-1 1.0097184013377192 -0.62500000000000022 -0.56611858187751973 -0.52631578947368451 -0.85028918007386878 -3.0926438391240262e-034 -0.10628614750923361 0.065789473684210578 0 1 I I #
coedge $-1 $389 $389 $396 $397 forward $361 $-1 #
coedge $-1 $390 $390 $364 $391 forward $367 $-1 #
edge $-1 $398 $398 $390 $399 forward #
vertex $-1 $365 $400 #
intcurve-curve $-1 forward { surfintcur nubs 3 periodic 17 
	0 3 0.30203502046764696 2 0.60407004093529393 2 0.90591268880467191 2 1.2077553366740499 2 
	1.509597984543428 2 1.8114406324128061 2 2.113475652880453 2 2.4155106733481002 2 2.7175456938157474 2 
	3.0195807142833941 2 3.3214233621527725 2 3.6232660100221508 2 3.9251086578915286 2 4.2269513057609069 2 
	4.5289863262285541 2 4.8310213466962013 3 
	0.81193826735780839 0.31249999999999989 0.18388141812248027 
	0.81193826735780839 0.31249999999999989 0.22351855991613473 
	0.81514652710958024 0.30450562349087135 0.26552549578895679 
	0.8263927975242471 0.27251140024495424 0.34239635927292267 
	0.83423366537129184 0.2485275152292101 0.37729564113486214 
	0.84870186120445512 0.19343177443275442 0.43239138193131782 
	0.85631571992008793 0.15852562576528839 0.45638870801631909 
	0.86703155582904412 0.081628839460832214 0.48839304718360665 
	0.86999999999999988 0.039611896045850033 0.49638141812248021 
	0.86999999999999988 -0.039611896045850241 0.49638141812248021 
	0.86703155582904412 -0.081628839460832422 0.48839304718360665 
	0.85631571992008793 -0.15852562576528853 0.45638870801631909 
	0.84870186120445512 -0.19343177443275453 0.43239138193131799 
	0.83423366537129184 -0.24852751522921024 0.3772956411348623 
	0.8263927975242471 -0.27251140024495429 0.34239635927292283 
	0.81514652710958024 -0.30450562349087146 0.26552549578895684 
	0.81193826735780827 -0.31250000000000006 0.22351855991613476 
	0.81193826735780827 -0.31250000000000006 0.14424427632882578 
	0.81514652710958024 -0.30450562349087151 0.10223734045600363 
	0.8263927975242471 -0.2725114002449544 0.025366476972037803 
	0.83423366537129162 -0.24852751522921029 -0.0095328048899016148 
	0.8487018612044549 -0.19343177443275461 -0.064628545686357342 
	0.85631571992008793 -0.15852562576528859 -0.088625871771358541 
	0.86703155582904412 -0.081628839460832478 -0.1206302109386462 
	0.86999999999999988 -0.039611896045850276 -0.12861858187751968 
	0.86999999999999988 0.039611896045850005 -0.12861858187751968 
	0.86703155582904434 0.081628839460832062 -0.12063021093864625 
	0.85631571992008815 0.15852562576528817 -0.088625871771358652 
	0.84870186120445512 0.19343177443275431 -0.06462854568635748 
	0.83423366537129184 0.24852751522921007 -0.009532804889901771 
	0.8263927975242471 0.27251140024495413 0.025366476972037699 
	0.81514652710958024 0.30450562349087135 0.10223734045600363 
	0.81193826735780839 0.31249999999999989 0.14424427632882578 
	0.81193826735780839 0.31249999999999989 0.18388141812248027 
	0.0001438559127432158 
	cone 1.0625 -1.0017998727742692e-016 0.18388141812248027 1 -1.2774862596960975e-031 -4.8666143226518039e-032 -1.5208169758286885e-032 0 -0.31249999999999994 1 I I 0 1 0.31249999999999994 reversed I I I I 
	cone 9.4772683072264094e-033 -4.7386341536132047e-033 0.18388141812248063 -1.0831163779687333e-032 5.4155818898436657e-033 1 0.86999999999999988 0 9.4231124883279789e-033 1 I I 0 -1 0.86999999999999988 reversed I I I I 
	nullbs 
	nullbs 
	I I 
	0 
	0 
	0 
	} I I #
straight-curve $-1 1.375 -9.5366329960643414e-017 -0.56611858187751973 -5.0294734633704623e-032 -0.39370078740157477 6.0174057508182339e-034 F -5.1117510000000008 F 5.1117510000000008 #
ellipse-curve $-1 1.0097184013377192 -0.62500000000000044 -0.56611858187751973 0 0 -1 -0.10628614750923357 0.065789473684210578 0 1 F 0 F 1.0165344923425679 #
coedge $-1 $396 $396 $389 $397 reversed $382 $-1 #
edge $-1 $401 $401 $389 $402 forward #
vertex $-1 $391 $403 #
ellipse-curve $-1 1.375 -1.0017998727742696e-016 0.18388141812248027 -1 1.2774862596960975e-031 4.8666143226518039e-032 -1.5208169758286885e-032 0 -0.31249999999999994 1 I I #
point $-1 0.81193826735780827 0.31249999999999989 0.18388141812248027 #
vertex $-1 $397 $404 #
ellipse-curve $-1 1.8954536614452827e-032 -9.4772683072264121e-033 -0.6911185818775194 -1.0831163779687333e-032 5.4155818898436657e-033 1 0.86999999999999988 0 9.4231124883279789e-033 1 I I #
point $-1 1.375 -1.0017998727742696e-016 -0.12861858187751973 #
point $-1 0.86999999999999988 -9.4772683072264121e-033 -0.6911185818775194 #
End-of-ACIS-data 