700 0 1 0           
28 Autodesk Inventor 6.0.0.9000 16 ASM 6.0.0.192 NT 24 Sun Nov 05 20:55:22 2006 
25.399999999999999 9.9999999999999995e-007 1e-010 
body $-1 -1 $-1 $1 $-1 $-1 #
lump $-1 -1 $-1 $-1 $2 $0 #
shell $-1 -1 $-1 $-1 $-1 $3 $-1 $1 #
face $-1 -1 $-1 $4 $5 $2 $-1 $6 reversed single #
face $-1 -1 $-1 $7 $8 $2 $-1 $9 reversed single #
loop $-1 -1 $-1 $-1 $10 $3 #
plane-surface $-1 -1 $-1 0.19999999999999973 0.11850393700787376 0.062999999999999987 -4.4408920985006262e-016 1 0 0 0 0.39370078740157477 forward_v I I I I #
face $-1 -1 $-1 $11 $12 $2 $-1 $13 reversed single #
loop $-1 -1 $-1 $-1 $14 $4 #
cone-surface $-1 -1 $-1 -0.20000000000000026 -0.0064960629921264048 0.062999999999999987 0 0 -1 0.125 5.5511151231257827e-017 0 1 I I 0 1 0.125 forward I I I I #
coedge $-1 -1 $-1 $15 $16 $17 $18 reversed $5 $-1 #
face $-1 -1 $-1 $19 $20 $2 $-1 $21 reversed single #
loop $-1 -1 $-1 $-1 $22 $7 #
plane-surface $-1 -1 $-1 -0.20000000000000021 -0.13149606299212635 0.062999999999999987 4.4408920985006262e-016 -1 0 0 0 -0.39370078740157477 forward_v I I I I #
coedge $-1 -1 $-1 $23 $24 $25 $26 reversed $8 $-1 #
coedge $-1 -1 $-1 $27 $10 $28 $29 reversed $5 $-1 #
coedge $-1 -1 $-1 $10 $27 $23 $30 forward $5 $-1 #
coedge $-1 -1 $-1 $25 $31 $10 $18 forward $32 $-1 #
edge $-1 -1 $-1 $33 -0.25399999999999984 $34 0.76200000000000023 $17 $35 forward @7 unknown #
face $-1 -1 $-1 $36 $37 $2 $-1 $38 forward single #
loop $-1 -1 $-1 $-1 $39 $11 #
cone-surface $-1 -1 $-1 0.19999999999999973 -0.0064960629921262296 0.062999999999999987 0 0 -1 -0.12500000000000011 -5.5511151231257876e-017 0 1 I I 0 1 0.12500000000000011 forward I I I I #
coedge $-1 -1 $-1 $40 $41 $42 $43 reversed $12 $-1 #
coedge $-1 -1 $-1 $44 $14 $16 $30 reversed $8 $-1 #
coedge $-1 -1 $-1 $14 $44 $40 $45 forward $8 $-1 #
coedge $-1 -1 $-1 $42 $17 $14 $26 forward $32 $-1 #
edge $-1 -1 $-1 $34 1.5707963267948966 $46 4.7123889803846897 $25 $47 forward @7 unknown #
coedge $-1 -1 $-1 $16 $15 $48 $49 reversed $5 $-1 #
coedge $-1 -1 $-1 $39 $50 $15 $29 forward $20 $-1 #
edge $-1 -1 $-1 $51 0 $33 0.16002 $15 $52 forward @7 unknown #
edge $-1 -1 $-1 $53 0 $34 0.16002 $23 $54 forward @7 unknown #
coedge $-1 -1 $-1 $17 $42 $39 $55 forward $32 $-1 #
loop $-1 -1 $-1 $56 $42 $57 #
vertex $-1 -1 $-1 $55 $58 #
vertex $-1 -1 $-1 $18 $59 #
straight-curve $-1 -1 $-1 0.099999999999999797 0.11850393700787372 0 -0.39370078740157477 -1.7483827159451283e-016 0 I I #
face $-1 -1 $-1 $60 $61 $2 $-1 $62 forward single #
loop $-1 -1 $-1 $-1 $63 $19 #
plane-surface $-1 -1 $-1 0.49555118110236179 0.53149606299212593 1.0861023622047243 0.70710678118654757 -4.3296372853596771e-017 0.70710678118654757 0.27838849653013681 0 -0.27838849653013681 forward_v I I I I #
coedge $-1 -1 $-1 $64 $28 $31 $55 reversed $20 $-1 #
coedge $-1 -1 $-1 $65 $22 $24 $45 reversed $12 $-1 #
coedge $-1 -1 $-1 $22 $65 $64 $66 forward $12 $-1 #
coedge $-1 -1 $-1 $31 $25 $22 $43 forward $32 $-1 #
edge $-1 -1 $-1 $46 -0.25400000000000023 $67 0.76199999999999968 $42 $68 forward @7 unknown #
coedge $-1 -1 $-1 $24 $23 $69 $70 reversed $8 $-1 #
edge $-1 -1 $-1 $71 0 $46 0.16002 $40 $72 forward @7 unknown #
vertex $-1 -1 $-1 $43 $73 #
ellipse-curve $-1 -1 $-1 -0.20000000000000026 -0.0064960629921264048 0 0 0 1 0.125 5.5511151231257827e-017 0 1 I I #
coedge $-1 -1 $-1 $74 $69 $27 $49 forward $75 $-1 #
edge $-1 -1 $-1 $53 -0.76200000000000023 $51 0.25399999999999984 $48 $76 forward @7 unknown #
coedge $-1 -1 $-1 $28 $64 $74 $77 reversed $20 $-1 #
vertex $-1 -1 $-1 $77 $78 #
straight-curve $-1 -1 $-1 0.19999999999999973 0.11850393700787376 0.062999999999999987 0 0 -0.39370078740157477 I I #
vertex $-1 -1 $-1 $49 $79 #
straight-curve $-1 -1 $-1 -0.20000000000000029 0.11850393700787358 0.062999999999999987 0 0 -0.39370078740157477 I I #
edge $-1 -1 $-1 $67 1.5707963267948961 $33 4.7123889803846897 $31 $80 forward @7 unknown #
loop $-1 -1 $-1 $-1 $81 $57 #
face $-1 -1 $-1 $82 $32 $2 $-1 $83 reversed single #
point $-1 -1 $-1 0.19999999999999973 0.11850393700787376 0 #
point $-1 -1 $-1 -0.20000000000000029 0.11850393700787358 0 #
face $-1 -1 $-1 $84 $85 $2 $-1 $86 forward single #
loop $-1 -1 $-1 $87 $88 $36 #
plane-surface $-1 -1 $-1 -3.0596697529039742e-016 0.53149606299212593 0.59055118110236215 -4.2309991883724873e-016 1 8.064306547028498e-017 0 -3.1749238374127944e-017 0.39370078740157477 forward_v I I I I #
coedge $-1 -1 $-1 $89 $90 $91 $92 forward $37 $-1 #
coedge $-1 -1 $-1 $50 $39 $41 $66 reversed $20 $-1 #
coedge $-1 -1 $-1 $41 $40 $93 $94 reversed $12 $-1 #
edge $-1 -1 $-1 $95 0 $67 0.16002 $64 $96 forward @7 unknown #
vertex $-1 -1 $-1 $43 $97 #
straight-curve $-1 -1 $-1 -0.10000000000000013 -0.13149606299212629 0 0.39370078740157477 1.7483827159451283e-016 0 I I #
coedge $-1 -1 $-1 $48 $93 $44 $70 forward $75 $-1 #
edge $-1 -1 $-1 $71 1.5707963267948968 $53 4.7123889803846897 $69 $98 forward @7 unknown #
vertex $-1 -1 $-1 $94 $99 #
straight-curve $-1 -1 $-1 -0.20000000000000021 -0.13149606299212635 0.062999999999999987 0 0 -0.39370078740157477 I I #
point $-1 -1 $-1 -0.20000000000000021 -0.13149606299212635 0 #
coedge $-1 -1 $-1 $93 $48 $50 $77 forward $75 $-1 #
loop $-1 -1 $-1 $100 $93 $101 #
straight-curve $-1 -1 $-1 0.099999999999999797 0.11850393700787372 0.062999999999999987 0.39370078740157477 1.7483827159451283e-016 0 I I #
edge $-1 -1 $-1 $51 1.570796326794897 $95 4.7123889803846897 $74 $102 forward @7 unknown #
point $-1 -1 $-1 0.19999999999999973 0.11850393700787376 0.062999999999999987 #
point $-1 -1 $-1 -0.20000000000000029 0.11850393700787358 0.062999999999999987 #
ellipse-curve $-1 -1 $-1 0.19999999999999973 -0.0064960629921262296 0 0 0 1 -0.12500000000000011 -5.5511151231257876e-017 0 1 I I #
coedge $-1 -1 $-1 $103 $104 $105 $106 reversed $56 $-1 #
face $-1 -1 $-1 $107 $108 $2 $-1 $109 forward single #
plane-surface $-1 -1 $-1 -8.7419135797256413e-017 -1.0394093418956086e-016 0 0 0 1 0.39370078740157477 0 0 forward_v I I I I #
face $-1 -1 $-1 $57 $110 $2 $-1 $111 forward single #
loop $-1 -1 $-1 $-1 $112 $60 #
plane-surface $-1 -1 $-1 0.59055118110236182 0.53149606299212615 1.1811023622047243 1 -3.4763396420650432e-049 5.6774809818915386e-033 2.2352287330281644e-033 0 -0.39370078740157477 forward_v I I I I #
loop $-1 -1 $-1 $-1 $113 $36 #
coedge $-1 -1 $-1 $88 $88 $114 $115 forward $61 $-1 #
coedge $-1 -1 $-1 $116 $63 $112 $117 forward $37 $-1 #
coedge $-1 -1 $-1 $63 $116 $118 $119 forward $37 $-1 #
coedge $-1 -1 $-1 $120 $121 $63 $92 reversed $122 $-1 #
edge $-1 -1 $-1 $123 -0.34124973260062796 $124 0.34124973260062796 $91 $125 forward @7 unknown #
coedge $-1 -1 $-1 $69 $74 $65 $94 forward $75 $-1 #
edge $-1 -1 $-1 $95 -0.76199999999999957 $71 0.25400000000000028 $93 $126 forward @7 unknown #
vertex $-1 -1 $-1 $94 $127 #
straight-curve $-1 -1 $-1 0.19999999999999973 -0.13149606299212618 0.062999999999999987 0 0 -0.39370078740157477 I I #
point $-1 -1 $-1 0.19999999999999973 -0.13149606299212618 0 #
ellipse-curve $-1 -1 $-1 -0.20000000000000026 -0.0064960629921264048 0.062999999999999987 0 0 -1 0.125 5.5511151231257827e-017 0 1 I I #
point $-1 -1 $-1 -0.20000000000000021 -0.13149606299212635 0.062999999999999987 #
loop $-1 -1 $-1 $-1 $128 $101 #
face $-1 -1 $-1 $129 $75 $2 $-1 $130 forward single #
ellipse-curve $-1 -1 $-1 0.19999999999999973 -0.0064960629921262296 0.062999999999999987 0 0 -1 -0.12500000000000011 -5.5511151231257876e-017 0 1 I I #
coedge $-1 -1 $-1 $131 $81 $132 $133 forward $56 $-1 #
coedge $-1 -1 $-1 $81 $134 $135 $136 forward $56 $-1 #
coedge $-1 -1 $-1 $137 $138 $81 $106 forward $110 $-1 #
edge $-1 -1 $-1 $139 -0.28821672401163723 $140 0.39428274118961865 $81 $141 forward @7 unknown #
face $-1 -1 $-1 $142 $143 $2 $-1 $144 forward single #
loop $-1 -1 $-1 $-1 $145 $82 #
plane-surface $-1 -1 $-1 -0.49555118110236224 -0.43649606299212623 1.3474890648227068e-032 -0.70710678118654657 -0.70710678118654846 1.9227452009927466e-032 1.0705402914298143e-032 0 0.39370078740157477 forward_v I I I I #
loop $-1 -1 $-1 $-1 $146 $84 #
plane-surface $-1 -1 $-1 0.49555118110236185 -0.43649606299212623 0.59055118110236215 0.70710678118654768 -0.70710678118654735 4.014585302353166e-033 2.2352287330281644e-033 0 -0.39370078740157477 forward_v I I I I #
coedge $-1 -1 $-1 $147 $148 $89 $117 reversed $85 $-1 #
coedge $-1 -1 $-1 $149 $150 $116 $151 reversed $87 $-1 #
coedge $-1 -1 $-1 $114 $114 $88 $115 reversed $152 $-1 #
edge $-1 -1 $-1 $153 3.5812715224585731e-032 $153 6.2831853071795862 $88 $154 forward @7 unknown #
coedge $-1 -1 $-1 $90 $89 $113 $151 forward $37 $-1 #
edge $-1 -1 $-1 $124 -0.16001999999999938 $155 6.6613381477509392e-016 $112 $156 forward @7 unknown #
coedge $-1 -1 $-1 $157 $158 $90 $119 reversed $159 $-1 #
edge $-1 -1 $-1 $160 -4.4408920985006262e-016 $123 0.16001999999999961 $118 $161 forward @7 unknown #
coedge $-1 -1 $-1 $162 $91 $158 $163 reversed $122 $-1 #
coedge $-1 -1 $-1 $91 $164 $147 $165 reversed $122 $-1 #
loop $-1 -1 $-1 $166 $91 $167 #
vertex $-1 -1 $-1 $92 $168 #
vertex $-1 -1 $-1 $165 $169 #
straight-curve $-1 -1 $-1 0.49555118110236185 0.46849606299212615 1.0861023622047243 0.27838849653013681 1.4023625203897864e-016 -0.27838849653013681 I I #
straight-curve $-1 -1 $-1 -0.1000000000000001 -0.13149606299212629 0.062999999999999987 -0.39370078740157477 -1.7483827159451283e-016 0 I I #
point $-1 -1 $-1 0.19999999999999973 -0.13149606299212618 0.062999999999999987 #
coedge $-1 -1 $-1 $170 $171 $146 $172 reversed $100 $-1 #
face $-1 -1 $-1 $167 $159 $2 $-1 $173 forward single #
plane-surface $-1 -1 $-1 -6.556435184794231e-017 -1.4921902725201543e-016 0.062999999999999987 0 0 1 0.39370078740157477 0 0 forward_v I I I I #
coedge $-1 -1 $-1 $174 $103 $175 $176 reversed $56 $-1 #
coedge $-1 -1 $-1 $177 $178 $103 $133 reversed $179 $-1 #
edge $-1 -1 $-1 $139 0.48260000000000014 $180 2.517399999999999 $103 $181 forward @7 unknown #
coedge $-1 -1 $-1 $104 $174 $182 $183 forward $56 $-1 #
coedge $-1 -1 $-1 $184 $185 $104 $136 reversed $85 $-1 #
edge $-1 -1 $-1 $186 0.32003999999999988 $140 2.2174000000000014 $104 $187 forward @7 unknown #
coedge $-1 -1 $-1 $146 $105 $185 $188 forward $110 $-1 #
coedge $-1 -1 $-1 $105 $146 $177 $189 forward $110 $-1 #
vertex $-1 -1 $-1 $133 $190 #
vertex $-1 -1 $-1 $106 $191 #
straight-curve $-1 -1 $-1 0.48078740157480299 -0.45125984251968515 4.3709567898628207e-017 0.27838849653013675 0.27838849653013686 0 I I #
face $-1 -1 $-1 $192 $193 $2 $-1 $194 forward single #
loop $-1 -1 $-1 $-1 $195 $107 #
plane-surface $-1 -1 $-1 -0.59055118110236249 0.53149606299212571 0 -1 -1.6649578624929186e-048 2.7191723402317286e-032 1.0705402914298143e-032 0 0.39370078740157477 forward_v I I I I #
coedge $-1 -1 $-1 $196 $197 $198 $199 forward $108 $-1 #
coedge $-1 -1 $-1 $138 $137 $128 $172 forward $110 $-1 #
coedge $-1 -1 $-1 $200 $112 $121 $165 forward $85 $-1 #
coedge $-1 -1 $-1 $112 $184 $149 $201 reversed $85 $-1 #
coedge $-1 -1 $-1 $202 $113 $148 $201 forward $87 $-1 #
coedge $-1 -1 $-1 $113 $203 $157 $204 forward $87 $-1 #
edge $-1 -1 $-1 $155 -0.34124973260062796 $160 0.34124973260062796 $113 $205 forward @7 unknown #
loop $-1 -1 $-1 $-1 $114 $192 #
vertex $-1 -1 $-1 $115 $206 #
ellipse-curve $-1 -1 $-1 -3.1317578128922553e-016 0.53149606299212593 0.62499999999999989 4.2309991883724873e-016 -1 -8.064306547028498e-017 0.19 8.0388984579077252e-017 -3.2160174617103066e-034 1 I I #
vertex $-1 -1 $-1 $201 $207 #
straight-curve $-1 -1 $-1 0.59055118110236182 0.53149606299212593 0.99110236220472425 0 0.39370078740157477 2.4106424287842067e-017 F -2.7482610000000007 F 1.4960610000000012 #
coedge $-1 -1 $-1 $208 $118 $150 $204 reversed $159 $-1 #
coedge $-1 -1 $-1 $118 $208 $120 $163 forward $159 $-1 #
loop $-1 -1 $-1 $-1 $118 $129 #
vertex $-1 -1 $-1 $151 $209 #
straight-curve $-1 -1 $-1 0.40055118110236176 0.53149606299212593 1.1811023622047243 0 -0.39370078740157477 -2.4106424287842067e-017 F -1.4960610000000012 F 2.7482610000000007 #
coedge $-1 -1 $-1 $210 $120 $211 $212 reversed $122 $-1 #
edge $-1 -1 $-1 $213 0.48260000000000014 $123 2.5173999999999999 $158 $214 forward @7 unknown #
coedge $-1 -1 $-1 $121 $210 $215 $216 forward $122 $-1 #
edge $-1 -1 $-1 $124 0.48260000000000014 $217 2.6799599999999999 $147 $218 forward @7 unknown #
loop $-1 -1 $-1 $-1 $219 $167 #
face $-1 -1 $-1 $-1 $122 $2 $-1 $220 reversed single #
point $-1 -1 $-1 0.40055118110236176 0.46849606299212604 1.1811023622047243 #
point $-1 -1 $-1 0.59055118110236182 0.46849606299212615 0.99110236220472425 #
coedge $-1 -1 $-1 $221 $128 $222 $223 reversed $100 $-1 #
coedge $-1 -1 $-1 $128 $198 $224 $225 reversed $100 $-1 #
edge $-1 -1 $-1 $226 -0.39428274118961865 $227 0.28821672401163723 $128 $228 forward @7 unknown #
plane-surface $-1 -1 $-1 -0.59055118110236249 0.5314960629921256 1.1811023622047243 2.7191723402317281e-032 -6.1230317691118851e-017 1 0.39370078740157477 0 -1.0705402914298142e-032 forward_v I I I I #
coedge $-1 -1 $-1 $134 $131 $229 $230 forward $56 $-1 #
coedge $-1 -1 $-1 $197 $196 $131 $176 forward $108 $-1 #
edge $-1 -1 $-1 $231 -0.39428274118961942 $180 0.28821672401163656 $131 $232 forward @7 unknown #
coedge $-1 -1 $-1 $224 $132 $138 $189 reversed $179 $-1 #
coedge $-1 -1 $-1 $132 $224 $197 $233 reversed $179 $-1 #
loop $-1 -1 $-1 $-1 $177 $234 #
vertex $-1 -1 $-1 $176 $235 #
straight-curve $-1 -1 $-1 0.59055118110236193 -0.53149606299212626 0 -0.39370078740157477 0 0 F 0 F 2.9999999999999991 #
coedge $-1 -1 $-1 $236 $237 $134 $183 reversed $238 $-1 #
edge $-1 -1 $-1 $239 -2.25 $186 0.75 $134 $240 forward @7 unknown #
coedge $-1 -1 $-1 $148 $135 $237 $241 forward $85 $-1 #
coedge $-1 -1 $-1 $135 $222 $137 $188 reversed $85 $-1 #
vertex $-1 -1 $-1 $136 $242 #
straight-curve $-1 -1 $-1 0.59055118110236182 0.53149606299212626 0 6.4754915405375091e-017 -0.39370078740157477 0 F 0 F 2.7000000000000015 #
edge $-1 -1 $-1 $140 -1.5 $226 -1.3399799999999999 $185 $243 forward @7 unknown #
edge $-1 -1 $-1 $227 1.3399799999999999 $139 1.5 $177 $244 forward @7 unknown #
point $-1 -1 $-1 0.40055118110236193 -0.53149606299212626 0 #
point $-1 -1 $-1 0.59055118110236193 -0.3414960629921262 0 #
face $-1 -1 $-1 $245 $246 $2 $-1 $247 reversed single #
loop $-1 -1 $-1 $-1 $211 $142 #
plane-surface $-1 -1 $-1 -0.49555118110236246 0.5314960629921256 1.0861023622047243 -0.70710678118654757 -4.3296372853596771e-017 0.70710678118654757 0.27838849653013681 0 0.27838849653013681 forward_v I I I I #
coedge $-1 -1 $-1 $248 $229 $196 $249 reversed $143 $-1 #
coedge $-1 -1 $-1 $175 $145 $195 $249 forward $108 $-1 #
coedge $-1 -1 $-1 $145 $175 $178 $233 forward $108 $-1 #
coedge $-1 -1 $-1 $171 $250 $145 $199 reversed $100 $-1 #
edge $-1 -1 $-1 $251 -0.28821672401163645 $252 0.39428274118961959 $198 $253 forward @7 unknown #
coedge $-1 -1 $-1 $222 $147 $254 $255 reversed $85 $-1 #
edge $-1 -1 $-1 $155 0.48260000000000014 $256 2.6799599999999999 $149 $257 forward @7 unknown #
coedge $-1 -1 $-1 $258 $149 $259 $260 forward $87 $-1 #
coedge $-1 -1 $-1 $150 $258 $261 $262 reversed $87 $-1 #
edge $-1 -1 $-1 $263 0.48260000000000014 $160 2.5173999999999999 $150 $264 forward @7 unknown #
straight-curve $-1 -1 $-1 0.49555118110236185 0.53149606299212604 1.0861023622047243 -0.27838849653013681 -1.4023625203897861e-016 0.27838849653013681 I I #
point $-1 -1 $-1 0.1899999999999997 0.53149606299212593 0.62499999999999989 #
point $-1 -1 $-1 0.59055118110236182 0.53149606299212615 0.99110236220472425 #
coedge $-1 -1 $-1 $158 $157 $265 $266 reversed $159 $-1 #
point $-1 -1 $-1 0.40055118110236176 0.53149606299212604 1.1811023622047243 #
coedge $-1 -1 $-1 $164 $162 $267 $268 reversed $122 $-1 #
coedge $-1 -1 $-1 $265 $269 $162 $212 forward $193 $-1 #
edge $-1 -1 $-1 $270 -0.34124973260062813 $213 0.3412497326006278 $162 $271 forward @7 unknown #
vertex $-1 -1 $-1 $163 $272 #
straight-curve $-1 -1 $-1 -0.59055118110236249 0.46849606299212559 1.1811023622047243 0.39370078740157477 1.7483827159451283e-016 0 F 0 F 3 #
coedge $-1 -1 $-1 $273 $254 $164 $216 reversed $274 $-1 #
edge $-1 -1 $-1 $275 -0.75 $217 2.25 $164 $276 forward @7 unknown #
vertex $-1 -1 $-1 $216 $277 #
straight-curve $-1 -1 $-1 0.59055118110236182 0.46849606299212615 1.1811023622047243 2.2352287330281644e-033 2.410642428784207e-017 -0.39370078740157477 F 0 F 3 #
coedge $-1 -1 $-1 $219 $219 $278 $279 forward $166 $-1 #
plane-surface $-1 -1 $-1 -3.0596697529039742e-016 0.46849606299212598 0.59055118110236215 -4.2309991883724883e-016 1 8.064306547028498e-017 0 -3.1749238374127944e-017 0.39370078740157477 forward_v I I I I #
coedge $-1 -1 $-1 $250 $170 $280 $281 forward $100 $-1 #
coedge $-1 -1 $-1 $185 $200 $170 $223 forward $85 $-1 #
edge $-1 -1 $-1 $282 0.32003999999999988 $226 2.2174000000000014 $222 $283 forward @7 unknown #
coedge $-1 -1 $-1 $178 $177 $171 $225 forward $179 $-1 #
edge $-1 -1 $-1 $227 0.48260000000000014 $251 2.517399999999999 $224 $284 forward @7 unknown #
vertex $-1 -1 $-1 $188 $285 #
vertex $-1 -1 $-1 $225 $286 #
straight-curve $-1 -1 $-1 0.48078740157480299 -0.45125984251968515 0.062999999999999973 -0.27838849653013675 -0.27838849653013686 0 I I #
coedge $-1 -1 $-1 $195 $287 $174 $230 reversed $143 $-1 #
edge $-1 -1 $-1 $231 0.48260000000000014 $239 2.3799600000000005 $174 $288 forward @7 unknown #
vertex $-1 -1 $-1 $230 $289 #
straight-curve $-1 -1 $-1 -0.48078740157480299 -0.45125984251968548 0 0.27838849653013714 -0.27838849653013642 0 I I #
edge $-1 -1 $-1 $180 -2.7664859389517573e-032 $251 0.16002 $178 $290 forward @7 unknown #
face $-1 -1 $-1 $101 $179 $2 $-1 $291 forward single #
point $-1 -1 $-1 -0.40055118110236193 -0.53149606299212626 0 #
coedge $-1 -1 $-1 $259 $182 $287 $292 forward $238 $-1 #
coedge $-1 -1 $-1 $182 $259 $184 $241 reversed $238 $-1 #
loop $-1 -1 $-1 $-1 $259 $245 #
vertex $-1 -1 $-1 $183 $293 #
straight-curve $-1 -1 $-1 0.2952755905511808 0.40549606299212609 0 0.39370078740157477 1.7483827159451283e-016 0 I I #
edge $-1 -1 $-1 $186 -6.9380266505758987e-016 $256 1.5707963267948952 $184 $294 forward @7 unknown #
point $-1 -1 $-1 0.59055118110236193 0.40549606299212632 0 #
straight-curve $-1 -1 $-1 0.59055118110236182 -0.34149606299212626 0.59055118110236215 -2.2352287330281644e-033 0 0.39370078740157477 F -2.9960610000000001 F 2.0308610000000002 #
straight-curve $-1 -1 $-1 0.40055118110236193 -0.53149606299212626 0.59055118110236215 2.2352287330281644e-033 0 -0.39370078740157477 F -2.0308610000000002 F 2.9960610000000001 #
face $-1 -1 $-1 $295 $238 $2 $-1 $296 forward single #
loop $-1 -1 $-1 $152 $278 $192 #
cone-surface $-1 -1 $-1 5.2451481478353848e-016 -1.4483922772724662 0.62499999999999978 -4.2309991883724873e-016 1 8.064306547028498e-017 0.19 8.0388984579077252e-017 -3.2160174617103066e-034 1 I I 0 1 0.19 reversed I I I I #
coedge $-1 -1 $-1 $297 $195 $250 $298 forward $143 $-1 #
edge $-1 -1 $-1 $252 -0.16002 $231 4.0787585103475902e-032 $195 $299 forward @7 unknown #
coedge $-1 -1 $-1 $198 $221 $248 $298 reversed $100 $-1 #
vertex $-1 -1 $-1 $199 $300 #
vertex $-1 -1 $-1 $298 $301 #
straight-curve $-1 -1 $-1 -0.48078740157480288 -0.45125984251968548 0.062999999999999987 -0.27838849653013714 0.27838849653013642 0 I I #
coedge $-1 -1 $-1 $215 $280 $200 $255 forward $274 $-1 #
edge $-1 -1 $-1 $282 7.2204320706152329e-031 $217 1.5707963267948952 $254 $302 forward @7 unknown #
vertex $-1 -1 $-1 $260 $303 #
straight-curve $-1 -1 $-1 0.59055118110236182 0.53149606299212615 1.1811023622047243 2.2352287330281644e-033 2.410642428784207e-017 -0.39370078740157477 F 0 F 3 #
coedge $-1 -1 $-1 $203 $202 $304 $305 forward $87 $-1 #
coedge $-1 -1 $-1 $237 $236 $202 $260 reversed $238 $-1 #
edge $-1 -1 $-1 $256 -2.25 $306 0.75 $202 $307 forward @7 unknown #
coedge $-1 -1 $-1 $269 $265 $203 $262 forward $193 $-1 #
edge $-1 -1 $-1 $263 -0.3412497326006278 $308 0.34124973260062813 $203 $309 forward @7 unknown #
vertex $-1 -1 $-1 $204 $310 #
straight-curve $-1 -1 $-1 -0.59055118110236249 0.5314960629921256 1.1811023622047243 0.39370078740157477 1.7483827159451283e-016 0 F 0 F 3 #
coedge $-1 -1 $-1 $261 $211 $208 $266 forward $193 $-1 #
edge $-1 -1 $-1 $213 -0.16001999999999983 $263 2.2204460492503131e-016 $208 $311 forward @7 unknown #
coedge $-1 -1 $-1 $312 $297 $210 $268 forward $143 $-1 #
edge $-1 -1 $-1 $275 0.32003999999999999 $270 2.5173999999999999 $267 $313 forward @7 unknown #
coedge $-1 -1 $-1 $211 $261 $312 $314 forward $193 $-1 #
vertex $-1 -1 $-1 $314 $315 #
straight-curve $-1 -1 $-1 -0.49555118110236246 0.46849606299212571 1.0861023622047243 0.27838849653013681 9.5336048535270579e-017 0.27838849653013681 I I #
point $-1 -1 $-1 -0.40055118110236249 0.46849606299212571 1.1811023622047243 #
coedge $-1 -1 $-1 $280 $215 $297 $316 reversed $274 $-1 #
loop $-1 -1 $-1 $-1 $215 $295 #
vertex $-1 -1 $-1 $268 $317 #
straight-curve $-1 -1 $-1 -0.29527559055118141 0.46849606299212587 0.12600000000000003 0.39370078740157477 1.6657477119576723e-016 0 I I #
point $-1 -1 $-1 0.59055118110236182 0.46849606299212621 0.12599999999999997 #
coedge $-1 -1 $-1 $278 $278 $219 $279 reversed $246 $-1 #
edge $-1 -1 $-1 $318 -3.1415926535897931 $318 3.1415926535897931 $219 $319 forward @7 unknown #
coedge $-1 -1 $-1 $254 $273 $221 $281 reversed $274 $-1 #
edge $-1 -1 $-1 $282 -0.75 $320 2.25 $221 $321 forward @7 unknown #
vertex $-1 -1 $-1 $223 $322 #
straight-curve $-1 -1 $-1 0.59055118110236182 0.53149606299212626 0.062999999999999987 6.4754915405375091e-017 -0.39370078740157477 0 F 0 F 2.7000000000000015 #
straight-curve $-1 -1 $-1 0.59055118110236193 -0.53149606299212626 0.062999999999999987 -0.39370078740157477 0 0 F 0 F 2.9999999999999991 #
point $-1 -1 $-1 0.59055118110236193 -0.3414960629921262 0.062999999999999987 #
point $-1 -1 $-1 0.40055118110236193 -0.53149606299212626 0.062999999999999987 #
coedge $-1 -1 $-1 $229 $304 $236 $292 reversed $143 $-1 #
straight-curve $-1 -1 $-1 -0.59055118110236193 -0.53149606299212626 0 -1.9426474621612536e-016 0.39370078740157477 0 F 0 F 2.7000000000000002 #
point $-1 -1 $-1 -0.59055118110236204 -0.3414960629921262 0 #
straight-curve $-1 -1 $-1 -0.40055118110236193 -0.53149606299212626 1.0891676925006918e-032 1.0705402914298143e-032 0 0.39370078740157477 F -1.4960610000000045 F 3.0482610000000019 #
plane-surface $-1 -1 $-1 0.59055118110236193 -0.53149606299212626 0 0 -1 0 0 0 -0.39370078740157477 forward_v I I I I #
edge $-1 -1 $-1 $239 -6.9380266505758987e-016 $306 1.5707963267948952 $236 $323 forward @7 unknown #
point $-1 -1 $-1 -0.59055118110236238 0.40549606299212576 0 #
ellipse-curve $-1 -1 $-1 0.59055118110236193 0.4054960629921262 0.12599999999999997 1 4.4408920985006262e-016 0 1.7483827159451283e-016 1.7483827159451283e-016 -0.12599999999999997 1 F -6.9380266505758987e-016 F 1.5707963267949163 #
face $-1 -1 $-1 $234 $274 $2 $-1 $324 forward single #
cone-surface $-1 -1 $-1 -2.6225740739176924e-016 0.40549606299212593 0.12599999999999997 1 4.4408920985006262e-016 0 1.7483827159451283e-016 1.7483827159451283e-016 -0.12599999999999997 1 I I 0 1 0.12599999999999997 forward I I I I #
coedge $-1 -1 $-1 $267 $248 $273 $316 forward $143 $-1 #
edge $-1 -1 $-1 $252 0.48260000000000014 $320 2.3799600000000005 $248 $325 forward @7 unknown #
straight-curve $-1 -1 $-1 -0.59055118110236249 -0.3414960629921262 1.6058104371447216e-032 -1.0705402914298143e-032 0 -0.39370078740157477 F -3.0482610000000019 F 1.4960610000000045 #
point $-1 -1 $-1 -0.40055118110236193 -0.53149606299212626 0.062999999999999987 #
point $-1 -1 $-1 -0.59055118110236204 -0.3414960629921262 0.062999999999999987 #
ellipse-curve $-1 -1 $-1 0.59055118110236193 0.4054960629921262 0.12599999999999997 1 4.4408920985006262e-016 0 8.7419135797256413e-017 8.7419135797256413e-017 -0.062999999999999987 1 F 7.2204320706152329e-031 F 1.5707963267949376 #
point $-1 -1 $-1 0.59055118110236182 0.53149606299212615 0.12599999999999997 #
coedge $-1 -1 $-1 $287 $312 $258 $305 reversed $143 $-1 #
edge $-1 -1 $-1 $306 0.32003999999999999 $308 2.5173999999999999 $258 $326 forward @7 unknown #
vertex $-1 -1 $-1 $305 $327 #
straight-curve $-1 -1 $-1 -0.29527559055118141 0.53149606299212582 0.12600000000000003 -0.39370078740157477 -1.6657477119576721e-016 0 I I #
vertex $-1 -1 $-1 $262 $328 #
straight-curve $-1 -1 $-1 -0.49555118110236246 0.5314960629921256 1.0861023622047243 -0.27838849653013681 -9.5336048535270566e-017 -0.27838849653013681 I I #
point $-1 -1 $-1 -0.40055118110236249 0.53149606299212571 1.1811023622047243 #
straight-curve $-1 -1 $-1 -0.40055118110236249 0.5314960629921256 1.1811023622047243 0 0.39370078740157477 2.4106424287842067e-017 F -3.230861 F 1.4960610000000005 #
coedge $-1 -1 $-1 $304 $267 $269 $314 reversed $143 $-1 #
straight-curve $-1 -1 $-1 -0.59055118110236249 0.46849606299212571 -3.8575100145404886e-018 1.0705402914298143e-032 -2.410642428784207e-017 0.39370078740157477 F 0 F 3 #
edge $-1 -1 $-1 $308 0 $270 0.16002000000000005 $312 $329 forward @7 unknown #
point $-1 -1 $-1 -0.59055118110236249 0.46849606299212559 0.99110236220472425 #
edge $-1 -1 $-1 $320 7.2204320706152329e-031 $275 1.5707963267948952 $297 $330 forward @7 unknown #
point $-1 -1 $-1 -0.59055118110236249 0.46849606299212571 0.12599999999999997 #
vertex $-1 -1 $-1 $279 $331 #
ellipse-curve $-1 -1 $-1 -2.8652048640247886e-016 0.46849606299212587 0.62499999999999989 -4.2309991883724883e-016 1 8.064306547028498e-017 0.19 8.0388984579077252e-017 -3.2160174617103066e-034 1 I I #
vertex $-1 -1 $-1 $281 $332 #
straight-curve $-1 -1 $-1 0.2952755905511808 0.40549606299212609 0.062999999999999987 -0.39370078740157477 -1.7483827159451283e-016 0 I I #
point $-1 -1 $-1 0.59055118110236193 0.40549606299212632 0.062999999999999987 #
ellipse-curve $-1 -1 $-1 -0.59055118110236238 0.40549606299212571 0.12599999999999997 1 4.4408920985006262e-016 0 1.7483827159451283e-016 1.7483827159451283e-016 -0.12599999999999997 1 F -6.9380266505758987e-016 F 1.5707963267948963 #
cone-surface $-1 -1 $-1 -2.6225740739176924e-016 0.40549606299212593 0.12599999999999997 1 4.4408920985006262e-016 0 8.7419135797256413e-017 8.7419135797256413e-017 -0.062999999999999987 1 I I 0 -1 0.062999999999999987 forward I I I I #
straight-curve $-1 -1 $-1 -0.59055118110236193 -0.53149606299212626 0.062999999999999987 -1.9426474621612536e-016 0.39370078740157477 0 F 0 F 2.7000000000000002 #
straight-curve $-1 -1 $-1 -0.59055118110236249 0.53149606299212571 0 1.0705402914298143e-032 -2.410642428784207e-017 0.39370078740157477 F 0 F 3 #
point $-1 -1 $-1 -0.59055118110236249 0.53149606299212571 0.12599999999999997 #
point $-1 -1 $-1 -0.59055118110236249 0.5314960629921256 0.99110236220472425 #
straight-curve $-1 -1 $-1 -0.59055118110236249 0.5314960629921256 0.99110236220472425 0 -0.39370078740157477 -2.4106424287842067e-017 F -1.4960610000000005 F 3.230861 #
ellipse-curve $-1 -1 $-1 -0.59055118110236238 0.40549606299212571 0.12599999999999997 1 4.4408920985006262e-016 0 8.7419135797256413e-017 8.7419135797256413e-017 -0.062999999999999987 1 F 7.2204320706152329e-031 F 1.5707963267948972 #
point $-1 -1 $-1 -0.19000000000000028 0.46849606299212576 0.62499999999999989 #
point $-1 -1 $-1 -0.59055118110236238 0.40549606299212576 0.062999999999999987 #
End-of-ACIS-data 