400 0 1 0           
7 Unknown 11 ACIS 6.0 NT 24 Fri Dec 07 20:21:57 2001 
25.399999999999999 9.9999999999999995e-007 1e-010 
body $-1 $1 $-1 $-1 #
lump $-1 $-1 $2 $0 #
shell $-1 $-1 $-1 $3 $-1 $1 #
face $-1 $4 $5 $2 $-1 $6 reversed single #
face $-1 $7 $8 $2 $-1 $9 reversed single #
loop $-1 $10 $11 $3 #
cone-surface $-1 0.37415442800640403 1.9640192456788284 0.1875 -6.013894977707193e-016 -1 0 0.14049999999999999 -8.4495224436786065e-017 0 1 I I 0 1 0.14049999999999999 reversed I I I I #
face $-1 $12 $13 $2 $-1 $14 reversed single #
loop $-1 $15 $16 $4 #
plane-surface $-1 0.37415442800640292 0.15750000000000003 0.1875 -6.013894977707193e-016 -1 0 -0.39370078740157477 2.3676751880736976e-016 0 reverse_v I I I I #
loop $-1 $-1 $17 $3 #
coedge $-1 $11 $11 $18 $19 reversed $5 $-1 #
face $-1 $20 $21 $2 $-1 $22 reversed single #
loop $-1 $23 $24 $7 #
cone-surface $-1 0.37415442800640392 1.8390192456788286 0.1875 6.013894977707193e-016 1 0 -0.062499999999999993 3.7586843610669956e-017 0 1 I I 0 1 0.062499999999999993 forward I I I I #
loop $-1 $-1 $25 $4 #
coedge $-1 $16 $16 $24 $26 reversed $8 $-1 #
coedge $-1 $17 $17 $25 $27 reversed $10 $-1 #
coedge $-1 $18 $18 $11 $19 forward $28 $-1 #
edge $-1 $29 $29 $18 $30 forward #
face $-1 $31 $32 $2 $-1 $33 forward single #
loop $-1 $34 $35 $12 #
cone-surface $-1 0.37415442800640275 -1.8390192456788281 0.18749999999999997 0 1 0 -0.062499999999999993 0 0 1 I I 0 1 0.062499999999999993 reversed I I I I #
loop $-1 $-1 $36 $7 #
coedge $-1 $24 $24 $16 $26 forward $13 $-1 #
coedge $-1 $25 $25 $17 $27 forward $15 $-1 #
edge $-1 $37 $37 $24 $38 forward #
edge $-1 $39 $39 $25 $40 forward #
loop $-1 $41 $18 $42 #
vertex $-1 $19 $43 #
intcurve-curve $-1 forward { surfintcur nubs 3 periodic 19 
	0 3 0.069804877516574007 2 0.13960975503314801 2 0.27921951006629603 2 0.46870777437236255 2 
	0.65819603867842913 2 0.81682247846889267 2 0.97544891825935631 2 1.1080118901827594 2 1.2405748621061625 2 
	1.3731378340295655 2 1.5057008059529684 2 1.6643272457434322 2 1.8229536855338959 2 2.0124419498399622 2 
	2.2019302141460289 2 2.3415399691791769 2 2.411344846695751 2 2.481149724212325 3 
	0.51465442800640304 0.35462067020042976 0.1875 
	0.51465442800640304 0.35462067020042976 0.19666074508091522 
	0.5137503381898989 0.3559416920436641 0.20573681186650819 
	0.51032936631662329 0.36082937239590573 0.22322094124697728 
	0.50781383841629002 0.36438790301282464 0.23163153988391869 
	0.49837631777702113 0.37730597409107108 0.25530780781335571 
	0.48947606088693035 0.38891689675573637 0.26903624344369648 
	0.46717800129080245 0.41565805480332801 0.29458956481311599 
	0.4509505444247453 0.43348512175274184 0.30685795892550449 
	0.41441814712095681 0.46853318609498829 0.32359848531697716 
	0.3940733970786271 0.48574637071018212 0.3279999999999999 
	0.35747964785685438 0.51309517028852458 0.32800000000000001 
	0.3387856352415195 0.52562740153280685 0.32484366400930603 
	0.30299534989656485 0.54704084499787009 0.31018097468268874 
	0.28594181600680718 0.55595937790229744 0.29862490004421649 
	0.26096303898839462 0.56805185414541426 0.27235457853511169 
	0.25075678754172287 0.57253913591232608 0.2571014521662206 
	0.23709729565667303 0.57832940284728762 0.22337039866707797 
	0.23365442800640321 0.57968147139010784 0.20489671547551222 
	0.23365442800640321 0.57968147139010784 0.17010328452448781 
	0.23709729565667303 0.57832940284728773 0.15162960133292205 
	0.25075678754172276 0.57253913591232619 0.1178985478337795 
	0.26096303898839451 0.56805185414541426 0.10264542146488838 
	0.28594181600680701 0.55595937790229744 0.076375099955783593 
	0.30299534989656468 0.54704084499787031 0.064819025317311346 
	0.33878563524151933 0.52562740153280707 0.050156335990693988 
	0.35747964785685438 0.51309517028852458 0.046999999999999986 
	0.3940733970786271 0.48574637071018228 0.046999999999999986 
	0.41441814712095665 0.46853318609498829 0.05140151468302287 
	0.45095054442474514 0.43348512175274184 0.068142041074495424 
	0.46717800129080256 0.41565805480332807 0.080410435186883969 
	0.48947606088693041 0.38891689675573637 0.10596375655630351 
	0.49837631777702113 0.37730597409107108 0.11969219218664426 
	0.50781383841629002 0.36438790301282464 0.14336846011608126 
	0.51032936631662329 0.36082937239590562 0.15177905875302267 
	0.5137503381898989 0.35594169204366405 0.16926318813349181 
	0.51465442800640304 0.35462067020042976 0.17833925491908478 
	0.51465442800640304 0.35462067020042976 0.1875 
	8.9858070940411334e-005 
	cone 0.37415442800640403 1.9640192456788284 0.1875 -6.013894977707193e-016 -1 0 0.14049999999999999 -8.4495224436786065e-017 0 1 I I 0 1 0.14049999999999999 reversed I I I I 
	cone 0 0 0 0 0 1 -0.62499999999999989 0 0 1 I I 0 1 0.62499999999999989 forward I I I I 
	nullbs 
	nullbs 
	I I 
	0 
	0 
	0 
	} I I #
face $-1 $44 $45 $2 $-1 $46 forward single #
loop $-1 $-1 $47 $20 #
cone-surface $-1 0 0 0.36718749999999994 0 0 -1 -0.61718749999999989 0 0 1 I I 0.70710678118654846 0.70710678118654646 0.61718749999999989 forward I I I I #
loop $-1 $-1 $48 $12 #
coedge $-1 $35 $35 $49 $50 reversed $21 $-1 #
coedge $-1 $36 $36 $51 $52 reversed $23 $-1 #
vertex $-1 $26 $53 #
ellipse-curve $-1 0.37415442800640292 0.15750000000000008 0.1875 6.013894977707193e-016 1 0 -0.062499999999999993 3.7586843610669956e-017 0 1 I I #
vertex $-1 $27 $54 #
ellipse-curve $-1 0.37415442800640292 0.15750000000000003 0.1875 6.013894977707193e-016 1 0 0.14049999999999999 -8.4495224436786065e-017 0 1 I I #
loop $-1 $55 $49 $42 #
face $-1 $-1 $28 $2 $-1 $56 forward single #
point $-1 0.51465442800640304 0.35462067020042976 0.1875 #
face $-1 $57 $58 $2 $-1 $59 reversed single #
loop $-1 $-1 $60 $31 #
plane-surface $-1 0.056818181818181768 3.5762373735241262e-017 0.375 0 0 1 0.39370078740157477 0 0 forward_v I I I I #
coedge $-1 $61 $62 $63 $64 forward $32 $-1 #
coedge $-1 $48 $48 $65 $66 reversed $34 $-1 #
coedge $-1 $49 $49 $35 $50 forward $41 $-1 #
edge $-1 $67 $67 $49 $68 forward #
coedge $-1 $51 $51 $36 $52 forward $69 $-1 #
edge $-1 $70 $70 $51 $71 forward #
point $-1 0.43665442800640292 0.15750000000000003 0.1875 #
point $-1 0.51465442800640293 0.15749999999999992 0.1875 #
loop $-1 $-1 $72 $42 #
cone-surface $-1 0 0 0 0 0 1 -0.62499999999999989 0 0 1 I I 0 1 0.62499999999999989 forward I I I I #
face $-1 $73 $74 $2 $-1 $75 forward single #
loop $-1 $76 $65 $44 #
plane-surface $-1 -0.39999999999999997 -0.032499999999999786 0.375 0 -1 0 0 0 -0.39370078740157477 forward_v I I I I #
coedge $-1 $77 $78 $62 $79 reversed $45 $-1 #
coedge $-1 $80 $47 $72 $81 forward $32 $-1 #
coedge $-1 $47 $80 $60 $79 forward $32 $-1 #
coedge $-1 $82 $83 $47 $64 reversed $84 $-1 #
edge $-1 $85 $86 $63 $87 forward #
coedge $-1 $65 $65 $48 $66 forward $58 $-1 #
edge $-1 $88 $88 $65 $89 forward #
vertex $-1 $50 $90 #
intcurve-curve $-1 forward { surfintcur nubs 3 periodic 17 
	0 3 0.058988297962679875 2 0.11797659592535975 2 0.19108551822429501 2 0.26419444052323027 2 
	0.34301554855366645 2 0.42183665658410263 2 0.48174384932980674 2 0.54165104207551085 2 0.60155823482121495 2 
	0.66146542756691906 2 0.74028653559735536 2 0.81910764362779154 2 0.89221656592672682 2 0.96532548822566211 2 
	1.0243137861883418 2 1.0833020841510217 3 
	0.31165442800640281 -0.54175318873450284 0.18749999999999997 
	0.31165442800640281 -0.54175318873450284 0.19524124645179522 
	0.31318768994501234 -0.5408793211822529 0.20341306353508651 
	0.31915639101281451 -0.53737897963328218 0.21824710091435548 
	0.32358235437085447 -0.53474495678995959 0.22491135011050922 
	0.33447866447550306 -0.52801445614687237 0.23659439676563188 
	0.34202243166223495 -0.52320063026754027 0.24180466147959537 
	0.35802225341066946 -0.51238492336923114 0.24850175552953788 
	0.36646923247458907 -0.50637669095171212 0.24999999999999997 
	0.38244008737874641 -0.49444067129924363 0.24999999999999997 
	0.39118935043024744 -0.4875508930120323 0.24827568469579647 
	0.40732625220296426 -0.47415219648665408 0.24119825379587226 
	0.41472287297139443 -0.46764703732439827 0.23585851086413084 
	0.42512191163200658 -0.45818470342136569 0.2242923582476489 
	0.4293081478938795 -0.45424166199311716 0.21791200403781091 
	0.43508225220547925 -0.44871417093342758 0.20345689849915224 
	0.43665442800640275 -0.44716653553502989 0.19536183631833384 
	0.43665442800640275 -0.44716653553502989 0.1796381636816661 
	0.43508225220547925 -0.44871417093342758 0.17154310150084773 
	0.4293081478938795 -0.45424166199311716 0.15708799596218906 
	0.42512191163200658 -0.45818470342136569 0.15070764175235107 
	0.41472287297139443 -0.46764703732439827 0.13914148913586913 
	0.40732625220296431 -0.47415219648665408 0.1338017462041278 
	0.39118935043024755 -0.4875508930120323 0.12672431530420353 
	0.38244008737874641 -0.49444067129924363 0.12499999999999997 
	0.36646923247458907 -0.50637669095171212 0.12499999999999997 
	0.3580222534106694 -0.51238492336923114 0.12649824447046207 
	0.34202243166223489 -0.52320063026754027 0.13319533852040458 
	0.33447866447550306 -0.52801445614687237 0.13840560323436807 
	0.32358235437085447 -0.53474495678995959 0.15008864988949072 
	0.31915639101281451 -0.53737897963328218 0.15675289908564444 
	0.31318768994501234 -0.54087932118225301 0.17158693646491333 
	0.31165442800640281 -0.54175318873450284 0.1797587535482047 
	0.31165442800640281 -0.54175318873450284 0.18749999999999997 
	6.3308886267512678e-005 
	cone 0.37415442800640275 -1.8390192456788281 0.18749999999999997 0 1 0 -0.062499999999999993 0 0 1 I I 0 1 0.062499999999999993 reversed I I I I 
	cone 0 0 0 0 0 1 -0.62499999999999989 0 0 1 I I 0 1 0.62499999999999989 forward I I I I 
	nullbs 
	nullbs 
	I I 
	0 
	0 
	0 
	} I I #
loop $-1 $84 $51 $73 #
vertex $-1 $52 $91 #
ellipse-curve $-1 0.37415442800640286 0.032500000000000133 0.1875 6.013894977707193e-016 1 0 -0.062499999999999993 3.7586843610669956e-017 0 1 I I #
coedge $-1 $92 $93 $61 $81 reversed $55 $-1 #
face $-1 $94 $69 $2 $-1 $95 reversed single #
loop $-1 $-1 $96 $57 #
cone-surface $-1 0 0 0.0078124999999999991 0 0 -1 -0.25781249999999994 0 0 1 I I -0.70710678118654746 -0.70710678118654768 0.25781249999999994 forward I I I I #
loop $-1 $-1 $97 $44 #
coedge $-1 $98 $60 $99 $100 forward $45 $-1 #
coedge $-1 $60 $101 $82 $102 forward $45 $-1 #
edge $-1 $103 $85 $60 $104 forward #
coedge $-1 $62 $61 $97 $105 forward $32 $-1 #
edge $-1 $86 $106 $72 $107 forward #
coedge $-1 $108 $63 $78 $102 reversed $84 $-1 #
coedge $-1 $63 $109 $92 $110 reversed $84 $-1 #
loop $-1 $-1 $63 $73 #
vertex $-1 $79 $111 #
vertex $-1 $110 $112 #
intcurve-curve $-1 forward { exactcur nurbs 2 open 2 
	0 2 0.070602732990267925 2 
	0.60850771615896515 0.032499999999999869 0.375 1 
	0.61623204226089134 0.032499999999999869 0.36728666742949684 1.0015161724084627 
	0.62415442800640286 0.032499999999999862 0.359375 1.0028734796590841 
	0 
	null_surface 
	null_surface 
	nullbs 
	nullbs 
	I I 
	0 
	0 
	0 
	F 1 F 0 } I I #
vertex $-1 $66 $113 #
ellipse-curve $-1 0.37415442800640275 -0.032499999999999786 0.18749999999999997 0 -1 0 -0.062499999999999993 0 0 1 I I #
point $-1 0.31165442800640281 -0.54175318873450284 0.18749999999999997 #
point $-1 0.31165442800640286 0.032500000000000057 0.1875 #
coedge $-1 $114 $72 $83 $110 forward $55 $-1 #
coedge $-1 $72 $114 $115 $116 forward $55 $-1 #
face $-1 $117 $118 $2 $-1 $119 reversed single #
plane-surface $-1 0.76289540966457126 0.032499999999999786 0.375 6.013894977707193e-016 1 0 0 0 0.39370078740157477 forward_v I I I I #
coedge $-1 $120 $121 $122 $123 forward $74 $-1 #
coedge $-1 $115 $99 $80 $105 reversed $76 $-1 #
coedge $-1 $124 $77 $125 $126 reversed $45 $-1 #
coedge $-1 $97 $127 $77 $100 reversed $76 $-1 #
edge $-1 $103 $128 $77 $129 forward #
coedge $-1 $78 $130 $131 $132 reversed $45 $-1 #
edge $133 $134 $85 $78 $135 forward #
vertex $-1 $100 $136 #
ellipse-curve $-1 0 0 0.375 0 0 -1 -0.60937499999999989 0 0 1 I I #
edge $-1 $106 $103 $97 $137 forward #
vertex $-1 $105 $138 #
ellipse-curve $-1 0 0 0.359375 0 0 1 -0.62499999999999989 0 0 1 I I #
coedge $-1 $139 $82 $140 $141 reversed $84 $-1 #
coedge $-1 $83 $142 $143 $144 reversed $84 $-1 #
edge $-1 $86 $145 $92 $146 forward #
point $-1 0.60850771615896526 0.032499999999999883 0.375 #
point $-1 0.62415442800640286 0.032499999999999862 0.359375 #
point $-1 0.31165442800640281 -0.032499999999999786 0.18749999999999997 #
coedge $-1 $93 $92 $147 $148 reversed $55 $-1 #
coedge $-1 $149 $97 $93 $116 reversed $76 $-1 #
edge $150 $151 $106 $93 $152 forward #
face $-1 $153 $154 $2 $-1 $155 forward single #
loop $-1 $-1 $156 $94 #
plane-surface $-1 0.056818181818181768 3.5762373735241262e-017 0 0 0 1 0.39370078740157477 0 0 forward_v I I I I #
coedge $-1 $157 $96 $156 $158 forward $74 $-1 #
coedge $-1 $96 $157 $159 $160 forward $74 $-1 #
coedge $-1 $161 $162 $96 $123 reversed $163 $-1 #
edge $-1 $164 $165 $122 $166 forward #
coedge $-1 $167 $98 $168 $169 forward $45 $-1 #
coedge $-1 $170 $171 $98 $126 forward $172 $-1 #
edge $-1 $173 $128 $98 $174 forward #
coedge $-1 $99 $175 $170 $176 reversed $76 $-1 #
vertex $-1 $126 $177 #
straight-curve $-1 -0.1715909090909091 -0.032499999999999786 0.375 -0.39370078740157477 0 0 I I #
coedge $-1 $101 $167 $178 $179 forward $45 $-1 #
coedge $-1 $180 $140 $101 $132 forward $181 $-1 #
edge $-1 $134 $182 $101 $183 forward #
convexity-sys-attrib $-1 $-1 $-1 $102 #
vertex $-1 $102 $184 #
straight-curve $-1 0.40985679574137646 0.032499999999999994 0.375 0.39370078740157477 -2.3676751880736976e-016 0 I I #
point $-1 0.60850771615896526 -0.032499999999999786 0.375 #
intcurve-curve $-1 forward { exactcur nurbs 2 open 2 
	1.2770296513101109 2 1.347632384300381 2 
	0.62415442800640297 -0.032499999999999786 0.359375 1.0028734796590826 
	0.61623204226089145 -0.032499999999999779 0.36728666742949667 1.0015161724084618 
	0.60850771615896515 -0.032499999999999779 0.375 1 
	0 
	null_surface 
	null_surface 
	nullbs 
	nullbs 
	I I 
	0 
	0 
	0 
	F 1 F 0 } I I #
point $-1 0.62415442800640297 -0.032499999999999786 0.359375 #
coedge $-1 $185 $108 $186 $187 reversed $84 $-1 #
coedge $-1 $131 $188 $108 $141 forward $181 $-1 #
edge $-1 $189 $134 $108 $190 forward #
coedge $-1 $109 $185 $191 $192 reversed $84 $-1 #
coedge $-1 $193 $147 $109 $144 forward $154 $-1 #
edge $-1 $145 $194 $109 $195 forward #
vertex $-1 $144 $196 #
straight-curve $-1 0.62415442800640286 0.032499999999999862 0 0 0 -0.39370078740157477 I I #
coedge $-1 $143 $197 $114 $148 forward $154 $-1 #
edge $-1 $151 $145 $114 $198 forward #
coedge $-1 $199 $115 $197 $200 reversed $76 $-1 #
convexity-sys-attrib $-1 $-1 $-1 $116 #
vertex $-1 $116 $201 #
straight-curve $-1 0.62415442800640297 -0.032499999999999786 0 0 0 0.39370078740157477 I I #
face $-1 $202 $203 $2 $-1 $204 forward single #
loop $-1 $-1 $143 $117 #
cone-surface $-1 0 0 0.0078124999999999991 0 0 -1 -0.61718749999999989 0 0 1 I I -0.70710678118654835 0.70710678118654668 0.61718749999999989 forward I I I I #
coedge $-1 $205 $191 $120 $158 reversed $118 $-1 #
coedge $-1 $121 $120 $185 $206 forward $74 $-1 #
edge $-1 $165 $207 $156 $208 forward #
coedge $-1 $186 $209 $121 $160 reversed $210 $-1 #
edge $-1 $211 $164 $159 $212 forward #
coedge $-1 $213 $122 $209 $214 reversed $163 $-1 #
coedge $-1 $122 $215 $205 $216 reversed $163 $-1 #
loop $-1 $-1 $122 $217 #
vertex $-1 $123 $218 #
vertex $-1 $216 $219 #
intcurve-curve $-1 forward { exactcur nurbs 2 open 2 
	1.7808341513729962 2 1.7877533823908704 2 
	-0.24787849846245233 0.03250000000000039 0.015624999999999998 1.0553097344868303 
	-0.25551523491634043 0.032500000000000397 0.008053068938623285 1.0277623171230563 
	-0.26362926739078113 0.032500000000000404 -1.3659239968321315e-018 1 
	0 
	null_surface 
	null_surface 
	nullbs 
	nullbs 
	I I 
	0 
	0 
	0 
	F 1 F 0 } I I #
coedge $-1 $130 $124 $220 $221 forward $45 $-1 #
coedge $-1 $222 $223 $124 $169 reversed $224 $-1 #
edge $-1 $173 $225 $124 $129 forward #
coedge $-1 $226 $125 $127 $176 forward $172 $-1 #
coedge $-1 $125 $226 $222 $227 forward $172 $-1 #
loop $-1 $-1 $171 $228 #
vertex $-1 $169 $229 #
ellipse-curve $-1 0 0 0.375 0 0 1 -0.265625 0 0 1 I I #
coedge $-1 $127 $230 $231 $232 reversed $76 $-1 #
edge $-1 $128 $233 $127 $234 forward #
point $-1 0.26362926739078119 -0.032499999999999786 0.375 #
coedge $-1 $215 $213 $130 $179 reversed $163 $-1 #
edge $235 $236 $182 $130 $135 forward #
coedge $-1 $188 $131 $213 $237 forward $181 $-1 #
loop $-1 $-1 $140 $202 #
vertex $-1 $132 $238 #
ellipse-curve $-1 0 0 0.375 0 0 1 -0.265625 0 0 1 I I #
point $-1 0.26362926739078113 0.032500000000000091 0.375 #
coedge $-1 $142 $139 $157 $206 reversed $84 $-1 #
coedge $-1 $239 $159 $139 $187 forward $210 $-1 #
edge $-1 $211 $189 $186 $240 forward #
coedge $-1 $140 $180 $239 $241 forward $181 $-1 #
vertex $-1 $141 $242 #
intcurve-curve $-1 forward { exactcur nurbs 2 open 2 
	1.7808341513730008 2 1.7877533823908704 2 
	0.24787849846245233 0.032500000000000098 0.359375 1.0553097344867939 
	0.25551523491634565 0.032500000000000098 0.36694693106138193 1.0277623171230379 
	0.26362926739078113 0.032500000000000091 0.375 1 
	0 
	null_surface 
	null_surface 
	nullbs 
	nullbs 
	I I 
	0 
	0 
	0 
	F 1 F 0 } I I #
coedge $-1 $156 $243 $142 $192 forward $118 $-1 #
edge $244 $194 $207 $191 $245 forward #
coedge $-1 $197 $143 $243 $246 forward $154 $-1 #
vertex $-1 $192 $247 #
intcurve-curve $-1 forward { exactcur nurbs 2 open 2 
	1.2770296513405628 2 1.3476323843003803 2 
	0.62415442800640286 0.032499999999999862 0.015624999999999998 1.002873479630469 
	0.61623204226105521 0.032499999999999869 0.007713332570669096 1.0015161723933279 
	0.60850771615896526 0.032499999999999876 0 1 
	0 
	null_surface 
	null_surface 
	nullbs 
	nullbs 
	I I 
	0 
	0 
	0 
	F 1 F 0 } I I #
point $-1 0.62415442800640286 0.032499999999999862 0.015624999999999998 #
coedge $-1 $147 $193 $149 $200 forward $154 $-1 #
ellipse-curve $-1 0 0 0.015624999999999998 0 0 -1 -0.62499999999999989 0 0 1 I I #
coedge $-1 $230 $149 $248 $249 reversed $76 $-1 #
edge $-1 $250 $151 $149 $251 forward #
point $-1 0.62415442800640297 -0.032499999999999786 0.015624999999999998 #
face $-1 $217 $181 $2 $-1 $252 forward single #
loop $-1 $-1 $253 $153 #
cone-surface $-1 0 0 0.0078124999999999991 0 0 -1 -0.25781249999999994 0 0 1 I I -0.70710678118654746 -0.70710678118654768 0.25781249999999994 forward I I I I #
coedge $-1 $254 $156 $162 $216 forward $118 $-1 #
edge $-1 $207 $211 $185 $255 forward #
vertex $-1 $158 $256 #
ellipse-curve $-1 0 0 0 0 0 -1 -0.265625 0 0 1 I I #
coedge $-1 $159 $239 $161 $214 forward $210 $-1 #
loop $-1 $-1 $159 $257 #
vertex $-1 $187 $258 #
ellipse-curve $-1 0 0 0.015624999999999998 0 0 1 -0.24999999999999997 0 0 1 I I #
coedge $-1 $178 $161 $180 $237 reversed $163 $-1 #
edge $259 $260 $164 $209 $261 forward #
coedge $-1 $162 $178 $262 $263 forward $163 $-1 #
edge $-1 $165 $264 $205 $245 forward #
face $-1 $228 $163 $2 $-1 $95 reversed single #
point $-1 -0.24787849846245233 0.03250000000000039 0.015624999999999998 #
point $-1 -0.26362926739078113 0.032500000000000404 0 #
coedge $-1 $265 $262 $167 $221 reversed $266 $-1 #
edge $-1 $225 $236 $167 $267 forward #
coedge $-1 $268 $168 $171 $227 reversed $224 $-1 #
coedge $-1 $168 $269 $265 $270 reversed $224 $-1 #
loop $-1 $-1 $271 $272 #
vertex $-1 $221 $273 #
coedge $-1 $171 $170 $274 $275 forward $172 $-1 #
edge $-1 $276 $173 $222 $277 forward #
face $-1 $272 $172 $2 $-1 $278 forward single #
point $-1 -0.26362926739078119 -0.032499999999999786 0.375 #
coedge $-1 $175 $199 $253 $279 reversed $76 $-1 #
coedge $-1 $280 $274 $175 $232 forward $281 $-1 #
edge $282 $233 $283 $231 $284 forward #
vertex $-1 $232 $285 #
intcurve-curve $-1 forward { exactcur nurbs 2 open 2 
	0 2 0.0069192310211952648 2 
	0.26362926739078119 -0.032499999999999786 0.375 1 
	0.25551523491255118 -0.032499999999999786 0.36694693105761589 1.0277623171363814 
	0.24787849846245238 -0.032499999999999786 0.359375 1.0553097345132745 
	0 
	null_surface 
	null_surface 
	nullbs 
	nullbs 
	I I 
	0 
	0 
	0 
	F 1 F 0 } I I #
convexity-sys-attrib $-1 $-1 $-1 $179 #
vertex $-1 $179 $286 #
edge $-1 $182 $260 $213 $287 forward #
point $-1 -0.26362926739078113 0.032500000000000404 0.375 #
coedge $-1 $209 $186 $188 $241 reversed $210 $-1 #
straight-curve $-1 0.24787849846245233 0.032500000000000098 0 0 0 0.39370078740157477 I I #
edge $-1 $260 $189 $239 $288 forward #
point $-1 0.24787849846245233 0.032500000000000098 0.359375 #
coedge $-1 $191 $248 $193 $246 reversed $118 $-1 #
convexity-sys-attrib $-1 $-1 $-1 $192 #
straight-curve $-1 0.40985679574137646 0.032499999999999994 0 -0.39370078740157477 2.3676751880736976e-016 0 I I #
edge $-1 $194 $250 $243 $289 forward #
point $-1 0.60850771615896526 0.032499999999999883 0 #
coedge $-1 $243 $290 $199 $249 forward $118 $-1 #
edge $291 $292 $250 $248 $293 forward #
vertex $-1 $246 $294 #
intcurve-curve $-1 forward { exactcur nurbs 2 open 2 
	0 2 0.070602732959655412 2 
	0.60850771615896526 -0.032499999999999786 1.3659239968321315e-018 1 
	0.6162320422610581 -0.032499999999999786 0.0077133325706720659 1.001516172393508 
	0.62415442800640297 -0.032499999999999786 0.015624999999999998 1.0028734796308105 
	0 
	null_surface 
	null_surface 
	nullbs 
	nullbs 
	I I 
	0 
	0 
	0 
	F 1 F 0 } I I #
cone-surface $-1 0 0 0.36718749999999994 0 0 1 -0.25781249999999994 0 0 1 I I -0.70710678118654757 -0.70710678118654757 0.25781249999999994 forward I I I I #
coedge $-1 $295 $296 $230 $279 forward $203 $-1 #
coedge $-1 $297 $205 $298 $299 forward $118 $-1 #
intcurve-curve $-1 forward { exactcur nurbs 2 open 2 
	0 2 0.0069192310211953368 2 
	0.26362926739078113 0.032500000000000084 -1.3659239968321315e-018 1 
	0.25551523491255113 0.032500000000000091 0.0080530689423841048 1.0277623171363814 
	0.24787849846245233 0.032500000000000098 0.015624999999999998 1.0553097345132743 
	0 
	null_surface 
	null_surface 
	nullbs 
	nullbs 
	I I 
	0 
	0 
	0 
	F 1 F 0 } I I #
point $-1 0.26362926739078113 0.032500000000000091 0 #
face $-1 $42 $210 $2 $-1 $300 reversed single #
point $-1 0.24787849846245233 0.032500000000000098 0.015624999999999998 #
convexity-sys-attrib $-1 $-1 $-1 $214 #
vertex $-1 $214 $301 #
straight-curve $-1 -0.24787849846245233 0.03250000000000039 0 0 0 -0.39370078740157477 I I #
coedge $-1 $220 $298 $215 $263 reversed $266 $-1 #
edge $-1 $236 $264 $262 $302 forward #
vertex $-1 $216 $303 #
coedge $-1 $298 $220 $223 $270 forward $266 $-1 #
loop $-1 $-1 $298 $304 #
ellipse-curve $-1 -0.39999999999999997 0 0.375 0 0 -1 0 0.032499999999999959 0 1 I I #
coedge $-1 $271 $222 $305 $306 reversed $224 $-1 #
coedge $-1 $223 $271 $297 $307 reversed $224 $-1 #
edge $-1 $225 $308 $223 $309 forward #
coedge $-1 $269 $268 $310 $311 reversed $224 $-1 #
face $-1 $304 $224 $2 $-1 $59 reversed single #
point $-1 -0.39999999999999997 -0.032499999999999786 0.375 #
coedge $-1 $231 $305 $226 $275 reversed $281 $-1 #
edge $-1 $233 $276 $274 $312 forward #
vertex $-1 $227 $313 #
intcurve-curve $-1 forward { exactcur nurbs 2 open 2 
	1.7808341513730022 2 1.7877533823908718 2 
	-0.24787849846245238 -0.032499999999999786 0.359375 1.055309734486793 
	-0.25551523491634581 -0.032499999999999786 0.36694693106138199 1.0277623171230374 
	-0.26362926739078113 -0.032499999999999786 0.375 1 
	0 
	null_surface 
	null_surface 
	nullbs 
	nullbs 
	I I 
	0 
	0 
	0 
	F 1 F 0 } I I #
cone-surface $-1 0 0 0.36718749999999994 0 0 1 -0.25781249999999994 0 0 1 I I -0.70710678118654757 -0.70710678118654757 0.25781249999999994 forward I I I I #
edge $-1 $283 $292 $230 $314 forward #
coedge $-1 $305 $231 $296 $315 reversed $281 $-1 #
loop $-1 $-1 $280 $316 #
convexity-sys-attrib $-1 $-1 $-1 $232 #
vertex $-1 $279 $317 #
straight-curve $-1 0.24787849846245238 -0.032499999999999786 0 0 0 -0.39370078740157477 I I #
point $-1 0.24787849846245238 -0.032499999999999786 0.359375 #
point $-1 -0.39999999999999997 0.03250000000000048 0.375 #
intcurve-curve $-1 forward { exactcur nurbs 2 open 2 
	0 2 0.0069192310211953238 2 
	-0.26362926739078113 0.032500000000000397 0.375 1 
	-0.25551523491255113 0.03250000000000039 0.36694693105761589 1.0277623171363814 
	-0.24787849846245233 0.03250000000000039 0.359375 1.0553097345132743 
	0 
	null_surface 
	null_surface 
	nullbs 
	nullbs 
	I I 
	0 
	0 
	0 
	F 1 F 0 } I I #
ellipse-curve $-1 0 0 0.359375 0 0 -1 -0.24999999999999997 0 0 1 I I #
ellipse-curve $-1 0 0 0 0 0 1 -0.60937499999999989 0 0 1 I I #
coedge $-1 $248 $297 $295 $318 reversed $118 $-1 #
convexity-sys-attrib $-1 $-1 $-1 $249 #
vertex $-1 $249 $319 #
straight-curve $-1 -0.1715909090909091 -0.032499999999999786 0 0.39370078740157477 0 0 I I #
point $-1 0.60850771615896526 -0.032499999999999786 0 #
coedge $-1 $310 $253 $290 $318 forward $203 $-1 #
coedge $-1 $253 $310 $280 $315 forward $203 $-1 #
coedge $-1 $290 $254 $269 $307 forward $118 $-1 #
coedge $-1 $262 $265 $254 $299 reversed $266 $-1 #
edge $-1 $264 $308 $254 $320 forward #
cone-surface $-1 0 0 0 0 0 1 -0.24999999999999997 0 0 1 I I 0 1 0.24999999999999997 forward I I I I #
point $-1 -0.24787849846245233 0.03250000000000039 0.359375 #
straight-curve $-1 -0.39999999999999997 0.03250000000000048 0.375 0 0 -0.39370078740157477 I I #
point $-1 -0.39999999999999997 0.03250000000000048 4.3709567898628207e-017 #
face $-1 $316 $266 $2 $-1 $321 reversed single #
coedge $-1 $274 $280 $268 $306 forward $281 $-1 #
edge $-1 $322 $276 $305 $323 forward #
edge $324 $308 $325 $297 $293 forward #
vertex $-1 $299 $326 #
straight-curve $-1 -0.39999999999999997 -0.032499999999999786 0.375 0 0 -0.39370078740157477 I I #
coedge $-1 $296 $295 $271 $311 forward $203 $-1 #
edge $-1 $325 $322 $271 $327 forward #
ellipse-curve $-1 0 0 0.359375 0 0 -1 -0.24999999999999997 0 0 1 I I #
point $-1 -0.24787849846245238 -0.032499999999999786 0.359375 #
intcurve-curve $-1 forward { exactcur nurbs 2 open 2 
	1.7808341513729999 2 1.787753382390872 2 
	0.24787849846245238 -0.032499999999999786 0.015624999999999998 1.0553097344868139 
	0.25551523491634287 -0.032499999999999786 0.0080530689386208755 1.0277623171230479 
	0.26362926739078113 -0.032499999999999786 -1.3659239968321315e-018 1 
	0 
	null_surface 
	null_surface 
	nullbs 
	nullbs 
	I I 
	0 
	0 
	0 
	F 1 F 0 } I I #
edge $-1 $322 $283 $280 $328 forward #
face $-1 $257 $281 $2 $-1 $300 reversed single #
point $-1 0.24787849846245238 -0.032499999999999786 0.015624999999999998 #
edge $-1 $292 $325 $290 $329 forward #
point $-1 0.26362926739078119 -0.032499999999999786 0 #
ellipse-curve $-1 -0.39999999999999997 0 0 0 0 1 0 0.032499999999999959 0 1 I I #
cone-surface $-1 -0.39999999999999997 0 0.375 0 0 -1 0 0.032499999999999959 0 1 I I 0 1 0.032499999999999959 forward I I I I #
vertex $-1 $306 $330 #
straight-curve $-1 -0.24787849846245238 -0.032499999999999786 0 0 0 0.39370078740157477 I I #
convexity-sys-attrib $-1 $-1 $-1 $307 #
vertex $-1 $318 $331 #
point $-1 -0.39999999999999997 -0.032499999999999786 4.3709567898628207e-017 #
intcurve-curve $-1 forward { exactcur nurbs 2 open 2 
	0 2 0.0069192310211952353 2 
	-0.26362926739078113 -0.032499999999999786 -1.3659239968321315e-018 1 
	-0.25551523491255113 -0.032499999999999786 0.0080530689423841013 1.0277623171363814 
	-0.24787849846245238 -0.032499999999999786 0.015624999999999998 1.0553097345132743 
	0 
	null_surface 
	null_surface 
	nullbs 
	nullbs 
	I I 
	0 
	0 
	0 
	F 1 F 0 } I I #
ellipse-curve $-1 0 0 0.015624999999999998 0 0 1 -0.24999999999999997 0 0 1 I I #
ellipse-curve $-1 0 0 0 0 0 -1 -0.265625 0 0 1 I I #
point $-1 -0.24787849846245238 -0.032499999999999786 0.015624999999999998 #
point $-1 -0.26362926739078119 -0.032499999999999786 0 #
End-of-ACIS-data 