400 0 1 0           
8 Inventor 11 ACIS 6.0 NT 24 Fri Jan 16 18:14:22 2004 
25.399999999999999 9.9999999999999995e-007 1e-010 
body $-1 $1 $-1 $-1 #
lump $-1 $-1 $2 $0 #
shell $-1 $-1 $-1 $3 $-1 $1 #
face $-1 $4 $5 $2 $-1 $6 reversed single #
face $-1 $7 $8 $2 $-1 $9 reversed single #
loop $-1 $10 $11 $3 #
cone-surface $-1 -1.1484644777237125 3.9370039370059051 0.24999999999999997 0 -1 0 0.15624999999999997 0 0 1 I I 0 1 0.15624999999999997 reversed I I I I #
face $-1 $12 $13 $2 $-1 $14 reversed single #
loop $-1 $15 $16 $4 #
cone-surface $-1 1.1015355222762873 3.9370039370059051 0.24999999999999997 0 -1 0 0.15624999999999997 0 0 1 I I 0 1 0.15624999999999997 reversed I I I I #
loop $-1 $-1 $17 $3 #
coedge $-1 $11 $11 $18 $19 reversed $5 $-1 #
face $-1 $20 $21 $2 $-1 $22 reversed single #
loop $-1 $23 $24 $7 #
plane-surface $-1 0.0054902492354016799 1.5748031496062991 0.099999999999999992 0 0 -1 0.39370078740157477 0 0 reverse_v I I I I #
loop $-1 $-1 $25 $4 #
coedge $-1 $16 $16 $26 $27 reversed $8 $-1 #
coedge $-1 $17 $17 $28 $29 reversed $10 $-1 #
coedge $-1 $18 $18 $11 $19 forward $30 $-1 #
edge $-1 $31 $31 $18 $32 forward #
face $-1 $33 $34 $2 $-1 $35 reversed single #
loop $-1 $36 $37 $12 #
cone-surface $-1 0.0054902492354016799 1.5748031496062991 0.29999999999999999 0 0 1 0.6875 0 0 1 I I 0 1 0.6875 reversed I I I I #
loop $-1 $-1 $38 $7 #
coedge $-1 $24 $24 $39 $40 forward $13 $-1 #
coedge $-1 $25 $25 $41 $42 reversed $15 $-1 #
coedge $-1 $26 $26 $16 $27 forward $43 $-1 #
edge $-1 $44 $44 $26 $45 forward #
coedge $-1 $28 $28 $17 $29 forward $46 $-1 #
edge $-1 $47 $47 $28 $48 forward #
loop $-1 $49 $18 $50 #
vertex $-1 $19 $51 #
ellipse-curve $-1 -1.1484644777237125 0.55118110236220486 0.24999999999999997 0 -1 0 0.15624999999999997 0 0 1 I I #
face $-1 $50 $52 $2 $-1 $53 forward single #
loop $-1 $54 $55 $20 #
cone-surface $-1 0.0054902492354016799 1.5748031496062991 -3.4370039370059056 0 0 1 0.56249999999999989 0 0 1 I I 0 1 0.56249999999999989 reversed I I I I #
loop $-1 $-1 $39 $12 #
coedge $-1 $37 $37 $56 $57 reversed $21 $-1 #
coedge $-1 $38 $38 $58 $59 reversed $23 $-1 #
coedge $-1 $39 $39 $24 $40 reversed $36 $-1 #
edge $-1 $60 $60 $24 $61 forward #
coedge $-1 $41 $41 $25 $42 forward $62 $-1 #
edge $-1 $63 $63 $41 $64 forward #
loop $-1 $65 $26 $66 #
vertex $-1 $27 $67 #
ellipse-curve $-1 1.1015355222762873 0.55118110236220486 0.24999999999999997 0 -1 0 0.15624999999999997 0 0 1 I I #
loop $-1 $62 $28 $68 #
vertex $-1 $29 $69 #
ellipse-curve $-1 -1.1484644777237125 0 0.24999999999999997 0 1 0 0.15624999999999997 0 0 1 I I #
loop $-1 $-1 $70 $50 #
face $-1 $71 $30 $2 $-1 $72 forward single #
point $-1 -1.3047144777237125 0.55118110236220486 0.24999999999999997 #
loop $-1 $-1 $73 $33 #
plane-surface $-1 -1.4945097507645981 0 0 -1 -6.344131569286608e-016 0 0 0 0.39370078740157477 forward_v I I I I #
loop $-1 $-1 $58 $20 #
coedge $-1 $55 $55 $74 $75 reversed $34 $-1 #
coedge $-1 $56 $56 $37 $57 forward $76 $-1 #
edge $-1 $77 $77 $56 $78 forward #
coedge $-1 $58 $58 $38 $59 forward $54 $-1 #
edge $-1 $79 $79 $58 $80 forward #
vertex $-1 $40 $81 #
ellipse-curve $-1 0.0054902492354016799 1.5748031496062991 0.099999999999999992 0 0 1 0.6875 0 0 1 I I #
loop $-1 $82 $41 $68 #
vertex $-1 $42 $83 #
ellipse-curve $-1 1.1015355222762873 0 0.24999999999999997 0 1 0 0.15624999999999997 0 0 1 I I #
loop $-1 $-1 $84 $66 #
face $-1 $85 $43 $2 $-1 $86 forward single #
point $-1 0.94528552227628715 0.55118110236220486 0.24999999999999997 #
face $-1 $87 $46 $2 $-1 $88 forward single #
point $-1 -0.99221447772371274 0 0.24999999999999997 #
coedge $-1 $89 $90 $91 $92 forward $49 $-1 #
face $-1 $93 $94 $2 $-1 $95 forward single #
plane-surface $-1 -1.4945097507645984 0.55118110236220474 0 0 1 0 0 0 0.39370078740157477 forward_v I I I I #
coedge $-1 $96 $97 $98 $99 forward $52 $-1 #
coedge $-1 $74 $74 $55 $75 forward $100 $-1 #
edge $-1 $101 $101 $74 $102 forward #
loop $-1 $103 $56 $104 #
vertex $-1 $57 $105 #
ellipse-curve $-1 0.0054902492354016799 1.5748031496062991 0.49999999999999994 0 0 -1 0.6875 0 0 1 I I #
vertex $-1 $59 $106 #
ellipse-curve $-1 0.0054902492354016799 1.5748031496062991 0.099999999999999992 0 0 1 0.56249999999999989 0 0 1 I I #
point $-1 0.69299024923540165 1.5748031496062991 0.099999999999999992 #
loop $-1 $-1 $107 $68 #
point $-1 1.257785522276287 0 0.24999999999999997 #
coedge $-1 $108 $109 $110 $111 forward $65 $-1 #
face $-1 $68 $112 $2 $-1 $113 forward single #
plane-surface $-1 0.87163198151886623 0.55118110236220474 0 0 1 0 0 0 0.39370078740157477 forward_v I I I I #
face $-1 $104 $100 $2 $-1 $114 reversed single #
plane-surface $-1 1.5054902492354016 0 0 0 -1 0 0 0 -0.39370078740157477 forward_v I I I I #
coedge $-1 $115 $70 $116 $117 reversed $49 $-1 #
coedge $-1 $70 $115 $96 $118 forward $49 $-1 #
coedge $-1 $98 $119 $70 $92 reversed $103 $-1 #
edge $-1 $120 $121 $70 $122 forward #
face $-1 $123 $124 $2 $-1 $125 forward single #
loop $-1 $-1 $126 $71 #
plane-surface $-1 -0.86065148304806294 0.55118110236220474 0 -1 0 0 0 0 0.39370078740157477 forward_v I I I I #
coedge $-1 $127 $73 $90 $118 reversed $52 $-1 #
coedge $-1 $73 $127 $128 $129 forward $52 $-1 #
coedge $-1 $130 $91 $73 $99 reversed $103 $-1 #
edge $-1 $131 $120 $73 $132 forward #
loop $-1 $133 $74 $87 #
vertex $-1 $75 $134 #
ellipse-curve $-1 0.0054902492354016799 1.5748031496062991 0 0 0 1 0.56249999999999989 0 0 1 I I #
loop $-1 $-1 $98 $104 #
face $-1 $-1 $76 $2 $-1 $135 forward single #
point $-1 0.69299024923540165 1.5748031496062991 0.49999999999999994 #
point $-1 -0.55700975076459824 1.5748031496062991 0.099999999999999992 #
coedge $-1 $128 $136 $130 $137 forward $82 $-1 #
coedge $-1 $138 $84 $139 $140 reversed $65 $-1 #
coedge $-1 $84 $138 $141 $142 forward $65 $-1 #
coedge $-1 $143 $144 $84 $111 reversed $103 $-1 #
edge $-1 $145 $146 $84 $147 forward #
loop $-1 $-1 $148 $85 #
plane-surface $-1 1.5054902492354016 0.55118110236220474 0 1 0 0 0 0 -0.39370078740157477 forward_v I I I I #
plane-surface $-1 0.0054902492354016851 1.0254045508091019 0 0 0 1 0.39370078740157477 0 0 forward_v I I I I #
coedge $-1 $90 $89 $149 $150 forward $49 $-1 #
coedge $-1 $126 $151 $89 $117 forward $94 $-1 #
edge $-1 $152 $121 $116 $153 forward #
edge $-1 $154 $120 $90 $155 forward #
coedge $-1 $91 $156 $126 $157 reversed $103 $-1 #
vertex $-1 $118 $158 #
vertex $-1 $117 $159 #
straight-curve $-1 -0.86065148304806294 0.55118110236220474 0.49999999999999994 0.39370078740157477 0 0 F -1.6100000000000003 F 0 #
face $-1 $66 $160 $2 $-1 $161 forward single #
loop $-1 $-1 $162 $93 #
plane-surface $-1 -0.86065148304806294 2.4999999999999996 0 0 1 0 0 0 0.39370078740157477 forward_v I I I I #
coedge $-1 $163 $116 $119 $157 forward $94 $-1 #
coedge $-1 $97 $96 $164 $165 forward $52 $-1 #
coedge $-1 $166 $107 $97 $129 reversed $82 $-1 #
edge $-1 $167 $131 $97 $168 forward #
coedge $-1 $144 $98 $107 $137 reversed $103 $-1 #
vertex $-1 $129 $169 #
straight-curve $-1 -1.4945097507645984 0.55118110236220474 0.49999999999999994 -2.4976895942073259e-016 0.39370078740157477 0 F -1.4000000000000001 F 0 #
loop $-1 $-1 $170 $87 #
point $-1 -0.55700975076459824 1.5748031496062991 0 #
plane-surface $-1 0.0054902492354016634 1.0254045508091019 0.49999999999999994 0 0 1 0.39370078740157477 0 0 forward_v I I I I #
coedge $-1 $107 $166 $171 $172 forward $82 $-1 #
edge $-1 $173 $131 $107 $174 forward #
coedge $-1 $109 $108 $175 $176 forward $65 $-1 #
coedge $-1 $148 $177 $108 $140 forward $112 $-1 #
edge $-1 $178 $146 $139 $179 forward #
coedge $-1 $180 $181 $109 $142 reversed $160 $-1 #
edge $-1 $182 $145 $109 $183 forward #
coedge $-1 $156 $110 $181 $184 reversed $103 $-1 #
coedge $-1 $110 $130 $148 $185 reversed $103 $-1 #
vertex $-1 $142 $186 #
vertex $-1 $140 $187 #
straight-curve $-1 1.5054902492354016 0.55118110236220474 0.49999999999999994 0.39370078740157477 0 0 F -1.6099999999999999 F 0 #
coedge $-1 $171 $139 $144 $185 forward $112 $-1 #
coedge $-1 $188 $164 $115 $150 reversed $133 $-1 #
edge $-1 $152 $154 $115 $189 forward #
coedge $-1 $116 $163 $188 $190 forward $94 $-1 #
vertex $-1 $190 $191 #
straight-curve $-1 -0.86065148304806294 0.55118110236220474 0 0 0 0.39370078740157477 I I #
vertex $-1 $150 $192 #
straight-curve $-1 -1.4945097507645984 0.55118110236220474 0 0 0 0.39370078740157477 I I #
coedge $-1 $119 $143 $162 $193 reversed $103 $-1 #
edge $-1 $121 $194 $126 $195 forward #
point $-1 -1.4945097507645984 0.55118110236220474 0.49999999999999994 #
point $-1 -0.86065148304806294 0.55118110236220474 0.49999999999999994 #
loop $-1 $-1 $181 $123 #
plane-surface $-1 0.87163198151886623 2.4999999999999996 0 1 0 0 0 0 -0.39370078740157477 forward_v I I I I #
coedge $-1 $196 $197 $156 $193 forward $124 $-1 #
coedge $-1 $151 $126 $197 $198 reversed $94 $-1 #
coedge $-1 $149 $170 $127 $165 reversed $133 $-1 #
edge $-1 $154 $167 $127 $199 forward #
coedge $-1 $136 $128 $170 $200 forward $82 $-1 #
vertex $-1 $200 $201 #
straight-curve $-1 -1.4945097507645981 0 0 0 0 0.39370078740157477 I I #
point $-1 -1.4945097507645981 0 0.49999999999999994 #
coedge $-1 $164 $202 $166 $200 reversed $133 $-1 #
coedge $-1 $177 $148 $136 $172 reversed $112 $-1 #
edge $-1 $203 $173 $136 $204 forward #
vertex $-1 $172 $205 #
straight-curve $-1 -1.4945097507645981 0 0.49999999999999994 -0.39370078740157477 0 0 F -7.6199999999999992 F 0 #
coedge $-1 $202 $206 $138 $176 reversed $133 $-1 #
edge $-1 $178 $182 $138 $207 forward #
coedge $-1 $139 $171 $202 $208 forward $112 $-1 #
vertex $-1 $208 $209 #
straight-curve $-1 1.5054902492354016 0.55118110236220474 0 0 0 0.39370078740157477 I I #
coedge $-1 $210 $141 $206 $211 forward $160 $-1 #
coedge $-1 $141 $210 $143 $184 forward $160 $-1 #
vertex $-1 $176 $212 #
straight-curve $-1 0.87163198151886623 0.55118110236220474 0 0 0 0.39370078740157477 I I #
edge $-1 $213 $145 $181 $214 forward #
edge $-1 $146 $173 $148 $215 forward #
point $-1 0.87163198151886623 0.55118110236220474 0.49999999999999994 #
point $-1 1.5054902492354016 0.55118110236220474 0.49999999999999994 #
coedge $-1 $216 $149 $151 $190 reversed $133 $-1 #
straight-curve $-1 -0.86065148304806294 0.55118110236220474 0 -0.39370078740157477 0 0 F 0 F 1.6100000000000003 #
edge $-1 $217 $152 $151 $218 forward #
point $-1 -0.86065148304806294 0.55118110236220474 0 #
point $-1 -1.4945097507645984 0.55118110236220474 0 #
edge $-1 $194 $213 $162 $219 forward #
vertex $-1 $198 $220 #
straight-curve $-1 -0.86065148304806294 2.4999999999999996 0.49999999999999994 0 0.39370078740157477 0 F -4.9499999999999993 F 0 #
coedge $-1 $221 $162 $210 $222 reversed $124 $-1 #
coedge $-1 $162 $221 $163 $198 forward $124 $-1 #
edge $-1 $217 $194 $197 $223 forward #
straight-curve $-1 -1.4945097507645984 0.55118110236220474 0 2.4976895942073259e-016 -0.39370078740157477 0 F 0 F 1.4000000000000001 #
edge $-1 $167 $203 $166 $224 forward #
point $-1 -1.4945097507645981 0 0 #
coedge $-1 $170 $175 $177 $208 reversed $133 $-1 #
vertex $-1 $200 $225 #
straight-curve $-1 1.5054902492354016 0 0 0 0 0.39370078740157477 I I #
point $-1 1.5054902492354016 0 0.49999999999999994 #
coedge $-1 $175 $216 $180 $211 reversed $133 $-1 #
straight-curve $-1 1.5054902492354016 0.55118110236220474 0 -0.39370078740157477 0 0 F 0 F 1.6099999999999999 #
edge $-1 $203 $178 $177 $226 forward #
point $-1 1.5054902492354016 0.55118110236220474 0 #
coedge $-1 $181 $180 $196 $222 forward $160 $-1 #
edge $-1 $182 $227 $180 $228 forward #
point $-1 0.87163198151886623 0.55118110236220474 0 #
vertex $-1 $222 $229 #
straight-curve $-1 0.87163198151886623 0.55118110236220474 0.49999999999999994 0 -0.39370078740157477 0 F -4.9499999999999993 F 0 #
straight-curve $-1 1.5054902492354016 0 0.49999999999999994 0 -0.39370078740157477 0 F -1.4000000000000001 F 0 #
coedge $-1 $206 $188 $221 $230 reversed $133 $-1 #
vertex $-1 $230 $231 #
straight-curve $-1 -0.86065148304806294 2.4999999999999996 0 0 -0.39370078740157477 0 F 0 F 4.9499999999999993 #
straight-curve $-1 0.87163198151886623 2.4999999999999996 0.49999999999999994 0.39370078740157477 0 0 F -4.4000000000000004 F 0 #
point $-1 -0.86065148304806294 2.4999999999999996 0.49999999999999994 #
coedge $-1 $197 $196 $216 $230 forward $124 $-1 #
edge $-1 $227 $213 $210 $232 forward #
straight-curve $-1 -0.86065148304806294 2.4999999999999996 0 0 0 0.39370078740157477 I I #
straight-curve $-1 -1.4945097507645981 0 0 0.39370078740157477 0 0 F 0 F 7.6199999999999992 #
point $-1 1.5054902492354016 0 0 #
straight-curve $-1 1.5054902492354016 0 0 0 0.39370078740157477 0 F 0 F 1.4000000000000001 #
vertex $-1 $211 $233 #
straight-curve $-1 0.87163198151886623 0.55118110236220474 0 0 0.39370078740157477 0 F 0 F 4.9499999999999993 #
point $-1 0.87163198151886623 2.4999999999999996 0.49999999999999994 #
edge $-1 $227 $217 $221 $234 forward #
point $-1 -0.86065148304806294 2.4999999999999996 0 #
straight-curve $-1 0.87163198151886623 2.4999999999999996 0 0 0 0.39370078740157477 I I #
point $-1 0.87163198151886623 2.4999999999999996 0 #
straight-curve $-1 0.87163198151886623 2.4999999999999996 0 -0.39370078740157477 0 0 F 0 F 4.4000000000000004 #
End-of-ACIS-data 