700 0 1 0           
29 Autodesk Inventor 6.2.0.12000 17 ASM 6.0.1.6021 NT 24 Fri Jan 06 16:50:07 2006 
25.399999999999999 9.9999999999999995e-007 1e-010 
body $-1 -1 $-1 $1 $-1 $-1 #
lump $-1 -1 $-1 $-1 $2 $0 #
shell $-1 -1 $-1 $-1 $-1 $3 $-1 $1 #
face $-1 -1 $-1 $4 $5 $2 $-1 $6 forward single #
face $-1 -1 $-1 $7 $8 $2 $-1 $9 reversed single #
loop $-1 -1 $-1 $-1 $10 $3 #
plane-surface $-1 -1 $-1 -2.0940602660334484 0.43929786666109305 -0.65649999999999997 3.4411913870621998e-029 -0.70710678118654757 -0.70710678118654757 -0.39370078740157477 0 -1.9159761930334035e-029 forward_v I I I I #
face $-1 -1 $-1 $11 $12 $2 $-1 $13 forward single #
loop $-1 -1 $-1 $-1 $14 $4 #
plane-surface $-1 -1 $-1 -2.0473102660334486 0.44879786666109317 -0.65899999999999992 -4.8665795303048444e-029 -2.0792419591407954e-028 1 0.39370078740157477 0 1.9159761930334033e-029 forward_v I I I I #
coedge $-1 -1 $-1 $15 $16 $17 $18 forward $5 $-1 #
face $-1 -1 $-1 $19 $20 $2 $-1 $21 forward single #
loop $-1 -1 $-1 $-1 $22 $7 #
plane-surface $-1 -1 $-1 -2.1358102660334488 0.45479786666109295 -0.6539999999999998 -0.70710678118654446 -2.5756109886543286e-015 -0.70710678118655068 -0.27838849653013803 0 0.27838849653013559 forward_v I I I I #
coedge $-1 -1 $-1 $23 $24 $16 $25 reversed $8 $-1 #
coedge $-1 -1 $-1 $26 $10 $27 $28 forward $5 $-1 #
coedge $-1 -1 $-1 $10 $26 $14 $25 forward $5 $-1 #
coedge $-1 -1 $-1 $29 $30 $10 $18 reversed $31 $-1 #
edge $-1 -1 $-1 $32 0.085238550367483554 $33 0.10723559562360857 $17 $34 forward @7 unknown #
face $-1 -1 $-1 $35 $36 $2 $-1 $37 forward single #
loop $-1 -1 $-1 $-1 $38 $11 #
plane-surface $-1 -1 $-1 -2.0005602660334487 0.45829786666109307 -0.65649999999999997 3.4411913870621998e-029 0.70710678118654757 -0.70710678118654757 -0.39370078740157477 0 -1.9159761930334035e-029 forward_v I I I I #
coedge $-1 -1 $-1 $39 $40 $26 $41 reversed $12 $-1 #
coedge $-1 -1 $-1 $42 $14 $40 $43 reversed $8 $-1 #
coedge $-1 -1 $-1 $14 $42 $29 $44 reversed $8 $-1 #
edge $-1 -1 $-1 $45 -0.093345000000001122 $32 0.33083499999999866 $14 $46 forward @7 unknown #
coedge $-1 -1 $-1 $16 $15 $22 $41 forward $5 $-1 #
coedge $-1 -1 $-1 $47 $48 $15 $28 reversed $49 $-1 #
edge $-1 -1 $-1 $33 -0.34353499999999926 $50 0.10604500000000172 $27 $51 forward @7 unknown #
coedge $-1 -1 $-1 $52 $17 $24 $44 forward $31 $-1 #
coedge $-1 -1 $-1 $17 $53 $47 $54 forward $31 $-1 #
loop $-1 -1 $-1 $-1 $17 $55 #
vertex $-1 -1 $-1 $44 $56 #
vertex $-1 -1 $-1 $28 $57 #
straight-curve $-1 -1 $-1 -1.9831852660334488 0.46117286666109303 -0.67837499999999995 0.22730325558646816 -0.22730325558646614 0.22730325558646614 I I #
face $-1 -1 $-1 $58 $59 $2 $-1 $60 forward single #
loop $-1 -1 $-1 $-1 $61 $19 #
plane-surface $-1 -1 $-1 -1.9538102660334487 0.46079786666109307 -0.39999999999999997 0 1 0 0 0 0.39370078740157477 forward_v I I I I #
coedge $-1 -1 $-1 $62 $63 $64 $65 forward $20 $-1 #
coedge $-1 -1 $-1 $66 $22 $48 $67 forward $12 $-1 #
coedge $-1 -1 $-1 $22 $64 $23 $43 forward $12 $-1 #
edge $-1 -1 $-1 $50 -0.047476956011135982 $45 -0.025479910755010975 $22 $68 forward @7 unknown #
coedge $-1 -1 $-1 $24 $23 $63 $69 reversed $8 $-1 #
edge $-1 -1 $-1 $70 -0.0025400000000004308 $45 0.033019999999999605 $23 $71 forward @7 unknown #
edge $-1 -1 $-1 $32 -0.0025399999999999867 $72 0.033020000000000049 $24 $73 forward @7 unknown #
vertex $-1 -1 $-1 $41 $74 #
straight-curve $-1 -1 $-1 -2.0940602660334484 0.44179786666109311 -0.65899999999999992 0.39370078740157477 0 1.9159761930334033e-029 F -0.13271600000000117 F 0.3702059999999987 #
coedge $-1 -1 $-1 $75 $27 $30 $54 reversed $49 $-1 #
coedge $-1 -1 $-1 $27 $76 $39 $67 reversed $49 $-1 #
loop $-1 -1 $-1 $-1 $27 $77 #
vertex $-1 -1 $-1 $67 $78 #
straight-curve $-1 -1 $-1 -2.0940602660334484 0.4367978666610931 -0.65399999999999991 -0.39370078740157477 0 -1.9159761930334033e-029 F -0.3702059999999987 F 0.13271600000000117 #
coedge $-1 -1 $-1 $79 $29 $80 $81 reversed $31 $-1 #
coedge $-1 -1 $-1 $30 $79 $82 $83 forward $31 $-1 #
edge $-1 -1 $-1 $84 0.046697331829558417 $33 0.064657844071696627 $47 $85 forward @7 unknown #
face $-1 -1 $-1 $77 $31 $2 $-1 $86 forward single #
point $-1 -1 $-1 -1.9638102660334489 0.44179786666109311 -0.65899999999999992 #
point $-1 -1 $-1 -1.9588102660334485 0.4367978666610931 -0.65399999999999991 #
face $-1 -1 $-1 $87 $88 $2 $-1 $89 reversed single #
loop $-1 -1 $-1 $-1 $90 $35 #
plane-surface $-1 -1 $-1 -2.3745760140649446 0.45829786666109307 -0.65649999999999997 3.4411913870621998e-029 0.70710678118654757 -0.70710678118654757 -0.39370078740157477 0 -1.9159761930334035e-029 forward_v I I I I #
coedge $-1 -1 $-1 $91 $92 $62 $93 reversed $36 $-1 #
coedge $-1 -1 $-1 $80 $38 $61 $93 forward $20 $-1 #
coedge $-1 -1 $-1 $38 $80 $42 $69 forward $20 $-1 #
coedge $-1 -1 $-1 $40 $94 $38 $65 reversed $12 $-1 #
edge $-1 -1 $-1 $70 0.085238550367483928 $95 0.10723559562360895 $64 $96 forward @7 unknown #
coedge $-1 -1 $-1 $94 $39 $97 $98 forward $12 $-1 #
edge $-1 -1 $-1 $50 -0.23258863353568995 $99 -0.21462812129355235 $48 $100 forward @7 unknown #
straight-curve $-1 -1 $-1 -2.1250185993667823 0.44758953332775975 -0.66479166666666667 0.22730325558646755 0.22730325558646641 -0.22730325558646641 I I #
edge $-1 -1 $-1 $72 -0.093344999999999345 $70 0.33083500000000043 $42 $101 forward @7 unknown #
vertex $-1 -1 $-1 $43 $102 #
straight-curve $-1 -1 $-1 -2.1308102660334485 0.45479786666109295 -0.65899999999999992 1.4340409415560433e-015 -0.39370078740157477 -8.1859919651212343e-029 F -0.093981000000001202 F 0.12446100000000038 #
vertex $-1 -1 $-1 $69 $103 #
straight-curve $-1 -1 $-1 -1.9638102660334489 0.44279786666109311 -0.65899999999999992 0 0.39370078740157477 8.185991965121241e-029 F -0.093981000000000758 F 0.12446100000000082 #
point $-1 -1 $-1 -2.1308102660334485 0.44179786666109311 -0.65899999999999992 #
coedge $-1 -1 $-1 $104 $47 $105 $106 reversed $49 $-1 #
coedge $-1 -1 $-1 $48 $104 $107 $108 forward $49 $-1 #
face $-1 -1 $-1 $109 $49 $2 $-1 $110 forward single #
point $-1 -1 $-1 -2.1358102660334488 0.4367978666610931 -0.65399999999999991 #
coedge $-1 -1 $-1 $53 $52 $92 $111 forward $31 $-1 #
coedge $-1 -1 $-1 $63 $62 $52 $81 forward $20 $-1 #
edge $-1 -1 $-1 $112 -0.047476956011135857 $72 -0.02547991075501085 $52 $113 forward @7 unknown #
coedge $-1 -1 $-1 $114 $105 $53 $83 reversed $115 $-1 #
edge $-1 -1 $-1 $116 -0.045719999999999983 $84 0.01523999999999992 $82 $117 forward @7 unknown #
vertex $-1 -1 $-1 $83 $118 #
straight-curve $-1 -1 $-1 -1.9408102660334487 0.4367978666610931 -0.63600000000000034 -0.27838849653013803 0 -0.27838849653013559 I I #
plane-surface $-1 -1 $-1 -1.9588102660334485 0.44279786666109311 -0.6539999999999998 0.70710678118654446 1.4702460890360653e-028 -0.70710678118655068 -0.27838849653013803 0 -0.27838849653013559 forward_v I I I I #
face $-1 -1 $-1 $119 $120 $2 $-1 $121 forward single #
loop $-1 -1 $-1 $-1 $122 $58 #
plane-surface $-1 -1 $-1 -2.4213260140649444 0.44879786666109317 -0.65899999999999992 -4.8665795303048444e-029 -2.0792419591407954e-028 1 0.39370078740157477 0 1.9159761930334033e-029 forward_v I I I I #
coedge $-1 -1 $-1 $123 $124 $125 $126 forward $59 $-1 #
coedge $-1 -1 $-1 $127 $61 $94 $128 reversed $36 $-1 #
coedge $-1 -1 $-1 $61 $129 $79 $111 reversed $36 $-1 #
edge $-1 -1 $-1 $95 -0.34353500000000103 $112 0.10604499999999994 $61 $130 forward @7 unknown #
coedge $-1 -1 $-1 $64 $66 $91 $128 forward $12 $-1 #
vertex $-1 -1 $-1 $65 $131 #
straight-curve $-1 -1 $-1 -2.1114352660334483 0.43642286666109298 -0.67837500000000006 -0.22730325558646869 0.22730325558646589 0.22730325558646589 I I #
coedge $-1 -1 $-1 $107 $132 $66 $98 reversed $133 $-1 #
edge $-1 -1 $-1 $99 -0.045719999999999539 $134 0.015240000000000364 $97 $135 forward @7 unknown #
vertex $-1 -1 $-1 $98 $136 #
straight-curve $-1 -1 $-1 -2.2005602660334489 0.4367978666610931 -0.5892500000000005 -0.27838849653013803 0 0.27838849653013559 I I #
straight-curve $-1 -1 $-1 -2.0005602660334487 0.45579786666109312 -0.65899999999999992 -0.39370078740157477 0 -1.9159761930334033e-029 F -0.13271599999999939 F 0.37020600000000048 #
point $-1 -1 $-1 -2.1308102660334485 0.45579786666109312 -0.65899999999999992 #
point $-1 -1 $-1 -1.9638102660334489 0.45579786666109312 -0.65899999999999992 #
coedge $-1 -1 $-1 $76 $75 $137 $138 reversed $49 $-1 #
coedge $-1 -1 $-1 $82 $139 $75 $106 forward $115 $-1 #
edge $-1 -1 $-1 $140 0 $84 0.6324599999999998 $105 $141 forward @7 unknown #
coedge $-1 -1 $-1 $142 $97 $76 $108 reversed $133 $-1 #
edge $-1 -1 $-1 $143 0 $99 0.6324599999999998 $76 $144 forward @7 unknown #
face $-1 -1 $-1 $145 $115 $2 $-1 $146 forward single #
plane-surface $-1 -1 $-1 -2.1408102660334483 0.4367978666610931 -0.39999999999999997 0 -1 0 0 0 -0.39370078740157477 forward_v I I I I #
edge $-1 -1 $-1 $112 -0.23258863353569012 $116 -0.21462812129355191 $92 $147 forward @7 unknown #
vertex $-1 -1 $-1 $111 $148 #
straight-curve $-1 -1 $-1 -1.9696019327001153 0.45000619999442648 -0.66479166666666656 -0.22730325558646816 -0.22730325558646614 -0.22730325558646614 I I #
coedge $-1 -1 $-1 $139 $82 $129 $149 reversed $115 $-1 #
loop $-1 -1 $-1 $-1 $82 $109 #
vertex $-1 -1 $-1 $83 $150 #
straight-curve $-1 -1 $-1 -1.9538102660334487 0.44279786666109311 -0.64899999999999991 0 -0.39370078740157477 -8.185991965121241e-029 F -0.12446100000000082 F 0.093981000000000758 #
point $-1 -1 $-1 -1.9538102660334487 0.4367978666610931 -0.64899999999999991 #
face $-1 -1 $-1 $151 $152 $2 $-1 $153 forward single #
loop $-1 -1 $-1 $-1 $154 $87 #
plane-surface $-1 -1 $-1 -2.3328260140649446 0.44279786666109311 -0.6539999999999998 0.70710678118655679 1.4702460890360397e-028 -0.70710678118653825 -0.27838849653013314 0 -0.27838849653014042 forward_v I I I I #
coedge $-1 -1 $-1 $155 $156 $124 $157 reversed $88 $-1 #
coedge $-1 -1 $-1 $158 $90 $159 $160 forward $59 $-1 #
coedge $-1 -1 $-1 $90 $158 $122 $157 forward $59 $-1 #
coedge $-1 -1 $-1 $161 $162 $90 $126 reversed $163 $-1 #
edge $-1 -1 $-1 $164 0.085238550367485982 $165 0.107235595623611 $125 $166 forward @7 unknown #
coedge $-1 -1 $-1 $167 $91 $132 $168 reversed $36 $-1 #
edge $-1 -1 $-1 $134 0.046697331829558257 $95 0.064657844071696474 $91 $169 forward @7 unknown #
coedge $-1 -1 $-1 $92 $167 $114 $149 forward $36 $-1 #
straight-curve $-1 -1 $-1 -2.0005602660334487 0.46079786666109307 -0.65399999999999991 0.39370078740157477 0 1.9159761930334033e-029 F -0.37020600000000048 F 0.13271599999999939 #
point $-1 -1 $-1 -2.1358102660334488 0.46079786666109307 -0.65399999999999991 #
coedge $-1 -1 $-1 $97 $142 $127 $168 forward $133 $-1 #
loop $-1 -1 $-1 $-1 $97 $170 #
vertex $-1 -1 $-1 $128 $171 #
straight-curve $-1 -1 $-1 -2.1408102660334487 0.45479786666109295 -0.64899999999999991 -1.4340409415560433e-015 0.39370078740157477 8.1859919651212343e-029 F -0.12446100000000038 F 0.093981000000001202 #
point $-1 -1 $-1 -2.1408102660334483 0.4367978666610931 -0.64899999999999991 #
coedge $-1 -1 $-1 $172 $173 $104 $138 forward $174 $-1 #
edge $-1 -1 $-1 $143 0.11844750000000026 $140 0.59342749999999977 $137 $175 forward @7 unknown #
coedge $-1 -1 $-1 $105 $114 $172 $176 reversed $115 $-1 #
vertex $-1 -1 $-1 $176 $177 #
straight-curve $-1 -1 $-1 -1.9538102660334487 0.4367978666610931 -0.39999999999999997 0 0 -0.39370078740157477 I I #
coedge $-1 -1 $-1 $132 $107 $173 $178 reversed $133 $-1 #
vertex $-1 -1 $-1 $178 $179 #
straight-curve $-1 -1 $-1 -2.1408102660334483 0.4367978666610931 -0.39999999999999997 0 0 -0.39370078740157477 I I #
face $-1 -1 $-1 $170 $163 $2 $-1 $180 forward single #
plane-surface $-1 -1 $-1 -1.9538102660334487 0.4367978666610931 -0.39999999999999997 1 0 0 0 0 -0.39370078740157477 forward_v I I I I #
straight-curve $-1 -1 $-1 -1.8940602660334487 0.46079786666109307 -0.58925000000000038 0.27838849653013803 0 0.27838849653013559 I I #
point $-1 -1 $-1 -1.9588102660334485 0.46079786666109307 -0.65399999999999991 #
edge $-1 -1 $-1 $181 0 $116 0.6324599999999998 $129 $182 forward @7 unknown #
point $-1 -1 $-1 -1.9538102660334487 0.46079786666109307 -0.64899999999999991 #
face $-1 -1 $-1 $183 $184 $2 $-1 $185 forward single #
loop $-1 -1 $-1 $-1 $186 $119 #
plane-surface $-1 -1 $-1 -2.4680760140649447 0.43929786666109305 -0.65649999999999997 3.4411913870621998e-029 -0.70710678118654757 -0.70710678118654757 -0.39370078740157477 0 -1.9159761930334035e-029 forward_v I I I I #
coedge $-1 -1 $-1 $187 $188 $158 $189 reversed $120 $-1 #
coedge $-1 -1 $-1 $190 $122 $188 $191 reversed $88 $-1 #
coedge $-1 -1 $-1 $122 $190 $161 $192 reversed $88 $-1 #
edge $-1 -1 $-1 $193 -0.093345000000000233 $164 0.33083499999999955 $122 $194 forward @7 unknown #
coedge $-1 -1 $-1 $124 $123 $154 $189 forward $59 $-1 #
coedge $-1 -1 $-1 $195 $196 $123 $160 reversed $197 $-1 #
edge $-1 -1 $-1 $165 -0.34353500000000015 $198 0.10604499999999994 $159 $199 forward @7 unknown #
coedge $-1 -1 $-1 $200 $125 $156 $192 forward $163 $-1 #
coedge $-1 -1 $-1 $125 $201 $195 $202 forward $163 $-1 #
loop $-1 -1 $-1 $-1 $125 $145 #
vertex $-1 -1 $-1 $192 $203 #
vertex $-1 -1 $-1 $160 $204 #
straight-curve $-1 -1 $-1 -2.4854510140649433 0.43642286666109281 -0.67837500000000017 -0.22730325558647399 0.22730325558646322 0.22730325558646322 I I #
coedge $-1 -1 $-1 $129 $127 $205 $206 reversed $36 $-1 #
edge $-1 -1 $-1 $207 0 $134 0.6324599999999998 $132 $208 forward @7 unknown #
straight-curve $-1 -1 $-1 -2.1538102660334486 0.46079786666109307 -0.63600000000000045 0.27838849653013803 0 -0.27838849653013559 I I #
face $-1 -1 $-1 $209 $133 $2 $-1 $210 forward single #
point $-1 -1 $-1 -2.1408102660334487 0.46079786666109307 -0.64899999999999991 #
coedge $-1 -1 $-1 $205 $137 $139 $176 forward $174 $-1 #
coedge $-1 -1 $-1 $137 $205 $142 $178 forward $174 $-1 #
loop $-1 -1 $-1 $211 $172 $212 #
straight-curve $-1 -1 $-1 -2.1874431400491967 0.4367978666610931 -0.39999999999999997 0.39370078740157477 0 0 I I #
edge $-1 -1 $-1 $140 -0.01523999999999992 $181 0.045719999999999983 $172 $213 forward @7 unknown #
point $-1 -1 $-1 -1.9538102660334487 0.4367978666610931 -0.39999999999999997 #
edge $-1 -1 $-1 $207 -0.015239999999999698 $143 0.045720000000000205 $173 $214 forward @7 unknown #
point $-1 -1 $-1 -2.1408102660334483 0.4367978666610931 -0.39999999999999997 #
plane-surface $-1 -1 $-1 -2.5098260140649447 0.45479786666109295 -0.6539999999999998 -0.70710678118653214 -2.5756109886542832e-015 -0.707106781186563 -0.27838849653014291 0 0.27838849653013076 forward_v I I I I #
vertex $-1 -1 $-1 $176 $215 #
straight-curve $-1 -1 $-1 -1.9538102660334487 0.46079786666109307 -0.39999999999999997 0 0 -0.39370078740157477 I I #
face $-1 -1 $-1 $55 $197 $2 $-1 $216 forward single #
loop $-1 -1 $-1 $-1 $217 $151 #
plane-surface $-1 -1 $-1 -2.5148260140649445 0.4367978666610931 -0.39999999999999997 0 -1 0 0 0 -0.39370078740157477 forward_v I I I I #
coedge $-1 -1 $-1 $218 $219 $220 $221 forward $152 $-1 #
coedge $-1 -1 $-1 $222 $154 $196 $223 forward $120 $-1 #
coedge $-1 -1 $-1 $154 $220 $155 $191 forward $120 $-1 #
edge $-1 -1 $-1 $198 -0.047476956011135343 $193 -0.025479910755010847 $154 $224 forward @7 unknown #
coedge $-1 -1 $-1 $156 $155 $219 $225 reversed $88 $-1 #
edge $-1 -1 $-1 $226 -0.0025399999999999867 $193 0.033020000000000049 $155 $227 forward @7 unknown #
edge $-1 -1 $-1 $164 -0.0025400000000004308 $228 0.033019999999999605 $156 $229 forward @7 unknown #
vertex $-1 -1 $-1 $189 $230 #
straight-curve $-1 -1 $-1 -2.3745760140649446 0.45579786666109312 -0.65899999999999992 -0.39370078740157477 0 -1.9159761930334033e-029 F -0.13271599999999939 F 0.37020600000000048 #
coedge $-1 -1 $-1 $231 $159 $162 $202 reversed $197 $-1 #
coedge $-1 -1 $-1 $159 $232 $187 $223 reversed $197 $-1 #
loop $-1 -1 $-1 $-1 $159 $183 #
vertex $-1 -1 $-1 $223 $233 #
straight-curve $-1 -1 $-1 -2.3745760140649446 0.46079786666109307 -0.65399999999999991 0.39370078740157477 0 1.9159761930334033e-029 F -0.37020600000000048 F 0.13271599999999939 #
coedge $-1 -1 $-1 $234 $161 $235 $236 reversed $163 $-1 #
coedge $-1 -1 $-1 $162 $234 $237 $238 forward $163 $-1 #
edge $-1 -1 $-1 $239 0.046697331829550562 $165 0.06465784407168941 $195 $240 forward @7 unknown #
point $-1 -1 $-1 -2.5048260140649443 0.45579786666109312 -0.65899999999999992 #
point $-1 -1 $-1 -2.5098260140649447 0.46079786666109307 -0.65399999999999991 #
coedge $-1 -1 $-1 $173 $172 $167 $206 forward $174 $-1 #
edge $-1 -1 $-1 $181 -0.35593750000000046 $207 0.11904249999999994 $205 $241 forward @7 unknown #
vertex $-1 -1 $-1 $206 $242 #
straight-curve $-1 -1 $-1 -2.1408102660334487 0.46079786666109307 -0.39999999999999997 0 0 -0.39370078740157477 I I #
face $-1 -1 $-1 $243 $244 $2 $-1 $245 forward single #
plane-surface $-1 -1 $-1 -2.1408102660334487 0.46079786666109307 -0.39999999999999997 -1 -3.6424639915523502e-015 0 0 0 0.39370078740157477 forward_v I I I I #
loop $-1 -1 $-1 $246 $247 $212 #
face $248 -1 $-1 $249 $174 $2 $-1 $250 reversed single #
straight-curve $-1 -1 $-1 -1.9538102660334491 0.44279786666109311 -0.39999999999999997 0 0.39370078740157477 0 I I #
straight-curve $-1 -1 $-1 -2.1408102660334483 0.45479786666109323 -0.39999999999999997 1.4340409415560433e-015 -0.39370078740157477 0 I I #
point $-1 -1 $-1 -1.9538102660334487 0.46079786666109307 -0.39999999999999997 #
plane-surface $-1 -1 $-1 -2.3278260140649447 0.46079786666109307 -0.39999999999999997 0 1 0 0 0 0.39370078740157477 forward_v I I I I #
coedge $-1 -1 $-1 $251 $252 $218 $253 reversed $184 $-1 #
coedge $-1 -1 $-1 $235 $186 $217 $253 forward $152 $-1 #
coedge $-1 -1 $-1 $186 $235 $190 $225 forward $152 $-1 #
coedge $-1 -1 $-1 $188 $254 $186 $221 reversed $120 $-1 #
edge $-1 -1 $-1 $226 0.085238550367482013 $255 0.10723559562360652 $220 $256 forward @7 unknown #
coedge $-1 -1 $-1 $254 $187 $257 $258 forward $120 $-1 #
edge $-1 -1 $-1 $198 -0.23258863353569401 $259 -0.2146281212935558 $196 $260 forward @7 unknown #
straight-curve $-1 -1 $-1 -2.3436176807316111 0.45000619999442648 -0.66479166666666656 -0.22730325558646283 -0.22730325558646883 -0.22730325558646883 I I #
edge $-1 -1 $-1 $228 -0.093344999999999345 $226 0.33083500000000043 $190 $261 forward @7 unknown #
vertex $-1 -1 $-1 $191 $262 #
straight-curve $-1 -1 $-1 -2.3378260140649445 0.44279786666109311 -0.65899999999999992 0 0.39370078740157477 8.185991965121241e-029 F -0.093981000000000758 F 0.12446100000000082 #
vertex $-1 -1 $-1 $225 $263 #
straight-curve $-1 -1 $-1 -2.5048260140649443 0.45479786666109295 -0.65899999999999992 1.4340409415560433e-015 -0.39370078740157477 -8.1859919651212343e-029 F -0.093981000000001202 F 0.12446100000000038 #
point $-1 -1 $-1 -2.3378260140649445 0.45579786666109312 -0.65899999999999992 #
coedge $-1 -1 $-1 $264 $195 $265 $266 reversed $197 $-1 #
coedge $-1 -1 $-1 $196 $264 $267 $268 forward $197 $-1 #
point $-1 -1 $-1 -2.3328260140649446 0.46079786666109307 -0.65399999999999991 #
coedge $-1 -1 $-1 $201 $200 $252 $269 forward $163 $-1 #
coedge $-1 -1 $-1 $219 $218 $200 $236 forward $152 $-1 #
edge $-1 -1 $-1 $270 -0.047476956011136252 $228 -0.025479910755011236 $200 $271 forward @7 unknown #
coedge $-1 -1 $-1 $272 $265 $201 $238 reversed $273 $-1 #
edge $-1 -1 $-1 $274 -0.045719999999999539 $239 0.015240000000000364 $237 $275 forward @7 unknown #
vertex $-1 -1 $-1 $202 $276 #
straight-curve $-1 -1 $-1 -2.5278260140649427 0.46079786666109307 -0.63600000000000267 0.27838849653014291 0 -0.27838849653013076 I I #
straight-curve $-1 -1 $-1 -2.093943140049197 0.46079786666109301 -0.39999999999999997 -0.39370078740157477 0 0 I I #
point $-1 -1 $-1 -2.1408102660334487 0.46079786666109307 -0.39999999999999997 #
face $-1 -1 $-1 $277 $273 $2 $-1 $278 forward single #
loop $-1 -1 $-1 $-1 $257 $209 #
plane-surface $-1 -1 $-1 -2.3278260140649447 0.4367978666610931 -0.39999999999999997 1 0 0 0 0 -0.39370078740157477 forward_v I I I I #
loop $-1 -1 $-1 $-1 $279 $212 #
coedge $-1 -1 $-1 $280 $281 $282 $283 forward $211 $-1 #
color-adesk-attrib $-1 -1 $-1 $-1 $212 256 #
face $284 -1 $-1 $285 $286 $2 $-1 $287 reversed single #
plane-surface $-1 -1 $-1 -2.2340760140649447 0.44879786666109306 -0.39999999999999997 0 0 1 0.99999999999999989 0 0 forward_v I I I I #
coedge $-1 -1 $-1 $288 $217 $254 $289 reversed $184 $-1 #
coedge $-1 -1 $-1 $217 $290 $234 $269 reversed $184 $-1 #
edge $-1 -1 $-1 $255 -0.34353500000000015 $270 0.10604499999999994 $217 $291 forward @7 unknown #
coedge $-1 -1 $-1 $220 $222 $251 $289 forward $120 $-1 #
vertex $-1 -1 $-1 $221 $292 #
straight-curve $-1 -1 $-1 -2.3572010140649438 0.46117286666109286 -0.67837499999999973 0.22730325558646283 -0.22730325558646883 0.22730325558646883 I I #
coedge $-1 -1 $-1 $267 $293 $222 $258 reversed $244 $-1 #
edge $-1 -1 $-1 $259 -0.045719999999999983 $294 0.01523999999999992 $257 $295 forward @7 unknown #
vertex $-1 -1 $-1 $223 $296 #
straight-curve $-1 -1 $-1 -2.2680760140649445 0.46079786666109307 -0.58924999999999828 0.27838849653013314 0 0.27838849653014042 I I #
straight-curve $-1 -1 $-1 -2.4680760140649447 0.44179786666109311 -0.65899999999999992 0.39370078740157477 0 1.9159761930334033e-029 F -0.13271599999999939 F 0.37020599999999959 #
point $-1 -1 $-1 -2.3378260140649445 0.44179786666109311 -0.65899999999999992 #
point $-1 -1 $-1 -2.5048260140649443 0.44179786666109311 -0.65899999999999992 #
coedge $-1 -1 $-1 $232 $231 $280 $297 reversed $197 $-1 #
coedge $-1 -1 $-1 $237 $298 $231 $266 forward $273 $-1 #
edge $-1 -1 $-1 $299 0 $239 0.6324599999999998 $265 $300 forward @7 unknown #
coedge $-1 -1 $-1 $282 $257 $232 $268 reversed $244 $-1 #
edge $-1 -1 $-1 $301 0 $259 0.6324599999999998 $232 $302 forward @7 unknown #
edge $-1 -1 $-1 $270 -0.23258863353568604 $274 -0.2146281212935478 $252 $303 forward @7 unknown #
vertex $-1 -1 $-1 $269 $304 #
straight-curve $-1 -1 $-1 -2.4990343473982777 0.44758953332775964 -0.66479166666666656 0.22730325558647288 0.22730325558646378 -0.22730325558646378 I I #
coedge $-1 -1 $-1 $298 $237 $290 $305 reversed $273 $-1 #
loop $-1 -1 $-1 $-1 $237 $243 #
vertex $-1 -1 $-1 $238 $306 #
straight-curve $-1 -1 $-1 -2.514826014064945 0.45479786666109295 -0.64899999999999991 -1.4340409415560433e-015 0.39370078740157477 8.1859919651212343e-029 F -0.12446100000000038 F 0.093981000000001202 #
point $-1 -1 $-1 -2.514826014064945 0.46079786666109307 -0.64899999999999991 #
face $307 -1 $-1 $308 $309 $2 $-1 $310 reversed single #
plane-surface $-1 -1 $-1 -2.514826014064945 0.46079786666109307 -0.39999999999999997 -1 -3.6424639915523502e-015 0 0 0 0.39370078740157477 forward_v I I I I #
coedge $-1 -1 $-1 $311 $312 $313 $314 forward $246 $-1 #
coedge $-1 -1 $-1 $315 $247 $264 $297 forward $211 $-1 #
coedge $-1 -1 $-1 $247 $315 $316 $317 forward $211 $-1 #
coedge $-1 -1 $-1 $293 $267 $247 $283 reversed $244 $-1 #
edge $-1 -1 $-1 $318 -0.01523999999999992 $301 0.045719999999999983 $247 $319 forward @7 unknown #
color-adesk-attrib $-1 -1 $-1 $-1 $249 256 #
face $320 -1 $-1 $321 $322 $2 $-1 $323 reversed single #
loop $-1 -1 $-1 $-1 $324 $249 #
plane-surface $-1 -1 $-1 -2.2340760140649447 0.39879786666109307 -0.19999999999999998 0 1 0 0 0 0.99999999999999989 forward_v I I I I #
coedge $-1 -1 $-1 $316 $251 $293 $325 reversed $184 $-1 #
edge $-1 -1 $-1 $294 0.046697331829564849 $255 0.064657844071703052 $251 $326 forward @7 unknown #
coedge $-1 -1 $-1 $252 $316 $272 $305 forward $184 $-1 #
straight-curve $-1 -1 $-1 -2.4680760140649447 0.4367978666610931 -0.65399999999999991 -0.39370078740157477 0 -1.9159761930334033e-029 F -0.37020599999999959 F 0.13271599999999939 #
point $-1 -1 $-1 -2.3328260140649446 0.4367978666610931 -0.65399999999999991 #
coedge $-1 -1 $-1 $257 $282 $288 $325 forward $244 $-1 #
vertex $-1 -1 $-1 $289 $327 #
straight-curve $-1 -1 $-1 -2.3278260140649447 0.44279786666109311 -0.64899999999999991 0 -0.39370078740157477 -8.185991965121241e-029 F -0.12446100000000082 F 0.093981000000000758 #
point $-1 -1 $-1 -2.3278260140649447 0.46079786666109307 -0.64899999999999991 #
edge $-1 -1 $-1 $301 0.11906250000000007 $299 0.59404250000000047 $280 $328 forward @7 unknown #
coedge $-1 -1 $-1 $265 $272 $315 $329 reversed $273 $-1 #
vertex $-1 -1 $-1 $297 $330 #
straight-curve $-1 -1 $-1 -2.514826014064945 0.46079786666109307 -0.39999999999999997 0 0 -0.39370078740157477 I I #
vertex $-1 -1 $-1 $283 $331 #
straight-curve $-1 -1 $-1 -2.3278260140649447 0.46079786666109307 -0.39999999999999997 0 0 -0.39370078740157477 I I #
straight-curve $-1 -1 $-1 -2.5745760140649447 0.4367978666610931 -0.58925000000000272 -0.27838849653014291 0 0.27838849653013076 I I #
point $-1 -1 $-1 -2.5098260140649447 0.4367978666610931 -0.65399999999999991 #
edge $-1 -1 $-1 $332 0 $274 0.6324599999999998 $290 $333 forward @7 unknown #
point $-1 -1 $-1 -2.5148260140649445 0.4367978666610931 -0.64899999999999991 #
color-adesk-attrib $-1 -1 $-1 $-1 $277 256 #
face $334 -1 $-1 $335 $336 $2 $-1 $310 reversed single #
loop $-1 -1 $-1 $-1 $337 $277 #
plane-surface $-1 -1 $-1 -2.1340760140649446 0.44879786666109306 -0.19999999999999998 -1 0 0 0 0 0.99999999999999989 forward_v I I I I #
coedge $-1 -1 $-1 $338 $279 $339 $340 forward $246 $-1 #
coedge $-1 -1 $-1 $279 $341 $342 $343 forward $246 $-1 #
coedge $-1 -1 $-1 $344 $345 $279 $314 reversed $322 $-1 #
edge $346 -1 $-1 $347 0.10000000000000017 $348 0.37825000000000025 $313 $349 forward @7 unknown #
coedge $-1 -1 $-1 $281 $280 $298 $329 forward $211 $-1 #
coedge $-1 -1 $-1 $290 $288 $281 $317 reversed $184 $-1 #
edge $-1 -1 $-1 $332 -0.35655250000000027 $318 0.11842749999999924 $281 $350 forward @7 unknown #
vertex $-1 -1 $-1 $283 $351 #
straight-curve $-1 -1 $-1 -2.3278260140649447 0.44279786666109311 -0.39999999999999997 0 0.39370078740157477 0 I I #
color-adesk-attrib $-1 -1 $-1 $-1 $285 256 #
face $352 -1 $-1 $353 $354 $2 $-1 $355 reversed single #
loop $-1 -1 $-1 $-1 $344 $285 #
plane-surface $-1 -1 $-1 -2.2340760140649447 0.49879786666109316 -0.19999999999999998 0 -1 0 0 0 -0.99999999999999989 forward_v I I I I #
coedge $-1 -1 $-1 $356 $357 $337 $358 forward $286 $-1 #
edge $-1 -1 $-1 $318 0 $294 0.6324599999999998 $293 $359 forward @7 unknown #
straight-curve $-1 -1 $-1 -2.3148260140649435 0.4367978666610931 -0.63599999999999823 -0.27838849653013314 0 -0.27838849653014042 I I #
point $-1 -1 $-1 -2.3278260140649447 0.4367978666610931 -0.64899999999999991 #
straight-curve $-1 -1 $-1 -2.2809510140649447 0.46079786666109301 -0.39999999999999997 -0.39370078740157477 0 0 I I #
edge $-1 -1 $-1 $299 -0.015240000000001475 $332 0.045719999999998429 $315 $360 forward @7 unknown #
point $-1 -1 $-1 -2.514826014064945 0.46079786666109307 -0.39999999999999997 #
point $-1 -1 $-1 -2.3278260140649447 0.46079786666109307 -0.39999999999999997 #
vertex $-1 -1 $-1 $329 $361 #
straight-curve $-1 -1 $-1 -2.5148260140649445 0.4367978666610931 -0.39999999999999997 0 0 -0.39370078740157477 I I #
color-adesk-attrib $-1 -1 $-1 $-1 $308 256 #
face $362 -1 $-1 $363 $364 $2 $-1 $365 reversed single #
loop $-1 -1 $-1 $-1 $366 $308 #
coedge $-1 -1 $-1 $367 $368 $324 $358 reversed $309 $-1 #
coedge $-1 -1 $-1 $369 $311 $356 $370 forward $246 $-1 #
coedge $-1 -1 $-1 $371 $372 $311 $340 reversed $373 $-1 #
edge $374 -1 $-1 $348 -0.050000000000000086 $375 0.050000000000000003 $339 $376 forward @7 unknown #
coedge $-1 -1 $-1 $312 $377 $378 $379 forward $246 $-1 #
coedge $-1 -1 $-1 $380 $366 $312 $343 reversed $336 $-1 #
edge $381 -1 $-1 $382 -0.072749999999999995 $347 -0.050000000000000086 $342 $383 forward @7 unknown #
coedge $-1 -1 $-1 $384 $313 $366 $385 forward $322 $-1 #
coedge $-1 -1 $-1 $313 $384 $371 $386 forward $322 $-1 #
color-adesk-attrib $-1 -1 $-1 $-1 $314 256 #
vertex $-1 -1 $-1 $314 $387 #
vertex $-1 -1 $-1 $340 $388 #
straight-curve $-1 -1 $-1 -2.2340760140649447 0.49879786666109316 -0.39999999999999997 0.99999999999999989 0 0 I I #
straight-curve $-1 -1 $-1 -2.3744510140649444 0.4367978666610931 -0.39999999999999997 0.39370078740157477 0 0 I I #
point $-1 -1 $-1 -2.3278260140649447 0.4367978666610931 -0.39999999999999997 #
color-adesk-attrib $-1 -1 $-1 $-1 $321 256 #
face $389 -1 $-1 $390 $391 $2 $-1 $392 forward single #
loop $-1 -1 $-1 $-1 $393 $321 #
plane-surface $-1 -1 $-1 -2.2340760140649447 0.44879786666109306 0 0 0 1 0.99999999999999989 0 0 forward_v I I I I #
coedge $-1 -1 $-1 $394 $324 $338 $370 reversed $286 $-1 #
coedge $-1 -1 $-1 $324 $394 $395 $396 reversed $286 $-1 #
edge $397 -1 $-1 $398 -0.20000000000000001 $399 0.20000000000000001 $324 $400 forward @7 unknown #
straight-curve $-1 -1 $-1 -2.3278260140649447 0.4367978666610931 -0.39999999999999997 0 0 -0.39370078740157477 I I #
straight-curve $-1 -1 $-1 -2.514826014064945 0.45479786666109251 -0.39999999999999997 1.4340409415560433e-015 -0.39370078740157477 0 I I #
point $-1 -1 $-1 -2.5148260140649445 0.4367978666610931 -0.39999999999999997 #
color-adesk-attrib $-1 -1 $-1 $-1 $335 256 #
face $401 -1 $-1 $402 $403 $2 $-1 $404 reversed single #
loop $-1 -1 $-1 $-1 $405 $335 #
plane-surface $-1 -1 $-1 -2.3340760140649444 0.44879786666109306 -0.19999999999999998 1 0 0 0 0 -0.99999999999999989 forward_v I I I I #
coedge $-1 -1 $-1 $342 $406 $344 $385 reversed $336 $-1 #
coedge $-1 -1 $-1 $407 $337 $393 $408 reversed $309 $-1 #
coedge $-1 -1 $-1 $337 $407 $369 $409 reversed $309 $-1 #
coedge $-1 -1 $-1 $410 $338 $368 $409 forward $246 $-1 #
edge $411 -1 $-1 $375 -0.37825000000000025 $399 -0.10000000000000017 $356 $412 forward @7 unknown #
coedge $-1 -1 $-1 $413 $339 $345 $386 reversed $373 $-1 #
coedge $-1 -1 $-1 $339 $414 $394 $415 forward $373 $-1 #
loop $-1 -1 $-1 $-1 $416 $417 #
color-adesk-attrib $-1 -1 $-1 $-1 $340 256 #
vertex $-1 -1 $-1 $415 $418 #
straight-curve $-1 -1 $-1 -1.8558260140649445 0.44879786666109306 -0.39999999999999997 0 -0.99999999999999989 0 I I #
coedge $-1 -1 $-1 $341 $419 $420 $421 forward $246 $-1 #
coedge $-1 -1 $-1 $422 $423 $341 $379 reversed $424 $-1 #
edge $425 -1 $-1 $426 -0.099999999999999825 $382 0.10000000000000017 $378 $427 forward @7 unknown #
coedge $-1 -1 $-1 $406 $342 $423 $428 reversed $336 $-1 #
color-adesk-attrib $-1 -1 $-1 $-1 $343 256 #
vertex $-1 -1 $-1 $343 $429 #
straight-curve $-1 -1 $-1 -2.1340760140649446 0.44879786666109306 -0.39999999999999997 0 -0.99999999999999989 0 I I #
coedge $-1 -1 $-1 $345 $344 $430 $431 reversed $322 $-1 #
edge $432 -1 $-1 $347 -0.20000000000000001 $433 0.20000000000000001 $344 $434 forward @7 unknown #
edge $435 -1 $-1 $436 -0.20000000000000001 $348 0.20000000000000001 $371 $437 forward @7 unknown #
point $-1 -1 $-1 -2.1340760140649446 0.49879786666109316 -0.39999999999999997 #
point $-1 -1 $-1 -1.8558260140649445 0.49879786666109316 -0.39999999999999997 #
color-adesk-attrib $-1 -1 $-1 $-1 $353 256 #
face $438 -1 $-1 $439 $440 $2 $-1 $441 reversed single #
loop $-1 -1 $-1 $-1 $442 $353 #
plane-surface $-1 -1 $-1 -2.2340760140649447 0.44879786666109306 0.091999999999999998 0 0 1 0.99999999999999989 0 0 forward_v I I I I #
coedge $-1 -1 $-1 $395 $443 $367 $408 forward $354 $-1 #
coedge $-1 -1 $-1 $357 $356 $372 $415 reversed $286 $-1 #
coedge $-1 -1 $-1 $444 $393 $357 $396 forward $354 $-1 #
edge $445 -1 $-1 $398 0.10000000000000017 $446 0.37825000000000025 $395 $447 forward @7 unknown #
color-adesk-attrib $-1 -1 $-1 $-1 $358 256 #
vertex $-1 -1 $-1 $396 $448 #
vertex $-1 -1 $-1 $409 $449 #
straight-curve $-1 -1 $-1 -2.1340760140649451 0.39879786666109307 -0.19999999999999998 0 0 -0.99999999999999989 I I #
color-adesk-attrib $-1 -1 $-1 $-1 $363 256 #
face $450 -1 $-1 $451 $452 $2 $-1 $365 reversed single #
loop $-1 -1 $-1 $-1 $453 $363 #
plane-surface $-1 -1 $-1 -2.2340760140649447 0.37604786666109313 -0.19999999999999998 0 1 0 0 0 0.99999999999999989 forward_v I I I I #
coedge $-1 -1 $-1 $454 $455 $456 $457 reversed $364 $-1 #
coedge $-1 -1 $-1 $366 $380 $458 $459 reversed $336 $-1 #
coedge $-1 -1 $-1 $368 $367 $460 $461 forward $309 $-1 #
edge $462 -1 $-1 $463 -0.07274999999999994 $398 -0.050000000000000003 $393 $464 forward @7 unknown #
edge $465 -1 $-1 $399 0.050000000000000003 $466 0.07274999999999994 $368 $383 forward @7 unknown #
coedge $-1 -1 $-1 $467 $369 $468 $469 forward $246 $-1 #
color-adesk-attrib $-1 -1 $-1 $-1 $370 256 #
straight-curve $-1 -1 $-1 -2.2340760140649447 0.39879786666109307 -0.39999999999999997 -0.99999999999999989 0 0 I I #
coedge $-1 -1 $-1 $470 $371 $471 $472 reversed $373 $-1 #
coedge $-1 -1 $-1 $372 $416 $444 $473 reversed $373 $-1 #
edge $474 -1 $-1 $446 -0.20000000000000001 $375 0.20000000000000001 $372 $475 forward @7 unknown #
coedge $-1 -1 $-1 $414 $476 $477 $478 forward $373 $-1 #
face $479 -1 $-1 $-1 $373 $2 $-1 $480 reversed single #
point $-1 -1 $-1 -1.8558260140649445 0.39879786666109307 -0.39999999999999997 #
coedge $-1 -1 $-1 $377 $481 $482 $483 forward $246 $-1 #
coedge $-1 -1 $-1 $484 $485 $377 $421 reversed $452 $-1 #
edge $486 -1 $-1 $487 0.050000000000000086 $426 0.072749999999999995 $420 $488 forward @7 unknown #
coedge $-1 -1 $-1 $489 $378 $485 $490 reversed $424 $-1 #
coedge $-1 -1 $-1 $378 $489 $380 $428 forward $424 $-1 #
loop $-1 -1 $-1 $-1 $423 $451 #
color-adesk-attrib $-1 -1 $-1 $-1 $379 256 #
vertex $-1 -1 $-1 $379 $491 #
straight-curve $-1 -1 $-1 -2.2340760140649447 0.5215478666610931 -0.39999999999999997 0.99999999999999989 0 0 I I #
edge $492 -1 $-1 $493 -0.20000000000000001 $382 0.20000000000000001 $380 $494 forward @7 unknown #
point $-1 -1 $-1 -2.1340760140649446 0.5215478666610931 -0.39999999999999997 #
coedge $-1 -1 $-1 $458 $471 $384 $431 forward $495 $-1 #
edge $496 -1 $-1 $436 -0.37825000000000025 $433 -0.10000000000000017 $430 $497 forward @7 unknown #
color-adesk-attrib $-1 -1 $-1 $-1 $385 256 #
vertex $-1 -1 $-1 $385 $498 #
straight-curve $-1 -1 $-1 -2.1340760140649451 0.49879786666109316 -0.19999999999999998 0 0 0.99999999999999989 I I #
color-adesk-attrib $-1 -1 $-1 $-1 $386 256 #
vertex $-1 -1 $-1 $472 $499 #
straight-curve $-1 -1 $-1 -1.8558260140649445 0.49879786666109316 -0.19999999999999998 0 0 -0.99999999999999989 I I #
color-adesk-attrib $-1 -1 $-1 $-1 $390 256 #
face $500 -1 $-1 $501 $502 $2 $-1 $503 reversed single #
loop $-1 -1 $-1 $-1 $504 $390 #
plane-surface $-1 -1 $-1 -2.2340760140649447 0.34879786666109314 0.045999999999999999 0 1 0 0 0 0.99999999999999989 forward_v I I I I #
coedge $-1 -1 $-1 $505 $506 $476 $507 forward $391 $-1 #
coedge $-1 -1 $-1 $393 $508 $509 $510 forward $354 $-1 #
coedge $-1 -1 $-1 $511 $395 $414 $473 forward $354 $-1 #
color-adesk-attrib $-1 -1 $-1 $-1 $396 256 #
vertex $-1 -1 $-1 $473 $512 #
straight-curve $-1 -1 $-1 -2.2340760140649447 0.39879786666109307 0 0.99999999999999989 0 0 I I #
point $-1 -1 $-1 -2.1340760140649446 0.39879786666109307 0 #
point $-1 -1 $-1 -2.1340760140649446 0.39879786666109307 -0.39999999999999997 #
color-adesk-attrib $-1 -1 $-1 $-1 $402 256 #
face $513 -1 $-1 $514 $424 $2 $-1 $515 reversed single #
loop $-1 -1 $-1 $-1 $484 $402 #
coedge $-1 -1 $-1 $468 $509 $516 $517 forward $403 $-1 #
coedge $-1 -1 $-1 $516 $405 $467 $518 reversed $364 $-1 #
coedge $-1 -1 $-1 $405 $516 $508 $519 reversed $364 $-1 #
coedge $-1 -1 $-1 $520 $521 $405 $457 forward $522 $-1 #
edge $523 -1 $-1 $524 -0.20000000000000001 $525 0.20000000000000001 $456 $526 forward @7 unknown #
coedge $-1 -1 $-1 $527 $430 $406 $459 forward $495 $-1 #
edge $528 -1 $-1 $433 0.050000000000000086 $493 0.072749999999999995 $458 $529 forward @7 unknown #
coedge $-1 -1 $-1 $509 $468 $407 $461 reversed $403 $-1 #
edge $530 -1 $-1 $463 -0.20000000000000001 $466 0.20000000000000001 $407 $531 forward @7 unknown #
color-adesk-attrib $-1 -1 $-1 $-1 $408 256 #
vertex $-1 -1 $-1 $510 $532 #
straight-curve $-1 -1 $-1 -2.1340760140649451 0.44879786666109306 0 0 0.99999999999999989 0 I I #
color-adesk-attrib $-1 -1 $-1 $-1 $409 256 #
vertex $-1 -1 $-1 $461 $533 #
coedge $-1 -1 $-1 $534 $410 $454 $518 forward $246 $-1 #
coedge $-1 -1 $-1 $460 $453 $410 $469 reversed $403 $-1 #
edge $535 -1 $-1 $466 -0.10000000000000017 $536 0.099999999999999825 $468 $537 forward @7 unknown #
coedge $-1 -1 $-1 $476 $413 $538 $539 reversed $373 $-1 #
coedge $-1 -1 $-1 $430 $540 $413 $472 forward $495 $-1 #
edge $541 -1 $-1 $542 -0.10000000000000001 $436 -0.050000000000000086 $413 $543 forward @7 unknown #
edge $544 -1 $-1 $446 0.050000000000000003 $545 0.09999999999999995 $414 $543 forward @7 unknown #
color-adesk-attrib $-1 -1 $-1 $-1 $415 256 #
straight-curve $-1 -1 $-1 -1.8558260140649445 0.39879786666109307 -0.19999999999999998 0 0 -0.99999999999999989 I I #
coedge $-1 -1 $-1 $416 $470 $442 $507 reversed $373 $-1 #
coedge $-1 -1 $-1 $546 $547 $416 $478 reversed $440 $-1 #
edge $548 -1 $-1 $549 -0.045999999999999999 $545 0.045999999999999999 $416 $550 forward @7 unknown #
color-adesk-attrib $-1 -1 $-1 $-1 $417 256 #
plane-surface $-1 -1 $-1 -1.8558260140649445 0.44879786666109306 0.045999999999999999 -1 0 0 0 0 0.99999999999999989 forward_v I I I I #
coedge $-1 -1 $-1 $419 $534 $551 $552 forward $246 $-1 #
coedge $-1 -1 $-1 $553 $554 $419 $483 reversed $555 $-1 #
edge $556 -1 $-1 $557 -0.37824999999999992 $487 -0.099999999999999825 $482 $349 forward @7 unknown #
coedge $-1 -1 $-1 $558 $420 $554 $559 reversed $452 $-1 #
coedge $-1 -1 $-1 $420 $558 $422 $490 forward $452 $-1 #
color-adesk-attrib $-1 -1 $-1 $-1 $421 256 #
vertex $-1 -1 $-1 $421 $560 #
straight-curve $-1 -1 $-1 -2.3340760140649444 0.44879786666109306 -0.39999999999999997 0 0.99999999999999989 0 I I #
coedge $-1 -1 $-1 $423 $422 $527 $561 reversed $424 $-1 #
edge $562 -1 $-1 $563 -0.20000000000000001 $426 0.20000000000000001 $422 $564 forward @7 unknown #
point $-1 -1 $-1 -2.3340760140649444 0.5215478666610931 -0.39999999999999997 #
color-adesk-attrib $-1 -1 $-1 $-1 $428 256 #
vertex $-1 -1 $-1 $561 $565 #
straight-curve $-1 -1 $-1 -2.1340760140649446 0.5215478666610931 -0.19999999999999998 0 0 -0.99999999999999989 I I #
loop $-1 -1 $-1 $-1 $458 $514 #
color-adesk-attrib $-1 -1 $-1 $-1 $431 256 #
straight-curve $-1 -1 $-1 -2.2340760140649447 0.49879786666109316 0 -0.99999999999999989 0 0 I I #
point $-1 -1 $-1 -2.1340760140649446 0.49879786666109316 0 #
point $-1 -1 $-1 -1.8558260140649445 0.49879786666109316 0 #
color-adesk-attrib $-1 -1 $-1 $-1 $439 256 #
face $566 -1 $-1 $417 $567 $2 $-1 $568 reversed single #
loop $-1 -1 $-1 $-1 $569 $439 #
plane-surface $-1 -1 $-1 -2.6123260140649447 0.44879786666109306 0.045999999999999999 1 0 0 0 0 -0.99999999999999989 forward_v I I I I #
coedge $-1 -1 $-1 $547 $546 $570 $571 forward $440 $-1 #
coedge $-1 -1 $-1 $572 $442 $573 $574 forward $391 $-1 #
coedge $-1 -1 $-1 $442 $572 $546 $575 forward $391 $-1 #
edge $576 -1 $-1 $549 -0.09999999999999995 $577 0.10000000000000001 $476 $578 forward @7 unknown #
coedge $-1 -1 $-1 $443 $579 $455 $519 forward $354 $-1 #
coedge $-1 -1 $-1 $453 $460 $443 $510 reversed $403 $-1 #
edge $580 -1 $-1 $581 -0.099999999999999825 $463 0.10000000000000017 $443 $582 forward @7 unknown #
coedge $-1 -1 $-1 $583 $444 $547 $584 forward $354 $-1 #
point $-1 -1 $-1 -1.8558260140649445 0.39879786666109307 0 #
color-adesk-attrib $-1 -1 $-1 $-1 $451 256 #
face $585 -1 $-1 $586 $495 $2 $-1 $355 reversed single #
plane-surface $-1 -1 $-1 -2.2340760140649447 0.5215478666610931 -0.19999999999999998 0 -1 0 0 0 -0.99999999999999989 forward_v I I I I #
coedge $-1 -1 $-1 $455 $454 $453 $517 reversed $364 $-1 #
edge $587 -1 $-1 $581 -0.20000000000000001 $536 0.20000000000000001 $516 $588 forward @7 unknown #
edge $589 -1 $-1 $536 -0.07274999999999994 $524 -0.050000000000000003 $454 $488 forward @7 unknown #
edge $590 -1 $-1 $525 0.050000000000000003 $581 0.07274999999999994 $508 $591 forward @7 unknown #
coedge $-1 -1 $-1 $592 $456 $579 $593 reversed $522 $-1 #
coedge $-1 -1 $-1 $456 $592 $534 $594 reversed $522 $-1 #
loop $-1 -1 $-1 $-1 $456 $595 #
color-adesk-attrib $-1 -1 $-1 $-1 $457 256 #
vertex $-1 -1 $-1 $594 $596 #
vertex $-1 -1 $-1 $519 $597 #
straight-curve $-1 -1 $-1 -2.3340760140649444 0.39879786666109307 -0.19999999999999998 0 0 0.99999999999999989 I I #
coedge $-1 -1 $-1 $598 $458 $489 $561 forward $495 $-1 #
color-adesk-attrib $-1 -1 $-1 $-1 $459 256 #
straight-curve $-1 -1 $-1 -2.1340760140649451 0.44879786666109306 0 0 0.99999999999999989 0 I I #
color-adesk-attrib $-1 -1 $-1 $-1 $461 256 #
straight-curve $-1 -1 $-1 -2.1340760140649446 0.37604786666109313 -0.19999999999999998 0 0 -0.99999999999999989 I I #
point $-1 -1 $-1 -2.1340760140649446 0.37604786666109313 0 #
point $-1 -1 $-1 -2.1340760140649446 0.37604786666109313 -0.39999999999999997 #
coedge $-1 -1 $-1 $481 $467 $521 $594 forward $246 $-1 #
color-adesk-attrib $-1 -1 $-1 $-1 $469 256 #
vertex $-1 -1 $-1 $518 $599 #
straight-curve $-1 -1 $-1 -2.2340760140649447 0.37604786666109313 -0.39999999999999997 -0.99999999999999989 0 0 I I #
coedge $-1 -1 $-1 $600 $573 $470 $539 forward $567 $-1 #
edge $601 -1 $-1 $577 -0.045999999999999999 $542 0.045999999999999999 $470 $602 forward @7 unknown #
coedge $-1 -1 $-1 $471 $603 $600 $604 forward $495 $-1 #
color-adesk-attrib $-1 -1 $-1 $-1 $472 256 #
vertex $-1 -1 $-1 $472 $605 #
straight-curve $-1 -1 $-1 -1.8558260140649445 0.44879786666109306 0 0 -0.99999999999999989 0 I I #
color-adesk-attrib $-1 -1 $-1 $-1 $473 256 #
vertex $-1 -1 $-1 $478 $606 #
coedge $-1 -1 $-1 $504 $477 $506 $575 reversed $440 $-1 #
coedge $-1 -1 $-1 $477 $504 $511 $584 reversed $440 $-1 #
color-adesk-attrib $-1 -1 $-1 $-1 $478 256 #
vertex $-1 -1 $-1 $507 $607 #
straight-curve $-1 -1 $-1 -1.8558260140649445 0.34879786666109314 0.045999999999999999 0 0 -0.99999999999999989 I I #
coedge $-1 -1 $-1 $608 $609 $481 $552 reversed $502 $-1 #
edge $610 -1 $-1 $611 -0.050000000000000003 $557 0.050000000000000086 $551 $612 forward @7 unknown #
coedge $-1 -1 $-1 $613 $482 $609 $614 reversed $555 $-1 #
coedge $-1 -1 $-1 $482 $613 $484 $559 forward $555 $-1 #
loop $-1 -1 $-1 $-1 $554 $586 #
color-adesk-attrib $-1 -1 $-1 $-1 $483 256 #
vertex $-1 -1 $-1 $483 $615 #
coedge $-1 -1 $-1 $485 $484 $598 $616 reversed $452 $-1 #
edge $617 -1 $-1 $618 -0.20000000000000001 $487 0.20000000000000001 $554 $619 forward @7 unknown #
point $-1 -1 $-1 -2.3340760140649444 0.49879786666109316 -0.39999999999999997 #
edge $620 -1 $-1 $493 -0.10000000000000017 $563 0.099999999999999825 $527 $621 forward @7 unknown #
color-adesk-attrib $-1 -1 $-1 $-1 $490 256 #
vertex $-1 -1 $-1 $616 $622 #
straight-curve $-1 -1 $-1 -2.3340760140649444 0.5215478666610931 -0.19999999999999998 0 0 -0.99999999999999989 I I #
point $-1 -1 $-1 -2.1340760140649446 0.5215478666610931 0 #
color-adesk-attrib $-1 -1 $-1 $-1 $501 256 #
loop $-1 -1 $-1 $-1 $538 $501 #
plane-surface $-1 -1 $-1 -2.2340760140649447 0.54879786666109309 0.045999999999999999 0 -1 0 0 0 -0.99999999999999989 forward_v I I I I #
coedge $-1 -1 $-1 $623 $624 $625 $626 forward $502 $-1 #
coedge $-1 -1 $-1 $624 $627 $504 $571 reversed $502 $-1 #
edge $628 -1 $-1 $629 -0.045999999999999999 $630 0.045999999999999999 $570 $631 forward @7 unknown #
coedge $-1 -1 $-1 $506 $505 $624 $632 forward $391 $-1 #
coedge $-1 -1 $-1 $538 $625 $505 $574 reversed $567 $-1 #
edge $633 -1 $-1 $577 -0.37825000000000025 $634 0.37824999999999992 $573 $635 forward @7 unknown #
edge $636 -1 $-1 $629 -0.37824999999999992 $549 0.37825000000000025 $546 $637 forward @7 unknown #
color-adesk-attrib $-1 -1 $-1 $-1 $507 256 #
vertex $-1 -1 $-1 $507 $638 #
straight-curve $-1 -1 $-1 -1.8558260140649445 0.44879786666109306 0.091999999999999998 0 0.99999999999999989 0 I I #
coedge $-1 -1 $-1 $508 $583 $520 $593 forward $354 $-1 #
color-adesk-attrib $-1 -1 $-1 $-1 $510 256 #
vertex $-1 -1 $-1 $510 $639 #
straight-curve $-1 -1 $-1 -2.2340760140649447 0.37604786666109313 0 0.99999999999999989 0 0 I I #
coedge $-1 -1 $-1 $579 $511 $627 $640 forward $354 $-1 #
edge $641 -1 $-1 $545 -0.37825000000000025 $630 0.37824999999999992 $547 $642 forward @7 unknown #
color-adesk-attrib $-1 -1 $-1 $-1 $514 256 #
face $643 -1 $-1 $595 $555 $2 $-1 $323 reversed single #
color-adesk-attrib $-1 -1 $-1 $-1 $517 256 #
straight-curve $-1 -1 $-1 -2.3340760140649444 0.37604786666109313 -0.19999999999999998 0 0 -0.99999999999999989 I I #
color-adesk-attrib $-1 -1 $-1 $-1 $518 256 #
color-adesk-attrib $-1 -1 $-1 $-1 $519 256 #
straight-curve $-1 -1 $-1 -2.3340760140649444 0.44879786666109306 0 0 -0.99999999999999989 0 I I #
coedge $-1 -1 $-1 $521 $520 $608 $644 forward $522 $-1 #
edge $645 -1 $-1 $646 -0.37824999999999992 $525 -0.099999999999999825 $579 $447 forward @7 unknown #
edge $647 -1 $-1 $524 0.099999999999999825 $611 0.37824999999999992 $521 $412 forward @7 unknown #
face $648 -1 $-1 $212 $522 $2 $-1 $287 reversed single #
point $-1 -1 $-1 -2.3340760140649444 0.39879786666109307 -0.39999999999999997 #
point $-1 -1 $-1 -2.3340760140649444 0.39879786666109307 0 #
coedge $-1 -1 $-1 $649 $527 $558 $616 forward $495 $-1 #
point $-1 -1 $-1 -2.3340760140649444 0.37604786666109313 -0.39999999999999997 #
coedge $-1 -1 $-1 $625 $538 $540 $604 reversed $567 $-1 #
color-adesk-attrib $-1 -1 $-1 $-1 $539 256 #
straight-curve $-1 -1 $-1 -1.8558260140649445 0.54879786666109309 0.045999999999999999 0 0 -0.99999999999999989 I I #
coedge $-1 -1 $-1 $540 $649 $623 $650 forward $495 $-1 #
edge $651 -1 $-1 $652 -0.37824999999999992 $542 0.37825000000000025 $600 $653 forward @7 unknown #
point $-1 -1 $-1 -1.8558260140649445 0.54879786666109309 0 #
point $-1 -1 $-1 -1.8558260140649445 0.34879786666109314 0 #
point $-1 -1 $-1 -1.8558260140649445 0.34879786666109314 0.091999999999999998 #
coedge $-1 -1 $-1 $627 $551 $592 $644 reversed $502 $-1 #
coedge $-1 -1 $-1 $551 $623 $553 $614 forward $502 $-1 #
color-adesk-attrib $-1 -1 $-1 $-1 $552 256 #
vertex $-1 -1 $-1 $552 $654 #
straight-curve $-1 -1 $-1 -2.6123260140649447 0.44879786666109306 -0.39999999999999997 0 0.99999999999999989 0 I I #
coedge $-1 -1 $-1 $554 $553 $649 $655 reversed $555 $-1 #
edge $656 -1 $-1 $657 -0.20000000000000001 $557 0.20000000000000001 $553 $658 forward @7 unknown #
point $-1 -1 $-1 -2.6123260140649447 0.49879786666109316 -0.39999999999999997 #
edge $659 -1 $-1 $563 -0.072749999999999995 $618 -0.050000000000000086 $598 $660 forward @7 unknown #
color-adesk-attrib $-1 -1 $-1 $-1 $559 256 #
vertex $-1 -1 $-1 $655 $661 #
straight-curve $-1 -1 $-1 -2.3340760140649444 0.49879786666109316 -0.19999999999999998 0 0 -0.99999999999999989 I I #
color-adesk-attrib $-1 -1 $-1 $-1 $561 256 #
straight-curve $-1 -1 $-1 -2.2340760140649447 0.5215478666610931 0 -0.99999999999999989 0 0 I I #
point $-1 -1 $-1 -2.3340760140649444 0.5215478666610931 0 #
coedge $-1 -1 $-1 $609 $569 $603 $650 reversed $502 $-1 #
coedge $-1 -1 $-1 $569 $570 $572 $632 reversed $502 $-1 #
coedge $-1 -1 $-1 $573 $600 $569 $626 reversed $567 $-1 #
edge $662 -1 $-1 $634 -0.045999999999999999 $652 0.045999999999999999 $625 $663 forward @7 unknown #
coedge $-1 -1 $-1 $570 $608 $583 $640 reversed $502 $-1 #
color-adesk-attrib $-1 -1 $-1 $-1 $571 256 #
vertex $-1 -1 $-1 $632 $664 #
vertex $-1 -1 $-1 $640 $665 #
straight-curve $-1 -1 $-1 -2.6123260140649447 0.34879786666109314 0.045999999999999999 0 0 -0.99999999999999989 I I #
edge $666 -1 $-1 $634 -0.10000000000000001 $629 0.09999999999999995 $624 $667 forward @7 unknown #
color-adesk-attrib $-1 -1 $-1 $-1 $574 256 #
vertex $-1 -1 $-1 $574 $668 #
straight-curve $-1 -1 $-1 -2.2340760140649447 0.54879786666109309 0.091999999999999998 -0.99999999999999989 0 0 I I #
color-adesk-attrib $-1 -1 $-1 $-1 $575 256 #
straight-curve $-1 -1 $-1 -2.2340760140649447 0.34879786666109314 0.091999999999999998 0.99999999999999989 0 0 I I #
point $-1 -1 $-1 -1.8558260140649445 0.54879786666109309 0.091999999999999998 #
point $-1 -1 $-1 -2.3340760140649444 0.37604786666109313 0 #
edge $669 -1 $-1 $630 -0.09999999999999995 $646 -0.050000000000000003 $627 $670 forward @7 unknown #
color-adesk-attrib $-1 -1 $-1 $-1 $584 256 #
straight-curve $-1 -1 $-1 -2.2340760140649447 0.34879786666109314 0 -0.99999999999999989 0 0 I I #
color-adesk-attrib $-1 -1 $-1 $-1 $586 256 #
edge $671 -1 $-1 $646 -0.20000000000000001 $611 0.20000000000000001 $608 $672 forward @7 unknown #
color-adesk-attrib $-1 -1 $-1 $-1 $593 256 #
vertex $-1 -1 $-1 $640 $673 #
color-adesk-attrib $-1 -1 $-1 $-1 $594 256 #
color-adesk-attrib $-1 -1 $-1 $-1 $595 256 #
coedge $-1 -1 $-1 $603 $598 $613 $655 forward $495 $-1 #
edge $674 -1 $-1 $657 0.050000000000000086 $652 0.10000000000000001 $623 $670 forward @7 unknown #
color-adesk-attrib $-1 -1 $-1 $-1 $604 256 #
vertex $-1 -1 $-1 $604 $675 #
straight-curve $-1 -1 $-1 -2.2340760140649447 0.54879786666109309 0 0.99999999999999989 0 0 I I #
point $-1 -1 $-1 -2.6123260140649447 0.39879786666109307 -0.39999999999999997 #
edge $676 -1 $-1 $618 0.099999999999999825 $657 0.37824999999999992 $649 $497 forward @7 unknown #
color-adesk-attrib $-1 -1 $-1 $-1 $614 256 #
vertex $-1 -1 $-1 $650 $677 #
straight-curve $-1 -1 $-1 -2.6123260140649447 0.49879786666109316 -0.19999999999999998 0 0 -0.99999999999999989 I I #
color-adesk-attrib $-1 -1 $-1 $-1 $616 256 #
straight-curve $-1 -1 $-1 -2.3340760140649444 0.44879786666109306 0 0 -0.99999999999999989 0 I I #
point $-1 -1 $-1 -2.3340760140649444 0.49879786666109316 0 #
color-adesk-attrib $-1 -1 $-1 $-1 $626 256 #
straight-curve $-1 -1 $-1 -2.6123260140649447 0.54879786666109309 0.045999999999999999 0 0 -0.99999999999999989 I I #
point $-1 -1 $-1 -2.6123260140649447 0.34879786666109314 0.091999999999999998 #
point $-1 -1 $-1 -2.6123260140649447 0.34879786666109314 0 #
color-adesk-attrib $-1 -1 $-1 $-1 $632 256 #
straight-curve $-1 -1 $-1 -2.6123260140649447 0.44879786666109306 0.091999999999999998 0 -0.99999999999999989 0 I I #
point $-1 -1 $-1 -2.6123260140649447 0.54879786666109309 0.091999999999999998 #
color-adesk-attrib $-1 -1 $-1 $-1 $640 256 #
straight-curve $-1 -1 $-1 -2.6123260140649447 0.44879786666109306 0 0 0.99999999999999989 0 I I #
color-adesk-attrib $-1 -1 $-1 $-1 $644 256 #
straight-curve $-1 -1 $-1 -2.6123260140649447 0.39879786666109307 -0.19999999999999998 0 0 -0.99999999999999989 I I #
point $-1 -1 $-1 -2.6123260140649447 0.39879786666109307 0 #
color-adesk-attrib $-1 -1 $-1 $-1 $650 256 #
point $-1 -1 $-1 -2.6123260140649447 0.54879786666109309 0 #
color-adesk-attrib $-1 -1 $-1 $-1 $655 256 #
point $-1 -1 $-1 -2.6123260140649447 0.49879786666109316 0 #
End-of-ACIS-data 