700 0 1 0           
28 Autodesk Inventor 6.0.0.9000 16 ASM 6.0.0.192 NT 24 Sun Nov 05 20:34:59 2006 
25.399999999999999 9.9999999999999995e-007 1e-010 
body $-1 -1 $-1 $1 $-1 $-1 #
lump $-1 -1 $-1 $-1 $2 $0 #
shell $-1 -1 $-1 $-1 $-1 $3 $-1 $1 #
face $-1 -1 $-1 $4 $5 $2 $-1 $6 forward single #
face $-1 -1 $-1 $7 $8 $2 $-1 $9 forward single #
loop $-1 -1 $-1 $10 $11 $3 #
cone-surface $-1 -1 $-1 0 0 0.0050000000000000001 0 0 -1 -0.11999999999999995 0 0 1 I I -0.70710678118654713 0.70710678118654791 0.11999999999999995 forward I I I I #
face $-1 -1 $-1 $12 $13 $2 $-1 $14 forward single #
loop $-1 -1 $-1 $15 $16 $4 #
cone-surface $-1 -1 $-1 0 0 0 0 0 1 -0.12499999999999994 0 0 1 I I 0 1 0.12499999999999994 forward I I I I #
loop $-1 -1 $-1 $-1 $17 $3 #
coedge $-1 -1 $-1 $11 $11 $18 $19 forward $5 $-1 #
face $-1 -1 $-1 $20 $21 $2 $-1 $22 forward single #
loop $-1 -1 $-1 $-1 $23 $7 #
plane-surface $-1 -1 $-1 0 0 0 0 0 -1 -0.39370078740157477 0 0 forward_v I I I I #
loop $-1 -1 $-1 $-1 $18 $4 #
coedge $-1 -1 $-1 $16 $16 $24 $25 forward $8 $-1 #
coedge $-1 -1 $-1 $17 $17 $23 $26 forward $10 $-1 #
coedge $-1 -1 $-1 $18 $18 $11 $19 reversed $15 $-1 #
edge $-1 -1 $-1 $27 -3.1415926535897931 $27 3.1415926535897931 $18 $28 forward @7 unknown #
face $-1 -1 $-1 $29 $30 $2 $-1 $31 forward single #
loop $-1 -1 $-1 $32 $33 $12 #
cone-surface $-1 -1 $-1 0 0 1.3699999999999999 0 0 -1 -0.089999999999999997 0 0 1 I I 0.70710678118654946 0.70710678118654557 0.089999999999999997 forward I I I I #
coedge $-1 -1 $-1 $23 $23 $17 $26 reversed $13 $-1 #
coedge $-1 -1 $-1 $24 $24 $16 $25 reversed $34 $-1 #
edge $-1 -1 $-1 $35 -3.1415926535897931 $35 3.1415926535897931 $16 $36 forward @7 unknown #
edge $-1 -1 $-1 $37 -3.1415926535897931 $37 3.1415926535897931 $23 $38 forward @7 unknown #
vertex $-1 -1 $-1 $19 $39 #
ellipse-curve $-1 -1 $-1 0 0 0.01 0 0 -1 -0.12499999999999994 0 0 1 I I #
face $-1 -1 $-1 $40 $41 $2 $-1 $42 reversed single #
loop $-1 -1 $-1 $43 $44 $20 #
cone-surface $-1 -1 $-1 0 0 0.99999999999999989 0 0 1 -0.095000000000000001 0 0 1 I I 0 1 0.095000000000000001 forward I I I I #
loop $-1 -1 $-1 $-1 $45 $12 #
coedge $-1 -1 $-1 $33 $33 $46 $47 forward $21 $-1 #
loop $-1 -1 $-1 $-1 $24 $40 #
vertex $-1 -1 $-1 $25 $48 #
ellipse-curve $-1 -1 $-1 0 0 0.99999999999999989 0 0 -1 -0.12499999999999994 0 0 1 I I #
vertex $-1 -1 $-1 $26 $49 #
ellipse-curve $-1 -1 $-1 0 0 0 0 0 1 -0.11499999999999996 0 0 1 I I #
point $-1 -1 $-1 0.12499999999999994 -1.530757942277971e-017 0.01 #
face $-1 -1 $-1 $-1 $50 $2 $-1 $51 reversed single #
loop $-1 -1 $-1 $-1 $46 $29 #
plane-surface $-1 -1 $-1 0 0 1.375 0 0 -1 -0.39370078740157477 0 0 forward_v I I I I #
loop $-1 -1 $-1 $-1 $52 $20 #
coedge $-1 -1 $-1 $44 $44 $53 $54 reversed $30 $-1 #
coedge $-1 -1 $-1 $45 $45 $52 $55 forward $32 $-1 #
coedge $-1 -1 $-1 $46 $46 $33 $47 reversed $41 $-1 #
edge $-1 -1 $-1 $56 -3.1415926535897931 $56 3.1415926535897931 $46 $57 forward @7 unknown #
point $-1 -1 $-1 0.12499999999999994 1.530757942277971e-017 0.99999999999999989 #
point $-1 -1 $-1 0.11499999999999996 1.4082973068957334e-017 0 #
loop $-1 -1 $-1 $34 $53 $40 #
plane-surface $-1 -1 $-1 0 0 0.99999999999999989 0 0 -1 -0.39370078740157477 0 0 forward_v I I I I #
coedge $-1 -1 $-1 $52 $52 $45 $55 reversed $43 $-1 #
coedge $-1 -1 $-1 $53 $53 $44 $54 forward $50 $-1 #
edge $-1 -1 $-1 $58 -3.1415926535897931 $58 3.1415926535897931 $53 $59 forward @7 unknown #
edge $-1 -1 $-1 $60 -3.1415926535897931 $60 3.1415926535897931 $52 $61 forward @7 unknown #
vertex $-1 -1 $-1 $47 $62 #
ellipse-curve $-1 -1 $-1 0 0 1.375 0 0 -1 -0.084999999999999992 0 0 1 I I #
vertex $-1 -1 $-1 $54 $63 #
ellipse-curve $-1 -1 $-1 0 0 0.99999999999999989 0 0 -1 -0.095000000000000001 0 0 1 I I #
vertex $-1 -1 $-1 $55 $64 #
ellipse-curve $-1 -1 $-1 0 0 1.365 0 0 1 -0.095000000000000001 0 0 1 I I #
point $-1 -1 $-1 0.084999999999999992 -1.0409154007490206e-017 1.375 #
point $-1 -1 $-1 0.095000000000000001 1.1633760361312583e-017 0.99999999999999989 #
point $-1 -1 $-1 0.095000000000000001 1.1633760361312583e-017 1.365 #
End-of-ACIS-data 