400 0 1 0           
7 Unknown 11 ACIS 6.0 NT 24 Fri Dec 07 17:12:31 2001 
25.399999999999999 9.9999999999999995e-007 1e-010 
body $-1 $1 $-1 $-1 #
lump $-1 $-1 $2 $0 #
shell $-1 $-1 $-1 $3 $-1 $1 #
face $-1 $4 $5 $2 $-1 $6 reversed single #
face $-1 $7 $8 $2 $-1 $9 reversed single #
loop $-1 $10 $11 $3 #
cone-surface $-1 0.47629328040628599 -0.25736122555223723 -2.6249030458285501 0 0 1 -0.049999999999999975 -0.086602540378443879 0 1 I I 0 1 0.099999999999999992 reversed I I I I #
face $-1 $12 $13 $2 $-1 $14 reversed single #
loop $-1 $15 $16 $4 #
cone-surface $-1 -0.47633466375659655 -0.25728954748691168 -2.6249030458285501 0 0 1 -0.050000000000000031 0.086602540378443837 0 1 I I 0 1 0.099999999999999992 reversed I I I I #
loop $-1 $-1 $17 $3 #
coedge $-1 $11 $11 $18 $19 reversed $5 $-1 #
face $-1 $20 $21 $2 $-1 $22 forward single #
loop $-1 $23 $24 $7 #
cone-surface $-1 4.1383350310868496e-005 0.56767461348042558 -2.6249030458285501 0 0 1 0.099999999999999992 0 0 1 I I 0 1 0.099999999999999992 reversed I I I I #
loop $-1 $-1 $25 $4 #
coedge $-1 $16 $16 $26 $27 reversed $8 $-1 #
coedge $-1 $17 $17 $28 $29 reversed $10 $-1 #
coedge $-1 $18 $18 $11 $19 forward $30 $-1 #
edge $-1 $31 $31 $18 $32 forward #
face $-1 $33 $30 $2 $-1 $34 reversed single #
loop $-1 $35 $36 $12 #
cone-surface $-1 0 0.017674613480425583 0 0 0 -1 -0.75 0 0 1 I I 0 1 0.75 forward I I I I #
loop $-1 $-1 $37 $7 #
coedge $-1 $24 $24 $38 $39 reversed $13 $-1 #
coedge $-1 $25 $25 $40 $41 reversed $15 $-1 #
coedge $-1 $26 $26 $16 $27 forward $42 $-1 #
edge $-1 $43 $43 $26 $44 forward #
coedge $-1 $28 $28 $17 $29 forward $45 $-1 #
edge $-1 $46 $46 $28 $47 forward #
loop $-1 $42 $18 $20 #
vertex $-1 $19 $48 #
ellipse-curve $-1 0.47629328040628599 -0.25736122555223723 -0.23399999999999999 0 0 1 -0.049999999999999975 -0.086602540378443879 0 1 I I #
face $-1 $49 $50 $2 $-1 $51 reversed single #
plane-surface $-1 0.068181818181818163 0.017674613480425573 -0.23399999999999999 0 0 1 0.39370078740157477 0 0 forward_v I I I I #
loop $-1 $-1 $52 $12 #
coedge $-1 $36 $36 $53 $54 forward $21 $-1 #
coedge $-1 $37 $37 $55 $56 reversed $23 $-1 #
coedge $-1 $38 $38 $24 $39 forward $57 $-1 #
edge $-1 $58 $58 $38 $59 forward #
coedge $-1 $40 $40 $25 $41 forward $60 $-1 #
edge $-1 $61 $61 $40 $62 forward #
loop $-1 $57 $26 $20 #
vertex $-1 $27 $63 #
ellipse-curve $-1 -0.47633466375659655 -0.25728954748691168 -0.23399999999999999 0 0 1 -0.050000000000000031 0.086602540378443837 0 1 I I #
loop $-1 $60 $28 $64 #
vertex $-1 $29 $65 #
ellipse-curve $-1 0.47629328040628599 -0.25736122555223723 0 0 0 -1 -0.049999999999999975 -0.086602540378443879 0 1 I I #
point $-1 0.52629328040628598 -0.17075868517379336 -0.23399999999999999 #
face $-1 $64 $66 $2 $-1 $67 forward single #
loop $-1 $68 $69 $33 #
cone-surface $-1 0 0.017674613480425583 0 0 0 -1 -0.24999999999999997 0 0 1 I I 0 1 0.24999999999999997 forward I I I I #
coedge $-1 $52 $52 $70 $71 forward $35 $-1 #
coedge $-1 $53 $53 $36 $54 reversed $72 $-1 #
edge $-1 $73 $73 $36 $74 forward #
coedge $-1 $55 $55 $37 $56 forward $75 $-1 #
edge $-1 $76 $76 $55 $77 forward #
loop $-1 $78 $38 $20 #
vertex $-1 $39 $79 #
ellipse-curve $-1 4.1383350310868496e-005 0.56767461348042558 -0.23399999999999999 0 0 1 0.099999999999999992 0 0 1 I I #
loop $-1 $75 $40 $64 #
vertex $-1 $41 $80 #
ellipse-curve $-1 -0.47633466375659655 -0.25728954748691168 0 0 0 -1 -0.050000000000000031 0.086602540378443837 0 1 I I #
point $-1 -0.42633466375659657 -0.34389208786535552 -0.23399999999999999 #
face $-1 $81 $45 $2 $-1 $82 forward single #
point $-1 0.426293280406286 -0.34396376593068112 0 #
loop $-1 $83 $84 $49 #
cone-surface $-1 0 0.017674613480425583 0 0 0 -1 -0.38999999999999996 0 0 1 I I 0 1 0.38999999999999996 forward I I I I #
loop $-1 $-1 $85 $33 #
coedge $-1 $69 $69 $86 $87 reversed $50 $-1 #
coedge $-1 $70 $70 $52 $71 reversed $88 $-1 #
edge $-1 $89 $89 $52 $90 forward #
loop $-1 $-1 $53 $20 #
vertex $-1 $54 $91 #
ellipse-curve $-1 0 0.017674613480425583 -0.23399999999999999 0 0 1 -0.75 0 0 1 I I #
loop $-1 $88 $55 $64 #
vertex $-1 $56 $92 #
ellipse-curve $-1 4.1383350310868496e-005 0.56767461348042558 0 0 0 -1 0.099999999999999992 0 0 1 I I #
loop $-1 $72 $93 $20 #
point $-1 -0.099958616649689122 0.56767461348042558 -0.23399999999999999 #
point $-1 -0.52633466375659654 -0.17068700710846785 0 #
face $-1 $-1 $94 $2 $-1 $95 reversed single #
plane-surface $-1 0.03545454545454544 0.017674613480425583 0 0 0 1 0.39370078740157477 0 0 forward_v I I I I #
loop $-1 $-1 $96 $49 #
coedge $-1 $84 $84 $93 $97 forward $66 $-1 #
coedge $-1 $85 $85 $98 $99 reversed $68 $-1 #
coedge $-1 $86 $86 $69 $87 forward $94 $-1 #
edge $-1 $100 $100 $86 $101 forward #
loop $-1 $102 $70 $64 #
vertex $-1 $71 $103 #
ellipse-curve $-1 0 0.017674613480425583 0 0 0 -1 -0.75 0 0 1 I I #
point $-1 0.75 0.017674613480425674 -0.23399999999999999 #
point $-1 0.10004138335031086 0.56767461348042558 0 #
coedge $-1 $93 $93 $84 $97 reversed $78 $-1 #
loop $-1 $104 $86 $81 #
plane-surface $-1 0.03545454545454544 0.017674613480425583 -1.546 0 0 1 0.39370078740157477 0 0 forward_v I I I I #
coedge $-1 $96 $96 $105 $106 forward $83 $-1 #
edge $-1 $107 $107 $84 $108 forward #
coedge $-1 $98 $98 $85 $99 forward $102 $-1 #
edge $-1 $109 $109 $98 $110 forward #
vertex $-1 $87 $111 #
ellipse-curve $-1 0 0.017674613480425583 -1.546 0 0 1 -0.24999999999999997 0 0 1 I I #
loop $-1 $-1 $98 $64 #
point $-1 0.75 0.017674613480425674 0 #
loop $-1 $-1 $105 $81 #
coedge $-1 $105 $105 $96 $106 reversed $104 $-1 #
edge $-1 $112 $112 $96 $113 forward #
vertex $-1 $97 $114 #
ellipse-curve $-1 0 0.017674613480425583 -0.23399999999999999 0 0 -1 -0.38999999999999996 0 0 1 I I #
vertex $-1 $99 $115 #
ellipse-curve $-1 0 0.017674613480425583 0 0 0 -1 -0.24999999999999997 0 0 1 I I #
point $-1 0.24999999999999997 0.017674613480425611 -1.546 #
vertex $-1 $106 $116 #
ellipse-curve $-1 0 0.017674613480425583 -1.546 0 0 1 -0.38999999999999996 0 0 1 I I #
point $-1 0.38999999999999996 0.017674613480425629 -0.23399999999999999 #
point $-1 0.24999999999999997 0.017674613480425611 0 #
point $-1 0.38999999999999996 0.017674613480425629 -1.546 #
End-of-ACIS-data 