400 0 1 0           
7 Unknown 11 ACIS 6.0 NT 24 Fri Jan 11 21:46:18 2002 
25.399999999999999 9.9999999999999995e-007 1e-010 
body $-1 $1 $-1 $-1 #
lump $-1 $-1 $2 $0 #
shell $-1 $-1 $-1 $3 $-1 $1 #
face $-1 $4 $5 $2 $-1 $6 reversed single #
face $-1 $7 $8 $2 $-1 $9 reversed single #
loop $-1 $10 $11 $3 #
cone-surface $-1 -0.09902551554519122 -0.68541660984434705 0.1875 0 -1 0 0.036249999999999991 0 0 1 I I 0.85716730070211233 0.51503807491005416 0.036249999999999991 reversed I I I I #
face $-1 $12 $13 $2 $-1 $14 reversed single #
loop $-1 $15 $16 $4 #
cone-surface $-1 -0.09902551554519122 -0.9571978072840962 0.1875 0 -1 0 0.072499999999999981 0 0 1 I I 0 1 0.072499999999999981 reversed I I I I #
loop $-1 $-1 $17 $3 #
coedge $-1 $11 $11 $18 $19 forward $5 $-1 #
face $-1 $20 $21 $2 $-1 $22 reversed single #
loop $-1 $23 $24 $7 #
cone-surface $-1 0.65097448445480877 -0.68541660984434705 0.1875 0 -1 0 0.036249999999999991 0 0 1 I I 0.85716730070211233 0.51503807491005416 0.036249999999999991 reversed I I I I #
loop $-1 $-1 $18 $4 #
coedge $-1 $16 $16 $25 $26 reversed $8 $-1 #
coedge $-1 $17 $17 $-1 $27 reversed $10 $-1 #
coedge $-1 $18 $18 $11 $19 reversed $15 $-1 #
edge $-1 $28 $28 $18 $29 forward #
face $-1 $30 $31 $2 $-1 $32 reversed single #
loop $-1 $33 $34 $12 #
cone-surface $-1 0.65097448445480877 -0.9571978072840962 0.1875 0 -1 0 0.072499999999999981 0 0 1 I I 0 1 0.072499999999999981 reversed I I I I #
loop $-1 $-1 $35 $7 #
coedge $-1 $24 $24 $36 $37 forward $13 $-1 #
coedge $-1 $25 $25 $16 $26 forward $38 $-1 #
edge $-1 $39 $39 $25 $40 forward #
edge $-1 $41 $41 $17 $-1 forward #
vertex $-1 $19 $42 #
ellipse-curve $-1 -0.09902551554519122 -0.70719780728409609 0.1875 0 -1 0 0.072499999999999981 0 0 1 I I #
face $-1 $43 $44 $2 $-1 $45 reversed single #
loop $-1 $46 $47 $20 #
cone-surface $-1 0.27597448445480849 0.042802192715904089 -2.0844583603121332 0 0 1 0.20315 0 0 1 I I 0 1 0.20315 reversed I I I I #
loop $-1 $-1 $36 $12 #
coedge $-1 $34 $34 $48 $49 reversed $21 $-1 #
coedge $-1 $35 $35 $-1 $50 reversed $23 $-1 #
coedge $-1 $36 $36 $24 $37 reversed $33 $-1 #
edge $-1 $51 $51 $36 $52 forward #
loop $-1 $53 $25 $54 #
vertex $-1 $26 $55 #
ellipse-curve $-1 -0.09902551554519122 -1.2071978072840961 0.1875 0 1 0 0.072499999999999981 0 0 1 I I #
vertex $-1 $27 $56 #
point $-1 -0.026525515545191215 -0.70719780728409609 0.1875 #
face $-1 $57 $58 $2 $-1 $59 reversed single #
loop $-1 $60 $61 $30 #
cone-surface $-1 0.27597448445480849 0.042802192715904089 0.28749999999999998 0 0 1 0.43999999999999995 0 0 1 I I 0 1 0.43999999999999995 reversed I I I I #
loop $-1 $-1 $62 $20 #
coedge $-1 $47 $47 $63 $64 reversed $31 $-1 #
coedge $-1 $48 $48 $34 $49 forward $53 $-1 #
edge $-1 $65 $65 $48 $66 forward #
edge $-1 $67 $67 $35 $-1 forward #
vertex $-1 $37 $68 #
ellipse-curve $-1 0.65097448445480877 -0.70719780728409609 0.1875 0 -1 0 0.072499999999999981 0 0 1 I I #
loop $-1 $69 $48 $54 #
face $-1 $70 $38 $2 $-1 $71 forward single #
point $-1 -0.026525515545191215 -1.2071978072840961 0.1875 #
point $-1 -0.09902551554519122 -0.663635412404598 0.1875 #
face $-1 $72 $73 $2 $-1 $74 forward single #
loop $-1 $75 $76 $43 #
plane-surface $-1 0.27597448445480849 0.042802192715904089 0.19999999999999998 0 0 -1 0.39370078740157477 0 0 reverse_v I I I I #
loop $-1 $-1 $77 $30 #
coedge $-1 $61 $61 $78 $79 reversed $44 $-1 #
coedge $-1 $62 $62 $76 $80 reversed $46 $-1 #
coedge $-1 $63 $63 $47 $64 forward $81 $-1 #
edge $-1 $82 $82 $63 $83 forward #
vertex $-1 $49 $84 #
ellipse-curve $-1 0.65097448445480877 -1.2071978072840961 0.1875 0 1 0 0.072499999999999981 0 0 1 I I #
vertex $-1 $50 $85 #
point $-1 0.72347448445480866 -0.70719780728409609 0.1875 #
loop $-1 $-1 $86 $54 #
face $-1 $-1 $81 $2 $-1 $87 reversed single #
plane-surface $-1 0.90097448445480854 -1.2071978072840961 0 0 -1 0 0 0 -0.39370078740157477 forward_v I I I I #
face $-1 $88 $89 $2 $-1 $90 forward single #
loop $-1 $-1 $91 $57 #
plane-surface $-1 0.90097448445480832 0.66780219271590402 0 1 9.3247078183740156e-017 0 0 0 -0.39370078740157477 forward_v I I I I #
loop $-1 $-1 $92 $43 #
coedge $-1 $76 $76 $62 $80 forward $58 $-1 #
coedge $-1 $77 $77 $92 $93 reversed $60 $-1 #
coedge $-1 $78 $78 $61 $79 forward $89 $-1 #
edge $-1 $94 $94 $78 $95 forward #
edge $-1 $96 $96 $76 $97 forward #
loop $-1 $98 $63 $70 #
vertex $-1 $64 $99 #
ellipse-curve $-1 0.27597448445480849 0.042802192715904089 0 0 0 1 0.20315 0 0 1 I I #
point $-1 0.72347448445480866 -1.2071978072840961 0.1875 #
point $-1 0.65097448445480877 -0.663635412404598 0.1875 #
coedge $-1 $100 $101 $102 $103 forward $69 $-1 #
plane-surface $-1 0.27597448445480854 -0.26969780728409604 0 0 0 1 0.39370078740157477 0 0 forward_v I I I I #
face $-1 $104 $105 $2 $-1 $106 forward single #
loop $-1 $107 $78 $72 #
plane-surface $-1 0.27597448445480854 -0.26969780728409604 0.375 0 0 1 0.39370078740157477 0 0 forward_v I I I I #
coedge $-1 $108 $109 $110 $111 reversed $73 $-1 #
coedge $-1 $92 $92 $77 $93 forward $75 $-1 #
edge $-1 $112 $112 $92 $113 forward #
vertex $-1 $79 $114 #
ellipse-curve $-1 0.27597448445480849 0.042802192715904089 0.375 0 0 -1 0.43999999999999995 0 0 1 I I #
vertex $-1 $80 $115 #
ellipse-curve $-1 0.27597448445480849 0.042802192715904089 0.19999999999999998 0 0 -1 0.20315 0 0 1 I I #
loop $-1 $-1 $116 $70 #
point $-1 0.072824484454808491 0.042802192715904089 0 #
coedge $-1 $117 $86 $118 $119 reversed $69 $-1 #
coedge $-1 $86 $117 $120 $121 forward $69 $-1 #
coedge $-1 $122 $123 $86 $103 reversed $107 $-1 #
edge $-1 $124 $125 $86 $126 forward #
face $-1 $54 $127 $2 $-1 $128 forward single #
loop $-1 $-1 $129 $88 #
cone-surface $-1 0.27597448445480854 0.042802192715904089 0 0 0 1 -0.44194173824159216 0.44194173824159216 0 1 I I 0 1 0.62499999999999989 forward I I I I #
loop $-1 $-1 $130 $72 #
coedge $-1 $120 $91 $122 $131 forward $73 $-1 #
coedge $-1 $91 $120 $132 $133 forward $73 $-1 #
coedge $-1 $134 $129 $91 $111 forward $105 $-1 #
edge $-1 $135 $136 $91 $137 forward #
vertex $-1 $93 $138 #
ellipse-curve $-1 0.27597448445480849 0.042802192715904089 0.19999999999999998 0 0 1 0.43999999999999995 0 0 1 I I #
point $-1 0.71597448445480838 0.042802192715904089 0.375 #
point $-1 0.47912448445480849 0.042802192715904089 0.19999999999999998 #
coedge $-1 $132 $139 $134 $140 reversed $98 $-1 #
coedge $-1 $101 $100 $141 $142 forward $69 $-1 #
coedge $-1 $143 $144 $100 $119 forward $127 $-1 #
edge $145 $146 $125 $118 $147 forward #
coedge $-1 $109 $108 $101 $121 reversed $73 $-1 #
edge $-1 $148 $124 $101 $149 forward #
coedge $-1 $130 $102 $108 $131 reversed $107 $-1 #
coedge $-1 $102 $130 $143 $150 reversed $107 $-1 #
vertex $-1 $121 $151 #
vertex $-1 $119 $152 #
straight-curve $-1 -0.34902551554519129 -1.2071978072840961 0.375 -0.39370078740157477 0 0 F -3.1749999999999998 F 0 #
loop $-1 $-1 $153 $104 #
plane-surface $-1 -0.34902551554519118 -1.2071978072840961 0 -1 -1.6318238682154527e-016 0 0 0 0.39370078740157477 forward_v I I I I #
coedge $-1 $110 $154 $130 $155 forward $105 $-1 #
coedge $-1 $123 $122 $129 $155 reversed $107 $-1 #
edge $-1 $135 $124 $108 $156 forward #
coedge $-1 $141 $116 $109 $133 reversed $98 $-1 #
edge $157 $148 $136 $109 $158 forward #
coedge $-1 $154 $110 $116 $140 forward $105 $-1 #
vertex $-1 $131 $159 #
vertex $-1 $111 $160 #
straight-curve $-1 0.90097448445480854 0.042802192715904151 0 0 0 -0.39370078740157477 F -5.8737509999999995 F 4.9212509999999998 #
point $-1 0.71597448445480838 0.042802192715904089 0.19999999999999998 #
coedge $-1 $116 $141 $144 $161 reversed $98 $-1 #
edge $-1 $136 $162 $116 $163 forward #
coedge $-1 $139 $132 $117 $142 reversed $98 $-1 #
edge $164 $146 $148 $117 $165 forward #
coedge $-1 $153 $118 $123 $150 forward $127 $-1 #
coedge $-1 $118 $153 $139 $161 forward $127 $-1 #
convexity-sys-attrib $-1 $-1 $-1 $119 #
vertex $-1 $161 $166 #
straight-curve $-1 -0.34902551554519118 -1.2071978072840961 0 0 0 0.39370078740157477 I I #
vertex $-1 $142 $167 #
straight-curve $-1 0.90097448445480854 -1.2071978072840961 0 0 0 0.39370078740157477 I I #
edge $168 $125 $169 $143 $170 forward #
point $-1 0.90097448445480854 -1.2071978072840961 0.375 #
point $-1 -0.34902551554519118 -1.2071978072840961 0.375 #
coedge $-1 $144 $143 $154 $171 reversed $127 $-1 #
coedge $-1 $129 $134 $153 $171 forward $105 $-1 #
edge $-1 $169 $135 $130 $172 forward #
straight-curve $-1 0.90097448445480854 -1.2071978072840963 0.375 3.6711448103834702e-017 -0.39370078740157477 0 F -4.7625000000000011 F 0 #
convexity-sys-attrib $-1 $-1 $-1 $133 #
straight-curve $-1 0.90097448445480854 -1.2071978072840963 0 -3.6711448103834702e-017 0.39370078740157477 0 F 0 F 4.7625000000000011 #
point $-1 0.90097448445480832 0.042802192715904089 0.375 #
point $-1 0.90097448445480832 0.042802192715904089 0 #
edge $-1 $162 $146 $144 $173 forward #
vertex $-1 $161 $174 #
ellipse-curve $-1 0.27597448445480854 0.042802192715904089 0 0 0 1 -0.44194173824159216 0.44194173824159216 0 1 I I #
convexity-sys-attrib $-1 $-1 $-1 $142 #
straight-curve $-1 -0.34902551554519129 -1.2071978072840961 0 0.39370078740157477 0 0 F 0 F 3.1749999999999998 #
point $-1 -0.34902551554519118 -1.2071978072840961 0 #
point $-1 0.90097448445480854 -1.2071978072840961 0 #
convexity-sys-attrib $-1 $-1 $-1 $150 #
vertex $-1 $171 $175 #
straight-curve $-1 -0.34902551554519151 0.66780219271590413 0.375 -6.4245034181710728e-017 0.39370078740157477 0 F -4.7625000000000011 F 0 #
edge $-1 $162 $169 $153 $176 forward #
ellipse-curve $-1 0.27597448445480849 0.042802192715904089 0.375 0 0 -1 0.44194173824159216 0.44194173824159216 0 1 I I #
straight-curve $-1 -0.34902551554519151 0.66780219271590413 0 6.4245034181710728e-017 -0.39370078740157477 0 F 0 F 4.7625000000000011 #
point $-1 -0.3490255155451914 0.042802192715903999 0 #
point $-1 -0.3490255155451914 0.042802192715903999 0.375 #
straight-curve $-1 -0.3490255155451914 0.042802192715903985 0 0 0 0.39370078740157477 F -4.9212509999999998 F 5.8737509999999995 #
End-of-ACIS-data 