700 0 1 0           
28 Autodesk Inventor 6.0.0.9000 16 ASM 6.0.0.192 NT 24 Mon Jan 15 08:12:45 2007 
25.399999999999999 9.9999999999999995e-007 1e-010 
body $-1 -1 $-1 $1 $-1 $-1 #
lump $-1 -1 $-1 $-1 $2 $0 #
shell $-1 -1 $-1 $-1 $-1 $3 $-1 $1 #
face $-1 -1 $-1 $4 $5 $2 $-1 $6 reversed single #
face $-1 -1 $-1 $7 $8 $2 $-1 $9 reversed single #
loop $-1 -1 $-1 $10 $11 $3 #
cone-surface $-1 -1 $-1 0.74999999999999911 -5.3940255192804267 0.52500000000000002 -1.4404585958234489e-016 -1 1.479887714168708e-032 -0.12499999999999999 1.8005732447793111e-017 -7.7236122417674735e-051 1 I I 0 1 0.12499999999999999 forward I I I I #
face $-1 -1 $-1 $12 $13 $2 $-1 $14 reversed single #
loop $-1 -1 $-1 $15 $16 $4 #
cone-surface $-1 -1 $-1 -0.74999999999999911 -5.3940255192804267 0.52500000000000002 -1.4404585958234489e-016 1 -1.479887714168708e-032 0.12499999999999999 1.8005732447793111e-017 -7.7236122417674735e-051 1 I I 0 1 0.12499999999999999 reversed I I I I #
loop $-1 -1 $-1 $-1 $17 $3 #
coedge $-1 -1 $-1 $11 $11 $18 $19 reversed $5 $-1 #
face $-1 -1 $-1 $20 $21 $2 $-1 $22 reversed single #
loop $-1 -1 $-1 $23 $24 $7 #
cone-surface $-1 -1 $-1 -0.70710678118654757 -0.70710678118654757 -3.8240255192804264 0 0 1 -0.095000000000000001 1.1633760361312583e-017 0 1 I I 0 1 0.095000000000000001 reversed I I I I #
loop $-1 -1 $-1 $-1 $25 $4 #
coedge $-1 -1 $-1 $16 $16 $26 $27 reversed $8 $-1 #
coedge $-1 -1 $-1 $17 $17 $28 $29 reversed $10 $-1 #
coedge $-1 -1 $-1 $18 $18 $11 $19 forward $30 $-1 #
edge $-1 -1 $-1 $31 -3.1415926535897931 $31 3.1415926535897931 $18 $32 forward @7 unknown #
face $-1 -1 $-1 $33 $34 $2 $-1 $35 reversed single #
loop $-1 -1 $-1 $36 $37 $12 #
cone-surface $-1 -1 $-1 -0.70710678118654746 0.70710678118654768 -3.8240255192804264 0 0 1 2.1094237467877975e-017 0.095000000000000001 0 1 I I 0 1 0.095000000000000001 reversed I I I I #
loop $-1 -1 $-1 $-1 $38 $7 #
coedge $-1 -1 $-1 $24 $24 $39 $40 reversed $13 $-1 #
coedge $-1 -1 $-1 $25 $25 $41 $42 reversed $15 $-1 #
coedge $-1 -1 $-1 $26 $26 $16 $27 forward $43 $-1 #
edge $-1 -1 $-1 $44 -3.1415926535897931 $44 3.1415926535897931 $26 $45 forward @7 unknown #
coedge $-1 -1 $-1 $28 $28 $17 $29 forward $46 $-1 #
edge $-1 -1 $-1 $47 -1.8629352727143223e-047 $47 6.2831853071795862 $28 $48 forward @7 unknown #
loop $-1 -1 $-1 $43 $18 $49 #
vertex $-1 -1 $-1 $19 $50 #
ellipse-curve $-1 -1 $-1 0.74999999999999967 -1.5699999999999998 0.52500000000000002 -1.4404585958234489e-016 1 6.8682339482250855e-032 -0.12499999999999999 1.8005732447793111e-017 -7.7236122417674735e-051 1 I I #
face $-1 -1 $-1 $51 $52 $2 $-1 $53 reversed single #
loop $-1 -1 $-1 $54 $55 $20 #
cone-surface $-1 -1 $-1 0.70710678118654746 -0.70710678118654768 -3.8240255192804264 0 0 1 -2.1094237467877975e-017 -0.095000000000000001 0 1 I I 0 1 0.095000000000000001 reversed I I I I #
loop $-1 -1 $-1 $-1 $56 $12 #
coedge $-1 -1 $-1 $37 $37 $57 $58 reversed $21 $-1 #
coedge $-1 -1 $-1 $38 $38 $59 $60 reversed $23 $-1 #
coedge $-1 -1 $-1 $39 $39 $24 $40 forward $61 $-1 #
edge $-1 -1 $-1 $62 -3.1415926535897931 $62 3.1415926535897931 $39 $63 forward @7 unknown #
coedge $-1 -1 $-1 $41 $41 $25 $42 forward $64 $-1 #
edge $-1 -1 $-1 $65 1.8629352727143223e-047 $65 6.2831853071795862 $41 $66 forward @7 unknown #
loop $-1 -1 $-1 $67 $26 $49 #
vertex $-1 -1 $-1 $27 $68 #
ellipse-curve $-1 -1 $-1 -0.74999999999999967 -1.5699999999999998 0.52500000000000002 -1.4404585958234489e-016 1 6.8682339482250855e-032 0.12499999999999999 1.8005732447793111e-017 -7.7236122417674735e-051 1 I I #
loop $-1 -1 $-1 $64 $28 $69 #
vertex $-1 -1 $-1 $29 $70 #
ellipse-curve $-1 -1 $-1 0.74999999999999967 -1.4949999999999999 0.52500000000000002 1.4404585958234489e-016 -1 1.479887714168708e-032 -0.12499999999999999 1.8005732447793111e-017 -7.7236122417674735e-051 1 I I #
face $-1 -1 $-1 $71 $30 $2 $-1 $72 reversed single #
point $-1 -1 $-1 0.87499999999999967 -1.5699999999999998 0.52500000000000002 #
face $-1 -1 $-1 $73 $74 $2 $-1 $75 forward single #
loop $-1 -1 $-1 $76 $77 $33 #
cone-surface $-1 -1 $-1 0.70710678118654757 0.70710678118654757 -3.8240255192804264 0 0 1 0.095000000000000001 0 0 1 I I 0 1 0.095000000000000001 reversed I I I I #
loop $-1 -1 $-1 $-1 $78 $20 #
coedge $-1 -1 $-1 $55 $55 $79 $80 reversed $34 $-1 #
coedge $-1 -1 $-1 $56 $56 $81 $82 reversed $36 $-1 #
coedge $-1 -1 $-1 $57 $57 $37 $58 forward $83 $-1 #
edge $-1 -1 $-1 $84 -3.1415926535897931 $84 3.1415926535897931 $57 $85 forward @7 unknown #
coedge $-1 -1 $-1 $59 $59 $38 $60 forward $86 $-1 #
edge $-1 -1 $-1 $87 -1.2246063538223773e-016 $87 6.2831853071795862 $59 $88 forward @7 unknown #
loop $-1 -1 $-1 $83 $39 $89 #
vertex $-1 -1 $-1 $40 $90 #
ellipse-curve $-1 -1 $-1 -0.70710678118654757 -0.70710678118654757 0 0 0 1 -0.095000000000000001 1.1633760361312583e-017 0 1 I I #
loop $-1 -1 $-1 $91 $41 $69 #
vertex $-1 -1 $-1 $42 $92 #
ellipse-curve $-1 -1 $-1 -0.74999999999999967 -1.4949999999999999 0.52500000000000002 1.4404585958234489e-016 -1 1.479887714168708e-032 0.12499999999999999 1.8005732447793111e-017 -7.7236122417674735e-051 1 I I #
loop $-1 -1 $-1 $-1 $93 $49 #
point $-1 -1 $-1 -0.87499999999999967 -1.5699999999999998 0.52500000000000002 #
face $-1 -1 $-1 $-1 $46 $2 $-1 $94 forward single #
point $-1 -1 $-1 0.62499999999999978 -1.4949999999999997 0.52500000000000002 #
face $-1 -1 $-1 $95 $96 $2 $-1 $97 forward single #
plane-surface $-1 -1 $-1 0 -1.5699999999999996 0.49999999999999989 -1.4404585958234489e-016 1 6.8682339482250855e-032 0 -2.7040291134744428e-032 0.39370078740157477 forward_v I I I I #
face $-1 -1 $-1 $98 $99 $2 $-1 $100 forward single #
loop $-1 -1 $-1 $-1 $101 $51 #
cone-surface $-1 -1 $-1 3.4967654318902565e-016 -1.4199999999999997 0.14999999999999999 -1 -1.3987061727561032e-016 0 -3.4967654318902565e-016 -6.9935308637805131e-016 -0.14999999999999999 1 I I 0 1 0.14999999999999999 forward I I I I #
loop $-1 -1 $-1 $-1 $102 $33 #
coedge $-1 -1 $-1 $77 $77 $103 $104 reversed $52 $-1 #
coedge $-1 -1 $-1 $78 $78 $105 $106 reversed $54 $-1 #
coedge $-1 -1 $-1 $79 $79 $55 $80 forward $107 $-1 #
edge $-1 -1 $-1 $108 -3.1415926535897931 $108 3.1415926535897931 $79 $109 forward @7 unknown #
coedge $-1 -1 $-1 $81 $81 $56 $82 forward $110 $-1 #
edge $-1 -1 $-1 $111 -2.2204460492503131e-016 $111 6.2831853071795862 $81 $112 forward @7 unknown #
loop $-1 -1 $-1 $107 $57 $89 #
vertex $-1 -1 $-1 $58 $113 #
ellipse-curve $-1 -1 $-1 -0.70710678118654746 0.70710678118654768 0 0 0 1 2.1094237467877975e-017 0.095000000000000001 0 1 I I #
loop $-1 -1 $-1 $110 $59 $98 #
vertex $-1 -1 $-1 $60 $114 #
ellipse-curve $-1 -1 $-1 -0.70710678118654757 -0.70710678118654757 0.075000000000000039 0 0 -1 -0.095000000000000001 1.1633760361312583e-017 0 1 I I #
face $-1 -1 $-1 $115 $61 $2 $-1 $116 reversed single #
point $-1 -1 $-1 -0.6121067811865476 -0.70710678118654757 0 #
loop $-1 -1 $-1 $-1 $117 $69 #
point $-1 -1 $-1 -0.62499999999999978 -1.4949999999999997 0.52500000000000002 #
coedge $-1 -1 $-1 $118 $119 $101 $120 forward $67 $-1 #
plane-surface $-1 -1 $-1 0 -1.4949999999999997 0.49999999999999978 -1.4404585958234489e-016 1 -1.479887714168708e-032 0 5.8263295833413696e-033 0.39370078740157477 forward_v I I I I #
face $-1 -1 $-1 $69 $121 $2 $-1 $122 forward single #
loop $-1 -1 $-1 $-1 $123 $71 #
plane-surface $-1 -1 $-1 1.2499999999999998 -1.5699999999999998 -4.3100961624163907e-048 1 5.2439617716312387e-049 8.5643223314385167e-033 3.3717804454482346e-033 0 -0.39370078740157477 forward_v I I I I #
face $-1 -1 $-1 $89 $86 $2 $-1 $124 forward single #
loop $-1 -1 $-1 $-1 $125 $73 #
cone-surface $-1 -1 $-1 3.4967654318902565e-016 -1.4199999999999997 0.14999999999999999 -1 -1.3987061727561032e-016 0 -1.7483827159451283e-016 -3.4967654318902565e-016 -0.074999999999999997 1 I I 0 -1 0.074999999999999997 forward I I I I #
coedge $-1 -1 $-1 $126 $127 $93 $120 reversed $74 $-1 #
coedge $-1 -1 $-1 $102 $102 $128 $129 reversed $76 $-1 #
coedge $-1 -1 $-1 $103 $103 $77 $104 forward $130 $-1 #
edge $-1 -1 $-1 $131 -3.1415926535897931 $131 3.1415926535897931 $103 $132 forward @7 unknown #
coedge $-1 -1 $-1 $105 $105 $78 $106 forward $133 $-1 #
edge $-1 -1 $-1 $134 -2.2204460492503131e-016 $134 6.2831853071795862 $105 $135 forward @7 unknown #
loop $-1 -1 $-1 $130 $79 $89 #
vertex $-1 -1 $-1 $80 $136 #
ellipse-curve $-1 -1 $-1 0.70710678118654746 -0.70710678118654768 0 0 0 1 -2.1094237467877975e-017 -0.095000000000000001 0 1 I I #
loop $-1 -1 $-1 $133 $81 $98 #
vertex $-1 -1 $-1 $82 $137 #
ellipse-curve $-1 -1 $-1 -0.70710678118654746 0.70710678118654768 0.075000000000000039 0 0 -1 2.1094237467877975e-017 0.095000000000000001 0 1 I I #
point $-1 -1 $-1 -0.70710678118654746 0.61210678118654771 0 #
point $-1 -1 $-1 -0.80210678118654744 -0.70710678118654757 0.074999999999999997 #
face $-1 -1 $-1 $138 $139 $2 $-1 $140 forward single #
plane-surface $-1 -1 $-1 0 -0.16000000000000003 0 0 0 1 0.39370078740157477 0 0 forward_v I I I I #
coedge $-1 -1 $-1 $141 $142 $125 $143 forward $91 $-1 #
coedge $-1 -1 $-1 $144 $93 $145 $146 forward $67 $-1 #
coedge $-1 -1 $-1 $93 $144 $147 $148 forward $67 $-1 #
edge $-1 -1 $-1 $149 -4.7624999999999993 $150 1.5874999999999999 $93 $151 forward @7 unknown #
loop $-1 -1 $-1 $-1 $152 $95 #
plane-surface $-1 -1 $-1 1.2499999999999998 -1.5699999999999998 0.99999999999999989 -8.5643223314385112e-033 6.1230317691118826e-017 1 0.39370078740157477 0 3.3717804454482325e-033 forward_v I I I I #
coedge $-1 -1 $-1 $153 $154 $142 $155 forward $96 $-1 #
plane-surface $-1 -1 $-1 0 -0.16000000000000006 0.074999999999999997 0 0 1 0.39370078740157477 0 0 forward_v I I I I #
coedge $-1 -1 $-1 $156 $157 $117 $143 reversed $99 $-1 #
coedge $-1 -1 $-1 $158 $101 $159 $160 reversed $74 $-1 #
coedge $-1 -1 $-1 $101 $158 $161 $162 forward $74 $-1 #
coedge $-1 -1 $-1 $128 $128 $102 $129 forward $163 $-1 #
edge $-1 -1 $-1 $164 0 $164 6.2831853071795862 $128 $165 forward @7 unknown #
loop $-1 -1 $-1 $166 $103 $89 #
vertex $-1 -1 $-1 $104 $167 #
ellipse-curve $-1 -1 $-1 0.70710678118654757 0.70710678118654757 0 0 0 1 0.095000000000000001 0 0 1 I I #
loop $-1 -1 $-1 $163 $105 $98 #
vertex $-1 -1 $-1 $106 $168 #
ellipse-curve $-1 -1 $-1 0.70710678118654746 -0.70710678118654768 0.075000000000000039 0 0 -1 -2.1094237467877975e-017 -0.095000000000000001 0 1 I I #
point $-1 -1 $-1 0.70710678118654746 -0.61210678118654771 0 #
point $-1 -1 $-1 -0.70710678118654746 0.80210678118654766 0.074999999999999997 #
face $-1 -1 $-1 $169 $170 $2 $-1 $171 reversed single #
loop $-1 -1 $-1 $-1 $172 $115 #
cone-surface $-1 -1 $-1 0 0 0 0 0 1 -0.88388347648318422 0.88388347648318422 0 1 I I 0 1 1.2499999999999996 forward I I I I #
coedge $-1 -1 $-1 $173 $117 $174 $175 reversed $91 $-1 #
coedge $-1 -1 $-1 $117 $173 $123 $155 reversed $91 $-1 #
edge $-1 -1 $-1 $176 -1.5874999999999999 $177 4.7624999999999993 $117 $178 forward @7 unknown #
coedge $-1 -1 $-1 $119 $118 $179 $180 forward $67 $-1 #
coedge $-1 -1 $-1 $161 $153 $118 $146 reversed $96 $-1 #
edge $-1 -1 $-1 $150 0.38100000000000001 $181 2.54 $118 $182 forward @7 unknown #
coedge $-1 -1 $-1 $183 $159 $119 $148 reversed $184 $-1 #
edge $-1 -1 $-1 $185 0 $149 2.1589999999999998 $119 $186 forward @7 unknown #
vertex $-1 -1 $-1 $120 $187 #
vertex $-1 -1 $-1 $146 $188 #
straight-curve $-1 -1 $-1 0.62499999999999989 -1.5699999999999996 0.14999999999999999 0.39370078740157477 5.6710968339505861e-017 0 I I #
coedge $-1 -1 $-1 $189 $190 $173 $191 forward $121 $-1 #
coedge $-1 -1 $-1 $145 $123 $190 $192 reversed $96 $-1 #
coedge $-1 -1 $-1 $123 $193 $156 $194 forward $96 $-1 #
edge $-1 -1 $-1 $176 0.38100000000000001 $195 2.54 $123 $196 forward @7 unknown #
coedge $-1 -1 $-1 $197 $125 $154 $194 reversed $99 $-1 #
coedge $-1 -1 $-1 $125 $197 $198 $199 forward $99 $-1 #
coedge $-1 -1 $-1 $127 $126 $200 $201 reversed $74 $-1 #
coedge $-1 -1 $-1 $147 $202 $126 $160 forward $184 $-1 #
edge $-1 -1 $-1 $203 -2.3311769545935038e-015 $149 1.5707963267948919 $159 $204 forward @7 unknown #
coedge $-1 -1 $-1 $205 $145 $127 $162 reversed $96 $-1 #
edge $-1 -1 $-1 $206 -2.3311769545935038e-015 $150 1.5707963267948919 $127 $207 forward @7 unknown #
loop $-1 -1 $-1 $208 $128 $98 #
vertex $-1 -1 $-1 $129 $209 #
ellipse-curve $-1 -1 $-1 0.70710678118654757 0.70710678118654757 0.075000000000000039 0 0 -1 0.095000000000000001 0 0 1 I I #
loop $-1 -1 $-1 $210 $200 $89 #
point $-1 -1 $-1 0.61210678118654749 0.70710678118654757 0 #
point $-1 -1 $-1 0.70710678118654746 -0.80210678118654766 0.074999999999999997 #
face $-1 -1 $-1 $49 $184 $2 $-1 $211 forward single #
loop $-1 -1 $-1 $212 $213 $138 #
cone-surface $-1 -1 $-1 0 0 0 0 0 1 -0.375 0 0 1 I I 0 1 0.375 forward I I I I #
coedge $-1 -1 $-1 $214 $215 $216 $217 forward $139 $-1 #
coedge $-1 -1 $-1 $142 $141 $152 $191 reversed $91 $-1 #
coedge $-1 -1 $-1 $198 $183 $141 $175 forward $184 $-1 #
edge $-1 -1 $-1 $218 -5.4383446804634572e-032 $177 2.1589999999999998 $174 $219 forward @7 unknown #
vertex $-1 -1 $-1 $155 $220 #
vertex $-1 -1 $-1 $143 $221 #
straight-curve $-1 -1 $-1 0.62499999999999989 -1.4949999999999994 0.14999999999999999 -0.39370078740157477 -5.6710968339505861e-017 0 I I #
coedge $-1 -1 $-1 $190 $189 $144 $180 reversed $121 $-1 #
edge $-1 -1 $-1 $181 0 $185 6.3499999999999996 $144 $222 forward @7 unknown #
vertex $-1 -1 $-1 $146 $223 #
straight-curve $-1 -1 $-1 1.2499999999999998 -1.5699999999999998 -4.3100961624163907e-048 -3.3717804454482346e-033 2.410642428784207e-017 0.39370078740157477 F 0 F 2.54 #
coedge $-1 -1 $-1 $174 $147 $189 $224 forward $184 $-1 #
loop $-1 -1 $-1 $-1 $147 $169 #
vertex $-1 -1 $-1 $180 $225 #
straight-curve $-1 -1 $-1 -1.2499999999999998 -1.5700000000000003 0.99999999999999989 3.3717804454482346e-033 -2.410642428784207e-017 -0.39370078740157477 F 0 F 2.54 #
point $-1 -1 $-1 -1.2499999999999996 -1.5699999999999998 0.14999999999999999 #
point $-1 -1 $-1 1.2499999999999998 -1.5699999999999996 0.14999999999999999 #
coedge $-1 -1 $-1 $179 $152 $183 $224 reversed $121 $-1 #
coedge $-1 -1 $-1 $152 $179 $153 $192 forward $121 $-1 #
edge $-1 -1 $-1 $195 -1.2423006381433259e-031 $218 6.3499999999999996 $152 $226 forward @7 unknown #
edge $-1 -1 $-1 $181 0 $195 0.190500000000001 $190 $227 forward @7 unknown #
coedge $-1 -1 $-1 $154 $228 $229 $230 forward $96 $-1 #
edge $-1 -1 $-1 $231 6.7929824920348089e-031 $176 1.5707963267948919 $154 $232 forward @7 unknown #
vertex $-1 -1 $-1 $192 $233 #
straight-curve $-1 -1 $-1 1.2499999999999998 -1.4949999999999999 -4.5922738268339143e-018 -3.3717804454482346e-033 2.410642428784207e-017 0.39370078740157477 F 0 F 2.54 #
coedge $-1 -1 $-1 $157 $156 $234 $235 reversed $99 $-1 #
coedge $-1 -1 $-1 $236 $174 $157 $199 reversed $184 $-1 #
edge $-1 -1 $-1 $237 6.7929824920348089e-031 $177 1.5707963267948919 $157 $238 forward @7 unknown #
coedge $-1 -1 $-1 $239 $240 $158 $201 forward $166 $-1 #
edge $-1 -1 $-1 $206 -4.7624999999999984 $203 1.5874999999999992 $200 $241 forward @7 unknown #
coedge $-1 -1 $-1 $159 $242 $239 $243 reversed $184 $-1 #
vertex $-1 -1 $-1 $243 $244 #
ellipse-curve $-1 -1 $-1 -1.2499999999999991 -1.4199999999999997 0.14999999999999999 -1 -1.3987061727561032e-016 0 -3.4967654318902565e-016 -6.9935308637805131e-016 -0.14999999999999999 1 F -2.3311769545935038e-015 F 1.5707963267949434 #
coedge $-1 -1 $-1 $228 $161 $240 $245 reversed $96 $-1 #
vertex $-1 -1 $-1 $201 $246 #
ellipse-curve $-1 -1 $-1 1.2499999999999998 -1.4199999999999995 0.14999999999999999 -1 -1.3987061727561032e-016 0 -3.4967654318902565e-016 -6.9935308637805131e-016 -0.14999999999999999 1 F -2.3311769545935038e-015 F 1.570796326794893 #
loop $-1 -1 $-1 $247 $248 $98 #
point $-1 -1 $-1 0.80210678118654744 0.70710678118654757 0.074999999999999997 #
loop $-1 -1 $-1 $-1 $249 $89 #
plane-surface $-1 -1 $-1 -1.2499999999999998 -1.5700000000000003 0.99999999999999989 -1 -5.2439617716312387e-049 -8.5643223314385167e-033 -3.3717804454482346e-033 0 0.39370078740157477 forward_v I I I I #
loop $-1 -1 $-1 $-1 $250 $138 #
coedge $-1 -1 $-1 $213 $213 $248 $251 reversed $170 $-1 #
coedge $-1 -1 $-1 $252 $172 $228 $253 forward $139 $-1 #
coedge $-1 -1 $-1 $172 $252 $242 $254 forward $139 $-1 #
coedge $-1 -1 $-1 $255 $229 $172 $217 reversed $247 $-1 #
edge $-1 -1 $-1 $256 -2.3561944901923448 $257 0.78539816339744828 $216 $258 forward @7 unknown #
vertex $-1 -1 $-1 $224 $259 #
straight-curve $-1 -1 $-1 -1.2499999999999998 -1.4950000000000001 0.99999999999999989 3.3717804454482346e-033 -2.410642428784207e-017 -0.39370078740157477 F 0 F 2.54 #
point $-1 -1 $-1 1.2499999999999998 -1.4949999999999994 0.14999999999999999 #
point $-1 -1 $-1 -1.2499999999999996 -1.4949999999999999 0.14999999999999999 #
straight-curve $-1 -1 $-1 1.2499999999999998 -1.5699999999999998 0.99999999999999989 -0.39370078740157477 -5.5067172155752081e-017 0 F 0 F 6.3499999999999996 #
point $-1 -1 $-1 1.2499999999999998 -1.5699999999999998 0.99999999999999989 #
edge $-1 -1 $-1 $185 0 $218 0.190500000000001 $183 $260 forward @7 unknown #
point $-1 -1 $-1 -1.2499999999999998 -1.5700000000000003 0.99999999999999989 #
straight-curve $-1 -1 $-1 1.2499999999999998 -1.4949999999999999 0.99999999999999989 -0.39370078740157477 -5.5067172155752081e-017 0 F 0 F 6.3499999999999996 #
straight-curve $-1 -1 $-1 1.2499999999999998 -1.5699999999999998 0.99999999999999989 0 0.39370078740157477 -2.4106424287842054e-017 I I #
coedge $-1 -1 $-1 $193 $205 $214 $253 reversed $96 $-1 #
coedge $-1 -1 $-1 $216 $234 $193 $230 reversed $247 $-1 #
edge $-1 -1 $-1 $257 3.1749999999999998 $231 6.7817999999999996 $193 $261 forward @7 unknown #
vertex $-1 -1 $-1 $194 $262 #
ellipse-curve $-1 -1 $-1 1.2499999999999998 -1.4199999999999995 0.14999999999999999 -1 -1.3987061727561032e-016 0 -1.7483827159451283e-016 -3.4967654318902565e-016 -0.074999999999999997 1 F 6.7929824920348089e-031 F 1.5707963267948939 #
point $-1 -1 $-1 1.2499999999999998 -1.4949999999999994 0.99999999999999989 #
coedge $-1 -1 $-1 $229 $255 $197 $235 forward $247 $-1 #
edge $-1 -1 $-1 $237 -1.5874999999999992 $231 4.7624999999999984 $234 $263 forward @7 unknown #
coedge $-1 -1 $-1 $242 $198 $255 $264 forward $184 $-1 #
vertex $-1 -1 $-1 $264 $265 #
ellipse-curve $-1 -1 $-1 -1.2499999999999991 -1.4199999999999997 0.14999999999999999 -1 -1.3987061727561032e-016 0 -1.7483827159451283e-016 -3.4967654318902565e-016 -0.074999999999999997 1 F 6.7929824920348089e-031 F 1.5707963267949949 #
coedge $-1 -1 $-1 $266 $200 $202 $243 forward $166 $-1 #
coedge $-1 -1 $-1 $200 $266 $205 $245 forward $166 $-1 #
straight-curve $-1 -1 $-1 -0.62499999999999944 -1.4200000000000002 0 -0.39370078740157477 -5.5067172155752088e-017 0 I I #
coedge $-1 -1 $-1 $202 $236 $215 $254 reversed $184 $-1 #
edge $-1 -1 $-1 $203 0.38100000000000023 $267 3.9878000000000009 $239 $268 forward @7 unknown #
point $-1 -1 $-1 -1.2499999999999991 -1.4200000000000002 0 #
edge $-1 -1 $-1 $269 3.1749999999999998 $206 6.7817999999999996 $240 $270 forward @7 unknown #
point $-1 -1 $-1 1.2499999999999998 -1.4199999999999997 0 #
loop $-1 -1 $-1 $-1 $234 $98 #
coedge $-1 -1 $-1 $248 $248 $213 $251 forward $208 $-1 #
coedge $-1 -1 $-1 $249 $249 $250 $271 forward $210 $-1 #
coedge $-1 -1 $-1 $250 $250 $249 $271 reversed $212 $-1 #
edge $-1 -1 $-1 $272 -3.1415926535897931 $272 3.1415926535897931 $248 $273 forward @7 unknown #
coedge $-1 -1 $-1 $215 $214 $266 $274 forward $139 $-1 #
edge $-1 -1 $-1 $257 -0.1905 $269 0 $228 $275 forward @7 unknown #
edge $-1 -1 $-1 $267 0 $256 0.1905 $242 $276 forward @7 unknown #
coedge $-1 -1 $-1 $234 $216 $236 $264 reversed $247 $-1 #
vertex $-1 -1 $-1 $217 $277 #
vertex $-1 -1 $-1 $230 $278 #
ellipse-curve $-1 -1 $-1 0 0 0.074999999999999997 0 0 -1 0.88388347648318422 0.88388347648318422 0 1 I I #
point $-1 -1 $-1 -1.2499999999999998 -1.4949999999999999 0.99999999999999989 #
straight-curve $-1 -1 $-1 -1.2499999999999998 -1.5700000000000003 0.99999999999999989 0 0.39370078740157477 -2.4106424287842054e-017 I I #
straight-curve $-1 -1 $-1 1.2499999999999998 1.2499999999999998 0.074999999999999997 0 -0.39370078740157477 0 F 0 F 7.1627999999999998 #
point $-1 -1 $-1 1.2499999999999998 -1.4199999999999997 0.074999999999999997 #
straight-curve $-1 -1 $-1 -0.62499999999999944 -1.4200000000000002 0.074999999999999997 0.39370078740157477 5.5067172155752088e-017 0 I I #
edge $-1 -1 $-1 $237 0.38100000000000023 $256 3.9878000000000009 $236 $279 forward @7 unknown #
point $-1 -1 $-1 -1.2499999999999991 -1.4200000000000002 0.074999999999999997 #
coedge $-1 -1 $-1 $240 $239 $252 $274 reversed $166 $-1 #
vertex $-1 -1 $-1 $274 $280 #
straight-curve $-1 -1 $-1 -1.2499999999999998 -1.5700000000000003 0 0 0.39370078740157477 0 F 0 F 7.1628000000000007 #
vertex $-1 -1 $-1 $245 $281 #
straight-curve $-1 -1 $-1 1.2499999999999998 1.2499999999999998 0 0 -0.39370078740157477 0 F 0 F 7.1627999999999998 #
edge $-1 -1 $-1 $282 -3.1415926535897931 $282 3.1415926535897931 $249 $283 forward @7 unknown #
vertex $-1 -1 $-1 $251 $284 #
ellipse-curve $-1 -1 $-1 0 0 0.074999999999999997 0 0 -1 -0.375 0 0 1 I I #
edge $-1 -1 $-1 $269 -0.78539816339744828 $267 2.3561944901923448 $266 $285 forward @7 unknown #
straight-curve $-1 -1 $-1 1.2499999999999998 0 0 0 0 -0.39370078740157477 F -10.033000999999999 F 9.8425009999999986 #
straight-curve $-1 -1 $-1 -1.2499999999999998 0 0 0 0 0.39370078740157477 F -9.8425009999999986 F 10.033000999999999 #
point $-1 -1 $-1 -1.2499999999999998 0 0.074999999999999997 #
point $-1 -1 $-1 1.2499999999999998 0 0.074999999999999997 #
straight-curve $-1 -1 $-1 -1.2499999999999998 -1.5700000000000003 0.074999999999999997 0 0.39370078740157477 0 F 0 F 7.1628000000000007 #
point $-1 -1 $-1 -1.2499999999999998 0 0 #
point $-1 -1 $-1 1.2499999999999998 0 0 #
vertex $-1 -1 $-1 $271 $286 #
ellipse-curve $-1 -1 $-1 0 0 0 0 0 1 -0.375 0 0 1 I I #
point $-1 -1 $-1 0.375 4.5922738268339147e-017 0.074999999999999997 #
ellipse-curve $-1 -1 $-1 0 0 0 0 0 1 0.88388347648318422 0.88388347648318422 0 1 I I #
point $-1 -1 $-1 0.375 4.5922738268339147e-017 0 #
End-of-ACIS-data 