400 0 1 0           
7 Unknown 11 ACIS 6.0 NT 24 Tue Jan 01 14:26:25 2002 
25.399999999999999 9.9999999999999995e-007 1e-010 
body $-1 $1 $-1 $-1 #
lump $-1 $-1 $2 $0 #
shell $-1 $-1 $-1 $3 $-1 $1 #
face $-1 $4 $5 $2 $-1 $6 forward single #
face $-1 $7 $8 $2 $-1 $9 forward single #
loop $-1 $10 $11 $3 #
torus-surface $-1 0 0 0.4375 0 0 -1 1.1549999999999998 -0.12499999999999999 -1 0 0 forward_v I I I I #
face $-1 $12 $13 $2 $-1 $14 forward single #
loop $-1 $15 $16 $4 #
cone-surface $-1 0 0 0.31249999999999994 0 0 1 -1.03 0 0 1 I I 0 1 1.03 forward I I I I #
loop $-1 $-1 $17 $3 #
coedge $-1 $18 $18 $19 $20 reversed $5 $-1 #
face $-1 $21 $22 $2 $-1 $23 forward single #
loop $-1 $24 $25 $7 #
plane-surface $-1 -1.9400503398856369e-016 3.4967654318902565e-016 0.31249999999999994 0 0 1 0.39370078740157477 0 0 forward_v I I I I #
loop $-1 $-1 $26 $4 #
coedge $-1 $27 $28 $29 $30 reversed $8 $-1 #
coedge $-1 $17 $17 $31 $32 forward $10 $-1 #
coedge $-1 $11 $11 $26 $33 forward $5 $-1 #
coedge $-1 $34 $35 $11 $20 forward $36 $37 #
edge $-1 $38 $39 $19 $40 forward #
face $-1 $41 $42 $2 $-1 $43 forward single #
loop $-1 $-1 $44 $12 #
cone-surface $-1 1.4374999999999996 1.3750000000000002 0.24999999999999997 6.3577553307095584e-017 -1 0 0.044194173824159154 0 0.044194173824159279 1 I I 0 1 0.062499999999999993 forward I I I I #
loop $-1 $45 $46 $7 #
coedge $-1 $47 $48 $49 $50 reversed $13 $-1 #
coedge $-1 $51 $52 $18 $33 reversed $15 $-1 #
coedge $-1 $28 $16 $53 $54 reversed $8 $-1 #
coedge $-1 $16 $27 $55 $56 reversed $8 $-1 #
coedge $-1 $53 $57 $16 $30 forward $58 $59 #
edge $60 $61 $62 $16 $63 forward #
coedge $-1 $31 $31 $17 $32 reversed $64 $-1 #
edge $-1 $65 $65 $31 $66 forward #
edge $-1 $38 $39 $26 $67 forward #
coedge $-1 $68 $19 $52 $69 forward $36 $70 #
coedge $-1 $19 $71 $51 $72 forward $36 $73 #
loop $-1 $-1 $19 $74 #
pcurve $-1 2 $75 0 0 #
vertex $-1 $33 $76 #
vertex $-1 $69 $77 #
intcurve-curve $-1 forward { surfintcur nubs 3 open 10 
	-1.1288094986503501 3 -1.1255964888370811 2 -0.90754888178410098 2 -0.71935800830338148 2 -0.62123535576251943 2 
	-0.54517472630769848 2 -0.46210455928486749 2 -0.33460323515871099 2 0 2 0.0032127515663679493 3 
	1.0066640183342199 -0.21800815166227391 0.43749999999984052 
	1.0067506635159371 -0.21760806301360869 0.43739828915708412 
	1.0068372041191602 -0.21720789075804819 0.43729681915953683 
	1.0127894034476115 -0.18964463373196835 0.43032581704781342 
	1.018129590815537 -0.16223275120089639 0.42460084929080588 
	1.0261388976515649 -0.11016339711889506 0.41631768386492762 
	1.0290308796207657 -0.085911218819232582 0.41347485032086279 
	1.0318328410200968 -0.048521812714060572 0.41074487538720805 
	1.032502854354959 -0.035694414536263465 0.41010042080880915 
	1.0331492896736867 -0.012840943102172625 0.40947905391526607 
	1.0332469626115459 -0.0028661473503916093 0.40938561000939189 
	1.0330621848492512 0.018026918905787632 0.40956287403673297 
	1.0327441605890439 0.028910938548875002 0.40986759142752233 
	1.0313899672993299 0.056495629501552388 0.41117505552874434 
	1.0300651866853674 0.073089063295309051 0.41245846433978606 
	1.0236192502372379 0.13307844579708636 0.41885177512658806 
	1.0159214916163357 0.17514071219905189 0.42665761700967597 
	1.0068371269900682 0.21720824740973302 0.43729690959458928 
	1.006750624746422 0.21760824203385909 0.43739833466621392 
	1.0066640183351558 0.21800815165795273 0.43749999999720807 
	7.7199669639990554e-006 
	torus 0 0 0.4375 0 0 -1 1.1549999999999998 -0.12499999999999999 -1 0 0 forward_v I I I I 
	spline forward { rbblnsur 11 blendsupsur cone 0 0 0.31249999999999994 0 0 1 -1.03 0 0 1 I I 0 1 1.03 forward I I I I null_curve nullbs 0 0 0 
	11 blendsupsur cone 0 0 0.93749999999999978 1 0 0 0 -0.375 0 1 I I 0 1 0.375 forward I I I I null_curve nullbs 0 0 0 
	intcurve forward { offintcur nubs 3 periodic 19 
	0 3 0.31227619176826377 2 0.64648454747544037 2 1.0220858320052382 2 1.3620373227771527 2 
	1.6853931166981542 2 2.012424047981944 2 2.3761072265580019 2 2.7248302903904085 2 3.0468099555726966 2 
	3.3626949330994709 2 3.7192500855127246 2 4.0781510530361986 2 4.4088255722334857 2 4.7281686454090943 2 
	5.0697689631094107 2 5.4420340032650349 2 5.6181330174229656 2 5.7988835834032315 3 
	1.0797684937059426 0.56249999999999989 0.93749999999999978 
	1.0797684937059426 0.56249999999999989 0.87349342250814532 
	1.0858658368454044 0.55113967981425316 0.80849106097918344 
	1.1070631396534856 0.50729795806529687 0.68525514153603073 
	1.1228872773027248 0.47279562780306328 0.62556953405189741 
	1.1572942353798934 0.38162204748749584 0.51754017891968718 
	1.17651501093358 0.32075885210108557 0.46926859539939764 
	1.2038736157666738 0.19209389011036568 0.40440298691360466 
	1.2132356010849796 0.1231921733836791 0.38425892257146022 
	1.2192270208245608 -0.012007382491556799 0.37124364975023311 
	1.2165260301675751 -0.080490638802036149 0.37690866554068231 
	1.2012641441238356 -0.20850106310870312 0.41084280894750558 
	1.1884555666355952 -0.27010691332263381 0.43978100903041478 
	1.1573110162074445 -0.38307208444901125 0.51922996062442484 
	1.138019539404745 -0.4347693273032438 0.57326812738895394 
	1.1056101174963646 -0.51146215578451981 0.69322557052215183 
	1.0919044529671516 -0.53877679450079508 0.76090002365102072 
	1.0786870094488945 -0.5647444119788595 0.89524907656599817 
	1.0781514656393065 -0.56572012066427113 0.96381643018661578 
	1.0889739235219762 -0.54459181708246274 1.092384979140725 
	1.1000696082881722 -0.52275949359056495 1.1546109397944093 
	1.1289202724108542 -0.45746892371952297 1.2725155813135802 
	1.1476860813682066 -0.41042184353309419 1.3286754100830342 
	1.1814412151951754 -0.29978318337543847 1.4188118612794178 
	1.1969022357241097 -0.23385896922941271 1.4542569106353631 
	1.2151364659062842 -0.099795002941322486 1.4951419640577155 
	1.2190089096442394 -0.029946270993100134 1.5032728404690539 
	1.214898352564689 0.10292441300702576 1.4943600380984665 
	1.2073124032787259 0.16825171628048616 1.4781074033428694 
	1.1841160561297612 0.29034662484059232 1.4241864997678073 
	1.1676908977010054 0.34843383609486328 1.3842956168931024 
	1.1329617396525524 0.44921483920314892 1.2840636144975506 
	1.1140542833560818 0.49211790438580116 1.2201077567618797 
	1.0942296424987557 0.53403130855674474 1.1177195972609502 
	1.0889877225093028 0.54449479279925395 1.0831765200473435 
	1.0817251241499553 0.558787030205941 1.011812386652885 
	1.0797684937059426 0.56249999999999989 0.97454805365596897 
	1.0797684937059426 0.56249999999999989 0.93749999999999978 
	1000 
	cone 0 0 0.93749999999999978 1 0 0 0 -0.375 0 1 I I 0 1 0.375 forward I I I I 
	cone 0 0 0.31249999999999994 0 0 1 -1.03 0 0 1 I I 0 1 1.03 forward I I I I 
	nullbs 
	nullbs 
	I I 
	0 
	0 
	0 
	0.1875 0.1875 } I I 0.1875 0.1875 
	no_radius 
	F 0 F 1 F 0 F 1 F 0 F 5.7988835834032315 0 2 
	I I 
	1 0.047625000000000001 0.012175617890707539 
	1 
	} I I I I 
	nullbs 
	nubs 3 open 10 
	-1.1288094986503501 3 -1.1255964888370811 3 -0.90754888178410098 3 -0.71935800830338148 3 -0.62123535576251943 3 
	-0.54517472630769848 3 -0.46210455928486749 3 -0.33460323515871099 3 0 3 0.0032127515663679493 3 
	0 1.8849423682235786 
	0.00044274430579510925 1.8841858934795197 
	0.00088423413160150966 1.8834289495514853 
	0.0013244708309873736 1.8826715350652508 
	0.031200681741256328 1.8312703798030807 
	0.055215399109770566 1.7779735857485319 
	0.07366991254619408 1.7221961587100447 
	0.089597493913406101 1.6740562003919992 
	0.10119540928396233 1.6247499095065985 
	0.10850165766198383 1.574765753789009 
	0.11231113289164894 1.5487040332958106 
	0.11492508910275744 1.522544250848181 
	0.11634465450496805 1.496223623867809 
	0.11744504300088096 1.4758209604263683 
	0.11782348775549853 1.4553883403353527 
	0.11748006861824968 1.4348975741909558 
	0.11710500092166898 1.4125184356242431 
	0.11587037875325817 1.3901444951083435 
	0.11377587319396408 1.3677461282216323 
	0.1105610941490851 1.3333677040692622 
	0.10534514359371129 1.2994443085978009 
	0.09812308054825368 1.2659972118813947 
	0.079170134952651461 1.1782215997873402 
	0.047153470752322554 1.095515845207516 
	0.0013238814821206514 1.0160633737714322 
	0.00088384065393192456 1.0153004969512573 
	0.00044254619440459641 1.0145381859953 
	0 1.0137764454659504 
	
	F -1.1255964888370811 F 0 
	0 
	2 -1.1255964888370811 0 
	0 
	} I I #
face $-1 $78 $79 $2 $-1 $80 forward single #
loop $-1 $-1 $81 $21 #
torus-surface $-1 -3.8941251400596041e-016 1.25 0.24999999999999997 0 0 -1 1.4374999999999998 0.062499999999999993 -1 0 0 forward_v I I I I #
coedge $-1 $49 $82 $83 $84 forward $22 $-1 #
loop $-1 $64 $85 $7 #
coedge $-1 $46 $46 $86 $87 forward $24 $-1 #
coedge $-1 $88 $25 $89 $90 reversed $13 $-1 #
coedge $-1 $25 $88 $91 $92 reversed $13 $-1 #
coedge $-1 $93 $44 $25 $50 forward $22 $-1 #
edge $-1 $94 $95 $25 $96 forward #
coedge $-1 $52 $26 $35 $72 reversed $15 $-1 #
coedge $-1 $26 $51 $34 $69 reversed $15 $-1 #
coedge $-1 $97 $29 $27 $54 forward $58 $98 #
edge $-1 $62 $61 $27 $99 forward #
coedge $-1 $55 $55 $28 $56 forward $100 $-1 #
edge $-1 $62 $62 $28 $101 forward #
coedge $-1 $29 $102 $97 $103 reversed $58 $104 #
loop $-1 $-1 $97 $105 #
pcurve $-1 0 reversed { exppc nubs 1 open 2 
	4.34773084835322 1 5.7988835834032315 1 
	0 10.146614431756456 
	0 11.597767166806463 
	0.012185357275029909 
	spline forward { rbblnsur 11 blendsupsur cone 0 0 0.31249999999999994 0 0 1 -1.03 0 0 1 I I 0 1 1.03 forward I I I I null_curve nullbs 0 0 0 
	11 blendsupsur cone 0 0 3.3749999999999996 1 0 0 0 -0.375 0 1 I I 0 1 0.375 forward I I I I null_curve nullbs 0 0 0 
	intcurve forward { offintcur nubs 3 periodic 19 
	0 3 0.31220560084272836 2 0.64622761350731228 2 1.0218636133960908 2 1.3618192911521707 2 
	1.6851901797553521 2 2.0120333337533078 2 2.3756078335888375 2 2.7243639066465111 2 3.0463523061464701 2 
	3.362042641944639 2 3.718402464762018 2 4.0773681894645817 2 4.4080729714924809 2 4.7273096015374119 2 
	5.0686453945446832 2 5.4410028202490652 2 5.6175320843901559 2 5.7988835834032315 3 
	1.0797684937059426 0.56249999999999989 3.3749999999999996 
	1.0797684937059426 0.56249999999999989 3.31100776074289 
	1.085862947270571 0.55114494246090562 3.2460203337506557 
	1.1070481070816749 0.50732981260364118 3.1228292009135434 
	1.12285944357731 0.47285796365489363 3.0631718790545999 
	1.1572571396416553 0.38173315998275226 2.9551398703768661 
	1.1764827617219891 0.32087684441115943 2.9068484530128402 
	1.2038528635087784 0.19222190304501724 2.8419491210123011 
	1.2132220559734725 0.12332516129453623 2.8217884684856473 
	1.2192284109405802 -0.01187483525178515 2.8087405145201632 
	1.2165348007915884 -0.080363368304414137 2.814389950292389 
	1.2012887508400285 -0.20834885335422854 2.8482873041719947 
	1.1884953961128493 -0.26992811386431881 2.8771887868481034 
	1.1573744174513447 -0.38288018112287608 2.9565578252041984 
	1.1380900722166498 -0.434586566666741 3.0105546954337337 
	1.1056706636801885 -0.51133402401468231 3.1304559725352461 
	1.0919500237340809 -0.53868557653906135 3.1981198746844925 
	1.0786987777561792 -0.56472284282768004 3.3324611599610265 
	1.0781439172714815 -0.56573375178976182 3.4010299464983968 
	1.0889316103668818 -0.54467550254973629 3.5295744359410093 
	1.1000039187514239 -0.52289390375591205 3.5917763215520226 
	1.1288157586215577 -0.45772143392658599 3.7096627119003784 
	1.1475667809491108 -0.41074553482301956 3.7658281227406603 
	1.1813310725914088 -0.30021154197391625 3.8560464697981529 
	1.1968137037313622 -0.23431014828553445 3.8915539265201788 
	1.2150969602743418 -0.10026821291159964 3.9325574797537604 
	1.2189977022157819 -0.030421411895264774 3.9407483445988909 
	1.2149380846745947 0.10244284291074593 3.9319463751257069 
	1.2073802939488658 0.16776502144003042 3.9157564878458224 
	1.1842368403072843 0.28984809417864182 3.8619765292676389 
	1.1678406810925268 0.34793362189779065 3.8221773652356004 
	1.1331250506173514 0.44881176087124286 3.7220895596452168 
	1.1141985479654142 0.49179685276728086 3.6581697260499859 
	1.094313345586934 0.53386185184333468 3.5557375851628059 
	1.0890445746403976 0.54438172805181873 3.5211198091024207 
	1.0817384827688958 0.55876194566341486 3.4495609612315907 
	1.0797684937059426 0.56249999999999989 3.4121713014857993 
	1.0797684937059426 0.56249999999999989 3.3749999999999996 
	1000 
	cone 0 0 3.3749999999999996 1 0 0 0 -0.375 0 1 I I 0 1 0.375 forward I I I I 
	cone 0 0 0.31249999999999994 0 0 1 -1.03 0 0 1 I I 0 1 1.03 forward I I I I 
	nullbs 
	nullbs 
	I I 
	0 
	0 
	0 
	0.1875 0.1875 } I I 0.1875 0.1875 
	no_radius 
	F 0 F 1 F 0 F 1 F 0 F 5.7988835834032315 0 2 
	I I 
	1 0.047625000000000001 0.012185357275029909 
	1 
	} I I I I 
	} 0 -5.7988835834032315 #
convexity-sys-attrib $-1 $-1 $-1 $30 #
vertex $-1 $54 $106 #
vertex $-1 $54 $107 #
intcurve-curve $-1 reversed { bldcur nubs 3 open 2 
	4.3477308483532227 3 5.7988835834032315 3 
	1.0299822314931506 -1.3965671382691093e-005 3.9374803306048873 
	1.0292463395442173 0.25248578493306489 3.9366603660776622 
	0.91347971130769678 0.47587268993839821 3.6724402533755587 
	0.91347971130769678 0.47587268993839826 3.3749999999999996 
	0.012185357275029909 
	spline forward { ref 4 } I I I I 
	null_surface 
	nubs 1 open 2 
	4.34773084835322 1 5.7988835834032315 1 
	0 4.3477308483532227 
	0 5.7988835834032315 
	
	nullbs 
	I I 
	0 
	0 
	0 
	surf1 } I I #
loop $-1 $-1 $31 $7 #
vertex $-1 $32 $108 #
ellipse-curve $-1 0 0 0.31249999999999994 0 0 1 -1.1549999999999998 0 0 1 I I #
ellipse-curve $-1 0 0 0.4375 0 0 -1 -1.03 0 0 1 I I #
coedge $-1 $109 $34 $71 $110 forward $36 $111 #
edge $-1 $39 $112 $52 $113 forward #
pcurve $-1 0 reversed { exppc nubs 1 open 2 
	0 1 1.0137764452771933 1 
	0 5.7988835834032315 
	0 6.8126600287010364 
	0.012175617890707539 
	spline forward { ref 1 } I I I I 
	} 0 -5.7988835834032315 #
coedge $-1 $35 $109 $68 $110 reversed $36 $114 #
edge $115 $112 $38 $51 $116 forward #
pcurve $-1 0 reversed { exppc nubs 1 open 2 
	1.8849423682258679 1 5.7988835834032315 1 
	0 7.6838259516289007 
	0 11.597767166806463 
	0.012175617890707539 
	spline forward { ref 1 } I I I I 
	} 0 -5.7988835834032315 #
face $-1 $117 $36 $2 $-1 $118 forward single #
intcurve-curve $-1 forward { ref 0 } I I #
point $-1 1.006664018333993 -0.2180081516633218 0.43750000000023953 #
point $-1 1.0066640183165803 0.21800815174372665 0.43750000002473111 #
face $-1 $119 $120 $2 $-1 $121 forward single #
loop $-1 $-1 $122 $41 #
torus-surface $-1 2.0662704824806063e-016 -1.2499999999999996 0.24999999999999997 0 0 -1 1.4375 0.062499999999999993 -1 0 0 forward_v I I I I #
coedge $-1 $89 $123 $124 $125 forward $42 $-1 #
coedge $-1 $44 $93 $126 $127 forward $22 $-1 #
coedge $-1 $123 $89 $44 $84 reversed $42 $-1 #
edge $-1 $128 $94 $44 $129 forward #
coedge $-1 $85 $85 $130 $131 forward $45 $-1 #
coedge $-1 $86 $86 $46 $87 reversed $132 $-1 #
edge $-1 $133 $133 $46 $134 forward #
coedge $-1 $48 $47 $135 $136 reversed $13 $-1 #
coedge $-1 $83 $81 $47 $90 forward $42 $-1 #
edge $-1 $137 $94 $47 $138 forward #
coedge $-1 $122 $139 $48 $92 forward $79 $-1 #
edge $-1 $95 $140 $48 $141 forward #
coedge $-1 $82 $49 $139 $142 forward $22 $-1 #
vertex $-1 $50 $143 #
vertex $-1 $50 $144 #
straight-curve $-1 1.4374999999999996 1.3750000000000002 0.31249999999999994 2.5030532798069127e-017 -0.39370078740157477 0 F 0.14287399999999906 F 6.8421259999999995 #
coedge $-1 $102 $53 $57 $103 forward $58 $145 #
pcurve $-1 0 reversed { exppc nubs 1 open 2 
	0 1 4.34773084835322 1 
	0 5.7988835834032315 
	0 10.146614431756456 
	0.012185357275029909 
	spline forward { ref 4 } I I I I 
	} 0 -5.7988835834032315 #
intcurve-curve $-1 reversed { bldcur nubs 3 open 8 
	0 3 0.21624210818153267 2 0.56222948127198502 2 1.1158092782167088 2 2.0015369533282668 2 
	3.141784417848418 2 4.324911764353482 2 4.3477308483532227 3 
	0.91347971130769678 0.47587268993839826 3.3749999999999996 
	0.91347971130769678 0.47587268993839826 3.3306772310078281 
	0.91587275568581206 0.47135406309755801 3.2858466336049865 
	0.92740476684606965 0.44840845820613429 3.1737390522217024 
	0.93962419058369118 0.42347855180662186 3.109169104422282 
	0.97547286465899785 0.33578506658562385 2.9612027184192913 
	1.0009031045665231 0.25940394188349353 2.8900666020687718 
	1.0397806319246656 0.027233394042547127 2.7850255799451373 
	1.0277013443369936 -0.14547778609576426 2.810820514258054 
	0.9510593181599758 -0.42851110439213408 3.0403515074077525 
	0.89616048718624164 -0.51104449733412838 3.2980852749919594 
	0.94888222667510025 -0.40515534440214113 3.7566245166805876 
	1.0275346712625544 -0.2185171291671236 3.9311910193934327 
	1.0299769314306557 -0.0079621796604983086 3.9374409873933702 
	1.0299938032455871 -0.0039844733097519165 3.9374932243816567 
	1.0299822314931506 -1.3965671382691093e-005 3.9374803306048873 
	0.012185357275029909 
	spline forward { ref 4 } I I I I 
	null_surface 
	nubs 1 open 2 
	0 1 4.34773084835322 1 
	0 0 
	0 4.3477308483532227 
	
	nullbs 
	I I 
	0 
	0 
	0 
	surf1 } I I #
loop $-1 $-1 $55 $146 #
ellipse-curve $-1 0 0 3.9375 -1.440683439257076e-033 -6.4830754766568403e-033 1 -1.03 4.0519221729105124e-034 0 1 I I #
coedge $-1 $57 $97 $147 $148 forward $58 $149 #
edge $-1 $61 $150 $97 $151 forward #
pcurve $-1 0 reversed { exppc nubs 1 open 2 
	0 1 1.0905334608664905 1 
	0 0 
	1 0 
	0 
	spline forward { ref 4 } I I I I 
	} 0 5.7988835834032315 #
face $-1 $152 $58 $2 $-1 $153 forward single #
point $-1 0.91347971130769667 0.47587268993839826 3.3749999999999996 #
point $-1 1.03 1.2613445444370486e-016 3.9375 #
point $-1 1.1549999999999998 0 0.31249999999999994 #
coedge $-1 $71 $68 $154 $155 forward $36 $156 #
edge $-1 $112 $157 $68 $158 forward #
pcurve $-1 0 forward { exppc nubs 1 open 2 
	0 1 1.0905334608664905 1 
	0 0 
	1 0 
	0 
	spline forward { ref 1 } I I I I 
	} 0 0 #
vertex $-1 $69 $159 #
intcurve-curve $-1 reversed { bldcur nubs 3 open 4 
	0 3 0.21624254962329931 2 0.5622306290205783 2 1.0137764452978049 3 
	0.91347971130769678 0.47587268993839826 0.93749999999999978 
	0.91347971130769678 0.47587268993839826 0.89317723100782798 
	0.91587275450827288 0.47135406703758004 0.84834654019976086 
	0.92740485604663248 0.4484082781656995 0.73623835283029071 
	0.93962421215843217 0.42347856600238204 0.67166883426376511 
	0.97140726585122816 0.34573029900386765 0.54048382543298235 
	0.9916435201307483 0.28679755890359904 0.47946525869178597 
	1.0066068567975957 0.21810735929575006 0.43756984671850641 
	0.012175617890707539 
	spline forward { ref 1 } I I I I 
	null_surface 
	nubs 1 open 2 
	0 1 1.0137764452771933 1 
	0 0 
	0 1.0137764452978049 
	
	nullbs 
	I I 
	0 
	0 
	0 
	surf1 } I I #
pcurve $-1 0 reversed { ref 12 } 0 5.7988835834032315 #
convexity-sys-attrib $-1 $-1 $-1 $72 #
intcurve-curve $-1 reversed { bldcur nubs 3 open 5 
	1.8849423682256696 3 2.0015410393132589 2 3.1418336113220109 2 4.3249213364749357 2 5.7988835834032315 3 
	1.0062797622829704 -0.21798350369545552 0.43795104563536874 
	1.0026446690392046 -0.23579051843792181 0.44854118339017574 
	0.9986049605192715 -0.25292873038706087 0.46045962837167753 
	0.95105512223865774 -0.42852506537045149 0.6028645341964749 
	0.89615878620087996 -0.51104884171158671 0.86061289027533028 
	0.94888869408066134 -0.40514139194384446 1.3191367595232606 
	1.0275356059898753 -0.21851513634429706 1.4936934126029309 
	1.032914813229544 0.24541979113802365 1.5074592952098813 
	0.91347971130769678 0.47587268993839821 1.2396148626280612 
	0.91347971130769678 0.47587268993839826 0.93749999999999978 
	0.012175617890707539 
	spline forward { ref 1 } I I I I 
	null_surface 
	nubs 1 open 2 
	1.8849423682258679 1 5.7988835834032315 1 
	0 1.8849423682256696 
	0 5.7988835834032315 
	
	nullbs 
	I I 
	0 
	0 
	0 
	surf1 } I I #
face $-1 $105 $160 $2 $-1 $161 forward single #
spline-surface $-1 forward { ref 1 } I I I I #
face $-1 $162 $163 $2 $-1 $164 forward single #
loop $-1 $-1 $124 $78 #
cone-surface $-1 -1.4374999999999996 -1.375 0.24999999999999997 -1.9073265992128675e-016 1 0 -0.044194173824159279 0 0.044194173824159147 1 I I 0 1 0.062499999999999993 forward I I I I #
coedge $-1 $165 $91 $166 $167 forward $79 $-1 #
coedge $-1 $81 $83 $168 $169 forward $42 $-1 #
coedge $-1 $170 $135 $81 $125 reversed $120 $-1 #
edge $-1 $171 $137 $81 $172 forward #
coedge $-1 $173 $174 $82 $127 reversed $175 $-1 #
edge $-1 $176 $128 $126 $177 forward #
vertex $-1 $178 $179 #
ellipse-curve $-1 1.4374999999999996 1.2500000000000002 0.24999999999999997 0 -1 0 0.062499999999999972 0 0 1 F 0 F 1.5707963267948966 #
coedge $-1 $130 $130 $85 $131 reversed $180 $-1 #
edge $-1 $181 $181 $85 $182 forward #
loop $-1 $-1 $86 $183 #
vertex $-1 $87 $184 #
ellipse-curve $-1 1.5502088552995433e-016 1.9999999999999998 0.31249999999999967 0 0 -1 0.28124999999999994 0 0 1 I I #
coedge $-1 $124 $166 $88 $136 forward $120 $-1 #
edge $-1 $140 $137 $88 $185 forward #
vertex $-1 $90 $186 #
ellipse-curve $-1 -3.8941251400596041e-016 1.25 0.31249999999999994 0 0 -1 -4.6457972546799518e-016 1.4374999999999998 0 1 F -1.6186406649208005 F 1.6186406649208012 #
coedge $-1 $91 $165 $93 $142 reversed $79 $-1 #
vertex $-1 $92 $187 #
ellipse-curve $-1 2.0662704824806063e-016 -1.2499999999999996 0.31249999999999994 0 0 -1 1.3708909931842483e-016 -1.4375 0 1 F -1.6186406649208005 F 1.6186406649208005 #
edge $-1 $95 $176 $93 $188 forward #
point $-1 1.4374999999999996 1.2500000000000002 0.31249999999999994 #
point $-1 1.4374999999999998 -1.2499999999999996 0.31249999999999994 #
pcurve $-1 0 forward { ref 11 } 0 0 #
face $-1 $189 $190 $2 $-1 $191 forward single #
coedge $-1 $147 $147 $102 $148 reversed $192 $-1 #
edge $-1 $150 $150 $147 $193 forward #
pcurve $-1 0 forward { exppc nubs 1 periodic 2 
	0 1 5.7988835834032315 1 
	1 0 
	1 5.7988835834032315 
	0.012185357275029909 
	spline forward { ref 4 } I I I I 
	} 0 0 #
vertex $-1 $148 $194 #
ellipse-curve $-1 1.0797684937059424 0.56249999999999989 3.3749999999999996 0 0 1 -0.16628878239824574 -0.086627310061601681 0 1 F 0 F 1.0905334608664905 #
face $-1 $195 $196 $2 $-1 $197 reversed single #
spline-surface $-1 forward { ref 4 } I I I I #
coedge $-1 $154 $154 $109 $155 reversed $198 $-1 #
edge $-1 $157 $157 $154 $199 forward #
pcurve $-1 0 forward { exppc nubs 1 periodic 2 
	0 1 5.7988835834032315 1 
	1 0 
	1 5.7988835834032315 
	0.012175617890707539 
	spline forward { ref 1 } I I I I 
	} 0 0 #
vertex $-1 $155 $200 #
ellipse-curve $-1 1.0797684937059424 0.56249999999999989 0.93749999999999978 0 0 1 -0.16628878239824574 -0.086627310061601681 0 1 F 0 F 1.0905334608664905 #
point $-1 0.91347971130769667 0.47587268993839826 0.93749999999999978 #
loop $-1 $198 $201 $117 #
cone-surface $-1 0 0 0.93749999999999978 1 0 0 0 -0.375 0 1 I I 0 1 0.375 forward I I I I #
face $-1 $146 $175 $2 $-1 $202 forward single #
loop $-1 $-1 $168 $119 #
cone-surface $-1 -3.8941251400596041e-016 1.25 0 0 0 1 1.0606601717798214 1.0606601717798212 0 1 I I 0 1 1.5 forward I I I I #
coedge $-1 $139 $122 $203 $204 forward $79 $-1 #
coedge $-1 $135 $170 $122 $167 reversed $120 $-1 #
edge $-1 $140 $205 $122 $206 forward #
coedge $-1 $207 $208 $123 $169 reversed $163 $-1 #
edge $-1 $128 $171 $168 $209 forward #
coedge $-1 $166 $124 $210 $211 forward $120 $-1 #
vertex $-1 $169 $212 #
ellipse-curve $-1 -1.4375 1.2499999999999996 0.24999999999999997 5.5948246910244128e-015 1 0 -0.062499999999999972 3.4967654318902565e-016 0 1 F 0 F 1.5707963267948966 #
coedge $-1 $213 $126 $214 $215 reversed $175 $-1 #
coedge $-1 $126 $213 $207 $178 reversed $175 $-1 #
loop $-1 $-1 $126 $162 #
vertex $-1 $127 $216 #
straight-curve $-1 1.4999999999999993 1.3750000000000002 0.24999999999999997 -2.5030532798069127e-017 0.39370078740157477 0 F -6.8421259999999995 F -0.14287399999999906 #
edge $-1 $128 $217 $174 $218 forward #
point $-1 1.4999999999999996 1.2500000000000002 0.24999999999999997 #
loop $-1 $-1 $130 $219 #
vertex $-1 $131 $220 #
ellipse-curve $-1 1.5502088552995433e-016 -1.9999999999999998 0.31249999999999967 0 0 -1 0.28124999999999994 0 0 1 I I #
face $-1 $219 $221 $2 $-1 $222 reversed single #
point $-1 0.28125000000000017 1.9999999999999998 0.31249999999999994 #
straight-curve $-1 -1.4374999999999996 -1.375 0.31249999999999994 -7.5091598394207374e-017 0.39370078740157477 0 F 0.31750000000000034 F 6.6674999999999986 #
point $-1 -1.4375 1.2499999999999996 0.31249999999999994 #
point $-1 -1.4374999999999998 -1.2499999999999998 0.31249999999999994 #
ellipse-curve $-1 1.4374999999999998 -1.2499999999999996 0.24999999999999997 0 1 0 0 0 0.062499999999999972 1 F 0 F 1.5707963267948966 #
face $-1 $223 $224 $2 $-1 $225 forward single #
loop $-1 $100 $226 $146 #
torus-surface $-1 0 0 3.9375 1.440683439257076e-033 6.4830754766568403e-033 -1 0.96750000000000003 0.062499999999999993 -1 0 -1.440683439257076e-033 forward_v I I I I #
loop $-1 $227 $147 $228 #
intcurve-curve $-1 forward { bldcur nubs 3 periodic 8 
	0 3 0.21624210818153267 2 0.56222948127198502 2 1.1158092782167088 2 2.0015369533282668 2 
	3.141784417848418 2 4.324911764353482 2 5.7988835834032315 3 
	1.0797684937059426 0.37499999999999978 3.3749999999999996 
	1.0797684937059426 0.37499999999999978 3.3454514873385519 
	1.0825971650946369 0.3714392050623152 3.3155644224033241 
	1.096228450131155 0.35335747434690523 3.240826034814468 
	1.1106722835297513 0.33371206266961956 3.1977794029481879 
	1.1530468084682814 0.26460732593397873 3.0991351456128609 
	1.1831063396211083 0.20441702216385346 3.0517110680458472 
	1.2290610867653202 0.021460619577217593 2.9816837199634243 
	1.2147828997381451 -0.11464026185863629 2.9988803428387025 
	1.1241890484075441 -0.33767784439962684 3.1519010049385017 
	1.0592964982031547 -0.40271629482479038 3.3237235166613059 
	1.121615641725179 -0.31927290084764187 3.6294163444537246 
	1.2145858856914176 -0.17219715518509582 3.7457940129289549 
	1.2209465638029615 0.19338558823609681 3.7549745117954081 
	1.0797684937059426 0.37499999999999978 3.5764116275690681 
	1.0797684937059426 0.37499999999999978 3.3749999999999996 
	0.012185357275029909 
	spline forward { ref 4 } I I I I 
	null_surface 
	nubs 1 periodic 2 
	0 1 5.7988835834032315 1 
	1 0 
	1 5.7988835834032315 
	
	nullbs 
	I I 
	0 
	0 
	0 
	surf1 } I I #
point $-1 1.0797684937059424 0.375 3.3749999999999996 #
face $-1 $229 $230 $2 $-1 $231 reversed single #
loop $-1 $232 $233 $152 #
cone-surface $-1 2.7012814486070176e-033 1.2155766518731576e-032 2.125 -1.440683439257076e-033 -6.4830754766568403e-033 1 0.86999999999999988 0 1.253394592153656e-033 1 I I 0 1 0.86999999999999988 reversed I I I I #
loop $-1 $-1 $154 $117 #
intcurve-curve $-1 forward { bldcur nubs 3 periodic 8 
	0 3 0.21624254962329931 2 0.5622306290205783 2 1.1158115560562247 2 2.0015410393132589 2 
	3.1418336113220109 2 4.3249213364749357 2 5.7988835834032315 3 
	1.0797684937059426 0.37499999999999978 0.93749999999999978 
	1.0797684937059426 0.37499999999999978 0.90795148733855191 
	1.0825971637027401 0.37143920816715453 0.87806436013317379 
	1.0962285555696845 0.35335733247038137 0.80332556855352699 
	1.1106723090319333 0.33371207385624596 0.76027922284251004 
	1.1530476007317099 0.26460594946138888 0.66163349447674058 
	1.183106783706195 0.20441562860031581 0.61421037482003604 
	1.2290608293613094 0.021461045251009586 0.54418413862736581 
	1.2147838925758931 -0.11463875664434864 0.56137842731186949 
	1.1241840886655978 -0.33768884601199017 0.71440968946431638 
	1.0592944875723995 -0.40271971830670344 0.88624192685022007 
	1.1216232864497138 -0.3192619059492755 1.1919245063488404 
	1.2145869905754108 -0.17219558478911443 1.3082956084019539 
	1.2209454224339513 0.19339714932721278 1.3174728634732542 
	1.0797684937059426 0.37499999999999978 1.1389099084187073 
	1.0797684937059426 0.37499999999999978 0.93749999999999978 
	0.012175617890707539 
	spline forward { ref 1 } I I I I 
	null_surface 
	nubs 1 periodic 2 
	0 1 5.7988835834032315 1 
	1 0 
	1 5.7988835834032315 
	
	nullbs 
	I I 
	0 
	0 
	0 
	surf1 } I I #
point $-1 1.0797684937059424 0.375 0.93749999999999978 #
coedge $-1 $201 $201 $234 $235 forward $160 $-1 #
plane-surface $-1 1.4999999999999993 2.75 0 1 6.3577553307095584e-017 0 0 0 -0.39370078740157477 forward_v I I I I #
coedge $-1 $236 $214 $165 $204 reversed $237 $-1 #
edge $-1 $205 $176 $203 $238 forward #
vertex $-1 $239 $240 #
ellipse-curve $-1 -1.4374999999999998 -1.2499999999999998 0.24999999999999997 2.7974123455122064e-015 -1 0 0 0 0.062499999999999972 1 F 0 F 1.5707963267948966 #
coedge $-1 $241 $168 $174 $178 forward $163 $-1 #
coedge $-1 $168 $241 $242 $243 forward $163 $-1 #
ellipse-curve $-1 -3.8941251400596041e-016 1.25 0.24999999999999997 0 0 1 -4.8477884396660372e-016 1.5 0 1 F -1.6186406649208012 F 1.6186406649208005 #
coedge $-1 $242 $244 $170 $211 reversed $245 $-1 #
edge $-1 $171 $205 $210 $246 forward #
point $-1 -1.5 1.2499999999999998 0.24999999999999997 #
coedge $-1 $174 $173 $247 $248 forward $175 $-1 #
coedge $-1 $203 $249 $173 $215 forward $237 $-1 #
edge $250 $251 $176 $173 $252 forward #
point $-1 1.4999999999999998 -1.2499999999999996 0.24999999999999997 #
vertex $-1 $178 $253 #
straight-curve $-1 1.4999999999999996 1.2500000000000002 0 0 0 -0.39370078740157477 F -12.604751 F 11.811000999999999 #
face $-1 $254 $255 $2 $-1 $256 reversed single #
point $-1 0.28125000000000017 -1.9999999999999998 0.31249999999999994 #
loop $-1 $132 $257 $183 #
cone-surface $-1 1.5502088552995433e-016 1.9999999999999998 -5.9602710184574734 0 0 1 0.28124999999999994 0 0 1 I I 0 1 0.28124999999999994 reversed I I I I #
face $-1 $228 $258 $2 $-1 $259 forward single #
loop $-1 $260 $261 $189 #
plane-surface $-1 0.093636363636363615 6.3577553307095572e-017 3.9999999999999996 -1.440683439257076e-033 -6.4830754766568403e-033 1 0.39370078740157477 0 5.6719820443191964e-034 forward_v I I I I #
coedge $-1 $226 $226 $262 $263 forward $190 $-1 #
loop $-1 $-1 $264 $228 #
face $-1 $265 $192 $2 $-1 $266 forward single #
face $-1 $183 $267 $2 $-1 $268 reversed single #
loop $-1 $-1 $269 $195 #
plane-surface $-1 5.4025628972140352e-033 2.4311533037463152e-032 0.24999999999999989 1.440683439257076e-033 6.4830754766568403e-033 -1 0.39370078740157477 0 5.6719820443191964e-034 reverse_v I I I I #
loop $-1 $270 $271 $152 #
coedge $-1 $233 $233 $272 $273 reversed $196 $-1 #
coedge $-1 $234 $234 $201 $235 reversed $274 $-1 #
edge $-1 $275 $275 $201 $276 forward #
coedge $-1 $249 $203 $244 $239 forward $237 $-1 #
loop $-1 $-1 $203 $277 #
ellipse-curve $-1 2.0662704824806063e-016 -1.2499999999999996 0.24999999999999997 0 0 1 1.4304949494096502e-016 -1.5 0 1 F -1.6186406649208005 F 1.6186406649208005 #
edge $-1 $205 $278 $244 $279 forward #
point $-1 -1.4999999999999998 -1.25 0.24999999999999997 #
coedge $-1 $208 $207 $280 $281 forward $163 $-1 #
coedge $-1 $282 $210 $208 $243 reversed $245 $-1 #
edge $283 $284 $171 $242 $285 forward #
coedge $-1 $210 $282 $236 $239 reversed $245 $-1 #
loop $-1 $-1 $210 $286 #
straight-curve $-1 -1.4999999999999998 -1.375 0.24999999999999997 7.5091598394207374e-017 -0.39370078740157477 0 F -6.6674999999999986 F -0.31750000000000034 #
coedge $-1 $287 $280 $213 $248 reversed $288 $-1 #
edge $-1 $251 $217 $213 $289 forward #
coedge $-1 $214 $236 $287 $290 forward $237 $-1 #
convexity-sys-attrib $-1 $-1 $-1 $215 #
vertex $-1 $248 $291 #
straight-curve $-1 1.4999999999999998 -1.2499999999999996 0 0 0 0.39370078740157477 F -11.811000999999999 F 12.604751 #
point $-1 1.4999999999999996 1.2500000000000004 0 #
face $-1 $277 $292 $2 $-1 $293 reversed single #
loop $-1 $180 $294 $219 #
cone-surface $-1 1.5502088552995433e-016 -1.9999999999999998 -5.9602710184574734 0 0 1 0.28124999999999994 0 0 1 I I 0 1 0.28124999999999994 reversed I I I I #
coedge $-1 $257 $257 $295 $296 reversed $221 $-1 #
loop $-1 $297 $298 $223 #
torus-surface $-1 1.2187499999999998 0 3.3749999999999996 -1 0 0 0.34375 0.031249999999999997 0 0 1 forward_v I I I I #
loop $-1 $-1 $262 $189 #
coedge $-1 $261 $261 $299 $300 forward $224 $-1 #
coedge $-1 $262 $262 $226 $263 reversed $260 $-1 #
edge $-1 $301 $301 $262 $302 forward #
coedge $-1 $264 $264 $303 $304 reversed $227 $-1 #
face $-1 $305 $306 $2 $-1 $307 forward single #
cone-surface $-1 0 0 3.3749999999999996 1 0 0 0 -0.375 0 1 I I 0 1 0.375 forward I I I I #
loop $-1 $308 $309 $229 #
cone-surface $-1 0.87499999999999978 0 3.3749999999999996 1 0 0 0 0 -0.31249999999999994 1 I I 0 1 0.31249999999999994 reversed I I I I #
coedge $-1 $269 $269 $310 $311 forward $230 $-1 #
loop $-1 $312 $299 $152 #
coedge $-1 $271 $271 $309 $313 reversed $232 $-1 #
coedge $-1 $272 $272 $233 $273 forward $314 $-1 #
edge $-1 $315 $315 $272 $316 forward #
loop $-1 $317 $234 $318 #
vertex $-1 $235 $319 #
ellipse-curve $-1 1.2499999999999998 0 0.93749999999999978 -1 0 0 0 -0.375 0 1 I I #
face $-1 $286 $237 $2 $-1 $320 forward single #
vertex $-1 $239 $321 #
straight-curve $-1 -1.4999999999999998 -1.25 0 0 0 -0.39370078740157477 F -12.604751 F 11.811000999999999 #
coedge $-1 $247 $322 $241 $281 reversed $288 $-1 #
edge $-1 $217 $284 $280 $323 forward #
coedge $-1 $244 $242 $322 $324 forward $245 $-1 #
convexity-sys-attrib $-1 $-1 $-1 $243 #
vertex $-1 $324 $325 #
straight-curve $-1 -1.5 1.2499999999999998 0 0 0 0.39370078740157477 F -11.811000999999999 F 12.604751 #
face $-1 $-1 $245 $2 $-1 $326 forward single #
coedge $-1 $322 $247 $249 $290 reversed $288 $-1 #
loop $-1 $-1 $287 $254 #
straight-curve $-1 1.4999999999999998 -2.7499999999999991 0 -2.5030532798069127e-017 0.39370078740157477 0 F 0 F 13.969999999999999 #
edge $-1 $278 $251 $287 $327 forward #
point $-1 1.4999999999999996 -1.2499999999999996 0 #
loop $-1 $328 $295 $254 #
plane-surface $-1 -1.5239913513318499e-016 3.4967654318902565e-016 0 0 0 1 0.39370078740157477 0 0 forward_v I I I I #
coedge $-1 $294 $294 $329 $330 reversed $255 $-1 #
coedge $-1 $295 $295 $257 $296 forward $292 $-1 #
edge $-1 $331 $331 $295 $332 forward #
loop $-1 $-1 $303 $223 #
coedge $-1 $298 $298 $333 $334 forward $258 $-1 #
coedge $-1 $299 $299 $261 $300 reversed $270 $-1 #
edge $-1 $335 $335 $261 $336 forward #
vertex $-1 $263 $337 #
ellipse-curve $-1 -9.0042714953566962e-035 -4.0519221729105124e-034 3.9999999999999996 1.440683439257076e-033 6.4830754766568403e-033 -1 -0.96750000000000003 3.8060531090203115e-034 -1.3938612274812211e-033 1 I I #
coedge $-1 $303 $303 $264 $304 forward $297 $-1 #
edge $-1 $338 $338 $264 $339 forward #
face $-1 $340 $341 $2 $-1 $342 forward single #
loop $-1 $343 $344 $265 #
plane-surface $-1 1.2499999999999998 0.034090909090909081 3.3749999999999996 1 0 0 0 0 -0.39370078740157477 forward_v I I I I #
loop $-1 $-1 $345 $229 #
coedge $-1 $309 $309 $271 $313 forward $267 $-1 #
coedge $-1 $310 $310 $269 $311 reversed $312 $-1 #
edge $346 $347 $347 $269 $348 forward #
loop $-1 $-1 $310 $152 #
edge $-1 $349 $349 $309 $350 forward #
loop $-1 $351 $272 $340 #
vertex $-1 $273 $352 #
intcurve-curve $-1 forward { surfintcur nubs 3 periodic 17 
	0 3 0.30203502046764696 2 0.60407004093529393 2 0.90591268880467224 2 1.2077553366740506 2 
	1.5095979845434289 2 1.8114406324128072 2 2.1134756528804539 2 2.4155106733481011 2 2.7175456938157483 2 
	3.0195807142833955 2 3.3214233621527733 2 3.6232660100221512 2 3.9251086578915291 2 4.2269513057609069 2 
	4.528986326228555 2 4.8310213466962022 3 
	0.81193826735780839 0.31249999999999994 0.93749999999999978 
	0.81193826735780839 0.31249999999999994 0.89786285820634526 
	0.81514652710958024 0.30450562349087146 0.85585592233352303 
	0.8263927975242471 0.27251140024495424 0.77898505884955715 
	0.83423366537129184 0.2485275152292101 0.74408577698761791 
	0.84870186120445512 0.19343177443275439 0.68899003619116206 
	0.85631571992008793 0.15852562576528834 0.6649927101061609 
	0.86703155582904412 0.081628839460832214 0.63298837093887328 
	0.86999999999999988 0.039611896045850165 0.62499999999999956 
	0.86999999999999988 -0.039611896045850165 0.62499999999999956 
	0.86703155582904412 -0.081628839460832214 0.63298837093887328 
	0.85631571992008793 -0.15852562576528834 0.6649927101061609 
	0.84870186120445512 -0.19343177443275439 0.68899003619116206 
	0.83423366537129184 -0.24852751522921007 0.74408577698761791 
	0.8263927975242471 -0.27251140024495418 0.77898505884955715 
	0.81514652710958024 -0.30450562349087135 0.85585592233352303 
	0.81193826735780839 -0.31249999999999994 0.89786285820634526 
	0.81193826735780839 -0.31249999999999994 0.9771371417936543 
	0.81514652710958024 -0.30450562349087146 1.0191440776664764 
	0.8263927975242471 -0.27251140024495435 1.0960149411504423 
	0.83423366537129184 -0.24852751522921021 1.1309142230123816 
	0.84870186120445512 -0.1934317744327545 1.1860099638088375 
	0.85631571992008793 -0.15852562576528847 1.2100072898938385 
	0.86703155582904412 -0.081628839460832353 1.2420116290611263 
	0.86999999999999988 -0.03961189604585013 1.2499999999999998 
	0.86999999999999988 0.039611896045850123 1.2499999999999998 
	0.86703155582904412 0.081628839460832145 1.2420116290611263 
	0.85631571992008793 0.15852562576528823 1.2100072898938388 
	0.84870186120445512 0.19343177443275436 1.1860099638088375 
	0.83423366537129184 0.24852751522921016 1.1309142230123819 
	0.8263927975242471 0.27251140024495435 1.0960149411504423 
	0.81514652710958024 0.3045056234908714 1.0191440776664764 
	0.81193826735780839 0.31249999999999994 0.9771371417936543 
	0.81193826735780839 0.31249999999999994 0.93749999999999978 
	0.00014385591274310427 
	cone 0.87499999999999978 0 0.93749999999999978 1 0 0 0 0 -0.31249999999999994 1 I I 0 -1 0.31249999999999994 reversed I I I I 
	cone 2.7012814486070176e-033 1.2155766518731576e-032 2.125 -1.440683439257076e-033 -6.4830754766568403e-033 1 0.86999999999999988 0 1.253394592153656e-033 1 I I 0 -1 0.86999999999999988 reversed I I I I 
	nullbs 
	nullbs 
	I I 
	0 
	0 
	0 
	} I I #
loop $-1 $-1 $353 $318 #
face $-1 $74 $274 $2 $-1 $354 forward single #
point $-1 1.2499999999999998 0.375 0.93749999999999978 #
cone-surface $-1 2.0662704824806063e-016 -1.2499999999999996 0 0 0 1 -1.060660171779821 -1.0606601717798214 0 1 I I 0 1 1.5 forward I I I I #
point $-1 -1.4999999999999998 -1.2499999999999998 0 #
coedge $-1 $280 $287 $282 $324 reversed $288 $-1 #
ellipse-curve $-1 -2.6225740739176924e-016 1.2500000000000002 0 0 0 1 -1.0606601717798214 1.0606601717798212 0 1 I I #
edge $355 $284 $278 $282 $356 forward #
point $-1 -1.5 1.2499999999999998 0 #
plane-surface $-1 -1.4999999999999993 -2.75 0 -1 -1.9073265992128675e-016 0 0 0 0.39370078740157477 forward_v I I I I #
ellipse-curve $-1 -2.6225740739176924e-016 -1.2499999999999996 0 0 0 1 1.0606601717798214 -1.060660171779821 0 1 I I #
loop $-1 $288 $329 $254 #
coedge $-1 $329 $329 $294 $330 forward $328 $-1 #
edge $-1 $357 $357 $329 $358 forward #
vertex $-1 $296 $359 #
ellipse-curve $-1 1.5502088552995433e-016 1.9999999999999998 0 0 0 1 0.28124999999999994 0 0 1 I I #
coedge $-1 $333 $333 $298 $334 reversed $343 $-1 #
edge $-1 $360 $360 $333 $361 forward #
vertex $-1 $300 $362 #
ellipse-curve $-1 0 0 3.9999999999999996 1.440683439257076e-033 6.4830754766568403e-033 -1 0.86999999999999988 0 1.253394592153656e-033 1 I I #
point $-1 0.96750000000000003 -7.8579752819308238e-034 3.9999999999999996 #
vertex $-1 $304 $363 #
ellipse-curve $-1 1.2187499999999998 0 3.3749999999999996 1 0 0 0 -0.375 0 1 I I #
face $-1 $318 $314 $2 $-1 $364 reversed single #
loop $-1 $365 $366 $305 #
torus-surface $-1 1.2187499999999998 0 0.93749999999999978 -1 0 0 0.34374999999999994 0.031249999999999997 0 0 1 forward_v I I I I #
loop $-1 $-1 $333 $265 #
coedge $-1 $344 $344 $345 $367 forward $306 $-1 #
coedge $-1 $345 $345 $344 $367 reversed $308 $-1 #
convexity-sys-attrib $-1 $-1 $-1 $311 #
vertex $-1 $311 $368 #
ellipse-curve $-1 5.4025628972140352e-033 2.4311533037463152e-032 0.24999999999999989 -1.440683439257076e-033 -6.4830754766568403e-033 1 0.86999999999999988 0 1.253394592153656e-033 1 I I #
vertex $-1 $313 $369 #
intcurve-curve $-1 forward { surfintcur nubs 3 periodic 17 
	0 3 0.3020350204676468 2 0.6040700409352936 2 0.9059126888046718 2 1.2077553366740501 2 
	1.5095979845434284 2 1.8114406324128065 2 2.1134756528804535 2 2.4155106733481002 2 2.717545693815747 2 
	3.0195807142833937 2 3.321423362152772 2 3.6232660100221503 2 3.9251086578915282 2 4.2269513057609061 2 
	4.5289863262285532 2 4.8310213466961995 3 
	0.81193826735780839 0.31249999999999994 3.3749999999999996 
	0.81193826735780839 0.31249999999999994 3.335362858206345 
	0.81514652710958024 0.30450562349087146 3.2933559223335234 
	0.8263927975242471 0.27251140024495435 3.2164850588495577 
	0.83423366537129184 0.24852751522921016 3.1815857769876175 
	0.84870186120445512 0.19343177443275444 3.1264900361911625 
	0.85631571992008793 0.15852562576528845 3.1024927101061603 
	0.86703155582904412 0.081628839460832353 3.0704883709388731 
	0.86999999999999988 0.039611896045850165 3.0624999999999996 
	0.86999999999999988 -0.039611896045850165 3.0624999999999996 
	0.86703155582904412 -0.081628839460832631 3.0704883709388735 
	0.85631571992008793 -0.1585256257652887 3.1024927101061612 
	0.84870186120445512 -0.19343177443275447 3.1264900361911625 
	0.83423366537129184 -0.24852751522921016 3.1815857769876175 
	0.8263927975242471 -0.27251140024495435 3.2164850588495577 
	0.81514652710958024 -0.30450562349087146 3.2933559223335234 
	0.81193826735780839 -0.31249999999999994 3.335362858206345 
	0.81193826735780839 -0.31249999999999994 3.4146371417936541 
	0.81514652710958024 -0.30450562349087146 3.4566440776664762 
	0.8263927975242471 -0.27251140024495435 3.5335149411504414 
	0.83423366537129184 -0.24852751522921016 3.5684142230123816 
	0.84870186120445512 -0.1934317744327545 3.6235099638088371 
	0.8563157199200877 -0.15852562576528884 3.6475072898938388 
	0.86703155582904412 -0.081628839460832575 3.6795116290611269 
	0.86999999999999988 -0.039611896045850151 3.6874999999999991 
	0.86999999999999988 0.039611896045850137 3.6874999999999991 
	0.86703155582904412 0.08162883946083252 3.6795116290611269 
	0.8563157199200877 0.15852562576528875 3.6475072898938388 
	0.84870186120445512 0.19343177443275447 3.6235099638088371 
	0.83423366537129184 0.24852751522921016 3.5684142230123816 
	0.8263927975242471 0.27251140024495435 3.5335149411504414 
	0.81514652710958024 0.30450562349087146 3.4566440776664762 
	0.81193826735780839 0.31249999999999994 3.4146371417936541 
	0.81193826735780839 0.31249999999999994 3.3749999999999996 
	0.00014385591274307491 
	cone 0.87499999999999978 0 3.3749999999999996 1 0 0 0 0 -0.31249999999999994 1 I I 0 -1 0.31249999999999994 reversed I I I I 
	cone 2.7012814486070176e-033 1.2155766518731576e-032 2.125 -1.440683439257076e-033 -6.4830754766568403e-033 1 0.86999999999999988 0 1.253394592153656e-033 1 I I 0 -1 0.86999999999999988 reversed I I I I 
	nullbs 
	nullbs 
	I I 
	0 
	0 
	0 
	} I I #
loop $-1 $-1 $370 $340 #
point $-1 0.81193826735780827 0.31249999999999994 0.93749999999999978 #
coedge $-1 $353 $353 $371 $372 reversed $317 $-1 #
plane-surface $-1 1.2499999999999998 0.034090909090909081 0.9375 1 0 0 0 0 -0.39370078740157477 forward_v I I I I #
convexity-sys-attrib $-1 $-1 $-1 $324 #
straight-curve $-1 -1.5000000000000004 2.75 0 7.5091598394207374e-017 -0.39370078740157477 0 F 0 F 13.970000000000001 #
vertex $-1 $330 $373 #
ellipse-curve $-1 1.5502088552995433e-016 -1.9999999999999998 0 0 0 1 0.28124999999999994 0 0 1 I I #
point $-1 -0.28124999999999978 1.9999999999999998 0 #
vertex $-1 $334 $374 #
ellipse-curve $-1 1.2499999999999998 0 3.3749999999999996 -1 0 0 0 -0.34375 0 1 I I #
point $-1 0.86999999999999988 -3.7500192934417492e-082 3.9999999999999996 #
point $-1 1.2187499999999998 0.375 3.3749999999999996 #
cone-surface $-1 0.87499999999999978 0 0.93749999999999978 1 0 0 0 0 -0.31249999999999994 1 I I 0 1 0.31249999999999994 reversed I I I I #
loop $-1 $-1 $371 $305 #
coedge $-1 $366 $366 $370 $375 forward $341 $-1 #
edge $-1 $376 $376 $344 $377 forward #
point $-1 0.86999999999999988 2.4311533037463152e-032 0.24999999999999989 #
point $-1 0.81193826735780827 0.31249999999999994 3.3749999999999996 #
coedge $-1 $370 $370 $366 $375 reversed $351 $-1 #
coedge $-1 $371 $371 $353 $372 forward $365 $-1 #
edge $-1 $378 $378 $353 $379 forward #
point $-1 -0.28124999999999978 -1.9999999999999998 0 #
point $-1 1.2499999999999998 0.34375 3.3749999999999996 #
edge $-1 $380 $380 $370 $381 forward #
vertex $-1 $367 $382 #
ellipse-curve $-1 1.2499999999999998 0 3.3749999999999996 -1 0 0 0 0 -0.31249999999999994 1 I I #
vertex $-1 $372 $383 #
ellipse-curve $-1 1.2499999999999998 0 0.93749999999999978 1 0 0 0 0 0.34374999999999994 1 I I #
vertex $-1 $375 $384 #
ellipse-curve $-1 1.2187499999999998 0 0.93749999999999978 -1 0 0 0 0 0.31249999999999994 1 I I #
point $-1 1.2499999999999998 0 3.0624999999999996 #
point $-1 1.2499999999999998 0 0.59374999999999989 #
point $-1 1.2187499999999998 0 0.62499999999999978 #
End-of-ACIS-data 