400 0 1 0           
7 Unknown 11 ACIS 6.0 NT 24 Thu Dec 27 20:32:19 2001 
25.399999999999999 9.9999999999999995e-007 1e-010 
body $-1 $1 $-1 $-1 #
lump $-1 $-1 $2 $0 #
shell $-1 $-1 $-1 $3 $-1 $1 #
face $-1 $4 $5 $2 $-1 $6 reversed single #
face $-1 $7 $8 $2 $-1 $9 reversed single #
loop $-1 $10 $11 $3 #
cone-surface $-1 0.81189881604791114 -0.46875000000000022 -3.2943617196894559 0 0 1 -0.046875000000000028 -0.081189881604791098 0 1 I I 0 1 0.09375 reversed I I I I #
face $-1 $12 $13 $2 $-1 $14 reversed single #
loop $-1 $15 $16 $4 #
cone-surface $-1 0 -0.9375 -3.2943617196894559 0 0 1 -0.09375 1.1480684567084787e-017 0 1 I I 0 1 0.09375 reversed I I I I #
loop $-1 $-1 $17 $3 #
coedge $-1 $11 $11 $18 $19 reversed $5 $-1 #
face $-1 $20 $21 $2 $-1 $22 reversed single #
loop $-1 $23 $24 $7 #
cone-surface $-1 -0.81189881604791125 -0.46874999999999989 -3.2943617196894559 0 0 1 -0.046874999999999972 0.081189881604791139 0 1 I I 0 1 0.09375 reversed I I I I #
loop $-1 $-1 $25 $4 #
coedge $-1 $16 $16 $26 $27 reversed $8 $-1 #
coedge $-1 $17 $17 $28 $29 reversed $10 $-1 #
coedge $-1 $18 $18 $11 $19 forward $30 $-1 #
edge $-1 $31 $31 $18 $32 forward #
face $-1 $33 $34 $2 $-1 $35 reversed single #
loop $-1 $36 $37 $12 #
cone-surface $-1 -0.81189881604791114 0.46875 -3.2943617196894559 0 0 1 0.046875000000000007 0.081189881604791111 0 1 I I 0 1 0.09375 reversed I I I I #
loop $-1 $-1 $38 $7 #
coedge $-1 $24 $24 $39 $40 reversed $13 $-1 #
coedge $-1 $25 $25 $41 $42 reversed $15 $-1 #
coedge $-1 $26 $26 $16 $27 forward $43 $-1 #
edge $-1 $44 $44 $26 $45 forward #
coedge $-1 $28 $28 $17 $29 forward $46 $-1 #
edge $-1 $47 $47 $28 $48 forward #
loop $-1 $43 $18 $49 #
vertex $-1 $19 $50 #
ellipse-curve $-1 0.81189881604791114 -0.46875000000000022 0 0 0 1 -0.046875000000000028 -0.081189881604791098 0 1 I I #
face $-1 $51 $52 $2 $-1 $53 reversed single #
loop $-1 $54 $55 $20 #
cone-surface $-1 0.81189881604791159 0.46874999999999944 -3.2943617196894559 0 0 1 0.046874999999999938 -0.081189881604791153 0 1 I I 0 1 0.09375 reversed I I I I #
loop $-1 $-1 $56 $12 #
coedge $-1 $37 $37 $57 $58 reversed $21 $-1 #
coedge $-1 $38 $38 $59 $60 reversed $23 $-1 #
coedge $-1 $39 $39 $24 $40 forward $61 $-1 #
edge $-1 $62 $62 $39 $63 forward #
coedge $-1 $41 $41 $25 $42 forward $64 $-1 #
edge $-1 $65 $65 $41 $66 forward #
loop $-1 $61 $26 $49 #
vertex $-1 $27 $67 #
ellipse-curve $-1 0 -0.9375 0 0 0 1 -0.09375 1.1480684567084787e-017 0 1 I I #
loop $-1 $64 $28 $68 #
vertex $-1 $29 $69 #
ellipse-curve $-1 0.81189881604791114 -0.46875000000000022 0.24999999999999989 0 0 -1 -0.046875000000000028 -0.081189881604791098 0 1 I I #
face $-1 $-1 $30 $2 $-1 $70 reversed single #
point $-1 0.85877381604791114 -0.38756011839520915 0 #
face $-1 $71 $72 $2 $-1 $73 reversed single #
loop $-1 $74 $75 $33 #
cone-surface $-1 -1.1480684567084787e-016 0.9375 -3.2943617196894559 0 0 1 0.09375 0 0 1 I I 0 1 0.09375 reversed I I I I #
loop $-1 $-1 $76 $20 #
coedge $-1 $55 $55 $77 $78 reversed $34 $-1 #
coedge $-1 $56 $56 $79 $80 reversed $36 $-1 #
coedge $-1 $57 $57 $37 $58 forward $81 $-1 #
edge $-1 $82 $82 $57 $83 forward #
coedge $-1 $59 $59 $38 $60 forward $84 $-1 #
edge $-1 $85 $85 $59 $86 forward #
loop $-1 $81 $39 $49 #
vertex $-1 $40 $87 #
ellipse-curve $-1 -0.81189881604791125 -0.46874999999999989 0 0 0 1 -0.046874999999999972 0.081189881604791139 0 1 I I #
loop $-1 $84 $41 $68 #
vertex $-1 $42 $88 #
ellipse-curve $-1 0 -0.9375 0.24999999999999989 0 0 -1 -0.09375 1.1480684567084787e-017 0 1 I I #
point $-1 0.09375 -0.9375 0 #
face $-1 $49 $46 $2 $-1 $89 forward single #
point $-1 0.76502381604791114 -0.54993988160479135 0.24999999999999997 #
plane-surface $-1 0.11363636363636354 7.1524747470482523e-017 0 0 0 1 0.39370078740157477 0 0 forward_v I I I I #
face $-1 $68 $90 $2 $-1 $91 forward single #
loop $-1 $92 $93 $51 #
cone-surface $-1 0 0 0 0 0 1 -0.62499999999999989 0 0 1 I I 0 1 0.62499999999999989 forward I I I I #
loop $-1 $-1 $94 $33 #
coedge $-1 $75 $75 $95 $96 reversed $52 $-1 #
coedge $-1 $76 $76 $97 $98 reversed $54 $-1 #
coedge $-1 $77 $77 $55 $78 forward $99 $-1 #
edge $-1 $100 $100 $77 $101 forward #
coedge $-1 $79 $79 $56 $80 forward $102 $-1 #
edge $-1 $103 $103 $79 $104 forward #
loop $-1 $99 $57 $49 #
vertex $-1 $58 $105 #
ellipse-curve $-1 -0.81189881604791114 0.46875 0 0 0 1 0.046875000000000007 0.081189881604791111 0 1 I I #
loop $-1 $102 $59 $68 #
vertex $-1 $60 $106 #
ellipse-curve $-1 -0.81189881604791125 -0.46874999999999989 0.24999999999999989 0 0 -1 -0.046874999999999972 0.081189881604791139 0 1 I I #
point $-1 -0.76502381604791125 -0.54993988160479101 0 #
point $-1 -0.09375 -0.9375 0.24999999999999997 #
plane-surface $-1 0.11363636363636354 7.1524747470482523e-017 0.24999999999999997 0 0 1 0.39370078740157477 0 0 forward_v I I I I #
loop $-1 $107 $108 $71 #
cone-surface $-1 0 0 0 0 0 1 -1.2499999999999998 0 0 1 I I 0 1 1.2499999999999998 forward I I I I #
loop $-1 $-1 $109 $51 #
coedge $-1 $93 $93 $110 $111 reversed $72 $-1 #
coedge $-1 $94 $94 $112 $113 reversed $74 $-1 #
coedge $-1 $95 $95 $75 $96 forward $114 $-1 #
edge $-1 $115 $115 $95 $116 forward #
coedge $-1 $97 $97 $76 $98 forward $117 $-1 #
edge $-1 $118 $118 $97 $119 forward #
loop $-1 $114 $77 $49 #
vertex $-1 $78 $120 #
ellipse-curve $-1 0.81189881604791159 0.46874999999999944 0 0 0 1 0.046874999999999938 -0.081189881604791153 0 1 I I #
loop $-1 $117 $79 $68 #
vertex $-1 $80 $121 #
ellipse-curve $-1 -0.81189881604791114 0.46875 0.24999999999999989 0 0 -1 0.046875000000000007 0.081189881604791111 0 1 I I #
point $-1 -0.85877381604791114 0.38756011839520882 0 #
point $-1 -0.85877381604791114 -0.38756011839520876 0.24999999999999997 #
loop $-1 $-1 $122 $71 #
coedge $-1 $108 $108 $123 $124 forward $90 $-1 #
coedge $-1 $109 $109 $125 $126 reversed $92 $-1 #
coedge $-1 $110 $110 $93 $111 forward $127 $-1 #
edge $-1 $128 $128 $110 $129 forward #
coedge $-1 $112 $112 $94 $113 forward $130 $-1 #
edge $-1 $131 $131 $112 $132 forward #
loop $-1 $133 $95 $49 #
vertex $-1 $96 $134 #
ellipse-curve $-1 -1.1480684567084787e-016 0.9375 0 0 0 1 0.09375 0 0 1 I I #
loop $-1 $130 $97 $68 #
vertex $-1 $98 $135 #
ellipse-curve $-1 0.81189881604791159 0.46874999999999944 0.24999999999999989 0 0 -1 0.046874999999999938 -0.081189881604791153 0 1 I I #
point $-1 0.76502381604791159 0.54993988160479057 0 #
point $-1 -0.76502381604791114 0.54993988160479101 0.24999999999999997 #
coedge $-1 $122 $122 $136 $137 reversed $107 $-1 #
coedge $-1 $123 $123 $108 $124 reversed $138 $-1 #
edge $-1 $139 $139 $108 $140 forward #
coedge $-1 $125 $125 $109 $126 forward $133 $-1 #
edge $-1 $141 $141 $125 $142 forward #
loop $-1 $138 $110 $68 #
vertex $-1 $111 $143 #
ellipse-curve $-1 0 0 0.24999999999999997 0 0 -1 -0.62499999999999989 0 0 1 I I #
loop $-1 $127 $112 $68 #
vertex $-1 $113 $144 #
ellipse-curve $-1 -1.1480684567084787e-016 0.9375 0.24999999999999989 0 0 -1 0.09375 0 0 1 I I #
loop $-1 $145 $125 $49 #
point $-1 -0.093750000000000111 0.9375 0 #
point $-1 0.85877381604791148 0.38756011839520832 0.24999999999999997 #
coedge $-1 $136 $136 $122 $137 forward $145 $-1 #
edge $-1 $146 $146 $136 $147 forward #
loop $-1 $-1 $123 $68 #
vertex $-1 $124 $148 #
ellipse-curve $-1 0 0 0.24999999999999997 0 0 -1 -1.2499999999999998 0 0 1 I I #
vertex $-1 $126 $149 #
ellipse-curve $-1 0 0 0 0 0 1 -0.62499999999999989 0 0 1 I I #
point $-1 0.62499999999999989 7.6537897113898566e-017 0.24999999999999997 #
point $-1 0.093749999999999875 0.9375 0.24999999999999997 #
loop $-1 $-1 $136 $49 #
vertex $-1 $137 $150 #
ellipse-curve $-1 0 0 0 0 0 -1 -1.2499999999999998 0 0 1 I I #
point $-1 1.2499999999999998 1.5307579422779713e-016 0.24999999999999997 #
point $-1 0.62499999999999989 7.6537897113898566e-017 0 #
point $-1 1.2499999999999998 1.5307579422779713e-016 0 #
End-of-ACIS-data 