400 0 1 0           
7 Unknown 11 ACIS 6.0 NT 24 Thu Dec 27 20:46:06 2001 
1 9.9999999999999995e-007 1e-010 
body $-1 $1 $-1 $-1 #
lump $-1 $-1 $2 $0 #
shell $-1 $-1 $-1 $3 $-1 $1 #
face $-1 $4 $5 $2 $-1 $6 reversed single #
face $-1 $7 $8 $2 $-1 $6 reversed single #
loop $-1 $9 $10 $3 #
cone-surface $-1 -21.750000000000004 -47.126949975944399 15.25 0 1 0 3.1749999999999998 0 0 1 I I 0 1 3.1749999999999998 reversed I I I I #
face $-1 $11 $12 $2 $-1 $13 forward single #
loop $-1 $14 $15 $4 #
loop $-1 $-1 $16 $3 #
coedge $-1 $10 $10 $17 $18 reversed $5 $-1 #
face $-1 $19 $20 $2 $-1 $21 forward single #
loop $-1 $-1 $22 $7 #
cone-surface $-1 -21.749999999999979 3.5751006684158924 20.500000000000004 -2.6225740739176927e-015 1 0 -7.0710678118654746 -1.8841109504205298e-014 7.0710678118654746 1 I I 0 1 9.9999999999999982 forward I I I I #
loop $-1 $-1 $23 $4 #
coedge $-1 $15 $15 $24 $25 reversed $8 $-1 #
coedge $-1 $16 $16 $26 $27 reversed $9 $-1 #
coedge $-1 $17 $17 $10 $18 forward $28 $-1 #
edge $-1 $29 $29 $17 $30 forward #
face $-1 $31 $32 $2 $-1 $33 forward single #
loop $-1 $34 $35 $11 #
plane-surface $-1 -31.750000000000004 12.465100668415893 0 0 1 0 0 0 10 forward_v I I I I #
coedge $-1 $36 $37 $38 $39 forward $12 $-1 #
coedge $-1 $23 $23 $35 $40 reversed $14 $-1 #
coedge $-1 $24 $24 $15 $25 forward $41 $-1 #
edge $-1 $42 $42 $24 $43 forward #
coedge $-1 $26 $26 $16 $27 forward $44 $-1 #
edge $-1 $45 $45 $26 $46 forward #
loop $-1 $47 $17 $48 #
vertex $-1 $18 $49 #
ellipse-curve $-1 -21.750000000000004 -7.8548993315841065 15.25 0 -1 0 3.1749999999999998 0 0 1 I I #
face $-1 $50 $51 $2 $-1 $52 forward single #
loop $-1 $53 $54 $19 #
plane-surface $-1 -10.550041736227044 -0.23489933158410581 30.500000000000004 0 0 1 10 0 0 forward_v I I I I #
loop $-1 $-1 $38 $11 #
coedge $-1 $35 $35 $23 $40 forward $20 $-1 #
coedge $-1 $55 $22 $56 $57 forward $12 $-1 #
coedge $-1 $22 $55 $54 $58 forward $12 $-1 #
coedge $-1 $59 $60 $22 $39 reversed $34 $-1 #
edge $-1 $61 $62 $38 $63 forward #
edge $-1 $64 $64 $35 $65 forward #
loop $-1 $66 $24 $67 #
vertex $-1 $25 $68 #
ellipse-curve $-1 -21.750000000000004 7.3851006684158982 15.25 0 1 0 3.1749999999999998 0 0 1 I I #
loop $-1 $69 $26 $70 #
vertex $-1 $27 $71 #
ellipse-curve $-1 -21.750000000000004 -12.934899331584106 15.25 0 1 0 3.1749999999999998 0 0 1 I I #
loop $-1 $-1 $72 $48 #
face $-1 $73 $28 $2 $-1 $74 forward single #
point $-1 -24.925000000000001 -7.8548993315841065 15.25 #
face $-1 $70 $75 $2 $-1 $76 forward single #
loop $-1 $-1 $77 $31 #
cone-surface $-1 -21.749999999999986 -6.5848993315841051 10 -2.6225740739176919e-015 -1 0 -7.0710678118654791 1.8841109504205295e-014 -7.071067811865472 1 I I 0 1 10 forward I I I I #
loop $-1 $-1 $78 $19 #
coedge $-1 $79 $80 $37 $58 reversed $32 $-1 #
coedge $-1 $37 $36 $81 $82 forward $12 $-1 #
coedge $-1 $83 $84 $36 $57 reversed $85 $-1 #
edge $-1 $62 $86 $56 $87 forward #
edge $-1 $88 $61 $54 $89 forward #
coedge $-1 $90 $38 $80 $91 forward $34 $-1 #
coedge $-1 $38 $92 $83 $93 forward $34 $-1 #
vertex $-1 $91 $94 #
vertex $-1 $39 $95 #
ellipse-curve $-1 -21.750000000000004 12.465100668415921 20.500000000000004 0 -1 0 -7.0710678118654746 -1.8841109504205298e-014 7.0710678118654746 1 I I #
vertex $-1 $40 $96 #
ellipse-curve $-1 -21.750000000000004 12.465100668415889 15.25 0 -1 0 3.1749999999999998 0 0 1 I I #
loop $-1 $-1 $81 $67 #
face $-1 $97 $41 $2 $-1 $98 forward single #
point $-1 -24.925000000000001 7.3851006684158982 15.25 #
loop $-1 $-1 $99 $70 #
face $-1 $100 $44 $2 $-1 $101 forward single #
point $-1 -24.925000000000001 -12.934899331584106 15.25 #
coedge $-1 $102 $103 $104 $105 reversed $47 $-1 #
face $-1 $106 $107 $2 $-1 $108 forward single #
plane-surface $-1 -31.749999999999989 -7.8548993315841056 0 0 1 0 0 0 10 forward_v I I I I #
loop $-1 $-1 $109 $50 #
plane-surface $-1 -31.750000000000004 -12.934899331584106 0 -1 2.6225740739176919e-015 0 0 0 10 forward_v I I I I #
coedge $-1 $110 $111 $99 $112 forward $51 $-1 #
coedge $-1 $78 $78 $113 $114 forward $53 $-1 #
coedge $-1 $115 $54 $116 $117 reversed $32 $-1 #
coedge $-1 $54 $118 $59 $91 reversed $32 $-1 #
coedge $-1 $119 $116 $55 $82 reversed $66 $-1 #
edge $-1 $86 $88 $81 $120 forward #
coedge $-1 $121 $56 $60 $93 reversed $85 $-1 #
coedge $-1 $56 $121 $119 $122 forward $85 $-1 #
loop $-1 $-1 $56 $106 #
vertex $-1 $82 $123 #
straight-curve $-1 -31.749999999999979 3.5751006684158666 20.500000000000004 2.6225740739176927e-014 -10 0 F -3.9890010000000005 F 2.751001 #
vertex $-1 $58 $124 #
straight-curve $-1 -21.749999999999979 3.5751006684158924 30.500000000000004 -2.6225740739176927e-014 10 0 F -2.751001 F 3.9890010000000005 #
coedge $-1 $125 $59 $126 $127 reversed $34 $-1 #
edge $-1 $61 $128 $59 $129 forward #
coedge $-1 $60 $125 $130 $131 reversed $34 $-1 #
edge $132 $133 $62 $60 $134 forward #
point $-1 -21.750000000000004 12.465100668415893 30.500000000000004 #
point $-1 -31.750000000000004 12.465100668415893 20.500000000000004 #
point $-1 -18.575000000000003 12.465100668415893 15.25 #
face $-1 $135 $136 $2 $-1 $137 reversed single #
plane-surface $-1 -11.750000000000005 7.3851006684158937 0 0 -1 0 0 0 -10 forward_v I I I I #
coedge $-1 $138 $139 $77 $112 reversed $69 $-1 #
face $-1 $140 $141 $2 $-1 $142 forward single #
plane-surface $-1 12.699999999999999 -12.934899331584106 0 0 -1 0 0 0 -10 forward_v I I I I #
coedge $-1 $143 $72 $144 $145 forward $47 $-1 #
coedge $-1 $72 $146 $147 $148 forward $47 $-1 #
coedge $-1 $111 $110 $72 $105 forward $51 $-1 #
edge $-1 $149 $150 $72 $151 forward #
face $-1 $-1 $85 $2 $-1 $152 forward single #
loop $-1 $-1 $153 $73 #
plane-surface $-1 -11.750000000000004 -7.8548993315841056 0 -1 -1.4569855966209404e-016 0 0 0 10 forward_v I I I I #
coedge $-1 $154 $144 $110 $155 reversed $75 $-1 #
coedge $-1 $104 $77 $109 $155 forward $51 $-1 #
coedge $-1 $77 $104 $156 $157 forward $51 $-1 #
edge $-1 $158 $159 $99 $160 forward #
coedge $-1 $113 $113 $78 $114 reversed $161 $-1 #
edge $-1 $162 $162 $78 $163 forward #
coedge $-1 $164 $79 $153 $165 reversed $32 $-1 #
coedge $-1 $81 $166 $79 $117 forward $66 $-1 #
edge $167 $168 $88 $116 $169 forward #
coedge $-1 $80 $170 $171 $172 reversed $32 $-1 #
coedge $-1 $173 $81 $84 $122 reversed $66 $-1 #
ellipse-curve $-1 -21.749999999999989 7.3851006684158671 20.500000000000004 0 1 0 -7.0710678118654746 -1.8841109504205298e-014 7.0710678118654746 1 I I #
coedge $-1 $84 $83 $174 $175 reversed $85 $-1 #
edge $176 $177 $86 $84 $178 forward #
point $-1 -31.749999999999989 7.3851006684158937 20.500000000000004 #
point $-1 -21.749999999999989 7.3851006684158937 30.500000000000004 #
coedge $-1 $92 $90 $179 $180 forward $34 $-1 #
coedge $-1 $171 $181 $90 $127 forward $182 $-1 #
edge $183 $184 $128 $90 $185 forward #
vertex $-1 $172 $186 #
straight-curve $-1 12.699999999999999 12.465100668415893 30.500000000000004 10 0 0 F -4.4450000000000003 F 0 #
coedge $-1 $187 $174 $92 $131 forward $188 $-1 #
edge $-1 $133 $189 $92 $190 forward #
convexity-sys-attrib $-1 $-1 $-1 $93 #
vertex $-1 $93 $191 #
straight-curve $-1 -31.750000000000004 12.465100668415893 0 0 0 10 I I #
face $-1 $192 $182 $2 $-1 $193 forward single #
loop $-1 $194 $156 $97 #
plane-surface $-1 -10.550041736227044 -0.23489933158410581 0 0 0 1 10 0 0 forward_v I I I I #
coedge $-1 $195 $99 $196 $197 forward $69 $-1 #
coedge $-1 $99 $198 $154 $199 reversed $69 $-1 #
face $-1 $67 $188 $2 $-1 $200 forward single #
loop $-1 $-1 $201 $100 #
cone-surface $-1 -21.749999999999986 -6.5848993315841051 20.500000000000004 2.6225740739176919e-015 1 0 -7.0710678118654791 1.8841109504205295e-014 7.071067811865472 1 I I 0 1 10 forward I I I I #
coedge $-1 $202 $102 $203 $204 reversed $47 $-1 #
coedge $-1 $109 $205 $102 $145 reversed $75 $-1 #
edge $-1 $149 $206 $102 $207 forward #
coedge $-1 $103 $202 $208 $209 reversed $47 $-1 #
coedge $-1 $210 $156 $103 $148 reversed $136 $-1 #
edge $211 $212 $150 $103 $213 forward #
vertex $-1 $145 $214 #
vertex $-1 $157 $215 #
ellipse-curve $-1 -21.749999999999989 -7.8548993315841305 10 0 -1 0 -7.0710678118654791 1.8841109504205295e-014 -7.071067811865472 1 I I #
plane-surface $-1 -31.749999999999989 7.3851006684158937 0 -1 -2.6225740739176927e-015 0 0 0 10 forward_v I I I I #
coedge $-1 $216 $208 $115 $165 forward $107 $-1 #
coedge $-1 $205 $109 $139 $199 forward $75 $-1 #
edge $-1 $159 $149 $109 $217 forward #
coedge $-1 $147 $196 $111 $157 reversed $136 $-1 #
edge $-1 $150 $158 $156 $218 forward #
vertex $-1 $197 $219 #
vertex $-1 $199 $220 #
ellipse-curve $-1 -21.750000000000004 -12.934899331584017 10 0 1 0 -7.0710678118654791 1.8841109504205295e-014 -7.071067811865472 1 I I #
loop $-1 $221 $113 $192 #
vertex $-1 $114 $222 #
ellipse-curve $-1 0 0 30.500000000000004 0 0 -1 -6.3499999999999996 0 0 1 I I #
coedge $-1 $223 $115 $202 $224 reversed $32 $-1 #
edge $225 $226 $168 $153 $227 forward #
coedge $-1 $116 $228 $216 $229 forward $66 $-1 #
convexity-sys-attrib $-1 $-1 $-1 $117 #
vertex $-1 $229 $230 #
straight-curve $-1 -31.749999999999989 7.3851006684158937 30.500000000000004 -10 0 0 F -1.9999999999999984 F 0 #
coedge $-1 $118 $223 $231 $232 reversed $32 $-1 #
coedge $-1 $233 $126 $118 $172 forward $182 $-1 #
edge $-1 $128 $234 $118 $235 forward #
coedge $-1 $228 $119 $236 $237 reversed $66 $-1 #
coedge $-1 $130 $236 $121 $175 forward $188 $-1 #
edge $-1 $177 $133 $121 $238 forward #
convexity-sys-attrib $-1 $-1 $-1 $122 #
vertex $-1 $122 $239 #
straight-curve $-1 -31.749999999999989 7.3851006684158937 0 0 0 10 I I #
coedge $-1 $240 $241 $125 $180 reversed $136 $-1 #
edge $242 $184 $189 $125 $243 forward #
coedge $-1 $126 $233 $240 $244 forward $182 $-1 #
loop $-1 $-1 $171 $135 #
convexity-sys-attrib $-1 $-1 $-1 $127 #
vertex $-1 $180 $245 #
straight-curve $-1 0 12.465100668415893 0 0 0 10 F -3.9370010000000004 F 6.9870010000000002 #
point $-1 0 12.465100668415893 30.500000000000004 #
coedge $-1 $236 $130 $241 $246 forward $188 $-1 #
loop $-1 $-1 $130 $140 #
vertex $-1 $246 $247 #
ellipse-curve $-1 -21.750000000000004 12.465100668415921 10 0 -1 0 -7.0710678118654746 -1.8841109504205298e-014 -7.0710678118654746 1 I I #
point $-1 -31.750000000000004 12.465100668415893 10 #
face $-1 $48 $161 $2 $-1 $248 reversed single #
cone-surface $-1 0 -0.23489933158410636 0 0 0 1 8.9802561210691536 8.9802561210691536 0 1 I I 0 1 12.700000000000003 forward I I I I #
loop $-1 $-1 $249 $97 #
coedge $-1 $231 $138 $233 $250 reversed $69 $-1 #
coedge $-1 $156 $240 $138 $197 reversed $136 $-1 #
edge $-1 $158 $251 $138 $252 forward #
coedge $-1 $139 $231 $201 $253 reversed $69 $-1 #
edge $-1 $159 $254 $154 $255 forward #
cone-surface $-1 -21.749999999999979 3.5751006684158924 10 2.6225740739176927e-015 -1 0 -7.0710678118654746 -1.8841109504205298e-014 -7.0710678118654746 1 I I 0 1 9.9999999999999982 forward I I I I #
coedge $-1 $256 $257 $198 $253 forward $141 $-1 #
coedge $-1 $146 $143 $164 $224 forward $47 $-1 #
coedge $-1 $257 $256 $143 $204 forward $141 $-1 #
edge $-1 $258 $206 $143 $259 forward #
coedge $-1 $144 $154 $257 $260 reversed $75 $-1 #
vertex $-1 $260 $261 #
straight-curve $-1 -31.749999999999989 -7.8548993315841056 0 0 0 10 I I #
coedge $-1 $153 $262 $146 $209 forward $107 $-1 #
edge $263 $212 $226 $208 $264 forward #
coedge $-1 $265 $147 $262 $266 reversed $136 $-1 #
convexity-sys-attrib $-1 $-1 $-1 $148 #
vertex $-1 $266 $267 #
straight-curve $-1 -11.750000000000004 -7.8548993315841056 0 -10 0 0 F 0 F 1.9999999999999987 #
point $-1 -31.749999999999989 -7.8548993315841056 10 #
point $-1 -21.749999999999989 -7.8548993315841056 0 #
coedge $-1 $262 $153 $166 $229 reversed $107 $-1 #
straight-curve $-1 -31.749999999999989 -6.5848993315840785 10 2.6225740739176921e-014 10 0 F -3.7350010000000005 F 3.005001 #
straight-curve $-1 -21.749999999999986 -6.5848993315841051 0 -2.6225740739176921e-014 -10 0 F -3.005001 F 3.7350010000000005 #
point $-1 -21.75 -12.934899331584106 0 #
point $-1 -31.750000000000004 -12.934899331584106 10 #
loop $-1 $-1 $268 $192 #
point $-1 6.3499999999999996 7.7762503467720954e-016 30.500000000000004 #
coedge $-1 $170 $164 $256 $269 reversed $32 $-1 #
edge $-1 $258 $226 $202 $270 forward #
convexity-sys-attrib $-1 $-1 $-1 $165 #
vertex $-1 $209 $271 #
straight-curve $-1 -11.750000000000005 7.3851006684158937 30.500000000000004 -1.4569855966209404e-015 10 0 F -1.524 F 0 #
coedge $-1 $166 $173 $265 $272 forward $66 $-1 #
edge $273 $274 $168 $166 $275 forward #
point $-1 -11.750000000000005 7.3851006684158937 30.500000000000004 #
coedge $-1 $198 $195 $170 $232 forward $69 $-1 #
edge $276 $234 $277 $231 $278 forward #
coedge $-1 $181 $171 $195 $250 forward $182 $-1 #
vertex $-1 $232 $279 #
ellipse-curve $-1 0 -0.23489933158410636 30.500000000000004 0 0 -1 8.9802561210691536 -8.9802561210691536 0 1 I I #
coedge $-1 $174 $187 $173 $237 forward $188 $-1 #
edge $-1 $280 $177 $173 $281 forward #
straight-curve $-1 -31.749999999999979 3.5751006684158666 10 -2.6225740739176927e-014 10 0 F -2.751001 F 3.9890010000000005 #
point $-1 -31.749999999999989 7.3851006684158937 10 #
coedge $-1 $196 $179 $181 $244 reversed $136 $-1 #
coedge $-1 $179 $265 $187 $246 reversed $136 $-1 #
convexity-sys-attrib $-1 $-1 $-1 $180 #
straight-curve $-1 12.699999999999999 12.465100668415893 0 -10 0 0 F 0 F 4.4450000000000003 #
edge $282 $251 $184 $240 $283 forward #
point $-1 0 12.465100668415893 0 #
edge $-1 $189 $280 $241 $284 forward #
point $-1 -21.750000000000004 12.465100668415893 0 #
cone-surface $-1 0 0 0 0 0 1 -6.3499999999999996 0 0 1 I I 0 1 6.3499999999999996 forward I I I I #
coedge $-1 $249 $249 $268 $285 forward $194 $-1 #
edge $286 $234 $251 $195 $287 forward #
vertex $-1 $244 $288 #
straight-curve $-1 -31.750000000000004 -12.934899331584106 0 10 0 0 F 0 F 4.4450000000000003 #
edge $-1 $254 $277 $198 $289 forward #
vertex $-1 $253 $290 #
straight-curve $-1 -31.750000000000004 -12.934899331584106 0 0 0 10 I I #
coedge $-1 $203 $201 $223 $269 forward $141 $-1 #
coedge $-1 $201 $203 $205 $260 forward $141 $-1 #
vertex $-1 $224 $291 #
ellipse-curve $-1 -21.749999999999989 -7.8548993315841305 20.500000000000004 0 -1 0 -7.0710678118654791 1.8841109504205295e-014 7.071067811865472 1 I I #
edge $-1 $206 $254 $205 $292 forward #
point $-1 -31.749999999999989 -7.8548993315841056 20.500000000000004 #
coedge $-1 $208 $216 $210 $266 forward $107 $-1 #
convexity-sys-attrib $-1 $-1 $-1 $209 #
straight-curve $-1 -11.750000000000004 -7.8548993315841056 0 0 0 10 I I #
coedge $-1 $241 $210 $228 $272 reversed $136 $-1 #
edge $293 $274 $212 $262 $294 forward #
point $-1 -11.750000000000004 -7.8548993315841056 0 #
coedge $-1 $268 $268 $249 $285 reversed $221 $-1 #
edge $-1 $277 $258 $223 $295 forward #
straight-curve $-1 -11.750000000000004 -7.8548993315841056 30.500000000000004 10 0 0 F -1.9999999999999987 F 0 #
point $-1 -11.750000000000004 -7.8548993315841056 30.500000000000004 #
edge $-1 $280 $274 $228 $296 forward #
convexity-sys-attrib $-1 $-1 $-1 $229 #
vertex $-1 $272 $297 #
straight-curve $-1 -11.750000000000005 7.3851006684158937 0 0 0 10 I I #
convexity-sys-attrib $-1 $-1 $-1 $232 #
vertex $-1 $253 $298 #
straight-curve $-1 -31.750000000000004 -12.934899331584106 30.500000000000004 -10 0 0 F -4.4450000000000003 F 0 #
point $-1 0 -12.934899331584106 30.500000000000004 #
vertex $-1 $272 $299 #
ellipse-curve $-1 -21.749999999999989 7.3851006684158671 10 0 1 0 -7.0710678118654746 -1.8841109504205298e-014 -7.0710678118654746 1 I I #
convexity-sys-attrib $-1 $-1 $-1 $244 #
ellipse-curve $-1 0 -0.23489933158410636 0 0 0 1 8.9802561210691536 8.9802561210691536 0 1 I I #
straight-curve $-1 -21.749999999999979 3.5751006684158924 0 2.6225740739176927e-014 -10 0 F -3.9890010000000005 F 2.751001 #
edge $300 $301 $301 $249 $302 forward #
convexity-sys-attrib $-1 $-1 $-1 $250 #
straight-curve $-1 0 -12.934899331584106 0 0 0 -10 F -6.9870010000000002 F 3.9370010000000004 #
point $-1 0 -12.934899331584106 0 #
ellipse-curve $-1 -21.750000000000004 -12.934899331584017 20.500000000000004 0 1 0 -7.0710678118654791 1.8841109504205295e-014 7.071067811865472 1 I I #
point $-1 -31.750000000000004 -12.934899331584106 20.500000000000004 #
point $-1 -21.749999999999989 -7.8548993315841056 30.500000000000004 #
straight-curve $-1 -31.749999999999989 -6.5848993315840785 20.500000000000004 -2.6225740739176921e-014 -10 0 F -3.005001 F 3.7350010000000005 #
convexity-sys-attrib $-1 $-1 $-1 $266 #
straight-curve $-1 -11.750000000000005 7.3851006684158937 0 1.4569855966209404e-015 -10 0 F 0 F 1.524 #
straight-curve $-1 -21.749999999999986 -6.5848993315841051 30.500000000000004 2.6225740739176921e-014 10 0 F -3.7350010000000005 F 3.005001 #
straight-curve $-1 -31.749999999999989 7.3851006684158937 0 10 0 0 F 0 F 1.9999999999999984 #
point $-1 -11.750000000000005 7.3851006684158937 0 #
point $-1 -21.75 -12.934899331584106 30.500000000000004 #
point $-1 -21.749999999999989 7.3851006684158937 0 #
convexity-sys-attrib $-1 $-1 $-1 $285 #
vertex $-1 $285 $303 #
ellipse-curve $-1 0 0 0 0 0 1 -6.3499999999999996 0 0 1 I I #
point $-1 6.3499999999999996 7.7762503467720954e-016 0 #
End-of-ACIS-data 