400 0 1 0           
7 Unknown 11 ACIS 6.0 NT 24 Thu Dec 06 21:03:14 2001 
25.399999999999999 9.9999999999999995e-007 1e-010 
body $-1 $1 $-1 $-1 #
lump $-1 $-1 $2 $0 #
shell $-1 $-1 $-1 $3 $-1 $1 #
face $-1 $4 $5 $2 $-1 $6 forward single #
face $-1 $7 $8 $2 $-1 $9 reversed single #
loop $-1 $10 $11 $3 #
cone-surface $-1 0 0 0.13999999999999999 0 0 -1 -0.48399999999999999 0 0 1 I I 0 1 0.48399999999999999 forward I I I I #
face $-1 $12 $13 $2 $-1 $14 reversed single #
loop $-1 $15 $16 $4 #
plane-surface $-1 0.043999999999999991 -3.9735970816934733e-018 0.077999999999999972 8.1557199213031456e-034 8.1557199213031456e-034 1 0.39370078740157477 0 -3.2109133548437577e-034 forward_v I I I I #
loop $-1 $-1 $17 $3 #
coedge $-1 $11 $11 $18 $19 forward $5 $-1 #
face $-1 $20 $21 $2 $-1 $14 reversed single #
loop $-1 $22 $23 $7 #
cone-surface $-1 0 0 0 0 0 1 -0.375 0 0 1 I I 0 1 0.375 forward I I I I #
loop $-1 $-1 $18 $4 #
coedge $-1 $16 $16 $24 $25 reversed $8 $-1 #
coedge $-1 $17 $17 $26 $27 forward $10 $-1 #
coedge $-1 $18 $18 $11 $19 reversed $15 $-1 #
edge $-1 $28 $28 $11 $29 forward #
face $-1 $30 $31 $2 $-1 $32 reversed single #
loop $-1 $33 $34 $12 #
loop $-1 $-1 $35 $7 #
coedge $-1 $23 $23 $36 $37 reversed $13 $-1 #
coedge $-1 $24 $24 $16 $25 forward $38 $-1 #
edge $-1 $39 $39 $24 $40 forward #
coedge $-1 $26 $26 $17 $27 reversed $41 $-1 #
edge $-1 $42 $42 $17 $43 forward #
vertex $-1 $19 $44 #
ellipse-curve $-1 0 0 0.078 0 0 1 -0.48399999999999999 0 0 1 I I #
face $-1 $45 $38 $2 $-1 $46 forward single #
loop $-1 $47 $48 $20 #
plane-surface $-1 0.039772727272727258 -3.9735970816934733e-018 -0.13999999999999999 0 0 1 0.39370078740157477 0 0 forward_v I I I I #
loop $-1 $-1 $49 $12 #
coedge $-1 $34 $34 $48 $50 reversed $21 $-1 #
coedge $-1 $35 $35 $51 $52 forward $22 $-1 #
coedge $-1 $36 $36 $23 $37 forward $53 $-1 #
edge $-1 $54 $54 $36 $55 forward #
loop $-1 $56 $24 $30 #
vertex $-1 $25 $57 #
ellipse-curve $-1 0 0 0.077999999999999972 -8.1557199213031456e-034 -8.1557199213031456e-034 -1 -0.4375 0 0 1 I I #
loop $-1 $53 $26 $45 #
vertex $-1 $27 $58 #
ellipse-curve $-1 0 0 0.13999999999999999 0 0 -1 -0.48399999999999999 0 0 1 I I #
point $-1 0.48399999999999999 5.9270947525003059e-017 0.077999999999999972 #
face $-1 $59 $41 $2 $-1 $60 forward single #
cone-surface $-1 0 0 0 0 0 1 -0.4375 0 0 1 I I 0 1 0.4375 forward I I I I #
loop $-1 $-1 $61 $20 #
coedge $-1 $48 $48 $34 $50 forward $31 $-1 #
coedge $-1 $49 $49 $62 $63 forward $33 $-1 #
edge $-1 $64 $64 $48 $65 forward #
coedge $-1 $51 $51 $35 $52 reversed $66 $-1 #
edge $-1 $67 $67 $51 $68 forward #
loop $-1 $-1 $36 $45 #
vertex $-1 $37 $69 #
ellipse-curve $-1 0 0 0.13999999999999999 0 0 -1 -0.375 0 0 1 I I #
loop $-1 $-1 $70 $30 #
point $-1 0.43749999999999989 5.3576527979728999e-017 0.077999999999999972 #
point $-1 0.48399999999999999 5.9270947525003059e-017 0.13999999999999999 #
face $-1 $71 $72 $2 $-1 $73 reversed single #
plane-surface $-1 0.039772727272727258 -3.9735970816934733e-018 0.13999999999999999 0 0 1 0.39370078740157477 0 0 forward_v I I I I #
coedge $-1 $61 $61 $70 $74 reversed $47 $-1 #
coedge $-1 $62 $62 $49 $63 reversed $75 $-1 #
edge $-1 $76 $76 $62 $77 forward #
vertex $-1 $50 $78 #
ellipse-curve $-1 0 0 -0.13999999999999999 0 0 1 -0.375 0 0 1 I I #
loop $-1 $-1 $51 $71 #
vertex $-1 $52 $79 #
ellipse-curve $-1 0 0 0.13299999999999998 0 0 -1 -0.375 0 0 1 I I #
point $-1 0.375 4.5922738268339147e-017 0.13999999999999999 #
coedge $-1 $70 $70 $61 $74 forward $56 $-1 #
face $-1 $80 $81 $2 $-1 $82 forward single #
loop $-1 $75 $83 $59 #
plane-surface $-1 0.034090909090909081 -3.9735970816934733e-018 -0.13299999999999998 0 0 1 0.39370078740157477 0 0 forward_v I I I I #
edge $-1 $84 $84 $70 $85 forward #
loop $-1 $-1 $62 $59 #
vertex $-1 $63 $86 #
ellipse-curve $-1 0 0 -0.13299999999999998 0 0 1 -0.375 0 0 1 I I #
point $-1 0.375 4.5922738268339147e-017 -0.13999999999999999 #
point $-1 0.375 4.5922738268339147e-017 0.13299999999999998 #
face $-1 $87 $88 $2 $-1 $89 forward single #
loop $-1 $66 $90 $71 #
plane-surface $-1 0.034090909090909081 -3.9735970816934733e-018 0.13299999999999998 0 0 1 0.39370078740157477 0 0 forward_v I I I I #
coedge $-1 $83 $83 $91 $92 reversed $72 $-1 #
vertex $-1 $74 $93 #
ellipse-curve $-1 0 0 -0.13999999999999999 0 0 1 -0.4375 0 0 1 I I #
point $-1 0.375 4.5922738268339147e-017 -0.13299999999999998 #
face $-1 $94 $95 $2 $-1 $96 reversed single #
loop $-1 $97 $98 $80 #
cone-surface $-1 0 0 0 0 0 1 -0.22649999999999998 0 0 1 I I 0 1 0.22649999999999998 forward I I I I #
coedge $-1 $90 $90 $99 $100 reversed $81 $-1 #
coedge $-1 $91 $91 $83 $92 forward $101 $-1 #
edge $-1 $102 $102 $91 $103 forward #
point $-1 0.4375 5.3576527979729005e-017 -0.13999999999999999 #
face $-1 $104 $105 $2 $-1 $106 reversed single #
loop $-1 $107 $108 $87 #
cone-surface $-1 0 0 0 0 0 1 -0.1875 0 0 1 I I 0 1 0.1875 forward I I I I #
loop $-1 $-1 $99 $80 #
coedge $-1 $98 $98 $109 $110 forward $88 $-1 #
coedge $-1 $99 $99 $90 $100 forward $97 $-1 #
edge $-1 $111 $111 $99 $112 forward #
loop $-1 $113 $91 $104 #
vertex $-1 $92 $114 #
ellipse-curve $-1 0 0 -0.13299999999999998 0 0 -1 -0.22649999999999998 0 0 1 I I #
face $-1 $115 $101 $2 $-1 $89 forward single #
loop $-1 $116 $117 $94 #
plane-surface $-1 0.02059090909090908 -5.9603956225402095e-018 -0.13999999999999999 0 0 1 0.39370078740157477 0 0 forward_v I I I I #
loop $-1 $-1 $118 $87 #
coedge $-1 $108 $108 $117 $119 reversed $95 $-1 #
coedge $-1 $109 $109 $98 $110 reversed $120 $-1 #
edge $-1 $121 $121 $98 $122 forward #
vertex $-1 $100 $123 #
ellipse-curve $-1 0 0 0.13299999999999998 0 0 1 -0.22649999999999998 0 0 1 I I #
loop $-1 $-1 $124 $104 #
point $-1 0.22649999999999998 2.7737333914076842e-017 -0.13299999999999998 #
face $-1 $-1 $125 $2 $-1 $126 forward single #
loop $-1 $-1 $127 $94 #
coedge $-1 $117 $117 $108 $119 forward $105 $-1 #
coedge $-1 $118 $118 $128 $129 reversed $107 $-1 #
edge $-1 $130 $130 $117 $131 forward #
loop $-1 $-1 $109 $115 #
vertex $-1 $110 $132 #
ellipse-curve $-1 0 0 0.13999999999999999 0 0 -1 -0.22649999999999998 0 0 1 I I #
point $-1 0.22649999999999998 2.7737333914076842e-017 0.13299999999999998 #
coedge $-1 $124 $124 $127 $133 forward $113 $-1 #
loop $-1 $120 $128 $115 #
plane-surface $-1 0.02059090909090908 -5.9603956225402095e-018 0.13999999999999999 0 0 1 0.39370078740157477 0 0 forward_v I I I I #
coedge $-1 $127 $127 $124 $133 reversed $116 $-1 #
coedge $-1 $128 $128 $118 $129 forward $125 $-1 #
edge $-1 $134 $134 $128 $135 forward #
vertex $-1 $119 $136 #
ellipse-curve $-1 0 0 -0.13999999999999999 0 0 1 -0.1875 0 0 1 I I #
point $-1 0.22649999999999998 2.7737333914076842e-017 0.13999999999999999 #
edge $-1 $137 $137 $124 $138 forward #
vertex $-1 $129 $139 #
ellipse-curve $-1 0 0 0.13999999999999999 0 0 -1 -0.1875 0 0 1 I I #
point $-1 0.1875 2.2961369134169574e-017 -0.13999999999999999 #
vertex $-1 $133 $140 #
ellipse-curve $-1 0 0 -0.13999999999999999 0 0 1 -0.22649999999999998 0 0 1 I I #
point $-1 0.1875 2.2961369134169574e-017 0.13999999999999999 #
point $-1 0.22649999999999998 2.7737333914076842e-017 -0.13999999999999999 #
End-of-ACIS-data 