700 0 1 0           
29 Autodesk Inventor 6.2.0.12000 17 ASM 6.0.1.6021 NT 24 Fri Jan 04 19:14:16 2008 
25.399999999999999 9.9999999999999995e-007 1e-010 
body $-1 -1 $-1 $1 $-1 $-1 #
lump $-1 -1 $-1 $-1 $2 $0 #
shell $-1 -1 $-1 $-1 $-1 $3 $-1 $1 #
face $-1 -1 $-1 $4 $5 $2 $-1 $6 forward single #
face $-1 -1 $-1 $7 $8 $2 $-1 $9 forward single #
loop $-1 -1 $-1 $10 $11 $3 #
cone-surface $-1 -1 $-1 0 0 0.99949999999999994 0 0 -1 -0.24749999999999994 0 0 1 I I 0.70710678118654435 0.70710678118655057 0.24749999999999994 forward I I I I #
face $-1 -1 $-1 $12 $13 $2 $-1 $14 reversed single #
loop $-1 -1 $-1 $15 $16 $4 #
cone-surface $-1 -1 $-1 0 0 0 0 0 1 -0.24999999999999997 0 0 1 I I 0 1 0.24999999999999997 forward I I I I #
loop $-1 -1 $-1 $-1 $17 $3 #
coedge $-1 -1 $-1 $11 $11 $18 $19 forward $5 $-1 #
face $-1 -1 $-1 $20 $21 $2 $-1 $22 forward single #
loop $-1 -1 $-1 $23 $24 $7 #
plane-surface $-1 -1 $-1 0 0 1.002 0 0 -1 -0.39370078740157477 0 0 forward_v I I I I #
loop $-1 -1 $-1 $-1 $25 $4 #
coedge $-1 -1 $-1 $16 $16 $26 $27 reversed $8 $-1 #
coedge $-1 -1 $-1 $17 $17 $25 $28 forward $10 $-1 #
coedge $-1 -1 $-1 $18 $18 $11 $19 reversed $23 $-1 #
edge $-1 -1 $-1 $29 -3.1415926535897931 $29 3.1415926535897931 $18 $30 forward @7 unknown #
face $-1 -1 $-1 $31 $32 $2 $-1 $33 forward single #
loop $-1 -1 $-1 $34 $35 $12 #
cone-surface $-1 -1 $-1 0 0 -0.99949999999999994 0 0 1 -0.24749999999999994 0 0 1 I I 0.70710678118654435 0.70710678118655057 0.24749999999999994 forward I I I I #
loop $-1 -1 $-1 $-1 $18 $7 #
coedge $-1 -1 $-1 $24 $24 $36 $37 reversed $13 $-1 #
coedge $-1 -1 $-1 $25 $25 $17 $28 reversed $15 $-1 #
coedge $-1 -1 $-1 $26 $26 $16 $27 forward $34 $-1 #
edge $-1 -1 $-1 $38 -3.1415926535897931 $38 3.1415926535897931 $16 $39 forward @7 unknown #
edge $-1 -1 $-1 $40 -3.1415926535897931 $40 3.1415926535897931 $25 $41 forward @7 unknown #
vertex $-1 -1 $-1 $19 $42 #
ellipse-curve $-1 -1 $-1 0 0 1.002 0 0 -1 -0.24499999999999997 0 0 1 I I #
face $-1 -1 $-1 $43 $44 $2 $-1 $45 forward single #
loop $-1 -1 $-1 $46 $47 $20 #
plane-surface $-1 -1 $-1 0 0 -1.002 0 0 -1 -0.39370078740157477 0 0 forward_v I I I I #
loop $-1 -1 $-1 $-1 $26 $12 #
coedge $-1 -1 $-1 $35 $35 $48 $49 forward $21 $-1 #
coedge $-1 -1 $-1 $36 $36 $24 $37 forward $50 $-1 #
edge $-1 -1 $-1 $51 -3.1415926535897931 $51 3.1415926535897931 $24 $52 forward @7 unknown #
vertex $-1 -1 $-1 $27 $53 #
ellipse-curve $-1 -1 $-1 0 0 -0.99699999999999989 0 0 -1 -0.24999999999999997 0 0 1 I I #
vertex $-1 -1 $-1 $28 $54 #
ellipse-curve $-1 -1 $-1 0 0 0.99699999999999989 0 0 1 -0.24999999999999997 0 0 1 I I #
point $-1 -1 $-1 0.24499999999999997 -3.0002855668648239e-017 1.002 #
face $-1 -1 $-1 $55 $56 $2 $-1 $57 reversed single #
loop $-1 -1 $-1 $58 $59 $31 #
cone-surface $-1 -1 $-1 0 0 -0.99949999999999994 0 0 -1 -0.12749999999999997 0 0 1 I I -0.70710678118654291 -0.70710678118655224 0.12749999999999997 forward I I I I #
loop $-1 -1 $-1 $-1 $48 $20 #
coedge $-1 -1 $-1 $47 $47 $60 $61 reversed $32 $-1 #
coedge $-1 -1 $-1 $48 $48 $35 $49 reversed $46 $-1 #
edge $-1 -1 $-1 $62 -3.1415926535897931 $62 3.1415926535897931 $48 $63 forward @7 unknown #
loop $-1 -1 $-1 $-1 $36 $55 #
vertex $-1 -1 $-1 $37 $64 #
ellipse-curve $-1 -1 $-1 0 0 1.002 0 0 1 -0.12999999999999998 0 0 1 I I #
point $-1 -1 $-1 0.24999999999999997 -3.0615158845559425e-017 -0.99699999999999989 #
point $-1 -1 $-1 0.24999999999999997 3.0615158845559425e-017 0.99699999999999989 #
face $-1 -1 $-1 $-1 $65 $2 $-1 $66 forward single #
loop $-1 -1 $-1 $67 $68 $43 #
cone-surface $-1 -1 $-1 0 0 0 0 0 1 -0.12499999999999999 0 0 1 I I 0 1 0.12499999999999999 forward I I I I #
loop $-1 -1 $-1 $-1 $60 $31 #
coedge $-1 -1 $-1 $59 $59 $69 $70 forward $44 $-1 #
coedge $-1 -1 $-1 $60 $60 $47 $61 forward $58 $-1 #
edge $-1 -1 $-1 $71 -3.1415926535897931 $71 3.1415926535897931 $47 $72 forward @7 unknown #
vertex $-1 -1 $-1 $49 $73 #
ellipse-curve $-1 -1 $-1 0 0 -1.002 0 0 1 -0.24499999999999997 0 0 1 I I #
point $-1 -1 $-1 0.12999999999999998 1.5919882599690902e-017 1.002 #
loop $-1 -1 $-1 $50 $74 $55 #
cone-surface $-1 -1 $-1 0 0 0.99949999999999994 0 0 1 -0.12749999999999997 0 0 1 I I -0.70710678118654291 -0.70710678118655224 0.12749999999999997 forward I I I I #
loop $-1 -1 $-1 $-1 $69 $43 #
coedge $-1 -1 $-1 $68 $68 $74 $75 reversed $56 $-1 #
coedge $-1 -1 $-1 $69 $69 $59 $70 reversed $67 $-1 #
edge $-1 -1 $-1 $76 -3.1415926535897931 $76 3.1415926535897931 $69 $77 forward @7 unknown #
vertex $-1 -1 $-1 $61 $78 #
ellipse-curve $-1 -1 $-1 0 0 -1.002 0 0 -1 -0.12999999999999998 0 0 1 I I #
point $-1 -1 $-1 0.24499999999999997 3.0002855668648239e-017 -1.002 #
coedge $-1 -1 $-1 $74 $74 $68 $75 forward $65 $-1 #
edge $-1 -1 $-1 $79 -3.1415926535897931 $79 3.1415926535897931 $68 $80 forward @7 unknown #
vertex $-1 -1 $-1 $70 $81 #
ellipse-curve $-1 -1 $-1 0 0 -0.99699999999999989 0 0 1 -0.12499999999999999 0 0 1 I I #
point $-1 -1 $-1 0.12999999999999998 -1.5919882599690902e-017 -1.002 #
vertex $-1 -1 $-1 $75 $82 #
ellipse-curve $-1 -1 $-1 0 0 0.99699999999999989 0 0 -1 -0.12499999999999999 0 0 1 I I #
point $-1 -1 $-1 0.12499999999999999 1.5307579422779713e-017 -0.99699999999999989 #
point $-1 -1 $-1 0.12499999999999999 -1.5307579422779713e-017 0.99699999999999989 #
End-of-ACIS-data 