400 0 1 0           
7 Unknown 11 ACIS 6.0 NT 24 Thu Jan 24 18:04:35 2002 
25.399999999999999 9.9999999999999995e-007 1e-010 
body $-1 $1 $-1 $-1 #
lump $-1 $-1 $2 $0 #
shell $-1 $-1 $-1 $3 $-1 $1 #
face $-1 $4 $5 $2 $-1 $6 forward single #
face $-1 $7 $8 $2 $-1 $9 forward single #
loop $-1 $-1 $10 $3 #
cone-surface $-1 0.30949728960939937 0.74641345407042692 0 0 0 1 0.044194173824159223 0.044194173824159223 0 1 I I 0 1 0.0625 forward I I I I #
face $-1 $11 $12 $2 $-1 $13 forward single #
loop $-1 $-1 $14 $4 #
plane-surface $-1 0.37199728960939943 0.80891345407042692 0 1 -8.7419135797256413e-017 0 0 0 -0.39370078740157477 forward_v I I I I #
coedge $-1 $15 $16 $17 $18 forward $5 $-1 #
face $-1 $19 $20 $2 $-1 $21 forward single #
loop $-1 $22 $17 $7 #
plane-surface $-1 -0.19300271039060041 0.058913454070426842 0.24999999999999997 0 0 1 0.39370078740157477 0 0 forward_v I I I I #
coedge $-1 $23 $24 $15 $25 reversed $8 $-1 #
coedge $-1 $26 $10 $14 $25 forward $5 $-1 #
coedge $-1 $10 $26 $27 $28 forward $5 $-1 #
coedge $-1 $29 $30 $10 $18 reversed $12 $-1 #
edge $-1 $31 $32 $17 $33 forward #
face $-1 $34 $35 $2 $-1 $36 forward single #
loop $-1 $-1 $37 $11 #
cone-surface $-1 0.30949728960939926 -0.62858654592957319 0 0 0 1 0.044194173824159251 -0.044194173824159182 0 1 I I 0 1 0.062499999999999993 forward I I I I #
loop $-1 $38 $39 $7 #
coedge $-1 $40 $14 $30 $41 forward $8 $-1 #
coedge $-1 $14 $40 $42 $43 forward $8 $-1 #
edge $-1 $32 $44 $14 $45 forward #
coedge $-1 $16 $15 $46 $47 forward $5 $-1 #
coedge $-1 $48 $49 $16 $28 reversed $50 $-1 #
edge $-1 $51 $31 $27 $52 forward #
coedge $-1 $53 $17 $49 $54 reversed $12 $-1 #
coedge $-1 $17 $55 $23 $41 reversed $12 $-1 #
vertex $-1 $18 $56 #
vertex $-1 $41 $57 #
ellipse-curve $-1 0.30949728960939937 0.74641345407042692 0.24999999999999997 0 0 -1 0.044194173824159223 0.044194173824159223 0 1 I I #
face $-1 $58 $59 $2 $-1 $60 forward single #
loop $-1 $-1 $61 $19 #
plane-surface $-1 0.37199728960939926 -0.69108654592957308 0 7.7362067077218095e-017 -1 0 0 0 -0.39370078740157477 forward_v I I I I #
coedge $-1 $62 $63 $55 $64 forward $20 $-1 #
loop $-1 $-1 $65 $7 #
coedge $-1 $39 $39 $66 $67 forward $22 $-1 #
coedge $-1 $24 $23 $63 $68 reversed $8 $-1 #
edge $-1 $32 $69 $23 $70 forward #
coedge $-1 $71 $46 $24 $43 reversed $72 $-1 #
edge $73 $74 $44 $24 $75 forward #
vertex $-1 $25 $76 #
straight-curve $-1 0.37199728960939943 0.74641345407042692 0 0 0 -0.39370078740157477 F -3.654426 F 0.49212600000000001 #
coedge $-1 $42 $77 $26 $47 reversed $72 $-1 #
edge $-1 $44 $51 $46 $78 forward #
coedge $-1 $79 $27 $77 $80 forward $50 $-1 #
coedge $-1 $27 $81 $29 $54 forward $50 $-1 #
loop $-1 $-1 $27 $82 #
vertex $-1 $80 $83 #
straight-curve $-1 0.30949728960939937 0.80891345407042692 0 0 0 0.39370078740157477 F -0.49212600000000001 F 3.654426 #
coedge $-1 $84 $29 $85 $86 forward $12 $-1 #
edge $87 $88 $31 $49 $89 forward #
coedge $-1 $30 $84 $37 $64 reversed $12 $-1 #
point $-1 0.30949728960939937 0.80891345407042692 0.24999999999999997 #
point $-1 0.37199728960939943 0.74641345407042692 0.24999999999999997 #
face $-1 $90 $91 $2 $-1 $92 forward single #
loop $-1 $-1 $93 $34 #
cone-surface $-1 -0.47550271039060055 0.41394054646379846 1.3699999999999999 -1 -7.7362067077218107e-017 0 0 -0.1804387602899408 0.33442765104732186 1 I I 0 1 0.38000000000000006 forward I I I I #
coedge $-1 $94 $95 $62 $96 reversed $35 $-1 #
coedge $-1 $97 $37 $61 $96 forward $20 $-1 #
coedge $-1 $37 $97 $40 $68 forward $20 $-1 #
edge $-1 $69 $98 $55 $99 forward #
coedge $-1 $65 $65 $100 $101 forward $38 $-1 #
coedge $-1 $66 $66 $39 $67 reversed $102 $-1 #
edge $-1 $103 $103 $39 $104 forward #
edge $-1 $74 $69 $40 $105 forward #
vertex $-1 $64 $106 #
straight-curve $-1 0.37199728960939926 -0.69108654592957308 0.24999999999999997 -3.4416982597345042e-017 -0.39370078740157477 0 F -3.8100000000000005 F 0 #
coedge $-1 $107 $42 $97 $108 reversed $72 $-1 #
loop $-1 $109 $46 $110 #
convexity-sys-attrib $-1 $-1 $-1 $43 #
vertex $-1 $43 $111 #
straight-curve $-1 0.37199728960939926 -0.69108654592957308 0 3.4416982597345042e-017 0.39370078740157477 0 F 0 F 3.8100000000000005 #
point $-1 0.37199728960939943 0.74641345407042692 0 #
coedge $-1 $46 $112 $48 $80 reversed $72 $-1 #
ellipse-curve $-1 0.30949728960939937 0.74641345407042692 0 0 0 1 0.044194173824159223 0.044194173824159223 0 1 I I #
coedge $-1 $113 $48 $114 $115 forward $50 $-1 #
edge $-1 $51 $116 $48 $117 forward #
coedge $-1 $49 $118 $119 $120 reversed $50 $-1 #
face $-1 $110 $50 $2 $-1 $121 forward single #
point $-1 0.30949728960939937 0.80891345407042692 0 #
coedge $-1 $55 $53 $94 $122 reversed $12 $-1 #
coedge $-1 $119 $123 $53 $86 reversed $124 $-1 #
edge $-1 $88 $125 $53 $126 forward #
convexity-sys-attrib $-1 $-1 $-1 $54 #
vertex $-1 $54 $127 #
straight-curve $-1 0.37199728960939937 0.80891345407042692 0.24999999999999997 0.39370078740157477 6.0915013446628412e-017 0 F -2.8701999999999992 F 0 #
face $-1 $128 $129 $2 $-1 $130 forward single #
loop $-1 $131 $132 $58 #
plane-surface $-1 -0.5080027103906003 0.058913454070426578 0.99999999999999978 1 -6.0888950306546793e-017 6.0888950306546793e-017 2.3972027679742829e-017 0 -0.39370078740157477 forward_v I I I I #
coedge $-1 $133 $134 $135 $136 forward $59 $-1 #
coedge $-1 $137 $61 $84 $122 forward $35 $-1 #
coedge $-1 $61 $138 $107 $139 forward $35 $-1 #
edge $-1 $98 $140 $61 $141 forward #
coedge $-1 $63 $62 $71 $108 forward $20 $-1 #
vertex $-1 $122 $142 #
ellipse-curve $-1 0.30949728960939926 -0.62858654592957319 0.24999999999999997 0 0 -1 0.044194173824159251 -0.044194173824159182 0 1 I I #
coedge $-1 $100 $100 $65 $101 reversed $143 $-1 #
edge $-1 $144 $144 $65 $145 forward #
loop $-1 $146 $66 $147 #
vertex $-1 $67 $148 #
ellipse-curve $-1 -0.068002710390600282 0.55891345407042692 0.24999999999999997 0 0 -1 -0.12999999999999998 0 0 1 I I #
straight-curve $-1 0.37199728960939926 -0.62858654592957319 0 0 0 0.39370078740157477 F -0.49212600000000001 F 1.1398259999999998 #
point $-1 0.37199728960939926 -0.62858654592957319 0.24999999999999997 #
coedge $-1 $112 $71 $95 $139 reversed $72 $-1 #
edge $-1 $140 $74 $71 $149 forward #
loop $-1 $150 $151 $110 #
face $-1 $-1 $72 $2 $-1 $152 reversed single #
point $-1 0.37199728960939926 -0.62858654592957319 0 #
coedge $-1 $77 $107 $153 $154 forward $72 $-1 #
coedge $-1 $155 $79 $156 $157 forward $50 $-1 #
coedge $-1 $153 $158 $79 $115 reversed $159 $-1 #
edge $-1 $116 $160 $79 $161 forward #
vertex $-1 $154 $162 #
straight-curve $-1 0.37199728960939937 0.80891345407042692 0 -0.39370078740157477 -6.0915013446628412e-017 0 F 0 F 2.8701999999999992 #
coedge $-1 $81 $155 $163 $164 forward $50 $-1 #
coedge $-1 $165 $85 $81 $120 forward $124 $-1 #
edge $-1 $88 $166 $119 $167 forward #
plane-surface $-1 -0.75800271039060019 0.80891345407042681 0 -1.5472413415443619e-016 1 0 0 0 0.39370078740157477 forward_v I I I I #
edge $-1 $98 $125 $94 $168 forward #
coedge $-1 $85 $165 $137 $169 reversed $124 $-1 #
loop $-1 $-1 $165 $170 #
vertex $-1 $169 $171 #
straight-curve $-1 -0.47800271039060038 -0.31608654592957308 0.24999999999999997 -2.2944655064896702e-017 -0.39370078740157477 0 I I #
point $-1 -0.47800271039060033 0.80891345407042659 0.24999999999999997 #
face $-1 $172 $173 $2 $-1 $174 reversed single #
loop $-1 $-1 $175 $90 #
plane-surface $-1 -0.1930027103906006 -0.24108654592957335 1.0649999999999999 6.4658091407637888e-017 -0.83578546761295969 0.54905614660705371 0.39370078740157477 0 -4.6363093567711643e-017 forward_v I I I I #
loop $-1 $-1 $176 $58 #
coedge $-1 $132 $132 $177 $178 forward $91 $-1 #
coedge $-1 $179 $93 $175 $180 forward $59 $-1 #
coedge $-1 $93 $179 $181 $182 forward $59 $-1 #
coedge $-1 $183 $184 $93 $136 reversed $173 $-1 #
edge $-1 $185 $186 $135 $187 forward #
coedge $-1 $188 $94 $123 $169 forward $35 $-1 #
coedge $-1 $95 $189 $190 $191 reversed $35 $-1 #
edge $192 $193 $140 $95 $194 forward #
vertex $-1 $96 $195 #
straight-curve $-1 0.30949728960939926 -0.69108654592957308 0 0 0 -0.39370078740157477 F -1.1398259999999998 F 0.49212600000000001 #
point $-1 0.30949728960939932 -0.69108654592957308 0.24999999999999997 #
loop $-1 $196 $100 $197 #
vertex $-1 $101 $198 #
ellipse-curve $-1 -0.06800271039060031 -0.44108654592957308 0.24999999999999997 0 0 -1 -0.12999999999999998 0 0 1 I I #
loop $-1 $-1 $199 $147 #
face $-1 $82 $102 $2 $-1 $200 reversed single #
point $-1 0.061997289609399708 0.55891345407042692 0.24999999999999997 #
ellipse-curve $-1 0.30949728960939926 -0.62858654592957319 0 0 0 1 0.044194173824159251 -0.044194173824159182 0 1 I I #
loop $-1 $-1 $201 $110 #
coedge $-1 $151 $151 $202 $203 forward $109 $-1 #
plane-surface $-1 -0.19300271039060041 0.058913454070426863 0 0 0 1 0.39370078740157477 0 0 forward_v I I I I #
coedge $-1 $190 $114 $112 $154 reversed $159 $-1 #
edge $-1 $193 $116 $112 $204 forward #
coedge $-1 $118 $113 $205 $206 reversed $50 $-1 #
coedge $-1 $207 $208 $113 $157 reversed $173 $-1 #
edge $209 $160 $210 $113 $211 forward #
coedge $-1 $114 $190 $207 $212 reversed $159 $-1 #
loop $-1 $-1 $158 $213 #
vertex $-1 $157 $214 #
ellipse-curve $-1 -0.47800271039059999 0.80891345407042659 0.27999999999999997 5.8279423864837625e-017 1 0 -3.4967654318902565e-016 0 -0.27999999999999997 1 F 0 F 1.5707963267948966 #
point $-1 -0.47800271039060033 0.80891345407042659 0 #
coedge $-1 $215 $216 $118 $164 reversed $131 $-1 #
edge $-1 $217 $166 $118 $218 forward #
coedge $-1 $123 $119 $216 $219 reversed $124 $-1 #
vertex $-1 $219 $220 #
ellipse-curve $-1 -0.47800271039059999 0.80891345407042659 0.27999999999999997 5.8279423864837625e-017 1 0 -3.7465343913109912e-017 0 -0.030000000000000016 1 F 1.0407039975863852e-014 F 1.5707963267949057 #
straight-curve $-1 -0.7580027103906003 -0.69108654592957319 0.24999999999999997 -0.39370078740157477 -3.0457506723314206e-017 0 F -2.8701999999999992 F 0 #
edge $-1 $125 $221 $137 $222 forward #
face $-1 $213 $124 $2 $-1 $223 forward single #
point $-1 -0.47800271039060038 -0.69108654592957297 0.24999999999999997 #
face $-1 $224 $225 $2 $-1 $226 forward single #
loop $-1 $227 $135 $128 #
plane-surface $-1 -0.75800271039060019 0.058913454070426599 0.99999999999999989 1 -6.0888950306546806e-017 6.0888950306546793e-017 2.3972027679742829e-017 0 -0.39370078740157477 forward_v I I I I #
coedge $-1 $228 $229 $133 $180 reversed $129 $-1 #
coedge $-1 $230 $231 $179 $232 reversed $131 $-1 #
coedge $-1 $177 $177 $132 $178 reversed $233 $-1 #
edge $-1 $234 $234 $132 $235 forward #
coedge $-1 $134 $133 $176 $232 forward $59 $-1 #
edge $-1 $186 $236 $175 $237 forward #
coedge $-1 $238 $239 $134 $182 reversed $225 $-1 #
edge $-1 $240 $185 $181 $241 forward #
coedge $-1 $208 $135 $239 $242 reversed $173 $-1 #
coedge $-1 $135 $243 $228 $244 reversed $173 $-1 #
vertex $-1 $136 $245 #
vertex $-1 $244 $246 #
ellipse-curve $-1 -0.7580027103906003 0.41394054646379846 1.3699999999999999 1 -6.0888950306546806e-017 6.0888950306546793e-017 0 -0.1804387602899408 0.33442765104732186 1 I I #
coedge $-1 $247 $137 $248 $249 forward $35 $-1 #
coedge $-1 $138 $247 $243 $250 forward $35 $-1 #
coedge $-1 $158 $153 $138 $191 forward $159 $-1 #
edge $-1 $193 $251 $190 $252 forward #
convexity-sys-attrib $-1 $-1 $-1 $139 #
vertex $-1 $139 $253 #
straight-curve $-1 -0.7580027103906003 -0.69108654592957319 0 0.39370078740157477 3.0457506723314206e-017 0 F 0 F 2.8701999999999992 #
point $-1 0.30949728960939932 -0.69108654592957308 0 #
loop $-1 $-1 $202 $197 #
face $-1 $147 $143 $2 $-1 $254 reversed single #
point $-1 0.061997289609399674 -0.44108654592957308 0.24999999999999997 #
coedge $-1 $199 $199 $201 $255 reversed $146 $-1 #
cone-surface $-1 -0.068002710390600282 0.55891345407042692 0 0 0 1 -0.12999999999999998 0 0 1 I I 0 1 0.12999999999999998 forward I I I I #
coedge $-1 $201 $201 $199 $255 forward $150 $-1 #
coedge $-1 $202 $202 $151 $203 reversed $196 $-1 #
edge $-1 $256 $256 $151 $257 forward #
straight-curve $-1 -0.47800271039060038 -0.31608654592957303 0 2.2944655064896702e-017 0.39370078740157477 0 I I #
coedge $-1 $258 $259 $155 $206 forward $260 $-1 #
edge $-1 $217 $210 $155 $261 forward #
coedge $-1 $243 $156 $158 $212 forward $173 $-1 #
coedge $-1 $156 $183 $258 $262 reversed $173 $-1 #
convexity-sys-attrib $-1 $-1 $-1 $157 #
vertex $-1 $262 $263 #
straight-curve $-1 -0.75800271039060019 0.80891345407042659 0.24999999999999997 -2.410642428784207e-017 1.4049085189367646e-033 0.39370078740157477 F 0 F 3.8100000000000005 #
edge $-1 $160 $251 $207 $264 forward #
face $-1 $197 $159 $2 $-1 $265 forward single #
point $-1 -0.75800271039060019 0.80891345407042659 0.27999999999999997 #
coedge $-1 $231 $163 $259 $266 reversed $131 $-1 #
coedge $-1 $163 $248 $165 $219 forward $131 $-1 #
vertex $-1 $164 $267 #
straight-curve $-1 -0.5080027103906003 0.80891345407042659 0.24999999999999997 2.410642428784207e-017 -1.4049085189367646e-033 -0.39370078740157477 F -3.8100000000000005 F 0 #
edge $-1 $221 $166 $216 $268 forward #
point $-1 -0.50800271039059985 0.80891345407042659 0.27999999999999997 #
vertex $-1 $249 $269 #
ellipse-curve $-1 -0.47800271039060005 -0.69108654592957297 0.27999999999999997 5.8279423864837625e-017 1 0 -3.7465343913109912e-017 0 -0.030000000000000016 1 F 1.0407039975863852e-014 F 1.5707963267949085 #
cone-surface $-1 -0.47800271039059999 0.058913454070426821 0.27999999999999997 5.8279423864837625e-017 1 0 -3.7465343913109912e-017 0 -0.030000000000000016 1 I I 0 -1 0.030000000000000016 forward I I I I #
face $-1 $270 $260 $2 $-1 $271 forward single #
loop $-1 $-1 $181 $172 #
plane-surface $-1 -0.75800271039060041 -0.6910865459295733 1.75 0 0 1 0.39370078740157477 0 0 forward_v I I I I #
loop $-1 $-1 $272 $128 #
coedge $-1 $273 $175 $184 $244 forward $129 $-1 #
coedge $-1 $175 $273 $230 $274 forward $129 $-1 #
coedge $-1 $248 $176 $229 $274 reversed $131 $-1 #
coedge $-1 $176 $215 $238 $275 reversed $131 $-1 #
edge $-1 $236 $240 $176 $276 forward #
loop $-1 $-1 $177 $270 #
vertex $-1 $178 $277 #
ellipse-curve $-1 -0.50800271039060041 0.42891345407042669 1.3700000000000001 -1 6.0888950306546793e-017 -6.0888950306546793e-017 1.1568900558243891e-017 -6.7422885928405221e-034 -0.19 1 I I #
vertex $-1 $180 $278 #
straight-curve $-1 -0.47550271039060055 0.096342068770873632 1.5786413357106805 0.39370078740157477 3.0457506723314212e-017 0 F -3.7096710000000002 F 2.9095710000000006 #
coedge $-1 $279 $181 $231 $275 forward $225 $-1 #
coedge $-1 $181 $279 $183 $242 forward $225 $-1 #
vertex $-1 $275 $280 #
straight-curve $-1 -0.47550271039060055 0.41394054646379846 1.75 -0.39370078740157477 -3.0457506723314212e-017 0 F -2.9095710000000006 F 3.7096710000000002 #
edge $281 $282 $185 $239 $283 forward #
coedge $-1 $184 $207 $189 $250 reversed $173 $-1 #
edge $-1 $186 $284 $184 $285 forward #
point $-1 -0.7580027103906003 0.41394054646379846 1.75 #
point $-1 -0.7580027103906003 0.096342068770873729 1.5786413357106805 #
coedge $-1 $189 $188 $273 $286 reversed $35 $-1 #
coedge $-1 $216 $230 $188 $249 reversed $131 $-1 #
edge $287 $221 $288 $188 $289 forward #
edge $-1 $284 $251 $189 $290 forward #
vertex $-1 $191 $291 #
ellipse-curve $-1 -0.47800271039060005 -0.69108654592957297 0.27999999999999997 5.8279423864837625e-017 1 0 -3.4967654318902565e-016 0 -0.27999999999999997 1 F 0 F 1.5707963267948968 #
point $-1 -0.47800271039060038 -0.69108654592957297 0 #
cone-surface $-1 -0.06800271039060031 -0.44108654592957308 0 0 0 1 -0.12999999999999998 0 0 1 I I 0 1 0.12999999999999998 forward I I I I #
edge $-1 $292 $292 $201 $293 forward #
vertex $-1 $203 $294 #
ellipse-curve $-1 -0.06800271039060031 -0.44108654592957308 0 0 0 1 -0.12999999999999998 0 0 1 I I #
coedge $-1 $295 $205 $208 $262 forward $260 $-1 #
coedge $-1 $205 $295 $215 $266 forward $260 $-1 #
loop $-1 $-1 $259 $224 #
straight-curve $-1 -0.75800271039060052 0.80891345407042681 1.3699999999999999 -0.39370078740157477 -6.0915013446628412e-017 0 F -3.931921 F 2.9921210000000009 #
edge $-1 $210 $282 $208 $296 forward #
point $-1 -0.7580027103906003 0.80891345407042659 1.3699999999999999 #
straight-curve $-1 -0.75800271039060019 -0.3160865459295733 0.27999999999999997 -2.3972027679742835e-017 -0.39370078740157477 0 I I #
cone-surface $-1 -0.47800271039059999 0.058913454070426821 0.27999999999999997 5.8279423864837625e-017 1 0 -3.4967654318902565e-016 0 -0.27999999999999997 1 I I 0 1 0.27999999999999997 forward I I I I #
edge $-1 $297 $217 $215 $298 forward #
point $-1 -0.5080027103906003 0.80891345407042659 1.3699999999999999 #
straight-curve $-1 -0.5080027103906003 -0.3160865459295733 0.28000000000000003 2.3972027679742829e-017 0.39370078740157477 0 I I #
point $-1 -0.50800271039059997 -0.69108654592957319 0.27999999999999997 #
face $-1 $170 $299 $2 $-1 $300 reversed single #
cone-surface $-1 -0.75800271039060041 0.42891345407042669 1.3699999999999999 1 1.5472413415443619e-016 0 -1.2362932745541533e-016 0.26870057685088805 0.26870057685088805 1 I I 0 1 0.38 forward I I I I #
coedge $-1 $272 $272 $301 $302 forward $227 $-1 #
coedge $-1 $229 $228 $247 $286 forward $129 $-1 #
edge $303 $288 $236 $230 $304 forward #
edge $-1 $240 $297 $238 $305 forward #
ellipse-curve $-1 -0.5080027103906003 0.41394054646379846 1.3699999999999999 -1 6.0888950306546793e-017 -6.0888950306546793e-017 0 -0.1804387602899408 0.33442765104732186 1 I I #
point $-1 -0.5080027103906003 0.42891345407042669 1.1799999999999999 #
point $-1 -0.5080027103906003 0.096342068770873729 1.5786413357106805 #
coedge $-1 $239 $238 $295 $306 reversed $225 $-1 #
point $-1 -0.5080027103906003 0.41394054646379846 1.75 #
convexity-sys-attrib $-1 $-1 $-1 $242 #
vertex $-1 $242 $307 #
straight-curve $-1 -0.7580027103906003 0.80891345407042659 1.75 -2.2944655064896696e-017 -0.39370078740157477 0 F 0 F 3.8099999999999996 #
vertex $-1 $250 $308 #
straight-curve $-1 -0.7580027103906003 -0.21078117542825214 1.1111315084297888 6.8734832197474421e-018 -0.21616383724687152 -0.32904939669801558 I I #
edge $-1 $284 $288 $247 $309 forward #
convexity-sys-attrib $-1 $-1 $-1 $249 #
vertex $-1 $274 $310 #
straight-curve $-1 -0.50800271039060041 -0.6910865459295733 1.75 -2.410642428784207e-017 -2.294465506489669e-017 0.39370078740157477 F -3.8100000000000005 F 0 #
straight-curve $-1 -0.75800271039060041 -0.6910865459295733 1.75 2.410642428784207e-017 2.294465506489669e-017 -0.39370078740157477 F 0 F 3.8100000000000005 #
point $-1 -0.75800271039060019 -0.69108654592957319 0.27999999999999997 #
vertex $-1 $255 $311 #
ellipse-curve $-1 -0.068002710390600282 0.55891345407042692 0 0 0 1 -0.12999999999999998 0 0 1 I I #
point $-1 0.061997289609399674 -0.44108654592957308 0 #
coedge $-1 $259 $258 $279 $306 forward $260 $-1 #
ellipse-curve $-1 -0.7580027103906003 0.42891345407042669 1.3699999999999999 1 -6.0888950306546806e-017 6.0888950306546793e-017 -1.2362932745541533e-016 0.26870057685088805 0.26870057685088805 1 I I #
vertex $-1 $306 $312 #
ellipse-curve $-1 -0.5080027103906003 0.42891345407042669 1.3699999999999999 -1 6.0888950306546793e-017 -6.0888950306546793e-017 -1.2362932745541533e-016 0.26870057685088805 0.26870057685088805 1 I I #
loop $-1 $233 $301 $270 #
cone-surface $-1 -3.0749853749210798 0.42891345407042686 1.3699999999999999 1 -6.0888950306546793e-017 6.0888950306546793e-017 1.1568900558243891e-017 -6.7422885928405221e-034 -0.19 1 I I 0 1 0.19 reversed I I I I #
coedge $-1 $301 $301 $272 $302 reversed $299 $-1 #
edge $-1 $313 $313 $272 $314 forward #
convexity-sys-attrib $-1 $-1 $-1 $274 #
straight-curve $-1 -0.5080027103906003 -0.21078117542825217 1.1111315084297888 -6.8734832197474475e-018 0.21616383724687152 0.32904939669801558 I I #
straight-curve $-1 -0.5080027103906003 0.80891345407042659 1.75 2.2944655064896696e-017 0.39370078740157477 0 F -3.8099999999999996 F 0 #
edge $-1 $282 $297 $279 $315 forward #
point $-1 -0.7580027103906003 0.42891345407042669 1.75 #
point $-1 -0.7580027103906003 -0.69108654592957319 0.37999999999999989 #
straight-curve $-1 -0.19300271039060057 -0.69108654592957319 0.37999999999999989 0.39370078740157477 3.0457506723314206e-017 0 F -12.222481 F 9.9872810000000012 #
point $-1 -0.5080027103906003 -0.69108654592957319 0.37999999999999989 #
point $-1 0.061997289609399708 0.55891345407042692 0 #
point $-1 -0.5080027103906003 0.42891345407042669 1.75 #
vertex $-1 $302 $316 #
ellipse-curve $-1 -0.7580027103906003 0.42891345407042669 1.3700000000000001 1 -6.0888950306546806e-017 6.0888950306546793e-017 1.1568900558243891e-017 -6.7422885928405221e-034 -0.19 1 I I #
straight-curve $-1 -0.75800271039060041 0.42891345407042669 1.75 0.39370078740157477 6.0915013446628412e-017 0 F -2.9921210000000009 F 3.931921 #
point $-1 -0.7580027103906003 0.42891345407042669 1.5600000000000001 #
End-of-ACIS-data 