700 0 1 0           
28 Autodesk Inventor 6.0.0.9000 16 ASM 6.0.0.192 NT 24 Mon Jan 15 08:34:37 2007 
1 9.9999999999999995e-007 1e-010 
body $-1 -1 $-1 $1 $-1 $-1 #
lump $-1 -1 $-1 $-1 $2 $0 #
shell $-1 -1 $-1 $-1 $-1 $3 $-1 $1 #
face $-1 -1 $-1 $4 $5 $2 $-1 $6 reversed single #
face $-1 -1 $-1 $7 $8 $2 $-1 $9 forward single #
loop $-1 -1 $-1 $10 $11 $3 #
cone-surface $-1 -1 $-1 -14.000000000000002 -5.2735593669694936e-015 -27.450000000000003 1 5.8432790769745085e-016 0 0 0 -1 1 I I 0 1 1 forward I I I I #
face $-1 -1 $-1 $12 $13 $2 $-1 $14 forward single #
loop $-1 -1 $-1 $-1 $15 $4 #
plane-surface $-1 -1 $-1 -14.125 -1.4000000000000057 -29.950000000000003 -1.998121416697558e-027 -0.70710678118654791 -0.70710678118654724 -10 0 2.8257704067618301e-026 forward_v I I I I #
loop $-1 -1 $-1 $-1 $16 $3 #
coedge $-1 -1 $-1 $11 $11 $17 $18 reversed $5 $-1 #
face $-1 -1 $-1 $19 $20 $2 $-1 $21 forward single #
loop $-1 -1 $-1 $-1 $22 $7 #
plane-surface $-1 -1 $-1 -14.000000000000002 -1.9000000000000057 -23.25 0 -1 0 0 0 -10 reverse_v I I I I #
coedge $-1 -1 $-1 $23 $24 $25 $26 forward $8 $-1 #
coedge $-1 -1 $-1 $16 $16 $27 $28 reversed $10 $-1 #
coedge $-1 -1 $-1 $17 $17 $11 $18 forward $20 $-1 #
edge $-1 -1 $-1 $29 -3.1415926535897931 $29 3.1415926535897931 $17 $30 forward @7 unknown #
face $-1 -1 $-1 $31 $32 $2 $-1 $33 forward single #
loop $-1 -1 $-1 $34 $17 $12 #
plane-surface $-1 -1 $-1 -14.000000000000004 1.899999999999995 -23.25 1 5.8432790769745075e-016 0 0 0 10 reverse_v I I I I #
coedge $-1 -1 $-1 $35 $36 $24 $37 reversed $13 $-1 #
coedge $-1 -1 $-1 $38 $15 $39 $40 forward $8 $-1 #
coedge $-1 -1 $-1 $15 $38 $22 $37 forward $8 $-1 #
coedge $-1 -1 $-1 $41 $42 $15 $26 reversed $43 $-1 #
edge $-1 -1 $-1 $44 0.18384776310850259 $45 0.32526911934581221 $25 $46 forward @7 unknown #
coedge $-1 -1 $-1 $27 $27 $16 $28 forward $47 $-1 #
edge $-1 -1 $-1 $48 1.4608197692436673e-017 $48 6.2831853071795862 $27 $49 forward @7 unknown #
vertex $-1 -1 $-1 $18 $50 #
ellipse-curve $-1 -1 $-1 -14.000000000000002 -5.2735593669694944e-015 -27.450000000000003 -1 -5.8432790769745075e-016 0 0 0 -1 1 I I #
face $-1 -1 $-1 $51 $52 $2 $-1 $53 forward single #
loop $-1 -1 $-1 $-1 $54 $19 #
plane-surface $-1 -1 $-1 -14.375000000000004 1.3999999999999946 -29.950000000000003 -3.9252311467294172e-016 0.70710678118654791 -0.70710678118654724 -10 0 5.5511151231540405e-015 forward_v I I I I #
loop $-1 -1 $-1 $-1 $55 $12 #
coedge $-1 -1 $-1 $56 $22 $57 $58 reversed $13 $-1 #
coedge $-1 -1 $-1 $22 $56 $41 $59 forward $13 $-1 #
edge $-1 -1 $-1 $60 -0.012499999999999956 $44 0.037500000000000089 $22 $61 forward @7 unknown #
coedge $-1 -1 $-1 $24 $23 $55 $62 forward $8 $-1 #
coedge $-1 -1 $-1 $63 $64 $23 $40 reversed $65 $-1 #
edge $-1 -1 $-1 $45 -0.037500000000000089 $66 0.012499999999999956 $39 $67 forward @7 unknown #
coedge $-1 -1 $-1 $68 $25 $36 $59 reversed $43 $-1 #
coedge $-1 -1 $-1 $25 $69 $63 $70 reversed $43 $-1 #
loop $-1 -1 $-1 $-1 $25 $51 #
vertex $-1 -1 $-1 $37 $71 #
vertex $-1 -1 $-1 $70 $72 #
straight-curve $-1 -1 $-1 -14.500000000000002 -3.2000000000000055 -28.149999999999999 -4.1318222596941434e-015 7.071067811865472 -7.0710678118654791 I I #
loop $-1 -1 $-1 $43 $27 $51 #
vertex $-1 -1 $-1 $28 $73 #
ellipse-curve $-1 -1 $-1 -14.500000000000002 -5.5657233208182194e-015 -27.450000000000003 1 5.8432790769745085e-016 0 0 0 -1 1 I I #
point $-1 -1 $-1 -14.000000000000002 -5.1510987315872574e-015 -26.449999999999999 #
face $-1 -1 $-1 $74 $47 $2 $-1 $75 forward single #
loop $-1 -1 $-1 $-1 $76 $31 #
plane-surface $-1 -1 $-1 -14.500000000000004 1.8999999999999948 -23.25 -5.5511151231257778e-016 1 0 0 0 10 reverse_v I I I I #
coedge $-1 -1 $-1 $77 $78 $79 $80 forward $32 $-1 #
coedge $-1 -1 $-1 $81 $57 $38 $62 reversed $34 $-1 #
coedge $-1 -1 $-1 $36 $35 $82 $83 reversed $13 $-1 #
coedge $-1 -1 $-1 $55 $84 $35 $58 forward $34 $-1 #
edge $-1 -1 $-1 $85 0 $60 0.62000000000000011 $35 $86 forward @7 unknown #
edge $-1 -1 $-1 $87 0 $44 0.62000000000000011 $41 $88 forward @7 unknown #
vertex $-1 -1 $-1 $62 $89 #
straight-curve $-1 -1 $-1 -14.125 -1.9000000000000057 -29.450000000000003 -10 0 2.8257704067618301e-026 F -0.32250100000000015 F 0.34750100000000028 #
edge $-1 -1 $-1 $66 -0.1909188309203681 $60 -0.049497474683058491 $55 $90 forward @7 unknown #
coedge $-1 -1 $-1 $91 $39 $42 $70 forward $65 $-1 #
coedge $-1 -1 $-1 $39 $91 $81 $92 forward $65 $-1 #
loop $-1 -1 $-1 $-1 $39 $74 #
vertex $-1 -1 $-1 $62 $93 #
straight-curve $-1 -1 $-1 -14.125 -0.90000000000000546 -30.450000000000003 10 0 -2.8257704067618301e-026 F -0.34750100000000028 F 0.32250100000000015 #
coedge $-1 -1 $-1 $94 $41 $95 $96 reversed $43 $-1 #
coedge $-1 -1 $-1 $42 $94 $97 $98 reversed $43 $-1 #
edge $-1 -1 $-1 $45 0.10000000000000001 $99 0.28000000000000003 $42 $100 forward @7 unknown #
point $-1 -1 $-1 -14.500000000000002 -1.9000000000000057 -29.450000000000003 #
point $-1 -1 $-1 -14.500000000000002 -0.90000000000000546 -30.450000000000003 #
point $-1 -1 $-1 -14.500000000000002 -5.5511151231257827e-015 -28.450000000000003 #
face $-1 -1 $-1 $101 $65 $2 $-1 $102 reversed single #
plane-surface $-1 -1 $-1 -14.500000000000002 -1.9000000000000057 -23.25 -1 -5.8432790769745085e-016 0 0 0 -10 reverse_v I I I I #
coedge $-1 -1 $-1 $103 $104 $78 $105 reversed $52 $-1 #
coedge $-1 -1 $-1 $97 $54 $91 $106 forward $32 $-1 #
coedge $-1 -1 $-1 $54 $97 $76 $105 forward $32 $-1 #
coedge $-1 -1 $-1 $107 $81 $54 $80 reversed $34 $-1 #
edge $-1 -1 $-1 $108 0.18384776310850259 $109 0.32526911934581221 $79 $110 forward @7 unknown #
coedge $-1 -1 $-1 $79 $55 $64 $92 reversed $34 $-1 #
coedge $-1 -1 $-1 $111 $95 $56 $83 forward $112 $-1 #
edge $-1 -1 $-1 $87 -0.75000000000000011 $85 -0.70000000000000007 $82 $113 forward @7 unknown #
coedge $-1 -1 $-1 $57 $107 $111 $114 reversed $34 $-1 #
vertex $-1 -1 $-1 $114 $115 #
straight-curve $-1 -1 $-1 -14.000000000000002 -1.9000000000000057 -23.25 0 0 -10 I I #
vertex $-1 -1 $-1 $83 $116 #
straight-curve $-1 -1 $-1 -14.500000000000002 -1.9000000000000057 -23.25 0 0 -10 I I #
point $-1 -1 $-1 -14.000000000000002 -1.9000000000000057 -29.450000000000003 #
straight-curve $-1 -1 $-1 -14.000000000000002 -2.2500000000000062 -29.100000000000001 4.1318222596941426e-015 -7.071067811865472 7.0710678118654791 I I #
coedge $-1 -1 $-1 $64 $63 $77 $106 reversed $65 $-1 #
edge $-1 -1 $-1 $109 0.10000000000000001 $66 0.28000000000000003 $81 $117 forward @7 unknown #
point $-1 -1 $-1 -14.000000000000002 -0.90000000000000524 -30.450000000000003 #
coedge $-1 -1 $-1 $69 $68 $103 $118 forward $43 $-1 #
coedge $-1 -1 $-1 $82 $119 $68 $96 forward $112 $-1 #
edge $-1 -1 $-1 $120 -0.2850000000000002 $87 0.094999999999999848 $95 $121 forward @7 unknown #
coedge $-1 -1 $-1 $78 $77 $69 $98 forward $32 $-1 #
edge $-1 -1 $-1 $99 -0.19091883092036807 $122 -0.049497474683058491 $69 $123 forward @7 unknown #
vertex $-1 -1 $-1 $98 $124 #
straight-curve $-1 -1 $-1 -14.500000000000002 -1.9000000000000057 -30.450000000000003 -5.8432790769745085e-015 10 0 F 0 F 0.38 #
face $-1 -1 $-1 $125 $126 $2 $-1 $127 reversed single #
plane-surface $-1 -1 $-1 -14.250000000000004 -5.5257727569122526e-015 -30.450000000000003 2.8257704067618301e-027 -5.0961060255663544e-031 1 -10 0 2.8257704067618301e-026 reverse_v I I I I #
coedge $-1 -1 $-1 $128 $76 $94 $118 reversed $52 $-1 #
coedge $-1 -1 $-1 $76 $128 $107 $129 forward $52 $-1 #
edge $-1 -1 $-1 $122 -0.012499999999999956 $108 0.037500000000000089 $76 $130 forward @7 unknown #
edge $-1 -1 $-1 $109 -0.037500000000000089 $99 0.012499999999999956 $91 $131 forward @7 unknown #
coedge $-1 -1 $-1 $84 $79 $104 $129 reversed $34 $-1 #
vertex $-1 -1 $-1 $105 $132 #
vertex $-1 -1 $-1 $92 $133 #
straight-curve $-1 -1 $-1 -14.000000000000004 3.1999999999999948 -28.149999999999999 4.1318222596941426e-015 -7.071067811865472 -7.0710678118654791 I I #
coedge $-1 -1 $-1 $119 $82 $84 $114 forward $112 $-1 #
loop $-1 -1 $-1 $134 $111 $135 #
straight-curve $-1 -1 $-1 -7.0000000000000009 -1.9000000000000057 -23.25 10 0 0 I I #
edge $-1 -1 $-1 $85 -0.28499999999999992 $136 0.095000000000000154 $111 $137 forward @7 unknown #
point $-1 -1 $-1 -14.000000000000002 -1.9000000000000057 -23.25 #
point $-1 -1 $-1 -14.500000000000002 -1.9000000000000057 -23.25 #
straight-curve $-1 -1 $-1 -14.000000000000004 1.899999999999995 -30.450000000000003 5.8432790769745077e-015 -10 0 F 0 F 0.38000000000000006 #
edge $-1 -1 $-1 $120 0 $122 0.62000000000000011 $103 $138 forward @7 unknown #
coedge $-1 -1 $-1 $95 $111 $128 $139 forward $112 $-1 #
vertex $-1 -1 $-1 $96 $140 #
straight-curve $-1 -1 $-1 -14.500000000000002 -0.95000000000000706 -23.25 5.8432790769745085e-015 -10 0 I I #
vertex $-1 -1 $-1 $98 $141 #
straight-curve $-1 -1 $-1 -14.500000000000004 2.2499999999999956 -29.100000000000001 -4.1318222596941434e-015 7.071067811865472 7.0710678118654791 I I #
point $-1 -1 $-1 -14.500000000000004 0.89999999999999469 -30.450000000000003 #
face $-1 -1 $-1 $142 $143 $2 $-1 $144 forward single #
loop $-1 -1 $-1 $145 $146 $101 #
cone-surface $-1 -1 $-1 14.000000000000002 -5.2735593669694936e-015 -27.450000000000003 1 -5.8432790769745085e-016 0 0 0 -1 1 I I 0 1 1 reversed I I I I #
coedge $-1 -1 $-1 $104 $103 $119 $139 reversed $52 $-1 #
edge $-1 -1 $-1 $136 0 $108 0.62000000000000011 $107 $147 forward @7 unknown #
straight-curve $-1 -1 $-1 -14.375000000000004 1.8999999999999948 -29.450000000000003 10 5.551115123125778e-015 -2.8257704067618301e-026 F -0.32250100000000015 F 0.34750100000000028 #
straight-curve $-1 -1 $-1 -14.375000000000004 0.89999999999999469 -30.450000000000003 -10 -5.551115123125778e-015 2.8257704067618301e-026 F -0.34750100000000028 F 0.32250100000000015 #
point $-1 -1 $-1 -14.000000000000004 1.899999999999995 -29.450000000000003 #
point $-1 -1 $-1 -14.000000000000004 0.89999999999999503 -30.450000000000003 #
loop $-1 -1 $-1 $148 $149 $135 #
face $-1 -1 $-1 $150 $112 $2 $-1 $151 reversed single #
vertex $-1 -1 $-1 $114 $152 #
straight-curve $-1 -1 $-1 -14.000000000000004 0.94999999999999352 -23.25 -5.8432790769745077e-015 10 0 I I #
straight-curve $-1 -1 $-1 -14.500000000000004 1.8999999999999948 -23.25 0 0 -10 I I #
edge $-1 -1 $-1 $136 0.67500000000000016 $120 0.7250000000000002 $119 $153 forward @7 unknown #
point $-1 -1 $-1 -14.500000000000004 1.8999999999999948 -23.25 #
point $-1 -1 $-1 -14.500000000000004 1.8999999999999948 -29.450000000000003 #
face $-1 -1 $-1 $154 $155 $2 $-1 $156 forward single #
loop $-1 -1 $-1 $-1 $157 $125 #
plane-surface $-1 -1 $-1 14.125 -1.4000000000000057 -29.950000000000003 1.998121416697558e-027 -0.70710678118654791 -0.70710678118654724 -10 0 -2.8257704067618301e-026 forward_v I I I I #
loop $-1 -1 $-1 $-1 $158 $101 #
coedge $-1 -1 $-1 $146 $146 $159 $160 reversed $126 $-1 #
straight-curve $-1 -1 $-1 -14.000000000000004 1.899999999999995 -23.25 0 0 -10 I I #
loop $-1 -1 $-1 $161 $162 $135 #
coedge $-1 -1 $-1 $163 $164 $165 $166 forward $134 $-1 #
face $-1 -1 $-1 $167 $168 $2 $-1 $169 forward single #
plane-surface $-1 -1 $-1 0 0 -23.25 0 0 1 10 0 0 forward_v I I I I #
point $-1 -1 $-1 -14.000000000000004 1.899999999999995 -23.25 #
straight-curve $-1 -1 $-1 -7.2500000000000018 1.899999999999999 -23.25 -10 -5.551115123125778e-015 0 I I #
face $-1 -1 $-1 $170 $171 $2 $-1 $172 reversed single #
loop $-1 -1 $-1 $173 $174 $142 #
plane-surface $-1 -1 $-1 14.500000000000002 -1.9000000000000057 -23.25 1 -5.8432790769745085e-016 0 0 0 -10 forward_v I I I I #
coedge $-1 -1 $-1 $175 $176 $177 $178 forward $143 $-1 #
coedge $-1 -1 $-1 $158 $158 $174 $179 reversed $145 $-1 #
coedge $-1 -1 $-1 $159 $159 $146 $160 forward $180 $-1 #
edge $-1 -1 $-1 $181 -3.1415926535897931 $181 3.1415926535897931 $159 $182 forward @7 unknown #
loop $-1 -1 $-1 $-1 $183 $135 #
coedge $-1 -1 $-1 $162 $162 $184 $185 forward $148 $-1 #
coedge $-1 -1 $-1 $186 $149 $187 $188 forward $134 $-1 #
coedge $-1 -1 $-1 $149 $186 $189 $190 forward $134 $-1 #
coedge $-1 -1 $-1 $191 $192 $149 $166 reversed $193 $-1 #
edge $-1 -1 $-1 $194 -0.095000000000000154 $195 0.28499999999999992 $149 $196 forward @7 unknown #
face $-1 -1 $-1 $197 $198 $2 $-1 $199 reversed single #
loop $-1 -1 $-1 $-1 $200 $150 #
plane-surface $-1 -1 $-1 0 0 -22.630000000000003 0 0 1 10 0 0 forward_v I I I I #
face $-1 -1 $-1 $201 $202 $2 $-1 $203 forward single #
loop $-1 -1 $-1 $-1 $204 $154 #
plane-surface $-1 -1 $-1 14.250000000000004 -5.5257727569122526e-015 -30.450000000000003 -2.8257704067618301e-027 -5.0961060255663544e-031 1 10 0 2.8257704067618301e-026 forward_v I I I I #
loop $-1 -1 $-1 $-1 $177 $142 #
coedge $-1 -1 $-1 $174 $174 $158 $179 forward $155 $-1 #
coedge $-1 -1 $-1 $205 $157 $206 $207 forward $143 $-1 #
coedge $-1 -1 $-1 $157 $205 $204 $208 forward $143 $-1 #
coedge $-1 -1 $-1 $209 $210 $157 $178 reversed $173 $-1 #
edge $-1 -1 $-1 $211 -0.32526911934581221 $212 -0.18384776310850259 $177 $213 forward @7 unknown #
edge $-1 -1 $-1 $214 -1.4608197692436673e-017 $214 6.2831853071795862 $174 $215 forward @7 unknown #
loop $-1 -1 $-1 $193 $159 $201 #
vertex $-1 -1 $-1 $160 $216 #
ellipse-curve $-1 -1 $-1 14.000000000000002 -5.2735593669694944e-015 -27.450000000000003 1 -5.8432790769745075e-016 0 0 0 -1 1 I I #
coedge $-1 -1 $-1 $183 $183 $217 $218 reversed $161 $-1 #
coedge $-1 -1 $-1 $184 $184 $162 $185 reversed $219 $-1 #
edge $-1 -1 $-1 $220 -3.1415926535897931 $220 3.1415926535897931 $162 $221 forward @7 unknown #
coedge $-1 -1 $-1 $164 $163 $222 $223 forward $134 $-1 #
coedge $-1 -1 $-1 $224 $225 $163 $188 reversed $226 $-1 #
edge $-1 -1 $-1 $195 0.70000000000000007 $227 0.75000000000000011 $163 $228 forward @7 unknown #
coedge $-1 -1 $-1 $229 $230 $164 $190 reversed $231 $-1 #
edge $-1 -1 $-1 $232 -0.7250000000000002 $194 -0.67500000000000016 $164 $233 forward @7 unknown #
coedge $-1 -1 $-1 $234 $165 $230 $235 forward $193 $-1 #
coedge $-1 -1 $-1 $165 $236 $224 $237 reversed $193 $-1 #
loop $-1 -1 $-1 $-1 $236 $201 #
vertex $-1 -1 $-1 $166 $238 #
vertex $-1 -1 $-1 $166 $239 #
straight-curve $-1 -1 $-1 14.000000000000004 0.94999999999999352 -23.25 -5.8432790769745077e-015 -10 0 I I #
face $-1 -1 $-1 $240 $241 $2 $-1 $242 reversed single #
loop $-1 -1 $-1 $243 $244 $167 #
cone-surface $-1 -1 $-1 0 0 0 0 0 1 -17.254999999999999 0 0 1 I I 0 1 17.875 forward I I I I #
coedge $-1 -1 $-1 $200 $200 $245 $246 reversed $168 $-1 #
face $-1 -1 $-1 $247 $180 $2 $-1 $248 forward single #
loop $-1 -1 $-1 $-1 $249 $170 #
plane-surface $-1 -1 $-1 14.375000000000004 1.3999999999999946 -29.950000000000003 3.9252311467294172e-016 0.70710678118654791 -0.70710678118654724 -10 0 -5.5511151231540405e-015 forward_v I I I I #
coedge $-1 -1 $-1 $250 $251 $176 $208 reversed $171 $-1 #
coedge $-1 -1 $-1 $176 $175 $236 $252 forward $143 $-1 #
coedge $-1 -1 $-1 $225 $224 $175 $207 reversed $226 $-1 #
edge $-1 -1 $-1 $212 -0.037500000000000089 $253 0.012499999999999956 $206 $254 forward @7 unknown #
edge $-1 -1 $-1 $255 -0.012499999999999956 $211 0.037500000000000089 $204 $256 forward @7 unknown #
coedge $-1 -1 $-1 $257 $177 $251 $258 forward $173 $-1 #
coedge $-1 -1 $-1 $177 $222 $225 $259 forward $173 $-1 #
vertex $-1 -1 $-1 $258 $260 #
vertex $-1 -1 $-1 $178 $261 #
straight-curve $-1 -1 $-1 14.500000000000002 -3.2000000000000055 -28.149999999999999 -4.1318222596941434e-015 -7.071067811865472 7.0710678118654791 I I #
vertex $-1 -1 $-1 $179 $262 #
ellipse-curve $-1 -1 $-1 14.500000000000002 -5.5657233208182194e-015 -27.450000000000003 -1 5.8432790769745085e-016 0 0 0 -1 1 I I #
point $-1 -1 $-1 14.000000000000002 -5.3960200023517321e-015 -26.449999999999999 #
coedge $-1 -1 $-1 $217 $217 $183 $218 forward $263 $-1 #
edge $-1 -1 $-1 $264 -1.2246063538223773e-016 $264 6.2831853071795862 $217 $265 forward @7 unknown #
loop $-1 -1 $-1 $-1 $184 $266 #
vertex $-1 -1 $-1 $185 $267 #
ellipse-curve $-1 -1 $-1 0 0 -23.25 0 0 1 12.000000000000002 0 0 1 I I #
coedge $-1 -1 $-1 $210 $268 $186 $223 reversed $173 $-1 #
edge $-1 -1 $-1 $227 -0.094999999999999848 $232 0.2850000000000002 $186 $269 forward @7 unknown #
coedge $-1 -1 $-1 $206 $187 $192 $237 forward $226 $-1 #
coedge $-1 -1 $-1 $187 $206 $210 $259 reversed $226 $-1 #
loop $-1 -1 $-1 $-1 $206 $247 #
vertex $-1 -1 $-1 $188 $270 #
straight-curve $-1 -1 $-1 7.0000000000000009 -1.9000000000000057 -23.25 10 0 0 I I #
coedge $-1 -1 $-1 $271 $189 $268 $272 forward $231 $-1 #
coedge $-1 -1 $-1 $189 $271 $191 $235 reversed $231 $-1 #
loop $-1 -1 $-1 $-1 $271 $273 #
vertex $-1 -1 $-1 $223 $274 #
straight-curve $-1 -1 $-1 7.2500000000000018 1.899999999999999 -23.25 -10 5.551115123125778e-015 0 I I #
coedge $-1 -1 $-1 $275 $191 $249 $276 reversed $193 $-1 #
edge $-1 -1 $-1 $194 0 $277 0.62000000000000011 $191 $278 forward @7 unknown #
coedge $-1 -1 $-1 $192 $275 $205 $252 reversed $193 $-1 #
edge $-1 -1 $-1 $195 0 $253 0.62000000000000011 $224 $279 forward @7 unknown #
point $-1 -1 $-1 14.000000000000004 1.899999999999995 -23.25 #
point $-1 -1 $-1 14.000000000000002 -1.9000000000000057 -23.25 #
face $-1 -1 $-1 $280 $281 $2 $-1 $282 reversed single #
loop $-1 -1 $-1 $283 $284 $197 #
cone-surface $-1 -1 $-1 -12.5 0 21 0 0 -1 -1.25 0 0 1 I I 0 1 1.25 forward I I I I #
loop $-1 -1 $-1 $-1 $245 $167 #
coedge $-1 -1 $-1 $244 $244 $285 $286 forward $198 $-1 #
coedge $-1 -1 $-1 $245 $245 $200 $246 forward $243 $-1 #
edge $-1 -1 $-1 $287 1.2246063538223773e-016 $287 6.2831853071795862 $245 $288 forward @7 unknown #
face $-1 -1 $-1 $273 $226 $2 $-1 $289 forward single #
plane-surface $-1 -1 $-1 14.000000000000004 1.899999999999995 -23.25 -1 5.8432790769745075e-016 0 0 0 10 forward_v I I I I #
coedge $-1 -1 $-1 $290 $291 $234 $276 forward $202 $-1 #
coedge $-1 -1 $-1 $292 $204 $275 $293 reversed $171 $-1 #
coedge $-1 -1 $-1 $204 $292 $209 $258 reversed $171 $-1 #
edge $-1 -1 $-1 $253 0.049497474683058491 $255 0.1909188309203681 $236 $294 forward @7 unknown #
vertex $-1 -1 $-1 $252 $295 #
straight-curve $-1 -1 $-1 14.125 -1.9000000000000057 -29.450000000000003 -10 0 -2.8257704067618301e-026 F -0.34750100000000028 F 0.32250100000000015 #
vertex $-1 -1 $-1 $208 $296 #
straight-curve $-1 -1 $-1 14.125 -0.90000000000000546 -30.450000000000003 10 0 2.8257704067618301e-026 F -0.32250100000000015 F 0.34750100000000028 #
coedge $-1 -1 $-1 $268 $209 $297 $298 reversed $173 $-1 #
edge $-1 -1 $-1 $211 0.10000000000000001 $299 0.28000000000000003 $209 $300 forward @7 unknown #
edge $-1 -1 $-1 $227 0 $212 0.62000000000000011 $210 $301 forward @7 unknown #
point $-1 -1 $-1 14.500000000000002 -0.90000000000000546 -30.450000000000003 #
point $-1 -1 $-1 14.500000000000002 -1.9000000000000057 -29.450000000000003 #
point $-1 -1 $-1 14.500000000000002 -5.5511151231257827e-015 -28.450000000000003 #
loop $-1 -1 $-1 $302 $217 $303 #
vertex $-1 -1 $-1 $218 $304 #
ellipse-curve $-1 -1 $-1 0 0 -23.25 0 0 1 -17.254999999999999 0 0 1 I I #
face $-1 -1 $-1 $305 $306 $2 $-1 $307 forward single #
point $-1 -1 $-1 -12.000000000000002 1.4695276245868527e-015 -23.25 #
coedge $-1 -1 $-1 $222 $257 $229 $272 reversed $173 $-1 #
straight-curve $-1 -1 $-1 14.500000000000002 -0.95000000000000706 -23.25 5.8432790769745085e-015 10 0 I I #
point $-1 -1 $-1 14.500000000000002 -1.9000000000000057 -23.25 #
coedge $-1 -1 $-1 $230 $229 $290 $308 reversed $231 $-1 #
edge $-1 -1 $-1 $232 0 $309 0.62000000000000011 $229 $310 forward @7 unknown #
face $-1 -1 $-1 $311 $231 $2 $-1 $312 forward single #
point $-1 -1 $-1 14.500000000000004 1.8999999999999948 -23.25 #
coedge $-1 -1 $-1 $236 $234 $250 $293 forward $193 $-1 #
edge $-1 -1 $-1 $313 -0.32526911934581221 $277 -0.18384776310850259 $234 $314 forward @7 unknown #
vertex $-1 -1 $-1 $308 $315 #
straight-curve $-1 -1 $-1 14.000000000000004 1.899999999999995 -23.25 0 0 -10 I I #
straight-curve $-1 -1 $-1 14.000000000000002 -1.9000000000000057 -23.25 0 0 -10 I I #
face $-1 -1 $-1 $316 $317 $2 $-1 $318 forward single #
loop $-1 -1 $-1 $319 $320 $240 #
cone-surface $-1 -1 $-1 12.5 0 21 0 0 1 1.25 0 0 1 I I 0 1 1.25 reversed I I I I #
loop $-1 -1 $-1 $-1 $321 $197 #
coedge $-1 -1 $-1 $284 $284 $322 $323 reversed $241 $-1 #
coedge $-1 -1 $-1 $285 $285 $244 $286 reversed $324 $-1 #
edge $-1 -1 $-1 $325 -3.1415926535897931 $325 3.1415926535897931 $244 $326 forward @7 unknown #
vertex $-1 -1 $-1 $246 $327 #
ellipse-curve $-1 -1 $-1 0 0 -22.630000000000003 0 0 -1 -17.254999999999999 0 0 1 I I #
plane-surface $-1 -1 $-1 14.000000000000002 -1.9000000000000057 -23.25 0 -1 0 0 0 -10 forward_v I I I I #
coedge $-1 -1 $-1 $297 $249 $271 $308 forward $202 $-1 #
coedge $-1 -1 $-1 $249 $297 $292 $328 forward $202 $-1 #
coedge $-1 -1 $-1 $251 $250 $291 $328 reversed $171 $-1 #
edge $-1 -1 $-1 $313 0.10000000000000001 $255 0.28000000000000003 $275 $329 forward @7 unknown #
straight-curve $-1 -1 $-1 14.000000000000002 -2.2500000000000062 -29.100000000000001 4.1318222596941426e-015 7.071067811865472 -7.0710678118654791 I I #
point $-1 -1 $-1 14.000000000000002 -1.9000000000000057 -29.450000000000003 #
point $-1 -1 $-1 14.000000000000002 -0.90000000000000524 -30.450000000000003 #
coedge $-1 -1 $-1 $291 $290 $257 $298 forward $202 $-1 #
edge $-1 -1 $-1 $309 0.049497474683058491 $299 0.19091883092036807 $257 $330 forward @7 unknown #
vertex $-1 -1 $-1 $298 $331 #
straight-curve $-1 -1 $-1 14.500000000000002 -1.9000000000000057 -30.450000000000003 5.8432790769745085e-015 10 0 F 0 F 0.38 #
straight-curve $-1 -1 $-1 14.500000000000002 -1.9000000000000057 -23.25 0 0 -10 I I #
loop $-1 -1 $-1 $-1 $332 $303 #
face $-1 -1 $-1 $333 $263 $2 $-1 $199 reversed single #
point $-1 -1 $-1 -17.254999999999999 2.1130582635205119e-015 -23.25 #
face $-1 -1 $-1 $135 $334 $2 $-1 $335 reversed single #
loop $-1 -1 $-1 $219 $336 $266 #
cone-surface $-1 -1 $-1 0 0 -23.25 0 0 -1 12.000000000000002 0 0 1 I I 0 1 12.000000000000002 forward I I I I #
edge $-1 -1 $-1 $277 -0.037500000000000089 $309 0.012499999999999956 $271 $337 forward @7 unknown #
vertex $-1 -1 $-1 $298 $338 #
straight-curve $-1 -1 $-1 14.500000000000004 1.8999999999999948 -23.25 0 0 -10 I I #
face $-1 -1 $-1 $339 $340 $2 $-1 $341 reversed single #
plane-surface $-1 -1 $-1 14.500000000000004 1.8999999999999948 -23.25 5.5511151231257778e-016 1 0 0 0 10 forward_v I I I I #
vertex $-1 -1 $-1 $293 $342 #
straight-curve $-1 -1 $-1 14.000000000000004 3.1999999999999948 -28.149999999999999 4.1318222596941426e-015 7.071067811865472 7.0710678118654791 I I #
point $-1 -1 $-1 14.000000000000004 1.899999999999995 -29.450000000000003 #
face $-1 -1 $-1 $343 $344 $2 $-1 $345 forward single #
loop $-1 -1 $-1 $-1 $346 $280 #
sphere-surface $-1 -1 $-1 0 0 35.899999999999999 1.6000000000000003 1 0 0 0 0 1 forward_v I I I I #
loop $-1 -1 $-1 $-1 $347 $240 #
coedge $-1 -1 $-1 $320 $320 $348 $349 reversed $281 $-1 #
coedge $-1 -1 $-1 $321 $321 $350 $351 reversed $283 $-1 #
coedge $-1 -1 $-1 $322 $322 $284 $323 forward $352 $-1 #
edge $-1 -1 $-1 $353 -3.1415926535897931 $353 3.1415926535897931 $322 $354 forward @7 unknown #
loop $-1 -1 $-1 $-1 $285 $333 #
vertex $-1 -1 $-1 $286 $355 #
ellipse-curve $-1 -1 $-1 0 0 23 0 0 1 -17.254999999999999 0 0 1 I I #
point $-1 -1 $-1 -17.254999999999999 2.1130582635205119e-015 -22.630000000000003 #
edge $-1 -1 $-1 $299 -0.012499999999999956 $313 0.037500000000000089 $292 $356 forward @7 unknown #
straight-curve $-1 -1 $-1 14.000000000000004 1.899999999999995 -30.450000000000003 -5.8432790769745077e-015 -10 0 F 0 F 0.38000000000000006 #
straight-curve $-1 -1 $-1 14.500000000000004 2.2499999999999956 -29.100000000000001 -4.1318222596941434e-015 -7.071067811865472 -7.0710678118654791 I I #
point $-1 -1 $-1 14.500000000000004 0.89999999999999469 -30.450000000000003 #
coedge $-1 -1 $-1 $332 $332 $357 $358 reversed $302 $-1 #
face $-1 -1 $-1 $359 $360 $2 $-1 $361 reversed single #
loop $-1 -1 $-1 $362 $363 $305 #
plane-surface $-1 -1 $-1 0 0 -23.870000000000001 0 0 1 10 0 0 forward_v I I I I #
coedge $-1 -1 $-1 $336 $336 $364 $365 forward $306 $-1 #
straight-curve $-1 -1 $-1 14.375000000000004 1.8999999999999948 -29.450000000000003 10 -5.551115123125778e-015 2.8257704067618301e-026 F -0.34750100000000028 F 0.32250100000000015 #
point $-1 -1 $-1 14.500000000000004 1.8999999999999948 -29.450000000000003 #
face $-1 -1 $-1 $366 $367 $2 $-1 $368 reversed single #
loop $-1 -1 $-1 $-1 $369 $311 #
plane-surface $-1 -1 $-1 9.2271338995378223 3.1499999999999968 -23.870000000000001 -7.4386342588072533e-016 -1 0 0 0 -10 forward_v I I I I #
point $-1 -1 $-1 14.000000000000004 0.89999999999999503 -30.450000000000003 #
face $-1 -1 $-1 $370 $371 $2 $-1 $372 forward single #
loop $-1 -1 $-1 $373 $374 $316 #
cone-surface $-1 -1 $-1 0 0 29.5 0 0 1 -1.6000000000000003 0 0 1 I I 0 1 1.6000000000000003 forward I I I I #
coedge $-1 -1 $-1 $346 $346 $375 $376 forward $317 $-1 #
coedge $-1 -1 $-1 $347 $347 $377 $378 reversed $319 $-1 #
coedge $-1 -1 $-1 $348 $348 $320 $349 forward $379 $-1 #
edge $-1 -1 $-1 $380 -3.1415926535897931 $380 3.1415926535897931 $348 $381 forward @7 unknown #
coedge $-1 -1 $-1 $350 $350 $321 $351 forward $382 $-1 #
edge $-1 -1 $-1 $383 0 $383 6.2831853071795862 $350 $384 forward @7 unknown #
loop $-1 -1 $-1 $379 $322 $385 #
vertex $-1 -1 $-1 $323 $386 #
ellipse-curve $-1 -1 $-1 -12.5 0 24.380000000000003 0 0 1 -1.25 0 0 1 I I #
point $-1 -1 $-1 17.254999999999999 2.1130582635205119e-015 23 #
straight-curve $-1 -1 $-1 14.375000000000004 0.89999999999999469 -30.450000000000003 -10 5.551115123125778e-015 -2.8257704067618301e-026 F -0.32250100000000015 F 0.34750100000000028 #
coedge $-1 -1 $-1 $357 $357 $332 $358 forward $387 $-1 #
edge $-1 -1 $-1 $388 -3.1415926535897931 $388 3.1415926535897931 $357 $389 forward @7 unknown #
face $-1 -1 $-1 $390 $391 $2 $-1 $392 forward single #
loop $-1 -1 $-1 $324 $393 $333 #
torus-surface $-1 -1 $-1 0 0 23 0 0 -1 15.875000000000002 1.3800000000000001 -1 0 0 forward_v I I I I #
loop $-1 -1 $-1 $394 $395 $305 #
coedge $-1 -1 $-1 $396 $397 $398 $399 forward $334 $-1 #
coedge $-1 -1 $-1 $364 $364 $336 $365 reversed $400 $-1 #
edge $-1 -1 $-1 $401 -3.1415926535897931 $401 3.1415926535897931 $336 $402 forward @7 unknown #
face $-1 -1 $-1 $403 $404 $2 $-1 $405 reversed single #
loop $-1 -1 $-1 $-1 $406 $339 #
cone-surface $-1 -1 $-1 0 0 -23.870000000000001 0 0 1 3.1500000000000044 8.1633326527834189 0 1 I I 0 -1 8.75 forward I I I I #
coedge $-1 -1 $-1 $407 $408 $409 $410 reversed $340 $-1 #
face $-1 -1 $-1 $411 $412 $2 $-1 $413 forward single #
loop $-1 -1 $-1 $414 $415 $343 #
torus-surface $-1 -1 $-1 0 0 29.000000000000004 0 0 -1 6 0.5 -1 0 0 forward_v I I I I #
loop $-1 -1 $-1 $-1 $375 $316 #
coedge $-1 -1 $-1 $374 $374 $416 $417 reversed $344 $-1 #
coedge $-1 -1 $-1 $375 $375 $346 $376 reversed $373 $-1 #
edge $-1 -1 $-1 $418 -3.1415926535897931 $418 3.1415926535897931 $375 $419 forward @7 unknown #
coedge $-1 -1 $-1 $377 $377 $347 $378 forward $420 $-1 #
edge $-1 -1 $-1 $421 0 $421 6.2831853071795862 $377 $422 forward @7 unknown #
loop $-1 -1 $-1 $423 $348 $385 #
vertex $-1 -1 $-1 $349 $424 #
ellipse-curve $-1 -1 $-1 12.5 0 24.380000000000003 0 0 1 1.25 0 0 1 I I #
loop $-1 -1 $-1 $420 $350 $425 #
vertex $-1 -1 $-1 $351 $426 #
ellipse-curve $-1 -1 $-1 -12.5 0 25 0 0 -1 -1.25 0 0 1 I I #
face $-1 -1 $-1 $303 $352 $2 $-1 $427 forward single #
point $-1 -1 $-1 -11.25 1.5307579422779716e-016 24.380000000000003 #
loop $-1 -1 $-1 $428 $357 $429 #
vertex $-1 -1 $-1 $358 $430 #
ellipse-curve $-1 -1 $-1 0 0 -25 0 0 1 -17.254999999999999 0 0 1 I I #
face $-1 -1 $-1 $429 $431 $2 $-1 $432 forward single #
loop $-1 -1 $-1 $433 $434 $359 #
torus-surface $-1 -1 $-1 0 0 23 0 0 -1 15.875000000000002 2 -1 0 0 forward_v I I I I #
coedge $-1 -1 $-1 $393 $393 $435 $436 reversed $360 $-1 #
loop $-1 -1 $-1 $437 $438 $305 #
coedge $-1 -1 $-1 $439 $440 $441 $442 forward $362 $-1 #
coedge $-1 -1 $-1 $443 $363 $444 $445 forward $334 $-1 #
coedge $-1 -1 $-1 $363 $443 $446 $447 forward $334 $-1 #
coedge $-1 -1 $-1 $408 $407 $363 $399 reversed $340 $-1 #
edge $-1 -1 $-1 $448 0.35497657030145097 $449 0.46135669497689097 $363 $450 forward @7 unknown #
loop $-1 -1 $-1 $-1 $364 $305 #
vertex $-1 -1 $-1 $365 $451 #
ellipse-curve $-1 -1 $-1 0 0 -23.870000000000001 0 0 1 12.000000000000002 0 0 1 I I #
face $-1 -1 $-1 $452 $453 $2 $-1 $454 reversed single #
loop $-1 -1 $-1 $-1 $455 $366 #
plane-surface $-1 -1 $-1 3.1500000000000044 8.1633326527834189 -23.870000000000001 -1 2.2204460492503131e-016 0 0 0 -10 forward_v I I I I #
coedge $-1 -1 $-1 $456 $457 $458 $459 reversed $367 $-1 #
coedge $-1 -1 $-1 $398 $369 $460 $461 reversed $340 $-1 #
coedge $-1 -1 $-1 $369 $398 $456 $462 forward $340 $-1 #
coedge $-1 -1 $-1 $458 $463 $369 $410 forward $464 $-1 #
edge $-1 -1 $-1 $465 -0.10638012467544 $466 0 $369 $467 forward @7 unknown #
face $-1 -1 $-1 $468 $469 $2 $-1 $470 reversed single #
loop $-1 -1 $-1 $471 $472 $370 #
cone-surface $-1 -1 $-1 0 0 25 0 0 1 -6.5 0 0 1 I I 0 1 6.5 forward I I I I #
loop $-1 -1 $-1 $-1 $473 $343 #
coedge $-1 -1 $-1 $415 $415 $474 $475 forward $371 $-1 #
coedge $-1 -1 $-1 $416 $416 $374 $417 forward $469 $-1 #
edge $-1 -1 $-1 $476 -3.1415926535897931 $476 3.1415926535897931 $416 $477 forward @7 unknown #
vertex $-1 -1 $-1 $376 $478 #
ellipse-curve $-1 -1 $-1 0 0 35.899999999999999 0 0 1 -1.6000000000000003 0 0 1 I I #
loop $-1 -1 $-1 $479 $377 $425 #
vertex $-1 -1 $-1 $378 $480 #
ellipse-curve $-1 -1 $-1 12.5 0 25 0 0 -1 1.25 0 0 1 I I #
loop $-1 -1 $-1 $-1 $435 $385 #
point $-1 -1 $-1 11.25 -1.5307579422779716e-016 24.380000000000003 #
face $-1 -1 $-1 $385 $382 $2 $-1 $481 reversed single #
point $-1 -1 $-1 -13.75 0 25 #
plane-surface $-1 -1 $-1 0 0 24.380000000000003 0 0 -1 -10 0 0 forward_v I I I I #
loop $-1 -1 $-1 $-1 $482 $429 #
face $-1 -1 $-1 $-1 $387 $2 $-1 $483 forward single #
point $-1 -1 $-1 17.254999999999999 2.1130582635205119e-015 -25 #
loop $-1 -1 $-1 $484 $485 $390 #
cone-surface $-1 -1 $-1 0 0 0 0 0 1 -17.875 0 0 1 I I 0 1 17.875 forward I I I I #
loop $-1 -1 $-1 $-1 $486 $359 #
coedge $-1 -1 $-1 $434 $434 $487 $488 forward $391 $-1 #
coedge $-1 -1 $-1 $435 $435 $393 $436 forward $423 $-1 #
edge $-1 -1 $-1 $489 -3.1415926535897931 $489 3.1415926535897931 $435 $490 forward @7 unknown #
loop $-1 -1 $-1 $491 $492 $305 #
coedge $-1 -1 $-1 $493 $494 $495 $496 forward $394 $-1 #
coedge $-1 -1 $-1 $497 $395 $498 $499 forward $362 $-1 #
coedge $-1 -1 $-1 $395 $497 $500 $501 forward $362 $-1 #
coedge $-1 -1 $-1 $502 $503 $395 $442 reversed $504 $-1 #
edge $-1 -1 $-1 $505 0.35497657030145091 $506 0.46135669497689091 $395 $507 forward @7 unknown #
coedge $-1 -1 $-1 $397 $396 $508 $509 forward $334 $-1 #
coedge $-1 -1 $-1 $460 $510 $396 $445 reversed $453 $-1 #
edge $-1 -1 $-1 $449 2.2287542689843423 $511 3.1415926535897931 $396 $512 forward @7 unknown #
coedge $-1 -1 $-1 $457 $456 $397 $447 reversed $367 $-1 #
edge $-1 -1 $-1 $513 0 $448 0.83426053992161631 $397 $514 forward @7 unknown #
vertex $-1 -1 $-1 $399 $515 #
vertex $-1 -1 $-1 $399 $516 #
straight-curve $-1 -1 $-1 4.613566949768912 3.1499999999999999 -23.870000000000001 10 -7.4386342588072525e-015 0 I I #
point $-1 -1 $-1 -12.000000000000002 1.4695276245868527e-015 -23.870000000000001 #
face $-1 -1 $-1 $517 $464 $2 $-1 $518 reversed single #
loop $-1 -1 $-1 $-1 $519 $403 #
cone-surface $-1 -1 $-1 0 0 -23.870000000000001 0 0 1 -3.1500000000000048 -9.2271338995378187 0 1 I I 0 1 9.75 forward I I I I #
coedge $-1 -1 $-1 $520 $521 $522 $523 reversed $404 $-1 #
coedge $-1 -1 $-1 $446 $406 $408 $462 reversed $367 $-1 #
coedge $-1 -1 $-1 $406 $446 $520 $524 forward $367 $-1 #
coedge $-1 -1 $-1 $522 $409 $406 $459 forward $464 $-1 #
edge $-1 -1 $-1 $466 -0.83426053992161631 $525 0 $406 $526 forward @7 unknown #
coedge $-1 -1 $-1 $519 $444 $407 $461 forward $453 $-1 #
edge $-1 -1 $-1 $449 0 $465 0.10000000000000009 $407 $527 forward @7 unknown #
edge $-1 -1 $-1 $448 0 $466 0.10000000000000009 $456 $528 forward @7 unknown #
coedge $-1 -1 $-1 $409 $522 $519 $529 forward $464 $-1 #
loop $-1 -1 $-1 $-1 $409 $452 #
vertex $-1 -1 $-1 $461 $530 #
vertex $-1 -1 $-1 $462 $531 #
straight-curve $-1 -1 $-1 8.1633326527834207 3.1499999999999977 -22.869999999999997 -10 7.4386342588072525e-015 0 F -0.10638012467544 F 0 #
face $-1 -1 $-1 $425 $532 $2 $-1 $533 forward single #
loop $-1 -1 $-1 $534 $416 $411 #
plane-surface $-1 -1 $-1 0 0 29.5 0 0 -1 -10 0 0 forward_v I I I I #
loop $-1 -1 $-1 $-1 $535 $370 #
coedge $-1 -1 $-1 $472 $472 $536 $537 reversed $412 $-1 #
coedge $-1 -1 $-1 $473 $473 $535 $538 forward $414 $-1 #
coedge $-1 -1 $-1 $474 $474 $415 $475 reversed $534 $-1 #
edge $-1 -1 $-1 $539 -3.1415926535897931 $539 3.1415926535897931 $474 $540 forward @7 unknown #
vertex $-1 -1 $-1 $417 $541 #
ellipse-curve $-1 -1 $-1 0 0 29.5 0 0 -1 -1.6000000000000003 0 0 1 I I #
point $-1 -1 $-1 1.6000000000000003 1.9593701661158039e-016 35.899999999999999 #
loop $-1 -1 $-1 $542 $487 $425 #
point $-1 -1 $-1 13.75 0 25 #
plane-surface $-1 -1 $-1 0 0 25 0 0 -1 -10 0 0 forward_v I I I I #
coedge $-1 -1 $-1 $482 $482 $485 $543 reversed $428 $-1 #
plane-surface $-1 -1 $-1 0 0 -25 0 0 -1 -10 0 0 forward_v I I I I #
loop $-1 -1 $-1 $-1 $544 $390 #
coedge $-1 -1 $-1 $485 $485 $482 $543 forward $431 $-1 #
coedge $-1 -1 $-1 $486 $486 $544 $545 forward $433 $-1 #
coedge $-1 -1 $-1 $487 $487 $434 $488 reversed $479 $-1 #
edge $-1 -1 $-1 $546 -3.1415926535897931 $546 3.1415926535897931 $487 $547 forward @7 unknown #
vertex $-1 -1 $-1 $436 $548 #
ellipse-curve $-1 -1 $-1 0 0 24.380000000000003 0 0 -1 -15.875000000000002 0 0 1 I I #
loop $-1 -1 $-1 $400 $549 $305 #
coedge $-1 -1 $-1 $550 $551 $552 $553 forward $437 $-1 #
coedge $-1 -1 $-1 $554 $438 $555 $556 forward $394 $-1 #
coedge $-1 -1 $-1 $438 $554 $557 $558 forward $394 $-1 #
coedge $-1 -1 $-1 $559 $560 $438 $496 reversed $561 $-1 #
edge $-1 -1 $-1 $562 0.35497657030145097 $563 0.46135669497689097 $438 $564 forward @7 unknown #
coedge $-1 -1 $-1 $440 $439 $565 $566 forward $362 $-1 #
coedge $-1 -1 $-1 $567 $568 $439 $499 reversed $569 $-1 #
edge $-1 -1 $-1 $506 2.2287542689843423 $570 3.1415926535897931 $439 $571 forward @7 unknown #
coedge $-1 -1 $-1 $572 $573 $440 $501 reversed $574 $-1 #
edge $-1 -1 $-1 $575 0 $505 0.83426053992161631 $440 $576 forward @7 unknown #
coedge $-1 -1 $-1 $577 $441 $573 $578 forward $504 $-1 #
coedge $-1 -1 $-1 $441 $577 $567 $579 reversed $504 $-1 #
loop $-1 -1 $-1 $-1 $577 $517 #
vertex $-1 -1 $-1 $442 $580 #
vertex $-1 -1 $-1 $442 $581 #
straight-curve $-1 -1 $-1 3.1500000000000004 -4.6135669497689111 -23.870000000000001 -6.4427945633793175e-015 -10 0 I I #
coedge $-1 -1 $-1 $521 $520 $443 $509 reversed $404 $-1 #
edge $-1 -1 $-1 $511 -0.51454675731461097 $513 -0.40816663263917097 $443 $582 forward @7 unknown #
coedge $-1 -1 $-1 $444 $519 $521 $583 reversed $453 $-1 #
vertex $-1 -1 $-1 $509 $584 #
ellipse-curve $-1 -1 $-1 0 0 -23.870000000000001 0 0 1 -3.1500000000000048 -9.2271338995378187 0 1 I I #
vertex $-1 -1 $-1 $447 $585 #
ellipse-curve $-1 -1 $-1 0 0 -23.870000000000001 0 0 -1 3.1500000000000044 8.1633326527834189 0 1 I I #
point $-1 -1 $-1 8.1633326527834207 3.1499999999999977 -23.870000000000001 #
point $-1 -1 $-1 9.2271338995378223 3.1499999999999968 -23.870000000000001 #
face $-1 -1 $-1 $586 $504 $2 $-1 $587 reversed single #
plane-surface $-1 -1 $-1 6.2772027414551808 6.2772027414551772 -22.869999999999997 0 0 1 -2.2204460492503131e-015 -10 0 forward_v I I I I #
coedge $-1 -1 $-1 $510 $460 $463 $529 reversed $453 $-1 #
coedge $-1 -1 $-1 $508 $455 $457 $524 reversed $404 $-1 #
coedge $-1 -1 $-1 $455 $508 $510 $583 forward $404 $-1 #
coedge $-1 -1 $-1 $463 $458 $455 $523 forward $464 $-1 #
edge $-1 -1 $-1 $525 -0.10638012467544 $588 0 $455 $589 forward @7 unknown #
edge $-1 -1 $-1 $513 0 $525 0.10000000000000009 $520 $590 forward @7 unknown #
vertex $-1 -1 $-1 $524 $591 #
ellipse-curve $-1 -1 $-1 0 0 -22.869999999999997 0 0 1 3.1500000000000044 8.1633326527834189 0 1 F -0.8342605399216162 F 0 #
straight-curve $-1 -1 $-1 9.2271338995378223 3.1499999999999968 -23.870000000000001 0 0 10 I I #
straight-curve $-1 -1 $-1 8.1633326527834207 3.1499999999999977 -23.870000000000001 0 0 10 I I #
edge $-1 -1 $-1 $588 -3.1415926535897931 $465 -2.2287542689843423 $519 $592 forward @7 unknown #
point $-1 -1 $-1 9.2271338995378223 3.1499999999999968 -22.869999999999997 #
point $-1 -1 $-1 8.1633326527834207 3.1499999999999977 -22.869999999999997 #
loop $-1 -1 $-1 $593 $536 $468 #
torus-surface $-1 -1 $-1 0 0 25.5 0 0 -1 7.0000000000000009 -0.5 -1 0 0 forward_v I I I I #
loop $-1 -1 $-1 $-1 $474 $411 #
coedge $-1 -1 $-1 $535 $535 $473 $538 reversed $471 $-1 #
coedge $-1 -1 $-1 $536 $536 $472 $537 forward $532 $-1 #
edge $-1 -1 $-1 $594 -3.1415926535897931 $594 3.1415926535897931 $472 $595 forward @7 unknown #
edge $-1 -1 $-1 $596 -3.1415926535897931 $596 3.1415926535897931 $535 $597 forward @7 unknown #
vertex $-1 -1 $-1 $475 $598 #
ellipse-curve $-1 -1 $-1 0 0 29.5 0 0 -1 -6 0 0 1 I I #
point $-1 -1 $-1 1.6000000000000003 1.9593701661158039e-016 29.5 #
loop $-1 -1 $-1 $-1 $599 $425 #
edge $-1 -1 $-1 $600 -3.1415926535897931 $600 3.1415926535897931 $485 $601 forward @7 unknown #
coedge $-1 -1 $-1 $544 $544 $486 $545 reversed $484 $-1 #
edge $-1 -1 $-1 $602 -3.1415926535897931 $602 3.1415926535897931 $544 $603 forward @7 unknown #
vertex $-1 -1 $-1 $488 $604 #
ellipse-curve $-1 -1 $-1 0 0 25 0 0 -1 -15.875000000000002 0 0 1 I I #
point $-1 -1 $-1 15.875000000000002 -1.9440625866930239e-015 24.380000000000003 #
coedge $-1 -1 $-1 $549 $549 $605 $606 forward $491 $-1 #
coedge $-1 -1 $-1 $607 $492 $608 $609 forward $437 $-1 #
coedge $-1 -1 $-1 $492 $607 $610 $611 forward $437 $-1 #
coedge $-1 -1 $-1 $612 $613 $492 $553 reversed $614 $-1 #
edge $-1 -1 $-1 $615 0.35497657030145097 $616 0.46135669497689097 $492 $617 forward @7 unknown #
coedge $-1 -1 $-1 $494 $493 $618 $619 forward $394 $-1 #
coedge $-1 -1 $-1 $620 $621 $493 $556 reversed $622 $-1 #
edge $-1 -1 $-1 $563 2.2287542689843423 $623 3.1415926535897931 $493 $624 forward @7 unknown #
coedge $-1 -1 $-1 $625 $626 $494 $558 reversed $627 $-1 #
edge $-1 -1 $-1 $628 0 $562 0.83426053992161631 $494 $629 forward @7 unknown #
coedge $-1 -1 $-1 $630 $495 $626 $631 forward $561 $-1 #
coedge $-1 -1 $-1 $495 $630 $620 $632 reversed $561 $-1 #
loop $-1 -1 $-1 $-1 $630 $633 #
vertex $-1 -1 $-1 $496 $634 #
vertex $-1 -1 $-1 $496 $635 #
straight-curve $-1 -1 $-1 -4.613566949768912 -3.1499999999999999 -23.870000000000001 -10 7.4386342588072525e-015 0 I I #
coedge $-1 -1 $-1 $636 $637 $497 $566 reversed $638 $-1 #
edge $-1 -1 $-1 $570 -0.51454675731461097 $575 -0.40816663263917097 $497 $639 forward @7 unknown #
coedge $-1 -1 $-1 $640 $498 $503 $579 forward $569 $-1 #
coedge $-1 -1 $-1 $498 $640 $636 $641 reversed $569 $-1 #
loop $-1 -1 $-1 $-1 $640 $642 #
vertex $-1 -1 $-1 $566 $643 #
ellipse-curve $-1 -1 $-1 0 0 -23.870000000000001 0 0 1 -9.2271338995378187 3.1500000000000039 0 1 I I #
coedge $-1 -1 $-1 $644 $500 $637 $645 forward $574 $-1 #
coedge $-1 -1 $-1 $500 $644 $502 $578 reversed $574 $-1 #
loop $-1 -1 $-1 $-1 $644 $586 #
vertex $-1 -1 $-1 $501 $646 #
ellipse-curve $-1 -1 $-1 0 0 -23.870000000000001 0 0 -1 8.1633326527834189 -3.1500000000000039 0 1 I I #
coedge $-1 -1 $-1 $503 $502 $647 $648 reversed $504 $-1 #
edge $-1 -1 $-1 $505 0 $649 0.10000000000000009 $573 $650 forward @7 unknown #
edge $-1 -1 $-1 $506 0 $651 0.10000000000000009 $503 $652 forward @7 unknown #
point $-1 -1 $-1 3.1499999999999986 -8.1633326527834207 -23.870000000000001 #
point $-1 -1 $-1 3.1499999999999977 -9.2271338995378205 -23.870000000000001 #
straight-curve $-1 -1 $-1 3.1500000000000039 4.0816663263917086 -23.870000000000001 -2.2204460492503131e-015 -10 0 I I #
edge $-1 -1 $-1 $511 0 $588 0.10000000000000009 $510 $653 forward @7 unknown #
point $-1 -1 $-1 3.1500000000000048 9.2271338995378187 -23.870000000000001 #
point $-1 -1 $-1 3.1500000000000044 8.1633326527834189 -23.870000000000001 #
face $-1 -1 $-1 $654 $574 $2 $-1 $655 reversed single #
plane-surface $-1 -1 $-1 3.1499999999999977 -9.2271338995378205 -23.870000000000001 -1 6.4427945633793175e-016 0 0 0 -10 forward_v I I I I #
vertex $-1 -1 $-1 $583 $656 #
straight-curve $-1 -1 $-1 3.1500000000000048 9.2271338995378187 -22.869999999999997 2.2204460492503131e-015 10 0 F -0.10638012467544 F 0 #
straight-curve $-1 -1 $-1 3.1500000000000044 8.1633326527834189 -23.870000000000001 0 0 10 I I #
point $-1 -1 $-1 3.1500000000000044 8.1633326527834189 -22.869999999999997 #
ellipse-curve $-1 -1 $-1 0 0 -22.869999999999997 0 0 -1 -3.1500000000000048 -9.2271338995378187 0 1 F -3.1415926535897931 F -2.2287542689843418 #
loop $-1 -1 $-1 $-1 $657 $468 #
vertex $-1 -1 $-1 $537 $658 #
ellipse-curve $-1 -1 $-1 0 0 25.5 0 0 -1 -6.5 0 0 1 I I #
vertex $-1 -1 $-1 $538 $659 #
ellipse-curve $-1 -1 $-1 0 0 29.000000000000004 0 0 1 -6.5 0 0 1 I I #
point $-1 -1 $-1 6 -7.3476381229342626e-016 29.5 #
coedge $-1 -1 $-1 $599 $599 $657 $660 reversed $542 $-1 #
vertex $-1 -1 $-1 $543 $661 #
ellipse-curve $-1 -1 $-1 0 0 -25 0 0 1 -17.875 0 0 1 I I #
vertex $-1 -1 $-1 $545 $662 #
ellipse-curve $-1 -1 $-1 0 0 23 0 0 1 -17.875 0 0 1 I I #
point $-1 -1 $-1 15.875000000000002 -1.9440625866930239e-015 25 #
coedge $-1 -1 $-1 $605 $605 $549 $606 reversed $663 $-1 #
edge $-1 -1 $-1 $664 -3.1415926535897931 $664 3.1415926535897931 $549 $665 forward @7 unknown #
coedge $-1 -1 $-1 $551 $550 $666 $667 forward $437 $-1 #
coedge $-1 -1 $-1 $668 $669 $550 $609 reversed $670 $-1 #
edge $-1 -1 $-1 $616 2.2287542689843423 $671 3.1415926535897931 $550 $672 forward @7 unknown #
coedge $-1 -1 $-1 $673 $674 $551 $611 reversed $675 $-1 #
edge $-1 -1 $-1 $676 0 $615 0.83426053992161631 $551 $677 forward @7 unknown #
coedge $-1 -1 $-1 $678 $552 $674 $679 forward $614 $-1 #
coedge $-1 -1 $-1 $552 $678 $668 $680 reversed $614 $-1 #
loop $-1 -1 $-1 $-1 $678 $681 #
vertex $-1 -1 $-1 $553 $682 #
vertex $-1 -1 $-1 $553 $683 #
straight-curve $-1 -1 $-1 -3.1500000000000017 4.6135669497689111 -23.870000000000001 5.2181882095569402e-015 10 0 I I #
coedge $-1 -1 $-1 $684 $685 $554 $619 reversed $686 $-1 #
edge $-1 -1 $-1 $623 -0.51454675731461097 $628 -0.40816663263917097 $554 $687 forward @7 unknown #
coedge $-1 -1 $-1 $688 $555 $560 $632 forward $622 $-1 #
coedge $-1 -1 $-1 $555 $688 $684 $689 reversed $622 $-1 #
loop $-1 -1 $-1 $-1 $688 $690 #
vertex $-1 -1 $-1 $619 $691 #
ellipse-curve $-1 -1 $-1 0 0 -23.870000000000001 0 0 1 3.1500000000000048 9.2271338995378187 0 1 I I #
coedge $-1 -1 $-1 $692 $557 $685 $693 forward $627 $-1 #
coedge $-1 -1 $-1 $557 $692 $559 $631 reversed $627 $-1 #
loop $-1 -1 $-1 $-1 $692 $694 #
vertex $-1 -1 $-1 $558 $695 #
ellipse-curve $-1 -1 $-1 0 0 -23.870000000000001 0 0 -1 -3.1500000000000044 -8.1633326527834189 0 1 I I #
coedge $-1 -1 $-1 $560 $559 $696 $697 reversed $561 $-1 #
edge $-1 -1 $-1 $562 0 $698 0.10000000000000009 $626 $699 forward @7 unknown #
edge $-1 -1 $-1 $563 0 $700 0.10000000000000009 $560 $701 forward @7 unknown #
face $-1 -1 $-1 $694 $561 $2 $-1 $702 reversed single #
point $-1 -1 $-1 -8.1633326527834207 -3.1499999999999977 -23.870000000000001 #
point $-1 -1 $-1 -9.2271338995378223 -3.1499999999999968 -23.870000000000001 #
coedge $-1 -1 $-1 $703 $565 $568 $641 forward $638 $-1 #
coedge $-1 -1 $-1 $565 $703 $572 $645 reversed $638 $-1 #
loop $-1 -1 $-1 $-1 $703 $654 #
straight-curve $-1 -1 $-1 4.0816663263917095 -3.1500000000000035 -23.870000000000001 -10 1.2246063538223773e-015 0 I I #
coedge $-1 -1 $-1 $568 $567 $704 $705 reversed $569 $-1 #
edge $-1 -1 $-1 $570 0 $706 0.10000000000000009 $568 $707 forward @7 unknown #
face $-1 -1 $-1 $708 $569 $2 $-1 $709 reversed single #
point $-1 -1 $-1 9.2271338995378187 -3.1500000000000039 -23.870000000000001 #
coedge $-1 -1 $-1 $573 $572 $710 $711 reversed $574 $-1 #
edge $-1 -1 $-1 $575 0 $712 0.10000000000000009 $637 $713 forward @7 unknown #
point $-1 -1 $-1 8.1633326527834189 -3.1500000000000039 -23.870000000000001 #
coedge $-1 -1 $-1 $710 $704 $577 $648 forward $714 $-1 #
edge $-1 -1 $-1 $651 -0.10638012467544 $649 0 $577 $715 forward @7 unknown #
vertex $-1 -1 $-1 $578 $716 #
straight-curve $-1 -1 $-1 3.1499999999999986 -8.1633326527834207 -23.870000000000001 0 0 10 I I #
vertex $-1 -1 $-1 $579 $717 #
straight-curve $-1 -1 $-1 3.1499999999999977 -9.2271338995378205 -23.870000000000001 0 0 10 I I #
straight-curve $-1 -1 $-1 3.1500000000000048 9.2271338995378187 -23.870000000000001 0 0 10 I I #
face $-1 -1 $-1 $642 $638 $2 $-1 $718 reversed single #
cone-surface $-1 -1 $-1 0 0 -23.870000000000001 0 0 1 8.1633326527834189 -3.1500000000000039 0 1 I I 0 -1 8.75 forward I I I I #
point $-1 -1 $-1 3.1500000000000048 9.2271338995378187 -22.869999999999997 #
coedge $-1 -1 $-1 $657 $657 $599 $660 forward $593 $-1 #
point $-1 -1 $-1 6.5 -7.9599412998454532e-016 25.5 #
point $-1 -1 $-1 6.5 7.9599412998454532e-016 29.000000000000004 #
edge $-1 -1 $-1 $719 -3.1415926535897931 $719 3.1415926535897931 $599 $720 forward @7 unknown #
point $-1 -1 $-1 17.875 2.1889838574574993e-015 -25 #
point $-1 -1 $-1 17.875 2.1889838574574993e-015 23 #
loop $-1 -1 $-1 $-1 $605 $721 #
vertex $-1 -1 $-1 $606 $722 #
ellipse-curve $-1 -1 $-1 0 0 -23.870000000000001 0 0 1 5.375 0 0 1 I I #
coedge $-1 -1 $-1 $723 $724 $607 $667 reversed $725 $-1 #
edge $-1 -1 $-1 $671 -0.51454675731461097 $676 -0.40816663263917097 $607 $726 forward @7 unknown #
coedge $-1 -1 $-1 $727 $608 $613 $680 forward $670 $-1 #
coedge $-1 -1 $-1 $608 $727 $723 $728 reversed $670 $-1 #
loop $-1 -1 $-1 $-1 $727 $729 #
vertex $-1 -1 $-1 $667 $730 #
ellipse-curve $-1 -1 $-1 0 0 -23.870000000000001 0 0 1 9.2271338995378187 -3.150000000000003 0 1 I I #
coedge $-1 -1 $-1 $731 $610 $724 $732 forward $675 $-1 #
coedge $-1 -1 $-1 $610 $731 $612 $679 reversed $675 $-1 #
loop $-1 -1 $-1 $-1 $731 $733 #
vertex $-1 -1 $-1 $611 $734 #
ellipse-curve $-1 -1 $-1 0 0 -23.870000000000001 0 0 -1 -8.1633326527834189 3.150000000000003 0 1 I I #
coedge $-1 -1 $-1 $613 $612 $735 $736 reversed $614 $-1 #
edge $-1 -1 $-1 $615 0 $737 0.10000000000000009 $674 $738 forward @7 unknown #
edge $-1 -1 $-1 $616 0 $739 0.10000000000000009 $613 $740 forward @7 unknown #
face $-1 -1 $-1 $733 $614 $2 $-1 $741 reversed single #
point $-1 -1 $-1 -3.1499999999999995 8.1633326527834207 -23.870000000000001 #
point $-1 -1 $-1 -3.149999999999999 9.2271338995378205 -23.870000000000001 #
coedge $-1 -1 $-1 $742 $618 $621 $689 forward $686 $-1 #
coedge $-1 -1 $-1 $618 $742 $625 $693 reversed $686 $-1 #
loop $-1 -1 $-1 $-1 $742 $743 #
straight-curve $-1 -1 $-1 -3.1500000000000039 -4.0816663263917086 -23.870000000000001 2.2204460492503131e-015 10 0 I I #
coedge $-1 -1 $-1 $621 $620 $744 $745 reversed $622 $-1 #
edge $-1 -1 $-1 $623 0 $746 0.10000000000000009 $621 $747 forward @7 unknown #
face $-1 -1 $-1 $748 $622 $2 $-1 $749 reversed single #
point $-1 -1 $-1 -3.1500000000000048 -9.2271338995378187 -23.870000000000001 #
coedge $-1 -1 $-1 $626 $625 $750 $751 reversed $627 $-1 #
edge $-1 -1 $-1 $628 0 $752 0.10000000000000009 $685 $753 forward @7 unknown #
face $-1 -1 $-1 $743 $627 $2 $-1 $754 reversed single #
point $-1 -1 $-1 -3.1500000000000044 -8.1633326527834189 -23.870000000000001 #
coedge $-1 -1 $-1 $750 $744 $630 $697 forward $755 $-1 #
edge $-1 -1 $-1 $700 -0.10638012467544 $698 0 $630 $756 forward @7 unknown #
vertex $-1 -1 $-1 $631 $757 #
straight-curve $-1 -1 $-1 -8.1633326527834207 -3.1499999999999977 -23.870000000000001 0 0 10 I I #
vertex $-1 -1 $-1 $632 $758 #
straight-curve $-1 -1 $-1 -9.2271338995378223 -3.1499999999999968 -23.870000000000001 0 0 10 I I #
plane-surface $-1 -1 $-1 -9.2271338995378223 -3.1499999999999968 -23.870000000000001 7.4386342588072533e-016 1 0 0 0 -10 forward_v I I I I #
coedge $-1 -1 $-1 $637 $636 $759 $760 reversed $638 $-1 #
coedge $-1 -1 $-1 $647 $759 $640 $705 forward $714 $-1 #
edge $-1 -1 $-1 $706 -3.1415926535897931 $651 -2.2287542689843423 $640 $761 forward @7 unknown #
vertex $-1 -1 $-1 $641 $762 #
straight-curve $-1 -1 $-1 9.2271338995378187 -3.1500000000000039 -23.870000000000001 0 0 10 I I #
face $-1 -1 $-1 $633 $714 $2 $-1 $763 reversed single #
cone-surface $-1 -1 $-1 0 0 -23.870000000000001 0 0 1 -9.2271338995378187 3.1500000000000039 0 1 I I 0 1 9.75 forward I I I I #
coedge $-1 -1 $-1 $759 $647 $644 $711 forward $714 $-1 #
edge $-1 -1 $-1 $649 -0.83426053992161631 $712 0 $644 $764 forward @7 unknown #
vertex $-1 -1 $-1 $645 $765 #
straight-curve $-1 -1 $-1 8.1633326527834189 -3.1500000000000039 -23.870000000000001 0 0 10 I I #
loop $-1 -1 $-1 $-1 $647 $708 #
straight-curve $-1 -1 $-1 3.1499999999999986 -8.1633326527834207 -22.869999999999997 6.4427945633793175e-015 10 0 F -0.10638012467544 F 0 #
point $-1 -1 $-1 3.1499999999999986 -8.1633326527834207 -22.869999999999997 #
point $-1 -1 $-1 3.1499999999999977 -9.2271338995378205 -22.869999999999997 #
plane-surface $-1 -1 $-1 8.1633326527834189 -3.1500000000000039 -23.870000000000001 1.2246063538223773e-016 1 0 0 0 -10 forward_v I I I I #
vertex $-1 -1 $-1 $660 $766 #
ellipse-curve $-1 -1 $-1 0 0 25 0 0 1 -7.0000000000000009 0 0 1 I I #
face $-1 -1 $-1 $767 $768 $2 $-1 $769 forward single #
point $-1 -1 $-1 -5.375 6.5822591517952768e-016 -23.870000000000001 #
coedge $-1 -1 $-1 $770 $666 $669 $728 forward $725 $-1 #
coedge $-1 -1 $-1 $666 $770 $673 $732 reversed $725 $-1 #
loop $-1 -1 $-1 $-1 $770 $771 #
straight-curve $-1 -1 $-1 -4.0816663263917095 3.150000000000003 -23.870000000000001 10 0 0 I I #
coedge $-1 -1 $-1 $669 $668 $772 $773 reversed $670 $-1 #
edge $-1 -1 $-1 $671 0 $774 0.10000000000000009 $669 $775 forward @7 unknown #
face $-1 -1 $-1 $776 $670 $2 $-1 $777 reversed single #
point $-1 -1 $-1 -9.2271338995378187 3.150000000000003 -23.870000000000001 #
coedge $-1 -1 $-1 $674 $673 $778 $779 reversed $675 $-1 #
edge $-1 -1 $-1 $676 0 $780 0.10000000000000009 $724 $781 forward @7 unknown #
face $-1 -1 $-1 $771 $675 $2 $-1 $782 reversed single #
point $-1 -1 $-1 -8.1633326527834189 3.150000000000003 -23.870000000000001 #
coedge $-1 -1 $-1 $778 $772 $678 $736 forward $783 $-1 #
edge $-1 -1 $-1 $739 -0.10638012467544 $737 0 $678 $784 forward @7 unknown #
vertex $-1 -1 $-1 $679 $785 #
straight-curve $-1 -1 $-1 -3.1499999999999995 8.1633326527834207 -23.870000000000001 0 0 10 I I #
vertex $-1 -1 $-1 $680 $786 #
straight-curve $-1 -1 $-1 -3.149999999999999 9.2271338995378205 -23.870000000000001 0 0 10 I I #
plane-surface $-1 -1 $-1 -3.149999999999999 9.2271338995378205 -23.870000000000001 1 -5.2181882095569402e-016 0 0 0 -10 forward_v I I I I #
coedge $-1 -1 $-1 $685 $684 $787 $788 reversed $686 $-1 #
face $-1 -1 $-1 $690 $686 $2 $-1 $789 reversed single #
coedge $-1 -1 $-1 $696 $787 $688 $745 forward $755 $-1 #
edge $-1 -1 $-1 $746 -3.1415926535897931 $700 -2.2287542689843423 $688 $790 forward @7 unknown #
vertex $-1 -1 $-1 $689 $791 #
straight-curve $-1 -1 $-1 -3.1500000000000048 -9.2271338995378187 -23.870000000000001 0 0 10 I I #
face $-1 -1 $-1 $681 $755 $2 $-1 $792 reversed single #
cone-surface $-1 -1 $-1 0 0 -23.870000000000001 0 0 1 3.1500000000000048 9.2271338995378187 0 1 I I 0 1 9.75 forward I I I I #
coedge $-1 -1 $-1 $787 $696 $692 $751 forward $755 $-1 #
edge $-1 -1 $-1 $698 -0.83426053992161631 $752 0 $692 $793 forward @7 unknown #
vertex $-1 -1 $-1 $693 $794 #
straight-curve $-1 -1 $-1 -3.1500000000000044 -8.1633326527834189 -23.870000000000001 0 0 10 I I #
cone-surface $-1 -1 $-1 0 0 -23.870000000000001 0 0 1 -3.1500000000000044 -8.1633326527834189 0 1 I I 0 -1 8.75 forward I I I I #
loop $-1 -1 $-1 $-1 $696 $748 #
straight-curve $-1 -1 $-1 -8.1633326527834207 -3.1499999999999977 -22.869999999999997 10 -7.4386342588072525e-015 0 F -0.10638012467544 F 0 #
point $-1 -1 $-1 -8.1633326527834207 -3.1499999999999977 -22.869999999999997 #
point $-1 -1 $-1 -9.2271338995378223 -3.1499999999999968 -22.869999999999997 #
coedge $-1 -1 $-1 $704 $710 $703 $760 forward $714 $-1 #
edge $-1 -1 $-1 $712 -0.10638012467544 $706 0 $703 $795 forward @7 unknown #
ellipse-curve $-1 -1 $-1 0 0 -22.869999999999997 0 0 -1 -9.2271338995378187 3.1500000000000039 0 1 F -3.1415926535897931 F -2.2287542689843418 #
point $-1 -1 $-1 9.2271338995378187 -3.1500000000000039 -22.869999999999997 #
plane-surface $-1 -1 $-1 6.2772027414551772 -6.2772027414551808 -22.869999999999997 0 0 1 -10 1.2246063538223773e-015 0 forward_v I I I I #
ellipse-curve $-1 -1 $-1 0 0 -22.869999999999997 0 0 1 8.1633326527834189 -3.1500000000000039 0 1 F -0.8342605399216162 F 0 #
point $-1 -1 $-1 8.1633326527834189 -3.1500000000000039 -22.869999999999997 #
point $-1 -1 $-1 7.0000000000000009 8.5722444767566418e-016 25 #
face $-1 -1 $-1 $266 $796 $2 $-1 $797 reversed single #
loop $-1 -1 $-1 $663 $798 $721 #
cone-surface $-1 -1 $-1 0 0 -23.870000000000001 0 0 -1 5.375 0 0 1 I I 0 1 5.375 forward I I I I #
coedge $-1 -1 $-1 $724 $723 $799 $800 reversed $725 $-1 #
face $-1 -1 $-1 $729 $725 $2 $-1 $801 reversed single #
coedge $-1 -1 $-1 $735 $799 $727 $773 forward $783 $-1 #
edge $-1 -1 $-1 $774 -3.1415926535897931 $739 -2.2287542689843423 $727 $802 forward @7 unknown #
vertex $-1 -1 $-1 $728 $803 #
straight-curve $-1 -1 $-1 -9.2271338995378187 3.150000000000003 -23.870000000000001 0 0 10 I I #
face $-1 -1 $-1 $804 $783 $2 $-1 $805 reversed single #
cone-surface $-1 -1 $-1 0 0 -23.870000000000001 0 0 1 9.2271338995378187 -3.150000000000003 0 1 I I 0 1 9.75 forward I I I I #
coedge $-1 -1 $-1 $799 $735 $731 $779 forward $783 $-1 #
edge $-1 -1 $-1 $737 -0.83426053992161631 $780 0 $731 $806 forward @7 unknown #
vertex $-1 -1 $-1 $732 $807 #
straight-curve $-1 -1 $-1 -8.1633326527834189 3.150000000000003 -23.870000000000001 0 0 10 I I #
cone-surface $-1 -1 $-1 0 0 -23.870000000000001 0 0 1 -8.1633326527834189 3.150000000000003 0 1 I I 0 -1 8.75 forward I I I I #
loop $-1 -1 $-1 $-1 $735 $776 #
straight-curve $-1 -1 $-1 -3.1499999999999995 8.1633326527834207 -22.869999999999997 -5.2181882095569402e-015 -10 0 F -0.10638012467544 F 0 #
point $-1 -1 $-1 -3.1499999999999995 8.1633326527834207 -22.869999999999997 #
point $-1 -1 $-1 -3.149999999999999 9.2271338995378205 -22.869999999999997 #
coedge $-1 -1 $-1 $744 $750 $742 $788 forward $755 $-1 #
edge $-1 -1 $-1 $752 -0.10638012467544 $746 0 $742 $808 forward @7 unknown #
plane-surface $-1 -1 $-1 -3.1500000000000044 -8.1633326527834189 -23.870000000000001 1 -2.2204460492503131e-016 0 0 0 -10 forward_v I I I I #
ellipse-curve $-1 -1 $-1 0 0 -22.869999999999997 0 0 -1 3.1500000000000048 9.2271338995378187 0 1 F -3.1415926535897931 F -2.2287542689843418 #
point $-1 -1 $-1 -3.1500000000000048 -9.2271338995378187 -22.869999999999997 #
plane-surface $-1 -1 $-1 -6.2772027414551808 -6.2772027414551772 -22.869999999999997 0 0 1 2.2204460492503131e-015 10 0 forward_v I I I I #
ellipse-curve $-1 -1 $-1 0 0 -22.869999999999997 0 0 1 -3.1500000000000044 -8.1633326527834189 0 1 F -0.8342605399216162 F 0 #
point $-1 -1 $-1 -3.1500000000000044 -8.1633326527834189 -22.869999999999997 #
straight-curve $-1 -1 $-1 9.2271338995378187 -3.1500000000000039 -22.869999999999997 10 -1.2246063538223773e-015 0 F -0.10638012467544 F 0 #
loop $-1 -1 $-1 $809 $810 $767 #
plane-surface $-1 -1 $-1 0 0 -26.870000000000005 0 0 1 10 0 0 forward_v I I I I #
coedge $-1 -1 $-1 $798 $798 $811 $812 forward $768 $-1 #
coedge $-1 -1 $-1 $772 $778 $770 $800 forward $783 $-1 #
edge $-1 -1 $-1 $780 -0.10638012467544 $774 0 $770 $813 forward @7 unknown #
plane-surface $-1 -1 $-1 -8.1633326527834189 3.150000000000003 -23.870000000000001 0 -1 0 0 0 -10 forward_v I I I I #
ellipse-curve $-1 -1 $-1 0 0 -22.869999999999997 0 0 -1 9.2271338995378187 -3.150000000000003 0 1 F -3.1415926535897931 F -2.2287542689843418 #
point $-1 -1 $-1 -9.2271338995378187 3.150000000000003 -22.869999999999997 #
face $-1 -1 $-1 $814 $815 $2 $-1 $816 forward single #
plane-surface $-1 -1 $-1 -6.2772027414551781 6.2772027414551799 -22.869999999999997 0 0 1 10 0 0 forward_v I I I I #
ellipse-curve $-1 -1 $-1 0 0 -22.869999999999997 0 0 1 -8.1633326527834189 3.150000000000003 0 1 F -0.8342605399216162 F 0 #
point $-1 -1 $-1 -8.1633326527834189 3.150000000000003 -22.869999999999997 #
straight-curve $-1 -1 $-1 -3.1500000000000048 -9.2271338995378187 -22.869999999999997 -2.2204460492503131e-015 -10 0 F -0.10638012467544 F 0 #
loop $-1 -1 $-1 $-1 $811 $767 #
coedge $-1 -1 $-1 $810 $810 $817 $818 forward $796 $-1 #
coedge $-1 -1 $-1 $811 $811 $798 $812 reversed $809 $-1 #
edge $-1 -1 $-1 $819 -3.1415926535897931 $819 3.1415926535897931 $798 $820 forward @7 unknown #
straight-curve $-1 -1 $-1 -9.2271338995378187 3.150000000000003 -22.869999999999997 -10 0 0 F -0.10638012467544 F 0 #
face $-1 -1 $-1 $821 $822 $2 $-1 $823 reversed single #
loop $-1 -1 $-1 $824 $825 $804 #
cone-surface $-1 -1 $-1 0 0 -26.07 0 0 -1 1.6000000000000003 0 0 1 I I 0 1 1.6000000000000003 forward I I I I #
coedge $-1 -1 $-1 $817 $817 $810 $818 reversed $826 $-1 #
edge $-1 -1 $-1 $827 -3.1415926535897931 $827 3.1415926535897931 $810 $828 forward @7 unknown #
vertex $-1 -1 $-1 $812 $829 #
ellipse-curve $-1 -1 $-1 0 0 -26.870000000000005 0 0 1 5.375 0 0 1 I I #
face $-1 -1 $-1 $830 $831 $2 $-1 $832 reversed single #
loop $-1 -1 $-1 $-1 $833 $814 #
plane-surface $-1 -1 $-1 0 0 -27.070000000000004 0 0 1 10 0 0 forward_v I I I I #
loop $-1 -1 $-1 $-1 $834 $804 #
coedge $-1 -1 $-1 $825 $825 $833 $835 forward $815 $-1 #
loop $-1 -1 $-1 $-1 $817 $821 #
vertex $-1 -1 $-1 $818 $836 #
ellipse-curve $-1 -1 $-1 0 0 -26.870000000000005 0 0 1 3.4500000000000002 0 0 1 I I #
point $-1 -1 $-1 -5.375 6.5822591517952768e-016 -26.870000000000005 #
face $-1 -1 $-1 $721 $837 $2 $-1 $838 reversed single #
loop $-1 -1 $-1 $826 $839 $821 #
cone-surface $-1 -1 $-1 0 0 -26.870000000000005 0 0 1 3.4500000000000002 0 0 1 I I 0 1 3.4500000000000002 forward I I I I #
coedge $-1 -1 $-1 $833 $833 $825 $835 reversed $822 $-1 #
coedge $-1 -1 $-1 $834 $834 $840 $841 reversed $824 $-1 #
edge $-1 -1 $-1 $842 -3.1415926535897931 $842 3.1415926535897931 $825 $843 forward @7 unknown #
point $-1 -1 $-1 -3.4500000000000002 4.2248919206872016e-016 -26.870000000000005 #
loop $-1 -1 $-1 $844 $840 $830 #
plane-surface $-1 -1 $-1 0 0 -26.07 0 0 1 10 0 0 forward_v I I I I #
coedge $-1 -1 $-1 $839 $839 $845 $846 reversed $831 $-1 #
coedge $-1 -1 $-1 $840 $840 $834 $841 forward $837 $-1 #
edge $-1 -1 $-1 $847 -3.1415926535897931 $847 3.1415926535897931 $840 $848 forward @7 unknown #
vertex $-1 -1 $-1 $835 $849 #
ellipse-curve $-1 -1 $-1 0 0 -27.070000000000004 0 0 1 1.6000000000000003 0 0 1 I I #
loop $-1 -1 $-1 $-1 $845 $830 #
coedge $-1 -1 $-1 $845 $845 $839 $846 forward $844 $-1 #
edge $-1 -1 $-1 $850 -3.1415926535897931 $850 3.1415926535897931 $839 $851 forward @7 unknown #
vertex $-1 -1 $-1 $841 $852 #
ellipse-curve $-1 -1 $-1 0 0 -26.07 0 0 1 1.6000000000000003 0 0 1 I I #
point $-1 -1 $-1 -1.6000000000000003 1.9593701661158039e-016 -27.070000000000004 #
vertex $-1 -1 $-1 $846 $853 #
ellipse-curve $-1 -1 $-1 0 0 -26.07 0 0 -1 3.4500000000000002 0 0 1 I I #
point $-1 -1 $-1 -1.6000000000000003 1.9593701661158039e-016 -26.07 #
point $-1 -1 $-1 -3.4500000000000002 4.2248919206872016e-016 -26.07 #
End-of-ACIS-data 