400 595 2 0         
7 Unknown 13 ACIS 4.0.2 NT 24 Tue Jan 15 17:17:42 2002 
-1 9.9999999999999995e-007 1e-010 
body $2 $3 $-1 $-1 #
body $4 $5 $-1 $-1 #
ref_vt-eye-attrib $-1 $-1 $-1 $0 $6 $7 #
lump $8 $-1 $9 $0 #
ref_vt-eye-attrib $-1 $-1 $-1 $1 $6 $7 #
lump $10 $-1 $11 $1 #
eye_refinement $-1 5 grid  1 3 tri 2 4 surf 0 3 adj 0 4 grad 0 9 postcheck 0 4 stol 0.0042857774533331394 4 ntol 30 4 dsil 0 8 flatness 0 7 pixarea 0 4 hmax 0 6 gridar 0 5 mgrid 300 5 ugrid 0 5 vgrid 0 10 end_fields #
vertex_template $-1 3 0 1 8 #
ref_vt-eye-attrib $-1 $-1 $-1 $3 $6 $7 #
shell $12 $-1 $-1 $13 $-1 $3 #
ref_vt-eye-attrib $-1 $-1 $-1 $5 $6 $7 #
shell $14 $-1 $-1 $15 $-1 $5 #
ref_vt-eye-attrib $-1 $-1 $-1 $9 $6 $7 #
face $16 $17 $18 $9 $-1 $19 forward single #
ref_vt-eye-attrib $-1 $-1 $-1 $11 $6 $7 #
face $20 $21 $22 $11 $-1 $23 reversed single #
color-adesk-attrib $-1 $24 $-1 $13 256 #
face $25 $26 $27 $9 $-1 $28 forward single #
loop $-1 $29 $30 $13 #
cone-surface $-1 0 0 0.60300000000000031 0 0 1 0.3125 0 0 1 I I 0 1 0.3125 forward I I I I #
color-adesk-attrib $-1 $31 $-1 $15 256 #
face $32 $33 $34 $11 $-1 $35 reversed single #
loop $-1 $36 $37 $15 #
cone-surface $-1 0 0.5 0.32200000000000029 6.1230317691118863e-017 1 0 -0.079000000000000001 4.8371950975983905e-018 0 1 I I 0 1 0.079000000000000001 forward I I I I #
fmesh-eye-attrib $-1 $38 $16 $13 #
color-adesk-attrib $-1 $39 $-1 $17 256 #
face $40 $-1 $41 $9 $-1 $42 forward single #
loop $-1 $-1 $43 $17 #
plane-surface $-1 0 0 0.59800000000000031 0 0 -1 -1 0 0 forward_v I I I I #
loop $-1 $-1 $44 $13 #
coedge $-1 $30 $30 $43 $45 reversed $18 $-1 #
fmesh-eye-attrib $-1 $46 $20 $15 #
color-adesk-attrib $-1 $47 $-1 $21 256 #
face $48 $49 $50 $11 $-1 $51 reversed single #
loop $-1 $52 $53 $21 #
cone-surface $-1 0 0 0.050000000000000003 0 0 1 0.42950000000000005 0 0 1 I I 0 1 0.42950000000000005 forward I I I I #
loop $-1 $-1 $54 $15 #
coedge $-1 $37 $37 $55 $56 reversed $22 $-1 #
ref_vt-eye-attrib $-1 $-1 $24 $13 $6 $7 #
fmesh-eye-attrib $-1 $57 $25 $17 #
color-adesk-attrib $-1 $58 $-1 $26 256 #
loop $-1 $-1 $59 $26 #
plane-surface $-1 0 0 0.60800000000000032 0 0 1 1 0 0 forward_v I I I I #
coedge $-1 $43 $43 $30 $45 forward $27 $-1 #
coedge $-1 $44 $44 $59 $60 reversed $29 $-1 #
edge $61 $62 $62 $43 $63 forward #
ref_vt-eye-attrib $-1 $-1 $31 $15 $6 $7 #
fmesh-eye-attrib $-1 $64 $32 $21 #
color-adesk-attrib $-1 $65 $-1 $33 256 #
face $66 $67 $68 $11 $-1 $69 reversed single #
loop $-1 $70 $71 $33 #
plane-surface $-1 0 0 0.10000000000000001 0 0 1 1 0 0 forward_v I I I I #
loop $-1 $-1 $72 $21 #
coedge $-1 $53 $53 $73 $74 reversed $34 $-1 #
coedge $-1 $54 $54 $75 $76 reversed $36 $-1 #
coedge $-1 $55 $55 $37 $56 forward $68 $-1 #
edge $77 $78 $78 $55 $79 forward #
ref_vt-eye-attrib $-1 $-1 $39 $17 $6 $7 #
fmesh-eye-attrib $-1 $80 $40 $26 #
coedge $-1 $59 $59 $44 $60 forward $41 $-1 #
edge $81 $82 $82 $59 $83 forward #
color-adesk-attrib $-1 $84 $-1 $45 256 #
vertex $-1 $45 $85 #
ellipse-curve $-1 0 0 0.59800000000000031 0 0 -1 0.3125 0 0 1 I I #
ref_vt-eye-attrib $-1 $-1 $47 $21 $6 $7 #
fmesh-eye-attrib $-1 $86 $48 $33 #
color-adesk-attrib $-1 $87 $-1 $49 256 #
face $88 $89 $90 $11 $-1 $91 reversed single #
loop $-1 $92 $55 $49 #
cone-surface $-1 0 0 0.25 0 0 1 0.125 0 0 1 I I 0 1 0.125 forward I I I I #
loop $-1 $-1 $93 $33 #
coedge $-1 $71 $71 $94 $95 reversed $50 $-1 #
coedge $-1 $72 $72 $93 $96 forward $52 $-1 #
coedge $-1 $73 $73 $53 $74 forward $97 $-1 #
edge $98 $99 $99 $73 $100 forward #
coedge $-1 $75 $75 $54 $76 forward $101 $-1 #
edge $102 $103 $103 $75 $104 forward #
color-adesk-attrib $-1 $105 $-1 $56 256 #
vertex $-1 $56 $106 #
intcurve-curve $-1 forward { surfintcur nubs 3 periodic 17 
	0 3 0.03096267789346354 2 0.06192535578692708 2 0.092629219400206936 2 0.12333308301348678 2 
	0.15403694662676631 2 0.18474081024004582 2 0.21570348813351045 2 0.24666616602697508 2 0.27762884392043907 2 
	0.30859152181390304 2 0.33929538542718274 2 0.3699992490404625 2 0.40070311265374214 2 0.43140697626702179 2 
	0.46236965416048592 2 0.49333233205395011 3 
	-0.078999999999999737 0.096871048306498952 0.32200000000000029 
	-0.078999999999999737 0.096871048306498952 0.33232089263115483 
	-0.07687550917754038 0.098692248693428297 0.34299727359616061 
	-0.068746741464627448 0.10451739703729768 0.3623065608511617 
	-0.062742718716222612 0.10838597703135067 0.37098015271125218 
	-0.049037672745959604 0.11523233218944151 0.38468519868151541 
	-0.040349705109346878 0.11873053580632797 0.39072836936920985 
	-0.020956609725409692 0.12363599604446707 0.39889283705822837 
	-0.010234621204427086 0.125 0.40100000000000019 
	0.010234621204425309 0.125 0.40100000000000041 
	0.020956609725407915 0.12363599604446662 0.39889283705822881 
	0.040349705109345102 0.11873053580632797 0.39072836936921079 
	0.049037672745957828 0.1152323321894424 0.3846851986815164 
	0.062742718716220836 0.10838597703135155 0.37098015271125329 
	0.068746741464625671 0.10451739703729768 0.3623065608511632 
	0.076875509177538603 0.098692248693428297 0.34299727359616183 
	0.078999999999999737 0.096871048306498952 0.33232089263115516 
	0.078999999999999737 0.096871048306498952 0.31167910736884563 
	0.07687550917754038 0.098692248693428297 0.30100272640383968 
	0.068746741464627448 0.10451739703729768 0.28169343914883854 
	0.062742718716222612 0.10838597703135111 0.27301984728874806 
	0.049037672745958716 0.11523233218944195 0.25931480131848483 
	0.04034970510934599 0.11873053580632842 0.25327163063079045 
	0.020956609725409692 0.12363599604446707 0.24510716294177223 
	0.010234621204427086 0.125 0.24300000000000027 
	-0.010234621204427086 0.125 0.24300000000000027 
	-0.020956609725409692 0.12363599604446707 0.24510716294177226 
	-0.04034970510934599 0.11873053580632842 0.25327163063079039 
	-0.049037672745958716 0.11523233218944195 0.2593148013184845 
	-0.062742718716222612 0.10838597703135111 0.27301984728874773 
	-0.068746741464627448 0.10451739703729768 0.28169343914883826 
	-0.07687550917754038 0.098692248693428297 0.30100272640383957 
	-0.078999999999999737 0.096871048306498952 0.31167910736884558 
	-0.078999999999999737 0.096871048306498952 0.32200000000000029 
	0.00013219442048980419 
	cone 0 0.5 0.32200000000000029 6.1230317691118863e-017 1 0 -0.079000000000000001 4.8371950975983905e-018 0 1 I I 0 1 0.079000000000000001 forward I I I I 
	cone 0 0 0.25 0 0 1 0.125 0 0 1 I I 0 -1 0.125 forward I I I I 
	nullbs 
	nullbs 
	I I 
	0 
	0 
	0 
	} I I #
ref_vt-eye-attrib $-1 $-1 $58 $26 $6 $7 #
color-adesk-attrib $-1 $107 $-1 $60 256 #
vertex $-1 $60 $108 #
ellipse-curve $-1 0 0 0.60800000000000032 0 0 1 0.3125 0 0 1 I I #
ptlist-eye-attrib $-1 $-1 $61 $45 #
point $-1 0.3125 0 0.59800000000000031 #
ref_vt-eye-attrib $-1 $-1 $65 $33 $6 $7 #
fmesh-eye-attrib $-1 $109 $66 $49 #
color-adesk-attrib $-1 $110 $-1 $67 256 #
face $111 $112 $113 $11 $-1 $114 forward single #
loop $-1 $-1 $115 $67 #
plane-surface $-1 0 0 0.5 0 0 1 1 0 0 forward_v I I I I #
loop $-1 $116 $94 $49 #
coedge $-1 $93 $93 $72 $96 reversed $70 $-1 #
coedge $-1 $94 $94 $71 $95 forward $92 $-1 #
edge $117 $118 $118 $94 $119 forward #
edge $120 $121 $121 $93 $122 forward #
loop $-1 $123 $73 $112 #
color-adesk-attrib $-1 $124 $-1 $74 256 #
vertex $-1 $74 $125 #
ellipse-curve $-1 0 0 0 -1.8369095307335659e-016 0 1 0.42950000000000005 0 0 1 I I #
loop $-1 $126 $75 $127 #
color-adesk-attrib $-1 $128 $-1 $76 256 #
vertex $-1 $76 $129 #
intcurve-curve $-1 forward { surfintcur nubs 3 periodic 17 
	0 3 0.030425836116437295 2 0.06085167223287459 2 0.091190354921751343 2 0.12152903761062808 2 
	0.1518677202995049 2 0.1822064029883817 2 0.21263223910481885 2 0.243058075221256 2 0.27348391133769367 2 
	0.30390974745413141 2 0.33424843014300809 2 0.36458711283188477 2 0.39492579552076168 2 0.42526447820963864 2 
	0.45569031432607532 2 0.48611615044251205 3 
	-0.078999999999999737 0.44643454853076658 0.32200000000000029 
	-0.078999999999999737 0.44643454853076658 0.31185805462785454 
	-0.076934907508150019 0.44516871653522694 0.30120491216779216 
	-0.068824130239629966 0.44089364965176125 0.28181719909491271 
	-0.062783919940793353 0.43797237647638898 0.27306104851331869 
	-0.048958780628773013 0.43268185917654112 0.25923590920129913 
	-0.040196000944724197 0.42993304989261327 0.25318118324917355 
	-0.020779088383168443 0.42607145359536069 0.24505860790953951 
	-0.010112894229625802 0.42499999999999982 0.24300000000000027 
	0.010112894229625802 0.42499999999999982 0.24300000000000027 
	0.020779088383168443 0.42607145359536069 0.24505860790953948 
	0.040196000944724197 0.42993304989261327 0.25318118324917355 
	0.048958780628773013 0.43268185917654112 0.25923590920129946 
	0.062783919940793353 0.43797237647638898 0.27306104851331903 
	0.068824130239629966 0.44089364965176125 0.28181719909491282 
	0.076934907508150019 0.44516871653522694 0.30120491216779227 
	0.078999999999999737 0.44643454853076658 0.31185805462785454 
	0.078999999999999737 0.44643454853076658 0.3321419453721462 
	0.076934907508150019 0.44516871653522649 0.34279508783220874 
	0.068824130239629966 0.44089364965176081 0.36218280090508864 
	0.062783919940792465 0.43797237647638898 0.37093895148668232 
	0.048958780628773013 0.43268185917654112 0.38476409079870177 
	0.040196000944722421 0.42993304989261283 0.39081881675082786 
	0.020779088383165778 0.42607145359535981 0.39894139209046175 
	0.010112894229624914 0.42499999999999982 0.40100000000000047 
	-0.01011289422962669 0.42499999999999982 0.40100000000000025 
	-0.020779088383167554 0.42607145359536069 0.39894139209046137 
	-0.040196000944724197 0.42993304989261372 0.39081881675082691 
	-0.04895878062877479 0.43268185917654201 0.38476409079870083 
	-0.062783919940793353 0.43797237647638942 0.37093895148668116 
	-0.068824130239629078 0.44089364965176081 0.36218280090508737 
	-0.076934907508149131 0.44516871653522649 0.34279508783220802 
	-0.078999999999999737 0.44643454853076658 0.33214194537214586 
	-0.078999999999999737 0.44643454853076658 0.32200000000000029 
	0.00012695082930628816 
	cone 0 0.5 0.32200000000000029 6.1230317691118863e-017 1 0 -0.079000000000000001 4.8371950975983905e-018 0 1 I I 0 1 0.079000000000000001 forward I I I I 
	cone 0 0.58129999999999971 0.15000000000000036 0 0 1 0.15629999999999999 0 0 1 I I 0 -1 0.15629999999999999 forward I I I I 
	nullbs 
	nullbs 
	I I 
	0 
	0 
	0 
	} I I #
ptlist-eye-attrib $-1 $-1 $77 $56 #
point $-1 -0.078999999999999737 0.096871048306498952 0.32200000000000029 #
ptlist-eye-attrib $-1 $-1 $81 $60 #
point $-1 0.3125 0 0.60800000000000032 #
ref_vt-eye-attrib $-1 $-1 $87 $49 $6 $7 #
fmesh-eye-attrib $-1 $130 $88 $67 #
color-adesk-attrib $-1 $131 $-1 $89 256 #
face $132 $133 $97 $11 $-1 $134 forward single #
loop $-1 $135 $136 $89 #
torus-surface $-1 0 0 0.088940752847004312 -1.8369095307335659e-016 0 1 0.50500000000000034 0.024999999999999568 1 0 1.8369095307335659e-016 forward_v I I I I #
coedge $-1 $115 $115 $137 $138 reversed $90 $-1 #
loop $-1 $-1 $137 $49 #
color-adesk-attrib $-1 $139 $-1 $95 256 #
vertex $-1 $95 $140 #
ellipse-curve $-1 0 0 0.10000000000000001 0 0 -1 0.125 0 0 1 I I #
color-adesk-attrib $-1 $141 $-1 $96 256 #
vertex $-1 $96 $142 #
ellipse-curve $-1 0 0 0.10000000000000001 0 0 1 0.42950000000000005 0 0 1 I I #
loop $-1 $-1 $143 $112 #
ptlist-eye-attrib $-1 $-1 $98 $74 #
point $-1 0.42949999999999999 0 0 #
loop $-1 $-1 $144 $127 #
face $145 $146 $101 $11 $-1 $147 reversed single #
ptlist-eye-attrib $-1 $-1 $102 $76 #
point $-1 -0.078999999999999737 0.44643454853076658 0.32200000000000029 #
ref_vt-eye-attrib $-1 $-1 $110 $67 $6 $7 #
fmesh-eye-attrib $-1 $148 $111 $89 #
color-adesk-attrib $-1 $149 $-1 $112 256 #
face $150 $151 $152 $11 $-1 $153 forward single #
plane-surface $-1 0 0.26500000000000012 0 1.8369095307335659e-016 0 -1 -1 0 -1.8369095307335659e-016 forward_v I I I I #
loop $-1 $-1 $154 $89 #
coedge $-1 $136 $136 $155 $156 reversed $113 $-1 #
coedge $-1 $137 $137 $115 $138 forward $116 $-1 #
edge $157 $158 $158 $115 $159 forward #
ptlist-eye-attrib $-1 $-1 $117 $95 #
point $-1 -0.125 -8.8817841970012523e-016 0.10000000000000001 #
ptlist-eye-attrib $-1 $-1 $120 $96 #
point $-1 0.42949999999999999 0 0.10000000000000001 #
coedge $-1 $143 $143 $160 $161 reversed $123 $-1 #
coedge $-1 $162 $163 $164 $165 reversed $126 $-1 #
color-adesk-attrib $-1 $166 $-1 $127 256 #
face $167 $168 $169 $11 $-1 $170 reversed single #
cone-surface $-1 0 0.58129999999999971 0.15000000000000036 0 0 1 0.15629999999999999 0 0 1 I I 0 1 0.15629999999999999 forward I I I I #
ref_vt-eye-attrib $-1 $-1 $131 $89 $6 $7 #
fmesh-eye-attrib $-1 $171 $132 $112 #
color-adesk-attrib $-1 $172 $-1 $133 256 #
face $173 $174 $175 $11 $-1 $176 forward single #
loop $-1 $177 $178 $133 #
cone-surface $-1 0 0 0.0444703764235026 -1.8369095307335659e-016 0 1 0 0.52999999999999936 0 1 I I 0 1 0.52999999999999936 forward I I I I #
coedge $-1 $154 $154 $178 $179 forward $135 $-1 #
coedge $-1 $155 $155 $136 $156 forward $180 $-1 #
edge $181 $182 $182 $155 $183 forward #
color-adesk-attrib $-1 $184 $-1 $138 256 #
vertex $-1 $138 $185 #
ellipse-curve $-1 0 0 0.5 0 0 1 0.125 0 0 1 I I #
coedge $-1 $160 $160 $143 $161 forward $177 $-1 #
edge $186 $187 $187 $160 $188 forward #
coedge $-1 $189 $144 $190 $191 reversed $126 $-1 #
coedge $-1 $144 $189 $192 $193 reversed $126 $-1 #
coedge $-1 $194 $195 $144 $165 forward $175 $-1 #
edge $196 $197 $198 $144 $199 forward #
fmesh-eye-attrib $-1 $200 $145 $127 #
color-adesk-attrib $-1 $201 $-1 $146 256 #
face $202 $203 $204 $11 $-1 $205 reversed single #
loop $-1 $-1 $206 $146 #
plane-surface $-1 0 0 0.59800000000000031 0 0 -1 -1 0 0 forward_v I I I I #
ref_vt-eye-attrib $-1 $-1 $149 $112 $6 $7 #
fmesh-eye-attrib $-1 $207 $150 $133 #
color-adesk-attrib $-1 $208 $-1 $151 256 #
face $209 $210 $211 $11 $-1 $212 reversed single #
loop $-1 $180 $164 $151 #
cone-surface $-1 0 0 0.20000000000000018 -1.8369095307335659e-016 0 1 0 0.41999999999999993 0 1 I I -0.73994007339594725 0.67267279399630853 0.41999999999999993 forward I I I I #
loop $-1 $-1 $160 $133 #
coedge $-1 $178 $178 $154 $179 reversed $152 $-1 #
edge $213 $214 $214 $154 $215 forward #
loop $-1 $-1 $155 $151 #
color-adesk-attrib $-1 $216 $-1 $156 256 #
vertex $-1 $156 $217 #
ellipse-curve $-1 0 0 0.10743925468190252 -1.8369095307335659e-016 0 1 0 0.52181681984990735 0 1 I I #
ptlist-eye-attrib $-1 $-1 $157 $138 #
point $-1 0.125 0 0.5 #
color-adesk-attrib $-1 $218 $-1 $161 256 #
vertex $-1 $161 $219 #
ellipse-curve $-1 0 0 0 -1.8369095307335659e-016 0 1 0 0.53000000000000025 0 1 I I #
coedge $-1 $163 $162 $220 $221 reversed $126 $-1 #
coedge $-1 $222 $223 $162 $191 forward $224 $-1 #
edge $225 $226 $197 $190 $227 forward #
coedge $-1 $228 $229 $163 $193 forward $230 $-1 #
edge $231 $198 $232 $192 $233 forward #
coedge $-1 $234 $164 $229 $235 reversed $175 $-1 #
coedge $-1 $164 $236 $222 $237 reversed $175 $-1 #
color-adesk-attrib $-1 $238 $-1 $165 256 #
vertex $-1 $237 $239 #
vertex $-1 $165 $240 #
intcurve-curve $-1 forward { surfintcur nubs 3 open 7 
	0.76596983377317951 3 0.79026327367165738 2 0.83758531960679949 2 0.88490736554194149 2 0.93222941147708371 2 
	0.97955145741222593 2 1.003844897310699 3 
	-0.10296321174049972 0.46370634784104592 0.15000000000000036 
	-0.097840799794748357 0.45922124191815561 0.15498984128799315 
	-0.092408287421326563 0.4550581768964439 0.15970856822378726 
	-0.075666874551210128 0.44389172668161514 0.1725498954898784 
	-0.062106262922737798 0.43701310401250604 0.18075403167998594 
	-0.032185957600153969 0.42754707121759816 0.19225786935503592 
	-0.015774015311712297 0.42499999999999982 0.19545454545454599 
	0.01577401531171585 0.42499999999999982 0.19545454545454555 
	0.032185957600157522 0.42754707121759905 0.19225786935503542 
	0.062106262922740463 0.43701310401250693 0.18075403167998502 
	0.075666874551211905 0.44389172668161825 0.17254989548987537 
	0.092408287421327451 0.45505817689644701 0.15970856822378482 
	0.097840799794750133 0.4592212419181565 0.15498984128799193 
	0.10296321174049972 0.46370634784104592 0.15000000000000036 
	0.00014868861483889443 
	cone 0 0.58129999999999971 0.15000000000000036 0 0 1 0.15629999999999999 0 0 1 I I 0 -1 0.15629999999999999 forward I I I I 
	cone 0 0 0.20000000000000018 -1.8369095307335659e-016 0 1 0 0.41999999999999993 0 1 I I -0.73994007339594725 0.67267279399630853 0.41999999999999993 forward I I I I 
	nullbs 
	nullbs 
	I I 
	0 
	0 
	0 
	} I I #
ref_vt-eye-attrib $-1 $-1 $166 $127 $6 $7 #
fmesh-eye-attrib $-1 $241 $167 $146 #
color-adesk-attrib $-1 $242 $-1 $168 256 #
face $243 $244 $245 $11 $-1 $246 reversed single #
loop $-1 $247 $248 $168 #
cone-surface $-1 0 0 0.61300000000000032 0 0 1 0.3125 0 0 1 I I 0 1 0.3125 forward I I I I #
coedge $-1 $206 $206 $248 $249 reversed $169 $-1 #
ref_vt-eye-attrib $-1 $-1 $172 $133 $6 $7 #
fmesh-eye-attrib $-1 $250 $173 $151 #
color-adesk-attrib $-1 $251 $-1 $174 256 #
face $252 $253 $254 $11 $-1 $255 reversed single #
loop $-1 $-1 $256 $174 #
cone-surface $-1 0.25221661754903302 -0.5237332029116768 0.15000000000000036 0 0 1 0.15629999999999999 0 0 1 I I 0 1 0.15629999999999999 forward I I I I #
color-adesk-attrib $-1 $257 $-1 $179 256 #
vertex $-1 $179 $258 #
ellipse-curve $-1 0 0 0.088940752847004312 -1.8369095307335659e-016 0 1 0 0.52999999999999936 0 1 I I #
ptlist-eye-attrib $-1 $-1 $181 $156 #
point $-1 0 0.52181681984990735 0.10743925468190252 #
ptlist-eye-attrib $-1 $-1 $186 $161 #
point $-1 0 0.53000000000000025 0 #
coedge $-1 $259 $260 $189 $221 forward $261 $-1 #
edge $262 $232 $226 $220 $263 forward #
coedge $-1 $264 $190 $195 $237 forward $224 $-1 #
coedge $-1 $190 $264 $259 $265 forward $224 $-1 #
loop $-1 $-1 $264 $266 #
color-adesk-attrib $-1 $267 $-1 $191 256 #
vertex $-1 $191 $268 #
straight-curve $-1 -0.10296321174049972 0.46370634784104592 0.15000000000000036 0 0 -1 I I #
coedge $-1 $269 $192 $260 $270 forward $230 $-1 #
coedge $-1 $192 $269 $194 $235 forward $230 $-1 #
loop $-1 $-1 $269 $271 #
color-adesk-attrib $-1 $272 $-1 $193 256 #
vertex $-1 $270 $273 #
straight-curve $-1 0.10296321174049972 0.46370634784104592 0.15000000000000036 0 0 1 I I #
coedge $-1 $274 $194 $275 $276 forward $175 $-1 #
edge $277 $278 $198 $229 $279 forward #
coedge $-1 $195 $280 $281 $282 forward $175 $-1 #
edge $283 $197 $284 $222 $279 forward #
ptlist-eye-attrib $-1 $-1 $196 $165 #
point $-1 -0.10296321174049972 0.46370634784104592 0.15000000000000036 #
point $-1 0.10296321174049972 0.46370634784104592 0.15000000000000036 #
ref_vt-eye-attrib $-1 $-1 $201 $146 $6 $7 #
fmesh-eye-attrib $-1 $285 $202 $168 #
color-adesk-attrib $-1 $286 $-1 $203 256 #
face $287 $288 $289 $11 $-1 $290 reversed single #
loop $-1 $-1 $291 $203 #
cone-surface $-1 -0.25221661754903479 -0.52373320291167413 0.15000000000000036 0 0 1 0.15629999999999999 0 0 1 I I 0 1 0.15629999999999999 forward I I I I #
loop $-1 $-1 $292 $168 #
coedge $-1 $248 $248 $206 $249 forward $204 $-1 #
edge $293 $294 $294 $206 $295 forward #
ref_vt-eye-attrib $-1 $-1 $208 $151 $6 $7 #
fmesh-eye-attrib $-1 $296 $209 $174 #
color-adesk-attrib $-1 $297 $-1 $210 256 #
face $298 $127 $299 $11 $-1 $300 reversed single #
loop $-1 $-1 $301 $210 #
cone-surface $-1 0.56672559535129352 -0.12935141890880475 0.15000000000000036 0 0 1 0.15629999999999999 0 0 1 I I 0 1 0.15629999999999999 forward I I I I #
coedge $-1 $302 $303 $304 $305 reversed $211 $-1 #
ptlist-eye-attrib $-1 $-1 $213 $179 #
point $-1 0 0.52999999999999936 0.088940752847004312 #
coedge $-1 $306 $220 $223 $265 reversed $261 $-1 #
coedge $-1 $220 $307 $228 $270 reversed $261 $-1 #
loop $-1 $-1 $307 $308 #
color-adesk-attrib $-1 $309 $-1 $221 256 #
ellipse-curve $-1 0 0.58129999999999971 0.61800000000000033 0 0 -1 0.15629999999999999 0 0 1 I I #
coedge $-1 $223 $222 $310 $311 forward $224 $-1 #
edge $312 $313 $226 $223 $314 forward #
face $315 $316 $224 $11 $-1 $317 forward single #
ptlist-eye-attrib $-1 $-1 $225 $191 #
point $-1 -0.10296321174049972 0.46370634784104592 0.61800000000000033 #
coedge $-1 $229 $228 $318 $319 forward $230 $-1 #
edge $320 $232 $321 $228 $314 forward #
face $322 $308 $230 $11 $-1 $317 forward single #
ptlist-eye-attrib $-1 $-1 $231 $193 #
point $-1 0.10296321174049972 0.46370634784104592 0.61800000000000033 #
coedge $-1 $323 $234 $324 $325 reversed $175 $-1 #
coedge $-1 $318 $326 $234 $276 reversed $299 $-1 #
edge $327 $278 $328 $275 $329 forward #
color-adesk-attrib $-1 $330 $-1 $235 256 #
vertex $-1 $235 $331 #
ellipse-curve $-1 0 0 0.15000000000000036 0 0 1 0.47499999999999998 0 0 1 I I #
coedge $-1 $236 $332 $333 $334 reversed $175 $-1 #
coedge $-1 $335 $310 $236 $282 reversed $336 $-1 #
edge $337 $338 $284 $281 $339 forward #
color-adesk-attrib $-1 $340 $-1 $237 256 #
vertex $-1 $311 $341 #
ref_vt-eye-attrib $-1 $-1 $242 $168 $6 $7 #
fmesh-eye-attrib $-1 $342 $243 $203 #
color-adesk-attrib $-1 $343 $-1 $244 256 #
face $344 $266 $336 $11 $-1 $345 reversed single #
loop $-1 $-1 $346 $244 #
cone-surface $-1 -0.56672559535129619 -0.12935141890880608 0.15000000000000036 0 0 1 0.15629999999999999 0 0 1 I I 0 1 0.15629999999999999 forward I I I I #
coedge $-1 $347 $348 $349 $350 reversed $245 $-1 #
coedge $-1 $292 $292 $351 $352 reversed $247 $-1 #
color-adesk-attrib $-1 $353 $-1 $249 256 #
vertex $-1 $249 $354 #
ellipse-curve $-1 0 0 0.59800000000000031 0 0 -1 0.3125 0 0 1 I I #
ref_vt-eye-attrib $-1 $-1 $251 $174 $6 $7 #
fmesh-eye-attrib $-1 $355 $252 $210 #
color-adesk-attrib $-1 $356 $-1 $253 256 #
loop $-1 $-1 $275 $253 #
cone-surface $-1 0.45447864075866562 0.36243462182048081 0.15000000000000036 0 0 1 0.15629999999999999 0 0 1 I I 0 1 0.15629999999999999 forward I I I I #
coedge $-1 $357 $358 $323 $359 reversed $254 $-1 #
coedge $-1 $360 $256 $361 $362 reversed $211 $-1 #
coedge $-1 $256 $360 $363 $364 reversed $211 $-1 #
coedge $-1 $365 $366 $256 $305 forward $175 $-1 #
edge $367 $368 $369 $256 $370 forward #
coedge $-1 $371 $259 $372 $373 forward $261 $-1 #
coedge $-1 $260 $374 $375 $376 forward $261 $-1 #
face $377 $-1 $378 $11 $-1 $379 forward single #
ptlist-eye-attrib $-1 $-1 $262 $221 #
coedge $-1 $281 $372 $264 $311 reversed $336 $-1 #
edge $380 $284 $313 $264 $381 forward #
color-adesk-attrib $-1 $382 $-1 $265 256 #
vertex $-1 $265 $383 #
ellipse-curve $-1 0 0 0.61800000000000033 0 0 -1 0.47499999999999998 0 0 1 I I #
color-adesk-attrib $-1 $384 $-1 $266 256 #
face $385 $386 $387 $11 $-1 $317 forward single #
cone-surface $-1 0 0 0.15000000000000036 0 0 1 0.47499999999999998 0 0 1 I I 0 1 0.47499999999999998 forward I I I I #
coedge $-1 $375 $275 $269 $319 reversed $299 $-1 #
edge $388 $321 $278 $269 $389 forward #
color-adesk-attrib $-1 $390 $-1 $270 256 #
vertex $-1 $376 $391 #
color-adesk-attrib $-1 $392 $-1 $271 256 #
coedge $-1 $366 $274 $301 $359 forward $175 $-1 #
coedge $-1 $393 $394 $274 $325 forward $395 $-1 #
edge $396 $397 $328 $324 $279 forward #
coedge $-1 $275 $375 $393 $398 reversed $299 $-1 #
color-adesk-attrib $-1 $399 $-1 $276 256 #
vertex $-1 $398 $400 #
intcurve-curve $-1 forward { surfintcur nubs 3 open 7 
	0.76596983377317873 3 0.79026327367165528 2 0.83758531960679794 2 0.8849073655419406 2 0.93222941147708349 2 
	0.97955145741222638 2 1.0038448973106993 3 
	0.29834370887557782 0.36961605941079512 0.15000000000000036 
	0.29803088347195317 0.36281477868225886 0.15498984128799267 
	0.29816318423771904 0.35597184089430822 0.15970856822378637 
	0.29987100210557749 0.33592070941954688 0.17254989548987748 
	0.30294798140416823 0.32102984524186073 0.18075403167998605 
	0.31420214418816528 0.29173523366392384 0.19225786935503603 
	0.32244344236769606 0.27731578756559117 0.19545454545454688 
	0.34211331773012965 0.25265054401432874 0.19545454545454666 
	0.35433737684167532 0.24140724377355749 0.19225786935503583 
	0.38039322453193947 0.22391658201899123 0.18075403167998513 
	0.39422605134798694 0.2176032200113549 0.17254989548987668 
	0.4133944338665767 0.21147642420041191 0.15970856822378607 
	0.42003636522740972 0.20982474358348568 0.15498984128799206 
	0.42673673384922317 0.20861629846130558 0.15000000000000036 
	0.00014868861483810888 
	cone 0.45447864075866562 0.36243462182048081 0.15000000000000036 0 0 1 0.15629999999999999 0 0 1 I I 0 -1 0.15629999999999999 forward I I I I 
	cone 0 0 0.20000000000000018 -1.8369095307335659e-016 0 1 0 0.41999999999999993 0 1 I I -0.73994007339594725 0.67267279399630853 0.41999999999999993 forward I I I I 
	nullbs 
	nullbs 
	I I 
	0 
	0 
	0 
	} I I #
ptlist-eye-attrib $-1 $-1 $277 $235 #
point $-1 0.29834370887557782 0.36961605941079512 0.15000000000000036 #
coedge $-1 $280 $401 $346 $402 forward $175 $-1 #
coedge $-1 $403 $404 $280 $334 forward $387 $-1 #
edge $405 $338 $406 $333 $279 forward #
coedge $-1 $372 $281 $404 $407 reversed $336 $-1 #
loop $-1 $-1 $281 $288 #
color-adesk-attrib $-1 $408 $-1 $282 256 #
vertex $-1 $334 $409 #
intcurve-curve $-1 forward { surfintcur nubs 3 open 7 
	0.76596983377318095 3 0.79026327367165905 2 0.83758531960680105 2 0.88490736554194305 2 0.93222941147708571 2 
	0.97955145741222849 2 1.0038448973107001 3 
	-0.42673673384922406 0.20861629846130647 0.15000000000000036 
	-0.42003636522740884 0.20982474358348657 0.15498984128799326 
	-0.41339443386657315 0.21147642420041368 0.15970856822378682 
	-0.39422605134798339 0.21760322001135801 0.17254989548987798 
	-0.38039322453193503 0.22391658201899478 0.18075403167998652 
	-0.35433737684167177 0.24140724377356149 0.19225786935503597 
	-0.34211331773012787 0.25265054401433229 0.19545454545454582 
	-0.3224434423676934 0.27731578756559472 0.19545454545454521 
	-0.31420214418816261 0.29173523366392873 0.1922578693550353 
	-0.30294798140416734 0.32102984524186517 0.18075403167998452 
	-0.29987100210557749 0.33592070941955043 0.17254989548987493 
	-0.29816318423771904 0.35597184089431089 0.15970856822378443 
	-0.29803088347195406 0.36281477868225975 0.15498984128799193 
	-0.29834370887557871 0.36961605941079512 0.15000000000000036 
	0.00014868861483859118 
	cone -0.45447864075866562 0.36243462182048169 0.15000000000000036 0 0 1 0.15629999999999999 0 0 1 I I 0 -1 0.15629999999999999 forward I I I I 
	cone 0 0 0.20000000000000018 -1.8369095307335659e-016 0 1 0 0.41999999999999993 0 1 I I -0.73994007339594725 0.67267279399630853 0.41999999999999993 forward I I I I 
	nullbs 
	nullbs 
	I I 
	0 
	0 
	0 
	} I I #
ptlist-eye-attrib $-1 $-1 $283 $237 #
point $-1 -0.29834370887557871 0.36961605941079512 0.15000000000000036 #
ref_vt-eye-attrib $-1 $-1 $286 $203 $6 $7 #
fmesh-eye-attrib $-1 $410 $287 $244 #
color-adesk-attrib $-1 $411 $-1 $288 256 #
cone-surface $-1 -0.45447864075866562 0.36243462182048169 0.15000000000000036 0 0 1 0.15629999999999999 0 0 1 I I 0 1 0.15629999999999999 forward I I I I #
coedge $-1 $412 $413 $332 $402 reversed $289 $-1 #
coedge $-1 $414 $291 $415 $416 reversed $245 $-1 #
coedge $-1 $291 $414 $417 $418 reversed $245 $-1 #
coedge $-1 $401 $365 $291 $350 forward $175 $-1 #
edge $419 $420 $421 $291 $422 forward #
coedge $-1 $351 $351 $292 $352 forward $378 $-1 #
edge $423 $424 $424 $351 $425 forward #
ptlist-eye-attrib $-1 $-1 $293 $249 #
point $-1 0.3125 0 0.59800000000000031 #
ref_vt-eye-attrib $-1 $-1 $297 $210 $6 $7 #
fmesh-eye-attrib $-1 $426 $298 $253 #
coedge $-1 $427 $301 $394 $428 reversed $254 $-1 #
coedge $-1 $301 $427 $429 $430 reversed $254 $-1 #
edge $431 $397 $432 $301 $433 forward #
coedge $-1 $303 $302 $434 $435 reversed $211 $-1 #
coedge $-1 $436 $437 $302 $362 forward $438 $-1 #
edge $439 $440 $368 $361 $441 forward #
coedge $-1 $442 $443 $303 $364 forward $444 $-1 #
edge $445 $369 $446 $363 $447 forward #
coedge $-1 $349 $304 $443 $448 reversed $175 $-1 #
coedge $-1 $304 $323 $436 $449 reversed $175 $-1 #
color-adesk-attrib $-1 $450 $-1 $305 256 #
vertex $-1 $449 $451 #
vertex $-1 $305 $452 #
intcurve-curve $-1 forward { surfintcur nubs 3 open 7 
	0.76596983377317884 3 0.79026327367165572 2 0.83758531960679838 2 0.88490736554194094 2 0.93222941147708416 2 
	0.97955145741222727 2 1.0038448973107008 3 
	0.29396129237125379 -0.37311091995199286 0.15000000000000036 
	0.28740014415139825 -0.37129251039454658 0.15498984128799317 
	0.28069933341064157 -0.36989879719631436 0.15970856822378621 
	0.26077090043808493 -0.36710200000196824 0.17254989548987734 
	0.24556868900746576 -0.3667883040011346 0.18075403167998527 
	0.21450426769001929 -0.37124163709927993 0.19225786935503575 
	0.19861248584262903 -0.37606768011418445 0.19545454545454666 
	0.1701886924072884 -0.38975585760287323 0.19545454545454644 
	0.15650717612728116 -0.39917156436055068 0.19225786935503589 
	0.13365707021716222 -0.42068209916020782 0.18075403167998527 
	0.12442390383384527 -0.4327632529172063 0.1725498954898764 
	0.11418535320504919 -0.45008770373994533 0.15970856822378557 
	0.11109711489991358 -0.45619557450094339 0.15498984128799212 
	0.10842799573638295 -0.462459046555034 0.15000000000000036 
	0.00014868861483817658 
	cone 0.25221661754903302 -0.5237332029116768 0.15000000000000036 0 0 1 0.15629999999999999 0 0 1 I I 0 -1 0.15629999999999999 forward I I I I 
	cone 0 0 0.20000000000000018 -1.8369095307335659e-016 0 1 0 0.41999999999999993 0 1 I I -0.73994007339594725 0.67267279399630853 0.41999999999999993 forward I I I I 
	nullbs 
	nullbs 
	I I 
	0 
	0 
	0 
	} I I #
coedge $-1 $453 $306 $454 $455 reversed $261 $-1 #
coedge $-1 $310 $335 $306 $373 reversed $336 $-1 #
edge $456 $313 $457 $306 $458 forward #
coedge $-1 $307 $459 $460 $461 reversed $261 $-1 #
coedge $-1 $326 $318 $307 $376 reversed $299 $-1 #
edge $462 $463 $321 $307 $464 forward #
color-adesk-attrib $-1 $465 $-1 $308 256 #
loop $-1 $261 $351 $308 #
plane-surface $-1 0.47499999999999964 0 0.61800000000000033 0 0 1 1 0 0 forward_v I I I I #
color-adesk-attrib $-1 $466 $-1 $311 256 #
straight-curve $-1 -0.29834370887557871 0.36961605941079512 0.15000000000000036 0 0 1 I I #
ptlist-eye-attrib $-1 $-1 $312 $265 #
point $-1 -0.29834370887557871 0.36961605941079512 0.61800000000000033 #
fmesh-eye-attrib $-1 $467 $315 $266 #
color-adesk-attrib $-1 $468 $-1 $316 256 #
face $469 $470 $471 $11 $-1 $317 forward single #
loop $-1 $-1 $403 $316 #
color-adesk-attrib $-1 $472 $-1 $319 256 #
straight-curve $-1 0.29834370887557782 0.36961605941079512 0.15000000000000036 0 0 -1 I I #
ptlist-eye-attrib $-1 $-1 $320 $270 #
point $-1 0.29834370887557782 0.36961605941079512 0.61800000000000033 #
fmesh-eye-attrib $-1 $473 $322 $271 #
coedge $-1 $460 $324 $326 $398 forward $395 $-1 #
coedge $-1 $324 $460 $357 $428 forward $395 $-1 #
loop $-1 $-1 $393 $474 #
color-adesk-attrib $-1 $475 $-1 $325 256 #
vertex $-1 $325 $476 #
edge $477 $328 $463 $393 $478 forward #
ptlist-eye-attrib $-1 $-1 $327 $276 #
point $-1 0.42673673384922317 0.20861629846130558 0.15000000000000036 #
coedge $-1 $332 $349 $479 $480 reversed $175 $-1 #
edge $481 $482 $406 $346 $483 forward #
coedge $-1 $454 $333 $413 $484 forward $387 $-1 #
coedge $-1 $333 $454 $335 $407 forward $387 $-1 #
color-adesk-attrib $-1 $485 $-1 $334 256 #
vertex $-1 $484 $486 #
edge $487 $457 $338 $404 $488 forward #
ptlist-eye-attrib $-1 $-1 $337 $282 #
point $-1 -0.42673673384922406 0.20861629846130647 0.15000000000000036 #
ref_vt-eye-attrib $-1 $-1 $343 $244 $6 $7 #
fmesh-eye-attrib $-1 $489 $344 $288 #
coedge $-1 $490 $346 $491 $492 reversed $289 $-1 #
coedge $-1 $346 $490 $403 $484 reversed $289 $-1 #
coedge $-1 $348 $347 $493 $494 reversed $245 $-1 #
coedge $-1 $443 $442 $347 $416 forward $444 $-1 #
edge $495 $496 $420 $415 $497 forward #
coedge $-1 $498 $479 $348 $418 forward $471 $-1 #
edge $499 $421 $500 $417 $501 forward #
color-adesk-attrib $-1 $502 $-1 $350 256 #
vertex $-1 $448 $503 #
vertex $-1 $350 $504 #
intcurve-curve $-1 forward { surfintcur nubs 3 open 7 
	0.76596983377317718 3 0.79026327367165838 2 0.83758531960680038 2 0.88490736554194249 2 0.93222941147708505 2 
	0.97955145741222771 2 1.0038448973107035 3 
	-0.10842799573638118 -0.462459046555034 0.15000000000000036 
	-0.1110971148999127 -0.45619557450094117 0.15498984128799392 
	-0.11418535320505274 -0.45008770373994178 0.15970856822378837 
	-0.1244239038338506 -0.43276325291720097 0.17254989548988003 
	-0.13365707021716666 -0.42068209916020249 0.18075403167998888 
	-0.15650717612728471 -0.39917156436054713 0.19225786935503819 
	-0.17018869240729195 -0.38975585760286879 0.19545454545454818 
	-0.19861248584263258 -0.3760676801141809 0.19545454545454768 
	-0.21450426769002195 -0.37124163709927771 0.19225786935503683 
	-0.24556868900746842 -0.36678830400113238 0.18075403167998624 
	-0.26077090043808759 -0.36710200000196558 0.17254989548987773 
	-0.28069933341064335 -0.36989879719631213 0.15970856822378657 
	-0.28740014415140092 -0.37129251039454436 0.15498984128799262 
	-0.29396129237125557 -0.37311091995199019 0.15000000000000036 
	0.00014868861483802379 
	cone -0.25221661754903479 -0.52373320291167413 0.15000000000000036 0 0 1 0.15629999999999999 0 0 1 I I 0 -1 0.15629999999999999 forward I I I I 
	cone 0 0 0.20000000000000018 -1.8369095307335659e-016 0 1 0 0.41999999999999993 0 1 I I -0.73994007339594725 0.67267279399630853 0.41999999999999993 forward I I I I 
	nullbs 
	nullbs 
	I I 
	0 
	0 
	0 
	} I I #
color-adesk-attrib $-1 $505 $-1 $352 256 #
vertex $-1 $352 $506 #
ellipse-curve $-1 0 0 0.61800000000000033 0 0 -1 0.3125 0 0 1 I I #
ref_vt-eye-attrib $-1 $-1 $356 $253 $6 $7 #
coedge $-1 $358 $357 $459 $507 reversed $254 $-1 #
edge $508 $509 $397 $394 $510 forward #
coedge $-1 $437 $436 $358 $430 forward $438 $-1 #
edge $511 $432 $512 $429 $513 forward #
color-adesk-attrib $-1 $514 $-1 $359 256 #
vertex $-1 $430 $515 #
intcurve-curve $-1 forward { surfintcur nubs 3 open 7 
	0.76596983377317973 3 0.79026327367165439 2 0.83758531960679727 2 0.88490736554194027 2 0.93222941147708305 2 
	0.97955145741222571 2 1.0038448973106993 3 
	0.47499173160576547 -0.0028026605493605139 0.15000000000000036 
	0.46947923276217107 -0.0067986129741117729 0.1549898412879922 
	0.4642116967452159 -0.011168551803481641 0.15970856822378693 
	0.44959989792318389 -0.02500545356913797 0.17254989548987776 
	0.43987621672111477 -0.036695434811329086 0.18075403167998519 
	0.42398962284709096 -0.063759185152934439 0.19225786935503569 
	0.41785441129667777 -0.079192869116860187 0.19545454545454671 
	0.41083431405787074 -0.10994992474600807 0.19545454545454638 
	0.40966552415616153 -0.12651716204232022 0.19225786935503522 
	0.4122363294609066 -0.15779369330069315 0.18075403167998477 
	0.41592497073380219 -0.17254494962421152 0.17254989548987637 
	0.42308613990062049 -0.19135138925142758 0.15970856822378568 
	0.42593598046345171 -0.19757406631430019 0.15498984128799212 
	0.42916879152649123 -0.20356607865676013 0.15000000000000036 
	0.00014868861483846991 
	cone 0.56672559535129352 -0.12935141890880475 0.15000000000000036 0 0 1 0.15629999999999999 0 0 1 I I 0 -1 0.15629999999999999 forward I I I I 
	cone 0 0 0.20000000000000018 -1.8369095307335659e-016 0 1 0 0.41999999999999993 0 1 I I -0.73994007339594725 0.67267279399630853 0.41999999999999993 forward I I I I 
	nullbs 
	nullbs 
	I I 
	0 
	0 
	0 
	} I I #
coedge $-1 $516 $517 $360 $435 forward $261 $-1 #
edge $518 $446 $440 $434 $519 forward #
coedge $-1 $429 $361 $366 $449 forward $438 $-1 #
coedge $-1 $361 $429 $516 $520 forward $438 $-1 #
loop $-1 $-1 $429 $521 #
color-adesk-attrib $-1 $522 $-1 $362 256 #
vertex $-1 $362 $523 #
straight-curve $-1 0.29396129237125379 -0.37311091995199286 0.15000000000000036 0 0 -1 I I #
coedge $-1 $415 $363 $517 $524 forward $444 $-1 #
coedge $-1 $363 $415 $365 $448 forward $444 $-1 #
loop $-1 $-1 $363 $470 #
color-adesk-attrib $-1 $525 $-1 $364 256 #
vertex $-1 $524 $526 #
straight-curve $-1 0.10842799573638295 -0.462459046555034 0.15000000000000036 0 0 1 I I #
edge $527 $420 $369 $443 $279 forward #
edge $528 $368 $432 $436 $279 forward #
ptlist-eye-attrib $-1 $-1 $367 $305 #
point $-1 0.29396129237125379 -0.37311091995199286 0.15000000000000036 #
point $-1 0.10842799573638295 -0.462459046555034 0.15000000000000036 #
coedge $-1 $529 $371 $490 $530 forward $261 $-1 #
coedge $-1 $404 $403 $371 $455 forward $387 $-1 #
edge $531 $532 $457 $454 $314 forward #
color-adesk-attrib $-1 $533 $-1 $373 256 #
vertex $-1 $407 $534 #
ellipse-curve $-1 -0.45447864075866562 0.36243462182048169 0.61800000000000033 0 0 -1 0.15629999999999999 0 0 1 I I #
coedge $-1 $374 $516 $427 $507 forward $261 $-1 #
coedge $-1 $394 $393 $374 $461 forward $395 $-1 #
edge $535 $463 $509 $460 $314 forward #
color-adesk-attrib $-1 $536 $-1 $376 256 #
vertex $-1 $461 $537 #
ellipse-curve $-1 0.45447864075866562 0.36243462182048081 0.61800000000000033 0 0 -1 0.15629999999999999 0 0 1 I I #
fmesh-eye-attrib $-1 $538 $377 $308 #
ptlist-eye-attrib $-1 $-1 $380 $311 #
ref_vt-eye-attrib $-1 $-1 $384 $266 $6 $7 #
fmesh-eye-attrib $-1 $539 $385 $316 #
color-adesk-attrib $-1 $540 $-1 $386 256 #
face $541 $521 $444 $11 $-1 $317 forward single #
loop $-1 $-1 $417 $386 #
ptlist-eye-attrib $-1 $-1 $388 $319 #
ref_vt-eye-attrib $-1 $-1 $392 $271 $6 $7 #
face $542 $271 $395 $11 $-1 $317 forward single #
ptlist-eye-attrib $-1 $-1 $396 $325 #
point $-1 0.47499173160576547 -0.0028026605493605139 0.15000000000000036 #
color-adesk-attrib $-1 $543 $-1 $398 256 #
straight-curve $-1 0.42673673384922317 0.20861629846130558 0.15000000000000036 0 0 1 I I #
coedge $-1 $417 $491 $401 $480 forward $471 $-1 #
edge $544 $482 $421 $479 $279 forward #
color-adesk-attrib $-1 $545 $-1 $402 256 #
vertex $-1 $480 $546 #
intcurve-curve $-1 forward { surfintcur nubs 3 open 7 
	0.76596983377318251 3 0.79026327367165761 2 0.83758531960679972 2 0.88490736554194172 2 0.93222941147708427 2 
	0.97955145741222682 2 1.0038448973106964 3 
	-0.42916879152649301 -0.20356607865675969 0.15000000000000036 
	-0.42593598046345349 -0.1975740663142993 0.15498984128799237 
	-0.42308613990062227 -0.19135138925142581 0.15970856822378551 
	-0.41592497073380486 -0.17254494962420885 0.17254989548987609 
	-0.41223632946090927 -0.15779369330069049 0.18075403167998375 
	-0.40966552415616508 -0.12651716204231755 0.19225786935503339 
	-0.41083431405787341 -0.1099499247460054 0.19545454545454422 
	-0.41785441129668133 -0.079192869116858411 0.19545454545454366 
	-0.42398962284709629 -0.063759185152932218 0.19225786935503267 
	-0.43987621672112009 -0.036695434811327754 0.18075403167998186 
	-0.44959989792318744 -0.025005453569137082 0.17254989548987359 
	-0.46421169674521856 -0.011168551803482529 0.15970856822378357 
	-0.46947923276217374 -0.0067986129741139933 0.15498984128799118 
	-0.47499173160576724 -0.0028026605493636225 0.15000000000000036 
	0.00014868861483836475 
	cone -0.56672559535129619 -0.12935141890880608 0.15000000000000036 0 0 1 0.15629999999999999 0 0 1 I I 0 -1 0.15629999999999999 forward I I I I 
	cone 0 0 0.20000000000000018 -1.8369095307335659e-016 0 1 0 0.41999999999999993 0 1 I I -0.73994007339594725 0.67267279399630853 0.41999999999999993 forward I I I I 
	nullbs 
	nullbs 
	I I 
	0 
	0 
	0 
	} I I #
edge $547 $406 $532 $403 $548 forward #
ptlist-eye-attrib $-1 $-1 $405 $334 #
point $-1 -0.47499173160576724 -0.0028026605493636225 0.15000000000000036 #
color-adesk-attrib $-1 $549 $-1 $407 256 #
straight-curve $-1 -0.42673673384922406 0.20861629846130647 0.15000000000000036 0 0 -1 I I #
ref_vt-eye-attrib $-1 $-1 $411 $288 $6 $7 #
coedge $-1 $413 $412 $453 $530 reversed $289 $-1 #
coedge $-1 $479 $498 $412 $492 forward $471 $-1 #
edge $550 $551 $482 $491 $552 forward #
coedge $-1 $517 $529 $414 $494 forward $261 $-1 #
edge $553 $500 $496 $493 $554 forward #
color-adesk-attrib $-1 $555 $-1 $416 256 #
vertex $-1 $416 $556 #
straight-curve $-1 -0.10842799573638118 -0.462459046555034 0.15000000000000036 0 0 -1 I I #
coedge $-1 $491 $417 $529 $557 forward $471 $-1 #
color-adesk-attrib $-1 $558 $-1 $418 256 #
vertex $-1 $557 $559 #
straight-curve $-1 -0.29396129237125557 -0.37311091995199019 0.15000000000000036 0 0 1 I I #
ptlist-eye-attrib $-1 $-1 $419 $350 #
point $-1 -0.10842799573638118 -0.462459046555034 0.15000000000000036 #
point $-1 -0.29396129237125557 -0.37311091995199019 0.15000000000000036 #
ptlist-eye-attrib $-1 $-1 $423 $352 #
point $-1 0.3125 0 0.61800000000000033 #
edge $560 $512 $509 $459 $561 forward #
color-adesk-attrib $-1 $562 $-1 $428 256 #
vertex $-1 $507 $563 #
straight-curve $-1 0.47499173160576547 -0.0028026605493605139 0.15000000000000036 0 0 -1 I I #
color-adesk-attrib $-1 $564 $-1 $430 256 #
vertex $-1 $520 $565 #
straight-curve $-1 0.42916879152649123 -0.20356607865676013 0.15000000000000036 0 0 1 I I #
ptlist-eye-attrib $-1 $-1 $431 $359 #
point $-1 0.42916879152649123 -0.20356607865676013 0.15000000000000036 #
coedge $-1 $459 $434 $437 $520 reversed $261 $-1 #
coedge $-1 $434 $493 $442 $524 reversed $261 $-1 #
color-adesk-attrib $-1 $566 $-1 $435 256 #
ellipse-curve $-1 0.25221661754903302 -0.5237332029116768 0.61800000000000033 0 0 -1 0.15629999999999999 0 0 1 I I #
edge $567 $512 $440 $437 $314 forward #
face $568 $474 $438 $11 $-1 $317 forward single #
ptlist-eye-attrib $-1 $-1 $439 $362 #
point $-1 0.29396129237125379 -0.37311091995199286 0.61800000000000033 #
edge $569 $446 $496 $442 $314 forward #
ptlist-eye-attrib $-1 $-1 $445 $364 #
point $-1 0.10842799573638295 -0.462459046555034 0.61800000000000033 #
color-adesk-attrib $-1 $570 $-1 $448 256 #
color-adesk-attrib $-1 $571 $-1 $449 256 #
coedge $-1 $493 $453 $498 $557 reversed $261 $-1 #
edge $572 $532 $551 $453 $573 forward #
color-adesk-attrib $-1 $574 $-1 $455 256 #
vertex $-1 $455 $575 #
ptlist-eye-attrib $-1 $-1 $456 $373 #
point $-1 -0.42673673384922406 0.20861629846130647 0.61800000000000033 #
color-adesk-attrib $-1 $576 $-1 $461 256 #
ptlist-eye-attrib $-1 $-1 $462 $376 #
point $-1 0.42673673384922317 0.20861629846130558 0.61800000000000033 #
ref_vt-eye-attrib $-1 $-1 $465 $308 $6 $7 #
ref_vt-eye-attrib $-1 $-1 $468 $316 $6 $7 #
fmesh-eye-attrib $-1 $577 $469 $386 #
color-adesk-attrib $-1 $578 $-1 $470 256 #
color-adesk-attrib $-1 $579 $-1 $474 256 #
ptlist-eye-attrib $-1 $-1 $477 $398 #
color-adesk-attrib $-1 $580 $-1 $480 256 #
ptlist-eye-attrib $-1 $-1 $481 $402 #
point $-1 -0.42916879152649301 -0.20356607865675969 0.15000000000000036 #
color-adesk-attrib $-1 $581 $-1 $484 256 #
straight-curve $-1 -0.47499173160576724 -0.0028026605493636225 0.15000000000000036 0 0 1 I I #
ptlist-eye-attrib $-1 $-1 $487 $407 #
color-adesk-attrib $-1 $582 $-1 $492 256 #
vertex $-1 $492 $583 #
straight-curve $-1 -0.42916879152649301 -0.20356607865675969 0.15000000000000036 0 0 -1 I I #
color-adesk-attrib $-1 $584 $-1 $494 256 #
ellipse-curve $-1 -0.25221661754903479 -0.52373320291167413 0.61800000000000033 0 0 -1 0.15629999999999999 0 0 1 I I #
ptlist-eye-attrib $-1 $-1 $495 $416 #
point $-1 -0.10842799573638118 -0.462459046555034 0.61800000000000033 #
edge $585 $500 $551 $498 $314 forward #
ptlist-eye-attrib $-1 $-1 $499 $418 #
point $-1 -0.29396129237125557 -0.37311091995199019 0.61800000000000033 #
color-adesk-attrib $-1 $586 $-1 $507 256 #
ellipse-curve $-1 0.56672559535129352 -0.12935141890880475 0.61800000000000033 0 0 -1 0.15629999999999999 0 0 1 I I #
ptlist-eye-attrib $-1 $-1 $508 $428 #
point $-1 0.47499173160576547 -0.0028026605493605139 0.61800000000000033 #
ptlist-eye-attrib $-1 $-1 $511 $430 #
point $-1 0.42916879152649123 -0.20356607865676013 0.61800000000000033 #
ptlist-eye-attrib $-1 $-1 $518 $435 #
color-adesk-attrib $-1 $587 $-1 $520 256 #
color-adesk-attrib $-1 $588 $-1 $521 256 #
color-adesk-attrib $-1 $589 $-1 $524 256 #
ptlist-eye-attrib $-1 $-1 $527 $448 #
ptlist-eye-attrib $-1 $-1 $528 $449 #
color-adesk-attrib $-1 $590 $-1 $530 256 #
ellipse-curve $-1 -0.56672559535129619 -0.12935141890880608 0.61800000000000033 0 0 -1 0.15629999999999999 0 0 1 I I #
ptlist-eye-attrib $-1 $-1 $531 $455 #
point $-1 -0.47499173160576724 -0.0028026605493636225 0.61800000000000033 #
ptlist-eye-attrib $-1 $-1 $535 $461 #
ref_vt-eye-attrib $-1 $-1 $540 $386 $6 $7 #
fmesh-eye-attrib $-1 $591 $541 $470 #
fmesh-eye-attrib $-1 $592 $542 $474 #
ptlist-eye-attrib $-1 $-1 $544 $480 #
ptlist-eye-attrib $-1 $-1 $547 $484 #
ptlist-eye-attrib $-1 $-1 $550 $492 #
point $-1 -0.42916879152649301 -0.20356607865675969 0.61800000000000033 #
ptlist-eye-attrib $-1 $-1 $553 $494 #
color-adesk-attrib $-1 $593 $-1 $557 256 #
ptlist-eye-attrib $-1 $-1 $560 $507 #
ptlist-eye-attrib $-1 $-1 $567 $520 #
fmesh-eye-attrib $-1 $594 $568 $521 #
ptlist-eye-attrib $-1 $-1 $569 $524 #
ptlist-eye-attrib $-1 $-1 $572 $530 #
ref_vt-eye-attrib $-1 $-1 $578 $470 $6 $7 #
ref_vt-eye-attrib $-1 $-1 $579 $474 $6 $7 #
ptlist-eye-attrib $-1 $-1 $585 $557 #
ref_vt-eye-attrib $-1 $-1 $588 $521 $6 $7 #
