400 0 1 0           
7 Unknown 11 ACIS 6.0 NT 24 Wed Dec 26 20:57:57 2001 
25.399999999999999 9.9999999999999995e-007 1e-010 
body $-1 $1 $-1 $-1 #
lump $-1 $-1 $2 $0 #
shell $-1 $-1 $-1 $3 $-1 $1 #
face $-1 $4 $5 $2 $-1 $6 reversed single #
face $-1 $7 $8 $2 $-1 $9 forward single #
loop $-1 $10 $11 $3 #
cone-surface $-1 0.29000000000000004 0.00064509256780898808 0.307 1 0 0 0 0.09799999999999999 0 1 I I 0 1 0.09799999999999999 reversed I I I I #
face $-1 $12 $13 $2 $-1 $14 forward single #
loop $-1 $-1 $15 $4 #
cone-surface $-1 0.10213148229018612 0.32822739499500858 0.61399999999999999 0 0 1 0.013260160543284816 -0.028297184354036223 0 1 I I 0 1 0.031249999999999997 forward I I I I #
loop $-1 $-1 $16 $3 #
coedge $-1 $17 $17 $18 $19 reversed $5 $-1 #
face $-1 $20 $21 $2 $-1 $22 forward single #
loop $-1 $-1 $23 $7 #
plane-surface $-1 0.20664905347714832 0.49889494755609498 0.61399999999999999 0.92387953251128707 -0.38268343236508917 0 0 0 -0.39370078740157477 forward_v I I I I #
coedge $-1 $24 $25 $26 $27 forward $8 $-1 #
coedge $-1 $16 $16 $28 $29 reversed $10 $-1 #
coedge $-1 $11 $11 $30 $31 reversed $5 $-1 #
coedge $-1 $30 $30 $11 $19 forward $32 $-1 #
edge $-1 $33 $34 $18 $35 forward #
face $-1 $36 $37 $2 $-1 $38 forward single #
loop $-1 $-1 $39 $12 #
cone-surface $-1 -0.10213148229018625 0.32822739499500853 0.61399999999999999 0 0 1 -0.013260160543284816 -0.028297184354036223 0 1 I I 0 1 0.031249999999999997 forward I I I I #
coedge $-1 $40 $41 $25 $42 reversed $13 $-1 #
coedge $-1 $43 $15 $44 $45 forward $8 $-1 #
coedge $-1 $15 $43 $23 $42 forward $8 $-1 #
coedge $-1 $46 $47 $15 $27 reversed $48 $-1 #
edge $-1 $49 $50 $26 $51 forward #
coedge $-1 $28 $28 $16 $29 forward $52 $-1 #
edge $-1 $53 $53 $28 $54 forward #
coedge $-1 $18 $18 $17 $31 forward $32 $-1 #
edge $-1 $34 $33 $30 $55 forward #
loop $-1 $56 $18 $57 #
vertex $-1 $19 $58 #
vertex $-1 $19 $59 #
intcurve-curve $-1 forward { surfintcur nubs 3 open 9 
	0.37761108761531909 3 0.46995379286411659 2 0.56393319868256242 2 0.65792315774302168 2 0.75191311680348094 2 
	0.84590040518472476 2 0.93988769356596857 2 1.0338697699955102 2 1.1262151457458702 3 
	0.54000000000000004 7.6832392510681149e-019 0.20900212320882169 
	0.54000000000000004 -0.012145453095680435 0.20908207332387768 
	0.53955026546672302 -0.025035783161691409 0.21155737956461756 
	0.53791169729433008 -0.048962616724847551 0.22147941772280591 
	0.53673173026923926 -0.059964382361304421 0.22901691539843122 
	0.53450517086060956 -0.077336388425626096 0.24638818232021981 
	0.53331240540609481 -0.084874269948521805 0.25739009976182986 
	0.53162274562845346 -0.094884246097382774 0.28152749350740502 
	0.53115159982708282 -0.097354907432190996 0.29466535970335178 
	0.53115159982708282 -0.09735490743219101 0.31933428981381146 
	0.53162271828250895 -0.094884385205969438 0.33247180784804825 
	0.53331229779043521 -0.084874930384960912 0.35660867088422837 
	0.53450501292771424 -0.077337431032105997 0.36761040551264829 
	0.5367315735581224 -0.059965794619765818 0.38498204192498853 
	0.53791159139768852 -0.048963846194754711 0.39251992179669348 
	0.53955023902940713 -0.025036480526201728 0.4024424792561363 
	0.54000000000000004 -0.012145802719666426 0.40491792437464541 
	0.54000000000000004 7.6832392510681149e-019 0.40499787679117816 
	6.6628395951207178e-005 
	cone 0.29000000000000004 0.00064509256780898808 0.307 1 0 0 0 0.09799999999999999 0 1 I I 0 1 0.09799999999999999 reversed I I I I 
	cone 0 0 0 0 0 1 -0.54000000000000004 0 0 1 I I 0 1 0.54000000000000004 forward I I I I 
	nullbs 
	nullbs 
	I I 
	0 
	0 
	0 
	} I I #
face $-1 $60 $61 $2 $-1 $62 forward single #
loop $-1 $-1 $44 $20 #
cone-surface $-1 0 0 0.61399999999999999 0 0 1 -0.11958857261409049 -0.28871235390977712 0 1 I I 0 -1 0.3125 forward I I I I #
coedge $-1 $63 $64 $65 $66 forward $21 $-1 #
coedge $-1 $67 $23 $68 $69 reversed $13 $-1 #
coedge $-1 $23 $67 $46 $70 forward $13 $-1 #
edge $-1 $71 $49 $23 $72 forward #
coedge $-1 $25 $24 $73 $74 forward $8 $-1 #
coedge $-1 $75 $76 $24 $45 reversed $37 $-1 #
edge $-1 $50 $77 $44 $78 forward #
coedge $-1 $79 $26 $41 $70 reversed $48 $-1 #
coedge $-1 $26 $65 $75 $80 reversed $48 $-1 #
loop $-1 $-1 $26 $81 #
vertex $-1 $42 $82 #
vertex $-1 $80 $83 #
ellipse-curve $-1 0.10213148229018612 0.32822739499500858 1.0569999999999999 1.6464353542582394e-031 3.4782695185386597e-030 -1 0.013260160543284816 -0.028297184354036223 0 1 I I #
loop $-1 $84 $28 $85 #
vertex $-1 $29 $86 #
intcurve-curve $-1 forward { surfintcur nubs 3 periodic 17 
	0 3 0.094903195721478428 2 0.18980639144295686 2 0.28461574240171422 2 0.37942509336047159 2 
	0.47428682550012252 2 0.56914855763977346 2 0.664092089819739 2 0.75903562199970454 2 0.85396595841468781 2 
	0.94889629482967108 2 1.0437712108374473 2 1.1386461268452235 2 1.2334424903457109 2 1.3282388538461984 2 
	1.4231550471489085 2 1.5180712404516186 3 
	0.23026511242233269 -0.09735490743219101 0.30700000000000005 
	0.23026511242233269 -0.09735490743219101 0.29454551237250942 
	0.23137526197964897 -0.094838890629608569 0.28136450770340682 
	0.23523987372150101 -0.08480051243839784 0.25726650588656558 
	0.23792396782474184 -0.077283772303129938 0.24633593575837565 
	0.24285208444442244 -0.060027507799001519 0.22907967125424719 
	0.2454351402640858 -0.049093605815177535 0.22155640883094257 
	0.24904705047533746 -0.024983131704374564 0.21151314329062607 
	0.25003127312061885 -0.01179703805202989 0.20900000000000002 
	0.24996704456102037 0.013094097335483586 0.20900000000000002 
	0.24891378321769089 0.026281668519960798 0.21151551106871808 
	0.24517275598248323 0.050389654549324342 0.22155996310953052 
	0.2425294167179651 0.06131987789745607 0.22908185621708374 
	0.23750249307411023 0.078570670894586206 0.24633264921421388 
	0.23477244389065688 0.086086925941796816 0.25726008274235834 
	0.23084336665299784 0.096127005939958071 0.28135690946843189 
	0.229715358024422 0.09864509256780897 0.29454021887402027 
	0.229715358024422 0.09864509256780897 0.31945804939829181 
	0.23084304824115817 0.096127695513356273 0.33263967705505981 
	0.23477123389952262 0.086090141886421542 0.35673395657227441 
	0.23750074188743137 0.078575723895599553 0.36766051782616249 
	0.24252770236015517 0.061326716185916015 0.38491308294092413 
	0.24517159513437464 0.050395623591588876 0.3924368157471248 
	0.24891348739229588 0.026285086007456236 0.40248379894652903 
	0.24996704009655035 0.013095827496144224 0.40499999999999986 
	0.25003126872265935 -0.011795333666855003 0.40499999999999986 
	0.24904732439541127 -0.024979763445542855 0.40248753622141242 
	0.24543625242975955 -0.049087720987137089 0.39244676577031973 
	0.2428537365458647 -0.060020765424726986 0.38492531746458319 
	0.23792566390680805 -0.077278791125489354 0.36767079985860146 
	0.23524104642929236 -0.084797342786467472 0.35673936930918065 
	0.23137557098531403 -0.094838211468761174 0.33263885583497804 
	0.23026511242233269 -0.097354907432190996 0.31945619334681241 
	0.23026511242233269 -0.09735490743219101 0.30700000000000005 
	7.206041404895327e-005 
	cone 0.29000000000000004 0.00064509256780898808 0.307 1 0 0 0 0.09799999999999999 0 1 I I 0 1 0.09799999999999999 reversed I I I I 
	cone 0 0 1.6461458015619397 0 0 -1 -0.24999999999999997 0 0 1 I I 0 -1 0.24999999999999997 reversed I I I I 
	nullbs 
	nullbs 
	I I 
	0 
	0 
	0 
	} I I #
intcurve-curve $-1 forward { surfintcur nubs 3 open 11 
	1.1262151457458702 3 1.1278518464250515 2 1.2218445410041858 2 1.3158372355833199 2 1.4098317346457845 2 
	1.5038262337082491 3 1.597818025664641 2 1.6918098176210328 2 1.7858052191874765 2 1.8798006207539197 2 
	1.8814373213235682 3 
	0.54000000000000004 7.6832392510681149e-019 0.40499787679117816 
	0.54000000000000004 0.00021526842463904096 0.40499929384290789 
	0.53999987127263394 0.0004303026056951637 0.40499999999999997 
	0.53998487909509296 0.01298008305472381 0.40499999999999997 
	0.53950368200254162 0.026118151715392852 0.40252916672005645 
	0.53779252518034248 0.050255155070237006 0.39251923797683541 
	0.53658585291169114 0.06125636354708465 0.38498165813328761 
	0.53431688202746896 0.078626917440513061 0.36761110423985921 
	0.53310551136744255 0.086164364166646121 0.35660996685537005 
	0.53139092032916635 0.096174186077641013 0.33247325025390351 
	0.53091350115841696 0.09864509256780897 0.31933523609743625 
	0.53091350115841696 0.09864509256780897 0.30699999999999994 
	0.53091350115841696 0.09864509256780897 0.29466511916582777 
	0.53139089225356029 0.09617432708744364 0.28152745787594408 
	0.5331054006317778 0.086165033538215169 0.2573912791193842 
	0.53431671935351255 0.078627974113824314 0.24639032698683883 
	0.5365856906068287 0.061257794787970686 0.22901939860425793 
	0.53779241484312301 0.050256401082841212 0.22148143143686141 
	0.53950365380094867 0.02611885985961181 0.21147097429278694 
	0.53998487867070855 0.012980438302148699 0.20899999999999999 
	0.53999987127261662 0.00043030262006956321 0.20899999999999999 
	0.54000000000000004 0.00021526843887428805 0.2090007061569982 
	0.54000000000000004 7.6832392510681149e-019 0.20900212320882169 
	6.6628395951207178e-005 
	cone 0.29000000000000004 0.00064509256780898808 0.307 1 0 0 0 0.09799999999999999 0 1 I I 0 1 0.09799999999999999 reversed I I I I 
	cone 0 0 0 0 0 1 -0.54000000000000004 0 0 1 I I 0 1 0.54000000000000004 forward I I I I 
	nullbs 
	nullbs 
	I I 
	0 
	0 
	0 
	} I I #
loop $-1 $87 $88 $57 #
face $-1 $89 $32 $2 $-1 $90 forward single #
point $-1 0.54000000000000004 7.6832392510681149e-019 0.20900212320882169 #
point $-1 0.54000000000000004 7.6832392510681149e-019 0.40499787679117816 #
face $-1 $91 $92 $2 $-1 $93 forward single #
loop $-1 $-1 $94 $36 #
cone-surface $-1 -0.16545132695195869 0.48109502274481708 0 0 0 1 -0.028490142489162894 0.0128403380386653 0 1 I I 0 1 0.031249999999999997 forward I I I I #
coedge $-1 $95 $39 $96 $97 forward $21 $-1 #
coedge $-1 $39 $95 $98 $99 forward $21 $-1 #
coedge $-1 $47 $100 $39 $66 reversed $48 $-1 #
edge $-1 $101 $102 $65 $103 forward #
coedge $-1 $41 $40 $104 $105 reversed $13 $-1 #
coedge $-1 $73 $106 $40 $69 forward $107 $-1 #
edge $108 $109 $71 $68 $110 forward #
edge $111 $112 $49 $41 $113 forward #
vertex $-1 $74 $114 #
straight-curve $-1 0.13100271768116384 0.31626853773359959 0.61399999999999999 0 0 0.39370078740157477 F -0.24606349999999999 F 1.3712834999999999 #
coedge $-1 $115 $68 $43 $74 reversed $107 $-1 #
edge $-1 $77 $71 $43 $116 reversed #
coedge $-1 $98 $44 $47 $80 forward $37 $-1 #
coedge $-1 $44 $98 $115 $117 reversed $37 $-1 #
vertex $-1 $117 $118 #
straight-curve $-1 0.092846802081987367 0.2983885409045533 0.61399999999999999 0 0 -0.39370078740157477 F -1.3712834999999999 F 0.24606349999999999 #
coedge $-1 $119 $46 $120 $121 reversed $48 $-1 #
edge $-1 $50 $101 $75 $122 forward #
face $-1 $123 $48 $2 $-1 $124 forward single #
point $-1 0.13100271768116384 0.31626853773359959 1.0569999999999999 #
point $-1 0.092846802081987367 0.29838854090455325 1.0569999999999999 #
loop $-1 $125 $126 $85 #
face $-1 $127 $52 $2 $-1 $128 reversed single #
point $-1 0.23026511242233269 -0.09735490743219101 0.30700000000000005 #
loop $-1 $-1 $129 $57 #
coedge $-1 $130 $131 $132 $133 reversed $56 $-1 #
face $-1 $134 $135 $2 $-1 $136 forward single #
cone-surface $-1 0 0 0 0 0 1 -0.54000000000000004 0 0 1 I I 0 1 0.54000000000000004 forward I I I I #
face $-1 $137 $138 $2 $-1 $139 forward single #
loop $-1 $-1 $96 $60 #
plane-surface $-1 -0.11958857261409064 0.28871235390977706 0.61399999999999999 -0.92387953251128674 -0.38268343236509 0 0 0 0.39370078740157477 forward_v I I I I #
coedge $-1 $132 $140 $141 $142 forward $61 $-1 #
coedge $-1 $64 $63 $143 $144 forward $21 $-1 #
coedge $-1 $145 $146 $63 $97 reversed $92 $-1 #
edge $-1 $102 $147 $96 $148 forward #
coedge $-1 $76 $75 $64 $99 reversed $37 $-1 #
edge $-1 $149 $101 $98 $150 forward #
coedge $-1 $65 $141 $145 $151 reversed $48 $-1 #
vertex $-1 $99 $152 #
vertex $-1 $151 $153 #
ellipse-curve $-1 -0.10213148229018625 0.32822739499500853 1.0569999999999999 1.6464353542582394e-031 3.4782695185386597e-030 -1 -0.013260160543284816 -0.028297184354036223 0 1 I I #
coedge $-1 $154 $120 $67 $105 forward $155 $-1 #
edge $-1 $112 $109 $67 $156 forward #
coedge $-1 $68 $157 $154 $158 reversed $107 $-1 #
loop $-1 $159 $160 $127 #
convexity-sys-attrib $-1 $-1 $-1 $69 #
vertex $-1 $69 $161 #
straight-curve $-1 0.10691912533310297 0.25812560245624599 0.61399999999999999 -0.15066276864767289 -0.36373209941389251 0 I I #
convexity-sys-attrib $-1 $-1 $-1 $70 #
vertex $-1 $70 $162 #
straight-curve $-1 0.11958857261409052 0.28871235390977712 1.0569999999999999 -0.15066276864767289 -0.36373209941389251 0 F -0.57785000000000031 F 0 #
point $-1 0.13100271768116384 0.31626853773359959 0.61399999999999999 #
coedge $-1 $143 $73 $76 $117 forward $107 $-1 #
ellipse-curve $-1 0.10213148229018612 0.32822739499500858 0.61399999999999999 0 0 -1 0.013260160543284816 -0.028297184354036223 0 1 I I #
edge $-1 $77 $149 $115 $163 forward #
point $-1 0.092846802081987367 0.29838854090455325 0.61399999999999999 #
coedge $-1 $141 $79 $130 $164 reversed $48 $-1 #
coedge $-1 $104 $165 $79 $121 forward $155 $-1 #
edge $-1 $166 $112 $79 $167 forward #
ellipse-curve $-1 0 0 1.0569999999999999 0 0 1 -0.11958857261409049 -0.28871235390977712 0 1 F -3.1415926535897931 F -2.3561944901923444 #
face $-1 $168 $169 $2 $-1 $170 forward single #
plane-surface $-1 -1.1473761573389905e-016 0.4228870964207358 1.0569999999999999 -1.6464353542582394e-031 -3.4782695185386597e-030 1 0.39370078740157477 0 6.4820289537725955e-032 forward_v I I I I #
loop $-1 $-1 $171 $85 #
coedge $-1 $126 $126 $172 $173 reversed $84 $-1 #
face $-1 $-1 $107 $2 $-1 $174 forward single #
cone-surface $-1 0 0 1.6461458015619397 0 0 -1 -0.24999999999999997 0 0 1 I I 0 1 0.24999999999999997 reversed I I I I #
coedge $-1 $129 $129 $175 $176 reversed $87 $-1 #
coedge $-1 $177 $88 $119 $164 forward $56 $-1 #
coedge $-1 $88 $178 $179 $180 reversed $56 $-1 #
coedge $-1 $181 $94 $88 $133 forward $61 $-1 #
edge $-1 $182 $183 $88 $184 forward #
face $-1 $185 $186 $2 $-1 $187 forward single #
loop $-1 $-1 $188 $89 #
cone-surface $-1 0.10213148229018632 -0.32822739499500853 0.61399999999999999 0 0 1 0.013260160543284816 0.028297184354036223 0 1 I I 0 1 0.031249999999999997 forward I I I I #
face $-1 $189 $190 $2 $-1 $191 forward single #
loop $-1 $-1 $192 $91 #
cone-surface $-1 0.16545132695195872 -0.48109502274481708 0 0 0 1 0.028490142489162894 -0.0128403380386653 0 1 I I 0 1 0.031249999999999997 forward I I I I #
coedge $-1 $94 $181 $193 $194 forward $61 $-1 #
coedge $-1 $100 $119 $94 $142 reversed $48 $-1 #
edge $-1 $195 $182 $141 $196 forward #
coedge $-1 $197 $115 $95 $144 reversed $107 $-1 #
edge $-1 $147 $149 $95 $198 reversed #
coedge $-1 $193 $96 $100 $151 forward $92 $-1 #
coedge $-1 $96 $193 $197 $199 reversed $92 $-1 #
vertex $-1 $199 $200 #
straight-curve $-1 -0.13100271768116398 0.31626853773359942 0.61399999999999999 0 0 -0.39370078740157477 F -1.3712834999999999 F 0.24606349999999999 #
vertex $-1 $144 $201 #
straight-curve $-1 -0.092846802081987506 0.29838854090455325 0.61399999999999999 0 0 0.39370078740157477 F -0.24606349999999999 F 1.3712834999999999 #
edge $-1 $102 $195 $145 $202 forward #
point $-1 -0.09284680208198752 0.29838854090455325 1.0569999999999999 #
point $-1 -0.131002717681164 0.31626853773359948 1.0569999999999999 #
coedge $-1 $165 $104 $106 $158 forward $155 $-1 #
loop $-1 $-1 $120 $189 #
straight-curve $-1 0.19432256234293616 0.4691361654834082 0 0 0 -0.39370078740157477 F -2.9308434999999999 F 0.0085735000000000099 #
coedge $-1 $106 $203 $204 $205 forward $107 $-1 #
edge $-1 $109 $206 $154 $207 reversed #
loop $-1 $-1 $172 $127 #
coedge $-1 $203 $208 $209 $210 forward $107 $-1 #
point $-1 0.19432256234293616 0.4691361654834082 0.61399999999999999 #
point $-1 0.19432256234293616 0.4691361654834082 1.0569999999999999 #
ellipse-curve $-1 0 0 0.61399999999999999 0 0 1 -0.11958857261409049 -0.28871235390977712 0 1 I I #
edge $-1 $182 $166 $130 $211 forward #
coedge $-1 $120 $154 $177 $212 forward $155 $-1 #
vertex $-1 $212 $213 #
ellipse-curve $-1 0.16545132695195838 0.48109502274481725 1.0569999999999999 1.6464353542582394e-031 3.4782695185386597e-030 -1 0.028490142489162845 0.012840338038665406 0 1 I I #
face $-1 $214 $215 $2 $-1 $216 reversed single #
loop $-1 $217 $175 $123 #
cone-surface $-1 0 0 0.0155 0 0 -1 -0.52449999999999997 0 0 1 I I -0.70710678118654768 0.70710678118654746 0.52449999999999997 forward I I I I #
coedge $-1 $171 $171 $218 $219 reversed $125 $-1 #
coedge $-1 $172 $172 $126 $173 forward $159 $-1 #
edge $-1 $220 $220 $172 $221 forward #
plane-surface $-1 0.049090909090909074 3.9735970816934733e-018 0.61399999999999999 0 0 1 0.39370078740157477 0 0 forward_v I I I I #
coedge $-1 $175 $175 $129 $176 forward $169 $-1 #
edge $-1 $222 $222 $129 $223 forward #
coedge $-1 $204 $130 $165 $212 reversed $56 $-1 #
coedge $-1 $131 $224 $225 $226 reversed $56 $-1 #
coedge $-1 $227 $228 $131 $180 forward $107 $-1 #
edge $-1 $183 $229 $131 $230 forward #
coedge $-1 $140 $132 $228 $231 forward $61 $-1 #
vertex $-1 $164 $232 #
vertex $-1 $180 $233 #
straight-curve $-1 -0.17561418487284064 0.51064631406820871 0 0 0 -0.39370078740157477 F -2.9308434999999999 F 0.0085735000000000099 #
face $-1 $234 $235 $2 $-1 $236 forward single #
loop $-1 $-1 $237 $134 #
plane-surface $-1 1.9669305554382694e-016 -0.42288709642073569 1.0569999999999997 3.2928707085164858e-031 1.8441831675473424e-030 1 0.39370078740157477 0 -1.296405790754522e-031 forward_v I I I I #
coedge $-1 $238 $239 $240 $241 forward $135 $-1 #
face $-1 $57 $155 $2 $-1 $242 forward single #
loop $-1 $-1 $243 $137 #
plane-surface $-1 0.11958857261409067 -0.28871235390977701 0.61399999999999999 0.92387953251128674 0.38268343236509006 0 0 0 -0.39370078740157477 forward_v I I I I #
coedge $-1 $244 $245 $237 $246 forward $138 $-1 #
coedge $-1 $146 $145 $140 $194 reversed $92 $-1 #
edge $-1 $247 $195 $193 $248 forward #
vertex $-1 $142 $249 #
ellipse-curve $-1 -0.16545132695195869 0.48109502274481708 1.0569999999999999 1.6464353542582394e-031 3.4782695185386597e-030 -1 -0.028490142489162894 0.0128403380386653 0 1 I I #
coedge $-1 $228 $143 $146 $199 forward $107 $-1 #
ellipse-curve $-1 -0.10213148229018625 0.32822739499500853 0.61399999999999999 0 0 -1 -0.013260160543284816 -0.028297184354036223 0 1 I I #
edge $-1 $147 $247 $197 $250 forward #
point $-1 -0.13100271768116398 0.31626853773359942 0.61399999999999999 #
point $-1 -0.09284680208198752 0.29838854090455325 0.61399999999999999 #
straight-curve $-1 -0.20664905347714863 0.49889494755609481 1.0569999999999999 -0.15066276864767322 0.3637320994138924 0 F -0.5778500000000002 F 0 #
coedge $-1 $157 $160 $251 $252 reversed $107 $-1 #
coedge $-1 $253 $177 $157 $205 reversed $56 $-1 #
edge $-1 $254 $206 $204 $255 forward #
vertex $-1 $205 $256 #
ellipse-curve $-1 0.16545132695195838 0.48109502274481725 0.61399999999999999 0 0 -1 0.028490142489162845 0.012840338038665406 0 1 I I #
coedge $-1 $160 $257 $258 $259 reversed $107 $-1 #
coedge $-1 $260 $243 $160 $210 reversed $190 $-1 #
edge $261 $262 $263 $160 $264 forward #
ellipse-curve $-1 0 0 1.0569999999999999 0 0 -1 0.54000000000000004 0 0 1 I I #
edge $-1 $206 $166 $177 $265 forward #
point $-1 0.17561418487284033 0.51064631406820893 1.0569999999999999 #
face $-1 $85 $266 $2 $-1 $267 forward single #
loop $-1 $268 $269 $168 #
plane-surface $-1 0.049090909090909074 3.9735970816934733e-018 0 0 0 1 0.39370078740157477 0 0 forward_v I I I I #
loop $-1 $-1 $270 $123 #
coedge $-1 $218 $218 $171 $219 forward $266 $-1 #
edge $-1 $271 $271 $171 $272 forward #
vertex $-1 $173 $273 #
ellipse-curve $-1 0 0 0.6140000000000001 0 0 -1 -0.24999999999999997 0 0 1 I I #
vertex $-1 $176 $274 #
ellipse-curve $-1 0 0 0.031 0 0 -1 -0.54000000000000004 0 0 1 I I #
coedge $-1 $178 $253 $275 $276 forward $56 $-1 #
coedge $-1 $277 $278 $178 $226 forward $235 $-1 #
edge $-1 $229 $279 $178 $280 forward #
coedge $-1 $281 $179 $278 $282 reversed $107 $-1 #
coedge $-1 $179 $197 $181 $231 reversed $107 $-1 #
vertex $-1 $180 $283 #
ellipse-curve $-1 0 0 0.61399999999999999 0 0 1 -0.54000000000000004 0 0 1 I I #
edge $-1 $183 $247 $181 $284 reversed #
point $-1 -0.17561418487284067 0.51064631406820882 1.0569999999999999 #
point $-1 -0.17561418487284064 0.51064631406820871 0.61399999999999999 #
face $-1 $285 $286 $2 $-1 $287 forward single #
loop $-1 $-1 $277 $185 #
cone-surface $-1 -0.16545132695195847 -0.48109502274481714 0 0 0 1 -0.028490142489162835 -0.012840338038665428 0 1 I I 0 1 0.031249999999999997 forward I I I I #
coedge $-1 $288 $275 $192 $246 reversed $186 $-1 #
coedge $-1 $258 $188 $260 $289 forward $135 $-1 #
coedge $-1 $188 $258 $290 $291 forward $135 $-1 #
coedge $-1 $292 $288 $188 $241 reversed $186 $-1 #
edge $-1 $293 $294 $240 $295 forward #
cone-surface $-1 0.16545132695195838 0.48109502274481725 0 0 0 1 0.028490142489162845 0.012840338038665406 0 1 I I 0 1 0.031249999999999997 forward I I I I #
coedge $-1 $209 $296 $245 $297 reversed $190 $-1 #
coedge $-1 $251 $192 $253 $298 forward $138 $-1 #
coedge $-1 $192 $251 $243 $297 forward $138 $-1 #
edge $-1 $299 $300 $237 $301 forward #
vertex $-1 $231 $302 #
straight-curve $-1 -0.19432256234293643 0.46913616548340797 0 0 0 0.39370078740157477 F -0.0085735000000000099 F 2.9308434999999999 #
point $-1 -0.19432256234293641 0.46913616548340797 1.0569999999999999 #
straight-curve $-1 -0.056199687712516606 0.13567804827669 0.61399999999999999 -0.15066276864767322 0.3637320994138924 0 I I #
coedge $-1 $245 $244 $203 $252 forward $138 $-1 #
edge $-1 $254 $263 $251 $303 reversed #
coedge $-1 $224 $204 $244 $298 reversed $56 $-1 #
vertex $-1 $205 $304 #
ellipse-curve $-1 0 0 0.61399999999999999 0 0 1 -0.54000000000000004 0 0 1 I I #
point $-1 0.17561418487284033 0.51064631406820893 0.61399999999999999 #
coedge $-1 $208 $305 $306 $307 forward $107 $-1 #
coedge $-1 $239 $238 $208 $259 forward $135 $-1 #
edge $-1 $262 $308 $258 $309 reversed #
coedge $-1 $296 $209 $238 $289 reversed $190 $-1 #
convexity-sys-attrib $-1 $-1 $-1 $210 #
vertex $-1 $210 $310 #
vertex $-1 $252 $311 #
straight-curve $-1 0.0633888849015741 -0.15303430563308706 0.61399999999999999 0.15066276864767325 -0.3637320994138924 0 I I #
straight-curve $-1 0.17561418487284033 0.51064631406820893 0 0 0 0.39370078740157477 F -0.0085735000000000099 F 2.9308434999999999 #
loop $-1 $312 $218 $214 #
cone-surface $-1 0 0 0.015499999999999962 0 0 -1 0.26550000000000001 0 0 1 I I -0.70710678118654857 -0.70710678118654657 0.26550000000000001 forward I I I I #
loop $-1 $-1 $313 $168 #
coedge $-1 $269 $269 $314 $315 reversed $215 $-1 #
coedge $-1 $270 $270 $313 $316 forward $217 $-1 #
vertex $-1 $219 $317 #
ellipse-curve $-1 0 0 0.030999999999999923 0 0 1 0.24999999999999997 0 0 1 I I #
point $-1 0.24999999999999997 0 0.6140000000000001 #
point $-1 0.54000000000000004 0 0.031 #
coedge $-1 $237 $318 $224 $276 reversed $186 $-1 #
edge $-1 $300 $279 $224 $319 forward #
coedge $-1 $320 $225 $318 $321 forward $235 $-1 #
coedge $-1 $225 $320 $227 $282 forward $235 $-1 #
vertex $-1 $321 $322 #
straight-curve $-1 -0.17561418487284042 -0.51064631406820882 0 0 0 0.39370078740157477 F -0.0085735000000000099 F 2.9308434999999995 #
coedge $-1 $305 $227 $323 $324 forward $107 $-1 #
edge $-1 $325 $229 $278 $326 reversed #
point $-1 -0.17561418487284042 -0.51064631406820882 0.61399999999999999 #
ellipse-curve $-1 -0.16545132695195869 0.48109502274481708 0.61399999999999999 0 0 -1 -0.028490142489162894 0.0128403380386653 0 1 I I #
face $-1 $327 $328 $2 $-1 $329 forward single #
loop $-1 $-1 $330 $234 #
plane-surface $-1 -0.20664905347714832 -0.49889494755609493 0.61399999999999999 -0.92387953251128685 0.38268343236508967 0 0 0 0.39370078740157477 forward_v I I I I #
coedge $-1 $240 $237 $296 $331 reversed $186 $-1 #
edge $-1 $294 $262 $260 $332 forward #
coedge $-1 $306 $333 $239 $291 reversed $334 $-1 #
edge $-1 $308 $293 $290 $335 forward #
coedge $-1 $336 $240 $333 $337 reversed $186 $-1 #
vertex $-1 $241 $338 #
vertex $-1 $331 $339 #
ellipse-curve $-1 0.10213148229018632 -0.32822739499500853 1.0569999999999997 -3.2928707085164858e-031 -1.8441831675473424e-030 -1 0.013260160543284816 0.028297184354036223 0 1 I I #
coedge $-1 $243 $260 $288 $331 forward $190 $-1 #
edge $-1 $263 $299 $243 $340 forward #
edge $-1 $300 $254 $253 $341 forward #
vertex $-1 $246 $342 #
vertex $-1 $276 $343 #
ellipse-curve $-1 0.16545132695195872 -0.48109502274481708 1.0569999999999997 -3.2928707085164858e-031 -1.8441831675473424e-030 -1 0.028490142489162894 -0.0128403380386653 0 1 I I #
point $-1 -0.19432256234293638 0.46913616548340786 0.61399999999999999 #
ellipse-curve $-1 0.16545132695195872 -0.48109502274481708 0.61399999999999999 0 0 -1 0.028490142489162894 -0.0128403380386653 0 1 I I #
point $-1 0.1756141848728407 -0.51064631406820871 0.61399999999999999 #
coedge $-1 $257 $281 $344 $345 reversed $107 $-1 #
coedge $-1 $346 $290 $257 $307 reversed $334 $-1 #
edge $347 $348 $308 $257 $349 forward #
vertex $-1 $259 $350 #
ellipse-curve $-1 0.10213148229018632 -0.32822739499500853 0.61399999999999999 0 0 -1 0.013260160543284816 0.028297184354036223 0 1 I I #
point $-1 0.131002717681164 -0.31626853773359942 0.61399999999999999 #
point $-1 0.19432256234293643 -0.46913616548340797 0.61399999999999999 #
loop $-1 $-1 $314 $214 #
coedge $-1 $313 $313 $270 $316 reversed $268 $-1 #
coedge $-1 $314 $314 $269 $315 forward $312 $-1 #
edge $-1 $351 $351 $269 $352 forward #
edge $-1 $353 $353 $313 $354 forward #
point $-1 -0.24999999999999997 0 0.030999999999999923 #
coedge $-1 $275 $355 $277 $321 reversed $186 $-1 #
ellipse-curve $-1 0 0 1.0569999999999999 0 0 -1 0.54000000000000004 0 0 1 I I #
coedge $-1 $278 $277 $330 $356 forward $235 $-1 #
edge $-1 $279 $357 $318 $358 forward #
point $-1 -0.17561418487284045 -0.51064631406820893 1.0569999999999999 #
coedge $-1 $330 $359 $281 $324 reversed $286 $-1 #
edge $-1 $325 $360 $281 $361 forward #
vertex $-1 $324 $362 #
ellipse-curve $-1 -0.16545132695195847 -0.48109502274481714 0.61399999999999999 0 0 -1 -0.028490142489162835 -0.012840338038665428 0 1 I I #
face $-1 $81 $334 $2 $-1 $363 forward single #
loop $-1 $-1 $364 $285 #
cone-surface $-1 -0.10213148229018605 -0.32822739499500858 0.61399999999999999 0 0 1 -0.013260160543284841 0.028297184354036213 0 1 I I 0 1 0.031249999999999997 forward I I I I #
coedge $-1 $365 $323 $320 $356 reversed $286 $-1 #
edge $366 $294 $299 $296 $367 forward #
straight-curve $-1 0.131002717681164 -0.31626853773359942 0.61399999999999999 0 0 -0.39370078740157477 F -1.3712834999999994 F 0.24606349999999999 #
coedge $-1 $290 $346 $292 $337 forward $334 $-1 #
loop $-1 $-1 $290 $327 #
straight-curve $-1 0.092846802081987562 -0.29838854090455319 0.61399999999999999 0 0 0.39370078740157477 F -0.24606349999999999 F 1.3712834999999994 #
coedge $-1 $355 $292 $364 $368 reversed $186 $-1 #
edge $369 $370 $293 $333 $371 forward #
point $-1 0.092846802081987562 -0.29838854090455319 1.0569999999999999 #
point $-1 0.131002717681164 -0.31626853773359948 1.0569999999999999 #
straight-curve $-1 0.19432256234293646 -0.46913616548340797 0 0 0 0.39370078740157477 F -0.0085735000000000099 F 2.9308434999999995 #
straight-curve $-1 0.1756141848728407 -0.51064631406820871 0 0 0 -0.39370078740157477 F -2.9308434999999995 F 0.0085735000000000099 #
point $-1 0.19432256234293646 -0.46913616548340797 1.0569999999999999 #
point $-1 0.1756141848728407 -0.51064631406820871 1.0569999999999999 #
coedge $-1 $372 $373 $305 $345 forward $328 $-1 #
edge $-1 $348 $360 $344 $374 reversed #
coedge $-1 $333 $306 $373 $375 reversed $334 $-1 #
convexity-sys-attrib $-1 $-1 $-1 $307 #
vertex $-1 $307 $376 #
ellipse-curve $-1 0 0 0.61399999999999999 0 0 1 0.11958857261409044 0.28871235390977712 0 1 I I #
point $-1 0.092846802081987562 -0.29838854090455319 0.61399999999999999 #
vertex $-1 $315 $377 #
ellipse-curve $-1 0 0 0 0 0 -1 0.28099999999999997 0 0 1 I I #
vertex $-1 $316 $378 #
ellipse-curve $-1 0 0 0 0 0 1 -0.50900000000000001 0 0 1 I I #
coedge $-1 $318 $336 $365 $379 reversed $186 $-1 #
edge $-1 $357 $325 $330 $380 forward #
vertex $-1 $379 $381 #
ellipse-curve $-1 -0.16545132695195847 -0.48109502274481714 1.0569999999999997 -3.2928707085164858e-031 -1.8441831675473424e-030 -1 -0.028490142489162835 -0.012840338038665428 0 1 I I #
coedge $-1 $323 $365 $372 $382 reversed $286 $-1 #
vertex $-1 $345 $383 #
straight-curve $-1 -0.099729928144045396 -0.24076934509984893 0.61399999999999999 0.15066276864767308 0.36373209941389245 0 I I #
point $-1 -0.19432256234293616 -0.46913616548340814 0.61399999999999999 #
cone-surface $-1 0 0 0.61399999999999999 0 0 1 0.11958857261409044 0.28871235390977712 0 1 I I 0 -1 0.31249999999999994 forward I I I I #
coedge $-1 $373 $372 $336 $368 forward $328 $-1 #
coedge $-1 $359 $330 $355 $379 forward $286 $-1 #
convexity-sys-attrib $-1 $-1 $-1 $331 #
straight-curve $-1 0.20664905347714868 -0.49889494755609481 1.0569999999999999 0.15066276864767325 -0.3637320994138924 0 F -0.57785000000000031 F 0 #
edge $-1 $384 $370 $336 $385 forward #
convexity-sys-attrib $-1 $-1 $-1 $337 #
vertex $-1 $337 $386 #
ellipse-curve $-1 0 0 1.0569999999999999 0 0 1 0.11958857261409044 0.28871235390977712 0 1 F -3.1415926535897931 F -2.3561944901923448 #
coedge $-1 $364 $344 $359 $382 forward $328 $-1 #
coedge $-1 $344 $364 $346 $375 forward $328 $-1 #
ellipse-curve $-1 -0.10213148229018605 -0.32822739499500858 0.61399999999999999 0 0 -1 -0.013260160543284841 0.028297184354036213 0 1 I I #
edge $-1 $370 $348 $346 $387 forward #
point $-1 -0.092846802081987312 -0.29838854090455325 0.61399999999999999 #
point $-1 -0.28099999999999997 0 0 #
point $-1 0.50900000000000001 0 0 #
edge $-1 $357 $384 $365 $388 forward #
straight-curve $-1 -0.19432256234293616 -0.46913616548340814 0 0 0 -0.39370078740157477 F -2.9308434999999995 F 0.0085735000000000099 #
point $-1 -0.19432256234293616 -0.46913616548340814 1.0569999999999999 #
edge $-1 $360 $384 $359 $389 forward #
point $-1 -0.13100271768116376 -0.31626853773359953 0.61399999999999999 #
vertex $-1 $382 $390 #
ellipse-curve $-1 -0.10213148229018605 -0.32822739499500858 1.0569999999999997 -3.2928707085164858e-031 -1.8441831675473424e-030 -1 -0.013260160543284841 0.028297184354036213 0 1 I I #
point $-1 -0.092846802081987312 -0.29838854090455325 1.0569999999999999 #
straight-curve $-1 -0.092846802081987326 -0.2983885409045533 0.61399999999999999 0 0 -0.39370078740157477 F -1.3712834999999994 F 0.24606349999999999 #
straight-curve $-1 -0.11958857261409044 -0.28871235390977718 1.0569999999999999 0.15066276864767306 0.3637320994138924 0 F -0.57784999999999997 F 0 #
straight-curve $-1 -0.13100271768116376 -0.31626853773359953 0.61399999999999999 0 0 0.39370078740157477 F -0.24606349999999999 F 1.3712834999999994 #
point $-1 -0.13100271768116376 -0.31626853773359953 1.0569999999999999 #
End-of-ACIS-data 