400 0 1 0           
7 Unknown 11 ACIS 6.0 NT 24 Mon Jan 21 08:37:28 2002 
25.399999999999999 9.9999999999999995e-007 1e-010 
body $-1 $1 $-1 $-1 #
lump $-1 $-1 $2 $0 #
shell $-1 $-1 $-1 $3 $-1 $1 #
face $-1 $4 $5 $2 $-1 $6 forward single #
face $-1 $7 $8 $2 $-1 $9 forward single #
loop $-1 $-1 $10 $3 #
cone-surface $-1 0.51438528084505153 -0.65440441438159169 0 0 0 1 0.0070710678118654745 -0.0070710678118654745 0 1 I I 0 1 0.0099999999999999985 forward I I I I #
face $-1 $11 $12 $2 $-1 $13 forward single #
loop $-1 $14 $15 $4 #
plane-surface $-1 0.024385280845051434 0.33559558561840824 0.99999999999999989 0 0 1 0.39370078740157477 0 0 forward_v I I I I #
coedge $-1 $16 $17 $18 $19 forward $5 $-1 #
face $-1 $20 $21 $2 $-1 $22 forward single #
loop $-1 $-1 $23 $7 #
plane-surface $-1 0.52438528084505109 1.3355955856184083 0 1 2.1854783949314106e-016 0 0 0 -0.39370078740157477 forward_v I I I I #
loop $-1 $-1 $18 $4 #
coedge $-1 $24 $25 $26 $27 forward $8 $-1 #
coedge $-1 $28 $10 $29 $30 forward $5 $-1 #
coedge $-1 $10 $28 $23 $31 forward $5 $-1 #
coedge $-1 $32 $33 $10 $19 reversed $14 $-1 #
edge $-1 $34 $35 $18 $36 forward #
face $-1 $37 $38 $2 $-1 $39 forward single #
loop $-1 $-1 $40 $11 #
cone-surface $-1 0.51438528084505108 1.3255955856184083 0 0 0 1 0.0070710678118654762 0.0070710678118654762 0 1 I I 0 1 0.010000000000000002 forward I I I I #
coedge $-1 $41 $42 $17 $31 reversed $12 $-1 #
coedge $-1 $43 $15 $44 $45 forward $8 $-1 #
coedge $-1 $15 $43 $46 $47 forward $8 $-1 #
coedge $-1 $48 $49 $15 $27 reversed $50 $-1 #
edge $-1 $51 $52 $15 $53 forward #
coedge $-1 $17 $16 $54 $55 forward $5 $-1 #
coedge $-1 $56 $57 $16 $30 reversed $58 $-1 #
edge $-1 $35 $59 $29 $60 forward #
edge $-1 $61 $34 $23 $62 forward #
coedge $-1 $63 $18 $42 $64 reversed $14 $-1 #
coedge $-1 $18 $65 $56 $66 reversed $14 $-1 #
vertex $-1 $31 $67 #
vertex $-1 $66 $68 #
ellipse-curve $-1 0.51438528084505153 -0.65440441438159169 0.99999999999999989 0 0 -1 0.0070710678118654745 -0.0070710678118654745 0 1 I I #
face $-1 $69 $70 $2 $-1 $71 forward single #
loop $-1 $-1 $72 $20 #
cone-surface $-1 -0.46561471915494829 -0.65440441438159169 0 0 0 1 -0.0070710678118654745 -0.0070710678118654745 0 1 I I 0 1 0.0099999999999999985 forward I I I I #
coedge $-1 $73 $74 $63 $75 forward $21 $-1 #
coedge $-1 $76 $23 $77 $78 forward $12 $-1 #
coedge $-1 $23 $76 $32 $64 forward $12 $-1 #
coedge $-1 $25 $24 $79 $80 forward $8 $-1 #
coedge $-1 $81 $82 $24 $45 reversed $83 $-1 #
edge $-1 $52 $84 $24 $85 forward #
coedge $-1 $86 $87 $25 $47 reversed $88 $-1 #
edge $-1 $89 $51 $25 $90 forward #
coedge $-1 $91 $26 $87 $92 reversed $50 $-1 #
coedge $-1 $26 $91 $81 $93 forward $50 $-1 #
loop $-1 $-1 $26 $94 #
vertex $-1 $27 $95 #
vertex $-1 $27 $96 #
straight-curve $-1 -0.16311471915494888 1.2105955856184079 0.99999999999999989 0.39370078740157477 1.8355724051917357e-016 0 I I #
coedge $-1 $97 $77 $28 $55 reversed $98 $-1 #
edge $-1 $59 $61 $54 $99 forward #
coedge $-1 $100 $29 $33 $66 forward $58 $-1 #
coedge $-1 $29 $100 $97 $101 forward $58 $-1 #
loop $-1 $-1 $29 $102 #
vertex $-1 $55 $103 #
straight-curve $-1 0.51438528084505153 -0.6644044143815917 0 0 0 -0.39370078740157477 F -2.6187410000000004 F 0.078741000000000005 #
vertex $-1 $78 $104 #
straight-curve $-1 0.52438528084505154 -0.65440441438159169 0 0 0 0.39370078740157477 F -0.078741000000000005 F 2.6187410000000004 #
coedge $-1 $105 $32 $40 $75 reversed $14 $-1 #
edge $106 $107 $34 $42 $108 forward #
coedge $-1 $33 $109 $72 $110 reversed $14 $-1 #
edge $-1 $35 $111 $56 $112 forward #
point $-1 0.52438528084505154 -0.65440441438159169 0.99999999999999989 #
point $-1 0.51438528084505164 -0.6644044143815917 0.99999999999999989 #
face $-1 $94 $113 $2 $-1 $114 forward single #
loop $-1 $-1 $115 $37 #
plane-surface $-1 -0.47561471915494818 -0.66440441438159181 0 -1 -3.0596697529039747e-016 0 0 0 0.39370078740157477 forward_v I I I I #
coedge $-1 $116 $117 $65 $110 forward $38 $-1 #
coedge $-1 $118 $40 $76 $119 forward $21 $-1 #
coedge $-1 $40 $118 $120 $121 forward $21 $-1 #
edge $-1 $122 $107 $63 $123 forward #
coedge $-1 $42 $41 $73 $119 reversed $12 $-1 #
coedge $-1 $54 $124 $41 $78 reversed $98 $-1 #
edge $-1 $61 $125 $41 $126 forward #
coedge $-1 $127 $128 $43 $80 reversed $129 $-1 #
edge $-1 $84 $89 $43 $130 forward #
coedge $-1 $131 $44 $49 $93 reversed $83 $-1 #
coedge $-1 $44 $131 $127 $132 forward $83 $-1 #
loop $-1 $-1 $44 $133 #
vertex $-1 $45 $134 #
straight-curve $-1 0.39938528084505132 0.7730955856184083 0.99999999999999989 7.8667388793931534e-017 -0.39370078740157477 0 I I #
coedge $-1 $135 $46 $128 $136 reversed $88 $-1 #
coedge $-1 $46 $135 $48 $92 forward $88 $-1 #
loop $-1 $-1 $46 $137 #
vertex $-1 $80 $138 #
straight-curve $-1 -0.35061471915494841 -0.10190441438159183 0.99999999999999989 -1.1800108319089732e-016 0.39370078740157477 0 I I #
coedge $-1 $49 $48 $139 $140 reversed $50 $-1 #
edge $-1 $141 $51 $48 $142 forward #
edge $-1 $143 $52 $81 $144 forward #
face $-1 $133 $50 $2 $-1 $145 reversed single #
point $-1 -0.35061471915494885 1.2105955856184079 0.99999999999999989 #
point $-1 0.39938528084505126 1.2105955856184083 0.99999999999999989 #
coedge $-1 $146 $54 $57 $101 reversed $98 $-1 #
loop $-1 $147 $54 $148 #
ellipse-curve $-1 0.51438528084505153 -0.65440441438159169 0 0 0 1 0.0070710678118654745 -0.0070710678118654745 0 1 I I #
coedge $-1 $57 $56 $117 $149 reversed $58 $-1 #
edge $150 $151 $59 $57 $152 forward #
face $-1 $148 $58 $2 $-1 $153 forward single #
point $-1 0.51438528084505164 -0.6644044143815917 0 #
point $-1 0.52438528084505154 -0.65440441438159169 0 #
coedge $-1 $154 $63 $155 $156 reversed $14 $-1 #
convexity-sys-attrib $-1 $-1 $-1 $64 #
vertex $-1 $64 $157 #
straight-curve $-1 0.52438528084505154 -0.66440441438159159 0.99999999999999989 8.6042456493362618e-017 -0.39370078740157477 0 F -5.0800000000000001 F 0 #
coedge $-1 $65 $154 $158 $159 reversed $14 $-1 #
edge $-1 $111 $160 $65 $161 forward #
vertex $-1 $110 $162 #
straight-curve $-1 -0.47561471915494818 -0.66440441438159181 0.99999999999999989 -0.39370078740157477 -3.4416982597345049e-017 0 F -2.5399999999999996 F 0 #
loop $-1 $-1 $163 $69 #
cone-surface $-1 -0.46561471915494879 1.3255955856184083 0 0 0 1 -0.0070710678118654762 0.0070710678118654762 0 1 I I 0 1 0.010000000000000002 forward I I I I #
coedge $-1 $158 $164 $116 $165 reversed $70 $-1 #
coedge $-1 $166 $72 $115 $165 forward $38 $-1 #
coedge $-1 $72 $166 $100 $149 forward $38 $-1 #
coedge $-1 $74 $73 $124 $167 forward $21 $-1 #
edge $-1 $107 $125 $76 $168 forward #
coedge $-1 $169 $155 $74 $121 reversed $170 $-1 #
edge $-1 $171 $122 $120 $172 forward #
vertex $-1 $75 $173 #
ellipse-curve $-1 0.51438528084505108 1.3255955856184083 0.99999999999999989 0 0 -1 0.0070710678118654762 0.0070710678118654762 0 1 I I #
coedge $-1 $77 $174 $118 $167 reversed $98 $-1 #
vertex $-1 $119 $175 #
straight-curve $-1 0.52438528084505154 -0.66440441438159159 0 -8.6042456493362618e-017 0.39370078740157477 0 F 0 F 5.0800000000000001 #
coedge $-1 $176 $79 $82 $132 reversed $129 $-1 #
coedge $-1 $79 $176 $86 $136 forward $129 $-1 #
loop $-1 $-1 $79 $177 #
straight-curve $-1 0.21188528084505168 -0.53940441438159148 0.99999999999999989 -0.39370078740157477 -1.3766793038938019e-016 0 I I #
coedge $-1 $82 $81 $178 $179 reversed $83 $-1 #
edge $-1 $180 $84 $127 $181 forward #
face $-1 $177 $83 $2 $-1 $182 reversed single #
point $-1 0.39938528084505159 -0.53940441438159148 0.99999999999999989 #
coedge $-1 $87 $86 $183 $184 reversed $88 $-1 #
edge $-1 $185 $89 $86 $186 forward #
face $-1 $187 $88 $2 $-1 $188 reversed single #
point $-1 -0.3506147191549483 -0.5394044143815917 0.99999999999999989 #
coedge $-1 $183 $178 $91 $140 forward $147 $-1 #
edge $-1 $143 $141 $139 $189 forward #
vertex $-1 $140 $190 #
straight-curve $-1 -0.35061471915494885 1.2105955856184079 0 0 0 0.39370078740157477 I I #
vertex $-1 $140 $191 #
straight-curve $-1 0.39938528084505126 1.2105955856184083 0 0 0 0.39370078740157477 I I #
plane-surface $-1 -0.35061471915494885 1.2105955856184079 0 -4.662353909187009e-016 1 0 0 0 0.39370078740157477 forward_v I I I I #
coedge $-1 $192 $97 $166 $193 reversed $98 $-1 #
loop $-1 $-1 $139 $148 #
face $-1 $-1 $98 $2 $-1 $194 reversed single #
edge $-1 $151 $111 $100 $195 forward #
convexity-sys-attrib $-1 $-1 $-1 $101 #
vertex $-1 $101 $196 #
straight-curve $-1 -0.47561471915494818 -0.66440441438159181 0 0.39370078740157477 3.4416982597345049e-017 0 F 0 F 2.5399999999999996 #
plane-surface $-1 0.52438528084505154 -0.6644044143815917 0 8.7419135797256438e-017 -1 0 0 0 -0.39370078740157477 forward_v I I I I #
coedge $-1 $109 $105 $163 $197 reversed $14 $-1 #
coedge $-1 $120 $198 $105 $156 forward $170 $-1 #
edge $199 $200 $122 $155 $201 forward #
point $-1 0.52438528084505109 1.3255955856184085 0.99999999999999989 #
coedge $-1 $202 $115 $109 $159 forward $70 $-1 #
edge $-1 $160 $203 $158 $204 forward #
vertex $-1 $159 $205 #
ellipse-curve $-1 -0.46561471915494829 -0.65440441438159169 0.99999999999999989 0 0 -1 -0.0070710678118654745 -0.0070710678118654745 0 1 I I #
point $-1 -0.46561471915494829 -0.66440441438159181 0.99999999999999989 #
coedge $-1 $206 $207 $154 $197 forward $113 $-1 #
coedge $-1 $115 $202 $192 $208 forward $70 $-1 #
edge $-1 $160 $209 $115 $210 forward #
coedge $-1 $117 $116 $146 $193 forward $38 $-1 #
edge $-1 $125 $171 $124 $211 forward #
straight-curve $-1 0.52438528084505109 1.3255955856184083 0 0 0 -0.39370078740157477 F -2.6187410000000004 F 0.078741000000000005 #
coedge $-1 $198 $120 $174 $212 forward $170 $-1 #
loop $-1 $-1 $120 $187 #
vertex $-1 $212 $213 #
straight-curve $-1 0.51438528084505108 1.3355955856184083 0 0 0 0.39370078740157477 F -0.078741000000000005 F 2.6187410000000004 #
point $-1 0.51438528084505108 1.3355955856184083 0.99999999999999989 #
coedge $-1 $124 $214 $169 $212 reversed $98 $-1 #
point $-1 0.52438528084505109 1.3255955856184085 0 #
coedge $-1 $128 $127 $215 $216 reversed $129 $-1 #
face $-1 $137 $129 $2 $-1 $217 reversed single #
coedge $-1 $139 $215 $131 $179 forward $147 $-1 #
edge $-1 $180 $143 $178 $218 forward #
vertex $-1 $179 $219 #
straight-curve $-1 0.39938528084505159 -0.53940441438159148 0 0 0 0.39370078740157477 I I #
plane-surface $-1 0.39938528084505126 1.2105955856184083 0 1 1.998151675365861e-016 0 0 0 -0.39370078740157477 forward_v I I I I #
coedge $-1 $215 $139 $135 $184 forward $147 $-1 #
edge $-1 $141 $185 $183 $220 forward #
vertex $-1 $216 $221 #
straight-curve $-1 -0.3506147191549483 -0.5394044143815917 0 0 0 0.39370078740157477 I I #
face $-1 $102 $170 $2 $-1 $222 forward single #
plane-surface $-1 -0.3506147191549483 -0.5394044143815917 0 -1 -2.9972275130487919e-016 0 0 0 0.39370078740157477 forward_v I I I I #
straight-curve $-1 -0.16311471915494888 1.2105955856184079 0 -0.39370078740157477 -1.8355724051917357e-016 0 I I #
point $-1 -0.35061471915494885 1.2105955856184079 0 #
point $-1 0.39938528084505126 1.2105955856184083 0 #
coedge $-1 $214 $146 $164 $208 reversed $98 $-1 #
edge $-1 $209 $151 $146 $223 forward #
plane-surface $-1 0.024385280845051434 0.33559558561840819 0 0 0 1 0.39370078740157477 0 0 forward_v I I I I #
straight-curve $-1 -0.46561471915494829 -0.66440441438159181 0 0 0 0.39370078740157477 F -0.078741000000000005 F 2.6187410000000004 #
point $-1 -0.46561471915494829 -0.66440441438159181 0 #
edge $-1 $203 $200 $154 $224 forward #
coedge $-1 $155 $169 $206 $225 reversed $170 $-1 #
convexity-sys-attrib $-1 $-1 $-1 $156 #
vertex $-1 $156 $226 #
straight-curve $-1 0.52438528084505109 1.3355955856184083 0.99999999999999989 0.39370078740157477 0 0 F -2.54 F 0 #
coedge $-1 $164 $158 $207 $227 reversed $70 $-1 #
vertex $-1 $227 $228 #
straight-curve $-1 -0.4756147191549488 1.3355955856184081 0.99999999999999989 -1.2045943909070766e-016 0.39370078740157477 0 F -5.0800000000000001 F 0 #
point $-1 -0.47561471915494818 -0.65440441438159169 0.99999999999999989 #
coedge $-1 $229 $163 $198 $225 forward $113 $-1 #
coedge $-1 $163 $229 $202 $227 forward $113 $-1 #
edge $230 $231 $209 $164 $232 forward #
vertex $-1 $165 $233 #
straight-curve $-1 -0.47561471915494818 -0.65440441438159169 0 0 0 -0.39370078740157477 F -2.6187410000000004 F 0.078741000000000005 #
ellipse-curve $-1 0.51438528084505108 1.3255955856184083 0 0 0 1 0.0070710678118654762 0.0070710678118654762 0 1 I I #
edge $-1 $171 $234 $169 $235 forward #
point $-1 0.51438528084505108 1.3355955856184083 0 #
coedge $-1 $174 $192 $229 $236 reversed $98 $-1 #
coedge $-1 $178 $183 $176 $216 forward $147 $-1 #
edge $-1 $185 $180 $215 $237 forward #
plane-surface $-1 0.39938528084505159 -0.53940441438159148 0 3.4967654318902575e-016 -1 0 0 0 -0.39370078740157477 forward_v I I I I #
straight-curve $-1 0.39938528084505132 0.77309558561840819 0 -7.8667388793931534e-017 0.39370078740157477 0 I I #
point $-1 0.39938528084505159 -0.53940441438159148 0 #
straight-curve $-1 -0.35061471915494841 -0.10190441438159184 0 1.1800108319089732e-016 -0.39370078740157477 0 I I #
point $-1 -0.3506147191549483 -0.5394044143815917 0 #
plane-surface $-1 -0.4756147191549488 1.3355955856184083 0 0 1 0 0 0 0.39370078740157477 forward_v I I I I #
ellipse-curve $-1 -0.46561471915494829 -0.65440441438159169 0 0 0 1 -0.0070710678118654745 -0.0070710678118654745 0 1 I I #
ellipse-curve $-1 -0.46561471915494879 1.3255955856184083 0.99999999999999989 0 0 -1 -0.0070710678118654762 0.0070710678118654762 0 1 I I #
edge $-1 $200 $234 $198 $238 forward #
point $-1 -0.46561471915494868 1.3355955856184083 0.99999999999999989 #
edge $-1 $231 $203 $202 $239 forward #
point $-1 -0.4756147191549488 1.3255955856184083 0.99999999999999989 #
coedge $-1 $207 $206 $214 $236 forward $113 $-1 #
convexity-sys-attrib $-1 $-1 $-1 $208 #
vertex $-1 $208 $240 #
straight-curve $-1 -0.4756147191549488 1.3355955856184081 0 1.2045943909070766e-016 -0.39370078740157477 0 F 0 F 5.0800000000000001 #
point $-1 -0.47561471915494818 -0.65440441438159169 0 #
vertex $-1 $236 $241 #
straight-curve $-1 0.52438528084505109 1.3355955856184083 0 -0.39370078740157477 0 0 F 0 F 2.54 #
edge $-1 $234 $231 $214 $242 forward #
straight-curve $-1 0.21188528084505168 -0.53940441438159159 0 0.39370078740157477 1.3766793038938019e-016 0 I I #
straight-curve $-1 -0.46561471915494879 1.3355955856184083 0 0 0 -0.39370078740157477 F -2.6187410000000004 F 0.078741000000000005 #
straight-curve $-1 -0.4756147191549488 1.3255955856184083 0 0 0 0.39370078740157477 F -0.078741000000000005 F 2.6187410000000004 #
point $-1 -0.4756147191549488 1.3255955856184083 0 #
point $-1 -0.46561471915494868 1.3355955856184083 0 #
ellipse-curve $-1 -0.46561471915494879 1.3255955856184083 0 0 0 1 -0.0070710678118654762 0.0070710678118654762 0 1 I I #
End-of-ACIS-data 