400 0 1 0           
7 Unknown 11 ACIS 6.0 NT 24 Fri Dec 07 16:38:10 2001 
25.399999999999999 9.9999999999999995e-007 1e-010 
body $-1 $1 $-1 $-1 #
lump $-1 $-1 $2 $0 #
shell $-1 $-1 $-1 $3 $-1 $1 #
face $-1 $4 $5 $2 $-1 $6 reversed single #
face $-1 $7 $8 $2 $-1 $9 reversed single #
loop $-1 $10 $11 $3 #
plane-surface $-1 -6.0266060719605177e-017 0.49212598425196846 0.089999999999999997 0 0 -1 0.39370078740157477 0 0 reverse_v I I I I #
face $-1 $12 $13 $2 $-1 $14 reversed single #
loop $-1 $15 $16 $4 #
cone-surface $-1 -6.0266060719605177e-017 0.49212598425196846 0.16 0 0 1 0.11811023622047245 0 0 1 I I 0 1 0.11811023622047245 reversed I I I I #
loop $-1 $-1 $17 $3 #
coedge $-1 $11 $11 $18 $19 forward $5 $-1 #
face $-1 $20 $21 $2 $-1 $22 reversed single #
loop $-1 $23 $24 $7 #
cone-surface $-1 -6.0266060719605177e-017 0.49212598425196846 -2.4049383294490969 0 0 1 0.063976377952755903 0 0 1 I I 0 1 0.063976377952755903 reversed I I I I #
loop $-1 $-1 $18 $4 #
coedge $-1 $16 $16 $25 $26 reversed $8 $-1 #
coedge $-1 $17 $17 $27 $28 reversed $10 $-1 #
coedge $-1 $18 $18 $11 $19 reversed $15 $-1 #
edge $-1 $29 $29 $11 $30 forward #
face $-1 $31 $32 $2 $-1 $33 reversed single #
loop $-1 $34 $35 $12 #
plane-surface $-1 6.0266060719605177e-017 -0.49212598425196846 0.089999999999999997 0 0 -1 0.39370078740157477 0 0 reverse_v I I I I #
loop $-1 $-1 $27 $7 #
coedge $-1 $24 $24 $36 $37 reversed $13 $-1 #
coedge $-1 $25 $25 $16 $26 forward $38 $-1 #
edge $-1 $39 $39 $25 $40 forward #
coedge $-1 $27 $27 $17 $28 forward $23 $-1 #
edge $-1 $41 $41 $27 $42 forward #
vertex $-1 $19 $43 #
ellipse-curve $-1 -6.0266060719605177e-017 0.49212598425196846 0.089999999999999997 0 0 1 0.11811023622047245 0 0 1 I I #
face $-1 $44 $45 $2 $-1 $46 reversed single #
loop $-1 $47 $48 $20 #
cone-surface $-1 6.0266060719605177e-017 -0.49212598425196846 0.16 0 0 1 0.11811023622047245 0 0 1 I I 0 1 0.11811023622047245 reversed I I I I #
loop $-1 $-1 $49 $12 #
coedge $-1 $35 $35 $50 $51 forward $21 $-1 #
coedge $-1 $36 $36 $24 $37 forward $52 $-1 #
edge $-1 $53 $53 $36 $54 forward #
loop $-1 $55 $25 $56 #
vertex $-1 $26 $57 #
ellipse-curve $-1 -6.0266060719605177e-017 0.49212598425196846 0.23000000000000001 0 0 -1 0.11811023622047245 0 0 1 I I #
vertex $-1 $28 $58 #
ellipse-curve $-1 -6.0266060719605177e-017 0.49212598425196846 0.090000000000000052 0 0 1 0.063976377952755903 0 0 1 I I #
point $-1 0.11811023622047238 0.49212598425196846 0.089999999999999997 #
face $-1 $59 $60 $2 $-1 $61 reversed single #
loop $-1 $62 $63 $31 #
cone-surface $-1 6.0266060719605177e-017 -0.49212598425196846 -2.4049383294490969 0 0 1 0.063976377952755903 0 0 1 I I 0 1 0.063976377952755903 reversed I I I I #
loop $-1 $-1 $50 $20 #
coedge $-1 $48 $48 $64 $65 reversed $32 $-1 #
coedge $-1 $49 $49 $66 $67 reversed $34 $-1 #
coedge $-1 $50 $50 $35 $51 reversed $47 $-1 #
edge $-1 $68 $68 $35 $69 forward #
loop $-1 $70 $36 $71 #
vertex $-1 $37 $72 #
ellipse-curve $-1 -6.0266060719605177e-017 0.49212598425196846 0 0 0 1 0.063976377952755903 0 0 1 I I #
loop $-1 $73 $64 $56 #
face $-1 $74 $38 $2 $-1 $75 forward single #
point $-1 0.11811023622047238 0.49212598425196846 0.23000000000000001 #
point $-1 -0.063976377952755972 0.49212598425196846 0.090000000000000052 #
face $-1 $76 $77 $2 $-1 $78 reversed single #
loop $-1 $79 $80 $44 #
plane-surface $-1 -0.57086614173228345 0 0.089999999999999997 0 0 -1 0.39370078740157477 0 0 reverse_v I I I I #
loop $-1 $-1 $66 $31 #
coedge $-1 $63 $63 $81 $82 reversed $45 $-1 #
coedge $-1 $64 $64 $48 $65 forward $55 $-1 #
edge $-1 $83 $83 $64 $84 forward #
coedge $-1 $66 $66 $49 $67 forward $62 $-1 #
edge $-1 $85 $85 $66 $86 forward #
vertex $-1 $51 $87 #
ellipse-curve $-1 6.0266060719605177e-017 -0.49212598425196846 0.089999999999999997 0 0 1 0.11811023622047245 0 0 1 I I #
loop $-1 $88 $81 $71 #
face $-1 $89 $52 $2 $-1 $90 reversed single #
point $-1 -0.063976377952755972 0.49212598425196846 0 #
loop $-1 $91 $92 $56 #
face $-1 $93 $94 $2 $-1 $95 forward single #
plane-surface $-1 0.068181818181818163 -7.9471941633869465e-018 0.23000000000000001 0 0 1 0.39370078740157477 0 0 forward_v I I I I #
face $-1 $96 $97 $2 $-1 $98 reversed single #
loop $-1 $99 $100 $59 #
cone-surface $-1 -0.57086614173228345 0 0.16 0 0 1 0.14999999999999999 0 0 1 I I 0 1 0.14999999999999999 reversed I I I I #
loop $-1 $-1 $101 $44 #
coedge $-1 $80 $80 $102 $103 forward $60 $-1 #
coedge $-1 $81 $81 $63 $82 forward $70 $-1 #
edge $-1 $104 $104 $81 $105 forward #
vertex $-1 $65 $106 #
ellipse-curve $-1 6.0266060719605177e-017 -0.49212598425196846 0.23000000000000001 0 0 -1 0.11811023622047245 0 0 1 I I #
vertex $-1 $67 $107 #
ellipse-curve $-1 6.0266060719605177e-017 -0.49212598425196846 0.090000000000000052 0 0 1 0.063976377952755903 0 0 1 I I #
point $-1 0.11811023622047251 -0.49212598425196846 0.089999999999999997 #
loop $-1 $108 $109 $71 #
face $-1 $110 $111 $2 $-1 $112 reversed single #
plane-surface $-1 0.090909090909090925 -7.9471941633869465e-018 0 0 0 1 0.39370078740157477 0 0 forward_v I I I I #
loop $-1 $113 $114 $56 #
coedge $-1 $92 $92 $100 $115 forward $73 $-1 #
face $-1 $116 $117 $2 $-1 $95 forward single #
loop $-1 $-1 $118 $74 #
cone-surface $-1 0 0 0.099999999999999992 0 0 -1 -0.84999999999999987 0 0 1 I I 0 1 0.84999999999999987 forward I I I I #
face $-1 $119 $120 $2 $-1 $121 reversed single #
loop $-1 $122 $123 $76 #
cone-surface $-1 -0.57086614173228345 0 -2.4049383294490969 0 0 1 0.080000000000000002 0 0 1 I I 0 1 0.080000000000000002 reversed I I I I #
loop $-1 $-1 $102 $59 #
coedge $-1 $100 $100 $92 $115 reversed $77 $-1 #
coedge $-1 $101 $101 $124 $125 reversed $79 $-1 #
coedge $-1 $102 $102 $80 $103 reversed $99 $-1 #
edge $-1 $126 $126 $80 $127 forward #
vertex $-1 $82 $128 #
ellipse-curve $-1 6.0266060719605177e-017 -0.49212598425196846 0 0 0 1 0.063976377952755903 0 0 1 I I #
point $-1 0.11811023622047251 -0.49212598425196846 0.23000000000000001 #
point $-1 -0.063976377952755834 -0.49212598425196846 0.090000000000000052 #
loop $-1 $129 $130 $71 #
coedge $-1 $109 $109 $123 $131 forward $88 $-1 #
face $-1 $132 $133 $2 $-1 $112 reversed single #
loop $-1 $-1 $134 $89 #
plane-surface $-1 1.0363432828706192 -0.29999999999999999 0.099999999999999992 0 1 0 0 0 0.39370078740157477 forward_v I I I I #
loop $-1 $135 $136 $56 #
coedge $-1 $114 $114 $137 $138 forward $91 $-1 #
edge $-1 $139 $139 $92 $140 forward #
face $-1 $141 $142 $2 $-1 $143 reversed single #
loop $-1 $-1 $144 $93 #
coedge $-1 $145 $146 $147 $148 reversed $94 $-1 #
face $-1 $149 $150 $2 $-1 $151 reversed single #
loop $-1 $152 $153 $96 #
plane-surface $-1 0.57086614173228345 0 0.089999999999999997 0 0 -1 0.39370078740157477 0 0 reverse_v I I I I #
loop $-1 $-1 $124 $76 #
coedge $-1 $123 $123 $109 $131 reversed $97 $-1 #
coedge $-1 $124 $124 $101 $125 forward $122 $-1 #
edge $-1 $154 $154 $124 $155 forward #
vertex $-1 $103 $156 #
ellipse-curve $-1 -0.57086614173228345 0 0.089999999999999997 0 0 1 0.14999999999999999 0 0 1 I I #
point $-1 -0.063976377952755834 -0.49212598425196846 0 #
loop $-1 $157 $158 $71 #
coedge $-1 $130 $130 $159 $160 forward $108 $-1 #
edge $-1 $161 $161 $109 $162 forward #
face $-1 $163 $164 $2 $-1 $165 forward single #
loop $-1 $-1 $147 $110 #
coedge $-1 $166 $167 $168 $169 forward $111 $-1 #
loop $-1 $-1 $170 $56 #
coedge $-1 $136 $136 $171 $172 forward $113 $-1 #
coedge $-1 $137 $137 $114 $138 reversed $150 $-1 #
edge $-1 $173 $173 $114 $174 forward #
vertex $-1 $115 $175 #
ellipse-curve $-1 -0.57086614173228345 0 0.23000000000000001 0 0 -1 0.14999999999999999 0 0 1 I I #
face $-1 $71 $176 $2 $-1 $143 reversed single #
loop $-1 $-1 $177 $116 #
plane-surface $-1 -1.0034434961128218 0.29999999999999982 0.099999999999999992 1.3032263927397971e-016 -1 0 0 0 -0.39370078740157477 forward_v I I I I #
coedge $-1 $178 $179 $180 $181 reversed $117 $-1 #
coedge $-1 $168 $118 $182 $183 forward $94 $-1 #
coedge $-1 $118 $168 $184 $185 forward $94 $-1 #
coedge $-1 $186 $187 $118 $148 forward $133 $-1 #
edge $-1 $188 $189 $147 $190 forward #
face $-1 $191 $192 $2 $-1 $193 reversed single #
loop $-1 $194 $137 $119 #
cone-surface $-1 0.57086614173228345 0 0.16 0 0 1 0.14999999999999999 0 0 1 I I 0 1 0.14999999999999999 reversed I I I I #
loop $-1 $-1 $195 $96 #
coedge $-1 $153 $153 $196 $197 forward $120 $-1 #
vertex $-1 $125 $198 #
ellipse-curve $-1 -0.57086614173228345 0 0.090000000000000052 0 0 1 0.080000000000000002 0 0 1 I I #
point $-1 -0.42086614173228348 0 0.089999999999999997 #
loop $-1 $-1 $199 $71 #
coedge $-1 $158 $158 $200 $201 forward $129 $-1 #
coedge $-1 $159 $159 $130 $160 reversed $192 $-1 #
edge $-1 $202 $202 $130 $203 forward #
vertex $-1 $131 $204 #
ellipse-curve $-1 -0.57086614173228345 0 0 0 0 1 0.080000000000000002 0 0 1 I I #
face $-1 $205 $206 $2 $-1 $165 forward single #
loop $-1 $-1 $207 $132 #
cone-surface $-1 0 0 0 0 0 1 -0.99999999999999989 0 0 1 I I 0 1 0.99999999999999989 forward I I I I #
coedge $-1 $208 $134 $209 $210 reversed $111 $-1 #
coedge $-1 $134 $208 $211 $212 reversed $111 $-1 #
coedge $-1 $146 $145 $134 $169 reversed $94 $-1 #
edge $-1 $213 $214 $134 $215 forward #
coedge $-1 $170 $170 $216 $217 reversed $135 $-1 #
coedge $-1 $171 $171 $136 $172 reversed $218 $-1 #
edge $-1 $219 $219 $136 $220 forward #
vertex $-1 $138 $221 #
ellipse-curve $-1 0.57086614173228345 0 0.23000000000000001 0 0 -1 0.14999999999999999 0 0 1 I I #
point $-1 -0.42086614173228348 0 0.23000000000000001 #
loop $-1 $-1 $180 $141 #
coedge $-1 $222 $223 $224 $225 forward $142 $-1 #
coedge $-1 $224 $144 $226 $227 forward $117 $-1 #
coedge $-1 $144 $224 $228 $229 forward $117 $-1 #
coedge $-1 $230 $231 $144 $181 forward $176 $-1 #
edge $-1 $232 $233 $180 $234 forward #
coedge $-1 $199 $209 $145 $183 reversed $157 $-1 #
edge $-1 $188 $214 $145 $235 forward #
coedge $-1 $211 $236 $146 $185 reversed $237 $-1 #
edge $-1 $213 $189 $146 $238 forward #
coedge $-1 $239 $147 $236 $240 reversed $133 $-1 #
coedge $-1 $147 $239 $199 $241 reversed $133 $-1 #
vertex $-1 $241 $242 #
vertex $-1 $185 $243 #
straight-curve $-1 -0.79529868602934317 -0.29999999999999999 0.099999999999999992 0 0 0.39370078740157477 I I #
face $-1 $244 $245 $2 $-1 $246 reversed single #
loop $-1 $247 $159 $149 #
cone-surface $-1 0.57086614173228345 0 -2.4049383294490969 0 0 1 0.080000000000000002 0 0 1 I I 0 1 0.080000000000000002 reversed I I I I #
loop $-1 $-1 $196 $119 #
coedge $-1 $195 $195 $248 $249 reversed $152 $-1 #
coedge $-1 $196 $196 $153 $197 reversed $194 $-1 #
edge $-1 $250 $250 $153 $251 forward #
point $-1 -0.65086614173228352 0 0.090000000000000052 #
coedge $-1 $252 $182 $187 $241 forward $157 $-1 #
coedge $-1 $200 $200 $158 $201 reversed $245 $-1 #
edge $-1 $253 $253 $158 $254 forward #
vertex $-1 $160 $255 #
ellipse-curve $-1 0.57086614173228345 0 0 0 0 1 0.080000000000000002 0 0 1 I I #
point $-1 -0.65086614173228352 0 0 #
face $-1 $-1 $256 $2 $-1 $257 forward single #
loop $-1 $-1 $258 $163 #
coedge $-1 $259 $260 $261 $262 forward $164 $-1 #
coedge $-1 $167 $166 $263 $264 reversed $111 $-1 #
coedge $-1 $182 $265 $166 $210 forward $157 $-1 #
edge $-1 $266 $214 $209 $267 forward #
coedge $-1 $268 $184 $167 $212 forward $237 $-1 #
edge $-1 $213 $269 $211 $270 forward #
vertex $-1 $212 $271 #
vertex $-1 $183 $272 #
straight-curve $-1 0.79529868602934317 -0.29999999999999999 0.099999999999999992 0 0 -0.39370078740157477 I I #
coedge $-1 $216 $216 $170 $217 forward $273 $-1 #
edge $-1 $274 $274 $216 $275 forward #
loop $-1 $-1 $171 $191 #
vertex $-1 $172 $276 #
ellipse-curve $-1 0 0 0.23000000000000001 0 0 -1 0.34999999999999992 0 0 1 I I #
point $-1 0.72086614173228347 0 0.23000000000000001 #
coedge $-1 $261 $177 $277 $278 reversed $142 $-1 #
coedge $-1 $177 $261 $279 $280 reversed $142 $-1 #
coedge $-1 $179 $178 $177 $225 reversed $117 $-1 #
edge $-1 $281 $282 $177 $283 forward #
coedge $-1 $284 $277 $178 $227 reversed $237 $-1 #
edge $-1 $232 $282 $178 $238 forward #
coedge $-1 $279 $285 $179 $229 reversed $157 $-1 #
edge $-1 $281 $233 $179 $235 forward #
coedge $-1 $286 $180 $285 $287 reversed $176 $-1 #
coedge $-1 $180 $286 $284 $288 reversed $176 $-1 #
vertex $-1 $288 $289 #
vertex $-1 $229 $290 #
straight-curve $-1 -0.79529868602934317 0.29999999999999982 0.099999999999999992 0 0 -0.39370078740157477 I I #
ellipse-curve $-1 0 0 0 0 0 1 -0.84999999999999987 0 0 1 I I #
coedge $-1 $184 $291 $186 $240 forward $237 $-1 #
loop $-1 $-1 $284 $205 #
ellipse-curve $-1 0 0 0.099999999999999992 0 0 -1 -0.84999999999999987 0 0 1 I I #
coedge $-1 $187 $186 $292 $293 reversed $133 $-1 #
edge $-1 $294 $189 $236 $270 forward #
edge $-1 $188 $295 $199 $267 forward #
point $-1 -0.79529868602934317 -0.29999999999999999 0 #
point $-1 -0.79529868602934317 -0.29999999999999999 0.099999999999999992 #
face $-1 $56 $273 $2 $-1 $296 forward single #
loop $-1 $218 $200 $191 #
cone-surface $-1 0 0 -2.4049383294490969 0 0 1 0.34999999999999992 0 0 1 I I 0 1 0.34999999999999992 reversed I I I I #
loop $-1 $-1 $248 $149 #
coedge $-1 $248 $248 $195 $249 forward $247 $-1 #
edge $-1 $297 $297 $248 $298 forward #
vertex $-1 $197 $299 #
ellipse-curve $-1 0.57086614173228345 0 0.089999999999999997 0 0 1 0.14999999999999999 0 0 1 I I #
coedge $-1 $285 $199 $300 $301 forward $157 $-1 #
vertex $-1 $201 $302 #
ellipse-curve $-1 0 0 0 0 0 1 0.34999999999999992 0 0 1 I I #
point $-1 0.49086614173228349 0 0 #
loop $-1 $237 $303 $205 #
plane-surface $-1 0.090909090909090925 -7.9471941633869465e-018 0.099999999999999992 0 0 1 0.39370078740157477 0 0 forward_v I I I I #
coedge $-1 $300 $304 $286 $305 forward $206 $-1 #
coedge $-1 $263 $207 $268 $306 forward $164 $-1 #
coedge $-1 $207 $263 $265 $307 reversed $164 $-1 #
coedge $-1 $223 $222 $207 $262 reversed $142 $-1 #
edge $-1 $308 $309 $207 $310 forward #
coedge $-1 $260 $259 $208 $264 forward $164 $-1 #
edge $-1 $269 $266 $263 $311 forward #
coedge $-1 $209 $279 $260 $307 forward $157 $-1 #
vertex $-1 $210 $312 #
straight-curve $-1 0.56362618688985511 -0.29999999999999999 0 -0.39370078740157477 0 0 I I #
coedge $-1 $277 $211 $259 $306 reversed $237 $-1 #
vertex $-1 $212 $313 #
straight-curve $-1 0.56362618688985511 -0.29999999999999999 0.099999999999999992 0.39370078740157477 0 0 I I #
point $-1 0.79529868602934317 -0.29999999999999999 0.099999999999999992 #
point $-1 0.79529868602934317 -0.29999999999999999 0 #
loop $-1 $314 $216 $244 #
vertex $-1 $217 $315 #
ellipse-curve $-1 0 0 0.23000000000000001 0 0 -1 -0.75 0 0 1 I I #
point $-1 0.34999999999999992 0 0.23000000000000001 #
coedge $-1 $226 $268 $222 $278 forward $237 $-1 #
edge $-1 $309 $282 $277 $316 forward #
coedge $-1 $265 $228 $223 $280 forward $157 $-1 #
edge $-1 $281 $308 $279 $317 forward #
vertex $-1 $280 $318 #
vertex $-1 $227 $319 #
straight-curve $-1 0.79529868602934317 0.30000000000000004 0.099999999999999992 0 0 0.39370078740157477 I I #
coedge $-1 $291 $226 $231 $288 forward $237 $-1 #
coedge $-1 $228 $252 $230 $287 forward $157 $-1 #
coedge $-1 $231 $230 $258 $305 reversed $176 $-1 #
edge $-1 $320 $233 $285 $317 forward #
edge $-1 $232 $321 $284 $316 forward #
point $-1 -0.79529868602934317 0.29999999999999982 0.099999999999999992 #
point $-1 -0.79529868602934317 0.29999999999999982 0 #
coedge $-1 $236 $284 $304 $322 reversed $237 $-1 #
coedge $-1 $304 $300 $239 $293 forward $206 $-1 #
edge $-1 $295 $294 $292 $323 forward #
vertex $-1 $322 $324 #
vertex $-1 $301 $325 #
cone-surface $-1 0 0 0.099999999999999992 0 0 1 -0.75 0 0 1 I I 0 1 0.75 forward I I I I #
vertex $-1 $249 $326 #
ellipse-curve $-1 0.57086614173228345 0 0.090000000000000052 0 0 1 0.080000000000000002 0 0 1 I I #
point $-1 0.72086614173228347 0 0.089999999999999997 #
coedge $-1 $292 $258 $252 $301 reversed $206 $-1 #
edge $-1 $295 $320 $252 $327 forward #
point $-1 -0.34999999999999992 0 0 #
coedge $-1 $303 $303 $328 $329 forward $256 $-1 #
coedge $-1 $258 $292 $291 $322 forward $206 $-1 #
edge $-1 $321 $320 $258 $330 forward #
edge $-1 $309 $269 $259 $331 forward #
edge $-1 $308 $266 $265 $327 forward #
vertex $-1 $307 $332 #
vertex $-1 $306 $333 #
straight-curve $-1 0.95393920141694566 0.30000000000000004 0 0 0 0.39370078740157477 I I #
straight-curve $-1 0.95393920141694544 -0.29999999999999999 0 0 0 -0.39370078740157477 I I #
point $-1 0.95393920141694544 -0.29999999999999999 0 #
point $-1 0.95393920141694544 -0.29999999999999999 0.099999999999999992 #
loop $-1 $-1 $328 $244 #
point $-1 0.75 9.1845476536678294e-017 0.23000000000000001 #
straight-curve $-1 -0.45626720260186548 0.29999999999999988 0.099999999999999992 -0.39370078740157477 -5.1308125698417208e-017 0 I I #
straight-curve $-1 -0.45626720260186548 0.29999999999999988 0 0.39370078740157477 5.1308125698417208e-017 0 I I #
point $-1 0.79529868602934317 0.30000000000000004 0 #
point $-1 0.79529868602934317 0.30000000000000004 0.099999999999999992 #
vertex $-1 $287 $334 #
vertex $-1 $288 $335 #
edge $-1 $294 $321 $304 $331 forward #
straight-curve $-1 -0.95393920141694544 -0.29999999999999999 0 0 0 0.39370078740157477 I I #
point $-1 -0.95393920141694544 -0.29999999999999999 0.099999999999999992 #
point $-1 -0.95393920141694544 -0.29999999999999999 0 #
point $-1 0.49086614173228349 0 0.090000000000000052 #
ellipse-curve $-1 0 0 0 0 0 -1 -0.99999999999999989 0 0 1 I I #
coedge $-1 $328 $328 $303 $329 reversed $314 $-1 #
edge $-1 $336 $336 $303 $337 forward #
straight-curve $-1 -0.95393920141694566 0.29999999999999982 0 0 0 -0.39370078740157477 I I #
ellipse-curve $-1 0 0 0.099999999999999992 0 0 -1 -0.99999999999999989 0 0 1 I I #
point $-1 0.95393920141694566 0.30000000000000004 0 #
point $-1 0.95393920141694566 0.30000000000000004 0.099999999999999992 #
point $-1 -0.95393920141694566 0.29999999999999982 0 #
point $-1 -0.95393920141694566 0.29999999999999982 0.099999999999999992 #
vertex $-1 $329 $338 #
ellipse-curve $-1 0 0 0.099999999999999992 0 0 -1 -0.75 0 0 1 I I #
point $-1 0.75 9.1845476536678294e-017 0.099999999999999992 #
End-of-ACIS-data 