700 0 1 0           
29 Autodesk Inventor 6.2.0.12000 17 ASM 6.0.1.6021 NT 24 Thu Jan 03 16:53:36 2008 
25.399999999999999 9.9999999999999995e-007 1e-010 
body $-1 -1 $-1 $1 $-1 $-1 #
lump $-1 -1 $-1 $-1 $2 $0 #
shell $-1 -1 $-1 $-1 $-1 $3 $-1 $1 #
face $-1 -1 $-1 $4 $5 $2 $-1 $6 forward single #
face $-1 -1 $-1 $7 $8 $2 $-1 $9 forward single #
loop $-1 -1 $-1 $10 $11 $3 #
torus-surface $-1 -1 $-1 0 1.875 0 0 -1 0 0.7972287231382198 0.12499999999999999 0 0 -1 forward_v I I I I #
face $-1 -1 $-1 $12 $13 $2 $-1 $14 forward single #
loop $-1 -1 $-1 $15 $16 $4 #
plane-surface $-1 -1 $-1 0.74499999999999966 1.9999999999999998 0 0 1 0 0 0 0.39370078740157477 forward_v I I I I #
loop $-1 -1 $-1 $-1 $17 $3 #
coedge $-1 -1 $-1 $11 $11 $18 $19 forward $5 $-1 #
face $-1 -1 $-1 $20 $21 $2 $-1 $22 forward single #
loop $-1 -1 $-1 $23 $24 $7 #
torus-surface $-1 -1 $-1 0 0.5408586164637873 0 0 -1 0 -1.6254419627957393 2.8907307323287346 0 0 -1 forward_v I I I I #
loop $-1 -1 $-1 $-1 $18 $4 #
coedge $-1 -1 $-1 $16 $16 $25 $26 forward $8 $-1 #
coedge $-1 -1 $-1 $17 $17 $27 $28 forward $10 $-1 #
coedge $-1 -1 $-1 $18 $18 $11 $19 reversed $15 $-1 #
edge $-1 -1 $-1 $29 -3.1415926535897931 $29 3.1415926535897931 $18 $30 forward @7 unknown #
face $-1 -1 $-1 $31 $32 $2 $-1 $33 forward single #
loop $-1 -1 $-1 $34 $35 $12 #
plane-surface $-1 -1 $-1 0.47749999999999976 1.3799999999999997 0 0 1 0 0 0 0.39370078740157477 forward_v I I I I #
loop $-1 -1 $-1 $-1 $27 $7 #
coedge $-1 -1 $-1 $24 $24 $36 $37 reversed $13 $-1 #
coedge $-1 -1 $-1 $25 $25 $16 $26 reversed $32 $-1 #
edge $-1 -1 $-1 $38 0 $38 6.2831853071795862 $16 $39 forward @7 unknown #
coedge $-1 -1 $-1 $27 $27 $17 $28 reversed $23 $-1 #
edge $-1 -1 $-1 $40 -3.1415926535897931 $40 3.1415926535897931 $27 $41 forward @7 unknown #
vertex $-1 -1 $-1 $19 $42 #
ellipse-curve $-1 -1 $-1 0 1.9999999999999998 0 0 -1 0 -0.7972287231382198 0 9.762913598047648e-017 1 I I #
face $-1 -1 $-1 $43 $44 $2 $-1 $45 forward single #
loop $-1 -1 $-1 $46 $25 $20 #
cone-surface $-1 -1 $-1 0 1.6899999999999999 0 0 -1 0 0.61999999999999966 0 0 1 I I 0 -1 0.61999999999999966 forward I I I I #
loop $-1 -1 $-1 $-1 $47 $12 #
coedge $-1 -1 $-1 $35 $35 $48 $49 reversed $21 $-1 #
coedge $-1 -1 $-1 $36 $36 $24 $37 forward $50 $-1 #
edge $-1 -1 $-1 $51 0 $51 6.2831853071795862 $36 $52 forward @7 unknown #
vertex $-1 -1 $-1 $26 $53 #
ellipse-curve $-1 -1 $-1 0 1.9999999999999998 0 0 -1 0 0.61999999999999955 0 0 1 I I #
vertex $-1 -1 $-1 $28 $54 #
ellipse-curve $-1 -1 $-1 0 1.9352978702852999 0 0 1 0 -0.90672377708613572 0 1.1103796985815068e-016 1 I I #
point $-1 -1 $-1 0.7972287231382198 1.9999999999999998 0 #
face $-1 -1 $-1 $55 $56 $2 $-1 $57 forward single #
loop $-1 -1 $-1 $50 $58 $31 #
cone-surface $-1 -1 $-1 0 0.25000000000000006 0 0 -1 0 1.2650000000000001 0 0 1 I I 0 1 1.2650000000000001 forward I I I I #
loop $-1 -1 $-1 $-1 $48 $20 #
coedge $-1 -1 $-1 $47 $47 $59 $60 forward $34 $-1 #
coedge $-1 -1 $-1 $48 $48 $35 $49 forward $46 $-1 #
edge $-1 -1 $-1 $61 0 $61 6.2831853071795862 $48 $62 forward @7 unknown #
loop $-1 -1 $-1 $-1 $36 $31 #
vertex $-1 -1 $-1 $37 $63 #
ellipse-curve $-1 -1 $-1 0 0.5 0 0 -1 0 1.2650000000000001 0 0 1 I I #
point $-1 -1 $-1 0.61999999999999955 1.9999999999999998 0 #
point $-1 -1 $-1 0.90672377708613572 1.9352978702852999 -2.2207593971630135e-016 #
face $-1 -1 $-1 $-1 $64 $2 $-1 $65 forward single #
loop $-1 -1 $-1 $66 $67 $43 #
plane-surface $-1 -1 $-1 0.80000000000000016 3.4956587149602669e-017 0 0 -1 0 0 0 -0.39370078740157477 forward_v I I I I #
coedge $-1 -1 $-1 $58 $58 $68 $69 reversed $44 $-1 #
coedge $-1 -1 $-1 $59 $59 $47 $60 reversed $64 $-1 #
edge $-1 -1 $-1 $70 0 $70 6.2831853071795862 $47 $71 forward @7 unknown #
vertex $-1 -1 $-1 $49 $72 #
ellipse-curve $-1 -1 $-1 0 1.3799999999999997 0 0 -1 0 0.61999999999999977 0 0 1 I I #
point $-1 -1 $-1 1.2650000000000001 0.5 0 #
loop $-1 -1 $-1 $73 $59 $55 #
cone-surface $-1 -1 $-1 0 0.68999999999999995 0 0 -1 0 0.33499999999999985 0 0 1 I I 0 -1 0.33499999999999985 forward I I I I #
loop $-1 -1 $-1 $-1 $68 $43 #
coedge $-1 -1 $-1 $67 $67 $74 $75 reversed $56 $-1 #
coedge $-1 -1 $-1 $68 $68 $58 $69 forward $66 $-1 #
edge $-1 -1 $-1 $76 0 $76 6.2831853071795862 $68 $77 forward @7 unknown #
vertex $-1 -1 $-1 $60 $78 #
ellipse-curve $-1 -1 $-1 0 1.3799999999999999 0 0 -1 0 0.3349999999999998 0 0 1 I I #
point $-1 -1 $-1 0.61999999999999977 1.3799999999999997 0 #
loop $-1 -1 $-1 $-1 $74 $55 #
coedge $-1 -1 $-1 $74 $74 $67 $75 forward $73 $-1 #
edge $-1 -1 $-1 $79 0 $79 6.2831853071795862 $74 $80 forward @7 unknown #
vertex $-1 -1 $-1 $69 $81 #
ellipse-curve $-1 -1 $-1 0 7.0003604837646739e-017 0 0 -1 0 1.2650000000000001 0 0 1 I I #
point $-1 -1 $-1 0.3349999999999998 1.3799999999999999 0 #
vertex $-1 -1 $-1 $75 $82 #
ellipse-curve $-1 -1 $-1 0 0 0 0 -1 0 0.33500000000000002 0 0 1 I I #
point $-1 -1 $-1 1.2650000000000001 6.9913174299205338e-017 0 #
point $-1 -1 $-1 0.33500000000000002 -4.8527368677473655e-033 0 #
End-of-ACIS-data 