400 0 1 0           
8 Inventor 11 ACIS 6.0 NT 24 Fri Jan 16 18:17:14 2004 
25.399999999999999 9.9999999999999995e-007 1e-010 
body $-1 $1 $-1 $-1 #
lump $-1 $-1 $2 $0 #
shell $-1 $-1 $-1 $3 $-1 $1 #
face $-1 $4 $5 $2 $-1 $6 reversed single #
face $-1 $7 $8 $2 $-1 $9 reversed single #
loop $-1 $-1 $10 $3 #
plane-surface $-1 0.039370078740157445 0.15247965929950519 0.78740157480314954 1 -1.108236420908457e-015 0 0 0 -0.39370078740157477 forward_v I I I I #
face $-1 $11 $12 $2 $-1 $13 reversed single #
loop $-1 $-1 $14 $4 #
plane-surface $-1 0.039370078740157494 0.19685039370078738 0.78740157480314954 0 1 0 0 0 0.39370078740157477 forward_v I I I I #
coedge $-1 $15 $16 $17 $18 reversed $5 $-1 #
face $-1 $19 $20 $2 $-1 $21 forward single #
loop $-1 $-1 $22 $7 #
plane-surface $-1 -0.039370078740157466 0.19685039370078738 0.78740157480314954 -1 1.108236420908457e-015 0 0 0 0.39370078740157477 forward_v I I I I #
coedge $-1 $23 $24 $25 $26 reversed $8 $-1 #
coedge $-1 $27 $10 $28 $29 reversed $5 $-1 #
coedge $-1 $10 $27 $23 $30 forward $5 $-1 #
coedge $-1 $25 $31 $10 $18 forward $20 $-1 #
edge $-1 $32 $33 $10 $34 forward #
face $-1 $35 $36 $2 $-1 $37 reversed single #
loop $-1 $-1 $17 $11 #
plane-surface $-1 -6.8296199841606573e-018 0.17555471390746158 0.33464566929133865 0 0 1 0.39370078740157477 0 0 forward_v I I I I #
coedge $-1 $38 $39 $40 $41 reversed $12 $-1 #
coedge $-1 $42 $14 $16 $30 reversed $8 $-1 #
coedge $-1 $14 $42 $38 $43 forward $8 $-1 #
coedge $-1 $40 $17 $14 $26 forward $20 $-1 #
edge $-1 $33 $44 $14 $45 forward #
coedge $-1 $16 $15 $46 $47 reversed $5 $-1 #
coedge $-1 $48 $49 $15 $29 forward $50 $-1 #
edge $-1 $51 $32 $28 $52 forward #
edge $-1 $53 $33 $23 $54 forward #
coedge $-1 $17 $40 $48 $55 reversed $20 $-1 #
vertex $-1 $29 $56 #
vertex $-1 $30 $57 #
straight-curve $-1 0.039370078740157445 0.15247965929950519 0.33464566929133849 4.3631355153876257e-016 0.39370078740157477 0 F 0 F 0.1127016653792568 #
face $-1 $58 $59 $2 $-1 $60 reversed single #
loop $-1 $50 $61 $19 #
cone-surface $-1 0 0 0.45767716535433073 0 0 1 0.15748031496062992 0 0 1 I I 0 1 0.15748031496062992 reversed I I I I #
coedge $-1 $62 $22 $24 $43 reversed $12 $-1 #
coedge $-1 $22 $62 $63 $64 reversed $12 $-1 #
coedge $-1 $31 $25 $22 $41 forward $20 $-1 #
edge $-1 $44 $65 $22 $66 forward #
coedge $-1 $24 $23 $67 $68 reversed $8 $-1 #
edge $-1 $69 $44 $38 $70 forward #
vertex $-1 $43 $71 #
straight-curve $-1 0.039370078740157487 0.19685039370078738 0.33464566929133849 -0.39370078740157477 0 0 F 0 F 0.20000000000000001 #
coedge $-1 $72 $67 $27 $47 forward $73 $-1 #
edge $-1 $53 $51 $46 $74 forward #
coedge $-1 $63 $28 $31 $55 forward $50 $-1 #
coedge $-1 $28 $63 $72 $75 reversed $50 $-1 #
loop $-1 $-1 $28 $19 #
vertex $-1 $75 $76 #
straight-curve $-1 0.039370078740157445 0.15247965929950461 0.45767716535433073 0 0 -0.39370078740157477 I I #
vertex $-1 $47 $77 #
straight-curve $-1 0.039370078740157494 0.19685039370078738 0.78740157480314954 0 0 -0.39370078740157477 I I #
edge $-1 $32 $65 $48 $78 forward #
point $-1 0.039370078740157445 0.15247965929950519 0.33464566929133865 #
point $-1 0.039370078740157494 0.19685039370078738 0.33464566929133865 #
face $-1 $79 $80 $2 $-1 $81 reversed single #
loop $-1 $82 $83 $35 #
cone-surface $-1 0 0 0.080640896139562171 0 0 1 0.07874015748031496 0 0 1 I I 0.85716730070211233 0.51503807491005416 0.07874015748031496 reversed I I I I #
coedge $-1 $61 $61 $84 $85 reversed $36 $-1 #
coedge $-1 $39 $38 $86 $87 reversed $12 $-1 #
coedge $-1 $49 $48 $39 $64 forward $50 $-1 #
edge $-1 $65 $88 $63 $89 forward #
vertex $-1 $64 $90 #
straight-curve $-1 -0.039370078740157466 0.19685039370078738 0.33464566929133849 -4.3631355153876257e-016 -0.39370078740157477 0 F 0 F 0.1127016653792568 #
coedge $-1 $46 $86 $42 $68 forward $73 $-1 #
edge $-1 $69 $53 $67 $91 forward #
vertex $-1 $68 $92 #
straight-curve $-1 -0.039370078740157466 0.19685039370078738 0.78740157480314954 0 0 -0.39370078740157477 I I #
point $-1 -0.039370078740157466 0.19685039370078738 0.33464566929133865 #
coedge $-1 $86 $46 $49 $75 forward $73 $-1 #
loop $-1 $93 $46 $94 #
straight-curve $-1 0.039370078740157362 0.076239829649752566 0.78740157480314954 -4.3631355153876257e-016 -0.39370078740157477 0 I I #
edge $-1 $51 $88 $72 $95 forward #
point $-1 0.039370078740157445 0.15247965929950519 0.78740157480314954 #
point $-1 0.039370078740157494 0.19685039370078738 0.78740157480314954 #
ellipse-curve $-1 0 0 0.33464566929133865 0 0 1 0.15748031496062992 0 0 1 I I #
face $-1 $96 $97 $2 $-1 $98 forward single #
loop $-1 $99 $100 $58 #
cone-surface $-1 0 0 1.7185268613949023 0 0 -1 -0.12499999999999999 0 0 1 I I 0 1 0.12499999999999999 reversed I I I I #
loop $-1 $-1 $84 $35 #
coedge $-1 $83 $83 $100 $101 reversed $59 $-1 #
coedge $-1 $84 $84 $61 $85 forward $82 $-1 #
edge $-1 $102 $102 $61 $103 forward #
coedge $-1 $67 $72 $62 $87 forward $73 $-1 #
edge $-1 $88 $69 $86 $104 forward #
vertex $-1 $64 $105 #
straight-curve $-1 -0.039370078740157514 0.15247965929950461 0.45767716535433073 0 0 0.39370078740157477 I I #
point $-1 -0.039370078740157514 0.15247965929950519 0.33464566929133865 #
straight-curve $-1 0.019685039370078723 0.19685039370078738 0.78740157480314954 0.39370078740157477 0 0 I I #
point $-1 -0.039370078740157466 0.19685039370078738 0.78740157480314954 #
loop $-1 $-1 $106 $94 #
face $-1 $107 $73 $2 $-1 $108 forward single #
ellipse-curve $-1 0 0 0.78740157480314954 0 0 -1 0.15748031496062992 0 0 1 I I #
face $-1 $109 $110 $2 $-1 $111 forward single #
loop $-1 $-1 $112 $79 #
plane-surface $-1 0.28867513459481281 -0.5 0 -1.5141438475461133e-016 -1 0 0 0 -0.39370078740157477 forward_v I I I I #
loop $-1 $-1 $113 $58 #
coedge $-1 $100 $100 $83 $101 forward $80 $-1 #
edge $-1 $114 $114 $100 $115 forward #
vertex $-1 $85 $116 #
ellipse-curve $-1 0 0 0.12795275590551178 0 0 1 0.15748031496062992 0 0 1 I I #
straight-curve $-1 -0.039370078740157577 0.098425196850393692 0.78740157480314954 4.3631355153876257e-016 0.39370078740157477 0 I I #
point $-1 -0.039370078740157514 0.15247965929950519 0.78740157480314954 #
coedge $-1 $117 $118 $112 $119 reversed $93 $-1 #
face $-1 $-1 $120 $2 $-1 $121 reversed single #
plane-surface $-1 -4.8676564250745045e-017 -3.2782175923971155e-017 0.78740157480314954 0 0 1 0.39370078740157477 0 0 forward_v I I I I #
face $-1 $122 $123 $2 $-1 $124 forward single #
loop $-1 $-1 $125 $96 #
plane-surface $-1 -0.28867513459481303 -0.49999999999999994 0 -0.86602540378443882 -0.49999999999999983 0 0 0 0.39370078740157477 forward_v I I I I #
coedge $-1 $126 $127 $106 $119 forward $97 $-1 #
coedge $-1 $113 $113 $128 $129 reversed $99 $-1 #
vertex $-1 $101 $130 #
ellipse-curve $-1 0 0 0.1084366137520576 0 0 1 -0.12499999999999999 0 0 1 I I #
point $-1 0.15748031496062992 0 0.12795275590551178 #
coedge $-1 $131 $106 $132 $133 reversed $93 $-1 #
coedge $-1 $106 $134 $125 $135 reversed $93 $-1 #
edge $-1 $136 $137 $112 $138 forward #
loop $-1 $139 $128 $107 #
plane-surface $-1 -4.3709567898628207e-017 -3.2782175923971155e-017 0 0 0 1 0.39370078740157477 0 0 forward_v I I I I #
face $-1 $140 $141 $2 $-1 $142 forward single #
loop $-1 $-1 $143 $109 #
plane-surface $-1 -0.57735026918962573 8.4687287803592155e-017 0 -0.86602540378443871 0.50000000000000011 0 0 0 0.39370078740157477 forward_v I I I I #
coedge $-1 $144 $145 $118 $135 forward $110 $-1 #
coedge $-1 $146 $112 $145 $147 reversed $97 $-1 #
coedge $-1 $112 $146 $148 $149 forward $97 $-1 #
coedge $-1 $128 $128 $113 $129 forward $120 $-1 #
edge $-1 $150 $150 $128 $151 forward #
point $-1 0.12499999999999999 1.5307579422779713e-017 0.1084366137520576 #
coedge $-1 $152 $117 $153 $154 reversed $93 $-1 #
coedge $-1 $148 $155 $117 $133 forward $156 $-1 #
edge $-1 $157 $136 $132 $158 forward #
coedge $-1 $118 $152 $143 $159 reversed $93 $-1 #
edge $-1 $137 $160 $125 $161 forward #
vertex $-1 $149 $162 #
vertex $-1 $147 $163 #
straight-curve $-1 0.28867513459481281 -0.5 0.78740157480314954 -0.39370078740157477 5.9611962501815478e-017 0 F 0 F 1.4664696837416495 #
loop $-1 $-1 $164 $107 #
face $-1 $165 $166 $2 $-1 $167 forward single #
loop $-1 $-1 $168 $122 #
plane-surface $-1 -0.28867513459481287 0.49999999999999994 0 0 1 0 0 0 0.39370078740157477 forward_v I I I I #
coedge $-1 $169 $170 $134 $159 forward $123 $-1 #
coedge $-1 $171 $125 $170 $172 reversed $110 $-1 #
coedge $-1 $125 $171 $126 $147 forward $110 $-1 #
coedge $-1 $127 $126 $173 $174 reversed $97 $-1 #
edge $-1 $175 $137 $145 $176 forward #
coedge $-1 $177 $132 $127 $149 reversed $156 $-1 #
edge $-1 $178 $136 $127 $179 forward #
vertex $-1 $129 $180 #
ellipse-curve $-1 0 0 0 0 0 1 -0.12499999999999999 0 0 1 I I #
coedge $-1 $134 $131 $168 $181 reversed $93 $-1 #
coedge $-1 $182 $183 $131 $154 forward $166 $-1 #
edge $-1 $184 $157 $153 $185 forward #
coedge $-1 $132 $177 $182 $186 forward $156 $-1 #
loop $-1 $-1 $132 $165 #
vertex $-1 $186 $187 #
straight-curve $-1 0.57735026918962573 -1.5913014563094331e-016 0.78740157480314954 -0.19685039370078755 -0.3409548833797002 0 F 0 F 1.4664696837416495 #
edge $-1 $160 $188 $143 $189 forward #
vertex $-1 $172 $190 #
straight-curve $-1 -0.28867513459481303 -0.49999999999999994 0.78740157480314954 -0.19685039370078733 0.34095488337970031 0 F 0 F 1.4664696837416495 #
point $-1 0.28867513459481281 -0.5 0.78740157480314954 #
point $-1 -0.28867513459481303 -0.49999999999999994 0.78740157480314954 #
coedge $-1 $173 $191 $177 $192 forward $139 $-1 #
face $-1 $94 $156 $2 $-1 $193 forward single #
loop $-1 $-1 $153 $140 #
plane-surface $-1 0.2886751345948127 0.49999999999999994 0 0.8660254037844386 0.50000000000000011 0 0 0 -0.39370078740157477 forward_v I I I I #
coedge $-1 $194 $195 $152 $181 forward $141 $-1 #
coedge $-1 $196 $143 $195 $197 reversed $123 $-1 #
coedge $-1 $143 $196 $144 $172 forward $123 $-1 #
coedge $-1 $145 $144 $198 $199 reversed $110 $-1 #
edge $-1 $200 $160 $170 $201 forward #
coedge $-1 $198 $164 $146 $174 forward $139 $-1 #
edge $-1 $178 $175 $173 $202 forward #
vertex $-1 $174 $203 #
straight-curve $-1 -0.28867513459481303 -0.49999999999999994 0 0 0 0.39370078740157477 I I #
coedge $-1 $155 $148 $164 $192 reversed $156 $-1 #
vertex $-1 $192 $204 #
straight-curve $-1 0.28867513459481281 -0.5 0 0 0 0.39370078740157477 I I #
point $-1 -0.12499999999999999 0 0 #
edge $-1 $188 $184 $168 $205 forward #
coedge $-1 $206 $153 $155 $186 reversed $166 $-1 #
coedge $-1 $153 $206 $194 $207 forward $166 $-1 #
vertex $-1 $207 $208 #
straight-curve $-1 0.2886751345948127 0.49999999999999994 0.78740157480314954 0.19685039370078744 -0.3409548833797002 0 F 0 F 1.4664696837416502 #
edge $-1 $209 $157 $155 $210 forward #
point $-1 0.57735026918962573 -1.5913014563094331e-016 0.78740157480314954 #
vertex $-1 $197 $211 #
straight-curve $-1 -0.57735026918962573 8.4687287803592155e-017 0.78740157480314954 0.19685039370078747 0.34095488337970026 0 F 0 F 1.4664696837416495 #
point $-1 -0.57735026918962573 8.4687287803592155e-017 0.78740157480314954 #
coedge $-1 $164 $212 $206 $213 forward $139 $-1 #
edge $-1 $209 $178 $164 $214 forward #
plane-surface $-1 0.57735026918962573 -1.5913014563094331e-016 0 0.8660254037844386 -0.50000000000000033 0 0 0 -0.39370078740157477 forward_v I I I I #
coedge $-1 $215 $168 $183 $207 reversed $141 $-1 #
coedge $-1 $168 $215 $169 $197 forward $141 $-1 #
coedge $-1 $170 $169 $216 $217 reversed $123 $-1 #
edge $-1 $218 $188 $195 $219 forward #
coedge $-1 $216 $173 $171 $199 forward $139 $-1 #
edge $-1 $175 $200 $198 $220 forward #
vertex $-1 $199 $221 #
straight-curve $-1 -0.57735026918962573 8.4687287803592155e-017 0 0 0 0.39370078740157477 I I #
straight-curve $-1 0.28867513459481281 -0.5 0 -0.39370078740157477 5.9611962501815478e-017 0 F 0 F 1.4664696837416495 #
point $-1 -0.28867513459481303 -0.49999999999999994 0 #
point $-1 0.28867513459481281 -0.5 0 #
straight-curve $-1 -0.28867513459481287 0.49999999999999994 0.78740157480314954 0.39370078740157477 0 0 F 0 F 1.4664696837416491 #
coedge $-1 $183 $182 $191 $213 reversed $166 $-1 #
edge $-1 $222 $184 $183 $223 forward #
point $-1 0.2886751345948127 0.49999999999999994 0.78740157480314954 #
vertex $-1 $192 $224 #
straight-curve $-1 0.57735026918962573 -1.5913014563094331e-016 0 0 0 0.39370078740157477 I I #
point $-1 -0.28867513459481287 0.49999999999999994 0.78740157480314954 #
coedge $-1 $191 $216 $215 $225 forward $139 $-1 #
edge $-1 $222 $209 $191 $226 forward #
straight-curve $-1 0.57735026918962573 -1.5913014563094331e-016 0 -0.19685039370078755 -0.3409548833797002 0 F 0 F 1.4664696837416495 #
coedge $-1 $195 $194 $212 $225 reversed $141 $-1 #
coedge $-1 $212 $198 $196 $217 forward $139 $-1 #
edge $-1 $200 $218 $216 $227 forward #
vertex $-1 $217 $228 #
straight-curve $-1 -0.28867513459481287 0.49999999999999994 0 0 0 0.39370078740157477 I I #
straight-curve $-1 -0.28867513459481303 -0.49999999999999994 0 -0.19685039370078733 0.34095488337970031 0 F 0 F 1.4664696837416495 #
point $-1 -0.57735026918962573 8.4687287803592155e-017 0 #
vertex $-1 $225 $229 #
straight-curve $-1 0.2886751345948127 0.49999999999999994 0 0 0 0.39370078740157477 I I #
point $-1 0.57735026918962573 -1.5913014563094331e-016 0 #
edge $-1 $218 $222 $212 $230 forward #
straight-curve $-1 0.2886751345948127 0.49999999999999994 0 0.19685039370078744 -0.3409548833797002 0 F 0 F 1.4664696837416502 #
straight-curve $-1 -0.57735026918962573 8.4687287803592155e-017 0 0.19685039370078747 0.34095488337970026 0 F 0 F 1.4664696837416495 #
point $-1 -0.28867513459481287 0.49999999999999994 0 #
point $-1 0.2886751345948127 0.49999999999999994 0 #
straight-curve $-1 -0.28867513459481287 0.49999999999999994 0 0.39370078740157477 0 0 F 0 F 1.4664696837416491 #
End-of-ACIS-data 