400 583 4 0         
7 Unknown 13 ACIS 4.0.2 NT 24 Tue Jan 15 17:24:56 2002 
-1 9.9999999999999995e-007 1e-010 
body $4 $5 $-1 $-1 #
body $6 $7 $-1 $-1 #
body $8 $9 $-1 $-1 #
body $10 $11 $-1 $-1 #
ref_vt-eye-attrib $-1 $-1 $-1 $0 $12 $13 #
lump $14 $-1 $15 $0 #
ref_vt-eye-attrib $-1 $-1 $-1 $1 $12 $13 #
lump $16 $-1 $17 $1 #
ref_vt-eye-attrib $-1 $-1 $-1 $2 $12 $13 #
lump $18 $-1 $19 $2 #
ref_vt-eye-attrib $-1 $-1 $-1 $3 $12 $13 #
lump $20 $-1 $21 $3 #
eye_refinement $-1 5 grid  1 3 tri 2 4 surf 0 3 adj 0 4 grad 0 9 postcheck 0 4 stol 0.0067021655850112438 4 ntol 30 4 dsil 0 8 flatness 0 7 pixarea 0 4 hmax 0 6 gridar 0 5 mgrid 300 5 ugrid 0 5 vgrid 0 10 end_fields #
vertex_template $-1 3 0 1 8 #
ref_vt-eye-attrib $-1 $-1 $-1 $5 $12 $13 #
shell $22 $-1 $-1 $23 $-1 $5 #
ref_vt-eye-attrib $-1 $-1 $-1 $7 $12 $13 #
shell $24 $-1 $-1 $25 $-1 $7 #
ref_vt-eye-attrib $-1 $-1 $-1 $9 $12 $13 #
shell $26 $-1 $-1 $27 $-1 $9 #
ref_vt-eye-attrib $-1 $-1 $-1 $11 $12 $13 #
shell $28 $-1 $-1 $29 $-1 $11 #
ref_vt-eye-attrib $-1 $-1 $-1 $15 $12 $13 #
face $30 $31 $32 $15 $-1 $33 reversed single #
ref_vt-eye-attrib $-1 $-1 $-1 $17 $12 $13 #
face $34 $35 $36 $17 $-1 $37 reversed single #
ref_vt-eye-attrib $-1 $-1 $-1 $19 $12 $13 #
face $38 $39 $40 $19 $-1 $41 reversed single #
ref_vt-eye-attrib $-1 $-1 $-1 $21 $12 $13 #
face $42 $43 $44 $21 $-1 $45 forward single #
color-adesk-attrib $-1 $46 $-1 $23 7 #
face $47 $48 $49 $15 $-1 $50 forward single #
loop $-1 $51 $52 $23 #
cone-surface $-1 -1.1784999999999999 2.2204460492503128e-016 1.1102230246251558e-016 1 5.3027010602300655e-017 -3.0615158845559456e-017 9.1845476536678289e-019 -0.012990381056766576 0.0075000000000000049 1 I I 0 1 0.014999999999999999 forward I I I I #
color-adesk-attrib $-1 $53 $-1 $25 40 #
face $54 $55 $56 $17 $-1 $57 reversed single #
loop $-1 $58 $59 $25 #
cone-surface $-1 -0.25 3.0615158845559431e-017 0 -1 1.2246063538223773e-016 6.1230317691118863e-017 -3.6738190614671316e-018 4.4989821654664121e-034 -0.059999999999999998 1 I I 0 1 0.059999999999999998 forward I I I I #
color-adesk-attrib $-1 $60 $-1 $27 7 #
face $61 $62 $63 $19 $-1 $64 forward single #
loop $-1 $65 $66 $27 #
cone-surface $-1 -1.6785000000000001 2.2204460492503131e-016 1.1102230246251565e-016 1 0 6.1230317691118863e-017 4.5922738268339147e-017 0 -0.75 1 I I 0 1 0.75 forward I I I I #
color-adesk-attrib $-1 $67 $-1 $29 256 #
face $68 $69 $70 $21 $-1 $71 forward single #
loop $-1 $72 $73 $29 #
torus-surface $-1 -0.80849999999999989 9.9009423706539186e-017 -2.2042914368802791e-017 1 -1.2246063538223773e-016 -6.1230317691118863e-017 0.70000000000000007 0.10000000000000001 -6.1230317691118863e-017 0 -1 forward_v I I I I #
fmesh-eye-attrib $-1 $74 $30 $23 #
color-adesk-attrib $-1 $75 $-1 $31 7 #
face $76 $77 $78 $15 $-1 $79 forward single #
loop $-1 $-1 $80 $31 #
cone-surface $-1 -1.6784999999999997 8.8020737701594138e-016 -5.2536317602590379e-016 1 5.3027010602300655e-017 -3.0615158845559456e-017 -4.06219549360617e-019 -0.044144382453917913 -0.089728888869540599 1 I I 0 1 0.10000000000000071 forward I I I I #
loop $-1 $-1 $81 $23 #
coedge $-1 $52 $52 $82 $83 reversed $32 $-1 #
fmesh-eye-attrib $-1 $84 $34 $25 #
color-adesk-attrib $-1 $85 $-1 $35 40 #
face $86 $87 $88 $17 $-1 $89 forward single #
loop $-1 $-1 $90 $35 #
plane-surface $-1 -0.5 6.1230317691118863e-017 0 -1 1.2246063538223773e-016 6.1230317691118863e-017 -6.1230317691118863e-017 7.4983036091106872e-033 -1 forward_v I I I I #
loop $-1 $-1 $91 $25 #
coedge $-1 $59 $59 $92 $93 reversed $36 $-1 #
fmesh-eye-attrib $-1 $94 $38 $27 #
color-adesk-attrib $-1 $95 $-1 $39 7 #
face $96 $97 $98 $19 $-1 $99 forward single #
loop $-1 $100 $101 $39 #
cone-surface $-1 -1.6785000000000001 2.0555017648908604e-016 1.1102230246251565e-016 -1 1.2246063538223773e-016 6.1230317691118863e-017 -4.8984254152895092e-017 5.9986428872885502e-033 -0.80000000000000004 1 I I 0 1 0.80000000000000004 forward I I I I #
loop $-1 $-1 $102 $27 #
coedge $-1 $66 $66 $103 $104 reversed $40 $-1 #
fmesh-eye-attrib $-1 $105 $42 $29 #
color-adesk-attrib $-1 $106 $-1 $43 256 #
face $107 $108 $109 $21 $-1 $110 forward single #
loop $-1 $111 $112 $43 #
cone-surface $-1 -1.1684999999999999 1.4309525244414477e-016 0 -1 1.2246063538223773e-016 6.1230317691118863e-017 -4.8984254152895092e-017 5.9986428872885502e-033 -0.80000000000000004 1 I I 0 1 0.80000000000000004 forward I I I I #
loop $-1 $-1 $113 $29 #
coedge $-1 $73 $73 $114 $115 forward $44 $-1 #
ref_vt-eye-attrib $-1 $-1 $46 $23 $12 $13 #
fmesh-eye-attrib $-1 $116 $47 $31 #
color-adesk-attrib $-1 $117 $-1 $48 7 #
face $118 $119 $120 $15 $-1 $121 forward single #
loop $-1 $-1 $122 $48 #
plane-surface $-1 -1.6784999999999997 -0.09973377110459794 0.0072921122629629274 -4.0621954936060518e-018 -0.44144382453917713 -0.89728888869539913 1 5.3027010602300655e-017 -3.0615158845559456e-017 forward_v I I I I #
coedge $-1 $123 $124 $125 $126 forward $49 $-1 #
coedge $-1 $81 $81 $127 $128 reversed $51 $-1 #
coedge $-1 $82 $82 $52 $83 forward $129 $-1 #
edge $130 $131 $131 $82 $132 forward #
ref_vt-eye-attrib $-1 $-1 $53 $25 $12 $13 #
fmesh-eye-attrib $-1 $133 $54 $35 #
color-adesk-attrib $-1 $134 $-1 $55 40 #
face $135 $136 $137 $17 $-1 $138 forward single #
loop $-1 $139 $140 $55 #
cone-surface $-1 -0.14500000000000002 1.7756792130424474e-017 0 -1 1.2246063538223773e-016 6.1230317691118863e-017 -1.2062372585150415e-017 1.4771658109948053e-033 -0.19699999999999998 1 I I 0 1 0.19699999999999998 forward I I I I #
coedge $-1 $90 $90 $91 $141 reversed $56 $-1 #
coedge $-1 $91 $91 $90 $141 forward $58 $-1 #
coedge $-1 $92 $92 $59 $93 forward $137 $-1 #
edge $142 $143 $143 $92 $144 forward #
ref_vt-eye-attrib $-1 $-1 $60 $27 $12 $13 #
fmesh-eye-attrib $-1 $145 $61 $39 #
color-adesk-attrib $-1 $146 $-1 $62 7 #
face $147 $-1 $148 $19 $-1 $149 forward single #
loop $-1 $150 $151 $62 #
plane-surface $-1 -1.6284999999999998 1.9942714471997411e-016 1.1102230246251565e-016 1 -1.2246063538223773e-016 -6.1230317691118863e-017 6.1230317691118863e-017 -7.4983036091106872e-033 1 forward_v I I I I #
loop $-1 $-1 $152 $39 #
coedge $-1 $101 $101 $153 $154 reversed $63 $-1 #
coedge $-1 $102 $102 $151 $155 reversed $65 $-1 #
coedge $-1 $103 $103 $66 $104 forward $148 $-1 #
edge $156 $157 $157 $103 $158 forward #
ref_vt-eye-attrib $-1 $-1 $67 $29 $12 $13 #
fmesh-eye-attrib $-1 $159 $68 $43 #
color-adesk-attrib $-1 $160 $-1 $69 256 #
face $161 $-1 $162 $21 $-1 $163 forward single #
loop $-1 $-1 $164 $69 #
plane-surface $-1 -0.70849999999999991 8.6763360168315421e-017 0 1 -1.2246063538223773e-016 -6.1230317691118863e-017 6.1230317691118863e-017 -7.4983036091106872e-033 1 forward_v I I I I #
loop $-1 $-1 $114 $43 #
coedge $-1 $112 $112 $165 $166 reversed $70 $-1 #
coedge $-1 $113 $113 $164 $167 forward $72 $-1 #
coedge $-1 $114 $114 $73 $115 reversed $111 $-1 #
edge $168 $169 $169 $114 $170 forward #
ref_vt-eye-attrib $-1 $-1 $75 $31 $12 $13 #
fmesh-eye-attrib $-1 $171 $76 $48 #
color-adesk-attrib $-1 $172 $-1 $77 7 #
face $173 $174 $175 $15 $-1 $176 forward single #
loop $-1 $-1 $177 $77 #
plane-surface $-1 -1.6784999999999997 -0.35600952641916433 0.13337341226347271 6.1230317691118875e-017 -0.86602540378443849 0.50000000000000044 -1 -5.3027010602300655e-017 3.0615158845559456e-017 forward_v I I I I #
coedge $-1 $178 $179 $180 $181 forward $78 $-1 #
coedge $-1 $182 $80 $179 $183 reversed $49 $-1 #
coedge $-1 $80 $182 $184 $185 forward $49 $-1 #
coedge $-1 $186 $180 $80 $126 reversed $187 $-1 #
edge $188 $189 $190 $80 $191 forward #
coedge $-1 $127 $127 $81 $128 forward $192 $-1 #
edge $193 $194 $194 $127 $195 forward #
loop $-1 $187 $82 $196 #
color-adesk-attrib $-1 $197 $-1 $83 7 #
vertex $-1 $83 $198 #
ellipse-curve $-1 -1.6284999999999998 2.2204460492503128e-016 1.1102230246251558e-016 -1 -5.3027010602300655e-017 3.0615158845559456e-017 9.1845476536678289e-019 -0.012990381056766576 0.0075000000000000049 1 I I #
ref_vt-eye-attrib $-1 $-1 $85 $35 $12 $13 #
fmesh-eye-attrib $-1 $199 $86 $55 #
color-adesk-attrib $-1 $200 $-1 $87 40 #
face $201 $202 $203 $17 $-1 $204 forward single #
loop $-1 $205 $92 $87 #
plane-surface $-1 0 0 0 1 -1.2246063538223773e-016 -6.1230317691118863e-017 6.1230317691118863e-017 -7.4983036091106872e-033 1 forward_v I I I I #
loop $-1 $-1 $206 $55 #
coedge $-1 $140 $140 $207 $208 reversed $88 $-1 #
edge $209 $210 $210 $90 $211 forward #
color-adesk-attrib $-1 $212 $-1 $93 40 #
vertex $-1 $93 $213 #
ellipse-curve $-1 0 0 -1.5307579422779716e-017 -1 1.2246063538223773e-016 6.1230317691118863e-017 -3.6738190614671316e-018 4.4989821654664121e-034 -0.059999999999999998 1 I I #
ref_vt-eye-attrib $-1 $-1 $95 $39 $12 $13 #
fmesh-eye-attrib $-1 $214 $96 $62 #
color-adesk-attrib $-1 $215 $-1 $97 7 #
loop $-1 $216 $103 $97 #
plane-surface $-1 -1.7284999999999999 2.1167320825819789e-016 1.1102230246251565e-016 -1 1.2246063538223773e-016 6.1230317691118863e-017 -6.1230317691118863e-017 7.4983036091106872e-033 -1 forward_v I I I I #
loop $-1 $-1 $153 $62 #
coedge $-1 $151 $151 $102 $155 forward $98 $-1 #
coedge $-1 $152 $152 $217 $218 reversed $100 $-1 #
coedge $-1 $153 $153 $101 $154 forward $150 $-1 #
edge $219 $220 $220 $153 $221 forward #
edge $222 $223 $223 $151 $224 forward #
ptlist-eye-attrib $-1 $225 $-1 $104 #
vertex $-1 $104 $226 #
ellipse-curve $-1 -1.7284999999999999 2.2204460492503131e-016 1.0796078657795972e-016 1 -1.2246063538223773e-016 -6.1230317691118863e-017 4.5922738268339147e-017 0 -0.75 1 I I #
ref_vt-eye-attrib $-1 $-1 $106 $43 $12 $13 #
fmesh-eye-attrib $-1 $227 $107 $69 #
color-adesk-attrib $-1 $228 $-1 $108 256 #
loop $-1 $-1 $165 $108 #
plane-surface $-1 -1.6284999999999998 1.9942714471997411e-016 1.1102230246251565e-016 -1 1.2246063538223773e-016 6.1230317691118863e-017 -6.1230317691118863e-017 7.4983036091106872e-033 -1 forward_v I I I I #
coedge $-1 $164 $164 $113 $167 reversed $109 $-1 #
coedge $-1 $165 $165 $112 $166 forward $162 $-1 #
edge $229 $230 $230 $165 $231 forward #
edge $232 $233 $233 $164 $234 forward #
color-adesk-attrib $-1 $235 $-1 $115 256 #
vertex $-1 $115 $236 #
ellipse-curve $-1 -0.80849999999999989 9.9009423706539186e-017 -2.2042914368802791e-017 1 -1.2246063538223773e-016 -6.1230317691118863e-017 5.5511151231257827e-017 -5.5863733777750118e-015 0.80000000000000004 1 I I #
ref_vt-eye-attrib $-1 $-1 $117 $48 $12 $13 #
fmesh-eye-attrib $-1 $237 $118 $77 #
color-adesk-attrib $-1 $238 $-1 $119 7 #
face $239 $240 $241 $15 $-1 $242 forward single #
loop $-1 $-1 $243 $119 #
plane-surface $-1 -1.6784999999999997 -0.29350952641916422 0.24162658773652743 -4.0621954936061226e-018 0.55635305987413608 0.83094601074238628 -1 -5.3027010602300655e-017 3.0615158845559456e-017 forward_v I I I I #
coedge $-1 $244 $245 $246 $247 forward $120 $-1 #
coedge $-1 $248 $122 $245 $249 reversed $78 $-1 #
coedge $-1 $122 $248 $123 $183 forward $78 $-1 #
coedge $-1 $125 $246 $122 $181 reversed $187 $-1 #
edge $250 $190 $251 $122 $252 forward #
coedge $-1 $124 $123 $253 $254 reversed $49 $-1 #
edge $255 $256 $190 $179 $257 forward #
coedge $-1 $258 $259 $124 $185 reversed $260 $-1 #
edge $261 $262 $189 $124 $263 forward #
coedge $-1 $264 $125 $259 $265 reversed $187 $-1 #
loop $-1 $-1 $125 $196 #
color-adesk-attrib $-1 $266 $-1 $126 7 #
vertex $-1 $185 $267 #
vertex $-1 $183 $268 #
ellipse-curve $-1 -1.6284999999999998 8.8020737701594138e-016 -5.2536317602590379e-016 -1 -5.3027010602300655e-017 3.0615158845559456e-017 -4.06219549360617e-019 -0.044144382453917913 -0.089728888869540599 1 F -1.1865750964556279 F 1.1865750964556294 #
loop $-1 $269 $127 $270 #
color-adesk-attrib $-1 $271 $-1 $128 7 #
vertex $-1 $128 $272 #
ellipse-curve $-1 -1.6784999999999997 2.2204460492503128e-016 1.1102230246251558e-016 1 5.3027010602300655e-017 -3.0615158845559456e-017 9.1845476536678289e-019 -0.012990381056766576 0.0075000000000000049 1 I I #
face $273 $-1 $129 $15 $-1 $274 reversed single #
ptlist-eye-attrib $-1 $-1 $130 $83 #
point $-1 -1.6284999999999998 0.012990381056766911 -0.0074999999999999581 #
ref_vt-eye-attrib $-1 $-1 $134 $55 $12 $13 #
fmesh-eye-attrib $-1 $275 $135 $87 #
color-adesk-attrib $-1 $276 $-1 $136 40 #
face $277 $278 $279 $17 $-1 $280 forward single #
loop $-1 $281 $282 $136 #
cone-surface $-1 -0.34499999999999992 4.2248919206872004e-017 0 -1 1.2246063538223773e-016 6.1230317691118863e-017 -1.2689983341484384e-017 1.55402342298819e-033 -0.20724999999999999 1 I I 0 1 0.20724999999999999 forward I I I I #
loop $-1 $-1 $207 $87 #
coedge $-1 $206 $206 $283 $284 reversed $139 $-1 #
coedge $-1 $207 $207 $140 $208 forward $205 $-1 #
edge $285 $286 $286 $207 $287 forward #
color-adesk-attrib $-1 $288 $-1 $141 40 #
vertex $-1 $141 $289 #
ellipse-curve $-1 -0.5 6.1230317691118863e-017 0 -1 1.2246063538223773e-016 6.1230317691118863e-017 -3.6738190614671316e-018 4.4989821654664121e-034 -0.059999999999999998 1 I I #
ptlist-eye-attrib $-1 $-1 $142 $93 #
point $-1 0 0 -0.060000000000000053 #
ref_vt-eye-attrib $-1 $-1 $146 $62 $12 $13 #
fmesh-eye-attrib $-1 $290 $147 $97 #
loop $-1 $-1 $217 $97 #
coedge $-1 $217 $217 $152 $218 forward $216 $-1 #
edge $291 $292 $292 $217 $293 forward #
color-adesk-attrib $-1 $294 $-1 $154 7 #
vertex $-1 $154 $295 #
ellipse-curve $-1 -1.6284999999999998 1.9942714471997411e-016 1.1102230246251565e-016 1 -1.2246063538223773e-016 -6.1230317691118863e-017 -4.8984254152895092e-017 5.9986428872885502e-033 -0.80000000000000004 1 I I #
ptlist-eye-attrib $-1 $296 $-1 $155 #
vertex $-1 $155 $297 #
ellipse-curve $-1 -1.6284999999999998 2.2204460492503131e-016 1.1408381834707162e-016 -1 1.2246063538223773e-016 6.1230317691118863e-017 4.5922738268339147e-017 0 -0.75 1 I I #
color-adesk-attrib $-1 $-1 $156 $104 7 #
point $-1 -1.7284999999999999 2.2204460492503131e-016 -0.74999999999999989 #
ref_vt-eye-attrib $-1 $-1 $160 $69 $12 $13 #
fmesh-eye-attrib $-1 $298 $161 $108 #
color-adesk-attrib $-1 $299 $-1 $166 256 #
vertex $-1 $166 $300 #
ellipse-curve $-1 -1.6284999999999998 1.9942714471997411e-016 1.1102230246251565e-016 -1 1.2246063538223773e-016 6.1230317691118863e-017 -4.8984254152895092e-017 5.9986428872885502e-033 -0.80000000000000004 1 I I #
color-adesk-attrib $-1 $301 $-1 $167 256 #
vertex $-1 $167 $302 #
ellipse-curve $-1 -0.70849999999999991 8.6763360168315421e-017 -2.8165946137914673e-017 -1 1.2246063538223773e-016 6.1230317691118863e-017 4.2861222383782611e-017 -4.8880767055531352e-015 0.70000000000000007 1 I I #
ptlist-eye-attrib $-1 $-1 $168 $115 #
point $-1 -0.80849999999999989 9.9009423706538754e-017 -0.80000000000000004 #
ref_vt-eye-attrib $-1 $-1 $172 $77 $12 $13 #
fmesh-eye-attrib $-1 $303 $173 $119 #
color-adesk-attrib $-1 $304 $-1 $174 7 #
face $305 $306 $307 $15 $-1 $308 forward single #
loop $-1 $-1 $309 $174 #
cone-surface $-1 -1.6784999999999997 2.2204460492503128e-016 1.1102230246251558e-016 1 5.3027010602300655e-017 -3.0615158845559456e-017 -4.0621954936061305e-019 0.055635305987413584 0.08309460107423855 1 I I 0 1 0.099999999999999922 forward I I I I #
coedge $-1 $310 $311 $312 $313 forward $175 $-1 #
coedge $-1 $314 $177 $311 $315 reversed $120 $-1 #
coedge $-1 $177 $314 $178 $249 forward $120 $-1 #
coedge $-1 $180 $312 $177 $247 reversed $187 $-1 #
edge $316 $251 $317 $177 $318 forward #
coedge $-1 $179 $178 $319 $320 reversed $78 $-1 #
edge $321 $322 $251 $245 $323 forward #
color-adesk-attrib $-1 $324 $-1 $181 7 #
vertex $-1 $249 $325 #
straight-curve $-1 -1.6284999999999998 -0.09973377110459794 0.0072921122629629274 6.1095420223835691e-017 -0.89728888869539924 0.44144382453917719 I I #
coedge $-1 $319 $326 $182 $254 forward $269 $-1 #
edge $327 $262 $256 $182 $328 forward #
color-adesk-attrib $-1 $329 $-1 $183 7 #
vertex $-1 $254 $330 #
straight-curve $-1 -1.6784999999999997 -0.09973377110459794 0.0072921122629629274 1 5.3027010602300655e-017 -3.0615158845559456e-017 I I #
coedge $-1 $331 $184 $326 $332 reversed $260 $-1 #
coedge $-1 $184 $331 $186 $265 forward $260 $-1 #
loop $-1 $-1 $259 $306 #
color-adesk-attrib $-1 $333 $-1 $185 7 #
vertex $-1 $332 $334 #
straight-curve $-1 -1.6784999999999997 0.066639852339398745 -0.074559574034348 1 5.3027010602300655e-017 -3.0615158845559456e-017 I I #
coedge $-1 $335 $186 $336 $337 reversed $187 $-1 #
edge $338 $339 $189 $259 $340 forward #
ptlist-eye-attrib $-1 $-1 $188 $126 #
point $-1 -1.6284999999999998 0.066639852339398745 -0.074559574034348 #
point $-1 -1.6284999999999998 -0.09973377110459794 0.0072921122629629274 #
loop $-1 $-1 $326 $270 #
face $341 $196 $192 $15 $-1 $342 forward single #
ptlist-eye-attrib $-1 $-1 $193 $128 #
point $-1 -1.6784999999999997 -0.012990381056766462 0.0075000000000001775 #
color-adesk-attrib $-1 $343 $-1 $196 7 #
plane-surface $-1 -1.6284999999999998 0.066639852339398745 -0.074559574034348 -1 -5.3027010602300655e-017 3.0615158845559456e-017 -6.1230317691118863e-017 0.86602540378443837 -0.50000000000000033 forward_v I I I I #
ref_vt-eye-attrib $-1 $-1 $200 $87 $12 $13 #
fmesh-eye-attrib $-1 $344 $201 $136 #
color-adesk-attrib $-1 $345 $-1 $202 40 #
face $346 $347 $348 $17 $-1 $349 forward single #
loop $-1 $350 $283 $202 #
plane-surface $-1 -0.28999999999999992 3.5513584260848929e-017 0 1 -1.2246063538223773e-016 -6.1230317691118863e-017 6.1230317691118863e-017 -7.4983036091106872e-033 1 forward_v I I I I #
loop $-1 $-1 $351 $136 #
coedge $-1 $282 $282 $352 $353 reversed $203 $-1 #
coedge $-1 $283 $283 $206 $284 forward $279 $-1 #
edge $354 $355 $355 $283 $356 forward #
color-adesk-attrib $-1 $357 $-1 $208 40 #
vertex $-1 $208 $358 #
ellipse-curve $-1 0 0 0 1 -1.2246063538223773e-016 -6.1230317691118863e-017 -1.2062372585150415e-017 1.4771658109948053e-033 -0.19699999999999998 1 I I #
ptlist-eye-attrib $-1 $-1 $209 $141 #
point $-1 -0.5 6.1230317691118863e-017 -0.060000000000000053 #
ref_vt-eye-attrib $-1 $-1 $215 $97 $12 $13 #
color-adesk-attrib $-1 $359 $-1 $218 7 #
vertex $-1 $218 $360 #
ellipse-curve $-1 -1.7284999999999999 2.1167320825819789e-016 1.1102230246251565e-016 -1 1.2246063538223773e-016 6.1230317691118863e-017 -4.8984254152895092e-017 5.9986428872885502e-033 -0.80000000000000004 1 I I #
ptlist-eye-attrib $-1 $-1 $219 $154 #
point $-1 -1.6284999999999998 1.9942714471997411e-016 -0.80000000000000004 #
color-adesk-attrib $-1 $-1 $222 $155 7 #
point $-1 -1.6285000000000003 2.2204460492503131e-016 -0.74999999999999989 #
ref_vt-eye-attrib $-1 $-1 $228 $108 $12 $13 #
ptlist-eye-attrib $-1 $-1 $229 $166 #
point $-1 -1.6284999999999998 1.9942714471997411e-016 -0.80000000000000004 #
ptlist-eye-attrib $-1 $-1 $232 $167 #
point $-1 -0.70849999999999991 8.6763360168315039e-017 -0.70000000000000007 #
ref_vt-eye-attrib $-1 $-1 $238 $119 $12 $13 #
fmesh-eye-attrib $-1 $361 $239 $174 #
color-adesk-attrib $-1 $362 $-1 $240 7 #
face $363 $270 $260 $15 $-1 $364 forward single #
loop $-1 $-1 $336 $240 #
plane-surface $-1 -1.6784999999999997 0.097890411378790051 -0.02043201801318879 -4.0621954936060656e-018 0.55635305987413541 0.83094601074238683 -1 -5.3027010602300655e-017 3.0615158845559456e-017 forward_v I I I I #
coedge $-1 $365 $366 $335 $367 forward $241 $-1 #
coedge $-1 $368 $243 $366 $369 reversed $175 $-1 #
coedge $-1 $243 $368 $244 $315 forward $175 $-1 #
coedge $-1 $246 $335 $243 $313 reversed $187 $-1 #
edge $370 $317 $371 $243 $372 forward #
coedge $-1 $245 $244 $373 $374 reversed $120 $-1 #
edge $375 $376 $317 $311 $377 forward #
color-adesk-attrib $-1 $378 $-1 $247 7 #
vertex $-1 $315 $379 #
straight-curve $-1 -1.6284999999999998 -0.35600952641916433 0.13337341226347271 0 0.50000000000000033 0.86602540378443837 I I #
coedge $-1 $373 $253 $248 $320 forward $269 $-1 #
edge $380 $256 $322 $248 $381 forward #
color-adesk-attrib $-1 $382 $-1 $249 7 #
vertex $-1 $320 $383 #
straight-curve $-1 -1.6784999999999997 -0.35600952641916433 0.13337341226347271 1 5.3027010602300655e-017 -3.0615158845559456e-017 I I #
ptlist-eye-attrib $-1 $-1 $250 $181 #
point $-1 -1.6284999999999998 -0.35600952641916433 0.13337341226347271 #
coedge $-1 $253 $384 $258 $332 forward $269 $-1 #
color-adesk-attrib $-1 $385 $-1 $254 7 #
ellipse-curve $-1 -1.6784999999999997 8.8020737701594138e-016 -5.2536317602590379e-016 -1 -5.3027010602300655e-017 3.0615158845559456e-017 -4.06219549360617e-019 -0.044144382453917913 -0.089728888869540599 1 F -1.1865750964556279 F 1.1865750964556294 #
ptlist-eye-attrib $-1 $-1 $255 $183 #
point $-1 -1.6784999999999997 -0.09973377110459794 0.0072921122629629274 #
coedge $-1 $259 $258 $386 $387 forward $260 $-1 #
edge $388 $389 $262 $258 $390 forward #
ptlist-eye-attrib $-1 $-1 $261 $185 #
point $-1 -1.6784999999999997 0.066639852339398745 -0.074559574034348 #
coedge $-1 $312 $264 $309 $367 reversed $187 $-1 #
coedge $-1 $386 $391 $264 $337 forward $307 $-1 #
edge $392 $393 $339 $336 $394 forward #
color-adesk-attrib $-1 $395 $-1 $265 7 #
vertex $-1 $387 $396 #
straight-curve $-1 -1.6284999999999998 0.4893043531382078 -0.28250000000000025 6.1095420223835678e-017 -0.89728888869539958 0.44144382453917647 I I #
color-adesk-attrib $-1 $397 $-1 $270 7 #
plane-surface $-1 -1.6784999999999997 -0.015567702619145351 0.0089880172978273453 -1 -5.3027010602300655e-017 3.0615158845559456e-017 -6.1230317691118863e-017 0.86602540378443837 -0.50000000000000033 forward_v I I I I #
fmesh-eye-attrib $-1 $398 $273 $196 #
ref_vt-eye-attrib $-1 $-1 $276 $136 $12 $13 #
fmesh-eye-attrib $-1 $399 $277 $202 #
color-adesk-attrib $-1 $400 $-1 $278 40 #
face $401 $402 $403 $17 $-1 $404 reversed single #
loop $-1 $-1 $405 $278 #
plane-surface $-1 -0.70849999999999991 8.6763360168315421e-017 0 -1 1.2246063538223773e-016 6.1230317691118863e-017 -6.1230317691118863e-017 7.4983036091106872e-033 -1 forward_v I I I I #
loop $-1 $-1 $352 $202 #
coedge $-1 $351 $351 $406 $407 reversed $281 $-1 #
coedge $-1 $352 $352 $282 $353 forward $350 $-1 #
edge $408 $409 $409 $352 $410 forward #
color-adesk-attrib $-1 $411 $-1 $284 40 #
vertex $-1 $284 $412 #
ellipse-curve $-1 -0.28999999999999992 3.5513584260848929e-017 0 -1 1.2246063538223773e-016 6.1230317691118863e-017 -1.2062372585150415e-017 1.4771658109948053e-033 -0.19699999999999998 1 I I #
ptlist-eye-attrib $-1 $-1 $285 $208 #
point $-1 0 0 -0.19700000000000006 #
ptlist-eye-attrib $-1 $-1 $291 $218 #
point $-1 -1.7284999999999999 2.1167320825819789e-016 -0.80000000000000004 #
ref_vt-eye-attrib $-1 $-1 $304 $174 $12 $13 #
fmesh-eye-attrib $-1 $413 $305 $240 #
color-adesk-attrib $-1 $414 $-1 $306 7 #
plane-surface $-1 -1.6784999999999997 0.4893043531382078 -0.28250000000000025 -4.0621954936061057e-018 -0.44144382453917641 -0.89728888869539947 1 5.3027010602300655e-017 -3.0615158845559456e-017 forward_v I I I I #
coedge $-1 $415 $309 $391 $416 reversed $241 $-1 #
coedge $-1 $309 $415 $310 $369 forward $241 $-1 #
edge $417 $371 $393 $309 $418 forward #
coedge $-1 $311 $310 $419 $420 reversed $175 $-1 #
edge $421 $422 $371 $366 $423 forward #
color-adesk-attrib $-1 $424 $-1 $313 7 #
vertex $-1 $369 $425 #
straight-curve $-1 -1.6284999999999998 -0.29350952641916422 0.24162658773652743 -6.1095420223835678e-017 0.83094601074238628 -0.55635305987413619 I I #
coedge $-1 $419 $319 $314 $374 forward $269 $-1 #
edge $426 $322 $376 $314 $427 forward #
color-adesk-attrib $-1 $428 $-1 $315 7 #
vertex $-1 $374 $429 #
straight-curve $-1 -1.6784999999999997 -0.29350952641916422 0.24162658773652743 1 5.3027010602300655e-017 -3.0615158845559456e-017 I I #
ptlist-eye-attrib $-1 $-1 $316 $247 #
point $-1 -1.6284999999999998 -0.29350952641916422 0.24162658773652743 #
color-adesk-attrib $-1 $430 $-1 $320 7 #
straight-curve $-1 -1.6784999999999997 -0.09973377110459794 0.0072921122629629274 6.1095420223835691e-017 -0.89728888869539924 0.44144382453917719 I I #
ptlist-eye-attrib $-1 $-1 $321 $249 #
point $-1 -1.6784999999999997 -0.35600952641916433 0.13337341226347271 #
coedge $-1 $326 $431 $432 $433 forward $269 $-1 #
ptlist-eye-attrib $-1 $-1 $327 $254 #
coedge $-1 $432 $336 $331 $387 reversed $307 $-1 #
edge $434 $389 $339 $331 $435 forward #
color-adesk-attrib $-1 $436 $-1 $332 7 #
vertex $-1 $332 $437 #
straight-curve $-1 -1.6784999999999997 0.4893043531382078 -0.28250000000000025 6.1095420223835678e-017 -0.89728888869539958 0.44144382453917647 I I #
coedge $-1 $336 $432 $365 $416 forward $307 $-1 #
color-adesk-attrib $-1 $438 $-1 $337 7 #
vertex $-1 $416 $439 #
straight-curve $-1 -1.6284999999999998 0.097890411378790051 -0.02043201801318879 -6.1095420223835678e-017 0.83094601074238694 -0.55635305987413541 I I #
ptlist-eye-attrib $-1 $-1 $338 $265 #
point $-1 -1.6284999999999998 0.4893043531382078 -0.28250000000000025 #
fmesh-eye-attrib $-1 $440 $341 $270 #
ref_vt-eye-attrib $-1 $-1 $343 $196 $12 $13 #
ref_vt-eye-attrib $-1 $-1 $345 $202 $12 $13 #
fmesh-eye-attrib $-1 $441 $346 $278 #
color-adesk-attrib $-1 $442 $-1 $347 40 #
face $443 $444 $445 $17 $-1 $446 reversed single #
loop $-1 $447 $406 $347 #
plane-surface $-1 -0.39999999999999991 4.8984254152895079e-017 0 -1 1.2246063538223773e-016 6.1230317691118863e-017 -6.1230317691118863e-017 7.4983036091106872e-033 -1 forward_v I I I I #
coedge $-1 $448 $449 $450 $451 forward $348 $-1 #
coedge $-1 $406 $406 $351 $407 forward $403 $-1 #
edge $452 $453 $453 $406 $454 forward #
color-adesk-attrib $-1 $455 $-1 $353 40 #
vertex $-1 $353 $456 #
ellipse-curve $-1 -0.28999999999999992 3.5513584260848929e-017 0 1 -1.2246063538223773e-016 -6.1230317691118863e-017 -1.2689983341484384e-017 1.55402342298819e-033 -0.20724999999999999 1 I I #
ptlist-eye-attrib $-1 $-1 $354 $284 #
point $-1 -0.28999999999999998 3.5513584260848935e-017 -0.19700000000000006 #
ref_vt-eye-attrib $-1 $-1 $362 $240 $12 $13 #
fmesh-eye-attrib $-1 $457 $363 $306 #
coedge $-1 $366 $365 $431 $458 reversed $241 $-1 #
edge $459 $460 $393 $391 $461 forward #
color-adesk-attrib $-1 $462 $-1 $367 7 #
ellipse-curve $-1 -1.6284999999999998 2.2204460492503128e-016 1.1102230246251558e-016 -1 -5.3027010602300655e-017 3.0615158845559456e-017 -4.0621954936061305e-019 0.055635305987413584 0.08309460107423855 1 F -1.1865750964556305 F 1.1865750964556308 #
coedge $-1 $431 $373 $368 $420 forward $269 $-1 #
edge $463 $376 $422 $368 $464 forward #
color-adesk-attrib $-1 $465 $-1 $369 7 #
vertex $-1 $420 $466 #
straight-curve $-1 -1.6784999999999997 -0.056182040019273037 0.082725923260322479 1 5.3027010602300655e-017 -3.0615158845559456e-017 I I #
ptlist-eye-attrib $-1 $-1 $370 $313 #
point $-1 -1.6284999999999998 -0.056182040019273037 0.082725923260322479 #
color-adesk-attrib $-1 $467 $-1 $374 7 #
straight-curve $-1 -1.6784999999999997 -0.35600952641916433 0.13337341226347271 0 0.50000000000000033 0.86602540378443837 I I #
ptlist-eye-attrib $-1 $-1 $375 $315 #
point $-1 -1.6784999999999997 -0.29350952641916422 0.24162658773652743 #
ptlist-eye-attrib $-1 $-1 $380 $320 #
coedge $-1 $384 $419 $415 $458 forward $269 $-1 #
coedge $-1 $391 $386 $384 $433 reversed $307 $-1 #
edge $468 $460 $389 $432 $469 forward #
color-adesk-attrib $-1 $470 $-1 $387 7 #
straight-curve $-1 -1.6784999999999997 0.4893043531382078 -0.28250000000000025 1 5.3027010602300655e-017 -3.0615158845559456e-017 I I #
ptlist-eye-attrib $-1 $-1 $388 $332 #
point $-1 -1.6784999999999997 0.4893043531382078 -0.28250000000000025 #
ptlist-eye-attrib $-1 $-1 $392 $337 #
point $-1 -1.6284999999999998 0.097890411378790051 -0.02043201801318879 #
ref_vt-eye-attrib $-1 $-1 $397 $270 $12 $13 #
ref_vt-eye-attrib $-1 $-1 $400 $278 $12 $13 #
fmesh-eye-attrib $-1 $471 $401 $347 #
color-adesk-attrib $-1 $472 $-1 $402 40 #
face $473 $474 $475 $17 $-1 $476 reversed single #
loop $-1 $-1 $477 $402 #
plane-surface $-1 -0.55424999999999991 0.27374999999999977 0 -1.2246063538223773e-016 -1 0 -1 1.2246063538223773e-016 6.1230317691118863e-017 forward_v I I I I #
loop $-1 $-1 $478 $347 #
coedge $-1 $479 $405 $480 $481 forward $348 $-1 #
coedge $-1 $405 $479 $482 $483 forward $348 $-1 #
coedge $-1 $484 $485 $405 $451 reversed $486 $-1 #
edge $487 $488 $489 $450 $490 forward #
color-adesk-attrib $-1 $491 $-1 $407 40 #
vertex $-1 $407 $492 #
ellipse-curve $-1 -0.39999999999999991 4.8984254152895079e-017 0 -1 1.2246063538223773e-016 6.1230317691118863e-017 -1.2689983341484384e-017 1.55402342298819e-033 -0.20724999999999999 1 I I #
ptlist-eye-attrib $-1 $-1 $408 $353 #
point $-1 -0.28999999999999998 3.5513584260848935e-017 -0.20724999999999993 #
ref_vt-eye-attrib $-1 $-1 $414 $306 $12 $13 #
edge $493 $422 $460 $415 $494 forward #
color-adesk-attrib $-1 $495 $-1 $416 7 #
vertex $-1 $458 $496 #
straight-curve $-1 -1.6784999999999997 0.097890411378790051 -0.02043201801318879 1 5.3027010602300655e-017 -3.0615158845559456e-017 I I #
ptlist-eye-attrib $-1 $-1 $417 $367 #
color-adesk-attrib $-1 $497 $-1 $420 7 #
straight-curve $-1 -1.6784999999999997 -0.29350952641916422 0.24162658773652743 -6.1095420223835678e-017 0.83094601074238628 -0.55635305987413619 I I #
ptlist-eye-attrib $-1 $-1 $421 $369 #
point $-1 -1.6784999999999997 -0.056182040019273037 0.082725923260322479 #
ptlist-eye-attrib $-1 $-1 $426 $374 #
color-adesk-attrib $-1 $498 $-1 $433 7 #
straight-curve $-1 -1.6784999999999997 0.097890411378790051 -0.02043201801318879 -6.1095420223835678e-017 0.83094601074238694 -0.55635305987413541 I I #
ptlist-eye-attrib $-1 $-1 $434 $387 #
ref_vt-eye-attrib $-1 $-1 $442 $347 $12 $13 #
fmesh-eye-attrib $-1 $499 $443 $402 #
color-adesk-attrib $-1 $500 $-1 $444 40 #
face $501 $502 $503 $17 $-1 $504 reversed single #
loop $-1 $-1 $505 $444 #
plane-surface $-1 -0.55424999999999991 6.7873807160605253e-017 0.27374999999999994 -6.1230317691118863e-017 7.4983036091106872e-033 -1 1 -1.2246063538223773e-016 -6.1230317691118863e-017 forward_v I I I I #
coedge $-1 $506 $482 $507 $508 forward $445 $-1 #
coedge $-1 $509 $510 $511 $512 forward $447 $-1 #
coedge $-1 $449 $448 $513 $514 forward $348 $-1 #
coedge $-1 $515 $516 $448 $481 reversed $503 $-1 #
edge $517 $489 $518 $480 $519 forward #
coedge $-1 $477 $520 $449 $483 reversed $445 $-1 #
edge $521 $522 $488 $482 $523 forward #
coedge $-1 $511 $450 $520 $524 forward $486 $-1 #
coedge $-1 $450 $511 $515 $525 reversed $486 $-1 #
loop $-1 $-1 $484 $502 #
color-adesk-attrib $-1 $526 $-1 $451 40 #
vertex $-1 $451 $527 #
vertex $-1 $451 $528 #
straight-curve $-1 -0.70849999999999991 8.6763360168315421e-017 -0.27375000000000016 -1.2246063538223773e-016 -1 0 I I #
ptlist-eye-attrib $-1 $-1 $452 $407 #
point $-1 -0.39999999999999997 4.8984254152895085e-017 -0.20724999999999993 #
color-adesk-attrib $-1 $529 $-1 $458 7 #
ellipse-curve $-1 -1.6784999999999997 2.2204460492503128e-016 1.1102230246251558e-016 -1 -5.3027010602300655e-017 3.0615158845559456e-017 -4.0621954936061305e-019 0.055635305987413584 0.08309460107423855 1 F -1.1865750964556305 F 1.1865750964556308 #
ptlist-eye-attrib $-1 $-1 $459 $416 #
point $-1 -1.6784999999999997 0.097890411378790051 -0.02043201801318879 #
ptlist-eye-attrib $-1 $-1 $463 $420 #
ptlist-eye-attrib $-1 $-1 $468 $433 #
ref_vt-eye-attrib $-1 $-1 $472 $402 $12 $13 #
fmesh-eye-attrib $-1 $530 $473 $444 #
color-adesk-attrib $-1 $531 $-1 $474 40 #
face $532 $-1 $486 $17 $-1 $533 reversed single #
loop $-1 $-1 $515 $474 #
plane-surface $-1 -0.55424999999999991 -0.27374999999999966 0 1.2246063538223773e-016 1 0 1 -1.2246063538223773e-016 -6.1230317691118863e-017 forward_v I I I I #
coedge $-1 $534 $513 $516 $535 forward $475 $-1 #
coedge $-1 $520 $477 $509 $536 reversed $445 $-1 #
coedge $-1 $513 $534 $477 $508 reversed $475 $-1 #
edge $537 $522 $538 $507 $539 forward #
coedge $-1 $540 $478 $506 $536 forward $447 $-1 #
coedge $-1 $478 $540 $541 $542 forward $447 $-1 #
coedge $-1 $485 $484 $478 $512 reversed $486 $-1 #
edge $543 $544 $545 $511 $546 forward #
coedge $-1 $505 $507 $479 $514 reversed $475 $-1 #
edge $547 $518 $522 $513 $548 forward #
coedge $-1 $541 $480 $485 $525 forward $503 $-1 #
coedge $-1 $480 $541 $505 $535 reversed $503 $-1 #
color-adesk-attrib $-1 $549 $-1 $481 40 #
vertex $-1 $481 $550 #
straight-curve $-1 -0.70849999999999991 -0.2737499999999996 0 6.1230317691118863e-017 -7.4983036091106872e-033 1 I I #
coedge $-1 $482 $506 $484 $524 reversed $445 $-1 #
color-adesk-attrib $-1 $551 $-1 $483 40 #
vertex $-1 $514 $552 #
straight-curve $-1 -0.70849999999999991 0.27374999999999983 0 -6.1230317691118863e-017 7.4983036091106872e-033 -1 I I #
edge $553 $488 $545 $484 $554 forward #
edge $555 $489 $544 $485 $556 forward #
ptlist-eye-attrib $-1 $-1 $487 $451 #
point $-1 -0.70849999999999991 0.27374999999999983 -0.27375000000000016 #
point $-1 -0.70849999999999991 -0.2737499999999996 -0.27375000000000016 #
ptlist-eye-attrib $-1 $-1 $493 $458 #
ref_vt-eye-attrib $-1 $-1 $500 $444 $12 $13 #
fmesh-eye-attrib $-1 $557 $501 $474 #
color-adesk-attrib $-1 $558 $-1 $502 40 #
plane-surface $-1 -0.55424999999999991 6.7873807160605253e-017 -0.27375000000000016 6.1230317691118863e-017 -7.4983036091106872e-033 1 -1 1.2246063538223773e-016 6.1230317691118863e-017 forward_v I I I I #
coedge $-1 $507 $505 $540 $559 reversed $475 $-1 #
edge $560 $518 $561 $516 $562 forward #
edge $563 $545 $538 $506 $564 forward #
color-adesk-attrib $-1 $565 $-1 $508 40 #
vertex $-1 $559 $566 #
straight-curve $-1 -0.55424999999999991 0.27374999999999977 0.27374999999999994 1 -1.2246063538223773e-016 -6.1230317691118863e-017 I I #
coedge $-1 $510 $509 $534 $559 forward $447 $-1 #
coedge $-1 $516 $515 $510 $542 reversed $503 $-1 #
edge $567 $561 $544 $541 $568 forward #
color-adesk-attrib $-1 $569 $-1 $512 40 #
vertex $-1 $512 $570 #
vertex $-1 $524 $571 #
straight-curve $-1 -0.39999999999999997 4.8984254152895085e-017 -0.27375000000000016 1.2246063538223773e-016 1 0 I I #
color-adesk-attrib $-1 $572 $-1 $514 40 #
straight-curve $-1 -0.70849999999999991 8.6763360168315421e-017 0.27374999999999994 1.2246063538223773e-016 1 0 I I #
ptlist-eye-attrib $-1 $-1 $517 $481 #
point $-1 -0.70849999999999991 -0.2737499999999996 0.27374999999999994 #
ptlist-eye-attrib $-1 $-1 $521 $483 #
point $-1 -0.70849999999999991 0.27374999999999983 0.27374999999999994 #
color-adesk-attrib $-1 $573 $-1 $524 40 #
straight-curve $-1 -0.55424999999999991 0.27374999999999977 -0.27375000000000016 1 -1.2246063538223773e-016 -6.1230317691118863e-017 I I #
color-adesk-attrib $-1 $574 $-1 $525 40 #
straight-curve $-1 -0.55424999999999991 -0.27374999999999966 -0.27375000000000016 1 -1.2246063538223773e-016 -6.1230317691118863e-017 I I #
ref_vt-eye-attrib $-1 $-1 $531 $474 $12 $13 #
fmesh-eye-attrib $-1 $575 $532 $502 #
edge $576 $538 $561 $534 $577 forward #
color-adesk-attrib $-1 $578 $-1 $535 40 #
vertex $-1 $542 $579 #
straight-curve $-1 -0.55424999999999991 -0.27374999999999966 0.27374999999999994 1 -1.2246063538223773e-016 -6.1230317691118863e-017 I I #
color-adesk-attrib $-1 $580 $-1 $536 40 #
straight-curve $-1 -0.39999999999999986 0.27374999999999977 0 6.1230317691118863e-017 -7.4983036091106872e-033 1 I I #
ptlist-eye-attrib $-1 $-1 $537 $508 #
point $-1 -0.39999999999999986 0.27374999999999977 0.27374999999999994 #
color-adesk-attrib $-1 $581 $-1 $542 40 #
straight-curve $-1 -0.39999999999999997 -0.27374999999999966 0 -6.1230317691118863e-017 7.4983036091106872e-033 -1 I I #
ptlist-eye-attrib $-1 $-1 $543 $512 #
point $-1 -0.40000000000000002 -0.27374999999999966 -0.27375000000000016 #
point $-1 -0.39999999999999991 0.27374999999999977 -0.27375000000000016 #
ptlist-eye-attrib $-1 $-1 $547 $514 #
ptlist-eye-attrib $-1 $-1 $553 $524 #
ptlist-eye-attrib $-1 $-1 $555 $525 #
ref_vt-eye-attrib $-1 $-1 $558 $502 $12 $13 #
color-adesk-attrib $-1 $582 $-1 $559 40 #
straight-curve $-1 -0.39999999999999991 4.8984254152895079e-017 0.27374999999999994 -1.2246063538223773e-016 -1 0 I I #
ptlist-eye-attrib $-1 $-1 $560 $535 #
point $-1 -0.39999999999999997 -0.27374999999999966 0.27374999999999994 #
ptlist-eye-attrib $-1 $-1 $563 $536 #
ptlist-eye-attrib $-1 $-1 $567 $542 #
ptlist-eye-attrib $-1 $-1 $576 $559 #
