700 0 1 0           
29 Autodesk Inventor 6.2.0.12000 17 ASM 6.0.1.6021 NT 24 Thu Jan 03 17:55:18 2008 
25.399999999999999 9.9999999999999995e-007 1e-010 
body $-1 -1 $-1 $1 $-1 $-1 #
lump $-1 -1 $-1 $-1 $2 $0 #
shell $-1 -1 $-1 $-1 $-1 $3 $-1 $1 #
face $-1 -1 $-1 $4 $5 $2 $-1 $6 reversed single #
face $-1 -1 $-1 $7 $8 $2 $-1 $9 forward single #
loop $-1 -1 $-1 $-1 $10 $3 #
cone-surface $-1 -1 $-1 0.48173768665431788 0.17500000000000002 0 0 1 0 -0.14999999999999999 0 0 1 I I 0 1 0.14999999999999999 forward I I I I #
face $-1 -1 $-1 $11 $12 $2 $-1 $13 forward single #
loop $-1 -1 $-1 $-1 $14 $4 #
cone-surface $-1 -1 $-1 0 0 0 0 0 1 -0.4375 0 0 1 I I 0 1 0.4375 forward I I I I #
coedge $-1 -1 $-1 $15 $15 $14 $16 reversed $5 $-1 #
face $-1 -1 $-1 $17 $18 $2 $-1 $19 reversed single #
loop $-1 -1 $-1 $20 $21 $7 #
plane-surface $-1 -1 $-1 0.5625 0.17499999999999996 0.13500000000000001 1.35303107625028e-016 1 0 0 0 0.39370078740157477 forward_v I I I I #
coedge $-1 -1 $-1 $22 $23 $10 $16 forward $8 $-1 #
coedge $-1 -1 $-1 $10 $10 $24 $25 forward $5 $-1 #
edge $-1 -1 $-1 $26 1.0175904810267233 $27 2.0077880035893352 $14 $28 forward @7 unknown #
face $-1 -1 $-1 $29 $30 $2 $-1 $31 reversed single #
loop $-1 -1 $-1 $32 $33 $11 #
cone-surface $-1 -1 $-1 0.48173768665431788 0.079999999999999974 0 1.35303107625028e-016 1 0 0.062499999999999993 -8.4564442265642486e-018 0 1 I I 0 1 0.062499999999999993 reversed I I I I #
loop $-1 -1 $-1 $-1 $34 $7 #
coedge $-1 -1 $-1 $21 $21 $35 $36 forward $12 $-1 #
coedge $-1 -1 $-1 $37 $14 $38 $39 forward $8 $-1 #
coedge $-1 -1 $-1 $14 $40 $34 $41 forward $8 $-1 #
coedge $-1 -1 $-1 $34 $38 $15 $25 reversed $20 $-1 #
edge $-1 -1 $-1 $26 -1.0022407531026345 $27 1.0022407531026345 $24 $42 forward @7 unknown #
vertex $-1 -1 $-1 $41 $43 #
vertex $-1 -1 $-1 $39 $44 #
intcurve-curve $-1 -1 $-1 forward { surfintcur full nubs 3 open 9 
	1.0175904810267233 3 1.1188868309847144 2 1.3026291011806173 2 1.4076591717443234 2 1.5126892423080294 2 
	1.6177193128717353 2 1.7227493834354415 2 1.9064916536313443 2 2.0077880035893352 3 
	0.40097537330863603 0.17499999999999999 0.12640193330425722 
	0.39582423317327603 0.18680274479280612 0.12311070204833902 
	0.39028527828928766 0.1980619733000849 0.11913545614460082 
	0.3741320881068661 0.22783364025733632 0.1053941359613456 
	0.36297969123046026 0.24483641270790474 0.093741475465722743 
	0.3470794307490852 0.2665291997416126 0.067043919899500273 
	0.34148598613691239 0.27355108788984628 0.054968225019300487 
	0.33378909988342359 0.28289168383130153 0.028342004886943842 
	0.33173768665431791 0.28523035822513981 0.013783473827257999 
	0.33173768665431791 0.28523035822513981 -0.013783473827257999 
	0.33378909988342359 0.28289168383130153 -0.028342004886943842 
	0.34148598613691239 0.27355108788984628 -0.054968225019300487 
	0.3470794307490852 0.2665291997416126 -0.067043919899500273 
	0.36297969123046026 0.24483641270790468 -0.093741475465722743 
	0.37413208810686605 0.22783364025733635 -0.10539413596134553 
	0.39028527828928761 0.19806197330008499 -0.11913545614460076 
	0.39582423317327603 0.18680274479280612 -0.12311070204833902 
	0.40097537330863603 0.17499999999999999 -0.12640193330425722 
	9.1949585068625055e-005 
	cone 0.48173768665431788 0.17500000000000002 0 0 1 0 -0.14999999999999999 0 0 1 I I 0 1 0.14999999999999999 forward I I I I 
	cone 0 0 0 0 0 1 -0.4375 0 0 1 I I 0 1 0.4375 forward I I I I 
	nullbs 
	nullbs 
	I I 
	0 
	0 
	0 
	} I I #
face $-1 -1 $-1 $45 $46 $2 $-1 $47 reversed single #
loop $-1 -1 $-1 $48 $49 $17 #
cone-surface $-1 -1 $-1 0.48173768665431771 -1.2056701271484074 0 1.35303107625028e-016 1 0 0.048999999999999995 -6.6298522736263713e-018 0 1 I I 0 1 0.048999999999999995 reversed I I I I #
loop $-1 -1 $-1 $-1 $35 $11 #
coedge $-1 -1 $-1 $33 $33 $50 $51 reversed $18 $-1 #
coedge $-1 -1 $-1 $52 $24 $23 $41 reversed $20 $-1 #
coedge $-1 -1 $-1 $35 $35 $21 $36 reversed $32 $-1 #
edge $-1 -1 $-1 $53 0 $53 6.2831853071795862 $21 $54 forward @7 unknown #
coedge $-1 -1 $-1 $55 $22 $56 $57 forward $8 $-1 #
coedge $-1 -1 $-1 $24 $58 $22 $39 reversed $20 $-1 #
edge $-1 -1 $-1 $27 0.32106091059281339 $59 0.34290000000000004 $22 $60 forward @7 unknown #
coedge $-1 -1 $-1 $23 $55 $61 $62 forward $8 $-1 #
edge $-1 -1 $-1 $63 -0.34290000000000004 $26 -0.32106091059281339 $23 $60 forward @7 unknown #
ellipse-curve $-1 -1 $-1 0.48173768665431788 0.17500000000000002 0 -1.35303107625028e-016 -1 0 -0.14999999999999999 2.0295466143754199e-017 0 1 I I #
point $-1 -1 $-1 0.40097537330863603 0.17499999999999999 0.12640193330425722 #
point $-1 -1 $-1 0.40097537330863603 0.17499999999999999 -0.12640193330425722 #
face $-1 -1 $-1 $64 $65 $2 $-1 $66 reversed single #
loop $-1 -1 $-1 $67 $68 $29 #
plane-surface $-1 -1 $-1 0.12295832627357935 -0.022499999999999999 0.23999999999999999 0 -1 0 0 0 -0.39370078740157477 forward_v I I I I #
loop $-1 -1 $-1 $-1 $69 $17 #
coedge $-1 -1 $-1 $49 $49 $68 $70 reversed $30 $-1 #
coedge $-1 -1 $-1 $50 $50 $33 $51 forward $65 $-1 #
edge $-1 -1 $-1 $71 -3.1415926535897931 $71 3.1415926535897931 $50 $72 forward @7 unknown #
coedge $-1 -1 $-1 $73 $34 $74 $75 forward $20 $-1 #
vertex $-1 -1 $-1 $36 $76 #
ellipse-curve $-1 -1 $-1 0.48173768665431788 0.17499999999999999 0 -1.35303107625028e-016 -1 0 0.062499999999999993 -8.4564442265642486e-018 0 1 I I #
coedge $-1 -1 $-1 $40 $37 $77 $78 forward $8 $-1 #
coedge $-1 -1 $-1 $79 $80 $37 $57 reversed $81 $-1 #
edge $-1 -1 $-1 $59 -2.7300758075223053 $82 2.7300758075223053 $37 $83 forward @7 unknown #
coedge $-1 -1 $-1 $38 $73 $79 $84 forward $20 $-1 #
vertex $-1 -1 $-1 $57 $85 #
straight-curve $-1 -1 $-1 0.40097537330863603 0.17499999999999999 0 0 0 -0.39370078740157477 I I #
coedge $-1 -1 $-1 $86 $74 $40 $62 reversed $87 $-1 #
edge $-1 -1 $-1 $88 -2.7300758075223053 $63 2.7300758075223053 $40 $89 forward @7 unknown #
vertex $-1 -1 $-1 $62 $90 #
face $-1 -1 $-1 $91 $92 $2 $-1 $93 forward single #
loop $-1 -1 $-1 $94 $50 $45 #
plane-surface $-1 -1 $-1 0.62638682414147617 0.022499999999999999 0.23999999999999999 0 1 0 0 0 0.39370078740157477 forward_v I I I I #
loop $-1 -1 $-1 $-1 $95 $29 #
coedge $-1 -1 $-1 $68 $68 $49 $70 forward $46 $-1 #
coedge $-1 -1 $-1 $69 $69 $96 $97 reversed $48 $-1 #
edge $-1 -1 $-1 $98 -3.1415926535897931 $98 3.1415926535897931 $68 $99 forward @7 unknown #
vertex $-1 -1 $-1 $51 $100 #
ellipse-curve $-1 -1 $-1 0.48173768665431788 0.022500000000000023 0 0 1 0 0.062499999999999993 -8.4564442265642486e-018 0 1 I I #
coedge $-1 -1 $-1 $58 $52 $101 $102 forward $20 $-1 #
coedge $-1 -1 $-1 $61 $103 $52 $75 reversed $87 $-1 #
edge $-1 -1 $-1 $63 0 $104 0.41027255179606481 $52 $105 forward @7 unknown #
point $-1 -1 $-1 0.54423768665431793 0.17499999999999996 0 #
coedge $-1 -1 $-1 $106 $107 $55 $78 reversed $108 $-1 #
edge $-1 -1 $-1 $82 -0.34290000000000004 $88 0.34290000000000004 $55 $109 forward @7 unknown #
coedge $-1 -1 $-1 $110 $56 $58 $84 reversed $81 $-1 #
coedge $-1 -1 $-1 $56 $111 $106 $112 reversed $81 $-1 #
loop $-1 -1 $-1 $113 $114 $115 #
vertex $-1 -1 $-1 $57 $116 #
ellipse-curve $-1 -1 $-1 0 0 -0.13500000000000001 0 0 1 -0.4375 0 0 1 I I #
edge $-1 -1 $-1 $117 -0.1025681379490162 $59 0.30770441384704861 $79 $118 forward @7 unknown #
point $-1 -1 $-1 0.40097537330863592 0.17499999999999999 -0.13500000000000001 #
coedge $-1 -1 $-1 $119 $61 $107 $120 reversed $87 $-1 #
loop $-1 -1 $-1 $-1 $121 $91 #
vertex $-1 -1 $-1 $62 $122 #
ellipse-curve $-1 -1 $-1 0 0 0.13500000000000001 0 0 -1 -0.4375 0 0 1 I I #
point $-1 -1 $-1 0.40097537330863592 0.17499999999999999 0.13500000000000001 #
face $-1 -1 $-1 $123 $124 $2 $-1 $125 reversed single #
loop $-1 -1 $-1 $-1 $126 $64 #
cone-surface $-1 -1 $-1 0 0 0.13500000000000001 0 0 1 -0.1875 0 0 1 I I 0 1 0.1875 forward I I I I #
loop $-1 -1 $-1 $-1 $127 $45 #
coedge $-1 -1 $-1 $128 $129 $114 $130 reversed $67 $-1 #
coedge $-1 -1 $-1 $96 $96 $69 $97 forward $131 $-1 #
edge $-1 -1 $-1 $132 -3.1415926535897931 $132 3.1415926535897931 $96 $133 forward @7 unknown #
vertex $-1 -1 $-1 $70 $134 #
ellipse-curve $-1 -1 $-1 0.48173768665431788 -0.022500000000000013 0 0 -1 0 0.048999999999999995 -6.6298522736263713e-018 0 1 I I #
point $-1 -1 $-1 0.41923768665431793 0.02250000000000003 7.6537897113898563e-018 #
coedge $-1 -1 $-1 $135 $136 $73 $102 reversed $137 $-1 #
edge $-1 -1 $-1 $104 0 $117 0.68580000000000008 $73 $138 forward @7 unknown #
coedge $-1 -1 $-1 $74 $139 $135 $140 reversed $87 $-1 #
vertex $-1 -1 $-1 $75 $141 #
straight-curve $-1 -1 $-1 0.40097537330863592 0.17499999999999999 0.13500000000000001 0.39370078740157477 -5.3268940009853539e-017 0 F 0 F 0.41027255179606481 #
coedge $-1 -1 $-1 $142 $77 $80 $112 forward $108 $-1 #
coedge $-1 -1 $-1 $77 $142 $86 $120 forward $108 $-1 #
loop $-1 -1 $-1 $-1 $106 $143 #
straight-curve $-1 -1 $-1 0.40097537330863592 -0.17500000000000013 0 0 0 0.39370078740157477 I I #
coedge $-1 -1 $-1 $144 $79 $136 $145 reversed $81 $-1 #
coedge $-1 -1 $-1 $80 $114 $146 $147 reversed $81 $-1 #
edge $-1 -1 $-1 $82 -0.1025681379490162 $148 0.30770441384704861 $80 $149 forward @7 unknown #
loop $-1 -1 $-1 $150 $151 $115 #
coedge $-1 -1 $-1 $111 $152 $95 $130 forward $81 $-1 #
face $-1 -1 $-1 $-1 $81 $2 $-1 $153 forward single #
point $-1 -1 $-1 0.40097537330863592 -0.17499999999999999 -0.13500000000000001 #
vertex $-1 -1 $-1 $145 $154 #
straight-curve $-1 -1 $-1 0.52211884332715897 0.17499999999999999 -0.13500000000000001 -0.39370078740157477 5.3268940009853539e-017 0 I I #
coedge $-1 -1 $-1 $121 $86 $155 $156 reversed $87 $-1 #
edge $-1 -1 $-1 $157 0 $88 0.41027255179606481 $107 $158 forward @7 unknown #
coedge $-1 -1 $-1 $159 $119 $160 $161 forward $87 $-1 #
point $-1 -1 $-1 0.40097537330863592 -0.17499999999999999 0.13500000000000001 #
face $-1 -1 $-1 $162 $137 $2 $-1 $163 forward single #
loop $-1 -1 $-1 $164 $165 $91 #
plane-surface $-1 -1 $-1 0 0 0.13500000000000001 0 0 -1 -0.39370078740157477 0 0 forward_v I I I I #
coedge $-1 -1 $-1 $166 $167 $168 $169 forward $92 $-1 #
coedge $-1 -1 $-1 $170 $171 $172 $173 reversed $94 $-1 #
coedge $-1 -1 $-1 $174 $95 $175 $176 reversed $67 $-1 #
coedge $-1 -1 $-1 $95 $160 $177 $178 reversed $67 $-1 #
edge $-1 -1 $-1 $179 0.15615707436744578 $180 1.2725929256325543 $114 $181 forward @7 unknown #
loop $-1 -1 $-1 $108 $96 $143 #
vertex $-1 -1 $-1 $97 $182 #
ellipse-curve $-1 -1 $-1 0.48173768665431788 -0.17500000000000004 0 -1.35303107625028e-016 1 0 0.048999999999999995 -6.6298522736263713e-018 0 1 I I #
point $-1 -1 $-1 0.43273768665431789 -0.022500000000000006 -6.0005711337296487e-018 #
coedge $-1 -1 $-1 $183 $101 $103 $140 forward $137 $-1 #
coedge $-1 -1 $-1 $101 $183 $110 $145 forward $137 $-1 #
loop $-1 -1 $-1 $-1 $183 $123 #
straight-curve $-1 -1 $-1 0.5625 0.17499999999999996 0.13500000000000001 0 0 -0.39370078740157477 I I #
coedge $-1 -1 $-1 $103 $159 $171 $184 forward $87 $-1 #
edge $-1 -1 $-1 $104 0 $185 0.38734999999999997 $135 $186 forward @7 unknown #
point $-1 -1 $-1 0.5625 0.17499999999999996 0.13500000000000001 #
coedge $-1 -1 $-1 $107 $106 $187 $188 reversed $108 $-1 #
face $-1 -1 $-1 $189 $131 $2 $-1 $190 forward single #
coedge $-1 -1 $-1 $152 $110 $191 $192 forward $81 $-1 #
edge $-1 -1 $-1 $193 0.27939999999999998 $117 0.66674999999999995 $110 $194 forward @7 unknown #
coedge $-1 -1 $-1 $177 $187 $111 $147 forward $195 $-1 #
edge $-1 -1 $-1 $148 -0.22224999999999998 $180 0.16509999999999997 $111 $194 forward @7 unknown #
vertex $-1 -1 $-1 $112 $196 #
straight-curve $-1 -1 $-1 0.44135652998147695 -0.17499999999999999 -0.13500000000000001 0.39370078740157477 5.3268940009853539e-017 0 I I #
loop $-1 -1 $-1 $197 $198 $115 #
coedge $-1 -1 $-1 $151 $151 $199 $200 forward $113 $-1 #
coedge $-1 -1 $-1 $114 $144 $201 $202 forward $81 $-1 #
plane-surface $-1 -1 $-1 0 0 -0.13500000000000001 0 0 -1 -0.39370078740157477 0 0 forward_v I I I I #
point $-1 -1 $-1 0.5625 0.17499999999999996 -0.13500000000000001 #
coedge $-1 -1 $-1 $187 $177 $119 $156 forward $195 $-1 #
edge $-1 -1 $-1 $203 0.50164999999999993 $157 0.8889999999999999 $155 $186 forward @7 unknown #
vertex $-1 -1 $-1 $156 $204 #
straight-curve $-1 -1 $-1 0.5625 -0.17499999999999996 0.13500000000000001 -0.39370078740157477 -5.3268940009853539e-017 0 F 0 F 0.41027255179606481 #
coedge $-1 -1 $-1 $139 $121 $167 $205 forward $87 $-1 #
coedge $-1 -1 $-1 $129 $168 $121 $161 reversed $67 $-1 #
edge $-1 -1 $-1 $203 -1.2725929256325543 $206 -0.31665149154480587 $121 $207 forward @7 unknown #
face $-1 -1 $-1 $143 $195 $2 $-1 $163 forward single #
plane-surface $-1 -1 $-1 0.5625 -0.17499999999999996 0.13500000000000001 1 0 0 0 0 -0.39370078740157477 forward_v I I I I #
loop $-1 -1 $-1 $208 $209 $91 #
coedge $-1 -1 $-1 $165 $165 $210 $211 forward $124 $-1 #
coedge $-1 -1 $-1 $172 $126 $212 $213 forward $92 $-1 #
coedge $-1 -1 $-1 $126 $172 $159 $205 reversed $92 $-1 #
coedge $-1 -1 $-1 $160 $174 $126 $169 reversed $67 $-1 #
edge $-1 -1 $-1 $206 0 $214 0.26669999999999994 $126 $215 forward @7 unknown #
coedge $-1 -1 $-1 $216 $127 $217 $218 reversed $94 $-1 #
coedge $-1 -1 $-1 $127 $219 $139 $184 reversed $94 $-1 #
coedge $-1 -1 $-1 $167 $166 $127 $173 forward $92 $-1 #
edge $-1 -1 $-1 $220 -0.26669999999999994 $221 0 $172 $222 forward @7 unknown #
coedge $-1 -1 $-1 $168 $128 $223 $224 reversed $67 $-1 #
coedge $-1 -1 $-1 $201 $225 $128 $176 forward $226 $-1 #
edge $-1 -1 $-1 $227 -3.2842455374103809 $179 -2.3317455374103808 $175 $228 forward @7 unknown #
coedge $-1 -1 $-1 $155 $146 $129 $178 forward $195 $-1 #
edge $-1 -1 $-1 $180 -0.81915000000000004 $203 -0.13335000000000002 $177 $229 forward @7 unknown #
vertex $-1 -1 $-1 $176 $230 #
vertex $-1 -1 $-1 $130 $231 #
straight-curve $-1 -1 $-1 0.061479163136789673 -0.022499999999999999 -0.13500000000000004 0.39370078740157477 0 0 I I #
point $-1 -1 $-1 0.43273768665431789 -0.17500000000000004 6.0005711337296487e-018 #
coedge $-1 -1 $-1 $136 $135 $219 $232 forward $137 $-1 #
edge $-1 -1 $-1 $221 -0.32270270074742313 $185 0.63323873334032543 $139 $233 forward @7 unknown #
vertex $-1 -1 $-1 $232 $234 #
straight-curve $-1 -1 $-1 0.5625 0.17499999999999996 0.13500000000000001 0 -0.39370078740157477 0 F 0 F 0.8889999999999999 #
coedge $-1 -1 $-1 $146 $155 $142 $188 forward $195 $-1 #
edge $-1 -1 $-1 $157 0 $148 0.68580000000000008 $187 $235 forward @7 unknown #
face $-1 -1 $-1 $236 $237 $2 $-1 $238 reversed single #
plane-surface $-1 -1 $-1 0.40097537330863592 -0.17499999999999999 0.13500000000000001 1.35303107625028e-016 -1 0 0 0 -0.39370078740157477 forward_v I I I I #
coedge $-1 -1 $-1 $219 $216 $144 $192 reversed $94 $-1 #
edge $-1 -1 $-1 $193 -0.63323873334032543 $239 0.4831971179247832 $144 $240 forward @7 unknown #
vertex $-1 -1 $-1 $145 $241 #
straight-curve $-1 -1 $-1 0.5625 -0.087499999999999981 -0.13500000000000001 0 0.39370078740157477 0 I I #
loop $-1 -1 $-1 $-1 $177 $162 #
point $-1 -1 $-1 0.5625 -0.17499999999999996 -0.13500000000000001 #
loop $-1 -1 $-1 $242 $243 $115 #
coedge $-1 -1 $-1 $198 $198 $244 $245 forward $150 $-1 #
coedge $-1 -1 $-1 $199 $199 $151 $200 reversed $237 $-1 #
edge $-1 -1 $-1 $246 -3.1415926535897931 $246 3.1415926535897931 $151 $247 forward @7 unknown #
coedge $-1 -1 $-1 $248 $175 $152 $202 reversed $226 $-1 #
edge $-1 -1 $-1 $239 0.18098645124654877 $179 6.1021988559330378 $152 $249 forward @7 unknown #
vertex $-1 -1 $-1 $156 $250 #
point $-1 -1 $-1 0.5625 -0.17499999999999996 0.13500000000000001 #
edge $-1 -1 $-1 $206 -3.0213027711950051 $221 3.0213027711950051 $159 $251 forward @7 unknown #
vertex $-1 -1 $-1 $205 $252 #
straight-curve $-1 -1 $-1 0.061479163136789673 -0.022499999999999999 0.13500000000000001 -0.39370078740157477 0 0 I I #
loop $-1 -1 $-1 $253 $254 $91 #
coedge $-1 -1 $-1 $209 $209 $255 $256 forward $164 $-1 #
coedge $-1 -1 $-1 $210 $210 $165 $211 reversed $257 $-1 #
edge $-1 -1 $-1 $258 7.6957136254895045e-016 $258 6.2831853071795871 $165 $259 forward @7 unknown #
coedge $-1 -1 $-1 $223 $217 $166 $213 reversed $260 $-1 #
edge $-1 -1 $-1 $214 -3.0213027711950051 $220 3.0213027711950051 $166 $261 forward @7 unknown #
vertex $-1 -1 $-1 $213 $262 #
straight-curve $-1 -1 $-1 0.18614510468986284 -0.022499999999999999 0.13500000000000004 0 0 0.39370078740157477 I I #
coedge $-1 -1 $-1 $191 $170 $248 $263 reversed $94 $-1 #
coedge $-1 -1 $-1 $212 $264 $170 $218 forward $260 $-1 #
edge $-1 -1 $-1 $265 -0.4831971179247832 $220 -0.32270270074742313 $217 $266 forward @7 unknown #
coedge $-1 -1 $-1 $171 $191 $183 $232 reversed $94 $-1 #
vertex $-1 -1 $-1 $173 $267 #
vertex $-1 -1 $-1 $184 $268 #
straight-curve $-1 -1 $-1 0.18614510468986284 0.022499999999999999 0.13500000000000004 0 0 -0.39370078740157477 I I #
coedge $-1 -1 $-1 $264 $212 $174 $224 forward $260 $-1 #
edge $-1 -1 $-1 $214 -0.31665149154480587 $227 -0.15615707436744578 $223 $269 forward @7 unknown #
coedge $-1 -1 $-1 $175 $248 $264 $270 reversed $226 $-1 #
loop $-1 -1 $-1 $-1 $175 $271 #
vertex $-1 -1 $-1 $270 $272 #
straight-curve $-1 -1 $-1 0.12295832627357935 -0.022500000000000128 -1.0530100540985752 0 0 -0.39370078740157477 I I #
straight-curve $-1 -1 $-1 0.5625 -0.022499999999999989 0.1875 0 0 0.39370078740157477 I I #
point $-1 -1 $-1 0.12295832627357935 -0.022500000000000128 -0.13500000000000006 #
point $-1 -1 $-1 0.5625 -0.022499999999999999 -0.13500000000000001 #
edge $-1 -1 $-1 $185 0.13335000000000002 $193 0.81915000000000004 $183 $273 forward @7 unknown #
straight-curve $-1 -1 $-1 0.31319341207073809 0.022499999999999999 0.13500000000000001 0.39370078740157477 0 0 I I #
point $-1 -1 $-1 0.5625 0.022499999999999989 0.13500000000000001 #
straight-curve $-1 -1 $-1 0.5625 -0.17499999999999996 0.13500000000000001 0 0 -0.39370078740157477 I I #
face $-1 -1 $-1 $274 $275 $2 $-1 $276 reversed single #
loop $-1 -1 $-1 $257 $199 $189 #
cone-surface $-1 -1 $-1 0.22097086912079614 -0.22097086912079605 -1.1580100540985749 0 0 1 -0.048999999999999995 6.0005711337296487e-018 0 1 I I 0 1 0.048999999999999995 reversed I I I I #
vertex $-1 -1 $-1 $202 $277 #
straight-curve $-1 -1 $-1 0.31319341207073809 0.022499999999999999 -0.13500000000000004 -0.39370078740157477 0 0 I I #
point $-1 -1 $-1 0.5625 0.022499999999999999 -0.13500000000000001 #
loop $-1 -1 $-1 $-1 $278 $115 #
coedge $-1 -1 $-1 $243 $243 $279 $280 forward $197 $-1 #
coedge $-1 -1 $-1 $244 $244 $198 $245 reversed $275 $-1 #
edge $-1 -1 $-1 $281 -3.1415926535897931 $281 3.1415926535897931 $198 $282 forward @7 unknown #
vertex $-1 -1 $-1 $200 $283 #
ellipse-curve $-1 -1 $-1 0.22097086912079614 -0.22097086912079605 -0.13500000000000006 0 0 1 -0.048999999999999995 6.0005711337296487e-018 0 1 I I #
coedge $-1 -1 $-1 $225 $201 $216 $263 forward $226 $-1 #
ellipse-curve $-1 -1 $-1 0 0 -0.13500000000000006 0 0 1 0.12499999999999999 0 0 1 I I #
point $-1 -1 $-1 0.5625 -0.022499999999999989 0.13500000000000001 #
ellipse-curve $-1 -1 $-1 0 0 0.13500000000000001 0 0 -1 -0.1875 0 0 1 I I #
point $-1 -1 $-1 0.18614510468986284 -0.022499999999999999 0.13500000000000004 #
loop $-1 -1 $-1 $87 $284 $91 #
coedge $-1 -1 $-1 $254 $254 $285 $286 forward $208 $-1 #
coedge $-1 -1 $-1 $255 $255 $209 $256 reversed $287 $-1 #
edge $-1 -1 $-1 $288 -2.2204460492503131e-016 $288 6.2831853071795862 $209 $289 forward @7 unknown #
loop $-1 -1 $-1 $-1 $210 $189 #
vertex $-1 -1 $-1 $211 $290 #
ellipse-curve $-1 -1 $-1 0.22097086912079614 -0.22097086912079605 0.13500000000000006 0 0 -1 -0.048999999999999995 6.0005711337296487e-018 0 1 I I #
loop $-1 -1 $-1 $-1 $223 $291 #
ellipse-curve $-1 -1 $-1 0 0 0.23999999999999999 0 0 -1 -0.1875 0 0 1 I I #
point $-1 -1 $-1 0.18614510468986284 -0.022499999999999999 0.23999999999999999 #
edge $-1 -1 $-1 $239 2.3317455374103808 $265 3.2842455374103809 $248 $292 forward @7 unknown #
coedge $-1 -1 $-1 $217 $223 $225 $270 forward $260 $-1 #
vertex $-1 -1 $-1 $263 $293 #
straight-curve $-1 -1 $-1 0.31319341207073809 0.022499999999999999 0.23999999999999999 0.39370078740157477 0 0 I I #
point $-1 -1 $-1 0.18614510468986284 0.022499999999999999 0.23999999999999999 #
point $-1 -1 $-1 0.18614510468986284 0.022499999999999999 0.13500000000000004 #
straight-curve $-1 -1 $-1 0.061479163136789673 -0.022499999999999999 0.23999999999999999 -0.39370078740157477 0 0 I I #
edge $-1 -1 $-1 $227 0.18098645124654775 $265 6.1021988559330387 $264 $294 forward @7 unknown #
face $-1 -1 $-1 $291 $226 $2 $-1 $295 reversed single #
point $-1 -1 $-1 0.12295832627357935 -0.022499999999999999 0.23999999999999999 #
straight-curve $-1 -1 $-1 0.5625 0.022499999999999989 0.1875 0 0 -0.39370078740157477 I I #
face $-1 -1 $-1 $296 $297 $2 $-1 $298 reversed single #
loop $-1 -1 $-1 $287 $244 $236 #
cone-surface $-1 -1 $-1 -0.22097086912079605 -0.22097086912079614 -1.1580100540985749 0 0 1 1.0880185641326533e-017 0.048999999999999995 0 1 I I 0 1 0.048999999999999995 reversed I I I I #
point $-1 -1 $-1 0.12295832627357935 0.022500000000000128 -0.13500000000000006 #
coedge $-1 -1 $-1 $278 $278 $299 $300 forward $242 $-1 #
coedge $-1 -1 $-1 $279 $279 $243 $280 reversed $297 $-1 #
edge $-1 -1 $-1 $301 -3.1415926535897931 $301 3.1415926535897931 $243 $302 forward @7 unknown #
vertex $-1 -1 $-1 $245 $303 #
ellipse-curve $-1 -1 $-1 -0.22097086912079605 -0.22097086912079614 -0.13500000000000006 0 0 1 1.0880185641326533e-017 0.048999999999999995 0 1 I I #
point $-1 -1 $-1 0.26997086912079615 -0.22097086912079605 -0.13500000000000006 #
coedge $-1 -1 $-1 $284 $284 $304 $305 forward $253 $-1 #
coedge $-1 -1 $-1 $285 $285 $254 $286 reversed $306 $-1 #
edge $-1 -1 $-1 $307 -2.2204460492503131e-016 $307 6.2831853071795862 $254 $308 forward @7 unknown #
loop $-1 -1 $-1 $-1 $255 $236 #
vertex $-1 -1 $-1 $256 $309 #
ellipse-curve $-1 -1 $-1 -0.22097086912079605 -0.22097086912079614 0.13500000000000006 0 0 -1 1.0880185641326533e-017 0.048999999999999995 0 1 I I #
point $-1 -1 $-1 0.17197086912079615 -0.220970869120796 0.13500000000000001 #
face $-1 -1 $-1 $115 $260 $2 $-1 $310 reversed single #
straight-curve $-1 -1 $-1 0.12295832627357935 0.022500000000000128 -1.0530100540985752 0 0 0.39370078740157477 I I #
point $-1 -1 $-1 0.12295832627357935 0.022499999999999999 0.23999999999999999 #
ellipse-curve $-1 -1 $-1 0 0 0.23999999999999994 0 0 -1 0.12499999999999999 0 0 1 I I #
cone-surface $-1 -1 $-1 0 0 -1.0530100540985752 0 0 1 0.12499999999999999 0 0 1 I I 0 1 0.12499999999999999 reversed I I I I #
face $-1 -1 $-1 $271 $311 $2 $-1 $312 reversed single #
loop $-1 -1 $-1 $306 $279 $274 #
cone-surface $-1 -1 $-1 0.22097086912079605 0.22097086912079614 -1.1580100540985749 0 0 1 -1.0880185641326533e-017 -0.048999999999999995 0 1 I I 0 1 0.048999999999999995 reversed I I I I #
coedge $-1 -1 $-1 $299 $299 $278 $300 reversed $311 $-1 #
edge $-1 -1 $-1 $313 -3.1415926535897931 $313 3.1415926535897931 $278 $314 forward @7 unknown #
vertex $-1 -1 $-1 $280 $315 #
ellipse-curve $-1 -1 $-1 0.22097086912079605 0.22097086912079614 -0.13500000000000006 0 0 1 -1.0880185641326533e-017 -0.048999999999999995 0 1 I I #
point $-1 -1 $-1 -0.22097086912079605 -0.26997086912079615 -0.13500000000000006 #
coedge $-1 -1 $-1 $304 $304 $284 $305 reversed $316 $-1 #
edge $-1 -1 $-1 $317 0 $317 6.2831853071795862 $284 $318 forward @7 unknown #
loop $-1 -1 $-1 $-1 $285 $274 #
vertex $-1 -1 $-1 $286 $319 #
ellipse-curve $-1 -1 $-1 0.22097086912079605 0.22097086912079614 0.13500000000000006 0 0 -1 -1.0880185641326533e-017 -0.048999999999999995 0 1 I I #
point $-1 -1 $-1 -0.22097086912079605 -0.17197086912079612 0.13500000000000001 #
plane-surface $-1 -1 $-1 0 0 0.23999999999999999 0 0 -1 -0.39370078740157477 0 0 forward_v I I I I #
loop $-1 -1 $-1 $316 $299 $296 #
cone-surface $-1 -1 $-1 -0.22097086912079617 0.220970869120796 -1.1580100540985749 0 0 1 0.048999999999999995 0 0 1 I I 0 1 0.048999999999999995 reversed I I I I #
vertex $-1 -1 $-1 $300 $320 #
ellipse-curve $-1 -1 $-1 -0.22097086912079617 0.220970869120796 -0.13500000000000006 0 0 1 0.048999999999999995 0 0 1 I I #
point $-1 -1 $-1 0.22097086912079605 0.26997086912079615 -0.13500000000000006 #
loop $-1 -1 $-1 $-1 $304 $296 #
vertex $-1 -1 $-1 $305 $321 #
ellipse-curve $-1 -1 $-1 -0.22097086912079617 0.220970869120796 0.13500000000000006 0 0 -1 0.048999999999999995 0 0 1 I I #
point $-1 -1 $-1 0.22097086912079605 0.17197086912079612 0.13500000000000001 #
point $-1 -1 $-1 -0.26997086912079615 0.220970869120796 -0.13500000000000006 #
point $-1 -1 $-1 -0.17197086912079618 0.220970869120796 0.13500000000000001 #
End-of-ACIS-data 