400 0 1 0           
7 Unknown 11 ACIS 6.0 NT 24 Mon Jan 21 19:58:13 2002 
25.399999999999999 9.9999999999999995e-007 1e-010 
body $-1 $1 $-1 $-1 #
lump $-1 $-1 $2 $0 #
shell $-1 $-1 $-1 $3 $-1 $1 #
face $-1 $4 $5 $2 $-1 $6 forward single #
face $-1 $7 $8 $2 $-1 $9 reversed single #
loop $-1 $-1 $10 $3 #
cone-surface $-1 -0.56767377398846608 -0.094224999309389393 0.8763343544157316 1 2.8662011736805403e-016 -8.2801346802744314e-016 8.7419135797256413e-017 0.25497719121965234 0.17631401520507881 1 I I 0 1 0.30999999999999989 reversed I I F 1.4196266304456834e-016 F 2.53660139335943 #
face $-1 $11 $12 $2 $-1 $13 forward single #
loop $-1 $14 $15 $4 #
plane-surface $-1 -0.56767377398846652 0.15577500069061062 0.65500000000000014 1 1.4329096086170763e-016 8.9016556189144318e-017 3.5045888263442641e-017 0 -0.39370078740157477 forward_v I I I I #
coedge $-1 $16 $17 $15 $18 forward $5 $-1 #
face $-1 $19 $20 $2 $-1 $21 forward single #
loop $-1 $-1 $22 $7 #
plane-surface $-1 -0.56767377398846641 0.39077500069061066 0.71999999999999997 2.3518963457499083e-016 0.82250706845049182 0.56875488775831895 0.39370078740157477 0 -1.6280184366557679e-016 forward_v I I I I #
loop $-1 $-1 $23 $4 #
coedge $-1 $24 $25 $10 $18 reversed $8 $-1 #
coedge $-1 $26 $10 $27 $28 forward $5 $-1 #
coedge $-1 $10 $26 $22 $29 forward $5 $-1 #
edge $-1 $30 $31 $15 $32 forward #
face $-1 $33 $34 $2 $-1 $35 reversed single #
loop $-1 $-1 $27 $11 #
plane-surface $-1 -0.26267377398846664 -0.40422499930938927 0 2.8662011736805403e-016 -1 0 0 0 -0.39370078740157477 forward_v I I I I #
coedge $-1 $36 $37 $17 $29 reversed $12 $-1 #
coedge $-1 $23 $23 $38 $39 forward $14 $-1 #
coedge $-1 $40 $15 $37 $41 reversed $8 $-1 #
coedge $-1 $15 $42 $43 $44 reversed $8 $-1 #
coedge $-1 $17 $16 $45 $46 forward $5 $-1 #
coedge $-1 $43 $47 $16 $28 reversed $20 $-1 #
edge $-1 $31 $48 $27 $49 forward #
edge $-1 $50 $30 $22 $51 forward #
vertex $-1 $29 $52 #
vertex $-1 $44 $53 #
ellipse-curve $-1 -0.5676737739884663 -0.094224999309389393 0.8763343544157316 1 1.4329096086170763e-016 8.9016556189144318e-017 8.7419135797256413e-017 0.25497719121965234 0.17631401520507881 1 I I #
face $-1 $54 $55 $2 $-1 $56 forward single #
loop $-1 $57 $38 $19 #
cone-surface $-1 -2.2715707009007304 -0.094224999309389657 0.87999999999999967 1 1.4329096086170758e-016 8.9016556189144318e-017 1.1127069523643038e-017 8.6849893010077136e-034 -0.12499999999999999 1 I I 0 1 0.12499999999999999 reversed I I I I #
coedge $-1 $58 $22 $59 $60 forward $12 $-1 #
coedge $-1 $22 $58 $24 $41 forward $12 $-1 #
coedge $-1 $38 $38 $23 $39 reversed $34 $-1 #
edge $-1 $61 $61 $23 $62 forward #
coedge $-1 $42 $24 $63 $64 reversed $8 $-1 #
edge $65 $66 $30 $24 $67 forward #
coedge $-1 $25 $40 $68 $69 forward $8 $-1 #
coedge $-1 $70 $27 $25 $44 forward $20 $-1 #
edge $-1 $31 $71 $43 $72 forward #
coedge $-1 $73 $59 $26 $46 reversed $74 $-1 #
edge $-1 $48 $50 $45 $75 forward #
coedge $-1 $27 $76 $73 $77 forward $20 $-1 #
vertex $-1 $46 $78 #
straight-curve $-1 -0.56767377398846608 -0.40422499930938938 0.8763343544157316 0.30999999999999994 8.8852236384096748e-017 -2.5668417508850733e-016 F -1.4099860612460713e-015 F 0.38709677419354693 #
vertex $-1 $60 $79 #
straight-curve $-1 -0.56767377398846608 0.16075219191026296 1.0526483696208104 -0.30999999999999994 -8.8852236384096748e-017 2.5668417508850733e-016 F -0.38709677419354638 F 1.6919832734952856e-015 #
point $-1 -0.56767377398846652 0.16075219191026291 1.0526483696208104 #
point $-1 -0.56767377398846652 -0.40422499930938938 0.8763343544157316 #
face $-1 $80 $81 $2 $-1 $82 forward single #
loop $-1 $-1 $83 $33 #
cone-surface $-1 -0.41767377398846656 0.15577500069061062 0.15000000000000002 -1.5610559963795787e-016 1 0 3.496765431890258e-017 1.748382715945129e-017 -0.030000000000000016 1 I I 0 -1 0.030000000000000016 forward I I I I #
loop $-1 $-1 $84 $19 #
coedge $-1 $37 $36 $85 $86 forward $12 $-1 #
coedge $-1 $45 $87 $36 $60 reversed $74 $-1 #
edge $-1 $50 $88 $59 $89 forward #
vertex $-1 $39 $90 #
ellipse-curve $-1 -0.56767377398846652 -0.094224999309389421 0.87999999999999989 1 1.4329096086170763e-016 8.9016556189144318e-017 1.1127069523643038e-017 8.6849893010077136e-034 -0.12499999999999999 1 I I #
coedge $-1 $85 $91 $40 $64 forward $92 $-1 #
edge $93 $94 $66 $63 $95 forward #
convexity-sys-attrib $-1 $-1 $-1 $41 #
vertex $-1 $41 $96 #
straight-curve $-1 -0.56767377398846652 0.36796951106500764 0.75298024653548734 3.2601132625947288e-018 -0.22391924714894446 0.32382168049231957 I I #
coedge $-1 $97 $98 $42 $69 reversed $81 $-1 #
edge $-1 $94 $71 $42 $99 forward #
coedge $-1 $100 $43 $98 $101 reversed $20 $-1 #
vertex $-1 $101 $102 #
straight-curve $-1 -0.56767377398846652 -0.40422499930938938 1.1899999999999999 2.410642428784207e-017 -1.258051906734998e-033 -0.39370078740157477 F 0 F 2.7178 #
coedge $-1 $103 $45 $47 $77 reversed $74 $-1 #
loop $-1 $104 $45 $80 #
ellipse-curve $-1 -0.44767377398846631 -0.094224999309389365 0.87633435441573149 -1 -1.4329096086170758e-016 -8.9016556189144318e-017 8.7419135797256413e-017 0.25497719121965234 0.17631401520507881 1 I I #
coedge $-1 $47 $105 $106 $107 forward $20 $-1 #
edge $108 $109 $48 $47 $110 forward #
point $-1 -0.44767377398846653 -0.40422499930938938 0.8763343544157316 #
point $-1 -0.44767377398846669 0.16075219191026296 1.0526483696208104 #
face $-1 $111 $74 $2 $-1 $112 forward single #
loop $-1 $-1 $68 $54 #
cone-surface $-1 -0.41767377398846656 0.15577500069061062 0.15000000000000002 -1.5610559963795787e-016 1 0 1.7483827159451283e-016 8.7419135797256413e-017 -0.15000000000000002 1 I I 0 1 0.15000000000000002 forward I I I I #
coedge $-1 $106 $113 $103 $114 reversed $55 $-1 #
coedge $-1 $84 $84 $115 $116 reversed $57 $-1 #
coedge $-1 $117 $63 $58 $86 reversed $92 $-1 #
edge $-1 $88 $66 $85 $118 forward #
coedge $-1 $59 $103 $117 $119 reversed $74 $-1 #
vertex $-1 $119 $120 #
straight-curve $-1 -0.44767377398846669 0.36796951106500764 0.75298024653548734 -3.2601132625947192e-018 0.22391924714894446 -0.32382168049231957 I I #
point $-1 -0.56767377398846652 -0.094224999309389421 1.0049999999999999 #
coedge $-1 $63 $121 $97 $122 forward $92 $-1 #
loop $-1 $-1 $85 $123 #
convexity-sys-attrib $-1 $-1 $-1 $64 #
vertex $-1 $64 $124 #
straight-curve $-1 -0.56767377398846652 0.71577500069061062 0.12 -2.410642428784207e-017 -3.7631478185806181e-033 0.39370078740157477 F 0 F 2.7178 #
point $-1 -0.56767377398846652 0.71577500069061062 0.25000000000000006 #
coedge $-1 $125 $68 $91 $122 reversed $81 $-1 #
coedge $-1 $68 $125 $70 $101 forward $81 $-1 #
straight-curve $-1 -0.56767377398846652 -0.12422499930938938 0.15000000000000002 5.6413764118782527e-017 -0.39370078740157477 0 I I #
coedge $-1 $126 $70 $127 $128 forward $20 $-1 #
edge $-1 $129 $71 $98 $130 forward #
point $-1 -0.56767377398846652 -0.40422499930938938 0.14999999999999999 #
coedge $-1 $87 $73 $83 $114 forward $74 $-1 #
loop $-1 $-1 $115 $80 #
coedge $-1 $76 $126 $131 $132 forward $20 $-1 #
coedge $-1 $133 $83 $76 $107 reversed $55 $-1 #
edge $-1 $134 $109 $76 $135 forward #
convexity-sys-attrib $-1 $-1 $-1 $77 #
vertex $-1 $77 $136 #
straight-curve $-1 -0.44767377398846653 -0.40422499930938938 1.1899999999999999 -2.410642428784207e-017 1.258051906734998e-033 0.39370078740157477 F -2.7178 F 0 #
face $-1 $123 $137 $2 $-1 $138 forward single #
plane-surface $-1 -0.44767377398846658 0.15577500069061062 0.65500000000000014 1 1.4329096086170758e-016 8.9016556189144318e-017 3.5045888263442641e-017 0 -0.39370078740157477 forward_v I I I I #
coedge $-1 $83 $133 $139 $140 forward $55 $-1 #
edge $-1 $109 $141 $103 $142 forward #
coedge $-1 $115 $115 $84 $116 forward $104 $-1 #
edge $-1 $143 $143 $115 $144 forward #
coedge $-1 $139 $85 $87 $119 forward $92 $-1 #
straight-curve $-1 -0.5676737739884663 0.71577500069061073 0.25000000000000006 -0.39370078740157477 1.125757429602393e-016 0 F -7.7063609999999994 F 7.4015610000000001 #
edge $-1 $88 $141 $117 $145 forward #
point $-1 -0.44767377398846658 0.71577500069061062 0.25000000000000006 #
coedge $-1 $91 $146 $147 $148 forward $92 $-1 #
edge $-1 $149 $94 $91 $150 forward #
face $-1 $151 $92 $2 $-1 $152 forward single #
point $-1 -0.56767377398846652 0.71577500069061062 0.14999999999999999 #
coedge $-1 $98 $97 $153 $154 reversed $81 $-1 #
coedge $-1 $105 $100 $155 $156 forward $20 $-1 #
coedge $-1 $153 $157 $100 $128 reversed $158 $-1 #
edge $-1 $129 $159 $100 $160 forward #
vertex $-1 $128 $161 #
ellipse-curve $-1 -0.4176737739884665 -0.40422499930938938 0.15000000000000002 -1.5610559963795787e-016 1 0 1.7483827159451283e-016 8.7419135797256413e-017 -0.15000000000000002 1 F 0 F 1.570796326794891 #
coedge $-1 $162 $163 $105 $132 reversed $137 $-1 #
edge $-1 $164 $134 $105 $165 forward #
coedge $-1 $113 $106 $163 $166 reversed $55 $-1 #
vertex $-1 $107 $167 #
ellipse-curve $-1 -0.4176737739884665 -0.40422499930938938 0.15000000000000002 -1.5610559963795787e-016 1 0 3.496765431890258e-017 1.748382715945129e-017 -0.030000000000000016 1 F -4.6623539091870053e-015 F 1.5707963267948635 #
point $-1 -0.44767377398846642 -0.40422499930938938 0.14999999999999999 #
loop $-1 $-1 $163 $111 #
plane-surface $-1 -0.15522396467894456 0.15580088421082136 0.12 0 0 1 0.39370078740157477 0 0 forward_v I I I I #
coedge $-1 $168 $117 $113 $140 reversed $92 $-1 #
edge $-1 $169 $141 $113 $170 forward #
vertex $-1 $114 $171 #
straight-curve $-1 -0.44767377398846653 -0.12422499930938938 0.15000000000000002 -5.6413764118782503e-017 0.39370078740157477 0 I I #
vertex $-1 $116 $172 #
ellipse-curve $-1 -0.44767377398846653 -0.094224999309389393 0.87999999999999989 -1 -1.4329096086170758e-016 -8.9016556189144318e-017 1.1127069523643038e-017 8.6849893010077136e-034 -0.12499999999999999 1 I I #
straight-curve $-1 -0.44767377398846658 0.71577500069061062 0.12 2.410642428784207e-017 3.7631478185806181e-033 -0.39370078740157477 F -2.7178 F 0 #
coedge $-1 $121 $168 $173 $174 reversed $92 $-1 #
coedge $-1 $175 $153 $121 $148 reversed $158 $-1 #
edge $-1 $176 $149 $121 $177 forward #
vertex $-1 $154 $178 #
ellipse-curve $-1 -0.41767377398846667 0.71577500069061062 0.15000000000000002 -1.5610559963795787e-016 1 0 1.7483827159451283e-016 8.7419135797256413e-017 -0.15000000000000002 1 F 0 F 1.5707963267948966 #
face $-1 $179 $180 $2 $-1 $181 forward single #
plane-surface $-1 -0.56767377398846652 0.71577500069061073 0 2.8594238711900782e-016 1 0 0 0 0.39370078740157477 forward_v I I I I #
coedge $-1 $147 $127 $125 $154 forward $158 $-1 #
edge $-1 $129 $149 $153 $182 forward #
coedge $-1 $183 $184 $126 $156 reversed $185 $-1 #
edge $-1 $159 $164 $126 $186 forward #
coedge $-1 $127 $187 $183 $188 reversed $158 $-1 #
loop $-1 $-1 $153 $189 #
vertex $-1 $128 $190 #
straight-curve $-1 -0.56767377398846641 -0.40422499930938938 0 0.39370078740157477 1.1284256589293464e-016 0 F 0 F 0.7746999999999995 #
point $-1 -0.41767377398846633 -0.40422499930938938 2.1854783949314103e-017 #
coedge $-1 $191 $131 $184 $192 reversed $137 $-1 #
coedge $-1 $131 $193 $133 $166 forward $137 $-1 #
vertex $-1 $156 $194 #
straight-curve $-1 -0.56767377398846641 -0.40422499930938938 0.12 -0.39370078740157477 -1.1284256589293464e-016 0 F -0.7746999999999995 F 0 #
edge $-1 $169 $134 $163 $195 forward #
point $-1 -0.41767377398846633 -0.40422499930938938 0.12 #
coedge $-1 $146 $139 $193 $196 forward $92 $-1 #
vertex $-1 $196 $197 #
ellipse-curve $-1 -0.41767377398846667 0.71577500069061062 0.15000000000000002 -1.5610559963795787e-016 1 0 3.496765431890258e-017 1.748382715945129e-017 -0.030000000000000016 1 F -4.6623539091870053e-015 F 1.5707963267948912 #
point $-1 -0.44767377398846658 0.71577500069061062 0.14999999999999999 #
point $-1 -0.44767377398846658 -0.094224999309389393 0.75499999999999989 #
coedge $-1 $198 $199 $146 $174 forward $180 $-1 #
edge $-1 $176 $200 $173 $201 forward #
coedge $-1 $202 $147 $199 $203 reversed $158 $-1 #
vertex $-1 $203 $204 #
straight-curve $-1 -0.26195087407830736 0.71577500069061062 0 -0.39370078740157477 1.125757429602393e-016 0 F 0 F 0.7765361657718044 #
point $-1 -0.4176737739884665 0.71577500069061062 2.1854783949314103e-017 #
face $-1 $205 $206 $2 $-1 $207 forward single #
loop $-1 $-1 $198 $151 #
plane-surface $-1 -0.26195087407830736 0.71577500069061062 0 1 0 0 0 0 -0.39370078740157477 forward_v I I I I #
straight-curve $-1 -0.41767377398846639 -0.12421205754928406 0 -6.1458897495259001e-017 0.39370078740157477 0 I I #
coedge $-1 $208 $155 $157 $188 forward $185 $-1 #
coedge $-1 $155 $208 $162 $192 forward $185 $-1 #
loop $-1 $-1 $184 $209 #
straight-curve $-1 -0.26267377398846664 -0.40422499930938927 0 0 0 0.39370078740157477 I I #
coedge $-1 $157 $210 $211 $212 reversed $158 $-1 #
edge $-1 $159 $213 $183 $214 forward #
face $-1 $-1 $158 $2 $-1 $215 reversed single #
point $-1 -0.26267377398846664 -0.40422499930938927 0 #
coedge $-1 $216 $162 $217 $218 reversed $137 $-1 #
edge $-1 $219 $164 $184 $220 forward #
coedge $-1 $163 $221 $168 $196 reversed $137 $-1 #
point $-1 -0.26267377398846664 -0.40422499930938927 0.12 #
straight-curve $-1 -0.41767377398846633 -0.12421205754928404 0.12 6.1458897495259001e-017 -0.39370078740157477 0 I I #
edge $-1 $169 $200 $168 $222 forward #
point $-1 -0.4176737739884665 0.71577500069061062 0.12 #
coedge $-1 $223 $173 $221 $224 forward $180 $-1 #
coedge $-1 $173 $223 $175 $203 forward $180 $-1 #
vertex $-1 $174 $225 #
straight-curve $-1 -0.26195087407830736 0.71577500069061062 0 0 0 0.39370078740157477 I I #
coedge $-1 $226 $175 $227 $228 reversed $158 $-1 #
edge $-1 $229 $176 $199 $230 forward #
point $-1 -0.26195087407830736 0.71577500069061062 0 #
face $-1 $231 $232 $2 $-1 $233 forward single #
loop $-1 $-1 $234 $179 #
cone-surface $-1 -0.12767377398846663 0.53077500069061068 0 0 0 1 0.13427710008984073 -0.013952074808532871 0 1 I I 0 -1 0.13500000000000001 forward I I I I #
coedge $-1 $184 $183 $235 $236 forward $185 $-1 #
face $-1 $189 $185 $2 $-1 $237 forward single #
coedge $-1 $187 $238 $239 $240 reversed $158 $-1 #
coedge $-1 $241 $235 $187 $212 forward $242 $-1 #
edge $-1 $213 $243 $211 $244 forward #
vertex $-1 $188 $245 #
straight-curve $-1 -0.26267377398846664 -0.40422499930938927 0 -9.3018871884716362e-017 0.39370078740157477 0 F 0 F 0.46989999999999987 #
plane-surface $-1 -0.15522396467894459 0.15580088421082131 0 0 0 1 0.39370078740157477 0 0 forward_v I I I I #
coedge $-1 $246 $191 $247 $248 reversed $137 $-1 #
coedge $-1 $235 $241 $191 $218 forward $242 $-1 #
edge $-1 $249 $219 $217 $250 forward #
vertex $-1 $236 $251 #
straight-curve $-1 -0.26267377398846664 -0.40422499930938927 0.12 9.3018871884716362e-017 -0.39370078740157477 0 F -0.46989999999999987 F 0 #
coedge $-1 $193 $252 $198 $224 reversed $137 $-1 #
straight-curve $-1 -0.26195087407830736 0.71577500069061062 0.12 0.39370078740157477 -1.125757429602393e-016 0 F -0.7765361657718044 F 0 #
coedge $-1 $199 $198 $253 $254 reversed $180 $-1 #
edge $-1 $200 $255 $198 $256 forward #
point $-1 -0.26195087407830736 0.71577500069061062 0.12 #
coedge $-1 $257 $202 $258 $259 reversed $158 $-1 #
coedge $-1 $253 $260 $202 $228 forward $206 $-1 #
edge $-1 $261 $229 $227 $262 forward #
vertex $-1 $228 $263 #
straight-curve $-1 -0.26195087407830736 0.51682292588207801 0 0 0.39370078740157477 0 F 0 F 0.50533827001367282 #
face $-1 $264 $265 $2 $-1 $266 forward single #
loop $-1 $-1 $267 $205 #
plane-surface $-1 0.0073262260115333697 0.53077500069061068 0 -1 -1.1813396729358972e-016 0 0 0 0.39370078740157477 forward_v I I I I #
coedge $-1 $260 $253 $252 $268 forward $206 $-1 #
coedge $-1 $211 $217 $208 $236 reversed $242 $-1 #
edge $-1 $213 $219 $208 $269 forward #
plane-surface $-1 -0.26267377398846664 -0.21922499930938935 0 1 2.3626793458717959e-016 0 0 0 -0.39370078740157477 forward_v I I I I #
coedge $-1 $210 $270 $271 $272 reversed $158 $-1 #
coedge $-1 $273 $274 $210 $240 forward $275 $-1 #
edge $-1 $243 $276 $239 $277 forward #
coedge $-1 $217 $211 $274 $278 forward $242 $-1 #
loop $-1 $-1 $217 $279 #
vertex $-1 $212 $280 #
ellipse-curve $-1 -0.12767377398846663 -0.2192249993093893 0 0 0 -1 -0.13500000000000001 -4.3709567898628207e-017 0 1 F -5.2414988364466107e-032 F 3.1415926535897931 #
point $-1 -0.26267377398846664 -0.21922499930938935 0 #
coedge $-1 $281 $216 $282 $283 reversed $137 $-1 #
coedge $-1 $274 $273 $216 $248 forward $275 $-1 #
edge $-1 $284 $249 $247 $285 forward #
vertex $-1 $278 $286 #
ellipse-curve $-1 -0.12767377398846663 -0.2192249993093893 0.12 0 0 1 -0.13500000000000001 -4.3709567898628207e-017 0 1 F -3.1415926535897931 F 5.2414988364466107e-032 #
point $-1 -0.26267377398846664 -0.21922499930938935 0.12 #
coedge $-1 $221 $287 $234 $268 reversed $137 $-1 #
coedge $-1 $234 $227 $223 $254 forward $206 $-1 #
edge $-1 $229 $255 $253 $288 forward #
vertex $-1 $254 $289 #
straight-curve $-1 -0.26195087407830736 0.51682292588207801 0.12 0 -0.39370078740157477 0 F -0.50533827001367282 F 0 #
coedge $-1 $270 $226 $290 $291 reversed $158 $-1 #
coedge $-1 $292 $293 $226 $259 forward $232 $-1 #
edge $-1 $294 $261 $258 $295 forward #
coedge $-1 $227 $234 $292 $296 reversed $206 $-1 #
vertex $-1 $259 $297 #
ellipse-curve $-1 -0.12767377398846663 0.53077500069061068 0 0 0 -1 0.13427710008984073 -0.013952074808532871 0 1 F -0.10353356934870757 F 3.1415926535897931 #
point $-1 -0.26195087407830736 0.54472707549914356 0 #
face $-1 $298 $299 $2 $-1 $300 forward single #
loop $-1 $-1 $301 $231 #
plane-surface $-1 0.007326226011533348 0.71577500069061073 0 0 1 0 0 0 0.39370078740157477 forward_v I I I I #
coedge $-1 $293 $292 $287 $302 forward $232 $-1 #
edge $-1 $255 $303 $234 $304 forward #
straight-curve $-1 -0.26267377398846664 -0.21922499930938935 0 0 0 0.39370078740157477 I I #
coedge $-1 $238 $257 $305 $306 reversed $158 $-1 #
coedge $-1 $307 $308 $238 $272 forward $309 $-1 #
edge $-1 $276 $310 $271 $311 forward #
coedge $-1 $247 $239 $308 $312 forward $275 $-1 #
coedge $-1 $239 $247 $241 $278 reversed $275 $-1 #
loop $-1 $-1 $247 $313 #
vertex $-1 $240 $314 #
straight-curve $-1 0.0073262260115333697 -0.21922499930938927 0 2.3254717971179082e-016 -0.39370078740157477 0 F 0 F 0.4699000000000001 #
edge $-1 $243 $249 $241 $315 forward #
face $-1 $209 $242 $2 $-1 $316 forward single #
point $-1 0.0073262260115333697 -0.21922499930938927 0 #
coedge $-1 $317 $246 $318 $319 reversed $137 $-1 #
coedge $-1 $308 $307 $246 $283 forward $309 $-1 #
edge $-1 $320 $284 $282 $321 forward #
vertex $-1 $312 $322 #
straight-curve $-1 0.0073262260115333697 -0.21922499930938927 0.12 -2.3254717971179082e-016 0.39370078740157477 0 F -0.4699000000000001 F 0 #
point $-1 0.0073262260115333697 -0.21922499930938927 0.12 #
coedge $-1 $252 $317 $267 $302 reversed $137 $-1 #
straight-curve $-1 -0.26195087407830736 0.54472707549914356 0 0 0 0.39370078740157477 I I #
point $-1 -0.26195087407830736 0.54472707549914356 0.12 #
coedge $-1 $323 $324 $257 $291 forward $265 $-1 #
edge $-1 $325 $294 $290 $326 forward #
coedge $-1 $267 $258 $260 $296 forward $232 $-1 #
coedge $-1 $258 $267 $323 $327 reversed $232 $-1 #
vertex $-1 $291 $328 #
straight-curve $-1 0.007326226011533348 0.71577500069061073 0 4.6509435942358156e-017 -0.39370078740157477 0 F 0 F 0.46990000000000021 #
edge $-1 $261 $303 $292 $329 forward #
point $-1 0.0073262260115333697 0.53077500069061068 0 #
face $-1 $313 $309 $2 $-1 $330 forward single #
loop $-1 $-1 $318 $264 #
plane-surface $-1 0.2423262260115335 0.71577500069061073 0 1 1.5610559963795787e-016 0 0 0 -0.39370078740157477 forward_v I I I I #
coedge $-1 $324 $323 $317 $331 forward $265 $-1 #
edge $-1 $303 $332 $267 $333 forward #
vertex $-1 $296 $334 #
ellipse-curve $-1 -0.12767377398846663 0.53077500069061068 0.12 0 0 1 0.13427710008984073 -0.013952074808532871 0 1 F -3.1415926535897931 F 0.10353356934870757 #
coedge $-1 $335 $336 $270 $306 forward $299 $-1 #
edge $-1 $310 $325 $305 $337 forward #
coedge $-1 $282 $271 $336 $338 forward $309 $-1 #
coedge $-1 $271 $282 $273 $312 reversed $309 $-1 #
loop $-1 $-1 $282 $298 #
vertex $-1 $272 $339 #
straight-curve $-1 0.007326226011533479 -0.40422499930938927 0 0.39370078740157477 0 0 F 0 F 0.59690000000000054 #
edge $-1 $276 $284 $273 $340 forward #
face $-1 $279 $275 $2 $-1 $341 forward single #
point $-1 0.007326226011533479 -0.40422499930938927 0 #
straight-curve $-1 0.0073262260115333697 -0.21922499930938927 0 0 0 0.39370078740157477 I I #
cone-surface $-1 -0.12767377398846663 -0.2192249993093893 0 0 0 1 -0.13500000000000001 -4.3709567898628207e-017 0 1 I I 0 -1 0.13500000000000001 forward I I I I #
coedge $-1 $287 $281 $301 $331 reversed $137 $-1 #
coedge $-1 $336 $335 $281 $319 forward $299 $-1 #
edge $-1 $342 $320 $318 $343 forward #
vertex $-1 $338 $344 #
straight-curve $-1 0.007326226011533479 -0.40422499930938927 0.12 -0.39370078740157477 0 0 F -0.59690000000000054 F 0 #
point $-1 0.007326226011533479 -0.40422499930938927 0.12 #
coedge $-1 $301 $290 $293 $327 forward $265 $-1 #
coedge $-1 $290 $301 $335 $345 reversed $265 $-1 #
vertex $-1 $306 $346 #
straight-curve $-1 0.2423262260115335 0.71577500069061073 0 -0.39370078740157477 0 0 F 0 F 0.59690000000000043 #
edge $-1 $294 $332 $323 $347 forward #
point $-1 0.007326226011533348 0.71577500069061073 0 #
straight-curve $-1 0.0073262260115333697 0.53077500069061068 0 0 0 0.39370078740157477 I I #
plane-surface $-1 0.24232622601153367 -0.40422499930938927 0 0 -1 0 0 0 -0.39370078740157477 forward_v I I I I #
edge $-1 $332 $342 $301 $348 forward #
vertex $-1 $327 $349 #
straight-curve $-1 0.007326226011533348 0.71577500069061073 0.12 -4.6509435942358156e-017 0.39370078740157477 0 F -0.46990000000000021 F 0 #
point $-1 0.0073262260115333697 0.53077500069061068 0.12 #
coedge $-1 $318 $305 $324 $345 forward $299 $-1 #
coedge $-1 $305 $318 $307 $338 reversed $299 $-1 #
straight-curve $-1 0.24232622601153367 -0.40422499930938927 0 -6.1458897495259001e-017 0.39370078740157477 0 F 0 F 2.8448000000000002 #
edge $-1 $310 $320 $307 $350 forward #
point $-1 0.24232622601153367 -0.40422499930938927 0 #
straight-curve $-1 0.007326226011533479 -0.40422499930938927 0 0 0 0.39370078740157477 I I #
plane-surface $-1 0.007326226011533479 -0.40422499930938927 0 -1 -5.9066983646794868e-016 0 0 0 0.39370078740157477 forward_v I I I I #
vertex $-1 $345 $351 #
straight-curve $-1 0.24232622601153367 -0.40422499930938927 0.12 6.1458897495259001e-017 -0.39370078740157477 0 F -2.8448000000000002 F 0 #
point $-1 0.24232622601153367 -0.40422499930938927 0.12 #
edge $-1 $325 $342 $335 $352 forward #
point $-1 0.2423262260115335 0.71577500069061073 0 #
straight-curve $-1 0.007326226011533348 0.71577500069061073 0 0 0 0.39370078740157477 I I #
straight-curve $-1 0.2423262260115335 0.71577500069061073 0.12 0.39370078740157477 0 0 F -0.59690000000000043 F 0 #
point $-1 0.007326226011533348 0.71577500069061073 0.12 #
straight-curve $-1 0.24232622601153367 -0.40422499930938927 0 0 0 0.39370078740157477 I I #
point $-1 0.2423262260115335 0.71577500069061073 0.12 #
straight-curve $-1 0.2423262260115335 0.71577500069061073 0 0 0 0.39370078740157477 I I #
End-of-ACIS-data 