700 0 1 0           
29 Autodesk Inventor 6.2.0.12000 17 ASM 6.0.1.6021 NT 24 Thu Jan 03 17:24:38 2008 
25.399999999999999 9.9999999999999995e-007 1e-010 
body $-1 -1 $-1 $1 $-1 $-1 #
lump $-1 -1 $-1 $-1 $2 $0 #
shell $-1 -1 $-1 $-1 $-1 $3 $-1 $1 #
face $-1 -1 $-1 $4 $5 $2 $-1 $6 reversed single #
face $-1 -1 $-1 $7 $8 $2 $-1 $9 reversed single #
loop $-1 -1 $-1 $10 $11 $3 #
cone-surface $-1 -1 $-1 0 0 -2.1580578296676491 0 0 -1 -0.048999999999999995 0 0 1 I I 0.85716730070211222 0.51503807491005416 0.048999999999999995 reversed I I I I #
face $-1 -1 $-1 $12 $13 $2 $-1 $14 forward single #
loop $-1 -1 $-1 $15 $16 $4 #
cone-surface $-1 -1 $-1 0 0 -2.6874999999999996 0 0 -1 -0.09799999999999999 0 0 1 I I 0 1 0.09799999999999999 reversed I I I I #
loop $-1 -1 $-1 $-1 $17 $3 #
coedge $-1 -1 $-1 $11 $11 $18 $19 forward $5 $-1 #
face $-1 -1 $-1 $20 $21 $2 $-1 $22 forward single #
loop $-1 -1 $-1 $23 $24 $7 #
cone-surface $-1 -1 $-1 0 0 -3.1824999999999992 0 0 1 0.245 0 0 1 I I 0.70710678118655523 0.7071067811865398 0.245 forward I I I I #
loop $-1 -1 $-1 $-1 $18 $4 #
coedge $-1 -1 $-1 $16 $16 $25 $26 reversed $8 $-1 #
coedge $-1 -1 $-1 $17 $17 $-1 $27 reversed $10 $-1 #
coedge $-1 -1 $-1 $18 $18 $11 $19 reversed $15 $-1 #
edge $-1 -1 $-1 $28 0 $28 6.2831853071795862 $18 $29 forward @7 unknown #
face $-1 -1 $-1 $30 $31 $2 $-1 $32 reversed single #
loop $-1 -1 $-1 $33 $34 $12 #
cone-surface $-1 -1 $-1 0 0 -0.9375 0 0 -1 0.24999999999999997 0 0 1 I I 0 1 0.24999999999999997 forward I I I I #
loop $-1 -1 $-1 $-1 $35 $7 #
coedge $-1 -1 $-1 $24 $24 $36 $37 forward $13 $-1 #
coedge $-1 -1 $-1 $25 $25 $16 $26 forward $31 $-1 #
edge $-1 -1 $-1 $38 0 $38 6.2831853071795862 $25 $39 forward @7 unknown #
edge $-1 -1 $-1 $40 1 $40 0 $17 $-1 forward @7 unknown #
vertex $-1 -1 $-1 $19 $41 #
ellipse-curve $-1 -1 $-1 0 0 -2.1874999999999996 0 0 -1 -0.09799999999999999 0 0 1 I I #
face $-1 -1 $-1 $42 $43 $2 $-1 $44 reversed single #
loop $-1 -1 $-1 $45 $25 $20 #
plane-surface $-1 -1 $-1 0 0 -3.1874999999999996 0 0 1 0.39370078740157477 0 0 forward_v I I I I #
loop $-1 -1 $-1 $46 $47 $12 #
coedge $-1 -1 $-1 $48 $49 $50 $51 reversed $21 $-1 #
coedge $-1 -1 $-1 $35 $35 $52 $53 forward $23 $-1 #
coedge $-1 -1 $-1 $36 $36 $24 $37 reversed $45 $-1 #
edge $-1 -1 $-1 $54 -3.1415926535897931 $54 3.1415926535897931 $36 $55 forward @7 unknown #
vertex $-1 -1 $-1 $26 $56 #
ellipse-curve $-1 -1 $-1 0 0 -3.1874999999999996 0 0 1 -0.09799999999999999 0 0 1 I I #
vertex $-1 -1 $-1 $27 $57 #
point $-1 -1 $-1 -0.09799999999999999 0 -2.1874999999999996 #
face $-1 -1 $-1 $58 $59 $2 $-1 $60 reversed single #
loop $-1 -1 $-1 $-1 $61 $30 #
cone-surface $-1 -1 $-1 -1.5298348764519871e-016 0.24999999999999997 -3.0874999999999999 5.2451481478353848e-016 -1 0 0.062499999999999993 3.2782175923971155e-017 0 1 I I 0 1 0.062499999999999993 forward I I I I #
loop $-1 -1 $-1 $-1 $36 $20 #
loop $-1 -1 $-1 $-1 $52 $12 #
coedge $-1 -1 $-1 $62 $63 $64 $65 forward $33 $-1 #
coedge $-1 -1 $-1 $66 $34 $67 $68 reversed $21 $-1 #
coedge $-1 -1 $-1 $34 $69 $70 $71 reversed $21 $-1 #
coedge $-1 -1 $-1 $72 $73 $34 $51 forward $74 $-1 #
edge $-1 -1 $-1 $75 2.6179938779914949 $76 3.6651914291880923 $50 $77 forward @7 unknown #
coedge $-1 -1 $-1 $52 $52 $35 $53 reversed $46 $-1 #
edge $-1 -1 $-1 $78 -3.1415926535897931 $78 3.1415926535897931 $52 $79 forward @7 unknown #
vertex $-1 -1 $-1 $37 $80 #
ellipse-curve $-1 -1 $-1 0 0 -3.1874999999999996 0 0 1 0.23999999999999999 0 0 1 I I #
point $-1 -1 $-1 -0.09799999999999999 0 -3.1874999999999996 #
point $-1 -1 $-1 0 0 -2.1286156593352987 #
face $-1 -1 $-1 $81 $82 $2 $-1 $83 reversed single #
loop $-1 -1 $-1 $-1 $84 $42 #
plane-surface $-1 -1 $-1 0.062499999999999986 0.25 -1.8874999999999997 1 5.2451481478353848e-016 -1.3659239968321316e-016 -5.3776535308351636e-017 0 -0.39370078740157477 forward_v I I I I #
coedge $-1 -1 $-1 $85 $86 $87 $88 reversed $43 $-1 #
coedge $-1 -1 $-1 $89 $47 $90 $91 forward $33 $-1 #
coedge $-1 -1 $-1 $47 $92 $84 $93 forward $33 $-1 #
coedge $-1 -1 $-1 $94 $90 $47 $65 reversed $95 $-1 #
edge $-1 -1 $-1 $96 -0.48059565441820107 $97 -0.24029782720910065 $47 $98 forward @7 unknown #
coedge $-1 -1 $-1 $99 $48 $100 $101 reversed $21 $-1 #
coedge $-1 -1 $-1 $102 $103 $48 $68 forward $104 $-1 #
edge $-1 -1 $-1 $105 1.5707963267948972 $75 2.6179938779914949 $67 $77 forward @7 unknown #
coedge $-1 -1 $-1 $49 $99 $106 $107 reversed $21 $-1 #
coedge $-1 -1 $-1 $108 $109 $49 $71 forward $110 $-1 #
edge $-1 -1 $-1 $76 -2.617993877991494 $111 -1.5707963267948966 $70 $77 forward @7 unknown #
coedge $-1 -1 $-1 $73 $50 $112 $113 reversed $74 $-1 #
coedge $-1 -1 $-1 $50 $72 $114 $115 reversed $74 $-1 #
loop $-1 -1 $-1 $-1 $50 $116 #
vertex $-1 -1 $-1 $115 $117 #
vertex $-1 -1 $-1 $118 $119 #
ellipse-curve $-1 -1 $-1 0 0 -0.9375 0 0 1 0.24999999999999997 0 0 1 I I #
vertex $-1 -1 $-1 $53 $120 #
ellipse-curve $-1 -1 $-1 0 0 -3.1774999999999998 0 0 -1 0.24999999999999997 0 0 1 I I #
point $-1 -1 $-1 -0.23999999999999999 -2.9390552491737052e-017 -3.1874999999999996 #
face $-1 -1 $-1 $121 $95 $2 $-1 $122 reversed single #
loop $-1 -1 $-1 $-1 $123 $58 #
plane-surface $-1 -1 $-1 -0.062500000000000111 0.24999999999999994 -3.0874999999999999 -1 -5.2451481478353848e-016 7.2849279831047019e-017 2.8680818831120871e-017 0 0.39370078740157477 forward_v I I I I #
coedge $-1 -1 $-1 $124 $125 $63 $93 reversed $59 $-1 #
coedge $-1 -1 $-1 $126 $61 $127 $128 forward $43 $-1 #
coedge $-1 -1 $-1 $61 $129 $92 $130 reversed $43 $-1 #
coedge $-1 -1 $-1 $92 $89 $61 $88 forward $33 $-1 #
edge $-1 -1 $-1 $131 0 $132 0.24029782720910176 $87 $133 forward @7 unknown #
coedge $-1 -1 $-1 $87 $62 $123 $134 forward $33 $-1 #
coedge $-1 -1 $-1 $64 $135 $62 $91 reversed $95 $-1 #
edge $-1 -1 $-1 $97 -0.24029782720910065 $136 -1.1102230246251565e-016 $62 $137 forward @7 unknown #
coedge $-1 -1 $-1 $63 $87 $86 $130 forward $33 $-1 #
edge $-1 -1 $-1 $138 -5.4609999999999994 $96 -2.4130000000000003 $63 $139 forward @7 unknown #
coedge $-1 -1 $-1 $140 $64 $125 $141 forward $95 $-1 #
loop $-1 -1 $-1 $-1 $90 $81 #
vertex $-1 -1 $-1 $65 $142 #
vertex $-1 -1 $-1 $65 $143 #
intcurve-curve $-1 -1 $-1 forward { surfintcur full nubs 3 open 5 
	-0.48059565441820107 3 -0.42051699758261751 2 -0.36043834074703385 2 -0.30036808397806725 2 -0.24029782720910065 3 
	0.062499999999999986 0.24206145913796356 -1.8874999999999997 
	0.062499999999999986 0.24206145913796356 -1.8796156618326005 
	0.060917440880622148 0.2424867896660528 -1.8712298932493434 
	0.05452899906975843 0.2440027986118313 -1.8558418321855978 
	0.0497248192391136 0.24506941282271313 -1.848836471590795 
	0.038664301691970521 0.24705594041734022 -1.8377759540436518 
	0.031658619037627636 0.24810781486271052 -1.8329711712932955 
	0.016269415988530943 0.24958978756122249 -1.8265822893106214 
	0.00788323579645216 0.24999999999999997 -1.8249999999999997 
	-1.5141438475461136e-016 0.24999999999999997 -1.8249999999999997 
	5.6873921573678307e-005 
	cone 0 0.24999999999999997 -1.8874999999999997 5.2451481478353848e-016 -1 0 -0.062499999999999993 -3.2782175923971155e-017 0 1 I I 0 1 0.062499999999999993 forward I I I I 
	cone 0 0 -0.9375 0 0 -1 0.24999999999999997 0 0 1 I I 0 1 0.24999999999999997 forward I I I I 
	nullbs 
	nullbs 
	I I 
	0 
	0 
	0 
	} I I #
coedge $-1 -1 $-1 $69 $66 $144 $145 reversed $21 $-1 #
coedge $-1 -1 $-1 $146 $147 $66 $101 forward $148 $-1 #
edge $-1 -1 $-1 $149 0.52359877559829859 $105 1.5707963267948972 $100 $77 forward @7 unknown #
coedge $-1 -1 $-1 $103 $67 $150 $151 reversed $104 $-1 #
coedge $-1 -1 $-1 $67 $102 $152 $153 reversed $104 $-1 #
loop $-1 -1 $-1 $-1 $67 $154 #
vertex $-1 -1 $-1 $153 $155 #
coedge $-1 -1 $-1 $156 $157 $69 $107 forward $158 $-1 #
edge $-1 -1 $-1 $111 -1.5707963267948966 $159 -0.52359877559829904 $106 $77 forward @7 unknown #
coedge $-1 -1 $-1 $109 $70 $160 $161 reversed $110 $-1 #
coedge $-1 -1 $-1 $70 $108 $162 $118 reversed $110 $-1 #
loop $-1 -1 $-1 $-1 $70 $163 #
vertex $-1 -1 $-1 $164 $165 #
coedge $-1 -1 $-1 $162 $166 $72 $113 forward $167 $-1 #
edge $-1 -1 $-1 $168 -0.73323484187082466 $76 -0.36661742093541239 $112 $169 forward @7 unknown #
coedge $-1 -1 $-1 $170 $150 $73 $115 forward $171 $-1 #
edge $-1 -1 $-1 $75 -0.36661742093541233 $168 0 $114 $172 forward @7 unknown #
face $-1 -1 $-1 $173 $74 $2 $-1 $174 reversed single #
point $-1 -1 $-1 -0.21650635094610968 0.1249999999999999 -0.9375 #
edge $-1 -1 $-1 $76 -0.36661742093541239 $175 0 $162 $169 forward @7 unknown #
point $-1 -1 $-1 -0.21650635094610965 -0.12500000000000003 -0.9375 #
point $-1 -1 $-1 -0.24999999999999997 3.0615158845559425e-017 -3.1774999999999998 #
face $-1 -1 $-1 $176 $177 $2 $-1 $178 forward single #
cone-surface $-1 -1 $-1 0 0.24999999999999997 -1.8874999999999997 5.2451481478353848e-016 -1 0 -0.062499999999999993 -3.2782175923971155e-017 0 1 I I 0 1 0.062499999999999993 forward I I I I #
coedge $-1 -1 $-1 $179 $127 $89 $134 reversed $82 $-1 #
coedge $-1 -1 $-1 $180 $84 $129 $181 forward $59 $-1 #
coedge $-1 -1 $-1 $84 $180 $94 $141 reversed $59 $-1 #
coedge $-1 -1 $-1 $129 $85 $182 $183 reversed $43 $-1 #
coedge $-1 -1 $-1 $123 $184 $85 $128 reversed $82 $-1 #
edge $-1 -1 $-1 $131 0.020163893789572618 $185 0.15875000000000022 $127 $186 forward @7 unknown #
coedge $-1 -1 $-1 $86 $126 $124 $181 reversed $43 $-1 #
edge $-1 -1 $-1 $132 0.24029782720910176 $138 0.48059565441820362 $92 $187 forward @7 unknown #
vertex $-1 -1 $-1 $134 $188 #
vertex $-1 -1 $-1 $88 $189 #
intcurve-curve $-1 -1 $-1 forward { surfintcur full nubs 3 open 5 
	0 3 0.060078656835584429 2 0.12015731367116886 2 0.18022757044013532 2 0.24029782720910176 3 
	-0.062500000000000111 0.24206145913796348 -3.0874999999999995 
	-0.062500000000000153 0.24206145913796348 -3.0953843381673991 
	-0.060917440880622349 0.24248678966605275 -3.1037701067506558 
	-0.054528999069758645 0.24400279861183127 -3.1191581678144016 
	-0.049724819239114003 0.24506941282271313 -3.1261635284092049 
	-0.038664301691970847 0.24705594041734022 -3.1372240459563479 
	-0.031658619037627941 0.24810781486271039 -3.142028828706704 
	-0.016269415988531176 0.24958978756122244 -3.1484177106893783 
	-0.0078832357964524393 0.24999999999999997 -3.1499999999999995 
	-1.5141438475461133e-016 0.24999999999999997 -3.1499999999999995 
	5.6873921573639526e-005 
	cone -1.5298348764519871e-016 0.24999999999999997 -3.0874999999999999 5.2451481478353848e-016 -1 0 0.062499999999999993 3.2782175923971155e-017 0 1 I I 0 1 0.062499999999999993 forward I I I I 
	cone 0 0 -0.9375 0 0 -1 0.24999999999999997 0 0 1 I I 0 1 0.24999999999999997 forward I I I I 
	nullbs 
	nullbs 
	I I 
	0 
	0 
	0 
	} I I #
edge $-1 -1 $-1 $136 2.4130000000000003 $131 5.4609999999999994 $89 $190 forward @7 unknown #
coedge $-1 -1 $-1 $90 $140 $179 $191 reversed $95 $-1 #
vertex $-1 -1 $-1 $134 $192 #
intcurve-curve $-1 -1 $-1 forward { surfintcur full nubs 3 open 5 
	-0.24029782720910065 3 -0.18022757044013404 2 -0.12015731367116744 2 -0.060078656835583777 2 -1.1102230246251565e-016 3 
	-1.5141438475461136e-016 0.24999999999999997 -1.8249999999999997 
	-0.0078832357964524636 0.24999999999999997 -1.8249999999999997 
	-0.01626941598853093 0.24958978756122249 -1.8265822893106214 
	-0.031658619037627622 0.24810781486271052 -1.8329711712932955 
	-0.038664301691970507 0.2470559404173403 -1.8377759540436518 
	-0.049724819239113593 0.24506941282271322 -1.848836471590795 
	-0.05452899906975843 0.2440027986118313 -1.8558418321855978 
	-0.060917440880622148 0.2424867896660528 -1.8712298932493434 
	-0.062500000000000014 0.24206145913796356 -1.8796156618326005 
	-0.062500000000000014 0.24206145913796356 -1.8874999999999997 
	5.6873921573678307e-005 
	cone 0 0.24999999999999997 -1.8874999999999997 5.2451481478353848e-016 -1 0 -0.062499999999999993 -3.2782175923971155e-017 0 1 I I 0 1 0.062499999999999993 forward I I I I 
	cone 0 0 -0.9375 0 0 -1 0.24999999999999997 0 0 1 I I 0 1 0.24999999999999997 forward I I I I 
	nullbs 
	nullbs 
	I I 
	0 
	0 
	0 
	} I I #
vertex $-1 -1 $-1 $93 $193 #
straight-curve $-1 -1 $-1 0.062500000000000111 0.24206145913796351 -0.93749999999999978 0 0 0.39370078740157477 I I #
coedge $-1 -1 $-1 $135 $94 $194 $195 reversed $95 $-1 #
edge $-1 -1 $-1 $96 0.020163893789572618 $196 0.15875000000000022 $125 $197 forward @7 unknown #
point $-1 -1 $-1 0.062499999999999986 0.24206145913796356 -1.8874999999999997 #
point $-1 -1 $-1 -1.5141438475461136e-016 0.24999999999999997 -1.8249999999999997 #
coedge $-1 -1 $-1 $198 $199 $99 $145 forward $200 $-1 #
edge $-1 -1 $-1 $159 -0.52359877559829904 $149 0.52359877559829859 $144 $77 forward @7 unknown #
coedge $-1 -1 $-1 $147 $100 $201 $202 reversed $148 $-1 #
coedge $-1 -1 $-1 $100 $146 $203 $204 reversed $148 $-1 #
loop $-1 -1 $-1 $-1 $100 $205 #
vertex $-1 -1 $-1 $204 $206 #
coedge $-1 -1 $-1 $114 $207 $102 $151 forward $171 $-1 #
edge $-1 -1 $-1 $208 -0.73323484187082455 $75 -0.36661742093541233 $150 $172 forward @7 unknown #
coedge $-1 -1 $-1 $209 $201 $103 $153 forward $210 $-1 #
edge $-1 -1 $-1 $105 -0.36661742093541222 $208 0 $152 $211 forward @7 unknown #
face $-1 -1 $-1 $116 $104 $2 $-1 $174 reversed single #
point $-1 -1 $-1 -1.5298348764519871e-016 0.24999999999999997 -0.9375 #
coedge $-1 -1 $-1 $157 $106 $212 $213 reversed $158 $-1 #
coedge $-1 -1 $-1 $106 $156 $214 $164 reversed $158 $-1 #
loop $-1 -1 $-1 $-1 $106 $215 #
vertex $-1 -1 $-1 $216 $217 #
coedge $-1 -1 $-1 $214 $218 $108 $161 forward $219 $-1 #
edge $-1 -1 $-1 $175 -0.73323484187082455 $111 -0.36661742093541227 $160 $220 forward @7 unknown #
coedge $-1 -1 $-1 $221 $112 $109 $118 forward $167 $-1 #
face $-1 -1 $-1 $215 $110 $2 $-1 $174 reversed single #
edge $-1 -1 $-1 $111 -0.36661742093541227 $222 0 $214 $220 forward @7 unknown #
point $-1 -1 $-1 3.2782175923971155e-017 -0.24999999999999997 -0.9375 #
coedge $-1 -1 $-1 $112 $223 $170 $224 forward $167 $-1 #
loop $-1 -1 $-1 $-1 $225 $226 #
vertex $-1 -1 $-1 $224 $227 #
straight-curve $-1 -1 $-1 -0.14433756729740638 -0.24999999999999997 -0.9375 0.19685039370078755 -0.3409548833797002 0 F -0.73323484187082466 F 0 #
coedge $-1 -1 $-1 $228 $114 $166 $224 reversed $171 $-1 #
loop $-1 -1 $-1 $-1 $228 $229 #
straight-curve $-1 -1 $-1 -0.28867513459481281 -1.0326226220358899e-016 -0.9375 -0.19685039370078725 -0.34095488337970031 0 F -0.73323484187082455 F 0 #
face $-1 -1 $-1 $230 $231 $2 $-1 $232 forward single #
plane-surface $-1 -1 $-1 -2.7318479936642629e-017 -2.7318479936642629e-018 -0.9375 0 0 1 0.39370078740157477 0 0 forward_v I I I I #
vertex $-1 -1 $-1 $233 $234 #
face $-1 -1 $-1 $163 $235 $2 $-1 $236 reversed single #
loop $-1 -1 $-1 $-1 $237 $121 #
plane-surface $-1 -1 $-1 -4.9173263885956735e-017 0.18749999999999989 -2.4874999999999994 -7.317898996449218e-016 1 7.753671406770153e-031 0 -3.0526265380984852e-031 0.39370078740157477 forward_v I I I I #
coedge $-1 -1 $-1 $184 $123 $135 $191 forward $82 $-1 #
coedge $-1 -1 $-1 $125 $124 $238 $239 reversed $59 $-1 #
edge $-1 -1 $-1 $138 0.020163893789572618 $240 0.15875000000000022 $129 $241 forward @7 unknown #
coedge $-1 -1 $-1 $237 $238 $126 $183 forward $177 $-1 #
edge $-1 -1 $-1 $240 0 $185 3.1415926535897931 $126 $242 forward @7 unknown #
coedge $-1 -1 $-1 $127 $179 $237 $243 reversed $82 $-1 #
vertex $-1 -1 $-1 $128 $244 #
straight-curve $-1 -1 $-1 -0.062500000000000111 0.24999999999999994 -3.0874999999999999 2.0650189558407025e-016 -0.39370078740157477 0 I I #
intcurve-curve $-1 -1 $-1 forward { surfintcur full nubs 3 open 5 
	0.24029782720910176 3 0.30036808397806825 2 0.36043834074703468 2 0.42051699758261918 2 0.48059565441820362 3 
	-1.5141438475461133e-016 0.24999999999999997 -3.1499999999999995 
	0.0078832357964521444 0.24999999999999997 -3.1499999999999995 
	0.016269415988530857 0.24958978756122249 -3.1484177106893783 
	0.031658619037627615 0.24810781486271052 -3.142028828706704 
	0.038664301691970514 0.24705594041734028 -3.1372240459563479 
	0.049724819239113677 0.24506941282271322 -3.1261635284092049 
	0.054528999069758326 0.24400279861183136 -3.1191581678144016 
	0.060917440880622051 0.24248678966605286 -3.1037701067506558 
	0.062499999999999861 0.24206145913796356 -3.0953843381673991 
	0.06249999999999982 0.24206145913796356 -3.0874999999999995 
	5.6873921573639526e-005 
	cone -1.5298348764519871e-016 0.24999999999999997 -3.0874999999999999 5.2451481478353848e-016 -1 0 0.062499999999999993 3.2782175923971155e-017 0 1 I I 0 1 0.062499999999999993 forward I I I I 
	cone 0 0 -0.9375 0 0 -1 0.24999999999999997 0 0 1 I I 0 1 0.24999999999999997 forward I I I I 
	nullbs 
	nullbs 
	I I 
	0 
	0 
	0 
	} I I #
point $-1 -1 $-1 -0.062500000000000111 0.24206145913796348 -3.0874999999999995 #
point $-1 -1 $-1 -1.5141438475461133e-016 0.24999999999999997 -3.1499999999999995 #
straight-curve $-1 -1 $-1 -0.062499999999999951 0.24206145913796356 -0.93749999999999978 0 0 -0.39370078740157477 I I #
edge $-1 -1 $-1 $136 0.020163893789572396 $245 0.15875000000000022 $135 $246 forward @7 unknown #
point $-1 -1 $-1 -0.062500000000000014 0.24206145913796356 -1.8874999999999997 #
point $-1 -1 $-1 0.06249999999999982 0.24206145913796356 -3.0874999999999995 #
coedge $-1 -1 $-1 $238 $237 $140 $195 forward $177 $-1 #
edge $-1 -1 $-1 $245 0 $196 3.1415926535897931 $140 $247 forward @7 unknown #
vertex $-1 -1 $-1 $141 $248 #
straight-curve $-1 -1 $-1 0.062499999999999986 0.25 -1.8874999999999997 2.0650189558407025e-016 -0.39370078740157477 0 I I #
coedge $-1 -1 $-1 $199 $144 $249 $250 reversed $200 $-1 #
coedge $-1 -1 $-1 $144 $198 $251 $216 reversed $200 $-1 #
loop $-1 -1 $-1 $-1 $144 $252 #
coedge $-1 -1 $-1 $152 $253 $146 $202 forward $210 $-1 #
edge $-1 -1 $-1 $254 -0.73323484187082466 $105 -0.36661742093541222 $201 $211 forward @7 unknown #
coedge $-1 -1 $-1 $255 $249 $147 $204 forward $256 $-1 #
edge $-1 -1 $-1 $149 -0.36661742093541289 $254 0 $203 $257 forward @7 unknown #
face $-1 -1 $-1 $154 $148 $2 $-1 $174 reversed single #
point $-1 -1 $-1 0.21650635094610959 0.1249999999999999 -0.9375 #
coedge $-1 -1 $-1 $150 $258 $209 $259 forward $171 $-1 #
vertex $-1 -1 $-1 $259 $260 #
coedge $-1 -1 $-1 $261 $152 $207 $259 reversed $210 $-1 #
loop $-1 -1 $-1 $-1 $261 $262 #
straight-curve $-1 -1 $-1 -0.14433756729740652 0.24999999999999989 -0.9375 -0.39370078740157477 -2.3844785000726196e-016 0 F -0.73323484187082466 F 0 #
coedge $-1 -1 $-1 $251 $263 $156 $213 forward $264 $-1 #
edge $-1 -1 $-1 $222 -0.73323484187082455 $159 -0.36661742093541233 $212 $265 forward @7 unknown #
coedge $-1 -1 $-1 $266 $160 $157 $164 forward $219 $-1 #
face $-1 -1 $-1 $252 $158 $2 $-1 $174 reversed single #
edge $-1 -1 $-1 $159 -0.36661742093541233 $267 0 $251 $265 forward @7 unknown #
point $-1 -1 $-1 0.21650635094610954 -0.12499999999999997 -0.9375 #
coedge $-1 -1 $-1 $160 $268 $221 $233 forward $219 $-1 #
loop $-1 -1 $-1 $-1 $269 $270 #
straight-curve $-1 -1 $-1 0.14433756729740641 -0.24999999999999994 -0.9375 0.39370078740157477 5.9611962501815502e-017 0 F -0.73323484187082455 F 0 #
coedge $-1 -1 $-1 $225 $162 $218 $233 reversed $167 $-1 #
vertex $-1 -1 $-1 $271 $272 #
coedge $-1 -1 $-1 $166 $225 $273 $274 forward $167 $-1 #
edge $-1 -1 $-1 $275 -2.3812500000000001 $168 2.3812500000000001 $166 $276 forward @7 unknown #
coedge $-1 -1 $-1 $223 $221 $277 $278 forward $167 $-1 #
face $-1 -1 $-1 $229 $167 $2 $-1 $279 forward single #
point $-1 -1 $-1 -0.28867513459481281 -1.0326226220358899e-016 -0.9375 #
coedge $-1 -1 $-1 $258 $170 $280 $281 forward $171 $-1 #
face $-1 -1 $-1 $262 $171 $2 $-1 $282 forward single #
face $-1 -1 $-1 $283 $284 $2 $-1 $285 reversed single #
loop $-1 -1 $-1 $286 $287 $173 #
cone-surface $-1 -1 $-1 0 0 1.2499999999999998 0 0 1 -0.12249999999999998 0 0 1 I I 0 1 0.12249999999999998 forward I I I I #
edge $-1 -1 $-1 $288 -2.3812500000000001 $175 2.3812500000000001 $218 $289 forward @7 unknown #
point $-1 -1 $-1 -0.14433756729740638 -0.24999999999999997 -0.9375 #
loop $-1 -1 $-1 $290 $291 $176 #
cone-surface $-1 -1 $-1 2.8411219134108334e-015 -4.6869362547366693 -0.33750000000000002 -6.0565753901844544e-016 1 0 0.046875 2.8390197141489625e-017 0 1 I I 0 1 0.046875 reversed I I I I #
coedge $-1 -1 $-1 $194 $182 $184 $243 forward $177 $-1 #
coedge $-1 -1 $-1 $182 $194 $180 $239 forward $177 $-1 #
edge $-1 -1 $-1 $196 1.8369354180149682e-047 $240 3.048 $180 $292 forward @7 unknown #
vertex $-1 -1 $-1 $181 $293 #
straight-curve $-1 -1 $-1 0.06249999999999982 0.25 -3.0874999999999999 2.0650189558407025e-016 -0.39370078740157477 0 I I #
ellipse-curve $-1 -1 $-1 -1.2020131172122756e-016 0.1875 -3.0874999999999999 -6.0565753901844544e-016 1 0 0.062499999999999993 3.785359618865284e-017 0 1 F 0 F 3.1415926535897931 #
edge $-1 -1 $-1 $185 -9.7969888960798302e-048 $245 3.048 $184 $294 forward @7 unknown #
point $-1 -1 $-1 -0.062500000000000069 0.18749999999999986 -3.0874999999999999 #
vertex $-1 -1 $-1 $191 $295 #
straight-curve $-1 -1 $-1 -0.062500000000000014 0.24999999999999994 -1.8874999999999997 2.0650189558407025e-016 -0.39370078740157477 0 I I #
ellipse-curve $-1 -1 $-1 3.2782175923971155e-017 0.1875 -1.8874999999999997 -6.0565753901844544e-016 1 0 -0.062499999999999993 -3.785359618865284e-017 0 1 F 0 F 3.1415926535897931 #
point $-1 -1 $-1 0.062500000000000014 0.18749999999999994 -1.8874999999999997 #
coedge $-1 -1 $-1 $203 $296 $198 $250 forward $256 $-1 #
edge $-1 -1 $-1 $267 -0.7332348418708251 $149 -0.36661742093541289 $249 $257 forward @7 unknown #
coedge $-1 -1 $-1 $297 $212 $199 $216 forward $264 $-1 #
face $-1 -1 $-1 $205 $200 $2 $-1 $174 reversed single #
coedge $-1 -1 $-1 $201 $298 $255 $299 forward $210 $-1 #
vertex $-1 -1 $-1 $299 $300 #
coedge $-1 -1 $-1 $301 $203 $253 $299 reversed $256 $-1 #
loop $-1 -1 $-1 $-1 $301 $302 #
straight-curve $-1 -1 $-1 0.14433756729740629 0.25000000000000006 -0.9375 -0.19685039370078736 0.34095488337970026 0 F -0.7332348418708251 F 0 #
coedge $-1 -1 $-1 $207 $228 $303 $304 forward $171 $-1 #
edge $-1 -1 $-1 $305 -2.3812500000000001 $208 2.3812500000000001 $207 $306 forward @7 unknown #
point $-1 -1 $-1 -0.14433756729740652 0.24999999999999989 -0.9375 #
coedge $-1 -1 $-1 $298 $209 $307 $308 forward $210 $-1 #
face $-1 -1 $-1 $302 $309 $2 $-1 $310 forward single #
coedge $-1 -1 $-1 $212 $311 $266 $271 forward $264 $-1 #
loop $-1 -1 $-1 $-1 $312 $313 #
straight-curve $-1 -1 $-1 0.28867513459481281 -2.7318479936642629e-017 -0.9375 0.19685039370078747 0.34095488337970026 0 F -0.73323484187082455 F 0 #
coedge $-1 -1 $-1 $269 $214 $263 $271 reversed $219 $-1 #
vertex $-1 -1 $-1 $314 $315 #
coedge $-1 -1 $-1 $218 $269 $316 $317 forward $219 $-1 #
coedge $-1 -1 $-1 $268 $266 $318 $319 forward $219 $-1 #
face $-1 -1 $-1 $226 $320 $2 $-1 $321 forward single #
edge $-1 -1 $-1 $322 -2.3812500000000001 $222 2.3812500000000001 $263 $323 forward @7 unknown #
point $-1 -1 $-1 0.14433756729740641 -0.24999999999999994 -0.9375 #
coedge $-1 -1 $-1 $324 $280 $223 $274 reversed $325 $-1 #
edge $-1 -1 $-1 $326 0.36661742093541227 $275 0.73323484187082466 $223 $327 forward @7 unknown #
vertex $-1 -1 $-1 $224 $328 #
straight-curve $-1 -1 $-1 -0.28867513459481281 -1.0326226220358899e-016 0 0 0 -0.39370078740157477 I I #
coedge $-1 -1 $-1 $316 $329 $225 $278 reversed $330 $-1 #
edge $-1 -1 $-1 $288 0 $326 0.36661742093541227 $225 $327 forward @7 unknown #
plane-surface $-1 -1 $-1 -0.14433756729740638 -0.24999999999999997 0 -0.8660254037844386 -0.50000000000000033 0 0 0 0.39370078740157477 forward_v I I I I #
coedge $-1 -1 $-1 $273 $324 $228 $281 reversed $325 $-1 #
edge $-1 -1 $-1 $275 0 $331 0.36661742093541233 $228 $332 forward @7 unknown #
plane-surface $-1 -1 $-1 -0.28867513459481281 -1.0326226220358899e-016 0 -0.86602540378443882 0.49999999999999967 0 0 0 0.39370078740157477 forward_v I I I I #
face $-1 -1 $-1 $333 $334 $2 $-1 $335 forward single #
loop $-1 -1 $-1 $-1 $336 $230 #
plane-surface $-1 -1 $-1 0 0 1.6899999999999999 0 0 -1 -0.39370078740157477 0 0 forward_v I I I I #
loop $-1 -1 $-1 $-1 $337 $173 #
coedge $-1 -1 $-1 $287 $287 $336 $338 forward $231 $-1 #
vertex $-1 -1 $-1 $233 $339 #
straight-curve $-1 -1 $-1 -0.14433756729740638 -0.24999999999999997 0 0 0 -0.39370078740157477 I I #
loop $-1 -1 $-1 $-1 $340 $176 #
coedge $-1 -1 $-1 $291 $291 $341 $342 reversed $235 $-1 #
straight-curve $-1 -1 $-1 0.062500000000000014 0.18750000000000003 -1.8874999999999997 -5.3776535308351636e-017 -3.257016403179479e-032 -0.39370078740157477 F 0 F 3.048 #
point $-1 -1 $-1 0.062499999999999854 0.18749999999999994 -3.0874999999999999 #
straight-curve $-1 -1 $-1 -0.062500000000000069 0.18749999999999994 -3.0874999999999999 2.8680818831120871e-017 1.7370754150290553e-032 0.39370078740157477 F 0 F 3.048 #
point $-1 -1 $-1 -0.062499999999999986 0.18749999999999986 -1.8874999999999997 #
coedge $-1 -1 $-1 $249 $343 $297 $314 reversed $256 $-1 #
coedge $-1 -1 $-1 $312 $251 $296 $314 forward $264 $-1 #
coedge $-1 -1 $-1 $253 $261 $344 $345 forward $210 $-1 #
edge $-1 -1 $-1 $346 -2.3812500000000001 $254 2.3812500000000001 $253 $347 forward @7 unknown #
point $-1 -1 $-1 0.14433756729740629 0.25000000000000006 -0.9375 #
coedge $-1 -1 $-1 $343 $255 $348 $349 forward $256 $-1 #
face $-1 -1 $-1 $313 $256 $2 $-1 $350 forward single #
coedge $-1 -1 $-1 $351 $307 $258 $304 reversed $352 $-1 #
edge $-1 -1 $-1 $331 0.36661742093541233 $305 0.73323484187082455 $258 $332 forward @7 unknown #
vertex $-1 -1 $-1 $259 $353 #
straight-curve $-1 -1 $-1 -0.14433756729740652 0.24999999999999989 0 0 0 -0.39370078740157477 I I #
coedge $-1 -1 $-1 $303 $351 $261 $308 reversed $352 $-1 #
edge $-1 -1 $-1 $305 0 $354 0.36661742093541222 $261 $355 forward @7 unknown #
loop $-1 -1 $-1 $210 $356 $262 #
plane-surface $-1 -1 $-1 -0.14433756729740652 0.24999999999999989 0 -6.0565753901844544e-016 1 0 0 0 0.39370078740157477 forward_v I I I I #
coedge $-1 -1 $-1 $263 $312 $357 $358 forward $264 $-1 #
coedge $-1 -1 $-1 $311 $297 $359 $360 forward $264 $-1 #
face $-1 -1 $-1 $-1 $264 $2 $-1 $361 forward single #
edge $-1 -1 $-1 $267 -2.3812500000000001 $362 2.3812500000000001 $297 $363 forward @7 unknown #
point $-1 -1 $-1 0.28867513459481281 -2.7318479936642629e-017 -0.9375 #
coedge $-1 -1 $-1 $329 $277 $268 $317 reversed $330 $-1 #
edge $-1 -1 $-1 $364 0.36661742093541227 $288 0.73323484187082455 $268 $365 forward @7 unknown #
coedge $-1 -1 $-1 $357 $366 $269 $319 reversed $367 $-1 #
edge $-1 -1 $-1 $322 0 $364 0.36661742093541227 $269 $365 forward @7 unknown #
loop $-1 -1 $-1 $219 $341 $270 #
plane-surface $-1 -1 $-1 0.14433756729740641 -0.24999999999999994 0 1.5141438475461138e-016 -1 0 0 0 -0.39370078740157477 forward_v I I I I #
vertex $-1 -1 $-1 $271 $368 #
straight-curve $-1 -1 $-1 0.14433756729740641 -0.24999999999999994 0 0 0 -0.39370078740157477 I I #
coedge $-1 -1 $-1 $280 $273 $369 $370 forward $325 $-1 #
loop $-1 -1 $-1 $-1 $324 $371 #
vertex $-1 -1 $-1 $274 $372 #
straight-curve $-1 -1 $-1 -0.14433756729740638 -0.24999999999999997 0.9375 -0.19685039370078755 0.3409548833797002 0 F 0 F 0.73323484187082466 #
point $-1 -1 $-1 -0.28867513459481281 -1.0326226220358899e-016 0.9375 #
coedge $-1 -1 $-1 $277 $316 $373 $374 forward $330 $-1 #
loop $-1 -1 $-1 $-1 $329 $375 #
vertex $-1 -1 $-1 $304 $376 #
straight-curve $-1 -1 $-1 -0.28867513459481281 -1.0326226220358899e-016 0.9375 0.19685039370078725 0.34095488337970031 0 F 0 F 0.73323484187082455 #
face $-1 -1 $-1 $377 $378 $2 $-1 $379 reversed single #
loop $-1 -1 $-1 $380 $381 $283 #
cone-surface $-1 -1 $-1 0 0 0.9375 0 0 1 -0.24999999999999989 0 0 1 I I 0 1 0.24999999999999989 forward I I I I #
coedge $-1 -1 $-1 $336 $336 $287 $338 reversed $284 $-1 #
coedge $-1 -1 $-1 $337 $337 $382 $383 reversed $286 $-1 #
edge $-1 -1 $-1 $384 -3.1415926535897931 $384 3.1415926535897931 $287 $385 forward @7 unknown #
point $-1 -1 $-1 -0.14433756729740638 -0.24999999999999997 0.9375 #
coedge $-1 -1 $-1 $340 $340 $356 $386 reversed $290 $-1 #
coedge $-1 -1 $-1 $341 $341 $291 $342 forward $320 $-1 #
edge $-1 -1 $-1 $387 -3.1415926535897931 $387 3.1415926535897931 $341 $388 forward @7 unknown #
coedge $-1 -1 $-1 $296 $301 $389 $390 forward $256 $-1 #
coedge $-1 -1 $-1 $391 $348 $298 $345 reversed $392 $-1 #
edge $-1 -1 $-1 $354 0.36661742093541222 $346 0.73323484187082466 $298 $355 forward @7 unknown #
vertex $-1 -1 $-1 $299 $393 #
straight-curve $-1 -1 $-1 0.14433756729740629 0.25000000000000006 0 0 0 -0.39370078740157477 I I #
coedge $-1 -1 $-1 $344 $391 $301 $349 reversed $392 $-1 #
edge $-1 -1 $-1 $346 0 $394 0.36661742093541283 $301 $395 forward @7 unknown #
plane-surface $-1 -1 $-1 0.14433756729740629 0.25000000000000006 0 0.86602540378443871 0.49999999999999994 0 0 0 -0.39370078740157477 forward_v I I I I #
coedge $-1 -1 $-1 $307 $303 $396 $397 forward $352 $-1 #
loop $-1 -1 $-1 $-1 $351 $398 #
point $-1 -1 $-1 -0.14433756729740652 0.24999999999999989 0.9375 #
vertex $-1 -1 $-1 $345 $399 #
straight-curve $-1 -1 $-1 -0.14433756729740652 0.24999999999999989 0.9375 0.39370078740157477 2.3844785000726196e-016 0 F 0 F 0.73323484187082466 #
coedge $-1 -1 $-1 $356 $356 $340 $386 forward $309 $-1 #
coedge $-1 -1 $-1 $366 $318 $311 $358 reversed $367 $-1 #
edge $-1 -1 $-1 $400 0.36661742093541233 $322 0.73323484187082455 $311 $401 forward @7 unknown #
coedge $-1 -1 $-1 $389 $402 $312 $360 reversed $403 $-1 #
edge $-1 -1 $-1 $362 0 $400 0.36661742093541233 $312 $401 forward @7 unknown #
plane-surface $-1 -1 $-1 0.28867513459481281 -2.7318479936642629e-017 0 0.86602540378443871 -0.50000000000000011 0 0 0 -0.39370078740157477 forward_v I I I I #
vertex $-1 -1 $-1 $314 $404 #
straight-curve $-1 -1 $-1 0.28867513459481281 -2.7318479936642629e-017 0 0 0 0.39370078740157477 I I #
vertex $-1 -1 $-1 $317 $405 #
straight-curve $-1 -1 $-1 0.14433756729740641 -0.24999999999999994 0.9375 -0.39370078740157477 -5.9611962501815502e-017 0 F 0 F 0.73323484187082455 #
coedge $-1 -1 $-1 $318 $357 $406 $407 forward $367 $-1 #
loop $-1 -1 $-1 $-1 $366 $377 #
point $-1 -1 $-1 0.14433756729740641 -0.24999999999999994 0.9375 #
coedge $-1 -1 $-1 $373 $396 $324 $370 reversed $380 $-1 #
edge $-1 -1 $-1 $326 -0.52359877559829915 $331 0.52359877559829848 $324 $408 forward @7 unknown #
face $-1 -1 $-1 $398 $325 $2 $-1 $409 forward single #
point $-1 -1 $-1 -0.21650635094610959 -0.12500000000000003 0.9375 #
coedge $-1 -1 $-1 $406 $369 $329 $374 reversed $380 $-1 #
edge $-1 -1 $-1 $364 -1.5707963267948968 $326 -0.52359877559829915 $329 $408 forward @7 unknown #
face $-1 -1 $-1 $371 $330 $2 $-1 $409 forward single #
point $-1 -1 $-1 -0.21650635094610968 0.1249999999999999 0.9375 #
face $-1 -1 $-1 $375 $367 $2 $-1 $409 forward single #
loop $-1 -1 $-1 $410 $382 $333 #
plane-surface $-1 -1 $-1 0 0 1.2499999999999998 0 0 -1 -0.39370078740157477 0 0 forward_v I I I I #
loop $-1 -1 $-1 $-1 $411 $283 #
coedge $-1 -1 $-1 $381 $381 $412 $413 forward $334 $-1 #
coedge $-1 -1 $-1 $382 $382 $337 $383 forward $378 $-1 #
edge $-1 -1 $-1 $414 -3.1415926535897931 $414 3.1415926535897931 $382 $415 forward @7 unknown #
vertex $-1 -1 $-1 $338 $416 #
ellipse-curve $-1 -1 $-1 0 0 1.6899999999999999 0 0 -1 -0.12249999999999998 0 0 1 I I #
edge $-1 -1 $-1 $417 0 $417 6.2831853071795862 $356 $418 forward @7 unknown #
vertex $-1 -1 $-1 $342 $419 #
ellipse-curve $-1 -1 $-1 1.5385802058530423e-016 -0.24999999999999989 -0.33750000000000002 -1.5141438475461138e-016 1 0 0.046875 2.8390197141489625e-017 0 1 I I #
coedge $-1 -1 $-1 $402 $359 $343 $390 reversed $403 $-1 #
edge $-1 -1 $-1 $394 0.36661742093541283 $362 0.7332348418708251 $343 $395 forward @7 unknown #
coedge $-1 -1 $-1 $348 $344 $420 $421 forward $392 $-1 #
loop $-1 -1 $-1 $-1 $391 $422 #
point $-1 -1 $-1 0.14433756729740629 0.25000000000000006 0.9375 #
vertex $-1 -1 $-1 $390 $423 #
straight-curve $-1 -1 $-1 0.14433756729740629 0.25000000000000006 0.9375 0.19685039370078736 -0.34095488337970026 0 F 0 F 0.7332348418708251 #
coedge $-1 -1 $-1 $369 $420 $351 $397 reversed $380 $-1 #
edge $-1 -1 $-1 $331 0.52359877559829848 $354 1.5707963267948961 $351 $408 forward @7 unknown #
face $-1 -1 $-1 $422 $352 $2 $-1 $409 forward single #
point $-1 -1 $-1 -1.5298348764519871e-016 0.24999999999999997 0.9375 #
vertex $-1 -1 $-1 $358 $424 #
straight-curve $-1 -1 $-1 0.28867513459481281 -2.7318479936642629e-017 0.9375 -0.19685039370078747 -0.34095488337970026 0 F 0 F 0.73323484187082455 #
coedge $-1 -1 $-1 $359 $389 $411 $425 forward $403 $-1 #
loop $-1 -1 $-1 $-1 $402 $426 #
point $-1 -1 $-1 0.28867513459481281 -2.7318479936642629e-017 0.9375 #
point $-1 -1 $-1 3.2782175923971155e-017 -0.24999999999999997 0.9375 #
coedge $-1 -1 $-1 $411 $373 $366 $407 reversed $380 $-1 #
edge $-1 -1 $-1 $400 -2.6179938779914944 $364 -1.5707963267948968 $366 $408 forward @7 unknown #
ellipse-curve $-1 -1 $-1 0 0 0.9375 0 0 -1 -0.24999999999999989 0 0 1 I I #
plane-surface $-1 -1 $-1 -3.0795377383124417e-017 -5.4636959873285258e-018 0.9375 0 0 1 0.39370078740157477 0 0 forward_v I I I I #
loop $-1 -1 $-1 $-1 $412 $333 #
coedge $-1 -1 $-1 $420 $406 $402 $425 reversed $380 $-1 #
coedge $-1 -1 $-1 $412 $412 $381 $413 reversed $410 $-1 #
edge $-1 -1 $-1 $427 -3.1415926535897931 $427 3.1415926535897931 $381 $428 forward @7 unknown #
vertex $-1 -1 $-1 $383 $429 #
ellipse-curve $-1 -1 $-1 0 0 1.2499999999999998 0 0 -1 -0.12249999999999998 0 0 1 I I #
point $-1 -1 $-1 0.12249999999999998 1.5001427834324119e-017 1.6899999999999999 #
vertex $-1 -1 $-1 $386 $430 #
ellipse-curve $-1 -1 $-1 -1.4897074892391863e-016 0.24999999999999989 -0.33750000000000002 6.0565753901844544e-016 -1 0 0.046875 2.8390197141489625e-017 0 1 I I #
point $-1 -1 $-1 -0.04687499999999984 -0.24999999999999994 -0.33750000000000002 #
coedge $-1 -1 $-1 $396 $411 $391 $421 reversed $380 $-1 #
edge $-1 -1 $-1 $354 1.5707963267948961 $394 2.6179938779914944 $391 $408 forward @7 unknown #
face $-1 -1 $-1 $426 $392 $2 $-1 $409 forward single #
point $-1 -1 $-1 0.21650635094610959 0.12499999999999993 0.9375 #
point $-1 -1 $-1 0.21650635094610954 -0.12499999999999997 0.9375 #
edge $-1 -1 $-1 $394 2.6179938779914944 $400 3.6651914291880918 $402 $408 forward @7 unknown #
face $-1 -1 $-1 $270 $403 $2 $-1 $409 forward single #
vertex $-1 -1 $-1 $413 $431 #
ellipse-curve $-1 -1 $-1 0 0 1.2499999999999998 0 0 -1 -0.24999999999999989 0 0 1 I I #
point $-1 -1 $-1 0.12249999999999998 1.5001427834324119e-017 1.2499999999999998 #
point $-1 -1 $-1 0.046874999999999847 0.25 -0.33750000000000002 #
point $-1 -1 $-1 0.24999999999999989 3.0615158845559419e-017 1.2499999999999998 #
End-of-ACIS-data 